<?xml version="1.0" encoding="UTF-8"?>
<svg width="52px" height="52px" viewBox="0 0 52 52" version="1.1" xmlns="http://www.w3.org/2000/svg" xmlns:xlink="http://www.w3.org/1999/xlink">
    <!-- Generator: Sketch 50 (54983) - http://www.bohemiancoding.com/sketch -->
    <title>a_10</title>
    <desc>Created with Sketch.</desc>
    <defs></defs>
    <g id="开发资源" stroke="none" stroke-width="1" fill="none" fill-rule="evenodd">
        <g id="开发文档" transform="translate(-1030.000000, -2045.000000)">
            <g id="a_10" transform="translate(1030.000000, 2045.000000)">
                <g>
                    <rect id="Rectangle-3" fill="#3ABFFA" x="0" y="0" width="52" height="52" rx="26"></rect>
                    <g id="qq" transform="translate(9.629630, 10.592593)">
                        <rect id="Rectangle" fill="#D8D8D8" opacity="0" x="0" y="0" width="30.8148148" height="30.8148148"></rect>
                        <polygon id="Shape" fill="#FFFFFF" fill-rule="nonzero" points="27.3709383 19.4289815 27.3057376 18.9757068 27.2233241 18.5328642 27.1570802 18.3049228 27.093966 18.0634197 27.0089444 17.8328704 26.9213148 17.577284 26.8222099 17.3347377 26.7152809 17.0859321 26.5217654 16.6806451 26.3522438 16.3228241 26.1811574 16.0046451 26.0330216 15.706287 25.860892 15.4345309 25.7357068 15.1857253 25.4696883 14.813821 25.1358611 14.3193395 25.058142 14.1967623 25.0325833 14.1446019 25.0325833 14.1033951 25.0873519 13.9364815 25.165071 13.7878241 25.2328796 13.4941605 25.2699136 13.3418519 25.2699136 13.1853704 25.2886913 13.059142 25.2886913 12.932392 25.2699136 12.7868642 25.246963 12.6674167 25.1979321 12.4264352 25.1337747 12.1922346 25.0763981 11.9768117 24.9861605 11.7681697 24.8807963 11.5939537 24.8020339 11.4296481 24.7123179 11.2736883 24.5704413 11.0431389 24.5177593 10.9612469 24.5026327 10.889787 24.4374321 10.4438148 24.3962253 10.1506728 24.347716 9.786071 24.2726049 9.41051544 24.1557654 8.97966974 24.0905648 8.73764507 24.0373611 8.53369752 23.9643364 8.29532407 23.8814012 8.04234567 23.8000309 7.80814507 23.6951883 7.55620988 23.4813302 7.06903086 23.356145 6.83848148 23.2022716 6.57402778 23.0572654 6.34712963 22.9153889 6.0910216 22.7124846 5.85264815 22.5413981 5.62262037 22.3332778 5.38424692 22.1199413 5.16830248 21.9050401 4.95966049 21.6515401 4.74423766 21.5180093 4.66599692 21.3917809 4.5580247 21.1189815 4.36816049 20.8018457 4.16316974 20.4789722 3.978 20.1446234 3.81108641 19.7789784 3.65825618 19.4357623 3.51325 19.0800278 3.3870216 18.6898673 3.282179 18.3336111 3.19037655 17.9523179 3.10900618 17.5939753 3.02346296 17.2059012 2.98225618 16.8261728 2.93687655 16.4474876 2.88888889 16.0552407 2.88888889 15.678642 2.88888889 15.3135185 2.88888889 14.9290957 2.90975308 14.5676234 2.95826234 14.2087593 3.00729322 13.8441574 3.06623456 13.4826852 3.1335216 13.1394691 3.21489197 12.7967747 3.32286419 12.4791173 3.43031481 12.1614599 3.53411419 11.8411944 3.68694444 11.5402284 3.8095216 11.2731667 3.958179 10.9951512 4.12509259 10.7385216 4.29930863 10.4850216 4.49699692 10.2763796 4.67903704 9.94985493 4.98000308 9.67705556 5.25958333 9.41781789 5.5302963 9.17892282 5.8062253 8.9551543 6.08893519 8.75955245 6.36434259 8.56968826 6.6392284 8.48101542 6.76180556 8.39912345 6.91046296 8.22073456 7.17074382 8.07937963 7.4315463 7.95315123 7.67670063 7.84361419 7.93698148 7.73668519 8.17483333 7.64696912 8.39808026 7.56559875 8.6364537 7.48318519 8.85604937 7.37208333 9.25403396 7.29123456 9.63637037 7.24637653 9.95611419 7.2009969 10.2315216 7.2009969 10.4438148 7.2009969 10.6149012 7.2009969 10.7672099 7.12432097 10.8496234 7.05233949 10.9607253 6.99704937 11.0608734 6.94906171 11.1688457 6.88907715 11.4030463 6.82335493 11.6179475 6.80092593 11.8119846 6.78527778 11.9528179 6.78527778 12.1051266 6.63296912 12.3215926 6.5249969 12.5370154 6.44310493 12.7451358 6.38312037 12.9313488 6.33617593 13.1097377 6.2907963 13.2771728 6.2907963 13.4180062 6.2907963 13.573966 6.2907963 13.7043673 6.31687653 13.8081667 6.3549537 13.9980309 6.40241974 14.1425154 6.31635493 14.2061512 6.07798148 14.3803673 5.76188889 14.6625556 5.56837345 14.8294691 5.37955245 14.9937747 5.24862963 15.1241759 5.141179 15.2394506 4.91062963 15.4809537 4.69155556 15.7224568 4.52099074 15.9305772 4.31547838 16.2320648 4.11883333 16.5027778 3.92636111 16.8042654 3.76257715 17.0833241 3.62695986 17.3801173 3.4824753 17.6550031 3.37867593 17.9262377 3.26809567 18.2099907 3.18516049 18.4848766 3.10535493 18.7660216 3.03285185 19.0127407 2.99268826 19.2766728 2.94887345 19.5223488 2.91183949 19.7607222 2.88888889 20.2239074 2.88888889 20.6557963 2.88888889 20.8498333 2.91236111 21.0391759 2.97286727 21.362571 2.99373148 21.5039259 3.03389505 21.6484105 3.08292593 21.7866358 3.12882715 21.8836543 3.20185185 22.0630864 3.25766356 22.0990772 3.29052468 22.1741883 3.33381789 22.1919228 3.36094134 22.1919228 3.37971912 22.1919228 3.57010493 22.1752315 3.76309875 22.125679 3.92688271 22.0630864 4.09744752 21.9551142 4.25236419 21.854966 4.39476234 21.7235216 4.54759259 21.5884259 4.67747222 21.4465494 4.79952778 21.2858951 4.91115123 21.1408889 5.01599382 21.021963 5.08171604 20.883216 5.20898764 20.6557963 5.24862963 20.5634722 5.27158023 20.5081821 5.28357715 20.4445463 5.31330863 20.3923858 5.33625926 20.3814321 5.38007407 20.3605679 5.4061543 20.3605679 5.41815123 20.3819537 5.43901542 20.3819537 5.46092282 20.3944722 5.53238271 20.7016975 5.60958023 20.9525895 5.71390123 21.2123488 5.81822222 21.4465494 5.90689505 21.68075 6.04251234 21.8852191 6.14213889 22.100642 6.25376234 22.2978086 6.38312037 22.4678519 6.48118208 22.632679 6.74041974 22.9362531 6.96836111 23.2085309 7.18639197 23.4208241 7.40233641 23.6096451 7.58854937 23.7567377 7.86708641 23.9987623 7.97923148 24.0524877 8.01626542 24.1041266 8.01626542 24.13125 7.98914197 24.1526358 7.97870986 24.1526358 7.92289815 24.170892 7.71477778 24.1860185 7.52021912 24.2115772 7.35643519 24.2350494 7.18534875 24.2726049 7.03669134 24.3158981 6.88855556 24.3607562 6.75867593 24.4290864 6.65539815 24.4895926 6.5249969 24.531321 6.44466974 24.598608 6.35651852 24.6507685 6.26210801 24.7264012 6.14318208 24.8708858 6.09832407 24.9376512 6.04355556 24.9965926 5.96792282 25.147858 5.92671604 25.2751296 5.87820678 25.4018796 5.86725308 25.5129815 5.86725308 25.6590309 5.86725308 25.7221451 5.84586727 25.8254228 5.84586727 25.930787 5.81926542 26.0345864 5.81926542 26.1263889 5.84586727 26.226537 5.86725308 26.3162531 5.92671604 26.4915123 5.96792282 26.5718395 6.02060493 26.6542531 6.07902468 26.7345803 6.14266049 26.8065617 6.22768208 26.8874105 6.29131789 26.9552191 6.48118208 27.0924012 6.6710463 27.2092407 6.88907715 27.3135617 7.12432097 27.4064074 7.37208333 27.506034 7.64749074 27.5691481 7.92341974 27.657821 8.22125616 27.717284 8.51909259 27.762142 8.82370986 27.8075216 9.13980245 27.8513364 9.76155556 27.9149722 10.4041728 27.9259259 10.9951512 27.9259259 11.2731667 27.9259259 11.5402284 27.9259259 11.8187654 27.9149722 12.0576605 27.8883704 12.2882099 27.869071 12.5031111 27.8502932 12.8494568 27.784571 13.0982623 27.7162407 13.3371574 27.6567778 13.7747839 27.4799537 13.9724722 27.4037994 14.1618148 27.3119969 14.4737346 27.1409105 14.756966 27.0021636 14.9645648 26.8717623 15.1168734 26.7340586 15.3557685 26.7606605 15.5409383 26.7789167 15.9055401 26.8055185 16.0766265 26.8055185 16.2211111 26.8055185 16.3327346 26.8284691 16.4459228 26.8717623 16.6237901 26.9359197 16.8235648 27.0021636 17.2027716 27.1179599 17.5908457 27.2561852 17.9684876 27.3625926 18.3492593 27.4377037 18.7383765 27.5347222 19.1405339 27.5894907 19.5223487 27.632784 19.90625 27.6839012 20.264071 27.7162407 20.646929 27.7386697 21.0136173 27.7386697 21.3714383 27.7386697 21.7094383 27.7386697 22.0531759 27.6969414 22.3880463 27.6823364 22.7098765 27.6296543 23.0066697 27.5654969 23.3024197 27.5023827 23.5898241 27.4350957 23.7092716 27.4022346 23.8396728 27.3605062 24.0884784 27.2645309 24.3085957 27.1649043 24.5161944 27.0605833 24.7097099 26.9520895 24.8787099 26.8269043 24.9480833 26.7596173 25.0299753 26.6667716 25.1311667 26.544716 25.2448765 26.3908426 25.2850401 26.3136451 25.3043395 26.248966 25.3518056 26.1696821 25.3695401 26.0778796 25.3695401 25.9939012 25.3930123 25.9088796 25.3695401 25.781608 25.3518056 25.674679 25.3043395 25.5489722 25.2683487 25.4451728 25.1942809 25.3179012 25.1108241 25.2036697 25.0299753 25.1024784 24.9178302 25.0179784 24.6898889 24.8239414 24.4343025 24.6387716 24.1766296 24.4885494 23.9048734 24.3378056 23.2852068 24.0399691 23.137071 23.9512963 23.0969074 23.9095679 23.0729136 23.8834877 23.3702284 23.5893025 23.4985432 23.4442963 23.6054722 23.3097222 23.8151574 23.0150154 24.0107593 22.7150926 24.1781944 22.4480309 24.3367623 22.190358 24.5464475 21.6776204 24.7097099 21.2509475 24.8192469 20.9499815 24.8797531 20.8498333 24.9188734 20.7679414 24.9851173 20.7204753 25.0111975 20.7204753 25.0310185 20.7350803 25.1895864 21.0433488 25.3325062 21.3411852 25.4316111 21.5075772 25.5348889 21.6525833 25.6371234 21.8314938 25.7696111 22.0057099 25.8812346 22.128287 25.9485216 22.1945309 26.0137222 22.2545154 26.07475 22.2993734 26.1331697 22.3400586 26.2593981 22.4026512 26.3266852 22.4256019 26.3705 22.4256019 26.4294413 22.4256019 26.4977716 22.4026512 26.5801852 22.361966 26.6740741 22.3233673 26.7491852 22.2560803 26.8222099 22.1788827 26.9030586 22.0818642 26.9661728 22.0067531 27.0391975 21.8873056 27.093966 21.7897654 27.1570802 21.6525833 27.190463 21.536787 27.2833086 21.2545988 27.3432932 20.9421574 27.3860648 20.5963333 27.4157963 20.3949938 27.4157963 20.2286019 27.4157963 20.0486481 27.4157963 19.8306173"></polygon>
                    </g>
                </g>
            </g>
        </g>
    </g>
</svg>