<?xml version="1.0" encoding="UTF-8"?>
<svg width="52px" height="52px" viewBox="0 0 52 52" version="1.1" xmlns="http://www.w3.org/2000/svg" xmlns:xlink="http://www.w3.org/1999/xlink">
    <!-- Generator: Sketch 50 (54983) - http://www.bohemiancoding.com/sketch -->
    <title>a_11</title>
    <desc>Created with Sketch.</desc>
    <defs></defs>
    <g id="开发资源" stroke="none" stroke-width="1" fill="none" fill-rule="evenodd">
        <g id="开发文档" transform="translate(-1107.000000, -2045.000000)">
            <g id="a_11" transform="translate(1107.000000, 2045.000000)">
                <g>
                    <rect id="Rectangle-3" fill="#6CCD38" x="0" y="0" width="52" height="52" rx="26"></rect>
                    <g id="wx" transform="translate(10.000000, 8.000000)">
                        <rect id="Rectangle" fill="#D8D8D8" opacity="0" x="0" y="0" width="32" height="32"></rect>
                        <g id="Group-10" transform="translate(1.777778, 4.444444)" fill="#FFFFFF" fill-rule="nonzero">
                            <path d="M19.7347643,7.23114326 C20.0694159,7.23114326 20.3995615,7.25701261 20.7308085,7.29359923 C19.8383374,3.10972124 15.3964759,0.00234363424 10.3234293,0.00234363424 C4.65394435,0.00234363424 0.00947610187,3.89124397 0.00947610187,8.83181686 C0.00947610187,11.6826177 1.55366016,14.0233895 4.13597862,15.841735 L3.10578824,18.9640631 L6.71205529,17.1456504 C8.0012619,17.4000434 9.03539088,17.6646833 10.3234292,17.6646833 C10.647333,17.6646833 10.9683329,17.6498672 11.2847934,17.6257113 C11.0850571,16.9314052 10.9660632,16.2049472 10.9660632,15.4476476 C10.9683664,10.9125178 14.8364534,7.23114326 19.7347643,7.23114326 Z M14.1904483,4.41706342 C14.9695998,4.41706342 15.4818578,4.93266952 15.4818578,5.71294919 C15.4818578,6.49037312 14.9695664,7.0111867 14.1904483,7.0111867 C13.4197748,7.0111867 12.6439945,6.49037312 12.6439945,5.71294919 C12.6439945,4.93041857 13.4180391,4.41706342 14.1904483,4.41706342 Z M6.97217307,7.0111867 C6.19809504,7.0111867 5.4189101,6.49037312 5.4189101,5.71294919 C5.4189101,4.93263593 6.19809504,4.41706342 6.97217307,4.41706342 C7.74625111,4.41706342 8.26021143,4.93041857 8.26021143,5.71294919 C8.26021143,6.49037312 7.74625111,7.0111867 6.97217307,7.0111867 Z" id="Shape"></path>
                            <path d="M29.1511727,15.3226685 C29.1511727,11.1726558 25.0235687,7.79022328 20.3882128,7.79022328 C15.4796549,7.79022328 11.6166747,11.174974 11.6166747,15.3226685 C11.6166747,19.4841711 15.4818912,22.8562223 20.3882128,22.8562223 C21.4161668,22.8562223 22.4520315,22.5972938 23.4833567,22.3371894 L26.3110397,23.898891 L25.5357934,21.3036254 C27.6064546,19.7373883 29.1511727,17.6646497 29.1511727,15.3226685 Z M17.5434402,14.0233559 C17.0311822,14.0233559 16.5121149,13.5101015 16.5121149,12.9852899 C16.5121149,12.4685415 17.0312155,11.9483663 17.5434402,11.9483663 C18.3266305,11.9483663 18.834349,12.4685415 18.834349,12.9852899 C18.834349,13.5101015 18.3266305,14.0233559 17.5434402,14.0233559 Z M23.2169972,14.0233559 C22.7092787,14.0233559 22.191313,13.5101015 22.191313,12.9852899 C22.191313,12.4685415 22.7069756,11.9483663 23.2169972,11.9483663 C23.993345,11.9483663 24.5079061,12.4685415 24.5079061,12.9852899 C24.5078727,13.5101015 23.9933116,14.0233559 23.2169972,14.0233559 Z" id="Shape"></path>
                        </g>
                    </g>
                </g>
            </g>
        </g>
    </g>
</svg>