<?xml version="1.0" encoding="UTF-8"?>
<svg width="236px" height="123px" viewBox="0 0 236 123" version="1.1" xmlns="http://www.w3.org/2000/svg" xmlns:xlink="http://www.w3.org/1999/xlink">
    <!-- Generator: Sketch 50 (54983) - http://www.bohemiancoding.com/sketch -->
    <title>a_1</title>
    <desc>Created with Sketch.</desc>
    <defs></defs>
    <g id="开发资源" stroke="none" stroke-width="1" fill="none" fill-rule="evenodd">
        <g id="开发文档" transform="translate(-120.000000, -2010.000000)">
            <g id="a_1" transform="translate(120.000000, 2010.000000)">
                <g>
                    <g id="Group-36" transform="translate(117.000000, 16.000000)" fill-rule="nonzero">
                        <path d="M118.89909,67.4243924 C118.56292,64.383985 117.353852,61.5071047 115.418908,59.1435735 C112.775969,56.0188107 109.48381,53.5123332 105.773404,51.7999927 C103.298275,50.6707901 100.52313,49.9631565 97.7929877,50.3621414 C95.812868,50.6935758 93.9398557,51.493538 92.3289524,52.6958268 C93.4165092,49.7034399 93.6077692,46.4024044 92.2201968,43.4438936 C92.0678833,43.077767 91.8740986,42.7304483 91.6426666,42.4087912 C91.6118787,42.3740747 91.5830808,42.3376306 91.5564121,42.299635 C91.6037433,42.2564398 91.6583447,42.2220289 91.7176705,42.1980068 C92.4902109,41.851718 93.2890026,40.8617837 93.8177802,40.2407223 C94.7079865,39.2148193 95.3611162,38.004007 95.73038,36.6950262 C95.8203847,36.3562654 94.8340832,36.2207611 94.6465734,36.3487374 C94.0877943,36.7251383 93.0227387,36.6498581 92.396456,36.6724421 C90.9603349,36.7125622 89.5231022,36.673609 88.0912312,36.5557579 C84.5885484,36.2960413 80.9658592,35.7803721 77.6731873,34.5307212 C75.7418365,33.8005036 74.1892555,32.5546167 72.5204184,31.357662 C70.7840777,30.1117751 69.0364865,28.8734163 67.2701443,27.6614055 C64.7762641,25.9487816 62.2448819,24.2737978 59.6347457,22.7456103 C57.5962532,21.5569954 55.4983908,20.4740491 53.3494176,19.5010349 C54.2119626,17.6416146 53.9419485,15.2251211 53.7431881,13.2565446 C53.645683,12.2904491 53.5144262,11.3281175 53.3494176,10.36955 C53.3342577,10.1036797 53.2863919,9.84071213 53.2069101,9.58663623 C52.6368804,8.33698538 50.2855076,8.75479033 49.3104567,8.96933882 C46.5615632,9.5715802 43.9364262,10.8325231 41.4350456,12.089702 C35.3784794,5.03971384 25.5642171,2.32962765 16.5899986,2.02850696 C15.7274535,1.99839489 14.8611583,1.98333886 14.0023635,2.02850696 C13.8673564,2.02850696 13.8223541,2.06991105 13.8298545,2.11507916 C13.8373549,2.16024726 13.7848521,2.16401127 13.8036031,2.19788735 C14.5748218,3.7105623 15.4325482,5.1772098 16.3724872,6.59048539 C17.5312977,8.3896815 18.9338709,10.4824703 20.8727221,11.6116729 C16.3434495,13.2292051 12.9075744,16.9949549 11.6997433,21.6653398 C11.2041934,23.5560076 11.0217504,25.515592 11.1597151,27.4656771 C11.1890057,28.5980001 11.4241265,29.7154295 11.8535013,30.7629486 C9.89589911,30.495704 7.60827969,31.2183937 5.79693513,31.6550187 C3.98559057,32.0916437 2.26050051,32.5734368 0.520409674,33.119218 C0.299148123,33.096634 0.0853869642,33.119218 0.0178834402,33.3337665 C-0.169626349,33.8795478 1.17294374,35.0877945 1.45045823,35.3926792 C3.63682236,37.8054087 6.06319903,40.0111178 8.45957413,42.2130628 C11.4109782,44.926913 14.4598874,47.4826748 18.2850871,48.871594 C22.3057195,50.3776697 26.7660362,50.1613164 30.6232312,48.2731167 L30.6794841,48.2467686 C30.6794841,48.4876651 30.7244864,48.7285617 30.735737,48.9242901 C30.9165489,51.669546 31.3420214,54.3930259 32.0070534,57.0620767 C32.1870628,57.7922944 32.3220698,58.8951489 33.1321121,59.1661575 C34.0509101,59.4710422 34.7409461,58.5601522 35.3034755,57.9692028 C36.8035538,56.3920832 38.187376,54.6832233 39.5299461,52.9630714 C42.2638388,57.4234216 46.021535,61.4433828 50.0304943,64.7255983 C56.4395789,69.9952103 64.8587684,73.823207 73.2142046,74.252304 C75.562526,74.3815037 77.9171092,74.1685065 80.2045695,73.6199506 C80.828672,75.326857 81.7506085,76.9085889 82.9272116,78.2910853 C83.7672555,79.2998396 84.8510621,80.4967943 86.1561302,80.8882512 C86.9511717,81.1253837 87.5587034,80.9710594 87.5849548,80.0714613 C87.6224567,78.7502943 87.2324364,77.3651391 86.996174,76.0740842 C86.6142572,74.3236005 86.3883539,72.5424683 86.3211388,70.751776 C86.294536,70.1175773 86.3640831,69.4830024 86.5273996,68.8697717 C86.7449109,68.1508461 87.3374419,67.7405691 87.7574638,67.1345638 C89.1150347,65.2186834 89.4563025,63.0280304 90.2100918,60.8674894 C90.6451145,59.6178386 91.7101701,58.6391963 92.7789759,57.9202707 C95.8249085,55.9469082 99.5506643,55.3320687 103.065763,56.2227028 C107.385988,57.3519054 110.798667,61.0180498 112.279994,65.1697513 C114.136341,70.3829032 112.036231,75.2158902 108.934819,79.3713557 C108.244783,80.2973018 107.078472,80.790387 106.005916,81.1366758 C105.724652,81.230776 105.394635,81.257124 105.12462,81.3587523 L105.049617,81.3813363 C105.027793,81.3127819 105.027793,81.2391063 105.049617,81.1705518 C105.387134,80.4553902 105.398385,79.1643353 105.274628,78.3738934 C105.090869,77.1694107 104.082066,76.7365497 103.024511,76.4542491 C102.143215,76.2171165 101.318172,75.968692 100.448126,76.3375648 C98.8617935,77.0113223 97.5754763,78.7465303 97.1179524,80.376346 C96.4804192,82.6573352 97.7404849,84.5167555 99.7093377,85.60079 C102.04946,86.8730249 104.888358,87.38493 107.475993,86.6848244 C109.812365,86.052471 111.871223,84.5807436 113.521309,82.8380077 C117.357759,78.8105184 119.502871,72.9913611 118.89909,67.4243924 Z M113.810074,80.8694312 C110.783666,84.8705723 105.994666,87.8667231 100.988154,85.6760701 C98.738037,84.6898999 97.4967222,82.6648633 98.3855186,80.2521337 C98.8617935,78.9610788 100.260617,76.8231219 101.805697,76.6575055 C102.61949,76.5709333 103.872055,77.0339064 104.119568,77.8845723 C104.367081,78.7352383 104.16082,79.7176445 104.010812,80.5193784 C103.913307,81.0501036 103.830803,81.3512243 104.34083,81.6485809 C105.259627,82.1830702 106.549695,81.7464452 107.442241,81.3963924 C108.334788,81.0463396 109.366092,80.5720745 109.977374,79.7515206 C112.692515,76.1079603 114.773874,72.0164829 113.91883,67.3302922 C112.561259,59.8737912 105.323381,54.6418192 97.9054936,55.3833289 C95.1003471,55.6618655 92.0026854,56.738372 90.097586,58.925261 C88.9725272,60.2087879 88.8300198,61.8047276 88.297492,63.3780832 C87.9797448,64.3575494 87.5612149,65.3011333 87.0486768,66.1935616 C86.6436556,66.8748472 85.9948718,67.3754603 85.6123518,68.0454538 C85.0198209,69.0880842 85.1660785,70.5786316 85.2635836,71.7191262 C85.4098412,73.4016381 85.7361083,75.0615659 86.0398741,76.7177297 C86.2386345,77.8130562 86.5649015,79.0137749 86.4336447,80.1354495 C86.3736415,80.6548827 86.2011325,80.4215141 85.7998616,80.1354495 C85.1017838,79.6088112 84.4718877,78.996826 83.9247637,78.3136693 C82.6566052,76.826113 81.6988851,75.0981711 81.1083667,73.2322577 C81.018362,72.931137 80.3583275,72.8558568 80.099564,72.912317 C74.6242782,74.4819086 68.8152249,73.6651187 63.5311991,71.7454743 C55.4382766,68.8170756 48.6466721,63.5926317 43.3288944,56.8512923 C42.1269285,55.3744878 41.0351583,53.8106889 40.0624739,52.1726296 C39.9387175,51.9543171 39.1849281,51.6306123 38.9861677,51.8865649 C37.5310918,53.7685692 36.0385139,55.6505735 34.4146791,57.3707254 C34.0959124,57.7094862 33.743394,58.0181349 33.4133768,58.3418397 C33.0187822,57.1217906 32.7289592,55.8700804 32.5470816,54.6004151 C32.2620667,52.9969474 32.018304,51.3821878 31.8720464,49.7599001 C31.8139272,49.2514585 31.7913708,48.7395547 31.8045428,48.2279485 C31.8045428,48.0698602 31.9357997,47.7461554 31.8720464,47.5955951 C31.444524,46.5567287 29.5769265,47.8477837 29.0819007,48.0736242 C27.1195594,48.9748005 24.9759648,49.4076751 22.8190738,49.3383311 C19.1288811,49.1840067 15.7387041,47.4262147 12.8660542,45.1979216 C10.7059414,43.5267018 8.74083881,41.5769453 6.75323505,39.7024691 C5.54192182,38.5544464 4.33810897,37.3913678 3.18304867,36.186885 C2.5672294,35.5740489 1.99339127,34.92013 1.46545901,34.2296006 C1.36045353,34.0903322 1.15419276,33.6311232 1.10919041,33.5897191 C1.06418806,33.548315 1.0341865,33.5897191 0.940431601,33.5897191 C1.07951795,33.5907217 1.21853507,33.5831796 1.35670333,33.567135 C1.80297663,33.4730348 2.25300012,33.2923624 2.69177303,33.1643861 C4.35310976,32.678829 6.02569707,32.223384 7.71328517,31.8469831 C8.65083411,31.6399626 9.58838306,31.4479982 10.5559336,31.3313139 C11.1857715,31.198484 11.8353005,31.189536 12.4685334,31.3049659 C12.5060354,31.3049659 13.2185726,31.4216501 13.0798153,31.1807536 C12.479784,30.1381232 12.3297762,28.8094282 12.2435217,27.6312935 C12.1219679,25.7926636 12.2864472,23.9462494 12.7310471,22.158425 C13.8763461,17.3607301 17.4041954,13.4941123 22.0652844,11.9278496 C22.3052969,11.8450414 22.0652844,11.6380209 21.9415279,11.5815608 C19.8339179,10.5991545 18.3263392,8.14125693 17.1187762,6.24419659 C16.349986,5.03594983 15.6186979,3.79006299 14.9736642,2.51030006 C16.9455743,2.46118404 18.918236,2.57069051 20.8727221,2.83776881 C25.4142092,3.38355006 29.9369453,4.58050479 33.9609054,6.81256189 C36.6058565,8.26346978 38.9454054,10.2153748 40.850015,12.560203 C41.1075319,12.8035333 41.4700965,12.8998182 41.8138154,12.8161556 C44.0833017,11.6209679 46.4462852,10.6138822 48.8791842,9.80494873 C49.8670631,9.45179567 50.9094942,9.27720483 51.9580949,9.28927955 C52.0180981,9.28927955 52.0631004,9.28927955 52.1118529,9.42478386 C52.43812,10.4222461 52.4868725,11.6192009 52.6031286,12.6543032 C52.8356407,14.743328 53.1581576,17.378134 52.1906071,19.3316545 C52.1381043,19.4332827 52.3593659,19.565023 52.4156188,19.5913711 C57.534636,21.8949444 62.2486321,24.8609831 66.8613729,28.0679185 C68.8564771,29.4455456 70.8328303,30.8532848 72.7979328,32.2723161 C74.2227,33.3820542 75.7972468,34.2831177 77.474427,34.9485262 C80.8233518,36.175593 84.4272899,36.7326663 87.9749751,37.033787 C89.6541768,37.1873945 91.3409449,37.2414392 93.0264889,37.1956393 C93.4015084,37.1956393 93.9040347,37.1956393 94.3803095,37.1429432 C93.5979504,39.1169674 92.2264707,40.7998327 90.4538546,41.9608742 C90.3826008,42.0060423 90.4313534,42.0926145 90.4538546,42.1415466 C93.0789916,45.5291544 92.2089462,50.6594981 90.4538546,54.1863742 C90.3150973,54.4649108 91.3576517,54.6756953 91.5376611,54.532663 C92.8464795,53.4900326 94.1627982,52.4398742 95.6853777,51.7360046 C97.8148683,50.7541453 100.213445,50.5272063 102.488233,51.0923591 C106.388436,52.0521813 109.876118,54.6832233 112.767519,57.3744895 C115.040744,59.4566808 116.659439,62.1592107 117.425263,65.1509312 C118.752832,70.5447556 117.128997,76.5031812 113.810074,80.8694312 Z" id="Shape" fill-opacity="0.4" fill="#99A5A0"></path>
                        <path d="M20.9046667,29 C19.8601812,29.1899398 18.9026894,29.6802318 18.1623085,30.4042482 C16.396114,32.1575973 16.9462401,34.6758302 17.8231329,36.6998305 C17.9513578,36.997939 19.1301996,37.0920786 19.0392013,36.899877 C18.1788536,34.9111791 17.6163186,32.3576438 19.45283,30.6827444 C20.137729,30.0578414 21.0003962,29.6365324 21.9346021,29.4706977 C22.2696414,29.415783 21.2231608,28.9686202 20.9253481,29.0156899 L20.9046667,29 Z" id="Shape" fill-opacity="0.4" fill="#99A5A0"></path>
                        <path d="M26.2170604,19.8114367 C26.0550328,19.0724516 26.0910631,18.3057554 26.3217382,17.5839796 C26.9311123,15.6308933 28.8601741,14.8077811 30.8079283,14.5298002 C31.4098255,14.446767 30.4340791,13.9593979 30.1088303,14.0027196 C28.1349067,14.2843106 26.1011671,15.0568808 25.3235609,16.9810861 C24.9837331,17.8348642 24.9096665,18.7659278 25.1104668,19.6598108 C25.1852367,19.9847235 26.2993072,20.1544001 26.2320144,19.8114367 L26.2170604,19.8114367 Z" id="Shape" fill-opacity="0.4" fill="#99A5A0"></path>
                        <path d="M25.8800872,38.1498201 L14.6281883,56.7557378 L13.0412825,59.3995235 C12.7735649,59.845064 13.8871149,60.2169614 14.1082729,59.8524283 L25.3601718,41.2465105 L26.9587175,38.6027249 C27.2264351,38.1535022 26.1128851,37.7816048 25.8917271,38.1498201 L25.8800872,38.1498201 Z" id="Shape" fill-opacity="0.4" fill="#99A5A0"></path>
                        <path d="M27.9143316,42.1277262 L20.1187356,56.5244904 L19.0102373,58.5746141 C18.887472,58.7964558 19.9057018,59.2057156 20.0934604,58.8767778 L27.8782242,44.472364 L28.9903333,42.4222403 C29.1094878,42.2003985 28.091258,41.7949636 27.9071101,42.1239014 L27.9143316,42.1277262 Z" id="Shape" fill-opacity="0.4" fill="#99A5A0"></path>
                        <path d="M39.1979992,18.7998964 L41.6445671,2.79204069 L41.9975146,0.492612049 C42.0616869,0.0672177504 40.8624676,-0.201048924 40.7942845,0.189853945 L38.3517274,16.2053744 L38.0027906,18.5048031 C37.9346076,18.9340298 39.1378377,19.2022964 39.2060208,18.8075612 L39.1979992,18.7998964 Z" id="Shape" fill-opacity="0.4" fill="#99A5A0"></path>
                        <path d="M41.1072473,19.7076146 C41.6385679,17.2941157 42.2608681,14.8920192 42.9268385,12.520329 C43.4799942,10.5933307 44.0731809,8.68153559 44.7864606,6.81915065 C45.3432555,5.36344978 45.9509989,3.83173319 46.9299389,2.63828652 C47.2756613,2.20879775 46.2457727,1.76030505 45.932803,2.14798518 C44.9611413,3.35283421 44.3424804,4.88835158 43.7784071,6.32884932 C43.0505707,8.18743346 42.457384,10.0992286 41.9042283,12.0300277 C41.1982269,14.4739328 40.5577308,16.9444434 40.0082143,19.4301572 C39.8953996,19.9508648 40.979876,20.2473261 41.099969,19.7304193 L41.1072473,19.7076146 Z" id="Shape" fill-opacity="0.4" fill="#99A5A0"></path>
                        <path d="M41.2639405,27.0403288 C38.906407,24.9064965 35.4319437,23.5482592 32.2048282,24.1384682 C29.4762731,24.6378757 27.5670574,26.8208921 28.0849419,29.6016842 C28.6839872,32.7154147 31.601918,35.1632684 34.5275784,36.2680185 C37.4532389,37.3727685 41.6001789,37.5241042 43.4166391,34.5957598 C44.8929962,31.9284694 43.3432078,28.901757 41.2639405,27.0403288 Z" id="Shape" fill="#D1D5D3"></path>
                        <path d="M23.2871335,23.9987162 C21.8326192,26.4119699 26.3037565,28.1650289 27.7622558,26.0576281 C29.0693262,23.6033454 24.6220988,21.7831479 23.2871335,23.9987162 Z M24.4826248,25.9979495 C24.1597569,25.4699425 24.1597569,24.8213863 24.4826248,24.2933793 C24.9050317,23.6108053 25.9132293,23.1967849 26.49902,23.920388 C26.8995547,24.4640222 26.9320781,25.1743294 26.5827044,25.7480454 C26.0845831,26.4679186 25.0405207,26.9080483 24.4706699,25.9979495 L24.4826248,25.9979495 Z" id="Shape" fill-opacity="0.4" fill="#99A5A0"></path>
                        <path d="M27.2048436,26.6305449 L29.07259,27.8273102 C29.3086841,28.0132499 29.613355,28.0517877 29.8806762,27.9295251 C30.0979446,27.7719439 29.9874045,27.5036299 29.7968182,27.3673435 L27.9290718,26.1705781 C27.6925573,25.9852801 27.3875628,25.9483088 27.1209856,26.0726223 C26.8999054,26.2302035 27.0142573,26.4985174 27.2048436,26.6305449 Z" id="Shape" fill-opacity="0.4" fill="#99A5A0"></path>
                        <path d="M43.3880214,30.4202796 C42.7834343,29.2426437 41.6584431,27.4872996 40.2120258,27.1873357 C37.7936773,26.6836927 34.9199752,27.1280836 33.6074854,29.3500382 C32.2949957,31.5719927 33.3090184,34.4568304 34.7554357,36.3862276 C34.7745786,36.4108073 34.7978634,36.4320903 34.8243127,36.449183 C34.9249558,36.5549835 35.0599933,36.6242483 35.2069628,36.6454557 C37.0934276,37.0602205 39.2439211,37.182428 41.1036005,36.6195329 C43.9926085,35.7529706 44.6507667,32.8755394 43.3880214,30.4202796 Z" id="Shape" fill="#E7E9E8"></path>
                    </g>
                    <path d="M84.3033983,25.0738195 C83.5490923,24.3724984 82.7112707,23.7458972 81.8137554,23.1882291 C81.2815268,24.363785 79.7648175,27.7011628 79.337309,28.504964 C78.815943,29.4852363 74.6971511,33.6886435 73.229878,31.2497262 C71.90045,29.0399366 76.7312603,22.4201836 77.6506687,21.1958824 C76.7282482,20.859665 75.7849633,20.5730496 74.838443,20.3317539 C74.2253379,21.4818157 72.0424708,25.5733804 71.3548747,26.8206479 C70.5519014,28.2772043 67.5491547,28.504914 67.0486969,26.8206479 C66.6301291,25.4119785 69.025244,20.8889891 69.8202769,19.4465114 C69.4451757,19.4079727 69.0749834,19.3759513 68.71097,19.350139 C68.575102,19.3426076 68.2920437,19.2409336 68.3599777,19.0488828 C68.8999181,17.5638098 69.2030156,16.0034124 69.258216,14.4246007 C69.2619901,13.4568153 69.1487668,12.0559741 68.0165337,11.7321237 C66.7484326,11.3706163 65.2878518,12.6396579 64.4198064,13.3927983 C62.2459188,15.2681179 60.4418939,17.6141503 58.8001559,19.9488856 C57.8188872,21.334664 56.61872,22.8560076 56.0110882,24.4677281 C55.8601238,24.8668925 54.77318,24.9384408 54.976982,24.3886483 C55.8261568,22.1367585 57.6150852,19.9865426 59.0530213,18.1036916 C60.8645943,15.7237679 62.9667739,12.9973996 65.6841334,11.5814956 C67.4881582,10.628773 69.7979138,10.6739614 70.2621294,13.0350566 C70.6433146,14.9367362 70.0696498,17.1359062 69.4506957,18.9396774 L69.0997034,18.6346556 C76.1421935,19.1317283 85.2981856,21.8543308 88.3174739,28.8472396 L87.5400072,28.71544 C92.0198763,26.6744295 96.824319,27.8342657 100.87394,30.3196291 C100.960333,30.3675849 101.009434,30.462598 100.998485,30.560634 C100.877714,33.5167101 99.115204,36.1941243 97.1036031,38.2614947 C96.484649,38.8978983 94.9221673,40.7129667 93.820127,40.1669399 L94.6957207,40.0050147 C94.9032967,39.824261 94.8240404,40.6301213 94.8580074,41.0066915 C94.9334896,41.9029286 95.0240683,42.7991657 95.0995505,43.6954028 C95.1397599,44.1606728 95.1784424,44.6261333 95.2155069,45.0917691 C99.0945877,45.5541878 103.411077,45.8708957 106.996459,47.5649348 C107.059874,47.6185738 106.254126,48.1095776 105.974352,47.9775429 C102.730751,46.4453929 98.8499979,46.0402617 95.2588863,45.6465038 C95.3993375,47.4756022 95.51428,49.3073112 95.5981998,51.1407139 C100.470191,52.924993 105.650356,55.2964362 108.929138,59.3701257 C109.280701,59.8116947 108.226012,60.2306191 107.912662,59.8532097 C104.887394,56.091938 100.185751,53.8271181 95.6402715,52.1259259 C95.6451049,52.2479715 95.6497965,52.3700239 95.6543447,52.4920828 C95.9411771,60.464074 95.7147305,68.6092876 93.922028,76.4155879 C92.4237061,82.9415496 89.6535091,89.4260885 84.0112139,93.413967 C78.550076,97.281343 71.5906163,98.2905511 65.0425346,97.9328095 C58.8242985,97.5780171 52.7144737,96.1523825 46.983416,93.7189889 C41.6656943,91.4633333 36.2196529,88.5524456 31.7095909,84.933606 C12.9008527,69.8616883 28.1596388,48.0235646 43.5713139,33.7044756 C39.9632805,32.4580095 35.9808381,31.8730483 32.4782392,31.8020016 C31.7321603,31.7871497 31.9339061,31 32.5695958,31 C36.3481589,31.0767409 40.5319853,31.643021 44.3467091,32.9904343 C46.172348,31.3240965 47.9921474,29.7666926 49.7496844,28.3419886 C49.5909627,28.2074638 49.431947,28.0732073 49.2726414,27.9392085 C46.5133565,25.6324254 43.5112852,22.8356395 40.0891553,21.4862468 C39.6960728,21.3317074 40.7134628,20.9057818 40.9947865,21.0188594 C44.347549,22.3418673 47.2879602,25.0029601 49.9855852,27.2645121 C50.1657637,27.4154219 50.3457615,27.5667143 50.5255335,27.7183948 C52.1379969,26.4334215 53.6896732,25.2657137 55.1354946,24.2342545 C55.5317762,23.9480612 56.4413368,24.2229574 55.8412533,24.6522475 C54.2479835,25.7862198 52.6645716,26.9721409 51.1020823,28.2068933 C52.7589354,29.6167529 54.392352,31.0602404 55.9666051,32.5414668 L55.9666051,32.5565438 C56.1978301,32.752545 55.1611714,33.1596243 54.9183851,32.9334691 C53.4182556,31.5309623 51.8846216,30.1662669 50.3216983,28.8290757 C48.5539491,30.2510083 46.8156181,31.7353598 45.122955,33.2775521 C47.6557534,34.2578072 49.9971388,35.6014125 51.910549,37.3974476 C52.3064275,37.7724575 51.2824723,38.2217269 50.9018198,37.8764207 C49.133853,36.2122346 46.8511704,34.932907 44.3520409,33.9869055 C41.8758696,36.2880427 39.5044944,38.7135602 37.2900992,41.2487557 C38.6474113,42.3008958 43.7407882,46.422056 42.9086944,48.4010976 C41.950256,50.6806357 34.0150067,50.0367402 32.8198689,49.4113474 C32.2437265,49.1098632 31.8001429,48.8642778 31.4952039,48.6907596 C30.8849592,49.5800745 30.2966081,50.4795683 29.731957,51.3887321 C28.5586493,53.2839262 27.4586642,55.3122903 26.5459438,57.4257063 C27.9754151,57.0455221 32.6962599,55.9182539 34.7196221,60.1240005 C36.8423329,64.5362526 26.278696,64.9559331 24.3111774,64.9958161 C23.9185641,67.6678338 23.9769873,70.3817797 24.678423,73.0565817 C26.3050647,79.2888186 31.2114083,83.7813011 36.495163,87.1139474 C46.6663907,93.5382352 58.634095,98.1587516 70.8659871,97.142012 C77.8853404,96.5495307 84.4775016,93.626935 88.4124161,87.6566778 C86.3194063,86.6543289 80.8218293,83.6075342 83.9318439,80.5245617 C87.0861555,77.3976773 90.566586,79.898357 91.6553467,80.8354287 C92.9494631,77.0190738 93.6397628,72.9577111 94.068145,68.9886449 C92.9473897,69.0365768 87.3975274,69.094506 88.0537266,65.4913893 C88.6560412,62.1841471 93.0000448,62.9895312 94.4956384,63.3706245 C94.6918598,59.4904982 94.7053217,55.6032617 94.5359649,51.7217713 C94.2627887,51.6238608 93.9907329,51.5277416 93.7202053,51.4332062 C90.6628479,50.3386201 87.5319506,49.4558585 84.3502799,48.7913404 L84.3502799,48.8064368 C83.6127613,48.6592471 84.1859623,47.9044284 84.7324139,48.010103 C88.0462376,48.6907674 91.3067365,49.6032767 94.4892578,50.7406772 C94.4397053,49.7800576 94.3789488,48.8198567 94.3069873,47.8602692 C94.2544868,47.0805035 94.1960246,46.3007378 94.1332592,45.5209721 C93.8346993,45.486722 93.5389269,45.451707 93.2465076,45.4152461 C90.1801864,45.0273944 87.1101348,44.7069354 84.036353,44.453869 L84.036353,44.4332386 C83.8125339,44.4126082 84.6854283,44 84.9316293,44 C87.9865072,44.2472426 91.0413851,44.5654072 94.0866336,44.9509435 C94.0042294,43.958788 93.915513,42.9666324 93.8239011,41.9744769 C93.7974824,41.556484 93.4012008,40.0840945 93.7974824,39.7376499 C94.0309419,39.5144264 94.3749466,39.450809 94.673076,39.5757247 C94.3258578,39.4025024 95.1259693,39.0071037 95.390157,38.7773959 C95.9416841,38.2967723 96.4563997,37.775651 96.9299941,37.2183952 C98.1650165,35.8570339 99.0895246,34.2446763 99.6398054,32.4924391 C99.9379601,31.4116827 99.9907977,30.9485013 99.0321736,30.3196291 C98.1430618,29.7861675 97.1909893,29.3649507 96.1978166,29.0656503 C93.4578124,28.1430533 90.6725189,28.0602078 88.0079969,29.2727639 C87.7777761,29.3782035 87.3550758,29.4271577 87.2305301,29.1409643 C87.1129307,28.8700686 86.985604,28.6058587 86.8490831,28.3482049 C85.8246673,29.854126 79.9337115,38.31234 80.0005645,33.5730791 C80.0674939,28.8284053 83.6830166,25.5942286 84.3033983,25.0738195 Z M6.02710554,79.332227 C5.28208187,79.9711351 4.57237889,80.6559428 3.90205629,81.3836469 C2.48765929,82.9729167 0.214256795,85.7790911 1.37687631,88.1399629 C3.03564556,91.4989268 8.07119508,90.473963 10.8444499,89.7944925 C17.4128799,88.2282557 23.9405813,86.512305 30.4682826,84.8040319 C31.1051315,84.6389628 31.2051019,85.0573937 30.5756583,85.2224628 C26.7150703,86.233351 22.8507797,87.2314431 18.9827866,88.2167392 C15.1950166,89.1841208 11.2258187,90.6006439 7.32326787,90.9576538 C4.33155904,91.2340485 -0.937254895,90.2244399 0.143907206,85.9364826 C0.877023973,82.9921108 3.52068747,80.5429463 5.74225343,78.7694133 C8.05934037,76.9594422 10.6172992,75.5073408 13.3363064,74.4584231 C14.0548463,74.1633144 14.7817405,73.8925225 15.5158266,73.6463398 C15.5163426,73.6435468 15.5168591,73.640753 15.5173759,73.6379584 L15.6144141,73.6134398 C17.2364007,73.0748294 18.8931841,72.6562161 20.5722612,72.3607454 L22,72 C22,72 21.9949112,72.0496852 21.984479,72.1420074 C22.3358271,72.0949507 22.6879871,72.0532509 23.040847,72.0169362 L23.0445497,72.0054197 C23.7480455,71.9401599 22.9112557,72.4852717 22.5928312,72.5121434 C22.3717939,72.5354168 22.151081,72.5609858 21.9307249,72.588841 C21.6715194,74.6364761 20.6613713,81.349273 18.5071288,81.8465773 C16.0134054,82.4222503 14.1106713,81.6923652 15.4325145,74.1101407 C14.0780739,74.5799174 12.7519475,75.1408839 11.4627858,75.7904922 C9.67264579,76.6441274 7.9909644,77.7144066 6.45171219,78.9761998 C7.85876086,78.0111372 12.1683144,75.1402014 13.8394143,75 C13.8394143,75 14.4234395,80.7500246 13.363958,82.5555323 C12.3044765,84.36104 10.327776,86.71855 8.24625052,83.122868 C6.54458367,80.1833638 6.1239563,79.4880937 6.02710554,79.332227 Z M46.2088584,62.4385165 L46.2088584,62.4238995 C45.9787154,62.2521504 47.0163092,61.8501845 47.2659559,62.0584759 C48.7155975,63.2526942 50.0958367,64.5188778 51.4007284,65.851573 C52.1418669,66.6153083 54.6305318,68.7786161 53.8503861,70.0174021 C53.1131483,71.1977204 50.3514324,71.0003916 49.2124196,70.9675035 C47.188858,70.8948494 45.1734888,70.6860198 43.1818928,70.3426291 C42.5889821,70.2439648 43.610973,69.8091107 43.8957262,69.8566157 C45.2258747,70.0758699 46.5716262,70.2403105 47.9134769,70.3572461 C49.042241,70.4802346 50.1799198,70.5156793 51.3149124,70.4632189 C52.4500245,70.3901342 53.089744,70.1599173 52.629458,69.0928804 C51.5099488,66.5239524 48.385465,64.2437091 46.2088584,62.4385165 Z M77.4833903,71.0159386 L77.4833903,71.0007826 C78.2199441,70.9704707 78.0367403,71.8305726 77.4011355,71.8570955 C75.7448242,71.9290865 69.3065214,72.4140778 70.1701962,75.1989893 C70.6599857,76.7790003 73.3631756,77.3776615 74.6979457,77.8209739 C75.6401363,78.1316715 77.3338362,78.3969012 77.9357913,79.317627 C78.2648103,79.8177744 77.236626,80.2610868 76.9487345,79.8177744 C76.5411996,79.2153241 75.2999008,79.0031404 74.6717737,78.7909567 C73.6032518,78.4765309 72.5544608,78.0969392 71.5311382,77.6542581 C70.2823617,77.0669639 68.6372669,76.0477242 69.0709737,74.3957223 C69.8486549,71.466829 75.094264,71.1182415 77.4833903,71.0159386 Z M63,44.5902312 L63.0037386,44.574795 C62.9663527,44.0306702 64.0430664,43.7605373 64.0879294,44.2737898 C64.1402962,44.9902317 64.3513414,45.6846945 64.7047967,46.3036455 C66.0768589,48.5727618 68.5929294,46.6895496 70.0472406,45.5318373 C70.3126804,45.323449 70.9557177,45.2809996 70.9557177,45.7479436 C70.9781492,46.8825017 71.2024646,48.1868577 71.8604563,49.1246047 C73.3110289,51.2239232 75.6439085,49.4757775 77.0944811,48.2524614 C77.5169417,47.8935705 78.3805558,48.2871927 77.8122902,48.7657139 C76.2458214,50.089365 73.7746139,51.8761011 71.7183899,50.5100005 C70.2865103,49.5529583 69.879004,47.469076 69.8490953,45.8328425 L70.7575725,46.0489488 C69.1574563,47.3262915 66.521751,49.1979265 64.4954357,47.7121956 C63.5757427,47.0291453 63.0972033,45.7479436 63,44.5902312 Z M65,38 C63.8954305,38 63,37.1045695 63,36 C63,34.8954305 63.8954305,34 65,34 C66.1045695,34 67,34.8954305 67,36 C67,37.1045695 66.1045695,38 65,38 Z M79,44 C77.8954305,44 77,43.1045695 77,42 C77,40.8954305 77.8954305,40 79,40 C80.1045695,40 81,40.8954305 81,42 C81,43.1045695 80.1045695,44 79,44 Z" id="Combined-Shape" fill-opacity="0.400000006" fill="#99A5A0" fill-rule="nonzero"></path>
                    <path d="M114.925101,11.2970017 L118.778385,11.2970017 L114.41592,14.1723618 C114.074895,14.397218 113.92172,14.8191306 114.039064,15.2103962 C114.156407,15.6016619 114.516486,15.8696464 114.924969,15.8697203 L121.862677,15.8697203 C122.373575,15.8697203 122.78774,15.4555555 122.78774,14.9446573 C122.78774,14.4337591 122.373575,14.0195943 121.862677,14.0195943 L118.009393,14.0195943 L122.371858,11.1442341 C122.712883,10.9193779 122.866057,10.4974654 122.748714,10.1061997 C122.631371,9.71493402 122.271292,9.44694956 121.862809,9.44687566 L114.925101,9.44687566 C114.414203,9.44687566 114.000038,9.86104048 114.000038,10.3719387 C114.000038,10.8828369 114.414203,11.2970017 114.925101,11.2970017 Z M124.175731,3.54867388 L126.229899,3.54867388 L123.812049,5.14242529 C123.568095,5.30284667 123.458414,5.60440911 123.542306,5.8840711 C123.626199,6.16373309 123.883757,6.35513182 124.175731,6.35478644 L128.433003,6.35478644 C128.79793,6.35478644 129.093762,6.05895442 129.093762,5.69402714 C129.093762,5.32909986 128.79793,5.03326785 128.433003,5.03326785 L126.378835,5.03326785 L128.796685,3.43951644 C129.040639,3.27909506 129.15032,2.97753262 129.066428,2.69787063 C128.982535,2.41820864 128.724977,2.22680991 128.433003,2.22715529 L124.175731,2.22715529 C123.810804,2.22715529 123.514972,2.5229873 123.514972,2.88791458 C123.514972,3.25284186 123.810804,3.54867388 124.175731,3.54867388 Z M134.417236,0.925063033 L136.472197,0.925063033 L134.162711,2.44732031 C133.992072,2.5597047 133.91539,2.77073727 133.974077,2.96645069 C134.032764,3.1621641 134.212913,3.29618329 134.417236,3.2961317 L138.014409,3.2961317 C138.179656,3.29613171 138.33235,3.2079737 138.414973,3.06486594 C138.497597,2.92175819 138.497597,2.74544216 138.414973,2.60233441 C138.33235,2.45922665 138.179656,2.37106864 138.014409,2.37106865 L135.959448,2.37106865 L138.268934,0.848811412 C138.439573,0.736427027 138.516255,0.525394449 138.457568,0.329681035 C138.398881,0.133967622 138.218732,-5.15717062e-05 138.014409,2.07618156e-08 L134.417236,2.07618156e-08 C134.251956,-4.93898592e-05 134.09921,0.0880978097 134.016556,0.231225848 C133.933902,0.374353887 133.933902,0.550709167 134.016556,0.693837206 C134.09921,0.836965244 134.251956,0.925112444 134.417236,0.925063033 Z" id="Shape" fill-opacity="0.226505888" fill="#99A5A0" fill-rule="nonzero"></path>
                    <text id="暂无评论，抢到沙发有奖哦~" opacity="0.5" font-family="PingFangSC-Medium, PingFang SC" font-size="12" font-weight="400" fill="#99A5A0">
                        <tspan x="46" y="119">暂无评论，抢到沙发有奖哦~</tspan>
                    </text>
                </g>
            </g>
        </g>
    </g>
</svg>