<?xml version="1.0" encoding="UTF-8"?>
<svg width="16px" height="16px" viewBox="0 0 16 16" version="1.1" xmlns="http://www.w3.org/2000/svg" xmlns:xlink="http://www.w3.org/1999/xlink">
    <!-- Generator: Sketch 50 (54983) - http://www.bohemiancoding.com/sketch -->
    <title>a_12</title>
    <desc>Created with Sketch.</desc>
    <defs></defs>
    <g id="开发资源" stroke="none" stroke-width="1" fill="none" fill-rule="evenodd">
        <g id="开发文档" transform="translate(-515.000000, -1556.000000)">
            <g id="Group-4" transform="translate(515.000000, 1556.000000)">
                <path d="M8.06713432,9.31435633 C7.64137169,9.31435633 7.29473637,8.965309 7.29473637,8.53206747 C7.29473637,8.10125416 7.64137169,7.75220683 8.06713432,7.75220683 C8.49279981,7.75220683 8.83940276,8.10125416 8.83940276,8.53206747 C8.83940276,8.96530899 8.49279983,9.31435633 8.06713432,9.31435633 M14.1634349,9.87260219 C14.1634349,7.86421213 12.3753808,6.21977863 10.1091308,6.07800344 C10.0030989,6.0722081 9.89682419,6.06820966 9.79061421,6.06820966 C7.37488354,6.06820966 5.41756688,7.77176203 5.41756688,9.87261839 C5.41756688,10.1894353 5.46287731,10.4962317 5.54737907,10.7893331 C6.01746467,12.4477854 7.7387106,13.6772214 9.79061421,13.6772214 C10.4888384,13.6772214 11.1477741,13.5354624 11.7319533,13.2816981 L12.7135659,13.9525158 C12.7135659,13.9525158 12.9752948,14.1354249 12.94975,13.7832695 L12.6723673,12.7328737 C13.5871393,12.0364949 14.1634349,11.0135055 14.1634349,9.87260219 M9.79061421,5.7513766 C9.88490977,5.7513766 9.97729512,5.75547217 10.0699233,5.75947063 C9.70988427,3.63285904 7.60502944,2 5.06155867,2 C2.26624997,2 0,3.97327813 0,6.40453315 C0,7.75999329 0.704262323,8.9716871 1.8098271,9.78020064 L1.43597964,11.1906355 C1.43597964,11.1906355 1.30823952,11.6587947 1.79214972,11.4484954 L3.18683358,10.4961993 C3.7671276,10.6988578 4.39860833,10.8110736 5.06155869,10.8110736 C5.11857309,10.8110736 5.1735478,10.807059 5.22865203,10.807059 C5.14800304,10.5059931 5.10476468,10.1932718 5.10476468,9.87266693 C5.10476465,7.60063785 7.20756357,5.7513766 9.79061421,5.7513766 M11.7909102,9.31378975 C11.3651476,9.31378975 11.0185123,8.96474242 11.0185123,8.53150089 C11.0185123,8.10068757 11.3651476,7.75164024 11.7909102,7.75164024 C12.2165757,7.75164024 12.5631787,8.10068757 12.5631787,8.53150089 C12.5631787,8.9647586 12.2165757,9.31378975 11.7909102,9.31378975 M2.68871022,5.80206146 C2.26294759,5.80206146 1.91631227,5.45301413 1.91631227,5.0197726 C1.91631227,4.58895928 2.26294759,4.23991195 2.68871022,4.23991195 C3.11437572,4.23991195 3.46097867,4.58895928 3.46097867,5.0197726 C3.46097865,5.45301413 3.11437572,5.80206146 2.68871022,5.80206146 M7.25960825,5.80149488 C6.83384562,5.80149488 6.4872103,5.45244756 6.4872103,5.01920603 C6.4872103,4.58839271 6.83384562,4.23934538 7.25960825,4.23934538 C7.68527375,4.23934538 8.0318767,4.58839271 8.0318767,5.01920603 C8.03187668,5.45246374 7.68527375,5.80149488 7.25960825,5.80149488" id="Shape" fill="#B4B8C3"></path>
                <rect id="Rectangle-12" fill-opacity="0" fill="#FFFFFF" x="0" y="0" width="16" height="16"></rect>
            </g>
        </g>
    </g>
</svg>