<?xml version="1.0" encoding="UTF-8"?>
<svg width="52px" height="52px" viewBox="0 0 52 52" version="1.1" xmlns="http://www.w3.org/2000/svg" xmlns:xlink="http://www.w3.org/1999/xlink">
    <!-- Generator: Sketch 50 (54983) - http://www.bohemiancoding.com/sketch -->
    <title>a_12</title>
    <desc>Created with Sketch.</desc>
    <defs></defs>
    <g id="开发资源" stroke="none" stroke-width="1" fill="none" fill-rule="evenodd">
        <g id="开发文档" transform="translate(-1182.000000, -2045.000000)">
            <g id="a_12" transform="translate(1182.000000, 2045.000000)">
                <g>
                    <rect id="Rectangle-3" fill="#F56565" x="0" y="0" width="52" height="52" rx="26"></rect>
                    <g id="wb" transform="translate(10.000000, 10.000000)">
                        <path d="M22.8484581,15.7648183 C22.5231883,15.6988745 22.3120026,15.6002867 22.214901,15.4690549 C22.1177994,15.3378231 22.1015045,15.2171348 22.1660163,15.1069899 L22.2637858,14.9427861 C22.2852766,14.9210434 22.307121,14.8880714 22.3293191,14.8438704 C22.3515171,14.7996694 22.394872,14.7063483 22.4593838,14.5639073 C22.5238955,14.4214662 22.5727901,14.2790251 22.6060675,14.1365841 C22.6393449,13.994143 22.6663852,13.81873 22.6871885,13.6103451 C22.7079917,13.4019602 22.702452,13.2044368 22.6705694,13.0177748 C22.6386868,12.8311128 22.5734875,12.6283226 22.4749715,12.4094042 C22.3764555,12.1904858 22.2408609,11.9929623 22.0681878,11.8168339 C21.7644286,11.5095134 21.3687538,11.3119899 20.8811634,11.2242636 C20.3935731,11.1365372 19.9059926,11.1309326 19.418422,11.2074497 C18.9308513,11.2839668 18.4703406,11.3825546 18.0368899,11.5032131 C17.6034391,11.6238717 17.2459135,11.7389554 16.964313,11.8484643 L16.5419416,12.0463554 C16.3248725,12.1122992 16.1459329,12.1561624 16.0051228,12.1779449 C15.8643127,12.1997275 15.7557781,12.1941229 15.6795191,12.1611311 C15.60326,12.1281393 15.5436102,12.0951673 15.5005696,12.0622153 C15.457529,12.0292633 15.4412341,11.9524282 15.4516849,11.83171 C15.4621356,11.7109919 15.4728811,11.6067994 15.4839211,11.5191327 C15.4949612,11.4314659 15.5220015,11.2942817 15.5650421,11.10758 C15.6080827,10.9208782 15.6406725,10.7728226 15.6628116,10.6634131 C15.6628116,10.4002936 15.6465167,10.1536601 15.6139269,9.92351255 C15.581337,9.69336499 15.5109418,9.43585016 15.4027412,9.15096803 C15.2945405,8.86608591 15.1374454,8.63592843 14.9314556,8.46049559 C14.7254659,8.28506276 14.4653758,8.1426217 14.1511854,8.03317241 C13.836995,7.92372312 13.430565,7.8907512 12.9318953,7.93425666 C12.4332256,7.97776211 11.8697102,8.10932184 11.2413491,8.32893584 C10.482609,8.5920553 9.71312343,8.98113981 8.93289247,9.49618936 C8.15266151,10.0112389 7.47541563,10.5483691 6.90115485,11.10758 C6.32689407,11.6667908 5.80118405,12.2095455 5.32402481,12.7358441 C4.84686556,13.2621426 4.47824092,13.6898236 4.21815087,14.0188868 L3.86028145,14.5451258 C3.14523018,15.4881941 2.61432426,16.4312525 2.26756368,17.374301 C1.9208031,18.3173495 1.75816822,19.0299225 1.77965906,19.5120199 L1.77965906,20.2024924 C1.9100577,21.25501 2.22977795,22.1980684 2.73881981,23.0316676 C3.24786166,23.8652668 3.85472214,24.5395812 4.55940123,25.0546109 C5.26408033,25.5696406 6.09321567,26.0081929 7.04680725,26.3702679 C8.00039884,26.7323428 8.91623415,26.9954821 9.79431318,27.1596859 C10.6723922,27.3238896 11.5989827,27.4389733 12.5740848,27.504937 C14.1782748,27.6368645 15.8417512,27.5109093 17.564514,27.1270717 C19.2872768,26.7432341 20.8911231,26.079791 22.3760528,25.1367426 C23.8609824,24.1936941 24.906853,23.0643315 25.5136644,21.7486546 C25.8819354,20.9810192 26.0716302,20.257227 26.0827489,19.5772781 C26.0938676,18.8973292 25.9801174,18.3437031 25.7414985,17.9163998 C25.5028796,17.4890965 25.1939048,17.1108834 24.814574,16.7817605 C24.4352433,16.4526376 24.0777176,16.2112609 23.7419971,16.0576304 C23.4062766,15.904 23.1084008,15.8054122 22.8483697,15.761867 L22.8484581,15.7648183 Z M12.9330739,25.9943105 C10.5923418,26.1037797 8.60391979,25.6431268 6.96780785,24.612352 C5.3316959,23.5815771 4.51365957,22.2768015 4.51369884,20.6980251 C4.51369884,19.1410114 5.32653927,17.7979871 6.95222012,16.6689524 C8.57790097,15.5399177 10.5718627,14.9203279 12.9341053,14.810183 C15.2963478,14.7000381 17.2903096,15.0947273 18.9159904,15.9942504 C20.5416713,16.8937736 21.3545117,18.1217141 21.3545117,19.678072 C21.3545117,21.2568683 20.5253763,22.6767276 18.8671056,23.93765 C17.208835,25.1985724 15.2311682,25.8837582 12.9341053,25.9932075 L12.9330739,25.9943105 Z M11.9905617,16.8825842 C11.3622202,16.948528 10.7987048,17.0965836 10.3000155,17.3267511 C9.80132616,17.5569185 9.41121069,17.8200578 9.12966908,18.1161691 C8.84812747,18.4122803 8.60954786,18.7301344 8.41393027,19.0697312 C8.21831268,19.409328 8.08271814,19.743678 8.00714664,20.072781 C7.93157515,20.401884 7.88268057,20.7032521 7.86046292,20.9768853 C7.83824527,21.2505184 7.82749985,21.46418 7.82822667,21.61787 L7.86046292,21.8810193 L7.86046292,22.0126088 C7.86046292,22.0785527 7.88230734,22.2101124 7.92599618,22.407288 C7.96968502,22.6044637 8.02933484,22.7855011 8.10494563,22.9504005 C8.18055641,23.1152998 8.30505194,23.2963373 8.47843221,23.4935129 C8.65181248,23.6906885 8.85780226,23.8552301 9.09640154,23.9871377 C10.5272113,24.6888293 11.8602122,24.9024909 13.0954043,24.6281225 C14.3305965,24.353754 15.3275724,23.7233027 16.0863322,22.7367687 C16.3900915,22.3641801 16.5905317,21.9035273 16.6876529,21.3548102 C16.7847742,20.8060931 16.7629297,20.252467 16.6221197,19.6939319 C16.4813096,19.1353968 16.2375341,18.6256239 15.8907931,18.1646134 C15.5440522,17.7036028 15.0294314,17.3471424 14.3469307,17.0952322 C13.66443,16.8433219 12.8786299,16.7721014 11.9895304,16.8815706 L11.9905617,16.8825842 Z M10.8201564,23.0998771 C10.6897577,23.1216199 10.5652622,23.1272246 10.4466698,23.116691 C10.3280774,23.1061575 10.2195428,23.084057 10.1210661,23.0503895 C10.0225894,23.016722 9.92514397,22.9784932 9.82872992,22.9357032 C9.73231587,22.8929133 9.65117523,22.8325641 9.58530801,22.7546558 C9.51944078,22.6767475 9.45979097,22.5999124 9.40635857,22.5241505 C9.35292616,22.4483887 9.30957127,22.3606722 9.27629389,22.2610012 C9.24301652,22.1613303 9.22672159,22.0571378 9.22740912,21.9484239 C9.22740912,21.7070472 9.29260844,21.4712851 9.42300709,21.2411376 C9.55340573,21.01099 9.73234535,20.8134666 9.95982595,20.6485672 C10.1873065,20.4836679 10.4418373,20.3903469 10.7234182,20.3686041 C10.9183089,20.3468613 11.1080038,20.3524659 11.2925027,20.385418 C11.4770017,20.41837 11.6340969,20.4731046 11.7637883,20.5496217 C11.8934798,20.6261388 12.0072299,20.7138552 12.1050387,20.812771 C12.2028475,20.9116867 12.2732427,21.0267704 12.3162244,21.1580221 C12.359206,21.2892738 12.3810504,21.4317148 12.3817576,21.5853453 C12.3817576,21.826722 12.3113624,22.0568795 12.170572,22.2758178 C12.0297815,22.494756 11.8400867,22.6810503 11.6014874,22.8347007 C11.3628881,22.988351 11.1027981,23.0760674 10.8212172,23.0978499 L10.8201564,23.0998771 Z M13.5832795,20.7316827 C13.43139,20.8411518 13.2742948,20.8906197 13.1119939,20.8800862 C12.949693,20.8695526 12.8359429,20.7983321 12.7707436,20.6664245 L12.7052103,20.534835 C12.6837195,20.490634 12.672974,20.4467708 12.672974,20.4032454 L12.672974,20.2716559 C12.672974,20.2057121 12.6837195,20.1509775 12.7052103,20.1074522 L12.7707436,19.9758627 C12.7922344,19.9316616 12.8248242,19.8986897 12.8685131,19.8769469 L12.9662826,19.7453573 C13.1396825,19.6134299 13.3075231,19.5586953 13.4698044,19.5811536 C13.6320857,19.6036119 13.7458358,19.6913283 13.8110547,19.8443029 C13.8762344,19.9320293 13.9032747,20.0306171 13.8921758,20.1400664 C13.8810768,20.2495157 13.8484869,20.3537081 13.7944062,20.4526437 C13.7403256,20.5515793 13.6699303,20.6449004 13.5832205,20.7326069 L13.5832795,20.7316827 Z M25.1246784,13.8565911 C25.2550771,13.8565911 25.3743669,13.8236192 25.4825478,13.7576753 C25.5907288,13.6917315 25.6774288,13.6096396 25.7426477,13.5113996 C25.8078667,13.4131596 25.8512216,13.3089671 25.8727124,13.1988222 C25.8942032,13.1770794 25.9049487,13.1441075 25.9049487,13.0999065 C26.1650191,10.5998045 25.2980685,9.17434055 23.304097,8.8235146 C22.7187372,8.71404545 22.1767322,8.70317406 21.6780822,8.79090041 C21.5261927,8.79090041 21.3961575,8.82912915 21.2879765,8.90558664 C21.1797956,8.98204412 21.0875559,9.08063194 21.0112576,9.20135008 C20.9349593,9.32206821 20.8971735,9.44802332 20.8979004,9.5792154 C20.8979004,9.79882943 20.9738451,9.98512373 21.1257346,10.1380983 C21.277624,10.2910729 21.4617595,10.367908 21.6781411,10.3686036 C23.3690213,9.97355671 24.2793071,10.521916 24.4089985,12.0136816 C24.4526874,12.3862702 24.4308429,12.737116 24.3434653,13.0662191 C24.3434653,13.2858331 24.41941,13.4721274 24.5712994,13.625102 C24.7231889,13.7780766 24.9073244,13.8549117 25.123706,13.8556073 L25.1246784,13.8565911 Z M24.5722719,4.58173427 C23.618641,4.36212025 22.3397305,4.40598343 20.7355405,4.71332381 C20.7140497,4.71332381 20.6922053,4.7241952 20.6700073,4.74593799 L20.637771,4.81223956 L20.6055348,4.84485371 C20.3669551,4.91079754 20.1717206,5.04798178 20.0198311,5.25640642 C19.8679417,5.46483106 19.791997,5.68971185 19.791997,5.93104881 C19.791997,6.26013198 19.9005315,6.53414271 20.1176007,6.753081 C20.3346698,6.97201929 20.5947599,7.0818263 20.8978709,7.08250203 L20.9956404,7.08250203 C21.0171313,7.08250203 21.0660258,7.07163064 21.1423241,7.04988785 C21.2186225,7.02814506 21.2997631,7.01165911 21.3857461,7.00042999 C21.471729,6.98920087 21.5639687,6.96710035 21.662465,6.93412842 C21.7609614,6.9011565 21.8476613,6.86818458 21.9225649,6.83521267 C21.9974685,6.80224077 22.1438085,6.7857548 22.3615848,6.78575478 C22.5793611,6.78575476 22.8449908,6.80224073 23.1584741,6.83521267 C23.4719573,6.86818462 23.8187375,6.95027654 24.1988147,7.08148844 C24.5788919,7.21270033 24.958262,7.37724191 25.3369249,7.57511319 C25.7155878,7.77298446 26.0949578,8.04699519 26.4750351,8.39714538 C26.8551123,8.74729556 27.1855878,9.15286603 27.4664615,9.61385678 C28.0303305,10.907771 28.1388651,12.1578219 27.7920652,13.3640097 C27.7920652,13.3857525 27.7865255,13.407853 27.7754462,13.4303113 C27.7643668,13.4527696 27.7480719,13.5075041 27.7265614,13.594515 C27.705051,13.6815259 27.6832065,13.7636178 27.6610281,13.8407908 C27.6388497,13.9179637 27.6170053,14.0165516 27.5954949,14.1365543 C27.5739844,14.2565569 27.563239,14.3607494 27.5632586,14.4491316 C27.5632586,14.6463072 27.6173589,14.8108488 27.7255595,14.9427563 C27.8337601,15.0746639 27.9693547,15.1679849 28.1323432,15.2227195 C28.2953317,15.2774541 28.4850265,15.3048114 28.7014277,15.3047916 C29.308298,15.3047916 29.6658237,14.9318452 29.7740046,14.1859525 C30.0340751,13.3305906 30.180415,12.5138252 30.2130245,11.7356562 C30.245634,10.9574872 30.1915337,10.2723014 30.0507236,9.68009872 C29.9099135,9.08789605 29.6987278,8.53426996 29.4171665,8.01922045 C29.1356053,7.50417094 28.8103355,7.06561862 28.4413573,6.70356348 C28.0723791,6.34150834 27.6604094,6.01242517 27.2054482,5.71631397 C26.750487,5.42020277 26.3114671,5.18444066 25.8883885,5.00902764 C25.46531,4.83361462 25.0262901,4.69117356 24.5713289,4.58170446 L24.5722719,4.58173427 Z" id="Shape" fill="#FFFFFF" fill-rule="nonzero"></path>
                        <rect id="Rectangle" fill="#D8D8D8" opacity="0" x="0" y="0" width="32" height="32"></rect>
                    </g>
                </g>
            </g>
        </g>
    </g>
</svg>