<?xml version="1.0" encoding="UTF-8"?>
<svg width="22px" height="22px" viewBox="0 0 22 22" version="1.1" xmlns="http://www.w3.org/2000/svg" xmlns:xlink="http://www.w3.org/1999/xlink">
    <!-- Generator: Sketch 50 (54983) - http://www.bohemiancoding.com/sketch -->
    <title>a_27</title>
    <desc>Created with Sketch.</desc>
    <defs></defs>
    <g id="开发资源" stroke="none" stroke-width="1" fill="none" fill-rule="evenodd">
        <g id="开发文档" transform="translate(-246.000000, -1617.000000)">
            <g id="Group-15" transform="translate(246.000000, 1617.000000)">
                <g id="分享">
                    <path d="M16.2751972,8.88572237 C17.904472,8.88572237 19.2245616,7.58372434 19.2245616,5.97798104 C19.2245616,5.96780194 19.2210587,5.95655136 19.2210587,5.94637224 C19.2210587,5.93405017 19.2245616,5.9240565 19.2245616,5.91385681 C19.2245616,4.30811351 17.9044926,3.00718696 16.2751972,3.00718696 C14.6469321,3.00718696 13.3268425,4.30813411 13.3268425,5.91385681 C13.3268425,5.9273946 13.3289854,5.93740886 13.3289854,5.95092606 C13.3289854,5.96112577 13.3268425,5.97008915 13.3268425,5.97798104 C13.3268425,6.20618665 13.3637469,6.42439862 13.4167854,6.63574894 L8.02610514,10.1439544 C7.49308275,9.62570614 6.76222724,9.30506436 5.95618234,9.30506436 C4.32653668,9.30506436 3.00644706,10.606197 3.00644706,12.2119403 C3.00644706,12.2231702 3.0095997,12.2333699 3.0095997,12.2445999 C3.0095997,12.2558505 3.00644706,12.2660502 3.00644706,12.2758996 C3.00644706,13.8816429 4.3265367,15.1838058 5.95618234,15.1838058 C6.82511513,15.1838058 7.59883005,14.805036 8.13852861,14.2157813 L13.3324678,17.9792885 C13.3300157,17.9951135 13.3278728,18.0095168 13.3278728,18.0263721 C13.3278728,18.0365718 13.331046,18.0478017 13.331046,18.0580015 C13.3299951,18.0692314 13.3278728,18.080482 13.3278728,18.0906611 C13.3278728,19.6960748 14.647983,20.9971867 16.2762275,20.9971867 C17.9055022,20.9971867 19.2255919,19.6960747 19.2255919,18.0906611 C19.2255919,18.0794311 19.222089,18.0681806 19.222089,18.0580015 C19.222089,18.0478017 19.2255919,18.0355003 19.2255919,18.0263721 C19.2255919,16.4206081 17.9055229,15.1184453 16.2762275,15.1184453 C15.2214127,15.1184453 14.3025735,15.6693944 13.7822029,16.4905431 L8.82547385,12.9009667 C8.87185676,12.69893 8.90416614,12.4930401 8.90416614,12.2769505 C8.90416614,12.2671011 8.90204377,12.2579729 8.90204377,12.2488447 C8.90204377,12.2365432 8.90416614,12.2252926 8.90416614,12.2130117 C8.90416614,11.9500035 8.85496027,11.6991525 8.78611739,11.4573884 L14.1395429,7.97271447 C14.6760889,8.5315349 15.4318976,8.88572237 16.2751972,8.88572237 Z" id="Shape" fill="#666666" fill-rule="nonzero"></path>
                    <rect id="Rectangle" fill="#D8D8D8" opacity="0" x="0" y="0" width="22" height="22"></rect>
                </g>
            </g>
        </g>
    </g>
</svg>