<?xml version="1.0" encoding="UTF-8"?>
<svg width="22px" height="22px" viewBox="0 0 22 22" version="1.1" xmlns="http://www.w3.org/2000/svg" xmlns:xlink="http://www.w3.org/1999/xlink">
    <!-- Generator: Sketch 50 (54983) - http://www.bohemiancoding.com/sketch -->
    <title>a_28</title>
    <desc>Created with Sketch.</desc>
    <defs></defs>
    <g id="开发资源" stroke="none" stroke-width="1" fill="none" fill-rule="evenodd">
        <g id="开发文档" transform="translate(-289.000000, -1617.000000)">
            <g id="Group-16" transform="translate(289.000000, 1617.000000)">
                <g id="灯泡">
                    <path d="M10.1880242,0.00713658837 C6.25864519,0.00713658837 3.01560243,3.25803616 3.01560243,7.25387059 C3.01560243,9.69028251 3.97435793,11.6526427 5.88617776,12.9623098 L5.88617776,15.3045661 C5.88617776,15.5714201 6.04331365,15.8261615 6.23827292,16.0071196 C6.41444641,16.1706014 6.66780284,16.2604509 6.90569748,16.2604509 C6.93110615,16.2604509 6.96804819,16.2593932 6.99355758,16.2574038 L13.5680572,15.7278761 C14.0616754,15.6878366 14.4892663,15.2732397 14.4892663,14.7751391 L14.4892663,12.9781493 C16.1620835,11.7653071 17.3557622,9.66809714 17.3557622,7.25384539 C17.3557622,3.25803616 14.1173781,0.00713658837 10.1880242,0.00713658837 Z M13.0450013,11.5914756 C12.7351868,11.7575259 12.5774717,12.0818956 12.5774717,12.435124 L12.5774717,13.8932392 L7.79797245,14.2685018 L7.79797245,12.4357032 C7.79797245,12.0956954 7.65894244,11.7813229 7.36700716,11.6100095 C5.72151249,10.6444297 4.94192713,9.21955481 4.94192713,7.25384541 C4.94192713,4.31215602 7.29634636,1.91893127 10.1779011,1.91893127 C13.0594558,1.91893127 15.426743,4.31218119 15.426743,7.25384541 C15.426743,9.16287007 14.5507105,10.784467 13.0450013,11.5914756 Z M14.4035215,17.7614259 C14.4415716,18.2880325 14.0481527,18.7459174 13.5248197,18.7840682 L6.99771265,19.2610662 C6.97429336,19.262829 6.95097481,19.2636348 6.92778216,19.2636348 C6.43436542,19.2636348 6.01752726,18.8799614 5.98121476,18.3770258 C5.9431647,17.8504192 6.33658359,17.3925343 6.85989139,17.3543835 L13.3869985,16.8773603 C13.9091983,16.8386555 14.3655974,17.234794 14.4035215,17.7614259 Z M12.3239894,20.7801219 C12.3642303,21.3064767 11.9728008,21.7661244 11.4495685,21.8066171 L9.08112289,21.990043 C9.05631858,21.9919065 9.03161501,21.9928382 9.00713807,21.9928382 C8.51545889,21.9928382 8.09919991,21.6117333 8.06079732,21.1103339 C8.02055644,20.5839791 8.41201112,20.1243566 8.93524337,20.0838387 L11.3036638,19.9004128 C11.8277019,19.8622621 12.2836478,20.2537419 12.3239894,20.7801219 Z M13.9969828,7.23614245 C13.9551051,7.66824093 13.5933652,7.99145231 13.1705841,7.99145231 C13.1435637,7.99145231 13.1162916,7.99006729 13.088818,7.98739801 C12.6318145,7.94259917 12.2975734,7.53359262 12.3420952,7.07371835 C12.4746786,5.7058052 11.2803704,5.22014455 11.1438586,5.16927683 C10.7159907,5.00987457 10.491921,4.53217142 10.6464127,4.10042548 C10.8009045,3.66857882 11.26856,3.44138652 11.6990972,3.59247873 C12.585807,3.90413154 14.207278,5.06671042 13.9969828,7.23614245 Z" id="Shape" fill="#666666" fill-rule="nonzero"></path>
                    <rect id="Rectangle" fill="#D8D8D8" opacity="0" x="0" y="0" width="22" height="22"></rect>
                </g>
            </g>
        </g>
    </g>
</svg>