<?xml version="1.0" encoding="UTF-8"?>
<svg width="12px" height="12px" viewBox="0 0 12 12" version="1.1" xmlns="http://www.w3.org/2000/svg" xmlns:xlink="http://www.w3.org/1999/xlink">
    <!-- Generator: Sketch 50 (54983) - http://www.bohemiancoding.com/sketch -->
    <title>a_3</title>
    <desc>Created with Sketch.</desc>
    <defs></defs>
    <g id="开发资源" stroke="none" stroke-width="1" fill="none" fill-rule="evenodd">
        <g id="开发文档" transform="translate(-208.000000, -1559.000000)">
            <g id="z1" transform="translate(208.000000, 1559.000000)">
                <g id="赞">
                    <path d="M9.22162968,10.6125873 C8.9284046,10.9335671 8.58580999,11.0895573 8.17738933,11.0895573 L4.26971628,11.0895573 C3.79098144,11.0895573 3.40200939,10.681583 3.40200939,10.1806145 L3.40200939,5.3584179 C3.81491819,4.92044546 4.92049644,3.6230271 5.55033195,1.68364913 C5.64907101,1.37916828 5.86898982,0.870700278 6.24150536,0.909697824 C6.53173835,0.938196031 6.83543576,1.26817527 6.88031715,1.59965441 C6.90724599,1.84713884 6.66937462,3.29154795 6.2878828,4.05499992 L5.95426446,4.72245792 L9.47745361,4.72245792 C9.95618844,4.72245792 10.3451605,5.13043225 10.3466565,5.64939959 C10.3855537,6.64683683 10.2553977,9.48465827 9.22162968,10.6125873 Z M2.46099624,10.1791146 C2.46099624,10.3891014 2.11391349,10.633586 1.66509958,10.633586 C1.21628568,10.633586 0.869202928,10.3891014 0.869202928,10.1791146 L0.869202928,5.63140072 C0.869202928,5.42141394 1.21628568,5.17692932 1.66509958,5.17692932 C2.11391349,5.17692932 2.46099624,5.42141394 2.46099624,5.63140072 L2.46099624,10.1791146 Z M11.2158595,5.63140072 C11.2158595,4.62796386 10.4364193,3.8120152 9.47894966,3.8120152 L7.32165082,3.8120152 C7.60889172,2.93757023 7.78841728,1.84263912 7.73904775,1.47366234 C7.63582056,0.717709904 7.01346528,0.0727504862 6.32229186,0.00525473319 C5.99166562,-0.0262432849 5.16584804,0.0427523738 4.72750646,1.39266743 C4.17247326,3.10255984 3.21051546,4.26198689 2.84398411,4.66096179 C2.54477484,4.41647717 2.13037,4.26798651 1.66509958,4.26798651 C0.731566664,4.26798651 0,4.86794876 0,5.63290063 L0,10.1806145 C0,10.9455663 0.731566664,11.5455286 1.66509958,11.5455286 C2.11690558,11.5455286 2.51934205,11.4030376 2.81705527,11.1705522 C3.12673687,11.6685209 3.66082541,12 4.26971628,12 L8.17738933,12 C8.8251774,12 9.38769083,11.745016 9.8484731,11.2440476 C11.3475115,9.60765053 11.2218437,5.77539166 11.2158595,5.63140072 Z" id="Shape" fill="#99A5A0" fill-rule="nonzero"></path>
                    <rect id="Rectangle-4" fill="#000000" opacity="0" x="0" y="0" width="12" height="12"></rect>
                </g>
            </g>
        </g>
    </g>
</svg>