<?xml version="1.0" encoding="UTF-8"?>
<svg width="22px" height="22px" viewBox="0 0 22 22" version="1.1" xmlns="http://www.w3.org/2000/svg" xmlns:xlink="http://www.w3.org/1999/xlink">
    <!-- Generator: Sketch 50 (54983) - http://www.bohemiancoding.com/sketch -->
    <title>a_30</title>
    <desc>Created with Sketch.</desc>
    <defs></defs>
    <g id="开发资源" stroke="none" stroke-width="1" fill="none" fill-rule="evenodd">
        <g id="开发文档" transform="translate(-372.000000, -1619.000000)">
            <g id="Group-18" transform="translate(372.000000, 1619.000000)">
                <g id="返回顶部-">
                    <path d="M15.884004,9.41746375 C15.9806336,3.07115194 10.8083615,0.195968222 10.4611678,0.00895729891 L10.4611678,0 L10.4513366,0.00447864945 L10.4423793,0 L10.4423793,0.00895729891 C10.0942681,0.195968222 4.92112214,3.07115194 5.01864747,9.41746375 C3.9654002,10.1047071 2.8620576,11.3261986 3.03744588,13.4389414 C3.21283416,15.5508103 5.24415293,16.9512512 6.02177756,16.8752016 C6.79942403,16.7991301 6.57302284,16.2130169 6.57302284,16.2130169 L6.83968818,15.1185879 C6.83968818,15.1185879 7.98600397,16.8787845 8.35377756,16.8778888 C8.68397418,16.8510169 10.2544727,16.8752016 10.4423575,16.8778888 L10.4602721,16.8778888 C10.6482006,16.8752016 12.2186554,16.8510169 12.548852,16.8778888 C12.9157517,16.8778888 14.0629633,15.1185879 14.0629633,15.1185879 L14.3287329,16.212995 C14.3287329,16.212995 14.1032274,16.7991519 14.880852,16.8751797 C15.6584985,16.9512512 17.6898173,15.5508103 17.8652056,13.4389414 C18.0405938,11.3270943 16.9372512,10.1047071 15.884004,9.41746375 Z M10.4513148,9.32439523 C10.3036723,9.32170804 8.38062761,9.25101092 8.20344786,6.98256405 C8.26789672,4.82595233 10.3001112,4.63535849 10.4513148,4.62460973 C10.6034578,4.63535849 12.6347766,4.82595233 12.6992036,6.98256405 C12.5220238,9.25101092 10.5980834,9.32172989 10.4513148,9.32439523 Z M9.31485204,20.2595313 C9.31485204,20.5181569 9.10905263,20.7266653 8.85580139,20.7266653 C8.60014157,20.7247055 8.39434349,20.5161119 8.39583317,20.2604489 L8.39583317,17.9526117 C8.39583317,17.6948818 8.60165442,17.4854777 8.85580139,17.4854777 C9.10903078,17.4854777 9.31485204,17.6948818 9.31485204,17.9526117 L9.31485204,20.260427 L9.31485204,20.2595313 Z M11.0043515,21.5096643 C11.0058291,21.7687732 10.7972406,21.9801572 10.5381351,21.9821291 C10.2790295,21.9801572 10.070441,21.7687732 10.0719186,21.5096643 L10.0719186,18.0778828 C10.0719186,17.8165919 10.2804052,17.6045005 10.5372393,17.6045005 C10.7949474,17.6045005 11.0043297,17.8165919 11.0043297,18.0778828 L11.0043297,21.5096643 L11.0043515,21.5096643 Z M12.5587051,19.7172651 C12.5587051,19.9749732 12.3529057,20.1834816 12.0987587,20.1834816 C11.8434497,20.1810311 11.6381943,19.9725815 11.6396862,19.7172651 L11.6396862,18.070717 C11.6396862,17.8139047 11.8455074,17.6053962 12.0987587,17.6053962 C12.3528838,17.6053962 12.5587051,17.8139047 12.5587051,18.0707388 L12.5587051,19.7172651 Z" id="Shape" fill="#777777" fill-rule="nonzero"></path>
                    <rect id="Rectangle" fill="#D8D8D8" opacity="0" x="0" y="0" width="22" height="22"></rect>
                </g>
            </g>
        </g>
    </g>
</svg>