<?xml version="1.0" encoding="UTF-8"?>
<svg width="72px" height="72px" viewBox="0 0 72 72" version="1.1" xmlns="http://www.w3.org/2000/svg" xmlns:xlink="http://www.w3.org/1999/xlink">
    <!-- Generator: Sketch 50 (54983) - http://www.bohemiancoding.com/sketch -->
    <title>a_3</title>
    <desc>Created with Sketch.</desc>
    <defs>
        <radialGradient cx="47.0193299%" cy="7.8140708%" fx="47.0193299%" fy="7.8140708%" r="81.4847378%" gradientTransform="translate(0.470193,0.078141),scale(0.681694,1.000000),translate(-0.470193,-0.078141)" id="radialGradient-1">
            <stop stop-color="#EE6959" offset="0%"></stop>
            <stop stop-color="#E03131" offset="100%"></stop>
        </radialGradient>
        <linearGradient x1="49.9851647%" y1="87.9129294%" x2="49.9851647%" y2="44.4828894%" id="linearGradient-2">
            <stop stop-color="#EFC01D" offset="0%"></stop>
            <stop stop-color="#FCD11C" offset="100%"></stop>
        </linearGradient>
        <linearGradient x1="49.9750589%" y1="96.81%" x2="49.9750589%" y2="60.74%" id="linearGradient-3">
            <stop stop-color="#48A34B" offset="0%"></stop>
            <stop stop-color="#4BB64B" offset="100%"></stop>
        </linearGradient>
        <linearGradient x1="6475%" y1="3947%" x2="12270%" y2="3947%" id="linearGradient-4">
            <stop stop-color="#EFC01D" offset="0%"></stop>
            <stop stop-color="#FCD11C" offset="100%"></stop>
        </linearGradient>
    </defs>
    <g id="开发资源" stroke="none" stroke-width="1" fill="none" fill-rule="evenodd">
        <g id="开发文档" transform="translate(-395.000000, -2036.000000)">
            <g id="a_3" transform="translate(395.000000, 2036.000000)">
                <g>
                    <rect id="Rectangle-4" fill="#D8D8D8" opacity="0" x="0" y="0" width="72" height="72"></rect>
                    <g id="mmmgoogle" transform="translate(1.800000, 0.900000)">
                        <circle id="Oval" fill="#4B8BF5" fill-rule="nonzero" cx="34.2" cy="34.0684615" r="13.1538462"></circle>
                        <path d="M18.2838462,34.0684615 C18.2840241,25.5047136 25.1127748,18.5032014 33.6738462,18.2891077 L64.4012308,18.2891077 C58.7478639,7.52432209 47.8004937,0.57413438 35.653331,0.0378477633 C23.5061683,-0.498438854 11.9888954,5.4599545 5.40886154,15.6846462 L19.5834462,40.2192 C18.7454911,38.2757905 18.3036686,36.1847357 18.2838462,34.0684615 Z" id="Shape" fill="url(#radialGradient-1)" fill-rule="nonzero"></path>
                        <path d="M64.4012308,18.2838462 L33.6738462,18.2838462 C33.8052189,18.2931825 33.9370887,18.2931825 34.0684615,18.2838462 C42.7948173,18.2895268 49.8780641,25.3422119 49.9214769,34.0684615 C49.930666,37.485267 48.8219884,40.8112999 46.7645538,43.5392308 L32.5584,68.2158462 C33.0845538,68.2421538 33.6528,68.2579385 34.2,68.2579385 C43.2547606,68.2872911 51.9491804,64.7130247 58.3652085,58.3236479 C64.7812365,51.9342711 68.3916622,43.2548044 68.4,34.2 C68.4143591,28.6442679 67.0397755,23.1730636 64.4012308,18.2838462 Z" id="Shape" fill="url(#linearGradient-2)" fill-rule="nonzero"></path>
                        <path d="M34.2,49.8530769 C27.8464332,49.8464366 22.1140076,46.0372543 19.6465846,40.1823692 L5.40886154,15.6215077 C-1.17921916,25.9004182 -1.78813684,38.9117988 3.81116945,49.761065 C9.41047574,60.6103312 20.3687203,67.6518994 32.5636615,68.2368923 L46.8276923,43.5497538 C43.8444983,47.5204471 39.1664721,49.8555618 34.2,49.8530769 Z" id="Shape" fill="url(#linearGradient-3)" fill-rule="nonzero"></path>
                        <path d="M5.49304615,15.5583692 C5.49304615,15.6057231 5.43516923,15.6425538 5.40886154,15.6846462 L19.5834462,40.2192 C18.7454911,38.2757905 18.3036686,36.1847357 18.2838462,34.0684615 C18.2838423,32.9397106 18.4055614,31.8142504 18.6468923,30.7116 L5.49304615,15.5583692 Z" id="Shape" fill="#D01E22" fill-rule="nonzero"></path>
                        <path d="M32.4110769,68.2158462 L32.5636615,68.2158462 L46.8276923,43.5497538 C44.6065004,46.4988791 41.4235728,48.5780196 37.8304615,49.4268923 L32.4110769,68.2158462 Z" id="Shape" fill="#2DA535" fill-rule="nonzero"></path>
                        <path d="M45.5807077,23.2507385 L64.5590769,18.5837538 L64.4012308,18.2838462 L34.0684615,18.2838462 C38.4257525,18.2853016 42.5899559,20.0819231 45.5807077,23.2507385 Z" id="Shape" fill="url(#linearGradient-4)" fill-rule="nonzero"></path>
                        <path d="M49.9214769,32.49 C49.9214769,32.7215077 49.9214769,32.9477538 49.8899077,33.174 C49.6762847,29.4597606 48.1489052,25.9424982 45.5807077,23.2507385 C45.4018154,23.0613231 45.2176615,22.8719077 45.0545538,22.6930154 C44.8704,22.5193846 44.6809846,22.3457538 44.4863077,22.1668615 C44.3021538,22.0037538 44.1074769,21.8459077 43.9128,21.6933231 L43.8707077,21.6617538 C43.6812923,21.5144308 43.4866154,21.3723692 43.2919385,21.2303077 L43.1446154,21.1619077 C42.9552,21.0303692 42.7605231,20.9040923 42.5658462,20.7778154 L42.4764,20.7199385 C42.2869846,20.6041846 42.0975692,20.4884308 41.9028923,20.3779385 L41.7924,20.3095385 C41.6029846,20.2043077 41.4135692,20.1043385 41.2188923,20.0096308 L41.0820923,19.9359692 L40.5191077,19.6728923 L40.356,19.5992308 L39.8298462,19.3729846 L39.6351692,19.2993231 L39.1090154,19.1046462 L38.8932923,19.0309846 L38.3671385,18.8784 L38.1251077,18.81 C37.9567385,18.7626462 37.7778462,18.7205538 37.5989538,18.6837231 L37.3358769,18.6205846 L36.8097231,18.5258769 L36.5361231,18.4732615 L36.0099692,18.4048615 L35.7311077,18.3680308 L35.1628615,18.3259385 L34.9103077,18.3259385 C34.6367077,18.3259385 34.3841538,18.3259385 34.0842462,18.3259385 C33.9528734,18.3352748 33.8210036,18.3352748 33.6896308,18.3259385 C26.4213699,18.4975317 20.210402,23.6114241 18.6468923,30.7116 C18.5311385,31.2377538 18.4469538,31.7639077 18.3838154,32.3216308 C18.3838154,32.3216308 18.3838154,32.3584615 18.3838154,32.3742462 C18.3838154,32.6162769 18.3364615,32.8635692 18.3206769,33.1056 C18.3232712,33.1458968 18.3232712,33.1863186 18.3206769,33.2266154 L18.3206769,33.2634462 C18.3206769,33.0056308 18.3206769,32.7372923 18.3206769,32.49 C18.3206769,32.2427077 18.3206769,31.9270154 18.3206769,31.6481538 C18.3232712,31.6078571 18.3232712,31.5674352 18.3206769,31.5271385 C18.3206769,31.2851077 18.3575077,31.0378154 18.3838154,30.7957846 C18.3838154,30.7957846 18.3838154,30.7589538 18.3838154,30.7431692 C18.4469538,30.2170154 18.5311385,29.6908615 18.6468923,29.1331385 C20.1943052,22.0239692 26.4005134,16.8934168 33.6738462,16.7106462 C33.8052189,16.7199825 33.9370887,16.7199825 34.0684615,16.7106462 C34.3473231,16.7106462 34.5946154,16.7106462 34.8945231,16.7106462 L35.1470769,16.7106462 L35.7153231,16.7527385 L35.9941846,16.7895692 L36.5203385,16.8579692 L36.7939385,16.9105846 L37.3200923,17.0052923 L37.5831692,17.0684308 C37.7568,17.1052615 37.9356923,17.1473538 38.1093231,17.1947077 L38.3513538,17.2631077 L38.8775077,17.4156923 L39.0932308,17.4893538 L39.6193846,17.6840308 L39.8140615,17.7576923 L40.3402154,17.9839385 L40.5033231,18.0576 L41.0663077,18.3206769 L41.2031077,18.3943385 C41.3977846,18.4890462 41.5872,18.5890154 41.7766154,18.6942462 L41.8871077,18.7626462 C42.0817846,18.8731385 42.2712,18.9888923 42.4606154,19.1046462 L42.5500615,19.1625231 C42.7447385,19.2888 42.9394154,19.4150769 43.1288308,19.5466154 L43.1919692,19.5939692 C43.3866462,19.7360308 43.5813231,19.8780923 43.7707385,20.0254154 L43.8128308,20.0569846 C44.0075077,20.2095692 44.2021846,20.3674154 44.3863385,20.5305231 C44.5810154,20.6988923 44.7704308,20.8725231 44.9545846,21.0566769 C45.144,21.2355692 45.3281538,21.4249846 45.4807385,21.6144 C48.3148708,24.5268506 49.9070581,28.4262005 49.9214769,32.49 Z M34.2,47.2223077 C41.4646686,47.2223077 47.3538462,41.3331302 47.3538462,34.0684615 C47.3538462,33.8053846 47.3538462,33.5423077 47.3538462,33.2792308 C46.9150267,40.2071636 41.1681242,45.6015707 34.2263077,45.6015707 C27.2844912,45.6015707 21.5375887,40.2071636 21.0987692,33.2792308 C21.0987692,33.5423077 21.0987692,33.8053846 21.0987692,34.0684615 C21.0987113,41.3126321 26.9558874,47.193331 34.2,47.2223077 Z M34.2315692,66.69 C33.7054154,66.69 33.1476923,66.69 32.6215385,66.6479077 C32.5637313,66.6438904 32.5057149,66.6438904 32.4479077,66.6479077 C14.5144692,65.73126 0.344013347,51.1012467 0,33.1476923 C0,33.4476 0,33.7475077 0,34.0526769 C0.00410149426,52.25688 14.2676092,67.2674467 32.4479077,68.2000615 L32.6215385,68.2000615 C33.1476923,68.2263692 33.6738462,68.2421538 34.2315692,68.2421538 C43.2789871,68.2659057 51.9645187,64.6909956 58.3738639,58.3053376 C64.783209,51.9196796 68.3902532,43.2474438 68.4,34.2 C68.4,33.8737846 68.4,33.5528308 68.4,33.2266154 C68.0665622,51.8431469 52.8510061,66.7447387 34.2315692,66.69 Z" id="Shape" opacity="0.05" style="mix-blend-mode: multiply;"></path>
                    </g>
                </g>
            </g>
        </g>
    </g>
</svg>