<?xml version="1.0" encoding="UTF-8"?>
<svg width="20px" height="20px" viewBox="0 0 20 20" version="1.1" xmlns="http://www.w3.org/2000/svg" xmlns:xlink="http://www.w3.org/1999/xlink">
    <!-- Generator: Sketch 50 (54983) - http://www.bohemiancoding.com/sketch -->
    <title>a_33</title>
    <desc>Created with Sketch.</desc>
    <defs></defs>
    <g id="开发资源" stroke="none" stroke-width="1" fill="none" fill-rule="evenodd">
        <g id="开发文档" transform="translate(-486.000000, -1620.000000)" fill="#33CC99" fill-rule="nonzero">
            <path d="M496,1620 C490.476,1620 486,1624.476 486,1630 C486,1635.524 490.476,1640 496,1640 C501.524,1640 506,1635.524 506,1630 C506,1624.476 501.524,1620 496,1620 Z M491.333333,1626.66667 C492.070667,1626.66667 492.666667,1627.26267 492.666667,1628 C492.666667,1628.73733 492.070667,1629.33333 491.333333,1629.33333 C490.596,1629.33333 490,1628.73733 490,1628 C490,1627.26267 490.596,1626.66667 491.333333,1626.66667 Z M501.405333,1632.592 C500.437333,1634.60667 498.384,1636 496,1636 C493.617333,1636 491.566667,1634.60533 490.598667,1632.59333 C490.468,1632.464 490.386667,1632.288 490.386667,1632.09067 C490.386667,1631.7 490.702667,1631.384 491.093333,1631.384 C491.433333,1631.384 491.704,1631.63067 491.770667,1631.94933 C492.510667,1633.55067 494.121333,1634.66667 496,1634.66667 C497.884,1634.66667 499.5,1633.54667 500.237333,1631.93867 C500.306667,1631.62 500.577333,1631.37467 500.917333,1631.37467 C501.308,1631.37467 501.625333,1631.692 501.625333,1632.08267 C501.625333,1632.284 501.538667,1632.464 501.405333,1632.592 Z M500.666667,1629.33333 C499.929333,1629.33333 499.333333,1628.73733 499.333333,1628 C499.333333,1627.26267 499.929333,1626.66667 500.666667,1626.66667 C501.404,1626.66667 502,1627.26267 502,1628 C502,1628.73733 501.404,1629.33333 500.666667,1629.33333 Z" id="Shape"></path>
        </g>
    </g>
</svg>