<?xml version="1.0" encoding="UTF-8"?>
<svg width="16px" height="16px" viewBox="0 0 16 16" version="1.1" xmlns="http://www.w3.org/2000/svg" xmlns:xlink="http://www.w3.org/1999/xlink">
    <!-- Generator: Sketch 50 (54983) - http://www.bohemiancoding.com/sketch -->
    <title>a_35</title>
    <desc>Created with Sketch.</desc>
    <defs></defs>
    <g id="开发资源" stroke="none" stroke-width="1" fill="none" fill-rule="evenodd">
        <g id="开发文档" transform="translate(-565.000000, -1622.000000)">
            <g id="jd" transform="translate(565.000000, 1622.000000)">
                <g id="tianmao">
                    <rect id="Rectangle-5" fill="#000000" opacity="0" x="0" y="0" width="16" height="16"></rect>
                    <circle id="Oval" fill="#D01818" cx="8" cy="8" r="8"></circle>
                    <path d="M11.9112369,4.94719117 C12.6235068,5.56925243 12.9993763,6.54713682 13,7.76996563 C13,8.99154711 12.6241305,9.96693685 11.9112369,10.5908691 C11.1958486,11.217942 10.1402734,11.5368129 8.78150789,11.5368129 L7.17966897,11.5368129 L7.17966897,4 L8.78150789,4 C10.1402734,4 11.1939554,4.31822505 11.9112369,4.94719117 Z M5.1073862,8.54738629 L5.10800986,4.00187099 L6.33460294,4.00187099 L6.33460294,8.86812827 C6.33460294,9.75707359 6.07150542,10.4311218 5.55217069,10.8771536 C5.04473014,11.3119149 4.22472208,11.534296 3.17854637,11.534296 C3.16977051,11.534296 3.14785314,11.536167 3.12027824,11.534296 L3,11.534296 L3,10.4423923 L3.1259135,10.4423923 C3.48674823,10.4392517 3.79559603,10.4066875 4.04178778,10.3440314 C4.29363706,10.2795266 4.51287757,10.1786488 4.6920476,10.0414648 C4.83987847,9.92430489 4.94701521,9.7702151 5.00840166,9.58665713 C5.07417604,9.39309826 5.1073862,9.04353404 5.1073862,8.54738629 Z M11.0887119,9.78337888 C11.5585543,9.35489878 11.8053698,8.66015828 11.8059934,7.77123524 C11.8059934,6.87979526 11.5585543,6.1844311 11.0887119,5.75719832 C10.6107172,5.32181335 9.88091786,5.09943224 8.92118657,5.09943224 L8.36427603,5.09943224 L8.36427603,10.4436619 L8.92118657,10.4436619 C9.88091786,10.4436619 10.6100936,10.2206348 11.0887119,9.78337888 Z" id="Combined-Shape" fill="#FFFFFF"></path>
                </g>
            </g>
        </g>
    </g>
</svg>