<?xml version="1.0" encoding="UTF-8"?>
<svg width="22px" height="22px" viewBox="0 0 22 22" version="1.1" xmlns="http://www.w3.org/2000/svg" xmlns:xlink="http://www.w3.org/1999/xlink">
    <!-- Generator: Sketch 50 (54983) - http://www.bohemiancoding.com/sketch -->
    <title>a_37</title>
    <desc>Created with Sketch.</desc>
    <defs></defs>
    <g id="开发资源" stroke="none" stroke-width="1" fill="none" fill-rule="evenodd">
        <g id="开发文档" transform="translate(-120.000000, -1695.000000)">
            <g id="pl-lv-copy" transform="translate(120.000000, 1695.000000)">
                <g id="Group-23">
                    <path d="M7.19010193,1.51086825 C5.99970311,1.98848413 4.96209838,2.64349377 4.07725511,3.47591288 C3.19241185,4.30832932 2.49537362,5.2806072 1.98611438,6.3927753 C1.4768486,7.50494083 1.22222222,8.69555609 1.22222222,9.96465269 C1.22222222,10.6879018 1.30815585,11.3872585 1.48003615,12.0627466 C1.65190993,12.7382346 1.89698667,13.3830076 2.2152794,13.9970867 C2.53356562,14.6111684 2.91869273,15.1808872 3.37066073,15.7062668 C3.82262873,16.2316464 4.32870044,16.6990231 4.88888889,17.1084074 L4.88888889,20.3608134 C4.88888889,21.1307575 5.38797927,21.4301335 6.00165867,21.0307734 L9.16666667,18.9711072 C9.47222222,19.025691 9.77459022,19.0666294 10.0737837,19.0939225 C10.3729772,19.1212157 10.6817138,19.134861 11,19.134861 C12.3495419,19.134861 13.6194927,18.8960557 14.8098981,18.4184371 C16.0002969,17.9408212 17.0379016,17.2858116 17.9227449,16.4533925 C18.8075816,15.620976 19.5046264,14.6486981 20.0138856,13.5365301 C20.5231514,12.4243646 20.7777778,11.2337493 20.7777778,9.96465269 C20.7777778,8.69555609 20.5231514,7.50494083 20.0138856,6.3927753 C19.5046264,5.2806072 18.8075816,4.30832932 17.9227449,3.47591288 C17.0379016,2.64349377 16.0002969,1.98848413 14.8098981,1.51086825 C13.6194927,1.0332497 12.3495419,0.794444415 11,0.794444415 C9.65045807,0.794444415 8.38050727,1.0332497 7.19010193,1.51086825 Z M14.0555556,13.2397271 L7.94444444,13.2397271 C7.77893273,13.2397271 7.63570785,13.1749095 7.51475673,13.0452689 C7.39380562,12.915631 7.33333333,12.7621138 7.33333333,12.5847122 C7.33333333,12.4073106 7.39380562,12.2537934 7.51475673,12.1241556 C7.63570785,11.9945149 7.77893273,11.9296973 7.94444444,11.9296973 L14.0555556,11.9296973 C14.2210673,11.9296973 14.3642922,11.9945149 14.4852433,12.1241556 C14.6061944,12.2537934 14.6666667,12.4073106 14.6666667,12.5847122 C14.6666667,12.7621138 14.6061944,12.915631 14.4852433,13.0452689 C14.3642922,13.1749095 14.2210673,13.2397271 14.0555556,13.2397271 Z M15.2777778,9.30963781 L6.72222222,9.30963781 C6.55671051,9.30963781 6.41348562,9.2448202 6.29253451,9.11517966 C6.1715834,8.98554169 6.11111111,8.83202459 6.11111111,8.65462294 C6.11111111,8.47722129 6.1715834,8.32370418 6.29253451,8.19406622 C6.41348562,8.06442567 6.55671051,7.99960806 6.72222222,7.99960806 L15.2777778,7.99960806 C15.4432895,7.99960806 15.5865144,8.06442567 15.7074655,8.19406622 C15.8284166,8.32370418 15.8888889,8.47722129 15.8888889,8.65462294 C15.8888889,8.83202459 15.8284166,8.98554169 15.7074655,9.11517966 C15.5865144,9.2448202 15.4432895,9.30963781 15.2777778,9.30963781 Z" id="Shape" fill="#33CC99" fill-rule="nonzero"></path>
                    <rect id="Rectangle-8-Copy" fill="#D8D8D8" opacity="0" x="0" y="0" width="22" height="22"></rect>
                </g>
            </g>
        </g>
    </g>
</svg>