<?xml version="1.0" encoding="UTF-8"?>
<svg width="22px" height="22px" viewBox="0 0 22 22" version="1.1" xmlns="http://www.w3.org/2000/svg" xmlns:xlink="http://www.w3.org/1999/xlink">
    <!-- Generator: Sketch 50 (54983) - http://www.bohemiancoding.com/sketch -->
    <title>a_38</title>
    <desc>Created with Sketch.</desc>
    <defs></defs>
    <g id="开发资源" stroke="none" stroke-width="1" fill="none" fill-rule="evenodd">
        <g id="开发文档" transform="translate(-162.000000, -1694.000000)">
            <g id="Group-12-Copy" transform="translate(162.000000, 1694.000000)">
                <g id="SCC-Copy">
                    <g>
                        <g id="筛选">
                            <rect id="Rectangle" fill="#D8D8D8" opacity="0" x="0" y="0" width="22" height="22"></rect>
                            <path d="M20.2483377,10.7562365 C20.8654589,10.1391152 21.0553424,9.18969783 20.7705172,8.3826931 C20.485692,7.52821749 19.8210999,6.91109622 18.9666242,6.76868359 L15.1689549,6.10409147 C14.7417171,6.00914974 14.409421,5.7717954 14.2195375,5.39202845 L12.4156446,1.87918429 C12.0833485,1.02470868 11.3238146,0.55 10.469339,0.55 C9.61486341,0.55 8.85532953,1.02470868 8.42809173,1.83171341 L6.67166964,5.34455759 C6.48178617,5.72432452 6.10201923,6.00914974 5.7222523,6.05662059 L1.92458292,6.72121274 C1.07010731,6.86362535 0.405515167,7.48074661 0.120689971,8.33522222 C-0.164135224,9.18969783 0.0732190952,10.0916443 0.642869507,10.7087656 L3.30123806,13.5570176 C3.58606326,13.8418428 3.72847587,14.3165515 3.68100501,14.7437893 L3.1113546,18.6838713 C2.96894199,19.5383469 3.34870894,20.4402934 4.01330108,20.9624729 C4.39306801,21.2472981 4.86777669,21.4371816 5.34248537,21.4371816 C5.67478144,21.4371816 6.05454837,21.3422398 6.33937357,21.1998272 L9.80474687,19.4434051 C10.1845138,19.2535217 10.6117516,19.2535217 10.9915186,19.4434051 L14.4568919,21.1998272 C15.2164257,21.5795942 16.1183722,21.5321233 16.8304352,21.0099438 C17.4950274,20.4877642 17.8747943,19.6332886 17.7323817,18.7313421 L17.2102022,14.7912602 C17.1627313,14.3640224 17.3051439,13.9367845 17.5899691,13.6044885 L20.2483377,10.7562365 Z" id="Shape" fill="#00A2FF" fill-rule="nonzero"></path>
                        </g>
                    </g>
                </g>
            </g>
        </g>
    </g>
</svg>