<?xml version="1.0" encoding="UTF-8"?>
<svg width="22px" height="22px" viewBox="0 0 22 22" version="1.1" xmlns="http://www.w3.org/2000/svg" xmlns:xlink="http://www.w3.org/1999/xlink">
    <!-- Generator: Sketch 50 (54983) - http://www.bohemiancoding.com/sketch -->
    <title>a_39</title>
    <desc>Created with Sketch.</desc>
    <defs></defs>
    <g id="开发资源" stroke="none" stroke-width="1" fill="none" fill-rule="evenodd">
        <g id="开发文档" transform="translate(-204.000000, -1695.000000)">
            <g id="Group-12-Copy-2" transform="translate(204.000000, 1695.000000)">
                <g id="分享">
                    <g>
                        <path d="M15.0127598,8.21248921 C16.7326001,8.21248921 18.1260688,6.83811775 18.1260688,5.1431169 C18.1260688,5.13237198 18.1223712,5.12049602 18.1223712,5.10975108 C18.1223712,5.09674407 18.1260688,5.08619489 18.1260688,5.07542823 C18.1260688,3.38042738 16.7326219,2.00718696 15.0127598,2.00718696 C13.2939852,2.00718696 11.9005165,3.38044912 11.9005165,5.07542823 C11.9005165,5.08971854 11.9027786,5.10028946 11.9027786,5.11455802 C11.9027786,5.12532471 11.9005165,5.13478633 11.9005165,5.1431169 C11.9005165,5.38400765 11.9394723,5.61434924 11.995459,5.83744778 L6.30513005,9.54066186 C5.74247885,8.99360604 4.97099768,8.65514093 4.12014762,8.65514093 C2.39991576,8.65514093 1.00644706,10.0285989 1.00644706,11.7235997 C1.00644706,11.7354539 1.00977494,11.7462206 1.00977494,11.7580748 C1.00977494,11.7699508 1.00644706,11.7807175 1.00644706,11.7911144 C1.00644706,13.4861152 2.39991578,14.8606607 4.12014762,14.8606607 C5.03738129,14.8606607 5.85410426,14.4608364 6.42380274,13.8388271 L11.9064545,17.8115343 C11.9038661,17.828239 11.9016041,17.8434428 11.9016041,17.8612351 C11.9016041,17.8720017 11.9049537,17.8838559 11.9049537,17.8946226 C11.9038444,17.9064768 11.9016041,17.9183528 11.9016041,17.9290977 C11.9016041,19.6237506 13.2950945,20.9971867 15.0138473,20.9971867 C16.7336876,20.9971867 18.1271564,19.6237506 18.1271564,17.9290977 C18.1271564,17.9172435 18.1234587,17.9053675 18.1234587,17.8946226 C18.1234587,17.8838559 18.1271564,17.8708707 18.1271564,17.8612351 C18.1271564,16.1662124 16.7337094,14.791667 15.0138473,14.791667 C13.9003991,14.791667 12.9304849,15.3732414 12.3811887,16.2400348 L7.14893282,12.4509266 C7.19789399,12.2376595 7.23199933,12.0203249 7.23199933,11.7922237 C7.23199933,11.7818268 7.22975899,11.7721911 7.22975899,11.7625555 C7.22975899,11.7495702 7.23199933,11.7376943 7.23199933,11.7247308 C7.23199933,11.4471028 7.18005829,11.1823079 7.10738867,10.927105 L12.7583921,7.24873046 C13.3247627,7.83861372 14.1225841,8.21248921 15.0127598,8.21248921 Z" id="Shape" fill="#F5A623" fill-rule="nonzero"></path>
                        <rect id="Rectangle" fill="#D8D8D8" opacity="0" x="0" y="0" width="22" height="22"></rect>
                    </g>
                </g>
            </g>
        </g>
    </g>
</svg>