<?xml version="1.0" encoding="UTF-8"?>
<svg width="12px" height="12px" viewBox="0 0 12 12" version="1.1" xmlns="http://www.w3.org/2000/svg" xmlns:xlink="http://www.w3.org/1999/xlink">
    <!-- Generator: Sketch 50 (54983) - http://www.bohemiancoding.com/sketch -->
    <title>a_4</title>
    <desc>Created with Sketch.</desc>
    <defs></defs>
    <g id="开发资源" stroke="none" stroke-width="1" fill="none" fill-rule="evenodd">
        <g id="开发文档" transform="translate(-240.000000, -1559.000000)" fill="#99A5A0">
            <g id="p1" transform="translate(240.000000, 1559.000000)">
                <g id="ico_评论">
                    <path d="M6,0.00720288655 C9.31171189,0.00720288655 11.9927971,2.34116687 11.9927971,5.24306362 C11.9927971,8.14496038 9.31171187,10.4789244 6,10.4789244 C5.58972389,10.4789244 5.24306362,10.4471164 4.86459543,10.3844226 L2.24620408,11.9927971 L2.24620408,9.3435198 C0.890909962,8.3657719 0.00720288655,6.8832461 0.00720288655,5.24306362 C0.00720288655,2.34116686 2.68828811,0.00720288655 6,0.00720288655 Z M4.38194478,9.59890516 C4.57143336,9.48222545 4.79672903,9.43801772 5.0162593,9.47443937 C5.35738775,9.53160144 5.65333973,9.55695558 6,9.55695558 C8.83182713,9.55695558 11.0708283,7.60238176 11.0708283,5.24306362 C11.0708283,2.88328451 8.83182713,0.929171672 6,0.929171672 C3.16817287,0.929171672 0.929171672,2.8837455 0.929171672,5.24306362 C0.929171672,6.52460023 1.61511645,7.75174069 2.78555583,8.59534214 C3.02594325,8.76873404 3.16831117,9.04712337 3.16817287,9.3435198 L3.16817287,10.3438559 L4.38194478,9.59890516 Z M8.30492197,5.39933734 C8.30492197,5.02455703 8.62207924,4.70786075 8.99639856,4.70786075 C9.37117887,4.70786075 9.68787516,5.02455702 9.68787516,5.39933734 C9.68787516,5.77365667 9.37071789,6.09081393 8.99639856,6.09081392 C8.6165824,6.08584837 8.30988752,5.7791535 8.30492197,5.39933734 Z M2.31212484,5.39933734 C2.31212484,5.77365667 2.62928211,6.09081393 3.00360144,6.09081392 C3.37838174,6.09081392 3.69507803,5.77365666 3.69507803,5.39933734 C3.69507803,5.02455703 3.37792076,4.70786075 3.00360144,4.70786075 C2.62882113,4.70786075 2.31212484,5.02455702 2.31212484,5.39933734 Z M6,6.09081392 C6.37478031,6.09081392 6.69147659,5.77365666 6.69147659,5.39933734 C6.69147659,5.02455703 6.37431933,4.70786075 6,4.70786075 C5.62521969,4.70786075 5.30852341,5.02455702 5.30852341,5.39933734 C5.30852341,5.77365667 5.62568067,6.09081393 6,6.09081392 Z" id="Shape" fill-rule="nonzero"></path>
                </g>
            </g>
        </g>
    </g>
</svg>