<?xml version="1.0" encoding="UTF-8"?>
<svg width="22px" height="22px" viewBox="0 0 22 22" version="1.1" xmlns="http://www.w3.org/2000/svg" xmlns:xlink="http://www.w3.org/1999/xlink">
    <!-- Generator: Sketch 50 (54983) - http://www.bohemiancoding.com/sketch -->
    <title>a_40</title>
    <desc>Created with Sketch.</desc>
    <defs></defs>
    <g id="开发资源" stroke="none" stroke-width="1" fill="none" fill-rule="evenodd">
        <g id="开发文档" transform="translate(-246.000000, -1695.000000)">
            <g id="Group-12-Copy-3" transform="translate(246.000000, 1695.000000)">
                <g id="分享">
                    <g>
                        <rect id="Rectangle" fill="#D8D8D8" opacity="0" x="0" y="0" width="22" height="22"></rect>
                        <path d="M2.58683921,1 L10.1910935,1 C10.9642702,1.07547479 10.7778747,2.41974983 10.7778747,3.29299876 L10.7778747,7.45078368 C10.7778747,8.35452806 10.950231,9.46214912 10.3441509,9.71879822 C9.94937305,9.88589472 8.88998005,9.76915342 8.37925377,9.76915342 L4.34766625,9.76915342 C3.41559224,9.76915342 2.14305982,9.98871293 2,9.18952714 L2,1.57952959 C2.10422985,1.29607853 2.28755063,1.09071285 2.58683921,1 M3.63317931,2.71350785 L3.63317931,8.13121705 L9.11930507,8.13121705 L9.11930507,2.63793637 L3.65874366,2.63793637 C3.62884768,2.64201661 3.63089747,2.67773322 3.63317931,2.71354652 M12.7937458,1.00003868 L20.3980001,1.00003868 C20.7081757,1.11366662 20.9212378,1.32322857 20.98482,1.68037535 L20.98482,9.08875873 C20.9152045,9.39671057 20.7524396,9.65948969 20.4489741,9.74389847 C19.9530218,9.88177581 19.1287164,9.76917276 18.5351477,9.76917276 L14.6310532,9.76917276 C14.0422802,9.76917276 13.1697081,9.89157999 12.6917398,9.74389847 C12.016953,9.53543876 12.2069646,8.23478942 12.2069646,7.324857 L12.2069646,3.44418039 C12.2069646,2.39377939 11.9734046,1.14681133 12.7937458,1.00001934 M13.8399892,2.71352718 L13.8399892,8.13123639 L19.3263277,8.13123639 L19.3263277,2.63793637 L13.8654956,2.63793637 C13.8358123,2.64201661 13.8378041,2.67773322 13.8399892,2.71354652 M6.13380626,4.30106968 C6.89783622,4.15864799 7.49869522,4.66844607 7.51174812,5.3593411 C7.52884259,6.27064649 6.58648096,6.77114316 5.85315916,6.39255094 C5.01404116,5.95946526 5.06923077,4.49935779 6.13380626,4.30106968 M16.3406935,4.30106968 C18.1405052,3.96900381 18.1059875,6.78363527 16.3406935,6.49328068 C15.2173703,6.30860627 15.1810735,4.51488591 16.3406935,4.30106968 M10.1400808,20 L2.6124229,20 C2.29986871,19.9052456 2.08879842,19.7105349 2.00001934,19.3951768 L2.00001934,11.8102795 C2.07431453,11.5882448 2.24589737,11.3293912 2.51030085,11.2558695 C3.00984998,11.1171026 3.82574348,11.2306725 4.42422395,11.2306725 L8.32820241,11.2306725 C8.90519877,11.2306725 9.74497425,11.1035276 10.2675158,11.2558888 C10.9745965,11.4619507 10.7778747,12.7415606 10.7778747,13.6497914 L10.7778747,17.656356 C10.7778747,18.6365807 10.9916522,19.9124199 10.1400808,19.9999807 M3.63315997,12.9441417 L3.63315997,18.3619863 L9.11930507,18.3619863 L9.11930507,12.8685316 L3.65874366,12.8685316 C3.62884768,12.8729019 3.63089747,12.9084638 3.63317931,12.9441417 M20.9848006,11.9111252 L20.9848006,14.0277648 C20.9253374,14.7417489 20.9762921,15.5648554 20.959391,16.3208602 L15.5241232,16.3208602 L15.5241232,15.0862102 C15.0137063,15.0272304 14.3928715,15.077663 13.8400859,15.0608006 C13.7804873,16.6568323 13.8315773,18.3618896 13.8144829,19.9998646 L12.8192521,19.9998646 C11.9636391,19.8304089 12.2068679,18.5625562 12.2068679,17.5555489 L12.2068679,13.6497914 C12.2068679,13.0625074 12.0864718,12.1819102 12.2323936,11.709395 C12.406529,11.1455483 13.1612962,11.2305952 13.9165856,11.2305952 L17.616552,11.2305952 L17.616552,14.5820394 L19.326289,14.5820394 C19.3431901,13.4732581 19.2922934,12.2973558 19.35166,11.2306145 C20.174457,11.1825412 20.9364952,11.1944145 20.9848006,11.9111059 M6.26141531,14.5064486 C7.07730881,14.4173021 7.75163149,15.1916777 7.43528711,16.0437326 C6.99651617,17.2246046 4.89904024,16.7806898 5.29178761,15.2877084 C5.40027174,14.8749852 5.71402487,14.5663953 6.26141531,14.5064486 M17.3614112,19.9999807 L15.5241232,19.9999807 C15.541121,19.3530207 15.4901276,18.6390559 15.5497262,18.0343101 L17.3614306,18.0343101 L17.3614306,19.9999807 L17.3614112,19.9999807 M20.9848006,18.0343294 L20.9848006,19.3195666 C20.9138315,19.6778157 20.7017943,19.8966017 20.3724164,19.9999033 L19.0710902,19.9999033 C19.0880493,19.3530594 19.0370947,18.6391526 19.0966353,18.0343681 L20.9848006,18.0343681 L20.9848006,18.0343294" id="Shape" fill="#888888" fill-rule="nonzero"></path>
                    </g>
                </g>
            </g>
        </g>
    </g>
</svg>