<?xml version="1.0" encoding="UTF-8"?>
<svg width="22px" height="22px" viewBox="0 0 22 22" version="1.1" xmlns="http://www.w3.org/2000/svg" xmlns:xlink="http://www.w3.org/1999/xlink">
    <!-- Generator: Sketch 50 (54983) - http://www.bohemiancoding.com/sketch -->
    <title>a_43</title>
    <desc>Created with Sketch.</desc>
    <defs></defs>
    <g id="开发资源" stroke="none" stroke-width="1" fill="none" fill-rule="evenodd">
        <g id="开发文档" transform="translate(-364.000000, -1697.000000)">
            <g id="Group-3-Copy-7" transform="translate(364.000000, 1697.000000)">
                <g>
                    <rect id="Rectangle-4" fill="#D8D8D8" opacity="0" x="0" y="0" width="22" height="22"></rect>
                    <path d="M8.64041789,2.6317282 C7.5153371,3.05288033 6.53466648,3.63045471 5.6983752,4.36446522 C4.86208391,5.09847338 4.20329267,5.95580856 3.72197685,6.93649613 C3.24065485,7.91718142 3,8.96704213 3,10.0861061 C3,10.7238527 3.08121838,11.3405314 3.2436675,11.9361633 C3.40611044,12.5317951 3.63773964,13.1003431 3.93856742,13.6418257 C4.23938905,14.1833107 4.60338396,14.6856773 5.03055216,15.1489465 C5.45772035,15.6122157 5.93602354,16.0243391 6.46547405,16.385326 L6.46547405,19.2532325 C6.46547405,19.9321538 6.93717898,20.1961376 7.51718535,19.8439899 L10.5085271,18.0278175 C10.7973166,18.0759483 11.0830935,18.112047 11.36587,18.1361135 C11.6486465,18.1601801 11.9404425,18.1722122 12.2412641,18.1722122 C13.5167557,18.1722122 14.7170234,17.9616385 15.8421104,17.540484 C16.9671912,17.1193319 17.9478618,16.5417575 18.7841531,15.807747 C19.6204382,15.0737388 20.2792356,14.2164036 20.7605514,13.2357161 C21.2418734,12.2550308 21.4825283,11.2051701 21.4825283,10.0861061 C21.4825283,8.96704213 21.2418734,7.91718142 20.7605514,6.93649613 C20.2792356,5.95580856 19.6204382,5.09847338 18.7841531,4.36446522 C17.9478618,3.63045471 16.9671912,3.05288033 15.8421104,2.6317282 C14.7170234,2.21057372 13.5167557,2 12.2412641,2 C10.9657725,2 9.76550483,2.21057372 8.64041789,2.6317282 Z M15.1291592,12.9740012 L9.35336909,12.9740012 C9.19693912,12.9740012 9.06157309,12.9168463 8.94725865,12.8025318 C8.83294421,12.6882197 8.77579008,12.5528514 8.77579008,12.3964221 C8.77579008,12.239993 8.83294421,12.1046246 8.94725865,11.9903125 C9.06157309,11.875998 9.19693912,11.8188431 9.35336909,11.8188431 L15.1291592,11.8188431 C15.2855891,11.8188431 15.4209552,11.875998 15.5352696,11.9903125 C15.649584,12.1046246 15.7067382,12.239993 15.7067382,12.3964221 C15.7067382,12.5528514 15.649584,12.6882197 15.5352696,12.8025318 C15.4209552,12.9168463 15.2855891,12.9740012 15.1291592,12.9740012 Z M16.2843172,9.5085271 L8.19821107,9.5085271 C8.04178111,9.5085271 7.90641507,9.45137223 7.79210063,9.3370578 C7.6777862,9.22274563 7.62063206,9.08737732 7.62063206,8.9309481 C7.62063206,8.77451887 7.6777862,8.63915056 7.79210063,8.5248384 C7.90641507,8.41052396 8.04178111,8.35336909 8.19821107,8.35336909 L16.2843172,8.35336909 C16.4407471,8.35336909 16.5761132,8.41052396 16.6904276,8.5248384 C16.8047421,8.63915056 16.8618962,8.77451887 16.8618962,8.9309481 C16.8618962,9.08737732 16.8047421,9.22274563 16.6904276,9.3370578 C16.5761132,9.45137223 16.4407471,9.5085271 16.2843172,9.5085271 Z" id="Shape" fill="#ACB8B3" fill-rule="nonzero"></path>
                </g>
            </g>
        </g>
    </g>
</svg>