<?xml version="1.0" encoding="UTF-8"?>
<svg width="24px" height="24px" viewBox="0 0 24 24" version="1.1" xmlns="http://www.w3.org/2000/svg" xmlns:xlink="http://www.w3.org/1999/xlink">
    <!-- Generator: Sketch 50 (54983) - http://www.bohemiancoding.com/sketch -->
    <title>a_47</title>
    <desc>Created with Sketch.</desc>
    <defs></defs>
    <g id="开发资源" stroke="none" stroke-width="1" fill="none" fill-rule="evenodd">
        <g id="开发文档" transform="translate(-586.000000, -1698.000000)">
            <g id="ic/person/grey600" transform="translate(586.000000, 1698.000000)">
                <g id="ic_person_24px">
                    <path d="M12,12 C14.21,12 16,10.21 16,8 C16,5.79 14.21,4 12,4 C9.79,4 8,5.79 8,8 C8,10.21 9.79,12 12,12 Z M12,14 C9.33,14 4,15.34 4,18 L4,20 L20,20 L20,18 C20,15.34 14.67,14 12,14 Z" id="Shape" fill="#99A5A0" fill-rule="nonzero"></path>
                    <polygon id="Shape" points="0 0 24 0 24 24 0 24"></polygon>
                </g>
            </g>
        </g>
    </g>
</svg>