<?xml version="1.0" encoding="UTF-8"?>
<svg width="24px" height="24px" viewBox="0 0 24 24" version="1.1" xmlns="http://www.w3.org/2000/svg" xmlns:xlink="http://www.w3.org/1999/xlink">
    <!-- Generator: Sketch 50 (54983) - http://www.bohemiancoding.com/sketch -->
    <title>a_49</title>
    <desc>Created with Sketch.</desc>
    <defs></defs>
    <g id="开发资源" stroke="none" stroke-width="1" fill="none" fill-rule="evenodd">
        <g id="开发文档" transform="translate(-658.000000, -1699.000000)">
            <g id="分组" transform="translate(658.000000, 1699.000000)">
                <g id="Group">
                    <rect id="Rectangle" fill="#D8D8D8" opacity="0" x="0" y="0" width="24" height="24"></rect>
                    <path d="M16.8823604,8.1501676 C17.1147775,8.1501676 17.3468954,8.16951076 17.5793125,8.18880407 C16.94034,5.20716483 13.8232487,3 10.2606665,3 C6.2721357,3 3,5.76886442 3,9.29281024 C3,11.3065434 4.08426418,12.9715014 5.90421673,14.2688395 L5.18782167,16.4953973 L7.70492582,15.1980592 C8.61475254,15.3721477 9.35044091,15.5662773 10.2606665,15.5662773 C10.4734413,15.5662773 10.7059082,15.5662773 10.9383253,15.5468843 C10.7832809,15.0432641 10.7059082,14.5203505 10.7059082,13.9974369 C10.7059581,10.7642867 13.4360863,8.1501676 16.8823604,8.1501676 Z M12.9711524,6.13703266 C13.5134091,6.13703266 13.8813281,6.5045528 13.8813281,7.06625239 C13.8813281,7.62785228 13.5134091,7.99542227 12.9711524,7.99542227 C12.4291948,7.99542227 11.8868882,7.62780243 11.8868882,7.06625239 C11.8869381,6.5045528 12.4291948,6.13703266 12.9711524,6.13703266 Z M7.89835747,7.99542227 C7.35639987,7.99542227 6.8140933,7.62780243 6.8140933,7.06625239 C6.8140933,6.5045528 7.35639987,6.13703266 7.89835747,6.13703266 C8.44066405,6.13703266 8.80853316,6.5045528 8.80853316,7.06625239 C8.80858302,7.62785228 8.44066405,7.99542227 7.89835747,7.99542227 Z M23.4846114,13.9006214 C23.4846114,10.9576685 20.5996381,8.537679 17.3275024,8.537679 C13.8813281,8.537679 11.1704932,10.9576685 11.1704932,13.9006214 C11.1704932,16.8629175 13.8813281,19.2643116 17.3275024,19.2643116 C18.0633404,19.2643116 18.7796357,19.0700823 19.5154238,18.8960437 L21.4904706,20 L20.9481641,18.1603055 C22.4002974,17.0377538 23.4846114,15.5662773 23.4846114,13.9006214 Z M15.3334115,12.9715014 C14.9655424,12.9715014 14.6170663,12.6232746 14.6170663,12.2357133 C14.6170663,11.8674952 14.9655424,11.4999751 15.3334115,11.4999751 C15.8753691,11.4999751 16.2432382,11.8674952 16.2432382,12.2357133 C16.2432382,12.6232247 15.8753691,12.9715014 15.3334115,12.9715014 Z M19.3219423,12.9715014 C18.9540732,12.9715014 18.6055971,12.6232746 18.6055971,12.2357133 C18.6055971,11.8674952 18.9540732,11.4999751 19.3219423,11.4999751 C19.8639497,11.4999751 20.231769,11.8674952 20.231769,12.2357133 C20.231769,12.6232247 19.8639497,12.9715014 19.3219423,12.9715014 Z" id="Shape" fill="#99A5A0" fill-rule="nonzero"></path>
                </g>
            </g>
        </g>
    </g>
</svg>