<?xml version="1.0" encoding="UTF-8"?>
<svg width="24px" height="24px" viewBox="0 0 24 24" version="1.1" xmlns="http://www.w3.org/2000/svg" xmlns:xlink="http://www.w3.org/1999/xlink">
    <!-- Generator: Sketch 50 (54983) - http://www.bohemiancoding.com/sketch -->
    <title>a_50</title>
    <desc>Created with Sketch.</desc>
    <defs></defs>
    <g id="开发资源" stroke="none" stroke-width="1" fill="none" fill-rule="evenodd">
        <g id="开发文档" transform="translate(-694.000000, -1700.000000)">
            <g id="Group-3" transform="translate(694.000000, 1700.000000)">
                <g>
                    <rect id="Rectangle" fill="#D8D8D8" opacity="0" x="0" y="0" width="24" height="24"></rect>
                    <path d="M7.32526842,16.7517775 C7.67971341,16.9465932 8.23155502,16.5009131 8.75104922,15.6902062 C8.95717791,16.5781253 9.46518706,17.3747662 10.1916702,18.0187893 C9.43094698,18.3152929 8.93261625,18.7996007 8.93261625,19.3470978 C8.93261625,20.2490828 10.2785179,20.9772436 11.9384733,20.9772436 C13.4361324,20.9772436 14.6767759,20.3859141 14.9057026,19.6068234 C14.966311,19.6068234 15.2041419,19.6068234 15.2619543,19.6068234 C15.4953976,20.3859141 16.7333311,20.9772436 18.2327109,20.9772436 C19.8945159,20.9772436 21.2386109,20.2490398 21.2386109,19.3470978 C21.2386109,18.7996007 20.7411835,18.3188632 19.9786966,18.0187893 C20.7025559,17.3747662 21.2140923,16.5781253 21.4184573,15.6902062 C21.9378225,16.5009131 22.4871262,16.9465932 22.8433348,16.7517775 C23.3583124,16.4711036 23.2556782,14.9602818 22.6134187,13.375732 C22.1116038,12.1350885 21.43162,11.2191665 20.9131151,11.0138981 C20.9201266,10.9384495 20.9262778,10.8550431 20.9262778,10.7752069 C20.9262778,10.2943833 20.7981786,9.8504668 20.5797476,9.48896732 C20.5841781,9.46006112 20.5841781,9.43283252 20.5841781,9.40388331 C20.5841781,9.18188203 20.5341515,8.97571032 20.4481642,8.7975845 C20.3174411,5.5680056 18.3196876,3 15.0848178,3 C11.8508083,3 9.8503879,5.56804862 9.7196648,8.7975845 C9.6354411,8.97833425 9.58369385,9.18545228 9.58369385,9.40655025 C9.58369385,9.43549946 9.58369385,9.46268505 9.58722109,9.49167727 C9.37317761,9.85050982 9.24503542,10.2944264 9.24503542,10.7769705 C9.24503542,10.85771 9.24937995,10.9384065 9.25471383,11.0173823 C8.73784356,11.2209301 8.05527885,12.1351315 7.55428118,13.375732 C6.91812984,14.9602818 6.81291474,16.4711036 7.32526842,16.7517775 Z" id="Shape" fill="#99A5A0" fill-rule="nonzero"></path>
                </g>
            </g>
        </g>
    </g>
</svg>