<?xml version="1.0" encoding="UTF-8"?>
<svg width="16px" height="16px" viewBox="0 0 16 16" version="1.1" xmlns="http://www.w3.org/2000/svg" xmlns:xlink="http://www.w3.org/1999/xlink">
    <!-- Generator: Sketch 50 (54983) - http://www.bohemiancoding.com/sketch -->
    <title>a_9</title>
    <desc>Created with Sketch.</desc>
    <defs></defs>
    <g id="开发资源" stroke="none" stroke-width="1" fill="none" fill-rule="evenodd">
        <g id="开发文档" transform="translate(-420.000000, -1556.000000)">
            <g id="Group" transform="translate(420.000000, 1556.000000)">
                <rect id="Rectangle-5" fill="#000000" opacity="0" x="0" y="0" width="16" height="16"></rect>
                <path d="M11.6201739,12.2578087 C11.6201739,12.6496 11.7270261,12.9968696 11.9407304,13.2996174 C12.1544348,13.6023652 12.4304696,13.8249739 12.7688348,13.9674435 C12.7154087,13.9763478 12.6619826,13.9830261 12.6085565,13.9874783 C12.5551304,13.9919304 12.5017043,13.9941565 12.4482783,13.9941565 L2.04354783,13.9941565 C1.7586087,13.9941565 1.49370435,13.9407304 1.24883478,13.8338783 C1.00396522,13.7270261 0.788034783,13.5801043 0.601043478,13.393113 C0.414052174,13.2061217 0.267130435,12.9879652 0.160278261,12.7386435 C0.053426087,12.4893217 4.63397436e-17,12.2221913 0,11.9372522 L0.0133565217,2 L11.6201739,2 L11.6201739,12.2578087 Z M9.89718261,4.37746087 L4.04702609,4.37746087 L3.57954783,4.37746087 L3.09871304,4.37746087 C2.82267826,4.35965217 2.61342609,4.24834783 2.47095652,4.04354783 C2.3730087,4.1504 2.2861913,4.27283478 2.21050435,4.41085217 C2.13481739,4.54886957 2.08361739,4.69356522 2.05690435,4.84493913 C2.00347826,5.1565913 2.048,5.41926957 2.19046957,5.63297391 C2.33293913,5.84667826 2.53328696,5.96243478 2.79151304,5.98024348 L5.08883478,5.98024348 L4.00695652,11.9906783 L5.6498087,11.9906783 L6.73168696,5.98024348 L9.54991304,5.98024348 L9.89718261,4.37746087 Z" id="Shape" fill="#ACB8B3" fill-rule="nonzero"></path>
            </g>
        </g>
    </g>
</svg>