<?xml version="1.0" encoding="UTF-8"?>
<svg width="23px" height="22px" viewBox="0 0 23 22" version="1.1" xmlns="http://www.w3.org/2000/svg" xmlns:xlink="http://www.w3.org/1999/xlink">
    <!-- Generator: Sketch 50 (54983) - http://www.bohemiancoding.com/sketch -->
    <title>b_10</title>
    <desc>Created with Sketch.</desc>
    <defs></defs>
    <g id="开发资源" stroke="none" stroke-width="1" fill="none" fill-rule="evenodd">
        <g id="开发文档" transform="translate(-498.000000, -1500.000000)">
            <g id="Group-10" transform="translate(498.000000, 1500.000000)">
                <rect id="Rectangle-2" fill-opacity="0" fill="#000000" x="1" y="0" width="22" height="22"></rect>
                <g id="搜索" transform="translate(11.578947, 11.000000) scale(-1, 1) translate(-11.578947, -11.000000) translate(0.578947, 0.000000)">
                    <circle id="Oval" fill-opacity="0.097486413" fill="#EB3C3C" cx="10.5" cy="10.5" r="9.5"></circle>
                    <path d="M18.9087158,18.0029474 C19.9313123,16.8252111 20.6888007,15.4414221 21.1298526,13.9453474 C21.4208842,12.9516632 21.5684211,11.9175579 21.5684211,10.8713263 C21.5684211,4.88631579 16.7327158,0.0176 10.7894737,0.0176 C4.84623158,0.0176 0.0105263158,4.88631579 0.0105263158,10.8713263 C0.0105263158,16.8556632 4.84623158,21.7250526 10.7894737,21.7250526 C11.8502636,21.725877 12.9052996,21.5692222 13.9200842,21.2602105 C14.2717147,21.1601914 14.5419061,20.8780541 14.6266285,20.522428 C14.7113509,20.1668019 14.5973919,19.7931467 14.3286284,19.5453283 C14.0598649,19.2975099 13.6782103,19.2141754 13.3306105,19.3274105 C12.5100632,19.5773474 11.6551579,19.7046737 10.7894737,19.7046737 C5.96050526,19.7046737 2.03157895,15.7420632 2.03157895,10.872 C2.03157895,6.00126316 5.96050526,2.03865263 10.7894737,2.03865263 C15.6184421,2.03865263 19.5473684,6.00126316 19.5473684,10.8713263 C19.5512087,13.2589578 18.5900925,15.5468322 16.8822737,17.2154105 C16.8634105,17.2342737 16.8566737,17.2592 16.8391579,17.2787368 C16.8115368,17.3016421 16.7778526,17.3124211 16.7529263,17.3393684 C16.5674116,17.5328428 16.4665497,17.7922102 16.4726171,18.0601864 C16.4786845,18.3281625 16.591182,18.5826992 16.7852632,18.7675789 L19.8599579,21.7061895 C20.0553263,21.8934737 20.3066105,21.9864421 20.5578947,21.9864421 C20.8246737,21.9864421 21.0901053,21.8820211 21.2881684,21.6738526 C21.4736831,21.4803783 21.574545,21.2210108 21.5684777,20.9530347 C21.5624103,20.6850585 21.4499128,20.4305218 21.2558316,20.2456421 L18.9087158,18.0029474 Z" id="Shape" fill="#333333" fill-rule="nonzero"></path>
                    <path d="M17.2285474,12.8627368 C17.5942632,12.9303372 17.9455745,12.6887919 18.0133895,12.3231158 C18.1521684,11.5733053 18.2202105,10.8854737 18.1023158,9.96926316 C18.0805174,9.79153683 17.9884492,9.62994344 17.8466741,9.52057411 C17.7048991,9.41120478 17.5252279,9.36317068 17.3477895,9.3872 C17.1705294,9.4100319 17.0096064,9.50236489 16.9004409,9.64387574 C16.7912754,9.78538659 16.742815,9.96447649 16.7657263,10.1417263 C16.8620632,10.8861474 16.8074947,11.4345263 16.6889263,12.0785684 C16.6562883,12.2541379 16.6948378,12.435479 16.7960714,12.5825899 C16.897305,12.7297009 17.0529048,12.8304945 17.2285474,12.8627368 Z M17.0298105,8.35309474 C17.1879605,8.26985877 17.3065562,8.12719331 17.3594958,7.9564976 C17.4124355,7.78580189 17.3953804,7.6010656 17.3120842,7.44294737 C16.0404963,5.01835442 13.5272781,3.50087108 10.7894737,3.50458947 C9.15444211,3.50458947 7.60564211,4.02938947 6.31149474,5.02105263 C6.01607472,5.24726847 5.95997364,5.67013788 6.18618947,5.96555789 C6.41240531,6.26097791 6.83527472,6.31707899 7.13069474,6.09086316 C8.17898038,5.28325793 9.46617924,4.84739737 10.7894737,4.85195789 C13.0270408,4.84908393 15.0809012,6.08965503 16.1196632,8.07149474 C16.2932365,8.40058088 16.7007179,8.52665578 17.0298105,8.35309474 Z" id="Shape" fill="#EB3C3C" fill-rule="nonzero"></path>
                </g>
            </g>
        </g>
    </g>
</svg>