<?xml version="1.0" encoding="UTF-8"?>
<svg width="22px" height="22px" viewBox="0 0 22 22" version="1.1" xmlns="http://www.w3.org/2000/svg" xmlns:xlink="http://www.w3.org/1999/xlink">
    <!-- Generator: Sketch 50 (54983) - http://www.bohemiancoding.com/sketch -->
    <title>b_11</title>
    <desc>Created with Sketch.</desc>
    <defs></defs>
    <g id="开发资源" stroke="none" stroke-width="1" fill="none" fill-rule="evenodd">
        <g id="开发文档" transform="translate(-541.000000, -1502.000000)">
            <g id="Group-26" transform="translate(541.000000, 1502.000000)">
                <rect id="Rectangle-2" fill-opacity="0" fill="#000000" x="0" y="0" width="22" height="22"></rect>
                <g id="标签" fill-rule="nonzero">
                    <path d="M8.84522021,22 C8.17013186,22.0005309 7.5224996,21.7327818 7.04487465,21.2556875 L0.746846031,14.9576589 C0.269017671,14.4803618 0.000531785394,13.8326891 0.000531785394,13.1573134 C0.000531785394,12.4819376 0.269017671,11.8342649 0.746846031,11.3569678 L11.3453467,0.758467123 C11.8892709,0.206570744 12.6550273,-0.067415514 13.4256047,0.0141546582 L19.0874687,0.650319162 C20.2686011,0.782586841 21.2008618,1.71484755 21.3331295,2.89597988 L21.969294,8.56420563 C22.0558026,9.33175521 21.7890024,10.0970506 21.2440664,10.6444636 L10.6455658,21.2556875 C10.1679408,21.7327818 9.52030855,22.0005309 8.84522021,22 Z M12.9514294,2.14324189 C12.6442333,2.14453708 12.3500912,2.2676178 12.1335187,2.4854882 L2.47521173,12.149596 C2.02539149,12.6021007 2.02539149,13.3329127 2.47521173,13.7854174 L8.21798888,19.5281945 C8.67049356,19.9780148 9.40130556,19.9780148 9.85381024,19.5281945 L19.5353204,9.86408671 C19.7850423,9.61623329 19.9087947,9.26844618 19.8717659,8.91855877 L19.2916874,3.75005933 C19.2313779,3.2055955 18.798454,2.77750871 18.2533469,2.72332038 L13.0848475,2.14324189 L12.9514294,2.14324189 Z" id="Shape" fill="#333333"></path>
                    <path d="M4.18213437,12.4193625 L10.677374,5.93048457 C10.9343702,5.70791038 11.2888769,5.63556207 11.6125358,5.73963521 L14.405298,6.37579972 C14.9925389,6.53617262 15.4503771,6.99643332 15.6076489,7.58451229 L16.2883449,10.3772745 C16.3856467,10.705344 16.3035226,11.06041 16.072049,11.3124363 L9.58317104,17.8267608 C9.04153012,18.2043701 8.30104149,18.1049014 7.87825014,17.5977416 L4.41115359,14.1242834 C3.90399376,13.7014921 3.80452514,12.9610035 4.18213437,12.4193625 Z" id="Shape" fill="#FFC824"></path>
                    <path d="M14.6343172,10.5426772 C13.6170756,10.5398947 12.6625241,10.0507446 12.0661558,9.2266492 C11.4697876,8.40255383 11.3035476,7.3429309 11.6188974,6.37579972 C11.7295708,6.04202297 12.0898688,5.86116194 12.4236455,5.97183528 C12.7574223,6.08250863 12.9382833,6.44280661 12.82761,6.77658337 C12.5920826,7.49316485 12.8007031,8.28123929 13.3599259,8.78743305 C13.9191486,9.29362681 14.724044,9.42296043 15.413696,9.11744055 C16.1033479,8.81192067 16.5483538,8.12887338 16.5491724,7.374578 C16.559035,6.41874424 15.8602516,5.60304373 14.9142296,5.46608449 C14.5628857,5.4151396 14.3193641,5.08902007 14.370309,4.73767612 C14.4212538,4.38633217 14.7473734,4.1428106 15.0987173,4.19375546 C16.2879551,4.36872732 17.2769784,5.19915045 17.6550781,6.34017734 C18.0331778,7.48120424 17.7357627,8.73791175 16.8863396,9.58843048 C16.2928478,10.1939454 15.4821695,10.5374531 14.6343172,10.5426772 Z" id="Shape" fill="#333333"></path>
                </g>
            </g>
        </g>
    </g>
</svg>