<?xml version="1.0" encoding="UTF-8"?>
<svg width="22px" height="22px" viewBox="0 0 22 22" version="1.1" xmlns="http://www.w3.org/2000/svg" xmlns:xlink="http://www.w3.org/1999/xlink">
    <!-- Generator: Sketch 50 (54983) - http://www.bohemiancoding.com/sketch -->
    <title>b_2</title>
    <desc>Created with Sketch.</desc>
    <defs></defs>
    <g id="开发资源" stroke="none" stroke-width="1" fill="none" fill-rule="evenodd">
        <g id="开发文档" transform="translate(-162.000000, -1501.000000)" fill-rule="nonzero">
            <g id="标签" transform="translate(162.000000, 1501.000000)">
                <path d="M21.0890145,0.888236938 C21.085947,0.888236938 21.085947,0.888236938 21.0890145,0.888236938 C20.5153933,0.313495381 19.7577225,0 18.9479044,0 L12.9816304,0 C11.9356153,0 10.7116856,0.150600721 9.58284819,1.28164291 C9.46628347,1.39843531 9.14112919,1.72422465 8.75769256,2.10841018 L7.06443642,3.80497346 C7.06136893,3.80804695 7.05830145,3.81112041 7.05830145,3.81112041 C6.75768712,4.11232188 6.75768712,4.59793237 7.05830145,4.89606034 C7.35891577,5.1972618 7.84051218,5.1972618 8.14112648,4.89606034 C8.14112648,4.89606034 8.14419398,4.89298685 8.14726146,4.88991338 C8.27609616,4.76082705 10.3374515,2.69851914 10.6687407,2.36658284 C11.3619942,1.67504889 12.0675175,1.53366862 12.9846979,1.53366862 L18.9509719,1.53366862 C19.349746,1.53366862 19.7239801,1.69041632 20.0061895,1.97010337 C20.0061895,1.97010337 20.0061895,1.97010337 20.0061895,1.97010337 C20.2883988,2.25286392 20.4417735,2.62782899 20.4417735,3.02430846 L20.4540434,3.02430846 C20.4479085,3.09192512 20.4417735,3.16261524 20.4417735,3.23945235 L20.4417735,8.84856105 C20.4417735,9.6968427 20.3405462,10.5789327 19.6135504,11.3104219 C19.4295008,11.494831 17.0798011,13.8460464 17.0798011,13.8460464 L17.0828686,13.8491199 C16.7822543,14.1503213 16.7822543,14.6359318 17.0828686,14.9340598 C17.3834829,15.2352613 17.8681468,15.2352613 18.1656937,14.9340598 L19.8681523,13.2282761 C20.2853313,12.8102822 20.631958,12.4629785 20.6994429,12.3984353 C21.8313478,11.2643197 21.97552,9.90583965 21.9785875,8.85163456 L21.981655,3.02738197 C21.9724525,2.22212908 21.6595682,1.459905 21.0890145,0.888236938 Z" id="Shape" fill="#242424"></path>
                <path d="M17.1687611,4.80497346 C16.2730532,3.90751607 14.815994,3.90751607 13.920286,4.80497346 C13.0245781,5.70243084 13.0245781,7.16233585 13.920286,8.05979323 C14.815994,8.95725062 16.2730532,8.95725062 17.1687611,8.05979323 C18.0644691,7.16233585 18.0644691,5.70243084 17.1687611,4.80497346 Z M16.0859361,6.97485331 C15.7883893,7.27298128 15.3006579,7.27298128 15.0031111,6.97485331 C14.7055642,6.67672533 14.7055642,6.18804135 15.0031111,5.88991338 C15.3006579,5.59178541 15.7883893,5.59178541 16.0859361,5.88991338 C16.3834829,6.18804135 16.3834829,6.67672533 16.0859361,6.97485331 Z" id="Shape" fill="#EB3C3C"></path>
                <path d="M15.1043356,15.8284437 C15.1043356,15.8284437 10.9509501,19.9837944 10.9080052,20.0268231 C10.6257958,20.3095837 10.2515617,20.4632579 9.85278755,20.4663314 C9.45401345,20.4663314 9.07977932,20.3095837 8.79756994,20.0268231 C8.79756994,20.0268231 8.79756994,20.0268231 8.79756994,20.0268231 L1.96933051,13.1944677 C1.68712116,12.9240011 1.53067901,12.5367421 1.53067901,12.1371892 C1.53067901,11.7376362 1.68712116,11.3657446 1.96933051,11.0829841 C2.00920792,11.0430288 6.16872845,6.87845765 6.16872845,6.87845765 L6.16566095,6.87538416 C6.46627527,6.5741827 6.46627527,6.08857221 6.16566095,5.79044424 C5.86504662,5.48924277 5.38038274,5.48924277 5.08283591,5.79044424 L3.3803773,7.49622796 C2.22699992,8.65185804 0.904910433,9.97345624 0.883437982,9.99497063 C0.315951778,10.5697122 0,11.3288628 0,12.1371892 C0,12.9455155 0.312884279,13.7046661 0.886505481,14.2794077 C0.886505481,14.2794077 0.886505481,14.2794077 0.886505481,14.2794077 L7.71167743,21.1117631 C7.71167743,21.1117631 7.71167743,21.1117631 7.71167743,21.1117631 C8.28223114,21.6834311 9.04296939,22 9.84972007,22 C10.6564707,22 11.417209,21.6865046 11.9877627,21.1117631 C12.0123027,21.0871752 13.3282572,19.7686505 14.4816345,18.6160939 L16.1840931,16.9103102 C16.4847075,16.6091087 16.4847075,16.1234982 16.1840931,15.8253702 C15.8865463,15.5303157 15.4018824,15.5303157 15.1043356,15.8284437 Z" id="Shape" fill="#242424"></path>
            </g>
        </g>
    </g>
</svg>