<?xml version="1.0" encoding="UTF-8"?>
<svg width="22px" height="22px" viewBox="0 0 22 22" version="1.1" xmlns="http://www.w3.org/2000/svg" xmlns:xlink="http://www.w3.org/1999/xlink">
    <!-- Generator: Sketch 50 (54983) - http://www.bohemiancoding.com/sketch -->
    <title>b_5</title>
    <desc>Created with Sketch.</desc>
    <defs>
        <linearGradient x1="50%" y1="0%" x2="50%" y2="100%" id="linearGradient-1">
            <stop stop-color="#49D9A5" offset="0%"></stop>
            <stop stop-color="#23B16C" offset="100%"></stop>
        </linearGradient>
    </defs>
    <g id="开发资源" stroke="none" stroke-width="1" fill="none" fill-rule="evenodd">
        <g id="开发文档" transform="translate(-288.000000, -1501.000000)">
            <g id="动画" transform="translate(299.000000, 1512.000000) scale(-1, 1) translate(-299.000000, -1512.000000) translate(288.000000, 1501.000000)">
                <path d="M8.84742897,11.6763245 L11.3132497,9.29903723 C11.843131,8.78818085 12.7132083,8.78818085 13.24312,9.29903723 L16.9674014,12.8896011 L12.5717103,17.1274681 L8.84742897,13.534008 C8.31754759,13.0231516 8.31754759,12.1871809 8.84742897,11.6762952 L8.84742897,11.6763245 Z M17.8225186,13.7139574 L13.4268276,17.9518245 L17.2053048,21.5946383 C17.7351862,22.1054947 18.6052634,22.1054947 19.1351752,21.5946383 L21.6009959,19.2173511 C22.1308772,18.7064947 22.1308772,17.8676569 21.6009959,17.3567713 L17.8225186,13.7139574 Z M9.35628138,12.7851596 L12.4633793,15.783625 L15.5735117,12.7851596 L12.4633793,9.78669415 L9.35628138,12.7851596 Z" id="Shape" fill="#454545" fill-rule="nonzero"></path>
                <polygon id="Path" fill="url(#linearGradient-1)" points="5.44829241 0.0279680851 6.76097931 4.82897074 10.9429214 6.28319415 6.77906483 7.78384574 5.52661241 12.5964335 4.21392552 7.79835638 0.0289793103 6.34413298 4.19584 4.84348138"></polygon>
                <polygon id="Path" fill="#F5A623" points="14.1764966 1.4212234 15.80832 4.60253457 18.9575669 5.04086702 16.2629766 6.66924734 16.100389 10.2162793 14.4685655 7.03496809 11.3193186 6.59663564 14.013909 4.96825532"></polygon>
                <polygon id="Path" fill="#E91E63" points="5.93001655 12.851891 6.66463448 14.8663245 8.51327172 15.3510559 6.77909517 16.1318803 6.41183172 18.242125 5.68018759 16.224766 3.83155034 15.7400346 5.5657269 14.9563138"></polygon>
            </g>
        </g>
    </g>
</svg>