<?xml version="1.0" encoding="UTF-8"?>
<svg width="24px" height="24px" viewBox="0 0 24 24" version="1.1" xmlns="http://www.w3.org/2000/svg" xmlns:xlink="http://www.w3.org/1999/xlink">
    <!-- Generator: Sketch 50 (54983) - http://www.bohemiancoding.com/sketch -->
    <title>c_5</title>
    <desc>Created with Sketch.</desc>
    <defs></defs>
    <g id="开发资源" stroke="none" stroke-width="1" fill="none" fill-rule="evenodd">
        <g id="开发文档" transform="translate(-296.000000, -1747.000000)">
            <g id="Group-20" transform="translate(296.000000, 1747.000000)">
                <g>
                    <rect id="Rectangle" fill-opacity="0" fill="#000000" x="0" y="0" width="24" height="24" rx="5"></rect>
                    <path d="M18.1646277,5.01793206 C18.1135091,4.99102229 18.0516959,4.99461331 18.0040373,5.0272615 C17.9878461,5.03835811 16.3728193,6.13705009 15.3056659,6.13714561 C15.2431301,6.13714561 15.1831893,6.13322917 15.1274833,6.12549178 C14.6967692,6.06566241 14.3569295,5.9187318 13.9971095,5.76318819 C13.4826056,5.54074649 12.9505732,5.31074253 12.115366,5.31074253 C12.0528302,5.31074253 11.9885271,5.31206393 11.9242082,5.31470674 C10.6137253,5.36819974 9.47773153,5.70998176 9.14306599,5.81969017 L8.95641365,5.61839093 C8.91212756,5.57062937 8.84278662,5.555492 8.7826251,5.58045229 L8.09605207,5.86520697 C8.02445616,5.89489747 7.9856132,5.97273948 8.00493884,6.04779958 L11.3065233,18.873159 C11.3242169,18.9419413 11.3862373,18.9900156 11.4572589,18.9899998 C11.497992,18.9899987 11.5371027,18.9740355 11.5662031,18.9455337 L12.3600487,18.1678634 C12.3981288,18.1305733 12.4144745,18.0763879 12.4033685,18.0242602 C12.3963634,17.9913047 11.7017505,14.7210041 11.659386,13.9851251 C11.6369062,13.5946263 11.7915901,13.1931741 12.0837638,12.883663 C12.3994043,12.5493159 13.0330097,12.1507771 14.25905,12.1507294 C14.9512271,12.1507134 15.5892902,12.0606828 16.1554881,11.883137 C16.6119458,11.7400114 17.0231095,11.5400177 17.3775642,11.2886802 C17.9888331,10.8552596 18.2205884,10.4186708 18.2301566,10.4002985 C18.2417261,10.3780989 18.2477665,10.3534348 18.2477647,10.3284013 L18.2477647,5.15564469 C18.2477403,5.09787352 18.2157378,5.0448628 18.1646277,5.01793206 Z" id="Shape" fill="#99A5A0" fill-rule="nonzero"></path>
                </g>
            </g>
        </g>
    </g>
</svg>