<?xml version="1.0" encoding="UTF-8"?>
<svg width="14px" height="14px" viewBox="0 0 14 14" version="1.1" xmlns="http://www.w3.org/2000/svg" xmlns:xlink="http://www.w3.org/1999/xlink">
    <!-- Generator: Sketch 50 (54983) - http://www.bohemiancoding.com/sketch -->
    <title>c_6</title>
    <desc>Created with Sketch.</desc>
    <defs></defs>
    <g id="开发资源" stroke="none" stroke-width="1" fill="none" fill-rule="evenodd">
        <g id="开发文档" transform="translate(-340.000000, -1751.000000)">
            <g id="z-s" transform="translate(340.000000, 1751.000000)">
                <g id="Group-23">
                    <path d="M12.1822183,7.54087532 C12.4782404,7.08545673 12.5807096,6.65280907 12.4896258,6.26570327 C12.3871567,5.867212 12.0911346,5.57118992 11.8634253,5.43456434 C11.6698724,5.3207097 11.4421631,5.26378237 11.2144538,5.26378237 L9.42693582,5.26378237 C9.15368467,5.26378237 8.90320444,5.1271568 8.7551934,4.91083297 C8.60718236,4.68312367 8.57302597,4.40987252 8.68688061,4.15939229 C8.90320444,3.66981731 8.99428816,2.94114757 9.00567363,2.67928188 C9.00567363,1.83675749 8.80073526,1.24471332 8.41362946,0.971462168 C7.99236726,0.66405462 7.45725042,0.800680197 7.29785392,0.857607521 C6.92213358,0.971462168 6.83104986,1.32441157 6.71719521,2.03031039 C6.69442428,2.18970689 6.66026789,2.3491034 6.6261115,2.50849991 C6.40978767,3.53319173 5.90882722,4.48957077 5.19154294,5.24101144 C4.80443714,5.63950271 4.39456041,5.98106665 3.96191275,6.23154688 C3.81390171,6.31124513 3.66589067,6.39094338 3.50649416,6.44787071 L3.50649416,12.2999996 C4.0757674,12.3227705 4.54257145,12.4707815 5.06630283,12.6415635 C5.87467082,12.9034292 6.87659172,13.2222222 8.7551934,13.2222222 L8.77796433,13.2222222 C9.7229579,13.2222222 10.4174713,13.0058984 10.7931916,12.6074071 C11.146141,12.2316868 11.1347555,11.7990391 11.1347555,11.7648827 C11.1119846,11.5941008 11.2030683,11.4347043 11.3510794,11.3436205 C11.6471014,11.1728386 11.8178834,10.9565147 11.8748107,10.7288054 C11.9658945,10.3644706 11.7495706,10.0001357 11.7381852,9.97736477 C11.6015596,9.77242641 11.6584869,9.51056072 11.8634253,9.36254968 C12.1708328,9.15761131 12.3416148,8.94128748 12.3757712,8.70219272 C12.4326985,8.38339971 12.2163747,8.09876309 12.2049892,8.07599216 C12.0797491,7.90521019 12.0797491,7.70027183 12.1822183,7.54087532 Z M0.808139017,6.70973639 L0.808139017,12.1747595 C0.808139017,12.2430723 0.739826229,12.482167 0.808139017,12.482167 L2.2654785,12.482167 L2.2654785,6.63003814 L0.921993664,6.59588175 C0.853680876,6.59588175 0.808139017,6.64142361 0.808139017,6.70973639 Z" id="Shape" fill="#99A5A0" fill-rule="nonzero"></path>
                    <rect id="Rectangle-8" fill="#D8D8D8" opacity="0" x="0" y="0" width="14" height="14"></rect>
                </g>
            </g>
        </g>
    </g>
</svg>