<?xml version="1.0" encoding="UTF-8"?>
<svg width="24px" height="24px" viewBox="0 0 24 24" version="1.1" xmlns="http://www.w3.org/2000/svg" xmlns:xlink="http://www.w3.org/1999/xlink">
    <!-- Generator: Sketch 50 (54983) - http://www.bohemiancoding.com/sketch -->
    <title>d_1</title>
    <desc>Created with Sketch.</desc>
    <defs></defs>
    <g id="开发资源" stroke="none" stroke-width="1" fill="none" fill-rule="evenodd">
        <g id="开发文档" transform="translate(-120.000000, -1811.000000)" fill="#33CC99">
            <g id="icon" transform="translate(120.000000, 1811.000000)">
                <g id="Shape">
                    <path d="M15.818617,11.054 C16.1367021,11.2153333 16.5037234,11.4426667 16.9196809,11.736 C17.3356383,12.0293333 17.7964539,12.407 18.3021277,12.869 C18.8078014,13.331 19.3257092,13.9103333 19.8558511,14.607 C20.3859929,15.3036667 20.9202128,16.1286667 21.4585106,17.082 C21.9968085,18.0353333 22.5106383,19.1426667 23,20.404 C22.7553191,20.536 22.5065603,20.69 22.2537234,20.866 C22.0008865,21.042 21.7521277,21.1996667 21.5074468,21.339 C21.262766,21.4783333 21.0099291,21.5883333 20.7489362,21.669 C20.4879433,21.7496667 20.2269504,21.768 19.9659574,21.724 C19.264539,21.592 18.6406028,21.5333333 18.0941489,21.548 C17.547695,21.5626667 17.0460993,21.6176667 16.5893617,21.713 C16.1326241,21.8083333 15.7085106,21.9293333 15.3170213,22.076 C14.9255319,22.2226667 14.5462766,22.3656667 14.1792553,22.505 C13.812234,22.6443333 13.4452128,22.7616667 13.0781915,22.857 C12.7111702,22.9523333 12.3156028,23 11.8914894,23 C10.9780142,22.9853333 10.0971631,22.8643333 9.24893617,22.637 C8.40070922,22.4096667 7.59326241,22.1786667 6.82659574,21.944 C6.05992908,21.7093333 5.3462766,21.5296667 4.6856383,21.405 C4.025,21.2803333 3.42553191,21.3133333 2.88723404,21.504 C2.56099291,21.6213333 2.22659574,21.6286667 1.88404255,21.526 C1.54148936,21.4233333 1.23156028,21.2913333 0.954255319,21.13 C0.628014184,20.9393333 0.309929078,20.6973333 0,20.404 C0.603546099,18.732 1.28865248,17.302 2.05531915,16.114 C2.82198582,14.926 3.56010638,13.947 4.26968085,13.177 C4.97925532,12.407 5.6072695,11.824 6.1537234,11.428 C6.7001773,11.032 7.04680851,10.79 7.19361702,10.702 C7.34042553,10.6286667 7.42198582,10.449 7.43829787,10.163 C7.45460993,9.877 7.4464539,9.58733333 7.41382979,9.294 C7.36489362,8.942 7.29148936,8.55333333 7.19361702,8.128 L3.59680851,1.638 L7.90319149,1 C8.34361702,1.748 8.77180851,2.31633333 9.18776596,2.705 C9.6037234,3.09366667 10.0033688,3.35766667 10.3867021,3.497 C10.7700355,3.63633333 11.1329787,3.673 11.4755319,3.607 C11.8180851,3.541 12.1361702,3.41266667 12.4297872,3.222 C13.1148936,2.782 13.7592199,2.04133333 14.362766,1 L18.693617,1.638 C18.3673759,2.32733333 18.0085106,3.03866667 17.6170213,3.772 C17.2907801,4.40266667 16.9115248,5.09933333 16.4792553,5.862 C16.0469858,6.62466667 15.5861702,7.38 15.0968085,8.128 C14.9010638,8.62666667 14.7909574,9.03733333 14.7664894,9.36 C14.7420213,9.68266667 14.7542553,9.94666667 14.8031915,10.152 C14.8684397,10.3866667 14.9663121,10.57 15.0968085,10.702 C15.2599291,10.7753333 15.5005319,10.8926667 15.818617,11.054 Z" fill-rule="nonzero"></path>
                </g>
            </g>
        </g>
    </g>
</svg>