<?xml version="1.0" encoding="UTF-8"?>
<svg width="24px" height="24px" viewBox="0 0 24 24" version="1.1" xmlns="http://www.w3.org/2000/svg" xmlns:xlink="http://www.w3.org/1999/xlink">
    <!-- Generator: Sketch 50 (54983) - http://www.bohemiancoding.com/sketch -->
    <title>d_12</title>
    <desc>Created with Sketch.</desc>
    <defs>
        <linearGradient x1="74.4791667%" y1="0%" x2="0%" y2="100%" id="linearGradient-1">
            <stop stop-color="#00B2FF" offset="0%"></stop>
            <stop stop-color="#007AFF" offset="100%"></stop>
        </linearGradient>
    </defs>
    <g id="开发资源" stroke="none" stroke-width="1" fill="none" fill-rule="evenodd">
        <g id="开发文档" transform="translate(-604.000000, -1811.000000)" fill="url(#linearGradient-1)">
            <g id="icon11" transform="translate(604.000000, 1811.000000)">
                <g id="icon">
                    <path d="M24,14.8458056 C24,11.1551233 21.5863163,9.73217321 21.5863163,9.73217321 L21.5815487,9.73217321 C21.586837,8.96084939 21.4803872,3 16.9164454,3 L7.1589052,3 C2.59496342,3 2.48944525,8.96084939 2.49487047,9.73217321 L2.48470499,9.73217321 C2.48470499,9.73217321 0,10.1363417 0,14.817694 C0,16.1755194 0.30786864,17.059019 1.10170727,17.6342381 L1.10170727,19.0181458 C1.10170727,20.0692058 2.03282088,20.999973 3.12976052,20.999973 L3.16324356,20.999973 C4.26032019,20.999973 5.00124901,20.0692058 5.00124901,19.0181458 L5.00124901,18.5925757 C6.70107525,18.7080254 8.92024488,18.7086748 11.7834836,18.7099735 L11.7834836,18.6536962 L12.0342503,18.6536962 L12.1437415,18.6536962 L12.1437415,18.7099735 C15.0496149,18.7086748 17.2994454,18.7107581 19.0187258,18.5939015 L19.0187258,19.0181729 C19.0187258,20.0692328 19.8847639,21 20.9815939,21 L21.0151865,21 C22.1122632,21 22.9184045,20.0692328 22.9184045,19.0181729 L22.9184045,17.6252553 C23.6939946,17.0538242 24,16.180606 24,14.8458056 Z M22.4667944,13.1259115 C22.4667944,13.9915268 21.756362,14.6929099 20.8798844,14.6929099 C20.0032698,14.6929099 19.2929743,13.9915268 19.2929743,13.1259115 C19.2929743,12.2604043 20.0032698,11.558913 20.8798844,11.558913 C21.756362,11.5589131 22.4667944,12.2604043 22.4667944,13.1259115 Z M7.96189546,4.25885307 L12.0386069,4.25885307 L16.1138935,4.25885307 C20.1906323,4.25885307 20.0101198,9.51320578 20.0101198,9.51320578 L12.0385795,9.51320578 L4.06629937,9.51320578 C4.06629937,9.51320578 3.88515665,4.25885307 7.96189546,4.25885307 Z M3.02791398,11.5589131 C3.90441899,11.5589131 4.61482399,12.2603773 4.61482399,13.1259115 C4.61482399,13.9915269 3.90458339,14.6929099 3.02791398,14.6929099 C2.15143636,14.6929099 1.44100396,13.9915269 1.44100396,13.1259115 C1.44103135,12.2604043 2.15143636,11.5589131 3.02791398,11.5589131 Z M16.2257959,16.3822573 L8.42657546,16.3822573 C7.58256708,16.3822573 6.89841149,15.7105551 6.89841149,14.877164 C6.89841149,14.0437728 7.5825945,13.3719353 8.42657546,13.3719353 L16.2257959,13.3719353 C17.0698865,13.3719353 17.7540969,14.0437727 17.7540969,14.877164 C17.7540969,15.7105552 17.0698591,16.3822573 16.2257959,16.3822573 Z" id="Shape" fill-rule="nonzero"></path>
                </g>
            </g>
        </g>
    </g>
</svg>