<?xml version="1.0" encoding="UTF-8"?>
<svg width="24px" height="24px" viewBox="0 0 24 24" version="1.1" xmlns="http://www.w3.org/2000/svg" xmlns:xlink="http://www.w3.org/1999/xlink">
    <!-- Generator: Sketch 50 (54983) - http://www.bohemiancoding.com/sketch -->
    <title>d_13</title>
    <desc>Created with Sketch.</desc>
    <defs>
        <linearGradient x1="100%" y1="0%" x2="50%" y2="99.304552%" id="linearGradient-1">
            <stop stop-color="#9CD622" offset="0.219020954%"></stop>
            <stop stop-color="#69BC0E" offset="100%"></stop>
        </linearGradient>
    </defs>
    <g id="开发资源" stroke="none" stroke-width="1" fill="none" fill-rule="evenodd">
        <g id="开发文档" transform="translate(-648.000000, -1811.000000)" fill="url(#linearGradient-1)">
            <g id="icon12" transform="translate(648.000000, 1811.000000)">
                <g id="icon">
                    <path d="M8.46298946,13.656485 C7.30119045,12.3150665 5.79480098,9.72835281 6.58239033,6.60368889 C10.7766851,8.45376063 10.3591746,13.8638194 10.8137457,22.1193715 L9.87349009,22.1193715 L9.87349009,20.2387724 L6.58236101,20.2387724 C6.58236101,20.2387724 3.29129053,20.477601 3.29129053,21.649273 C3.29129053,22.8209451 5.89493787,24 12.694462,24 C19.4943377,24 20.6871329,22.2157585 20.6871329,21.649273 C20.6871329,21.0817622 20.0110184,20.2387724 17.3960331,20.2387724 L15.515434,20.2387724 C15.515434,20.2387724 15.1665076,14.9179521 18.8065338,9.42469014 C19.2668178,10.0650038 19.9010377,11.5149674 17.866161,14.1267007 C20.2893392,13.8986241 20.7736467,12.4256331 20.6871329,10.3649458 C21.3684037,10.7181495 21.8873988,11.4303872 21.6275057,14.1267007 C23.0436021,13.2737792 23.8174511,10.7402101 21.6275057,8.95447442 C22.6171853,9.01421085 23.1498034,9.04989451 23.5081049,10.8350443 C24.8316229,9.66773746 23.0694419,6.35489938 20.2170051,7.07381668 C19.6584299,3.68167182 14.5750612,4.15223908 14.5750612,6.13344388 C15.7119285,5.90835557 17.0076145,5.95104122 17.3960332,6.60368889 C16.1166949,6.65495852 14.5750612,6.84105261 14.5750612,10.3649165 C15.7293016,9.06032425 16.1924567,8.37477612 18.3362888,8.48434663 C16.9512179,9.33155522 14.1049334,13.2056638 14.1049334,22.1193715 C13.3295902,22.130768 12.6944328,22.1193715 12.6944328,22.1193715 C12.6944328,22.1193715 13.3004104,9.43922142 7.99283238,5.66334537 C10.1531586,5.46488798 11.8636012,5.43055198 13.6346884,8.95444514 C13.9008803,7.02679513 13.906476,2.89179734 9.403333,3.31258912 C9.8973671,2.34212836 9.84808966,1.66085759 13.6346884,1.90211779 C11.1757972,-1.71813297 5.7844592,0.346743851 5.64198823,3.78271692 C5.64198823,3.78271692 -0.0182662401,2.61713862 4.43295467e-05,8.48431731 C1.50218576,7.00045717 2.20657181,6.37136422 2.8210163,6.13344388 C2.01992107,7.24171739 0.0320951699,10.1824845 2.8210163,12.7161708 C2.91737389,9.31321533 3.68196513,8.76545066 4.23151692,8.01418952 C4.26356771,9.71420239 4.37867534,13.5478813 8.46298946,13.656485" id="Shape" fill-rule="nonzero"></path>
                </g>
            </g>
        </g>
    </g>
</svg>