<!-- Generated by IcoMoon.io -->
<svg version="1.1" xmlns="http://www.w3.org/2000/svg" width="24" height="24" viewBox="0 0 24 24">
<title>杂七杂八</title>
<path fill="#3c9" d="M11 6.65c-0.004 0-0.010 0-0.015 0-0.286 0-0.546-0.115-0.735-0.3l0 0c-0.191-0.182-0.31-0.439-0.31-0.724 0-0.009 0-0.018 0-0.027l-0 0.001v-0.7c-0-0.009-0.001-0.020-0.001-0.031 0-0.105 0.022-0.204 0.062-0.294l-0.002 0.005c0.060-0.11 0.13-0.22 0.21-0.34 0.079-0.117 0.158-0.255 0.23-0.397l0.010-0.023c0.082-0.18 0.141-0.39 0.169-0.609l0.001-0.011c0.052-0.165 0.083-0.355 0.083-0.552 0-0.077-0.005-0.153-0.014-0.227l0.001 0.009c-0.020-0.142-0.044-0.264-0.075-0.383l0.005 0.023c-0-0.005-0-0.010-0-0.016 0-0.285 0.119-0.541 0.31-0.724l0-0c0.177-0.195 0.428-0.32 0.708-0.33l0.002-0h0.42c0.053-0.010 0.113-0.016 0.175-0.016s0.122 0.006 0.181 0.017l-0.006-0.001c0.101 0.036 0.181 0.107 0.229 0.198l0.001 0.002c0.051 0.129 0.081 0.279 0.081 0.436 0 0.019-0 0.038-0.001 0.057l0-0.003c0.001 0.026 0.002 0.057 0.002 0.089 0 0.195-0.022 0.386-0.065 0.568l0.003-0.017c-0.037 0.13-0.085 0.243-0.144 0.348l0.004-0.008-0.19 0.33c-0.086 0.106-0.149 0.234-0.179 0.374l-0.001 0.006c-0.056 0.202-0.099 0.441-0.119 0.685l-0.001 0.015c-0.019 0.181-0.031 0.392-0.031 0.605s0.011 0.424 0.033 0.631l-0.002-0.026v0.71c0 0.11-0.11 0.25-0.33 0.43-0.184 0.138-0.416 0.22-0.667 0.22-0.012 0-0.023-0-0.034-0.001l0.002 0zM6.77 6.65c-0 0-0.001 0-0.001 0-0.552 0-1-0.448-1-1 0-0.018 0-0.035 0.001-0.052l-0 0.002v-0.7c-0-0.005-0-0.011-0-0.018 0-0.111 0.030-0.216 0.082-0.305l-0.002 0.003c0.060-0.11 0.12-0.22 0.2-0.34 0.079-0.117 0.158-0.255 0.23-0.397l0.010-0.023c0.087-0.181 0.147-0.391 0.169-0.612l0.001-0.008c0.028-0.115 0.049-0.252 0.060-0.392l0-0.008c0.007-0.056 0.011-0.12 0.011-0.185s-0.004-0.129-0.012-0.192l0.001 0.007v-0.36c-0-0.005-0-0.010-0-0.016 0-0.285 0.119-0.541 0.31-0.724l0-0c0.149-0.17 0.353-0.289 0.584-0.329l0.006-0.001h0.41c0.051-0.010 0.11-0.015 0.17-0.015s0.119 0.006 0.176 0.016l-0.006-0.001c0.107 0.029 0.193 0.102 0.239 0.198l0.001 0.002c0.058 0.123 0.092 0.268 0.092 0.42 0 0.025-0.001 0.049-0.003 0.073l0-0.003c0.004 0.043 0.006 0.092 0.006 0.143 0 0.248-0.050 0.484-0.14 0.699l0.004-0.012-0.28 0.48c-0.114 0.193-0.204 0.417-0.257 0.654l-0.003 0.016c-0.063 0.335-0.1 0.72-0.1 1.113 0 0.175 0.007 0.348 0.021 0.519l-0.001-0.022v0.72c0 0.11-0.1 0.25-0.3 0.43-0.171 0.14-0.391 0.225-0.632 0.225-0.035 0-0.069-0.002-0.102-0.005l0.004 0zM18.34 9.49c0.021-0 0.047-0 0.072-0 0.776 0 1.525 0.11 2.235 0.314l-0.057-0.014c0.687 0.192 1.285 0.505 1.8 0.918l-0.010-0.008c0.497 0.407 0.898 0.91 1.179 1.484l0.012 0.026c0.273 0.586 0.432 1.272 0.432 1.996 0 0.044-0.001 0.087-0.002 0.131l0-0.006c0.001 0.038 0.002 0.083 0.002 0.128 0 0.736-0.159 1.435-0.444 2.064l0.013-0.031c-0.286 0.623-0.689 1.147-1.183 1.565l-0.007 0.005c-0.504 0.432-1.1 0.773-1.753 0.989l-0.037 0.011c-0.652 0.21-1.403 0.33-2.182 0.33-0.024 0-0.048-0-0.072-0l0.004 0h-0.7c-0.132 0.959-0.324 1.811-0.581 2.634l0.031-0.114c-0.176 0.655-0.465 1.226-0.848 1.721l0.008-0.011h-14.25c-0.343-0.234-0.593-0.582-0.697-0.988l-0.003-0.012c-0.214-0.568-0.395-1.241-0.511-1.935l-0.009-0.065c-0.15-0.76-0.27-1.62-0.36-2.62s-0.16-1.91-0.23-2.9c-0.14-2.3-0.19-4.89-0.19-7.75h18.34v1.51c-0.005 0.094-0.008 0.204-0.008 0.315s0.003 0.221 0.009 0.33l-0.001-0.015zM17.64 17.93c0.005 0 0.011 0 0.017 0 0.593 0 1.165-0.088 1.704-0.251l-0.042 0.011c0.556-0.154 1.043-0.39 1.474-0.699l-0.014 0.009c0.407-0.307 0.742-0.687 0.99-1.122l0.009-0.018c0.245-0.419 0.39-0.923 0.39-1.461 0-0.017-0-0.034-0-0.051l0 0.003c0.004-0.061 0.007-0.132 0.007-0.204 0-0.947-0.419-1.797-1.083-2.372l-0.004-0.003c-0.716-0.546-1.622-0.874-2.606-0.874-0.068 0-0.136 0.002-0.204 0.005l0.010-0q0 0.84-0.060 1.86c0 0.68-0.1 1.35-0.16 2s-0.070 1.24-0.18 1.84-0.17 1.010-0.25 1.33z"></path>
</svg>
