<?xml version="1.0" encoding="UTF-8"?>
<svg width="24px" height="24px" viewBox="0 0 24 24" version="1.1" xmlns="http://www.w3.org/2000/svg" xmlns:xlink="http://www.w3.org/1999/xlink">
    <!-- Generator: Sketch 50 (54983) - http://www.bohemiancoding.com/sketch -->
    <title>d_6</title>
    <desc>Created with Sketch.</desc>
    <defs>
        <linearGradient x1="50%" y1="0%" x2="50%" y2="100%" id="linearGradient-1">
            <stop stop-color="#5FC1FA" offset="0%"></stop>
            <stop stop-color="#318DF2" offset="100%"></stop>
        </linearGradient>
    </defs>
    <g id="开发资源" stroke="none" stroke-width="1" fill="none" fill-rule="evenodd">
        <g id="开发文档" transform="translate(-340.000000, -1811.000000)" fill="url(#linearGradient-1)">
            <g id="icon5" transform="translate(340.000000, 1811.000000)">
                <g id="icon">
                    <path d="M19.233285,11.5793079 C19.5054164,11.8515738 19.6414821,12.1919062 19.6414821,12.600305 C19.6414821,13.0087038 19.5054164,13.357044 19.233285,13.6453255 L9.31649762,23.5910381 C9.01235079,23.863304 8.65617884,23.999437 8.24798178,23.999437 C7.83978472,23.999437 7.49962051,23.863304 7.22748913,23.5910381 L0.432208652,16.7923988 C0.144069551,16.5041173 0,16.159781 0,15.75939 C0,15.358999 0.144069551,15.0066549 0.432208652,14.7023578 L10.3730077,4.78066862 C10.6611468,4.4923871 11.0053129,4.34824633 11.4055061,4.34824633 C11.8056993,4.34824633 12.1498655,4.4923871 12.4380046,4.78066862 L19.233285,11.5793079 Z M11.9097495,8.4322346 C12.0538191,8.28809384 12.1258539,8.1119218 12.1258539,7.90371848 C12.1258539,7.69551515 12.0538191,7.52735093 11.9097495,7.39922581 C11.76568,7.25508504 11.5935969,7.18301466 11.3935003,7.18301466 C11.1934037,7.18301466 11.0213206,7.25508504 10.8772511,7.39922581 L3.57772718,14.7023578 C3.43365763,14.8464985 3.36162285,15.0226706 3.36162285,15.2308739 C3.36162285,15.4390772 3.43365763,15.6152493 3.57772718,15.75939 C3.72179673,15.9035308 3.8938798,15.9756012 4.0939764,15.9756012 C4.294073,15.9756012 4.46615608,15.9035308 4.61022563,15.75939 L11.9097495,8.4322346 Z M21.5624094,9.72950147 C21.7865176,9.95372043 21.8985717,10.2179785 21.8985717,10.5222757 C21.8985717,10.8265728 21.7865176,11.0908309 21.5624094,11.3150499 C21.354309,11.5392688 21.0981853,11.6513783 20.7940385,11.6513783 C20.4898917,11.6513783 20.2257642,11.5392688 20.001656,11.3150499 L12.7021321,4.01191789 C12.4780239,3.78769892 12.3659698,3.52344086 12.3659698,3.2191437 C12.3659698,2.91484653 12.4780239,2.65058847 12.7021321,2.4263695 C12.9102325,2.20215054 13.1663562,2.09004106 13.470503,2.09004106 C13.7746498,2.09004106 14.0387773,2.20215054 14.2628855,2.4263695 L21.5624094,9.72950147 Z M23.6754295,1.92187683 C23.4513213,2.13008016 23.1911957,2.23418182 22.8950528,2.23418182 C22.5989098,2.23418182 22.3387842,2.13008016 22.1146761,1.92187683 C22.4188229,2.24218964 22.6429311,2.60254154 22.7870006,3.00293255 C22.9310702,3.40332356 22.9870972,3.82773803 22.9550818,4.27617595 C22.9230663,4.72461388 22.8110122,5.1690479 22.6189195,5.60947801 C22.4268267,6.04990811 22.1626992,6.46231085 21.8265369,6.84668622 L21.8265369,6.87070968 C21.9866142,7.01485044 22.0666529,7.18701857 22.0666529,7.38721408 C22.0666529,7.58740958 21.9866142,7.75957771 21.8265369,7.90371848 C21.6824674,8.04785924 21.5063824,8.11992962 21.2982819,8.11992962 C21.0901815,8.11992962 20.9140965,8.04785924 20.7700269,7.90371848 L16.0877665,3.2191437 C15.9597047,3.07500293 15.8956738,2.89883089 15.8956738,2.69062757 C15.8956738,2.48242424 15.9677085,2.3062522 16.1117781,2.16211144 C16.2398399,2.00195503 16.4079211,1.92187683 16.6160215,1.92187683 C16.824122,1.92187683 17.000207,2.00195503 17.1442765,2.16211144 L17.1442765,2.1861349 C17.528462,1.83379081 17.9446629,1.56152493 18.3928793,1.36933724 C18.8410957,1.17714956 19.2893121,1.06904399 19.7375285,1.04502053 C20.1857448,1.02099707 20.6139516,1.07705181 21.0221486,1.21318475 C21.4303457,1.34931769 21.7945215,1.56953275 22.1146761,1.87382991 C21.8905679,1.64961095 21.7785138,1.38935679 21.7785138,1.09306745 C21.7785138,0.796778104 21.8905679,0.544531769 22.1146761,0.336328446 C22.3387842,0.112109482 22.5989098,0 22.8950528,0 C23.1911957,0 23.4513213,0.112109482 23.6754295,0.336328446 C23.88353,0.56054741 23.9915821,0.824805474 23.999586,1.12910264 C24.0075899,1.4333998 23.8995377,1.69765787 23.6754295,1.92187683 Z" id="Shape" fill-rule="nonzero"></path>
                </g>
            </g>
        </g>
    </g>
</svg>