<?xml version="1.0" encoding="UTF-8"?>
<svg width="24px" height="24px" viewBox="0 0 24 24" version="1.1" xmlns="http://www.w3.org/2000/svg" xmlns:xlink="http://www.w3.org/1999/xlink">
    <!-- Generator: Sketch 50 (54983) - http://www.bohemiancoding.com/sketch -->
    <title>e_1</title>
    <desc>Created with Sketch.</desc>
    <defs>
        <linearGradient x1="100%" y1="0%" x2="0%" y2="100%" id="linearGradient-1">
            <stop stop-color="#BEC7D0" offset="0%"></stop>
            <stop stop-color="#8A96A3" offset="100%"></stop>
        </linearGradient>
    </defs>
    <g id="开发资源" stroke="none" stroke-width="1" fill="none" fill-rule="evenodd">
        <g id="开发文档" transform="translate(-824.000000, -1811.000000)" fill="url(#linearGradient-1)">
            <g id="icon17" transform="translate(824.000000, 1811.000000)">
                <g id="icon">
                    <path d="M9.05715098,9.91583736 L2.85299972,9.91583736 C2.38100654,9.91583736 2,9.53483082 2,9.06283765 L2,2.85299972 C2,2.38100654 2.38100654,2 2.85299972,2 L9.05715098,2 C9.52914416,2 9.9101507,2.38100654 9.9101507,2.85299972 L9.9101507,9.05715098 C9.9101507,9.53483082 9.52914416,9.91583736 9.05715098,9.91583736 Z M20.0949673,9.91583736 L13.890816,9.91583736 C13.4188229,9.91583736 13.0378163,9.53483082 13.0378163,9.06283765 L13.0378163,2.85299972 C13.0378163,2.38100654 13.4188229,2 13.890816,2 L20.0949673,2 C20.5669605,2 20.947967,2.38100654 20.947967,2.85299972 L20.947967,9.05715098 C20.947967,9.53483082 20.5669605,9.91583736 20.0949673,9.91583736 Z M9.05715098,20.8456071 L2.85299972,20.8456071 C2.38100654,20.8456071 2,20.4646005 2,19.9926073 L2,13.7884561 C2,13.3164629 2.38100654,12.9354564 2.85299972,12.9354564 L9.05715098,12.9354564 C9.52914416,12.9354564 9.9101507,13.3164629 9.9101507,13.7884561 L9.9101507,19.9926073 C9.9101507,20.4646005 9.52914416,20.8456071 9.05715098,20.8456071 Z M16.4156952,21.6588001 L12.2246233,17.4677282 C11.90617,17.149275 11.90617,16.6317885 12.2246233,16.3133352 L16.4156952,12.1222633 C16.7341484,11.8038101 17.2516349,11.8038101 17.5700881,12.1222633 L21.7611601,16.3133352 C22.0796133,16.6317885 22.0796133,17.149275 21.7611601,17.4677282 L17.5700881,21.6588001 C17.2516349,21.9772533 16.7341484,21.9772533 16.4156952,21.6588001 Z" id="Combined-Shape" fill-rule="nonzero"></path>
                </g>
            </g>
        </g>
    </g>
</svg>