<?xml version="1.0" encoding="UTF-8"?>
<svg width="20px" height="19px" viewBox="0 0 20 19" version="1.1" xmlns="http://www.w3.org/2000/svg" xmlns:xlink="http://www.w3.org/1999/xlink">
    <!-- Generator: Sketch 50 (54983) - http://www.bohemiancoding.com/sketch -->
    <title>e_10</title>
    <desc>Created with Sketch.</desc>
    <defs></defs>
    <g id="开发资源" stroke="none" stroke-width="1" fill="none" fill-rule="evenodd">
        <g id="开发文档" transform="translate(-407.000000, -1919.000000)">
            <g id="19" transform="translate(407.000000, 1919.000000)">
                <g>
                    <rect id="Rectangle" fill="#D8D8D8" opacity="0" x="0" y="0" width="20" height="20"></rect>
                    <path d="M12.7272788,9.2727435 C14.7363572,9.2727435 16.3636283,7.64547249 16.3636283,5.63637175 C16.3636283,3.627271 14.7363572,2 12.7272788,2 C10.7182004,2 9.09090706,3.627271 9.09090706,5.63637175 C9.09090706,7.64547249 10.7181781,9.2727435 12.7272788,9.2727435 Z M4.54546468,7.45455762 L4.54546468,4.72730112 L2.72727881,4.72730112 L2.72727881,7.45457993 L0,7.45457993 L0,9.2727658 L2.72727881,9.2727658 L2.72727881,12.0000446 L4.54546468,12.0000446 L4.54546468,9.2727435 L7.2727435,9.2727435 L7.2727435,7.45455762 L4.54546468,7.45455762 Z M12.7272788,11.0909294 C10.3000123,11.0909294 5.45455762,12.309113 5.45455762,14.7273011 L5.45455762,16.545487 L20,16.545487 L20,14.7273011 C20,12.309113 15.1545454,11.0909294 12.7272788,11.0909294 Z" id="Shape" fill="#99A5A0" fill-rule="nonzero"></path>
                </g>
            </g>
        </g>
    </g>
</svg>