<?xml version="1.0" encoding="UTF-8"?>
<svg width="20px" height="20px" viewBox="0 0 20 20" version="1.1" xmlns="http://www.w3.org/2000/svg" xmlns:xlink="http://www.w3.org/1999/xlink">
    <!-- Generator: Sketch 50 (54983) - http://www.bohemiancoding.com/sketch -->
    <title>e_12</title>
    <desc>Created with Sketch.</desc>
    <defs></defs>
    <g id="开发资源" stroke="none" stroke-width="1" fill="none" fill-rule="evenodd">
        <g id="开发文档" transform="translate(-471.000000, -1919.000000)">
            <g id="17" transform="translate(471.000000, 1919.000000)">
                <g>
                    <rect id="Rectangle" fill="#D8D8D8" opacity="0" x="0" y="0" width="20" height="20"></rect>
                    <path d="M9.5,18 C4.805875,18 1,14.194125 1,9.5 C1,4.805875 4.805875,1 9.5,1 C14.194125,1 18,4.805875 18,9.5 C18,14.194125 14.194125,18 9.5,18 Z M10.2083333,9.91720834 L10.2083333,5.95620834 C10.2083333,5.570875 9.891,5.25 9.5,5.25 C9.10616666,5.25 8.79166666,5.56591666 8.79166666,5.95620834 L8.79166666,10.2104583 C8.79045909,10.3961213 8.86337748,10.5745929 8.99425,10.7062917 L11.0073333,12.719375 C11.1399763,12.8512118 11.3196615,12.9247967 11.5066755,12.9238663 C11.6936896,12.9229359 11.8726337,12.8475667 12.0039583,12.7144167 C12.2785686,12.4397512 12.2807804,11.9951759 12.0089167,11.7177917 L10.2083333,9.91720834 Z" id="Shape" fill="#99A5A0" fill-rule="nonzero"></path>
                </g>
            </g>
        </g>
    </g>
</svg>