<?xml version="1.0" encoding="UTF-8"?>
<svg width="20px" height="20px" viewBox="0 0 20 20" version="1.1" xmlns="http://www.w3.org/2000/svg" xmlns:xlink="http://www.w3.org/1999/xlink">
    <!-- Generator: Sketch 50 (54983) - http://www.bohemiancoding.com/sketch -->
    <title>e_14</title>
    <desc>Created with Sketch.</desc>
    <defs></defs>
    <g id="开发资源" stroke="none" stroke-width="1" fill="none" fill-rule="evenodd">
        <g id="开发文档" transform="translate(-535.000000, -1920.000000)">
            <g id="15" transform="translate(535.000000, 1920.000000)">
                <g>
                    <rect id="Rectangle" fill="#D8D8D8" opacity="0" x="0" y="0" width="20" height="20"></rect>
                    <path d="M9.06583808,6.23595932 C9.44887543,5.74265128 9.85512717,5.29747086 10.2845933,4.90041804 C10.6560235,4.57555665 11.0767842,4.28077502 11.5468755,4.01607314 C12.0169668,3.75137127 12.5073707,3.63706818 13.0180871,3.67316389 C13.7377331,3.73332341 14.3384053,3.91079399 14.8201038,4.20557562 C15.3018023,4.50035725 15.6848396,4.87334626 15.9692158,5.32454264 C16.253592,5.77573902 16.4480125,6.28709491 16.5524773,6.85861032 C16.656942,7.43012574 16.6917636,8.01668103 16.656942,8.6182762 C16.6221204,9.21987137 16.5205575,9.79439476 16.3522532,10.3418464 C16.1839489,10.889298 15.9750194,11.4006539 15.7254648,11.875914 C15.4759101,12.3511742 15.2002393,12.7903387 14.8984523,13.1934075 C14.5966653,13.5964762 14.2948783,13.9604413 13.9930913,14.2853027 C13.5288036,14.7786107 13.0442033,15.2388311 12.5392904,15.6659636 C12.0343776,16.0930962 11.5526791,16.4600692 11.094195,16.7668828 C10.6357109,17.0736963 10.2178519,17.3173424 9.84061818,17.4978209 C9.46338442,17.6782995 9.17030281,17.7685387 8.96137335,17.7685387 C8.7292295,17.7805706 8.43324609,17.6963473 8.07342312,17.5158688 C7.71360015,17.3353902 7.31895561,17.0917442 6.88948948,16.7849306 C6.46002336,16.4781171 6.00734285,16.114152 5.53144796,15.6930354 C5.05555307,15.2719188 4.58546177,14.8267384 4.12117407,14.3574941 C3.81938706,14.0566965 3.49438567,13.7077713 3.1461699,13.3107185 C2.79795412,12.9136657 2.47005093,12.4775092 2.16246033,12.002249 C1.85486973,11.5269888 1.5908061,11.012625 1.37026944,10.4591574 C1.14973278,9.90568986 1.02785726,9.3161266 1.00464288,8.69046762 C0.981428492,8.06480864 1.04526805,7.47825335 1.19616155,6.93080174 C1.34705506,6.38335014 1.57339531,5.89305007 1.87518232,5.45990155 C2.17696932,5.02675303 2.54839948,4.66278795 2.9894728,4.36800632 C3.43054611,4.07322468 3.92965539,3.86567435 4.48680063,3.74535531 C4.76537325,3.6851958 5.04394587,3.67617187 5.32251849,3.71828353 C5.60109111,3.76039519 5.87386014,3.83258661 6.14082557,3.93485779 C6.40779099,4.03712897 6.66314923,4.16647193 6.90690027,4.32288668 C7.15065131,4.47930142 7.38279516,4.64173212 7.60333182,4.81017877 C8.11404829,5.20723158 8.60155038,5.68249176 9.06583808,6.23595932 Z" id="Shape" fill="#99A5A0" fill-rule="nonzero"></path>
                </g>
            </g>
        </g>
    </g>
</svg>