<?xml version="1.0" encoding="UTF-8"?>
<svg width="20px" height="20px" viewBox="0 0 20 20" version="1.1" xmlns="http://www.w3.org/2000/svg" xmlns:xlink="http://www.w3.org/1999/xlink">
    <!-- Generator: Sketch 50 (54983) - http://www.bohemiancoding.com/sketch -->
    <title>e_15</title>
    <desc>Created with Sketch.</desc>
    <defs></defs>
    <g id="开发资源" stroke="none" stroke-width="1" fill="none" fill-rule="evenodd">
        <g id="开发文档" transform="translate(-567.000000, -1920.000000)">
            <g id="14" transform="translate(567.000000, 1920.000000)">
                <g>
                    <rect id="Rectangle-path" fill="#000000" fill-rule="nonzero" opacity="0" x="0" y="0" width="20" height="20"></rect>
                    <path d="M17.9660031,9.26200665 L17.9570033,9.26300782 C17.9250016,8.94900848 17.6760033,8.70000658 17.3630051,8.66900961 L17.2270032,8.66900961 L16.9970057,8.66900961 L16.9970057,8.66401089 C16.6050044,8.66401089 16.2650068,8.43801089 16.1020055,8.10801069 C16.0630063,8.02701241 16.0330069,7.94101183 16.0170061,7.84901139 C15.9430052,7.64401094 15.8600046,7.44401279 15.7660054,7.24901332 C15.7660054,7.24801215 15.7660054,7.24801215 15.7650042,7.24801215 C15.7180028,7.17901361 15.6800048,7.1040116 15.6520042,7.02401091 C15.6520042,7.02300974 15.6520042,7.02300974 15.6520042,7.02300974 C15.6150038,6.91900954 15.5950054,6.80600955 15.5950054,6.69000961 C15.5950054,6.41400828 15.7060031,6.16400877 15.8880052,5.984009 L15.887004,5.984009 L16.0900021,5.78100731 C16.0930021,5.77900855 16.0950009,5.77700621 16.0980044,5.77400626 C16.1000031,5.77100633 16.1030031,5.76900755 16.1050054,5.76600762 C16.3420076,5.52200799 16.3540037,5.14200646 16.1430034,4.88300716 L16.1470045,4.88000723 C15.9910042,4.69300641 15.8280065,4.5140078 15.6570029,4.34400541 C15.4820054,4.16800674 15.2990021,4.0010043 15.1080038,3.84300525 L15.106005,3.84500401 C14.8720028,3.65300448 14.5360063,3.64700461 14.2940054,3.82400446 L14.1480061,3.97000376 L14.010009,4.10600209 L14.0040092,4.10000221 C13.7130081,4.39200083 13.2860088,4.46600164 12.9260092,4.32100352 C12.8770091,4.30200273 12.8300113,4.27800324 12.7840075,4.25100381 C12.5540099,4.14000258 12.3170078,4.04200226 12.0730082,3.95800402 C12.0300079,3.94700545 11.9880088,3.93200576 11.9460096,3.91500374 C11.9460096,3.91500374 11.9450085,3.91500374 11.9450085,3.91400257 C11.8260086,3.86700118 11.7130086,3.79300394 11.6160094,3.69600121 C11.4530081,3.53299987 11.3590089,3.32700183 11.3310083,3.11500035 C11.3200097,3.03199973 11.3200097,2.94800149 11.3310083,2.86500085 L11.3310083,2.6929997 C11.3310083,2.36499828 11.0940061,2.09299805 10.7820092,2.03700042 C10.74301,2.03299932 10.7050084,2.02999937 10.6650116,2.02699943 L10.6660092,2.02699943 C10.4460091,2.01000098 10.2240102,2 10.0000089,2 C9.77601128,2 9.5540088,2.01000098 9.33400868,2.0280006 C9.2950095,2.03100054 9.25601033,2.03400048 9.21700757,2.03800159 C8.90500699,2.09300163 8.66800842,2.36600301 8.66800842,2.69300328 L8.66800842,2.99000416 C8.66800842,3.41900585 8.39801053,3.78500528 8.01900661,3.92600232 C7.99500712,3.9360033 7.97000645,3.94400194 7.94500577,3.95100299 C7.67800783,4.04100109 7.42000611,4.14800122 7.17200538,4.27200338 C7.17000662,4.27200338 7.17000662,4.27300455 7.16900545,4.27300455 C7.14900349,4.28400312 7.13000627,4.29300293 7.10900672,4.30300391 C6.9820082,4.36100389 6.8420052,4.39300559 6.69300596,4.39300559 C6.41700463,4.39300559 6.16700512,4.28100677 5.98700535,4.10000581 L5.98600418,4.10200457 L5.77500385,3.89200543 C5.54300397,3.66000554 5.18500318,3.63500489 4.92600386,3.81500466 C4.8960045,3.83900415 4.86600513,3.86400482 4.83800453,3.88800431 C4.83600577,3.89000307 4.8350046,3.89100424 4.83400343,3.89200541 C4.66400463,4.03600596 4.50000212,4.18600636 4.34300424,4.34300424 C4.18600279,4.5000057 4.03600596,4.66300346 3.893003,4.83200466 C3.893003,4.83200466 3.89200183,4.83200466 3.89200183,4.83300583 C3.86600357,4.8630052 3.84100291,4.89300457 3.81600224,4.9240051 C3.63400368,5.18400559 3.66000195,5.54300397 3.89200183,5.77500385 L4.10200097,5.98500299 C4.40400057,6.28800376 4.47200152,6.73600266 4.30499908,7.10400085 C4.2949981,7.12699917 4.28399953,7.15000108 4.27099861,7.1720018 C4.14799762,7.42000253 4.04099751,7.67800068 3.95200056,7.94200227 C3.94400192,7.97100404 3.93400094,7.99800347 3.92299879,8.02500289 C3.92299879,8.02500289 3.92299879,8.02500289 3.92299879,8.02600406 C3.8749998,8.15200498 3.7999978,8.27200245 3.69699879,8.3730027 C3.50199932,8.56800216 3.24699754,8.66600248 2.99099818,8.66600248 L2.99099818,8.66900241 L2.69399729,8.66900241 C2.36599587,8.66900241 2.09399564,8.9050034 2.03799801,9.2170004 C2.03399691,9.2549984 2.02999937,9.29400116 2.02699943,9.33400151 C2.00899981,9.54899936 2,9.78100282 2,10.0000018 C2,10.0020005 2,10.0040029 2,10.0050005 C2,10.0069992 2,10.0099992 2,10.0110004 C2,10.2320017 2.00899981,10.4499995 2.02699943,10.6650009 L2.02699943,10.6660021 C2.02999937,10.7050012 2.03400048,10.7440004 2.03799801,10.7829996 C2.09399922,11.0950002 2.36499826,11.3319987 2.69199853,11.3319987 C2.69199853,11.3319987 2.69199853,11.3319987 2.6929997,11.3319987 L2.99099818,11.3319987 C3.41599875,11.3319987 3.77899824,11.5979991 3.92299879,11.9729983 C3.92299879,11.9739995 3.92299879,11.9739995 3.92299879,11.9739995 C3.93299977,11.9990002 3.94099841,12.0240008 3.94699827,12.0489979 C3.94799944,12.0499991 3.94799944,12.0519979 3.94999821,12.0539966 C4.03899871,12.319997 4.14699643,12.5779951 4.26999743,12.826997 C4.2709986,12.8279982 4.27199619,12.829997 4.27299736,12.8309981 C4.28399593,12.8499989 4.29299574,12.8699973 4.30299672,12.8909969 C4.36099669,13.017999 4.39399599,13.158996 4.39399599,13.3069976 C4.39399599,13.5829989 4.28199717,13.8329985 4.10099621,14.0129982 L4.10199738,14.0139994 L3.89899927,14.2169975 C3.89599934,14.2189963 3.89400056,14.2219962 3.89100063,14.2239986 C3.88800069,14.2269985 3.88600192,14.2289973 3.88399958,14.2320008 C3.66200067,14.4610007 3.63700002,14.8100017 3.80900115,15.0660011 C3.83800293,15.1010027 3.86700112,15.1360008 3.8960029,15.1700013 C4.03800466,15.3380013 4.18700392,15.4990003 4.34300421,15.6550006 C4.4990045,15.8110009 4.66100465,15.9610013 4.8290047,16.1029995 C4.86300516,16.1319977 4.89700565,16.1599983 4.93100254,16.1879989 C5.16200125,16.3439992 5.46900312,16.3379993 5.69500312,16.1729992 L5.84100243,16.0269999 L5.97800192,15.8900004 L5.9840018,15.8949991 C6.28700257,15.5929995 6.73600264,15.5249986 7.105002,15.6929986 C7.1240028,15.7010008 7.14300359,15.7109982 7.16100321,15.719998 C7.16200438,15.7209992 7.16400314,15.7209992 7.16600192,15.722998 C7.4170026,15.8479977 7.67700307,15.955999 7.94600337,16.0469983 C7.96900168,16.0539993 7.99200359,16.061998 8.01400432,16.0700002 C8.14500393,16.1190003 8.26800493,16.1949999 8.37400389,16.3000013 C8.56900335,16.4950007 8.66700367,16.7500025 8.66700367,17.0060019 L8.6700036,17.0060019 L8.6700036,17.2999993 C8.6700036,17.6440016 8.93100526,17.9280015 9.26700532,17.962002 L9.26700532,17.9659995 C9.50800502,17.9890014 9.75200464,18 10.0000054,18 C10.2480061,18 10.4920057,17.9890014 10.7340066,17.9659995 L10.7330054,17.962002 C11.0680043,17.9280015 11.3310047,17.6440016 11.3310047,17.2999993 L11.3310047,17.0029984 C11.3310047,16.6019973 11.5670057,16.2569974 11.9070033,16.0979972 C11.9760019,16.0649979 12.0490051,16.0409984 12.1250047,16.0249976 C12.3440036,15.9479968 12.5570063,15.8599975 12.7640055,15.7589972 C12.8240078,15.719998 12.8890053,15.6869987 12.956005,15.6629992 C13.0640063,15.6219977 13.182005,15.5989994 13.3060036,15.5989994 C13.5590031,15.5989994 13.7910029,15.6939998 13.9680028,15.8510012 C13.9980022,15.8769995 14.0270039,15.9050037 14.0540034,15.9360006 L14.2240022,16.1070006 L14.2250033,16.1059994 C14.459002,16.3399981 14.8260026,16.3629964 15.0860031,16.174998 C15.0870042,16.174998 15.0880018,16.1739968 15.089003,16.171998 C15.1110037,16.1539984 15.1320033,16.137 15.1530028,16.1189968 C15.3280039,15.9709987 15.4960039,15.8169972 15.6570029,15.6559982 C15.8180019,15.4949992 15.973001,15.3269992 16.1200051,15.1519981 C16.1390023,15.1289998 16.1580031,15.1059979 16.1770039,15.0829996 C16.3600036,14.8319989 16.3440063,14.4829979 16.1320048,14.2479981 L16.1310037,14.2469969 L16.0830011,14.1999991 L15.8970014,14.0139995 L15.8970014,14.0129983 C15.599003,13.7149962 15.5290032,13.2759971 15.6860011,12.912 C15.7010008,12.8779996 15.7169981,12.8439991 15.7359989,12.8119974 C15.8539976,12.5719989 15.9570002,12.322997 16.0449995,12.0669976 C16.0550005,12.0329971 16.0649979,11.9989966 16.079,11.9669985 C16.126999,11.8419988 16.202001,11.7259988 16.3030012,11.6249986 C16.4969995,11.4309967 16.7530025,11.333 17.0090018,11.333 L17.0090018,11.3319988 L17.2960017,11.3319988 L17.2960017,11.3279977 C17.6520002,11.3279977 17.9430012,11.0479988 17.9600032,10.6969991 L17.9700006,10.6980003 C17.9900026,10.4670015 18.0000036,10.2340005 18.0000036,9.99999828 C18.0000036,9.75100707 17.9880074,9.50500866 17.9660031,9.26200665 Z M13.5381424,10.0000085 C13.5381424,10.4034122 13.4714847,10.7912371 13.3468269,11.1522225 C13.3000814,11.2898652 13.2438116,11.4240442 13.1814842,11.5530292 C13.0092142,11.9070904 12.7780805,12.2282577 12.5036588,12.5052733 C12.2283735,12.7814253 11.9080729,13.012559 11.5548784,13.1865592 C11.4241631,13.2514836 11.2891174,13.3077534 11.150608,13.3553656 C10.7896195,13.4817536 10.4017977,13.5492749 9.99839399,13.5510083 C9.99493034,13.5510083 9.99146976,13.5510083 9.98800611,13.5510083 C9.58806299,13.5510083 9.20456841,13.4852173 8.84617995,13.3631565 C8.70161306,13.3146807 8.56223702,13.2566775 8.42805802,13.1908865 C8.0757271,13.0186165 7.75715994,12.7900767 7.4827413,12.5156581 C7.2057257,12.2403727 6.97458892,11.9209389 6.80145534,11.5668777 C6.73479763,11.4335623 6.67679754,11.295056 6.62832175,11.153083 C6.50539425,10.7938279 6.43787295,10.4094666 6.43700625,10.0086599 C6.43787294,9.60871677 6.50452754,9.20617977 6.62832175,8.84778822 C6.67680065,8.70495161 6.73480075,8.56644227 6.80059175,8.43312996 C6.97459203,8.07993545 7.20486212,7.75963491 7.48187771,7.48434958 C7.75889332,7.20906427 8.08006056,6.97879416 8.43412175,6.80566058 C8.56657047,6.74159984 8.70421312,6.68446645 8.84531635,6.63685424 C9.2037048,6.51479343 9.5871994,6.44900241 9.98714251,6.44900241 C9.99060617,6.44900241 9.99406675,6.44900241 9.9975304,6.44900241 C10.4018008,6.45073269 10.7896226,6.51912377 11.1506111,6.64377848 C11.2891205,6.69139068 11.4241631,6.74852408 11.5540148,6.81258481 C11.908076,6.9865851 12.2283766,7.21858547 12.5036619,7.49387078 C12.7772138,7.76915609 13.0057536,8.08858996 13.1788903,8.4391875 C13.2429511,8.57076953 13.3000845,8.70668191 13.3476967,8.84692153 C13.4714878,9.20704336 13.5390122,9.59399852 13.5390122,9.99567192 L13.5390122,9.99999919 L13.5381424,9.99999919 L13.5381424,10.0000085 Z" id="Shape" fill="#99A5A0" fill-rule="nonzero"></path>
                </g>
            </g>
        </g>
    </g>
</svg>