<?xml version="1.0" encoding="UTF-8"?>
<svg width="20px" height="20px" viewBox="0 0 20 20" version="1.1" xmlns="http://www.w3.org/2000/svg" xmlns:xlink="http://www.w3.org/1999/xlink">
    <!-- Generator: Sketch 50 (54983) - http://www.bohemiancoding.com/sketch -->
    <title>e_17</title>
    <desc>Created with Sketch.</desc>
    <defs></defs>
    <g id="开发资源" stroke="none" stroke-width="1" fill="none" fill-rule="evenodd">
        <g id="开发文档" transform="translate(-631.000000, -1921.000000)">
            <g id="10" transform="translate(631.000000, 1921.000000)">
                <g>
                    <rect id="Rectangle" fill="#D8D8D8" opacity="0" x="0" y="0" width="20" height="20"></rect>
                    <path d="M2.394588,2 L7.55275458,2 L11.2371719,8.55918253 L6.81592397,8.55918253 L2.394588,2 Z M9.76628492,9.25097866 C7.3235895,9.25097866 5.343393,11.2095093 5.343393,13.6254893 C5.343393,16.0414547 7.3235895,18 9.76628492,18 C12.2089803,18 14.1891915,16.0414694 14.1891915,13.6254893 C14.1891915,11.209524 12.208995,9.25097866 9.76628492,9.25097866 Z M11.1979502,15.993323 L9.73984844,14.9246346 L8.25522216,15.9531765 L8.78608016,14.1870407 L7.38267156,13.0427125 L9.16881461,13.0197402 L9.78623336,11.2840922 L10.3591901,13.0360043 L12.1440855,13.1076661 L10.7121413,14.2133157 L11.1979502,15.993323 Z M11.2371719,2 L17.1322571,2 L11.9740905,8.55918253 L9.76342256,4.3425568 L11.2371719,2 Z" id="Shape" fill="#EB3C3C" fill-rule="nonzero"></path>
                </g>
            </g>
        </g>
    </g>
</svg>