<?xml version="1.0" encoding="UTF-8"?>
<svg width="20px" height="20px" viewBox="0 0 20 20" version="1.1" xmlns="http://www.w3.org/2000/svg" xmlns:xlink="http://www.w3.org/1999/xlink">
    <!-- Generator: Sketch 50 (54983) - http://www.bohemiancoding.com/sketch -->
    <title>e_18</title>
    <desc>Created with Sketch.</desc>
    <defs></defs>
    <g id="开发资源" stroke="none" stroke-width="1" fill="none" fill-rule="evenodd">
        <g id="开发文档" transform="translate(-663.000000, -1921.000000)">
            <g id="9" transform="translate(663.000000, 1921.000000)">
                <g>
                    <rect id="Rectangle" fill="#D8D8D8" opacity="0" x="0" y="0" width="20" height="20"></rect>
                    <path d="M15.8678038,2 C16.1634684,2 16.4392324,2.05685856 16.6950959,2.17057569 C16.9509595,2.28429282 17.1755508,2.43781095 17.3688699,2.63113006 C17.5621891,2.82444918 17.7157072,3.04904051 17.8294243,3.30490405 C17.9431414,3.56076759 18,3.83653163 18,4.13219616 L18,15.8678038 C18,16.1634684 17.9431414,16.4392324 17.8294243,16.6950959 C17.7157072,16.9509595 17.5621891,17.1755508 17.3688699,17.3688699 C17.1755508,17.5621891 16.9509595,17.7157072 16.6950959,17.8294243 C16.4392324,17.9431414 16.1634684,18 15.8678038,18 L4.13219616,18 C3.83653163,18 3.56076759,17.9431414 3.30490405,17.8294243 C3.04904051,17.7157072 2.82444918,17.5621891 2.63113006,17.3688699 C2.43781095,17.1755508 2.28429282,16.9509595 2.17057569,16.6950959 C2.05685856,16.4392324 2,16.1634684 2,15.8678038 L2,4.13219616 C2,3.83653163 2.05685856,3.56076759 2.17057569,3.30490405 C2.28429282,3.04904051 2.43781095,2.82444918 2.63113006,2.63113006 C2.82444918,2.43781095 3.04904051,2.28429282 3.30490405,2.17057569 C3.56076759,2.05685856 3.83653163,2 4.13219616,2 L15.8678038,2 Z M5.13859275,16.3283582 C5.35465529,16.3283582 5.55934613,16.2885572 5.75266525,16.2089552 C5.94598436,16.1293532 6.11371713,16.018479 6.25586354,15.8763326 C6.39800995,15.7341862 6.50888415,15.5664534 6.58848614,15.3731343 C6.66808813,15.1798152 6.70788913,14.9751244 6.70788913,14.7590618 C6.70788913,14.5429993 6.66808813,14.3383085 6.58848614,14.1449893 C6.50888415,13.9516702 6.39800995,13.7839375 6.25586354,13.641791 C6.11371713,13.4996446 5.94598436,13.3887704 5.75266525,13.3091684 C5.55934613,13.2295665 5.35465529,13.1897655 5.13859275,13.1897655 C4.91115849,13.1897655 4.70362473,13.2295665 4.51599147,13.3091684 C4.32835821,13.3887704 4.16062544,13.4996446 4.01279318,13.641791 C3.86496091,13.7839375 3.75124378,13.9516702 3.67164179,14.1449893 C3.5920398,14.3383085 3.55223881,14.5429993 3.55223881,14.7590618 C3.55223881,14.9751244 3.5920398,15.1798152 3.67164179,15.3731343 C3.75124378,15.5664534 3.86496091,15.7341862 4.01279318,15.8763326 C4.16062544,16.018479 4.32835821,16.1293532 4.51599147,16.2089552 C4.70362473,16.2885572 4.91115849,16.3283582 5.13859275,16.3283582 Z M11.6886994,15.8848614 C11.6886994,14.8500355 11.4896944,13.8749112 11.0916844,12.9594883 C10.6936745,12.0440654 10.1535181,11.2452026 9.47121535,10.5628998 C8.78891258,9.88059701 7.99004975,9.34328358 7.07462687,8.95095949 C6.15920398,8.55863539 5.1840796,8.36247335 4.14925373,8.36247335 C4.13788202,8.63539446 4.14925373,10.3638948 4.14925373,10.6140725 C4.87704335,10.6140725 5.56218905,10.750533 6.20469083,11.0234542 C6.84719261,11.2963753 7.40724947,11.6716418 7.88486141,12.1492537 C8.36247335,12.6268657 8.7405828,13.1869225 9.01918977,13.8294243 C9.29779673,14.4719261 9.43710021,15.1570718 9.43710021,15.8848614 C10.7865435,15.8924425 11.5370765,15.8924425 11.6886994,15.8848614 Z M15.8678038,15.8678038 C15.8678038,14.2530206 15.5607676,12.7377399 14.9466951,11.3219616 C14.3326226,9.90618337 13.4968017,8.66950959 12.4392324,7.6119403 C11.3816631,6.554371 10.1421464,5.71855011 8.7206823,5.10447761 C7.29921819,4.49040512 5.78109453,4.18336887 4.1663113,4.18336887 C4.15493959,4.46766169 4.18336887,5.95735608 4.18336887,6.26439232 C5.51385928,6.26439232 6.76190476,6.51457001 7.92750533,7.01492537 C9.0931059,7.51528074 10.1108742,8.20042644 10.9808102,9.07036247 C11.8507463,9.94029851 12.535892,10.9580668 13.0362473,12.1236674 C13.5366027,13.2892679 13.7867804,14.5316276 13.7867804,15.8507463 C14.196162,15.8507463 15.5152807,15.8905473 15.8678038,15.8678038 Z" id="Shape" fill="#99A5A0" fill-rule="nonzero"></path>
                </g>
            </g>
        </g>
    </g>
</svg>