<?xml version="1.0" standalone="no"?><!DOCTYPE svg PUBLIC "-//W3C//DTD SVG 1.1//EN" "http://www.w3.org/Graphics/SVG/1.1/DTD/svg11.dtd"><svg t="1526301283271" class="icon" style="" viewBox="0 0 1024 1024" version="1.1" xmlns="http://www.w3.org/2000/svg" p-id="4351" xmlns:xlink="http://www.w3.org/1999/xlink" width="16" height="16"><defs><style type="text/css"></style></defs><path d="M177.152 906.24c-10.752-7.68-20.992-14.848-31.744-22.528 2.048-127.488 3.584-254.976 5.632-382.464 105.984-42.496 198.656-120.832 278.016-232.96l78.848 55.808 2.048 1.536 2.048 2.048 2.048 1.536 2.048 1.536 2.048 1.536 2.048 1.536 2.048 1.536 2.048 1.536 2.048 1.536 2.048 1.536 2.048 1.536 2.048 1.536 2.048 1.536 2.048 1.536 2.048 1.536 2.048 1.536 2.048 1.536 2.048 1.536 2.048 1.536 2.048 1.536 2.048 1.536 2.048 1.536 2.048 1.536 2.048 1.536 2.048 1.536 2.048 1.536 38.912 27.648 2.048 1.536 2.048 1.536 2.048 1.536 2.048 1.536 2.048 1.536 2.048 1.536 2.048 1.536 2.048 1.536 2.048 1.536 2.048 1.536 2.048 1.536 2.048 1.536 2.048 1.536 2.048 1.536 2.048 1.536 2.048 1.536 2.048 1.536 2.048 1.536 2.048 1.536 2.048 1.536 2.048 1.536 2.048 1.536 2.048 1.536h0.512L732.16 487.424c-79.36 112.128-121.856 225.28-126.976 339.968-119.808 44.032-239.104 88.064-358.4 132.608-10.752-7.68-20.992-14.848-31.744-22.528L367.616 721.92c38.4 14.336 82.944 1.536 108.032-33.28 29.696-41.984 19.456-99.84-22.016-129.024-41.984-29.696-99.84-19.456-129.024 22.016-24.576 34.816-22.016 81.408 4.608 112.64L177.152 906.24z m222.208 50.176h443.392V860.16h-183.296L399.36 956.416z m403.456-478.208L880.64 368.128 473.088 79.872 395.776 189.952l407.04 288.256z" fill="#231815" p-id="4352"></path></svg>