<?xml version="1.0" encoding="UTF-8"?>
<svg width="19px" height="19px" viewBox="0 0 19 19" version="1.1" xmlns="http://www.w3.org/2000/svg" xmlns:xlink="http://www.w3.org/1999/xlink">
    <!-- Generator: Sketch 50 (54983) - http://www.bohemiancoding.com/sketch -->
    <title>e_3</title>
    <desc>Created with Sketch.</desc>
    <defs></defs>
    <g id="开发资源" stroke="none" stroke-width="1" fill="none" fill-rule="evenodd">
        <g id="开发文档" transform="translate(-152.000000, -1920.000000)">
            <g id="筛选2" transform="translate(152.000000, 1920.000000)">
                <g id="筛选">
                    <rect id="Rectangle" fill="#D8D8D8" opacity="0" x="0" y="0" width="20" height="20"></rect>
                    <path d="M15.2352381,2 L3.7647619,2 C2.78571429,2 2,2.79443512 2,3.77308707 L2,16.2269129 C2,17.2065243 2.79047619,18 3.7647619,18 L15.2352381,18 C16.2142857,18 17,17.2055649 17,16.2269129 L17,3.77404653 C17,2.79347565 16.2104762,2 15.2352381,2 Z M5.62571429,4.31902135 C6.35714286,4.31902135 6.94952381,4.91100983 6.94952381,5.6526745 C6.94952381,6.38954186 6.36190476,6.98632766 5.62571429,6.98632766 C4.89428571,6.98632766 4.30190476,6.39433917 4.30190476,5.6526745 C4.30190476,4.91580715 4.88952381,4.31902135 5.62571429,4.31902135 Z M9.67333333,14.3674742 L4.30190476,14.3674742 L4.30190476,13.4790118 L9.67333333,13.4790118 L9.67333333,14.3674742 Z M12.7419048,12.0484529 L4.30190476,12.0484529 L4.30190476,11.1599904 L12.7419048,11.1599904 L12.7419048,12.0484529 Z M12.7419048,9.73039098 L4.30190476,9.73039098 L4.30190476,8.84096906 L12.7419048,8.84096906 L12.7419048,9.73039098 Z" id="Shape" fill="#99A5A0" fill-rule="nonzero"></path>
                </g>
            </g>
        </g>
    </g>
</svg>