<?xml version="1.0" encoding="UTF-8"?>
<svg width="20px" height="20px" viewBox="0 0 20 20" version="1.1" xmlns="http://www.w3.org/2000/svg" xmlns:xlink="http://www.w3.org/1999/xlink">
    <!-- Generator: Sketch 50 (54983) - http://www.bohemiancoding.com/sketch -->
    <title>e_8</title>
    <desc>Created with Sketch.</desc>
    <defs></defs>
    <g id="开发资源" stroke="none" stroke-width="1" fill="none" fill-rule="evenodd">
        <g id="开发文档" transform="translate(-343.000000, -1919.000000)">
            <g id="21" transform="translate(343.000000, 1919.000000)">
                <g>
                    <rect id="Rectangle" fill="#D8D8D8" opacity="0" x="0" y="0" width="20" height="20"></rect>
                    <path d="M14.1066667,2 C16.24,2 18,3.76 18,5.89333333 L18,14.1066667 C18,16.24 16.24,18 14.1066667,18 L5.89333333,18 C3.76,18 2,16.24 2,14.1066667 L2,5.89333333 C2,3.76 3.76,2 5.89333333,2 L14.1066667,2 Z M5.52,9.09333333 L13.6266667,9.09333333 C14.08,9.09333333 14.48,8.82666666 14.6666667,8.4 C14.8266667,7.97333333 14.7466667,7.49333333 14.4266667,7.2 L12.72,5.49333333 C12.5066667,5.28 12.16,5.28 11.92,5.49333333 C11.7066667,5.70666666 11.7066667,6.05333333 11.92,6.29333333 L13.6266667,8 L5.52,8 C5.2,8 4.96,8.24 4.96,8.56 C4.96,8.88 5.22666667,9.09333333 5.52,9.09333333 Z M14.2133333,10.9066667 L6.08,10.9066667 C5.62666667,10.9066667 5.22666667,11.1733333 5.04,11.6 C4.85333333,12.0266667 4.96,12.5066667 5.28,12.8 L6.98666667,14.5066667 C7.09333334,14.6133333 7.22666667,14.6666667 7.38666667,14.6666667 C7.52,14.6666667 7.68,14.6133333 7.78666667,14.5066667 C8,14.2933333 8,13.9466667 7.78666667,13.7066667 L6.08,12 L14.1866667,12 C14.5066667,12 14.7466667,11.76 14.7466667,11.44 C14.7733333,11.1466667 14.5066667,10.9066667 14.2133333,10.9066667 Z" id="Combined-Shape" fill="#99A5A0" fill-rule="nonzero"></path>
                </g>
            </g>
        </g>
    </g>
</svg>