<?xml version="1.0" encoding="UTF-8"?>
<svg width="48px" height="48px" viewBox="0 0 48 48" version="1.1" xmlns="http://www.w3.org/2000/svg" xmlns:xlink="http://www.w3.org/1999/xlink">
    <!-- Generator: Sketch 50 (54983) - http://www.bohemiancoding.com/sketch -->
    <title>G_18</title>
    <desc>Created with Sketch.</desc>
    <defs></defs>
    <g id="开发资源" stroke="none" stroke-width="1" fill="none" fill-rule="evenodd">
        <g id="开发文档" transform="translate(-395.000000, -2504.000000)">
            <g id="G_18" transform="translate(395.000000, 2504.000000)">
                <rect id="Rectangle" fill="#F5A623" opacity="0" x="0" y="0" width="48" height="48"></rect>
                <g id="xz">
                    <polygon id="Star" fill="#7ED321" points="24 44.1599994 17.7883429 47.1822198 13.9200003 41.4590716 7.02943725 40.9705627 6.5409284 34.0799997 0.817780169 30.2116571 3.84000063 24 0.817780169 17.7883429 6.5409284 13.9200003 7.02943725 7.02943725 13.9200003 6.5409284 17.7883429 0.817780169 24 3.84000063 30.2116571 0.817780169 34.0799997 6.5409284 40.9705627 7.02943725 41.4590716 13.9200003 47.1822198 17.7883429 44.1599994 24 47.1822198 30.2116571 41.4590716 34.0799997 40.9705627 40.9705627 34.0799997 41.4590716 30.2116571 47.1822198"></polygon>
                    <path d="M42.0523425,24.3133225 C42.0529123,31.5936647 37.6677784,38.1574543 30.9417828,40.9439154 C24.2157873,43.7303766 16.4735485,42.1907432 11.3253677,37.0429653 C6.17718697,31.8951874 4.63694769,24.1530691 7.4228824,17.4268554 C10.2088171,10.7006417 16.7722635,6.31499416 24.0526056,6.31499413 C33.9930357,6.3149941 42.0515646,14.3728924 42.0523425,24.3133225 Z" id="Shape" fill="#E3FFC5" fill-rule="nonzero"></path>
                    <path d="M24,12 C17.3733333,12 12,17.3733333 12,24 C12,30.6266667 17.3733333,36 24,36 C25.1066667,36 26,35.1066667 26,34 C26,33.48 25.8,33.0133333 25.48,32.6533333 C25.1733333,32.3066667 24.9733333,31.84 24.9733333,31.3333333 C24.9733333,30.2266667 25.8666667,29.3333333 26.9733333,29.3333333 L29.3333333,29.3333333 C33.0133333,29.3333333 36,26.3466667 36,22.6666667 C36,16.7733333 30.6266667,12 24,12 Z M16.6666667,24 C15.56,24 14.6666667,23.1066667 14.6666667,22 C14.6666667,20.8933333 15.56,20 16.6666667,20 C17.7733333,20 18.6666667,20.8933333 18.6666667,22 C18.6666667,23.1066667 17.7733333,24 16.6666667,24 Z M20.6666667,18.6666667 C19.56,18.6666667 18.6666667,17.7733333 18.6666667,16.6666667 C18.6666667,15.56 19.56,14.6666667 20.6666667,14.6666667 C21.7733333,14.6666667 22.6666667,15.56 22.6666667,16.6666667 C22.6666667,17.7733333 21.7733333,18.6666667 20.6666667,18.6666667 Z M27.3333333,18.6666667 C26.2266667,18.6666667 25.3333333,17.7733333 25.3333333,16.6666667 C25.3333333,15.56 26.2266667,14.6666667 27.3333333,14.6666667 C28.44,14.6666667 29.3333333,15.56 29.3333333,16.6666667 C29.3333333,17.7733333 28.44,18.6666667 27.3333333,18.6666667 Z M31.3333333,24 C30.2266667,24 29.3333333,23.1066667 29.3333333,22 C29.3333333,20.8933333 30.2266667,20 31.3333333,20 C32.44,20 33.3333333,20.8933333 33.3333333,22 C33.3333333,23.1066667 32.44,24 31.3333333,24 Z" id="Shape" fill="#59B932" fill-rule="nonzero"></path>
                </g>
            </g>
        </g>
    </g>
</svg>