<?xml version="1.0" encoding="UTF-8"?>
<svg width="48px" height="48px" viewBox="0 0 48 48" version="1.1" xmlns="http://www.w3.org/2000/svg" xmlns:xlink="http://www.w3.org/1999/xlink">
    <!-- Generator: Sketch 50 (54983) - http://www.bohemiancoding.com/sketch -->
    <title>G_19</title>
    <desc>Created with Sketch.</desc>
    <defs></defs>
    <g id="开发资源" stroke="none" stroke-width="1" fill="none" fill-rule="evenodd">
        <g id="开发文档" transform="translate(-459.000000, -2504.000000)">
            <g id="G_19" transform="translate(459.000000, 2504.000000)">
                <rect id="Rectangle" fill="#F5A623" opacity="0" x="0" y="0" width="48" height="48"></rect>
                <g id="xz">
                    <polygon id="Star" fill="#F5A623" points="24 44.1599994 17.7883429 47.1822198 13.9200003 41.4590716 7.02943725 40.9705627 6.5409284 34.0799997 0.817780169 30.2116571 3.84000063 24 0.817780169 17.7883429 6.5409284 13.9200003 7.02943725 7.02943725 13.9200003 6.5409284 17.7883429 0.817780169 24 3.84000063 30.2116571 0.817780169 34.0799997 6.5409284 40.9705627 7.02943725 41.4590716 13.9200003 47.1822198 17.7883429 44.1599994 24 47.1822198 30.2116571 41.4590716 34.0799997 40.9705627 40.9705627 34.0799997 41.4590716 30.2116571 47.1822198"></polygon>
                    <path d="M42.0523425,24.3133225 C42.0529123,31.5936647 37.6677784,38.1574543 30.9417828,40.9439154 C24.2157873,43.7303766 16.4735485,42.1907432 11.3253677,37.0429653 C6.17718697,31.8951874 4.63694769,24.1530691 7.4228824,17.4268554 C10.2088171,10.7006417 16.7722635,6.31499416 24.0526056,6.31499413 C33.9930357,6.3149941 42.0515646,14.3728924 42.0523425,24.3133225 Z" id="Shape" fill="#F8ECD9" fill-rule="nonzero"></path>
                    <path d="M23.999989,18.5000165 L18.4999945,27.2999901 L17.3999868,35.000022 L30.5999912,35.000022 L35,21.7992918 L29.5000055,27.2999901 L23.999989,18.5000165 Z M13,21.7992918 L17.3999868,35.000022 L18.4999945,27.2993083 L13,21.7992918 Z M23.999989,17.4000088 C25.2145703,17.4000088 26.1999824,16.4145967 26.1999824,15.1992895 C26.1999824,13.9839824 25.2145483,13 23.999989,13 C22.7854297,13 21.7999956,13.9839604 21.7999956,15.1992895 C21.7999956,16.4145967 22.7854077,17.4000088 23.999989,17.4000088 Z M32.7999846,20.6992841 C34.0146099,20.6992841 35,19.7145758 35,18.4999945 C35,17.2839395 34.0145879,16.3000011 32.7999846,16.3000011 C31.5854033,16.3000011 30.5999912,17.2839615 30.5999912,18.4999945 C30.5999912,19.7145758 31.5854033,20.6992841 32.7999846,20.6992841 Z M15.1999934,20.6992841 C16.4145747,20.6992841 17.3999868,19.7145758 17.3999868,18.4999945 C17.3999868,17.2839395 16.4145527,16.3000011 15.1999934,16.3000011 C13.9853901,16.3000011 13,17.2839615 13,18.4999945 C13,19.7145758 13.9853901,20.6992841 15.1999934,20.6992841 Z" id="Shape" fill="#F08549" fill-rule="nonzero"></path>
                </g>
            </g>
        </g>
    </g>
</svg>