<?xml version="1.0" encoding="UTF-8"?>
<svg width="24px" height="24px" viewBox="0 0 24 24" version="1.1" xmlns="http://www.w3.org/2000/svg" xmlns:xlink="http://www.w3.org/1999/xlink">
    <!-- Generator: Sketch 50 (54983) - http://www.bohemiancoding.com/sketch -->
    <title>G_2</title>
    <desc>Created with Sketch.</desc>
    <defs></defs>
    <g id="开发资源" stroke="none" stroke-width="1" fill="none" fill-rule="evenodd">
        <g id="开发文档" transform="translate(-438.000000, -2598.000000)">
            <g id="D_2" transform="translate(438.000000, 2598.000000)">
                <rect id="Rectangle-17" fill="#A06E6E" opacity="0" x="0" y="0" width="24" height="24"></rect>
                <path d="M22.3223981,6.4 L20.000809,6.4 C19.5813711,2.8056 16.3793817,0 12.5,0 C8.62061831,0 5.41862895,2.8056 4.99961043,6.4 L2.67760189,6.4 C2.19316245,6.40004416 1.73238837,6.59977897 1.41381551,6.94782189 C1.09524266,7.29586482 0.949969917,7.75824011 1.01536925,8.216 L3.0743902,22.616 C3.18784974,23.408862 3.89794503,23.9999489 4.73704226,24 L20.2633772,24 C21.1023836,23.9999235 21.8123439,23.4087998 21.9256098,22.616 L23.9846308,8.216 C24.0500301,7.75824011 23.9047573,7.29586482 23.5861845,6.94782189 C23.2676116,6.59977897 22.8068376,6.40004416 22.3223981,6.4 Z M5.78899266,9.60000001 C5.48489687,9.60655811 5.20090349,9.45561917 5.04679202,9.20552963 C4.89268054,8.95544008 4.89259924,8.64538735 5.04657954,8.39522433 C5.20055984,8.14506132 5.48447402,7.99398694 5.78857321,8.0004 C6.24445183,8.01001389 6.60878913,8.36514626 6.60890316,8.80000442 C6.60901719,9.23486259 6.24486618,9.59016869 5.78899266,9.60000001 Z M6.69497865,6.4 C7.10393066,3.6908 9.5475762,1.59999999 12.5,1.59999999 C15.4524238,1.59999999 17.8960693,3.6908 18.3050213,6.4 L6.69497865,6.4 Z M19.2110073,9.60000001 C18.9069116,9.60655811 18.6229182,9.45561917 18.4688067,9.20552963 C18.3146952,8.95544008 18.3146139,8.64538735 18.4685942,8.39522433 C18.6225745,8.14506132 18.9064887,7.99398694 19.2105879,8.0004 C19.6664665,8.01001389 20.0308038,8.36514626 20.0309178,8.80000442 C20.0310319,9.23486259 19.6668809,9.59016869 19.2110073,9.60000001 Z" id="Shape" fill="#F5A623" fill-rule="nonzero"></path>
                <text id="9.9" font-family="SFProText-Bold, SF Pro Text" font-size="10" font-weight="bold" letter-spacing="-0.5" fill="#FFFFFF">
                    <tspan x="6" y="20">9.9</tspan>
                </text>
            </g>
        </g>
    </g>
</svg>