<?xml version="1.0" encoding="UTF-8"?>
<svg width="48px" height="48px" viewBox="0 0 48 48" version="1.1" xmlns="http://www.w3.org/2000/svg" xmlns:xlink="http://www.w3.org/1999/xlink">
    <!-- Generator: Sketch 50 (54983) - http://www.bohemiancoding.com/sketch -->
    <title>G_23</title>
    <desc>Created with Sketch.</desc>
    <defs></defs>
    <g id="开发资源" stroke="none" stroke-width="1" fill="none" fill-rule="evenodd">
        <g id="开发文档" transform="translate(-715.000000, -2504.000000)">
            <g id="G_23" transform="translate(715.000000, 2504.000000)">
                <rect id="Rectangle" fill="#F5A623" opacity="0" x="0" y="0" width="48" height="48"></rect>
                <g id="xz">
                    <polygon id="Star" fill="#F27272" points="24 44.1599994 17.7883429 47.1822198 13.9200003 41.4590716 7.02943725 40.9705627 6.5409284 34.0799997 0.817780169 30.2116571 3.84000063 24 0.817780169 17.7883429 6.5409284 13.9200003 7.02943725 7.02943725 13.9200003 6.5409284 17.7883429 0.817780169 24 3.84000063 30.2116571 0.817780169 34.0799997 6.5409284 40.9705627 7.02943725 41.4590716 13.9200003 47.1822198 17.7883429 44.1599994 24 47.1822198 30.2116571 41.4590716 34.0799997 40.9705627 40.9705627 34.0799997 41.4590716 30.2116571 47.1822198"></polygon>
                    <path d="M42.0523425,24.3133225 C42.0529123,31.5936647 37.6677784,38.1574543 30.9417828,40.9439154 C24.2157873,43.7303766 16.4735485,42.1907432 11.3253677,37.0429653 C6.17718697,31.8951874 4.63694769,24.1530691 7.4228824,17.4268554 C10.2088171,10.7006417 16.7722635,6.31499416 24.0526056,6.31499413 C33.9930357,6.3149941 42.0515646,14.3728924 42.0523425,24.3133225 Z" id="Shape" fill="#FFD5D5" fill-rule="nonzero"></path>
                    <g id="心" transform="translate(2.000000, 2.000000)" fill-rule="nonzero">
                        <rect id="Rectangle-path" fill="#000000" opacity="0" x="0" y="0" width="44" height="44"></rect>
                        <path d="M32.337015,16.239062 C29.6504421,13.5524892 25.2945365,13.5524892 22.6080496,16.239062 L21.8783557,16.9687559 L21.3919504,16.4823506 C18.7053775,13.7957777 14.3495579,13.7957777 11.662985,16.4823506 C8.97641216,19.1689235 8.97641216,23.5248291 11.662985,26.211316 L21.8784417,36.4267726 L32.3371868,25.9680274 C35.0235878,23.2814545 35.0235878,18.9256349 32.337015,16.239062 Z" id="Shape" fill="#EC5353"></path>
                        <path d="M31.6168601,21.0519823 L30.2694487,21.0519823 C30.2694487,19.5249618 29.0063418,18.2870346 27.4792354,18.2870346 L27.4792354,16.9396232 C29.8147543,16.9397091 31.6168601,18.8063539 31.6168601,21.0519823 Z" id="Shape" fill="#FFFFFF"></path>
                        <path d="M21.088061,6.69904356 L22.7985286,6.69904356 L22.7985286,11.9443395 L21.088061,11.9443395 L21.088061,6.69904356 Z M25.2241003,13.2850913 L24.0145873,12.0756873 L26.6344534,9.45582123 L27.8439664,10.6652252 L25.2241003,13.2850913 Z M18.7757278,13.2858549 L16.1558617,10.6659888 L17.3652657,9.45647579 L19.9852408,12.0763419 L18.7757278,13.2858549 Z" id="Shape" fill="#EC5353"></path>
                    </g>
                </g>
            </g>
        </g>
    </g>
</svg>