<?xml version="1.0" standalone="no"?><!DOCTYPE svg PUBLIC "-//W3C//DTD SVG 1.1//EN" "http://www.w3.org/Graphics/SVG/1.1/DTD/svg11.dtd"><svg t="1526569464753" class="icon" style="" viewBox="0 0 1024 1024" version="1.1" xmlns="http://www.w3.org/2000/svg" p-id="1544" xmlns:xlink="http://www.w3.org/1999/xlink" width="24" height="24"><defs><style type="text/css"></style></defs><path d="M857.2 424.9c-8.3-28.7-24.3-84.5-47.4-168.9-35.5-130-162.5-128-162.5-128S614 224 512 224s-135.4-96-135.4-96-126.9-2-162.5 128c-23.1 84.5-39 140.2-47.4 168.9-3.7 12.6 4 25.6 16.8 28.6l72.5 17.1L256 400c0-8.8 7.2-16 16-16 8.8 0 16 7.2 16 16l0 78.3L288 496l0 336c0 0 29.8 32 224 32s224-32 224-32L736 496l0-17.7L736 400c0-8.8 7.2-16 16-16 8.8 0 16 7.2 16 16l0 70.7 72.5-17.1C853.2 450.5 860.9 437.5 857.2 424.9z" p-id="1545" fill="#495C72"></path></svg>