<?xml version="1.0" encoding="UTF-8"?>
<svg width="24px" height="24px" viewBox="0 0 24 24" version="1.1" xmlns="http://www.w3.org/2000/svg" xmlns:xlink="http://www.w3.org/1999/xlink">
    <!-- Generator: Sketch 50 (54983) - http://www.bohemiancoding.com/sketch -->
    <title>G_4</title>
    <desc>Created with Sketch.</desc>
    <defs>
        <linearGradient x1="50%" y1="0%" x2="50%" y2="100%" id="linearGradient-1">
            <stop stop-color="#F1F434" offset="0%"></stop>
            <stop stop-color="#E91E63" offset="100%"></stop>
        </linearGradient>
    </defs>
    <g id="开发资源" stroke="none" stroke-width="1" fill="none" fill-rule="evenodd">
        <g id="开发文档" transform="translate(-527.000000, -2596.000000)">
            <g id="D_4" transform="translate(527.000000, 2596.000000)">
                <path d="M2,17.3875 L2,19.0125 C7.25049703,19.0125 9.25248509,24 9.25248509,24 L13.7097416,24 L13.7852883,24 L13.7852883,23.8875 C14.1630219,23.0625 16.27833,19.0125 20.9622267,19.0125 L20.9244533,18.975 L21,18.975 L21,17.3875 C21,16.8352153 20.5522847,16.3875 20,16.3875 L3,16.3875 C2.44771525,16.3875 2,16.8352153 2,17.3875 Z M7.21272366,14.175 C10.5367793,14.175 11.1033797,11.475 11.1033797,11.475 L12.0854871,11.475 C12.0854871,11.475 13.2564612,14.2125 15.7117296,14.2125 C18.1292247,14.2125 19.5646123,12.2625 19.5646123,10.275 C19.5646123,9.11249999 18.7713718,7.8375 18.0914513,6.9375 L18.0914513,0.56250001 C18.0914513,0.2625 17.8270378,1.07257953e-15 17.5248509,1.07257953e-15 C17.222664,1.07257953e-15 16.9582505,0.2625 16.9582505,0.56250001 L16.9582505,6.075 L11.8966203,9.60000001 L10.8389662,9.60000001 L6.15506958,5.85000001 L6.15506958,0.56250001 C6.15506958,0.2625 5.89065606,0 5.58846917,0 C5.28628229,0 5.02186877,0.2625 5.02186879,0.56250001 L5.02186879,7.125 C4.30417495,8.21250001 3.43538768,9.675 3.43538768,10.3875 C3.39761431,11.625 3.85089463,14.175 7.21272366,14.175 Z" id="Shape" fill="url(#linearGradient-1)" fill-rule="nonzero"></path>
                <rect id="Rectangle-25" fill="#D8D8D8" opacity="0" x="0" y="0" width="24" height="24"></rect>
            </g>
        </g>
    </g>
</svg>