<?xml version="1.0" encoding="UTF-8"?>
<svg width="128px" height="128px" viewBox="0 0 128 128" version="1.1" xmlns="http://www.w3.org/2000/svg" xmlns:xlink="http://www.w3.org/1999/xlink">
    <!-- Generator: Sketch 50 (54983) - http://www.bohemiancoding.com/sketch -->
    <title>G_8</title>
    <desc>Created with Sketch.</desc>
    <defs></defs>
    <g id="开发资源" stroke="none" stroke-width="1" fill="none" fill-rule="evenodd">
        <g id="开发文档" transform="translate(-1043.000000, -2565.000000)" fill-rule="nonzero">
            <g id="D_8" transform="translate(1043.000000, 2565.000000)">
                <g id="Group">
                    <rect id="Rectangle-path" fill="#000000" opacity="0" x="0" y="0" width="128" height="128"></rect>
                    <path d="M124,32 L97.7375,32 C97.8,31.975 97.8625,31.9625 97.9375,31.9375 C105.8625,29.4125 111.225,25.8125 113.875,21.2375 C116.175,17.275 116.2,12.75 113.95,8.8375 C112.4125,6.1625 109.9125,3.925 106.725,2.35 C103.6,0.8125 99.95,0 96.1625,0 C90.65,0 85.2875,1.7 80.2125,5.0375 C76.325,7.6 72.6125,11.1375 69.1875,15.55 C67.1375,18.1875 65.425,20.825 64.0875,23.125 C62.7375,20.825 61.0375,18.1875 58.9875,15.55 C55.5625,11.1375 51.85,7.6 47.9625,5.0375 C42.8875,1.7 37.525,0 32,0 C28.2125,0 24.55,0.8125 21.4375,2.35 C18.25,3.925 15.7625,6.1625 14.2125,8.8375 C11.9625,12.75 11.9875,17.2625 14.2875,21.2375 C16.95,25.825 22.3125,29.425 30.225,31.9375 C30.2875,31.9625 30.35,31.975 30.425,32 L4,32 C1.7875,32 0,33.7875 0,36 L0,60 C0,62.2125 1.7875,64 4,64 L8,64 L8,124 C8,126.2125 9.7875,128 12,128 L116,128 C118.2125,128 120,126.2125 120,124 L120,104.1375 C120,101.925 118.2125,100.1375 116,100.1375 C113.7875,100.1375 112,101.925 112,104.1375 L112,120 L16,120 L16,64 L36.925,64 C39.1375,64 40.925,62.2125 40.925,60 C40.925,57.7875 39.1375,56 36.925,56 L8,56 L8,40 L120,40 L120,56 L71.15,56 C68.9375,56 67.15,57.7875 67.15,60 C67.15,62.2125 68.9375,64 71.15,64 L112,64 L112,80.7625 C112,82.975 113.7875,84.7625 116,84.7625 C118.2125,84.7625 120,82.975 120,80.7625 L120,64 L124,64 C126.2125,64 128,62.2125 128,60 L128,36 C128,33.7875 126.2125,32 124,32 Z M75.5,20.45 C81.9375,12.1875 88.8875,8 96.1625,8 C101.7375,8 105.6375,10.425 107.0125,12.8375 C107.85,14.2875 107.825,15.725 106.95,17.225 C106.0375,18.8 103.325,21.825 95.5,24.325 C89.0375,26.3875 80.6625,27.5875 70.55,27.9125 C71.8125,25.7 73.4625,23.075 75.5,20.45 Z M21.2125,17.225 C20.3375,15.7125 20.3125,14.275 21.15,12.8375 C22.5375,10.425 26.425,8 32,8 C44.4125,8 53.325,20.4 57.5875,27.9125 C47.4875,27.5875 39.1125,26.375 32.65,24.325 C24.8375,21.825 22.125,18.8 21.2125,17.225 Z" id="Shape" fill-opacity="0.16" fill="#99A5A0"></path>
                    <path d="M50.175,56 C47.9625,56 46.175,57.7875 46.175,60 C46.175,62.2125 47.9625,64 50.175,64 L56.025,64 C58.2375,64 60.025,62.2125 60.025,60 C60.025,57.7875 58.2375,56 56.025,56 L50.175,56 Z" id="Shape" fill-opacity="0.16" fill="#99A5A0"></path>
                    <path d="M112,92.1375 C112,94.346639 113.790861,96.1375 116,96.1375 C118.209139,96.1375 120,94.346639 120,92.1375 C120,89.928361 118.209139,88.1375 116,88.1375 C113.790861,88.1375 112,89.928361 112,92.1375 Z" id="Shape" fill-opacity="0.16" fill="#99A5A0"></path>
                </g>
            </g>
        </g>
    </g>
</svg>