<?xml version="1.0" encoding="UTF-8"?>
<svg width="127px" height="40px" viewBox="0 0 127 40" version="1.1" xmlns="http://www.w3.org/2000/svg" xmlns:xlink="http://www.w3.org/1999/xlink">
    <!-- Generator: Sketch 50 (54983) - http://www.bohemiancoding.com/sketch -->
    <title>logo_BAI</title>
    <desc>Created with Sketch.</desc>
    <defs>
        <linearGradient x1="50%" y1="0%" x2="50%" y2="100%" id="linearGradient-1">
            <stop stop-color="#F0F0F0" offset="0%"></stop>
            <stop stop-color="#FFFFFF" offset="100%"></stop>
        </linearGradient>
    </defs>
    <g id="开发资源" stroke="none" stroke-width="1" fill="none" fill-rule="evenodd">
        <g id="开发文档" transform="translate(-799.000000, -2944.000000)" fill="url(#linearGradient-1)">
            <g id="图像" transform="translate(0.000000, 2762.000000)">
                <g id="logo_BAI" transform="translate(799.000000, 182.000000)">
                    <path d="M31.2418605,29.2139535 C32.269367,29.2139535 33.1023256,30.0469121 33.1023256,31.0744186 C33.1023256,32.1019251 32.269367,32.9348837 31.2418605,32.9348837 C30.214354,32.9348837 29.3813953,32.1019251 29.3813953,31.0744186 C29.3813953,30.0469121 30.214354,29.2139535 31.2418605,29.2139535 Z M20.2604651,1.54062079e-15 C14.740683,-0.00748340463 9.47040404,2.2986854 5.73023256,6.35813953 L7.93023256,6.35813953 C10.9395349,6.35813953 11.0976744,6.02790698 11.0837209,8.38139535 C11.0511628,13.4697674 11.0837209,18.5767442 11.0837209,23.6744186 C11.0836804,24.2461811 11.4930961,24.7359128 12.055814,24.8372093 L12.3767442,24.8372093 L12.3767442,24.8651163 L28.5488372,24.8651163 C29.2020605,24.8651213 29.7323221,24.3369392 29.7348837,23.6837209 L29.7348837,12.9209302 L16.3209302,12.9209302 L16.3209302,17.427907 L27.4418605,17.427907 L27.4418605,20.4930233 L14.6697674,20.4930233 C14.0173008,20.4930233 13.4883721,19.9640945 13.4883721,19.3116279 L13.4883721,9.76744186 L16.0093023,9.76744186 L30.6976744,9.76744186 C31.8379061,9.76998699 32.7623315,10.6923351 32.7674419,11.8325581 L32.7674419,25.9767442 C32.7623315,27.1169672 31.8379061,28.0393153 30.6976744,28.0418605 L9.90232558,28.0418605 C8.76209392,28.0393153 7.83766846,27.1169672 7.83255814,25.9767442 L7.83255814,9.76744186 L3.18139535,9.76744186 C-1.36383872,17.5033998 -0.137534272,27.3290425 6.16965148,33.7105475 C12.4768372,40.0920524 22.287441,41.4333689 30.0761104,36.9790645 C37.8647797,32.5247601 41.6835239,23.388882 39.3816182,14.7167756 C37.0797125,6.04466931 29.2328767,0.00527822682 20.2604651,1.54062079e-15 Z M9.45581395,29.2139535 C10.4833205,29.2139535 11.3162791,30.0469121 11.3162791,31.0744186 C11.3162791,32.1019251 10.4833205,32.9348837 9.45581395,32.9348837 C8.42830744,32.9348837 7.59534884,32.1019251 7.59534884,31.0744186 C7.59534884,30.0469121 8.42830744,29.2139535 9.45581395,29.2139535 Z" id="Shape"></path>
                    <path d="M50.3813953,7.37674419 L50.3813953,6.18139535 L52.7069767,6.18139535 L52.7069767,7.29302326 L65.2883721,7.29302326 C66.6031008,7.29302326 67.6124031,7.57209302 68.3162791,8.13023256 C68.9285104,8.57275216 69.2916793,9.2817962 69.2930233,10.0372093 L69.2930233,19.3069767 C69.3415047,20.0094367 69.2085672,20.712564 68.9069767,21.3488372 C68.3116279,22.3534884 67.1488372,22.8511628 65.427907,22.8511628 L51.627907,22.8511628 C48.855814,22.8511628 47.4713178,21.8682171 47.4744186,19.9023256 L47.4744186,9.98139535 C47.4846342,9.20408885 47.8825575,8.48328924 48.5348837,8.06046512 C49.08699,7.69852138 49.7131829,7.46489104 50.3674419,7.37674419 L50.3813953,7.37674419 Z M52.7069767,32.7674419 C52.0924081,33.2095727 51.347089,33.4323494 50.5906977,33.4 C49.7170547,33.443215 48.8679508,33.1035734 48.2651163,32.4697674 L48.2651163,33.2744186 L47.4883721,33.2744186 L47.4883721,25.7860465 L48.2837209,25.7860465 L48.2837209,28.4744186 C48.8963691,27.8596051 49.7427827,27.5362751 50.6093023,27.5860465 C51.3708373,27.5531873 52.1197619,27.7885637 52.7255814,28.2511628 C53.3831749,28.8163653 53.7406808,29.655129 53.6930233,30.5209302 C53.7490437,31.385529 53.3812824,32.2234003 52.7069767,32.7674419 Z M50.6511628,28.4186047 C50.0561968,28.3770055 49.4650164,28.5412223 48.9767442,28.8837209 C48.495766,29.2861611 48.237846,29.8954755 48.2837209,30.5209302 C48.2437354,31.1340244 48.5168108,31.7256878 49.0093023,32.0930233 C49.4875598,32.4422793 50.0685203,32.6222952 50.6604651,32.6046512 C51.2331197,32.627796 51.795328,32.4464384 52.2465116,32.0930233 C52.6981585,31.6994877 52.9420541,31.1189475 52.9069767,30.5209302 C52.9112169,30.2383911 52.868786,29.9570899 52.7813953,29.6883721 C52.6277155,29.2459172 52.302539,28.883865 51.8790698,28.6837209 C51.4944804,28.5063828 51.0745736,28.4189022 50.6511628,28.427907 L50.6511628,28.4186047 Z M61.1255814,33.2976744 L61.1255814,32.5116279 C60.5023301,33.1375143 59.639682,33.4646088 58.7581395,33.4093023 C58.0188656,33.4317835 57.2933942,33.2057901 56.6976744,32.7674419 C56.0244103,32.2564002 55.6495344,31.4438784 55.6976744,30.6 C55.650215,29.7504593 56.0199519,28.9311361 56.6883721,28.4046512 C57.3005629,27.9559121 58.0460887,27.7265195 58.8046512,27.7534884 C59.6675702,27.6982151 60.5132338,28.0128019 61.1302326,28.6186047 L61.1302326,27.7534884 L61.9255814,27.7534884 L61.9255814,33.2976744 L61.1255814,33.2976744 Z M60.4325581,29.0372093 C59.9376895,28.7013355 59.3459427,28.5378695 58.7488372,28.572093 C58.1737692,28.5466215 57.6083574,28.7263005 57.1534884,29.0790698 C56.6974576,29.4527381 56.4455286,30.0204412 56.4744186,30.6093023 C56.4500012,31.1933431 56.7014967,31.7549017 57.1534884,32.1255814 C57.6169276,32.457485 58.1796408,32.6215414 58.7488372,32.5906977 C59.340654,32.6127146 59.92304,32.4376716 60.4046512,32.0930233 C60.8773107,31.7453866 61.1472579,31.1863347 61.1255814,30.6 C61.1617594,29.997493 60.9033975,29.4148782 60.4325581,29.0372093 Z M64.9767442,27.1767442 C64.8186047,27.1767442 64.6930233,27.0697674 64.6,26.855814 L64.6,25.9953488 C64.7162791,25.7860465 64.8418605,25.6837209 64.9767442,25.6837209 C65.1116279,25.6837209 65.2232558,25.772093 65.3953488,25.9488372 L65.3953488,26.9023256 C65.2988471,27.0451616 65.1471229,27.1412536 64.9767442,27.1674419 L64.9767442,27.1767442 Z M64.6,33.2976744 L64.6,27.7162791 L65.3953488,27.7162791 L65.3953488,33.2976744 L64.6,33.2976744 Z M72.5069767,33.0744186 C71.9941347,33.3110104 71.4344632,33.4286686 70.8697674,33.4186047 C70.1192756,33.4466149 69.3784762,33.2419203 68.7488372,32.8325581 C68.0505184,32.3517041 67.6496291,31.5446506 67.6883721,30.6976744 C67.6334665,29.8042864 68.0386802,28.9447422 68.7627907,28.4186047 C69.4219984,27.9699639 70.2078934,27.7449566 71.0046512,27.7767442 C71.5225843,27.7652874 72.0363325,27.8718543 72.5069767,28.0883721 C73.1193688,28.3978806 73.5673517,28.9578592 73.7348837,29.6232558 L73,29.9488372 C72.8971922,29.5302536 72.6522356,29.1603527 72.3069767,28.9023256 C71.9052762,28.6659854 71.4418301,28.5557954 70.9767442,28.5860465 C70.3565156,28.5562768 69.7436884,28.7311368 69.2325581,29.0837209 C68.7234533,29.4587104 68.4396533,30.066603 68.4790698,30.6976744 C68.451923,31.3164641 68.768585,31.8996947 69.3023256,32.2139535 C69.7779778,32.487797 70.3213445,32.6216232 70.8697674,32.6 C71.3226469,32.609078 71.7719931,32.5185736 72.1860465,32.3348837 C72.6390504,32.0805561 72.9483428,31.6303638 73.0232558,31.1162791 L73.7953488,31.4046512 C73.6345338,32.126534 73.1557955,32.7369254 72.4930233,33.0651163 L72.5069767,33.0744186 Z M81.1534884,33.3069767 L81.1534884,32.5116279 C80.5323474,33.1378186 79.6709357,33.4650872 78.7906977,33.4093023 C78.0560632,33.4293652 77.3357777,33.2034575 76.744186,32.7674419 C76.0698337,32.2568795 75.6933098,31.4445639 75.7395349,30.6 C75.69376,29.7476712 76.0692473,28.9271618 76.744186,28.4046512 C77.3560453,27.9552526 78.1018061,27.7257877 78.8604651,27.7534884 C79.7235602,27.6970158 80.5696983,28.0117792 81.1860465,28.6186047 L81.1860465,27.7534884 L81.9860465,27.7534884 L81.9860465,33.2976744 L81.1534884,33.3069767 Z M80.4651163,29.0372093 C79.9699543,28.7019708 79.3784265,28.5385653 78.7813953,28.572093 C78.2153516,28.5494991 77.6592256,28.7255508 77.2093023,29.0697674 C76.7532716,29.4434357 76.5013425,30.0111389 76.5302326,30.6 C76.5058151,31.1840408 76.7573107,31.7455994 77.2093023,32.1162791 C77.6724103,32.4488632 78.2353683,32.6129909 78.8046512,32.5813953 C79.3875301,32.6009642 79.9608291,32.4294645 80.4372093,32.0930233 C80.9087619,31.7449042 81.1770616,31.185656 81.1534884,30.6 C81.1907776,29.9983094 80.9342169,29.4158473 80.4651163,29.0372093 Z M85.0046512,27.1767442 C84.8527132,27.1767442 84.7271318,27.0697674 84.627907,26.855814 L84.627907,25.9953488 C84.7488372,25.7860465 84.8744186,25.6837209 85.0046512,25.6837209 C85.1732919,25.7176568 85.3237742,25.8119149 85.427907,25.9488372 L85.427907,26.9023256 C85.3291573,27.045011 85.1761279,27.1408645 85.0046512,27.1674419 L85.0046512,27.1767442 Z M84.6511628,33.2883721 L84.6511628,27.7069767 L85.4511628,27.7069767 L85.4511628,33.2883721 L84.6511628,33.2883721 Z M93.0232558,32.7906977 C91.7052584,33.6243592 90.0249742,33.6243592 88.7069767,32.7906977 C88.0038712,32.2892337 87.6070513,31.462233 87.655814,30.6 C87.6103984,29.7194218 88.0216788,28.8775273 88.744186,28.372093 C89.3766966,27.9343784 90.1336031,27.7125265 90.9023256,27.7395349 C91.6684519,27.7101575 92.4231421,27.9323174 93.0511628,28.372093 C93.7507113,28.8811802 94.1474473,29.7078593 94.1069767,30.572093 C94.15286,31.4491034 93.7431972,32.2877694 93.0232558,32.7906977 Z M92.5860465,29.0372093 C91.5393062,28.3927423 90.2188334,28.3927423 89.172093,29.0372093 C88.7097363,29.4116468 88.4411351,29.9748076 88.4411351,30.5697674 C88.4411351,31.1647273 88.7097363,31.7278881 89.172093,32.1023256 C90.2121455,32.7467446 91.5273894,32.7467446 92.5674419,32.1023256 C93.0526468,31.7470361 93.3283689,31.1729059 93.3023256,30.572093 C93.3326485,29.9673614 93.06078,29.3870266 92.5767442,29.0232558 L92.5860465,29.0372093 Z M97.2093023,33.3116279 C96.9395349,33.3116279 96.8046512,33.2139535 96.8046512,33.0232558 L96.8046512,32.6325581 C96.8046512,32.4418605 96.9395349,32.3488372 97.2093023,32.3488372 C97.4790698,32.3488372 97.5953488,32.4418605 97.5953488,32.6325581 L97.5953488,33.0232558 C97.5953488,33.2139535 97.4651163,33.3116279 97.2093023,33.3116279 Z M105.116279,33.0651163 C104.603286,33.3012501 104.04372,33.418886 103.47907,33.4093023 C102.741299,33.4284793 102.014961,33.2241969 101.395349,32.8232558 C100.694219,32.347299 100.28671,31.5445765 100.316279,30.6976744 C100.261373,29.8042864 100.666587,28.9447422 101.390698,28.4186047 C102.049905,27.9699639 102.8358,27.7449566 103.632558,27.7767442 C104.150447,27.7657747 104.664087,27.8723192 105.134884,28.0883721 C105.747276,28.3978806 106.195259,28.9578592 106.362791,29.6232558 L105.627907,29.9488372 C105.525099,29.5302536 105.280143,29.1603527 104.934884,28.9023256 C104.532544,28.667579 104.069591,28.5575064 103.604651,28.5860465 C102.987225,28.5511679 102.375159,28.7176498 101.860465,29.0604651 C101.344089,29.4400051 101.059401,30.0585884 101.106977,30.6976744 C101.069099,31.3226753 101.3831,31.9165857 101.92093,32.2372093 C102.396582,32.5110528 102.939949,32.644879 103.488372,32.6232558 C103.941211,32.6318806 104.39046,32.5413959 104.804651,32.3581395 C105.266571,32.109203 105.585082,31.6581233 105.665116,31.1395349 L106.432558,31.427907 C106.262966,32.1441302 105.77936,32.7456472 105.116279,33.0651163 Z M113.697674,32.7906977 C112.379677,33.6243592 110.699393,33.6243592 109.381395,32.7906977 C108.691128,32.2759232 108.310698,31.4449365 108.372093,30.5860465 C108.323341,29.7162781 108.721359,28.8816659 109.427907,28.372093 C110.060706,27.9349841 110.817408,27.7131922 111.586047,27.7395349 C112.352173,27.7101575 113.106863,27.9323174 113.734884,28.372093 C114.414267,28.9008315 114.811593,29.7135321 114.811593,30.5744186 C114.811593,31.4353051 114.414267,32.2480057 113.734884,32.7767442 L113.697674,32.7906977 Z M113.260465,29.0372093 C112.213725,28.3927423 110.893252,28.3927423 109.846512,29.0372093 C109.384155,29.4116468 109.115554,29.9748076 109.115554,30.5697674 C109.115554,31.1647273 109.384155,31.7278881 109.846512,32.1023256 C110.886564,32.7467446 112.201808,32.7467446 113.24186,32.1023256 C113.727065,31.7470361 114.002787,31.1729059 113.976744,30.572093 C114.007067,29.9673614 113.735199,29.3870266 113.251163,29.0232558 L113.260465,29.0372093 Z M125.227907,33.2883721 L125.227907,29.8 C125.227907,28.9767442 124.734884,28.5627907 123.744186,28.5627907 C123.3034,28.5465018 122.867299,28.6579498 122.488372,28.8837209 C122.124724,29.1112171 121.910161,29.5155178 121.925581,29.944186 L121.925581,33.2883721 L121.125581,33.2883721 L121.125581,29.8 C121.125581,28.9767442 120.618605,28.5627907 119.604651,28.5627907 C119.131671,28.5483421 118.670959,28.7146642 118.316279,29.027907 C117.971037,29.3552878 117.787319,29.8179853 117.813953,30.2930233 L117.813953,33.3023256 L117.013953,33.3023256 L117.013953,27.8744186 L117.813953,27.8744186 L117.813953,28.4186047 C118.340335,27.9534263 119.028845,27.7144529 119.730233,27.7534884 C120.47306,27.6907531 121.195158,28.0183393 121.637209,28.6186047 C122.055814,28.0418605 122.748837,27.7534884 123.716279,27.7534884 C125.266667,27.7534884 126.04186,28.4031008 126.04186,29.7023256 L126.04186,33.2883721 L125.227907,33.2883721 Z M66.9302326,16.0325581 L49.8325581,16.0325581 L49.8325581,19.7906977 C49.8029273,20.1510702 49.9589594,20.5017041 50.2465116,20.7209302 C50.6839063,20.9601289 51.1825903,21.0637515 51.6790698,21.0186047 L65.2976744,21.0186047 C66.3953488,21.0186047 66.944186,20.5937984 66.944186,19.744186 L66.944186,16.0232558 L66.9302326,16.0325581 Z M49.8325581,14.227907 L66.9302326,14.227907 L66.9302326,10.3906977 C66.9537067,10.0460403 66.81425,9.71031113 66.5534884,9.48372093 C66.2296585,9.24478813 65.8347846,9.12190208 65.4325581,9.13488372 L51.627907,9.13488372 C51.137813,9.10302137 50.6499999,9.22497465 50.2325581,9.48372093 C49.9986726,9.62711364 49.8533549,9.87923105 49.8465116,10.1534884 L49.8465116,14.2372093 L49.8325581,14.227907 Z M74.9906977,8.8372093 L74.9906977,6.97674419 L78.4325581,6.97674419 L78.4325581,6.21860465 L80.7581395,6.21860465 L80.7581395,6.97674419 L92.2093023,6.97674419 L92.2093023,6.21860465 L94.5348837,6.21860465 L94.5348837,6.97674419 L98.0139535,6.97674419 L98.0139535,8.8372093 L94.5116279,8.8372093 L94.5116279,9.76744186 L92.1860465,9.76744186 L92.1860465,8.8372093 L80.7534884,8.8372093 L80.7534884,9.76744186 L78.427907,9.76744186 L78.427907,8.8372093 L74.9906977,8.8372093 Z M74.9906977,22.8186047 L74.9906977,21.0232558 C75.3080709,21.0248582 75.6165081,20.9182176 75.8651163,20.7209302 C76.0905805,20.403362 76.2314425,20.0335992 76.2744186,19.6465116 L76.4372093,18.7906977 L78.7627907,18.7906977 L78.5488372,19.9209302 C78.1767442,21.7813953 76.9922481,22.751938 74.9953488,22.8325581 L74.9906977,22.8186047 Z M74.9906977,18.055814 L85.3255814,18.055814 L85.3255814,22.8325581 L87.6511628,22.8325581 L87.6511628,18.0697674 L98.0232558,18.0697674 L98.0232558,16.2790698 L87.6511628,16.2790698 L87.6511628,15.5023256 L85.3255814,15.5023256 L85.3255814,16.2790698 L74.9906977,16.2790698 L74.9906977,18.0837209 L74.9906977,18.055814 Z M75.1534884,12.2372093 L75.1534884,10.4465116 L94,10.4465116 C94.4394068,10.4759972 94.8807807,10.4446941 95.3116279,10.3534884 C95.431442,10.2705625 95.5054695,10.1362799 95.5116279,9.99069767 L97.7906977,9.99069767 C97.7752703,10.566607 97.5167191,11.1090576 97.0790698,11.4837209 C96.4571016,12.009831 95.6605018,12.2836621 94.8465116,12.2511628 L75.1534884,12.2372093 Z M75.427907,14.827907 L75.427907,13.0232558 L79.7302326,13.0232558 L79.7302326,14.827907 L75.427907,14.827907 Z M84.2139535,14.827907 L84.2139535,13.0232558 L88.5302326,13.0232558 L88.5302326,14.827907 L84.2139535,14.827907 Z M93.3023256,14.827907 L93.3023256,13.0232558 L97.5906977,13.0232558 L97.5906977,14.827907 L93.3023256,14.827907 Z M94.2325581,18.7767442 L96.5581395,18.7767442 L96.7209302,19.6325581 C96.7552015,20.0627125 96.9357627,20.4681546 97.2325581,20.7813953 C97.4631723,20.9288922 97.7309062,21.007922 98.0046512,21.0093023 L98.0046512,22.8186047 C97.131272,22.8329979 96.2782054,22.5546461 95.5813953,22.027907 C95.2074025,21.7373008 94.9090394,21.360757 94.7116279,20.9302326 C94.5508097,20.5205271 94.4414472,20.0924509 94.3860465,19.655814 L94.2372093,18.8 L94.2325581,18.7767442 Z M111.702326,22.8511628 L111.702326,20.9906977 L112.037209,20.9906977 C112.52036,21.010748 112.997444,20.8772297 113.4,20.6093023 C113.79249,20.341949 114.022057,19.8933291 114.009302,19.4186047 L114.009302,18.0372093 C113.238714,18.1448598 112.461783,18.2007989 111.683721,18.2046512 L111.683721,16.4604651 C112.463486,16.4456728 113.240964,16.3710348 114.009302,16.2372093 L114.009302,12.5162791 L111.767442,12.5162791 L111.767442,10.6976744 L114.009302,10.6976744 L114.009302,8.18604651 L111.683721,8.18604651 L111.683721,6.35348837 L118.237209,6.35348837 L118.237209,8.18604651 L116.376744,8.18604651 L116.376744,10.6976744 L119.693023,10.6976744 L119.195349,6.33488372 L121.52093,6.33488372 L122.093023,10.6976744 L126.251163,10.6976744 L126.251163,12.5023256 L122.325581,12.5023256 C122.398975,13.773881 122.577885,15.0371406 122.860465,16.2790698 C123.187979,16.1737525 123.500613,16.0268144 123.790698,15.8418605 C123.963231,15.6567073 124.096175,15.4382999 124.181395,15.2 L126.246512,15.2 C126.137993,15.8327967 125.848869,16.4207351 125.413953,16.8930233 C124.796316,17.3753797 124.092227,17.735318 123.339535,17.9534884 C123.885271,19.2496124 124.426357,20.1023256 124.962791,20.5116279 C125.311073,20.7764643 125.727001,20.9376769 126.162791,20.9767442 L126.162791,22.8372093 C125.478471,22.7184319 124.81347,22.5071963 124.186047,22.2093023 C123.424291,21.8147104 122.762553,21.251597 122.251163,20.5627907 C121.855364,19.9997078 121.517227,19.3982288 121.24186,18.7674419 C119.691473,19.3875969 118.336434,19.9023256 117.176744,20.3116279 L117.176744,18.4511628 C118.344186,18.0511628 119.502326,17.6 120.655814,17.1069767 C120.430553,16.2556325 120.262733,15.3901184 120.153488,14.5162791 C120.023256,13.4093023 119.944186,12.7348837 119.906977,12.4883721 L116.381395,12.4883721 L116.381395,15.4837209 C117.100654,15.1174839 117.79937,14.712229 118.474419,14.2697674 L118.474419,16.4930233 C117.801988,16.8566705 117.107629,17.1782192 116.395349,17.455814 L116.395349,19.6418605 C116.443615,20.6555348 115.937801,21.6155124 115.074419,22.1488372 C114.693931,22.3751332 114.281565,22.542902 113.851163,22.6465116 C113.348936,22.7917598 112.829706,22.869957 112.306977,22.8790698 C112.144186,22.8790698 111.948837,22.8790698 111.734884,22.8790698 L111.702326,22.8511628 Z M122.64186,8.14418605 L126.162791,8.14418605 L126.162791,6.35348837 L122.64186,6.35348837 L122.64186,8.15813953 L122.64186,8.14418605 Z M103.148837,20.7023256 L103.148837,8.55348837 C103.094023,8.0077543 103.246804,7.46139894 103.576744,7.02325581 C104.000438,6.59172148 104.586361,6.35870308 105.190698,6.38139535 L108.586047,6.38139535 C109.114601,6.36481946 109.633022,6.52887676 110.055814,6.84651163 C110.47395,7.20820051 110.696436,7.74630682 110.655814,8.29767442 L110.655814,20.7674419 C110.700133,21.2178951 110.595569,21.6704578 110.35814,22.055814 C109.848553,22.6030736 109.117746,22.8888925 108.372093,22.8325581 L105.581395,22.8325581 C104.95088,22.8805424 104.322371,22.7168682 103.795349,22.3674419 C103.59397,22.2314248 103.43323,22.0433597 103.330233,21.8232558 C103.197897,21.4649441 103.137827,21.083973 103.153488,20.7023256 L103.148837,20.7023256 Z M108.372093,20.144186 L108.372093,8.98139535 C108.391168,8.74497892 108.334126,8.50865901 108.209302,8.30697674 C108.031607,8.1453272 107.791582,8.07042566 107.553488,8.10232558 L106.311628,8.10232558 C105.925581,8.10232558 105.674419,8.18139535 105.567442,8.33023256 C105.488742,8.53771489 105.458514,8.76044264 105.47907,8.98139535 L105.47907,20.0790698 C105.44642,20.3531605 105.498354,20.6306815 105.627907,20.8744186 C105.777762,20.996762 105.9705,21.0537453 106.162791,21.0325581 L107.423256,21.0325581 C107.682159,21.0594503 107.943152,21.007576 108.172093,20.8837209 C108.283721,20.7813953 108.372093,20.5302326 108.372093,20.144186 Z" id="Shape" fill-rule="nonzero"></path>
                </g>
            </g>
        </g>
    </g>
</svg>