<svg width="31" height="30" xmlns="http://www.w3.org/2000/svg"><g fill="none" fill-rule="evenodd"><path d="M2.006 18.066c-.299.559.092 1.975.334 2.432 1.477 2.799 3.713 4.89 6.385 6.459.815.478 1.67.879 2.548 1.202.113.042 1.284.454 1.287.432 0 0-.977 3.252-7.689-2.123-6.707-5.375-2.865-8.402-2.865-8.402z" fill="#6C0000" fill-rule="nonzero"/><path d="M11.618 29.762c1.737-.281 3.435-2.116 4.672-3.456.183-.197.355-.386.517-.555 1.572-1.649 2.654-2.837 3.864-4.377.137-.172.274-.348.418-.524.932-1.164 1.99-2.486 2.75-4.377.636-1.589-.06-11.278-.145-12.375a.42.42 0 0 0-.496-.383c-.404.07-9.91 1.758-12.315 2.608-.27.095-.485.26-.671.408l-.06.046C8.995 7.67 8.046 8.812 7.125 9.92l-.517.622c-1.526 1.81-2.904 3.72-4.166 5.513C1.23 17.78-.064 20.045.734 22.232c.777 2.137 3.227 3.976 4.999 5.175l.077.052c1.33.893 3.477 2.342 5.309 2.342.169 0 .337-.01.499-.039zM23.054 4.486c.303 4.247.552 10.724.144 11.75-.71 1.78-1.589 2.995-2.527 4.166-.144.18-.35.47-.487.646-1.188 1.512-2.34 2.639-3.894 4.274-.165.172-.335.374-.522.578-1.156 1.248-2.844 2.97-4.296 3.205-1.596.26-3.957-1.312-5.307-2.222-2.742-2.015-4.344-3.659-4.808-4.931-.658-1.807.425-3.823 1.589-5.479a79.69 79.69 0 0 1 4.179-5.426c.176-.207.349-.41.524-.62.593-.715 1.6-1.752 3.02-3.112.15-.12.31-.251.45-.3 2.042-.725 9.963-2.174 11.935-2.529z" fill="#6B0306" fill-rule="nonzero"/><path d="M12.055 28.764c1.537-.25 2.88-1.905 3.974-3.09.162-.175.348-.405.491-.554 1.391-1.459 2.328-2.38 3.399-3.743.121-.153.352-.438.48-.593.824-1.03 1.798-2.106 2.47-3.78.563-1.406-.053-9.98-.128-10.95a.372.372 0 0 0-.439-.34c-.357.062-8.77 1.556-10.897 2.308-.24.084-.43.23-.595.361l-.052.04c-1.024.791-1.864 1.802-2.68 2.782l-.456.55c-1.35 1.603-2.57 3.292-3.687 4.879-1.073 1.527-2.218 3.53-1.512 5.466.688 1.891 2.856 3.519 4.424 4.58l.068.046c1.176.79 3.077 2.072 4.698 2.072.15 0 .299-.01.442-.034z" fill="#FFEC43"/><path d="M2.995 21.507a.29.29 0 0 0 .196-.091l.848-.943a.287.287 0 0 0-.021-.4.287.287 0 0 0-.4.021l-.849.942a.287.287 0 0 0 .021.4c.06.054.131.075.205.07zm.71 1.205a.29.29 0 0 0 .197-.091l.944-1.05a.287.287 0 0 0-.02-.4.287.287 0 0 0-.4.021l-.946 1.05a.287.287 0 0 0 .021.4c.06.05.135.074.205.07zm.896 1.034a.29.29 0 0 0 .196-.091l1.012-1.123a.287.287 0 0 0-.021-.4.287.287 0 0 0-.4.02l-1.012 1.124a.287.287 0 0 0 .021.4c.059.05.134.074.204.07zm2.068 1.641a.29.29 0 0 0 .196-.09l.985-1.095a.287.287 0 0 0-.021-.4.287.287 0 0 0-.4.021l-.985 1.094a.287.287 0 0 0 .021.4c.06.053.134.074.204.07zm-1.079-.71a.29.29 0 0 0 .196-.092l1.091-1.212a.287.287 0 0 0-.02-.4.287.287 0 0 0-.401.021l-1.091 1.212a.287.287 0 0 0 .02.4.29.29 0 0 0 .205.07zm2.362 1.53a.29.29 0 0 0 .195-.09l.855-.95a.287.287 0 0 0-.02-.4.287.287 0 0 0-.4.02l-.856.95a.287.287 0 0 0 .021.4.29.29 0 0 0 .205.07zm1.14.81a.29.29 0 0 0 .196-.091l.888-.987a.287.287 0 0 0-.02-.4.287.287 0 0 0-.4.021l-.889.987a.287.287 0 0 0 .021.4c.059.05.134.074.204.07zm1.366.604a.29.29 0 0 0 .196-.09l.749-.832a.287.287 0 0 0-.021-.4.287.287 0 0 0-.4.02l-.75.832a.287.287 0 0 0 .022.4.29.29 0 0 0 .204.07zm1.29.64a.29.29 0 0 0 .196-.09l.756-.84a.287.287 0 0 0-.021-.4.287.287 0 0 0-.4.021l-.756.839a.287.287 0 0 0 .021.4c.06.05.134.074.205.07zm-8.963-8.268a.29.29 0 0 0 .196-.09l.715-.795a.287.287 0 0 0-.02-.4.287.287 0 0 0-.4.02l-.716.795a.287.287 0 0 0 .02.4.29.29 0 0 0 .205.07z" fill="#561111" fill-rule="nonzero"/><path d="M18.568 9.684h.01c7.218-.15 10.966-3.185 10.934-6.103C29.495 1.897 28.061.2 24.9.2c-3.488 0-5.154 2.31-5.938 4.244a.425.425 0 0 0 .232.552.425.425 0 0 0 .552-.232c.686-1.699 2.138-3.72 5.154-3.72 2.236 0 3.751 1.023 3.765 2.545.025 2.387-3.354 4.992-9.675 5.235.004-.18.01-.415.028-.686a.424.424 0 0 0-.393-.45.42.42 0 0 0-.45.394c-.046.714-.025 1.178-.025 1.196a.42.42 0 0 0 .418.407z" fill="#6C0000" fill-rule="nonzero"/><path d="M18.491 11.358c.482 0 .96-.148 1.336-.433.598-.453.854-1.163.728-2.004a1.905 1.905 0 0 0-1.818-1.617c-.837-.028-1.462.173-1.87.598-.362.38-.52.91-.468 1.575.06.766.489 1.382 1.17 1.687.29.13.606.194.922.194zm.091-3.21c.043 0 .085 0 .123.004.51.017.936.393 1.013.896.08.527-.06.942-.404 1.202-.373.285-.95.341-1.4.141-.28-.127-.625-.397-.671-.98-.032-.416.046-.729.236-.925.26-.271.724-.338 1.103-.338zm1.554.837h-.022.022zM29.373 17.253c.897 0 1.627-.73 1.627-1.626C31 14.73 30.27 14 29.373 14c-.898 0-1.627.73-1.627 1.627s.73 1.626 1.627 1.626zm0-2.701a1.076 1.076 0 0 1 0 2.15 1.076 1.076 0 0 1 0-2.15zM4.373 7.253C5.27 7.253 6 6.523 6 5.627 6 4.73 5.27 4 4.373 4s-1.627.73-1.627 1.627.73 1.626 1.627 1.626zm0-2.701a1.076 1.076 0 0 1 0 2.15 1.076 1.076 0 0 1 0-2.15z" fill="#6C0000" fill-rule="nonzero"/><path d="M5 6.013a1.013 1.013 0 1 1-2.026 0 1.013 1.013 0 0 1 2.026 0z" fill="#6C0000" fill-rule="nonzero"/></g></svg>