<!-- Generated by IcoMoon.io -->
<svg version="1.1" xmlns="http://www.w3.org/2000/svg" width="42" height="42" viewBox="0 0 42 42">
<title>JF1</title>
<path fill="#3c9" opacity="0.34" d="M16.894 6.563h21.077c0.682 0 1.235 0.557 1.235 1.234v14.973c0 0.681-0.557 1.234-1.235 1.234h-2.251v4.362h-0.099l-4.362-4.362h-14.366c-0.681 0-1.234-0.557-1.234-1.235v-14.973c0-0.681 0.553-1.234 1.234-1.234z"></path>
<path fill="#fff" d="M34.481 14.885h-9.446c-0.401-0.001-0.726-0.326-0.727-0.727v-0.418c0-0.4 0.326-0.727 0.727-0.727h9.447c0.4 0 0.727 0.326 0.727 0.727v0.417c0 0.4-0.326 0.727-0.727 0.727z"></path>
<path fill="#3c9" d="M26.791 11.065h-23.229c-0.748 0-1.363 0.611-1.363 1.362v16.501c0 0.747 0.612 1.362 1.363 1.362h2.482v4.808h0.108l4.807-4.808h15.833c0.748 0 1.363-0.611 1.363-1.362v-16.501c0-0.752-0.612-1.363-1.363-1.363z"></path>
<path fill="#fff" d="M22.119 18.756h-13.886c-0.413-0.001-0.746-0.335-0.748-0.748v-0.43c0-0.408 0.334-0.747 0.748-0.747h13.886c0.409 0 0.748 0.334 0.748 0.747v0.43c-0.002 0.412-0.336 0.746-0.748 0.747h-0zM16.703 23.358h-8.554c-0.364 0-0.659-0.295-0.659-0.659v0-0.377c0-0.364 0.295-0.659 0.659-0.659v0h8.558c0.364 0 0.659 0.295 0.659 0.659v0 0.378c-0.004 0.364-0.299 0.657-0.663 0.658h-0z"></path>
</svg>
