<?xml version="1.0" encoding="utf-8"?>
<!-- Generated by IcoMoon.io -->
<svg version="1.1" xmlns="http://www.w3.org/2000/svg" xmlns:xlink="http://www.w3.org/1999/xlink" width="17" height="1524" viewBox="0 0 17 1524">
<svg id="icon-a_41" width="16" height="16" viewBox="0 0 16 16" x="0" y="0">
<path fill="#99a5a0" d="M3.333 10h-1.333c0 2.143 0 3.476 0 4h4v-1.333h-2.667v-2.667zM3.333 3.333h2.667v-1.333h-4c0 0.889 0 2.222 0 4h1.333v-2.667zM14 2h-4v1.333h2.667v2.667h1.333c0-1.883 0-3.216 0-4zM12.667 12.667v-2.667h1.333c0 2.053 0 3.387 0 4h-4v-1.333h2.667zM6 7.333h4c0.368 0 0.667 0.299 0.667 0.667s-0.299 0.667-0.667 0.667h-4c-0.368 0-0.667-0.299-0.667-0.667s0.299-0.667 0.667-0.667z"></path>
</svg>
<svg id="icon-a_42" width="16" height="16" viewBox="0 0 16 16" x="0" y="26">
<path fill="#acb8b3" d="M14.906 8.569c0.311-0.479 0.419-0.934 0.323-1.341-0.108-0.419-0.419-0.731-0.659-0.874-0.203-0.12-0.443-0.179-0.683-0.179h-1.881c-0.287 0-0.551-0.144-0.707-0.371-0.156-0.239-0.191-0.527-0.072-0.791 0.227-0.515 0.323-1.281 0.335-1.557 0-0.886-0.215-1.509-0.623-1.797-0.443-0.323-1.006-0.179-1.174-0.12-0.395 0.12-0.491 0.491-0.611 1.233-0.024 0.168-0.060 0.335-0.096 0.503-0.227 1.078-0.755 2.084-1.509 2.875-0.407 0.419-0.839 0.779-1.293 1.042-0.156 0.084-0.311 0.168-0.479 0.227v6.156c0.599 0.024 1.090 0.179 1.641 0.359 0.851 0.275 1.904 0.611 3.881 0.611h0.024c0.994 0 1.725-0.227 2.12-0.647 0.371-0.395 0.359-0.851 0.359-0.886-0.024-0.179 0.072-0.347 0.227-0.443 0.311-0.179 0.491-0.407 0.551-0.647 0.096-0.383-0.132-0.767-0.144-0.791-0.144-0.215-0.084-0.491 0.132-0.647 0.323-0.215 0.503-0.443 0.539-0.695 0.060-0.335-0.168-0.635-0.179-0.659-0.132-0.179-0.132-0.395-0.024-0.563zM2.941 7.695v5.749c0 0.072-0.072 0.323 0 0.323h1.533v-6.156l-1.413-0.036c-0.072 0-0.12 0.048-0.12 0.12z"></path>
</svg>
<svg id="icon-a_43" width="16" height="16" viewBox="0 0 16 16" x="0" y="52">
<path fill="#acb8b3" d="M6.284 1.914c-0.818 0.306-1.531 0.727-2.14 1.26s-1.087 1.157-1.437 1.871c-0.35 0.713-0.525 1.477-0.525 2.291 0 0.464 0.059 0.912 0.177 1.345s0.287 0.847 0.505 1.241c0.219 0.394 0.483 0.759 0.794 1.096s0.659 0.637 1.043 0.899v2.086c0 0.494 0.343 0.686 0.765 0.429l2.175-1.321c0.21 0.035 0.418 0.061 0.623 0.079s0.418 0.026 0.637 0.026c0.927 0 1.801-0.153 2.619-0.459s1.531-0.727 2.14-1.26c0.608-0.534 1.087-1.157 1.437-1.871s0.525-1.477 0.525-2.291c0-0.814-0.175-1.577-0.525-2.291s-0.829-1.337-1.437-1.871c-0.608-0.534-1.321-0.954-2.14-1.26s-1.691-0.459-2.619-0.459c-0.927 0-1.801 0.153-2.619 0.459zM11.003 9.435h-4.201c-0.114 0-0.212-0.041-0.295-0.125s-0.125-0.181-0.125-0.295c0-0.114 0.041-0.212 0.125-0.295s0.181-0.125 0.295-0.125h4.201c0.114 0 0.212 0.041 0.295 0.125s0.125 0.181 0.125 0.295c0 0.114-0.041 0.212-0.125 0.295s-0.181 0.125-0.295 0.125zM11.843 6.915h-5.881c-0.114 0-0.212-0.041-0.295-0.125s-0.125-0.181-0.125-0.295c0-0.114 0.041-0.212 0.125-0.295s0.181-0.125 0.295-0.125h5.881c0.114 0 0.212 0.041 0.295 0.125s0.125 0.181 0.125 0.295c0 0.114-0.041 0.212-0.125 0.295s-0.181 0.125-0.295 0.125z"></path>
</svg>
<svg id="icon-a_46" width="16" height="16" viewBox="0 0 16 16" x="0" y="78">
<path fill="#acb8b3" d="M7.778 3.811c0.369-0.476 0.761-0.905 1.175-1.288 0.358-0.313 0.764-0.597 1.217-0.853s0.926-0.365 1.419-0.331c0.694 0.058 1.273 0.229 1.738 0.513s0.834 0.644 1.108 1.079c0.274 0.435 0.462 0.928 0.563 1.479s0.134 1.117 0.101 1.697c-0.033 0.58-0.131 1.134-0.294 1.662s-0.364 1.021-0.605 1.479c-0.241 0.458-0.507 0.882-0.797 1.271s-0.582 0.74-0.873 1.053c-0.448 0.476-0.915 0.919-1.402 1.331s-0.951 0.766-1.393 1.061c-0.442 0.296-0.845 0.531-1.209 0.705s-0.647 0.261-0.848 0.261c-0.224 0.011-0.509-0.069-0.856-0.243s-0.727-0.409-1.142-0.705c-0.414-0.296-0.851-0.647-1.309-1.053s-0.912-0.835-1.36-1.288c-0.291-0.29-0.605-0.627-0.94-1.009s-0.652-0.803-0.949-1.262c-0.297-0.458-0.551-0.954-0.764-1.488s-0.33-1.102-0.353-1.705c-0.023-0.603 0.039-1.169 0.185-1.697s0.364-1.001 0.655-1.419c0.291-0.418 0.649-0.769 1.075-1.053s0.907-0.485 1.444-0.601c0.269-0.058 0.537-0.067 0.806-0.026s0.532 0.11 0.789 0.209c0.257 0.099 0.504 0.223 0.739 0.374s0.459 0.307 0.671 0.47c0.493 0.383 0.963 0.841 1.411 1.375z"></path>
</svg>
<svg id="icon-a_47" width="16" height="16" viewBox="0 0 16 16" x="0" y="104">
<path fill="#99a5a0" d="M8 8c1.473 0 2.667-1.193 2.667-2.667s-1.193-2.667-2.667-2.667c-1.473 0-2.667 1.193-2.667 2.667s1.193 2.667 2.667 2.667zM8 9.333c-1.78 0-5.333 0.893-5.333 2.667v1.333h10.667v-1.333c0-1.773-3.553-2.667-5.333-2.667z"></path>
</svg>
<svg id="icon-a_48" width="16" height="16" viewBox="0 0 16 16" x="0" y="130">
<path fill="#99a5a0" d="M11.333 6h-0.571v-1.143c0-1.577-1.28-2.857-2.857-2.857s-2.857 1.28-2.857 2.857v1.143h-0.571c-0.629 0-1.143 0.514-1.143 1.143v5.047c0 0.629 0.514 1.143 1.143 1.143h6.857c0.629 0 1.143-0.514 1.143-1.143v-5.047c0-0.629-0.514-1.143-1.143-1.143zM9.676 6h-3.543v-1.143c0-0.977 0.794-1.771 1.771-1.771s1.771 0.794 1.771 1.771v1.143z"></path>
</svg>
<svg id="icon-a_49" width="16" height="16" viewBox="0 0 16 16" x="0" y="156">
<path fill="#99a5a0" d="M11.255 5.433c0.155 0 0.31 0.013 0.465 0.026-0.426-1.988-2.504-3.459-4.879-3.459-2.659 0-4.841 1.846-4.841 4.195 0 1.343 0.723 2.453 1.936 3.317l-0.477 1.485 1.678-0.865c0.607 0.116 1.097 0.245 1.704 0.245 0.142 0 0.297 0 0.452-0.013-0.103-0.336-0.155-0.685-0.155-1.033 0-2.155 1.82-3.898 4.117-3.898zM8.647 4.091c0.361 0 0.607 0.245 0.607 0.619s-0.245 0.619-0.607 0.619c-0.361 0-0.723-0.245-0.723-0.619s0.361-0.619 0.723-0.619zM5.265 5.33c-0.361 0-0.723-0.245-0.723-0.619s0.361-0.619 0.723-0.619c0.361 0 0.607 0.245 0.607 0.619s-0.245 0.619-0.607 0.619zM15.657 9.267c0-1.962-1.923-3.575-4.105-3.575-2.297 0-4.105 1.613-4.105 3.575 0 1.975 1.807 3.576 4.105 3.576 0.491 0 0.968-0.129 1.459-0.245l1.317 0.736-0.361-1.227c0.968-0.749 1.691-1.729 1.691-2.84zM10.222 8.648c-0.245 0-0.477-0.232-0.477-0.491 0-0.245 0.232-0.491 0.477-0.491 0.361 0 0.607 0.245 0.607 0.491 0 0.259-0.245 0.491-0.607 0.491zM12.881 8.648c-0.245 0-0.477-0.232-0.477-0.491 0-0.245 0.232-0.491 0.477-0.491 0.361 0 0.607 0.245 0.607 0.491 0 0.259-0.245 0.491-0.607 0.491z"></path>
</svg>
<svg id="icon-a_50" width="16" height="16" viewBox="0 0 16 16" x="0" y="182">
<path fill="#99a5a0" d="M4.883 11.168c0.236 0.13 0.604-0.167 0.951-0.708 0.137 0.592 0.476 1.123 0.961 1.553-0.507 0.198-0.839 0.521-0.839 0.885 0 0.601 0.897 1.087 2.004 1.087 0.999 0 1.825-0.394 1.978-0.913 0.041 0 0.199 0 0.237 0 0.155 0.519 0.981 0.913 1.981 0.913 1.108 0 2.004-0.485 2.004-1.087 0-0.365-0.331-0.685-0.84-0.885 0.483-0.429 0.823-0.961 0.96-1.553 0.346 0.541 0.713 0.837 0.95 0.708 0.343-0.187 0.275-1.194-0.153-2.251-0.335-0.827-0.788-1.438-1.133-1.575 0.005-0.050 0.009-0.106 0.009-0.159 0-0.321-0.085-0.617-0.231-0.857 0.003-0.019 0.003-0.037 0.003-0.057 0-0.148-0.033-0.285-0.091-0.404-0.087-2.153-1.419-3.865-3.575-3.865s-3.489 1.712-3.577 3.865c-0.056 0.121-0.091 0.259-0.091 0.406 0 0.019 0 0.037 0.003 0.057-0.143 0.239-0.228 0.535-0.228 0.857 0 0.054 0.003 0.107 0.007 0.16-0.345 0.136-0.799 0.745-1.133 1.572-0.424 1.057-0.494 2.063-0.153 2.251z"></path>
</svg>
<svg id="icon-a_51" width="16" height="16" viewBox="0 0 16 16" x="0" y="208">
<path fill="#99a5a0" d="M12.305 7.861c-0.521-0.099-0.273-0.384-0.273-0.384s0.508-0.843-0.099-1.45c-0.756-0.756-2.589 0.099-2.589 0.099-0.694 0.211-0.508-0.099-0.409-0.645 0-0.632-0.223-1.71-2.094-1.065-1.859 0.632-3.457 2.875-3.457 2.875-1.115 1.487-0.967 2.627-0.967 2.627 0.273 2.54 2.974 3.234 5.068 3.395 2.205 0.173 5.179-0.756 6.084-2.677s-0.743-2.676-1.264-2.775zM7.647 12.607c-2.193 0.099-3.965-1.003-3.965-2.466s1.772-2.627 3.965-2.726c2.193-0.099 3.965 0.793 3.965 2.255s-1.772 2.837-3.965 2.937zM7.213 8.369c-2.205 0.26-1.958 2.329-1.958 2.329s-0.013 0.644 0.595 0.979c1.289 0.694 2.615 0.273 3.283-0.583 0.669-0.867 0.285-2.973-1.921-2.726zM6.655 11.268c-0.409 0.049-0.743-0.186-0.743-0.533s0.297-0.706 0.706-0.743c0.471-0.050 0.781 0.223 0.781 0.57s-0.335 0.657-0.743 0.706zM7.957 10.165c-0.149 0.099-0.31 0.087-0.384-0.037-0.087-0.124-0.049-0.322 0.087-0.421 0.161-0.124 0.335-0.087 0.409 0.037s0.013 0.31-0.111 0.421zM13.383 6.969c0.173 0 0.322-0.137 0.347-0.31 0-0.013 0.013-0.025 0.013-0.037 0.26-2.416-1.983-1.995-1.983-1.995-0.198 0-0.359 0.161-0.359 0.359s0.161 0.359 0.359 0.359c1.611-0.359 1.251 1.264 1.251 1.264 0 0.198 0.161 0.359 0.372 0.359zM13.111 2.755c-0.768-0.186-1.573-0.031-1.797 0.019-0.013 0-0.037 0.009-0.050 0.009s-0.013 0.011-0.013 0.011c-0.223 0.062-0.384 0.272-0.384 0.507 0 0.285 0.235 0.52 0.521 0.52 0 0 0.285-0.037 0.483-0.112 0.186-0.074 1.797-0.050 2.602 1.289 0.434 0.979 0.186 1.635 0.161 1.747 0 0-0.111 0.248-0.111 0.508 0 0.285 0.235 0.483 0.533 0.483 0.235 0 0.446 0.012 0.495-0.434h0.013c0.855-3.057-1.053-4.225-2.453-4.547z"></path>
</svg>
<svg id="icon-a_52" width="16" height="16" viewBox="0 0 16 16" x="0" y="234">
<path fill="#99a5a0" d="M12.741 10.074c-0.741 0-1.452-0.119-2.115-0.338-0.207-0.065-0.439-0.018-0.605 0.142l-1.304 1.304c-1.677-0.853-3.052-2.222-3.905-3.899l1.304-1.309c0.166-0.16 0.213-0.391 0.148-0.599-0.219-0.664-0.338-1.375-0.338-2.115 0-0.326-0.267-0.593-0.593-0.593h-2.074c-0.326 0-0.593 0.267-0.593 0.593 0 5.565 4.509 10.074 10.074 10.074 0.326 0 0.593-0.267 0.593-0.593v-2.074c0-0.326-0.267-0.593-0.593-0.593zM8 2.667v5.926l1.778-1.778h3.555v-4.148h-5.333z"></path>
</svg>
<svg id="icon-a_53" width="16" height="16" viewBox="0 0 16 16" x="0" y="260">
<path fill="#99a5a0" d="M12.267 3.333c0.587 0 1.067 0.48 1.067 1.067v6.4c0 0.587-0.48 1.067-1.067 1.067h-7.467l-2.133 2.133 0.005-9.6c0-0.587 0.475-1.067 1.061-1.067h8.533zM5.667 8.667c0.552 0 1-0.448 1-1s-0.448-1-1-1c-0.552 0-1 0.448-1 1s0.448 1 1 1zM8.333 8.667c0.552 0 1-0.448 1-1s-0.448-1-1-1c-0.552 0-1 0.448-1 1s0.448 1 1 1zM11 8.667c0.552 0 1-0.448 1-1s-0.448-1-1-1c-0.552 0-1 0.448-1 1s0.448 1 1 1z"></path>
</svg>
<svg id="icon-a_54" width="16" height="16" viewBox="0 0 16 16" x="0" y="286">
<path fill="#999" d="M11.767 4.233c-0.967-0.967-2.293-1.567-3.767-1.567-2.947 0-5.327 2.387-5.327 5.333s2.38 5.333 5.327 5.333c2.487 0 4.56-1.7 5.153-4h-1.387c-0.547 1.553-2.027 2.667-3.767 2.667-2.207 0-4-1.793-4-4s1.793-4 4-4c1.107 0 2.093 0.46 2.813 1.187l-2.147 2.147h4.667v-4.667l-1.567 1.567z"></path>
</svg>
<svg id="icon-a_55" width="16" height="16" viewBox="0 0 16 16" x="0" y="312">
<path fill="#99a5a0" d="M8.213 3.333h-0.945l-2.991 6.926h1.322l0.567-1.385h3.148l0.567 1.385h1.322l-2.991-6.926zM6.563 7.741l1.177-3.161 1.177 3.161h-2.355zM13.093 12.778l-1.889-1.889v1.259h-7.871v1.259h7.871v1.259l1.889-1.889z"></path>
</svg>
<svg id="icon-c_1" width="16" height="16" viewBox="0 0 16 16" x="0" y="338">
<path fill="#99a5a0" d="M2.847 12.061l0.705 0.295v-4.753l-1.279 3.084c-0.216 0.537 0.042 1.153 0.574 1.374zM13.11 10.114l-2.611-6.3c-0.163-0.395-0.547-0.637-0.953-0.647-0.137 0-0.279 0.021-0.416 0.079l-3.879 1.605c-0.395 0.163-0.637 0.542-0.647 0.947-0.005 0.142 0.021 0.284 0.079 0.421l2.611 6.3c0.163 0.4 0.553 0.642 0.963 0.647 0.137 0 0.274-0.026 0.405-0.079l3.874-1.605c0.537-0.221 0.795-0.837 0.574-1.369zM5.663 6.325c-0.289 0-0.526-0.237-0.526-0.526s0.237-0.526 0.526-0.526c0.289 0 0.526 0.237 0.526 0.526s-0.237 0.526-0.526 0.526zM4.61 12.114c0 0.579 0.474 1.053 1.053 1.053h0.763l-1.816-4.389v3.337z"></path>
</svg>
<svg id="icon-c_2" width="16" height="16" viewBox="0 0 16 16" x="0" y="364">
<path fill="#99a5a0" d="M11.629 3.333h-7.259c-0.571 0-1.037 0.467-1.037 1.037v7.259c0 0.571 0.467 1.037 1.037 1.037h7.259c0.571 0 1.037-0.467 1.037-1.037v-7.259c0-0.571-0.467-1.037-1.037-1.037zM6.445 10.593h-1.037v-3.629h1.037v3.629zM8.519 10.593h-1.037v-5.185h1.037v5.185zM10.593 10.593h-1.037v-2.074h1.037v2.074z"></path>
</svg>
<svg id="icon-c_3" width="16" height="16" viewBox="0 0 16 16" x="0" y="390">
<path fill="#99a5a0" d="M6.153 3.399c-0.577 0.231-1.080 0.549-1.509 0.953s-0.767 0.875-1.014 1.414c-0.247 0.539-0.371 1.117-0.371 1.732 0 0.351 0.042 0.69 0.125 1.017s0.202 0.64 0.357 0.938c0.154 0.298 0.341 0.574 0.56 0.829s0.465 0.481 0.736 0.68v1.577c0 0.373 0.242 0.519 0.539 0.325l1.535-0.999c0.148 0.027 0.295 0.046 0.44 0.059s0.295 0.020 0.449 0.020c0.654 0 1.27-0.116 1.847-0.347s1.080-0.549 1.509-0.953c0.429-0.403 0.767-0.875 1.014-1.414s0.371-1.117 0.371-1.732c0-0.615-0.123-1.193-0.371-1.732s-0.585-1.011-1.014-1.414c-0.429-0.403-0.932-0.721-1.509-0.953s-1.193-0.347-1.847-0.347c-0.654 0-1.27 0.116-1.847 0.347zM9.481 9.086h-2.963c-0.080 0-0.15-0.031-0.208-0.094s-0.088-0.137-0.088-0.223c0-0.086 0.029-0.161 0.088-0.223s0.128-0.094 0.208-0.094h2.963c0.080 0 0.15 0.031 0.208 0.094s0.088 0.137 0.088 0.223c0 0.086-0.029 0.161-0.088 0.223s-0.128 0.094-0.208 0.094zM10.074 7.181h-4.148c-0.080 0-0.15-0.031-0.208-0.094s-0.088-0.137-0.088-0.223c0-0.086 0.029-0.161 0.088-0.223s0.128-0.094 0.208-0.094h4.148c0.080 0 0.15 0.031 0.208 0.094s0.088 0.137 0.088 0.223c0 0.086-0.029 0.161-0.088 0.223s-0.128 0.094-0.208 0.094z"></path>
</svg>
<svg id="icon-c_4" width="16" height="16" viewBox="0 0 16 16" x="0" y="416">
<path fill="#99a5a0" d="M7.667 3.333c-2.761 0-5 2.239-5 5s2.239 5 5 5c0.461 0 0.833-0.372 0.833-0.833 0-0.217-0.083-0.411-0.217-0.561-0.128-0.145-0.211-0.339-0.211-0.55 0-0.461 0.372-0.833 0.833-0.833h0.983c1.533 0 2.778-1.245 2.778-2.778 0-2.455-2.239-4.445-5-4.445zM4.611 8.333c-0.461 0-0.833-0.372-0.833-0.833s0.372-0.833 0.833-0.833c0.461 0 0.833 0.372 0.833 0.833s-0.372 0.833-0.833 0.833zM6.278 6.111c-0.461 0-0.833-0.372-0.833-0.833s0.372-0.833 0.833-0.833c0.461 0 0.833 0.372 0.833 0.833s-0.372 0.833-0.833 0.833zM9.055 6.111c-0.461 0-0.833-0.372-0.833-0.833s0.372-0.833 0.833-0.833c0.461 0 0.833 0.372 0.833 0.833s-0.372 0.833-0.833 0.833zM10.722 8.333c-0.461 0-0.833-0.372-0.833-0.833s0.372-0.833 0.833-0.833c0.461 0 0.833 0.372 0.833 0.833s-0.372 0.833-0.833 0.833z"></path>
</svg>
<svg id="icon-c_5" width="16" height="16" viewBox="0 0 16 16" x="0" y="442">
<path fill="#99a5a0" d="M12.11 3.345c-0.034-0.018-0.075-0.015-0.107 0.006-0.011 0.007-1.087 0.74-1.799 0.74-0.042 0-0.081-0.003-0.119-0.008-0.287-0.040-0.514-0.138-0.753-0.241-0.343-0.148-0.698-0.301-1.255-0.301-0.042 0-0.085 0.001-0.127 0.003-0.873 0.035-1.631 0.263-1.854 0.337l-0.125-0.134c-0.029-0.032-0.076-0.042-0.116-0.025l-0.458 0.19c-0.048 0.020-0.073 0.072-0.061 0.122l2.201 8.55c0.012 0.046 0.053 0.078 0.101 0.078 0.027 0 0.053-0.011 0.073-0.029l0.529-0.519c0.025-0.025 0.036-0.061 0.029-0.096-0.005-0.022-0.468-2.202-0.496-2.693-0.015-0.26 0.088-0.528 0.283-0.734 0.211-0.223 0.633-0.489 1.45-0.489 0.461 0 0.887-0.060 1.264-0.179 0.304-0.095 0.579-0.229 0.815-0.396 0.407-0.289 0.562-0.58 0.569-0.592 0.008-0.015 0.012-0.031 0.012-0.048v-3.449c0-0.039-0.021-0.074-0.055-0.092z"></path>
</svg>
<svg id="icon-c_6" width="16" height="16" viewBox="0 0 16 16" x="0" y="468">
<path fill="#99a5a0" d="M13.923 8.618c0.338-0.521 0.455-1.015 0.351-1.457-0.117-0.455-0.455-0.794-0.715-0.95-0.221-0.13-0.481-0.195-0.742-0.195h-2.043c-0.312 0-0.599-0.156-0.768-0.403-0.169-0.26-0.208-0.573-0.078-0.859 0.247-0.559 0.351-1.392 0.364-1.691 0-0.963-0.234-1.639-0.677-1.952-0.481-0.351-1.093-0.195-1.275-0.13-0.429 0.13-0.533 0.533-0.663 1.34-0.026 0.182-0.065 0.364-0.104 0.547-0.247 1.171-0.82 2.264-1.639 3.123-0.443 0.455-0.911 0.846-1.405 1.132-0.169 0.091-0.338 0.182-0.521 0.247v6.688c0.651 0.026 1.184 0.195 1.783 0.391 0.924 0.299 2.069 0.663 4.216 0.663h0.026c1.080 0 1.874-0.247 2.303-0.703 0.403-0.429 0.391-0.924 0.391-0.963-0.026-0.195 0.078-0.377 0.247-0.481 0.338-0.195 0.533-0.443 0.599-0.703 0.104-0.417-0.143-0.833-0.156-0.859-0.156-0.234-0.091-0.533 0.143-0.703 0.351-0.234 0.547-0.481 0.585-0.755 0.065-0.364-0.182-0.689-0.195-0.715-0.143-0.195-0.143-0.429-0.026-0.611zM0.923 7.668v6.246c0 0.078-0.078 0.351 0 0.351h1.665v-6.688l-1.535-0.039c-0.078 0-0.13 0.052-0.13 0.13z"></path>
</svg>
<svg id="icon-c_7" width="16" height="16" viewBox="0 0 16 16" x="0" y="494">
<path fill="#99a5a0" d="M13.923 7.382c0.338 0.521 0.455 1.015 0.351 1.457-0.117 0.455-0.455 0.794-0.715 0.95-0.221 0.13-0.481 0.195-0.742 0.195h-2.043c-0.312 0-0.599 0.156-0.768 0.403-0.169 0.26-0.208 0.573-0.078 0.859 0.247 0.559 0.351 1.392 0.364 1.691 0 0.963-0.234 1.639-0.677 1.952-0.481 0.351-1.093 0.195-1.275 0.13-0.429-0.13-0.533-0.533-0.663-1.34-0.026-0.182-0.065-0.364-0.104-0.547-0.247-1.171-0.82-2.264-1.639-3.123-0.443-0.455-0.911-0.846-1.405-1.132-0.169-0.091-0.338-0.182-0.521-0.247v-6.688c0.651-0.026 1.184-0.195 1.783-0.391 0.924-0.299 2.069-0.663 4.216-0.663h0.026c1.080 0 1.874 0.247 2.303 0.703 0.403 0.429 0.391 0.924 0.391 0.963-0.026 0.195 0.078 0.377 0.247 0.481 0.338 0.195 0.533 0.443 0.599 0.703 0.104 0.417-0.143 0.833-0.156 0.859-0.156 0.234-0.091 0.533 0.143 0.703 0.351 0.234 0.547 0.481 0.585 0.755 0.065 0.364-0.182 0.689-0.195 0.715-0.143 0.195-0.143 0.429-0.026 0.611zM0.923 8.332v-6.246c0-0.078-0.078-0.351 0-0.351h1.665v6.688l-1.535 0.039c-0.078 0-0.13-0.052-0.13-0.13z"></path>
</svg>
<svg id="icon-c_8" width="16" height="16" viewBox="0 0 16 16" x="0" y="520">
<path fill="#99a5a0" d="M12.369 7.891c0.275-0.275 0.36-0.699 0.233-1.060-0.127-0.381-0.424-0.657-0.805-0.721l-1.695-0.297c-0.191-0.043-0.339-0.149-0.424-0.318l-0.805-1.569c-0.148-0.381-0.487-0.593-0.869-0.593s-0.72 0.212-0.911 0.573l-0.784 1.569c-0.085 0.169-0.254 0.297-0.424 0.318l-1.695 0.297c-0.381 0.063-0.678 0.339-0.805 0.721s-0.021 0.785 0.233 1.060l1.186 1.272c0.127 0.127 0.191 0.339 0.169 0.53l-0.254 1.759c-0.063 0.381 0.106 0.785 0.403 1.017 0.169 0.127 0.381 0.212 0.593 0.212 0.148 0 0.318-0.043 0.445-0.106l1.547-0.785c0.169-0.085 0.36-0.085 0.529 0l1.547 0.785c0.339 0.169 0.741 0.149 1.059-0.085 0.297-0.233 0.466-0.615 0.403-1.017l-0.233-1.759c-0.021-0.191 0.043-0.381 0.169-0.53l1.186-1.272z"></path>
</svg>
<svg id="icon-c_9" width="16" height="16" viewBox="0 0 16 16" x="0" y="546">
<path fill="#99a5a0" d="M10.212 6.381c0.845 0 1.529-0.675 1.529-1.507 0-0.005-0.002-0.011-0.002-0.017 0-0.007 0.002-0.011 0.002-0.017 0-0.833-0.685-1.507-1.529-1.507s-1.529 0.675-1.529 1.507c0 0.007 0.001 0.012 0.001 0.019 0 0.005-0.001 0.010-0.001 0.014 0 0.118 0.019 0.231 0.047 0.341l-2.795 1.819c-0.277-0.269-0.655-0.435-1.073-0.435-0.845 0-1.529 0.675-1.529 1.507 0 0.006 0.001 0.011 0.001 0.017s-0.001 0.011-0.001 0.016c0 0.833 0.685 1.507 1.529 1.507 0.451 0 0.851-0.197 1.131-0.502l2.693 1.951c-0.001 0.008-0.003 0.016-0.003 0.025 0 0.005 0.001 0.011 0.001 0.017s-0.001 0.011-0.001 0.017c0 0.832 0.685 1.507 1.529 1.507s1.529-0.675 1.529-1.507c0-0.006-0.002-0.011-0.002-0.017s0.002-0.012 0.002-0.017c0-0.833-0.685-1.507-1.529-1.507-0.547 0-1.023 0.285-1.293 0.711l-2.57-1.861c0.024-0.105 0.041-0.211 0.041-0.323 0-0.005-0.001-0.010-0.001-0.015 0-0.007 0.001-0.012 0.001-0.019 0-0.137-0.025-0.267-0.061-0.392l2.775-1.807c0.278 0.29 0.67 0.473 1.107 0.473z"></path>
</svg>
<svg id="icon-c_10" width="16" height="16" viewBox="0 0 16 16" x="0" y="572">
<path fill="#99a5a0" d="M11.054 3.333h-6.691c-0.571 0-1.029 0.463-1.029 1.034v7.265c0 0.571 0.461 1.034 1.029 1.034h6.691c0.571 0 1.029-0.463 1.029-1.034v-7.264c0-0.572-0.461-1.035-1.029-1.035zM5.448 4.686c0.427 0 0.772 0.345 0.772 0.778 0 0.43-0.343 0.778-0.772 0.778-0.427 0-0.772-0.345-0.772-0.778 0-0.43 0.343-0.778 0.772-0.778zM7.809 10.548h-3.133v-0.518h3.133v0.518zM9.599 9.195h-4.923v-0.518h4.923v0.518zM9.599 7.843h-4.923v-0.519h4.923v0.519z"></path>
</svg>
<svg id="icon-c_11" width="16" height="16" viewBox="0 0 16 16" x="0" y="598">
<path fill="#99a5a0" d="M11.512 12.517c-0.869 0.264-2.26 0.311-3.765 0.311-2.893 0-5.081-0.343-5.081-1.173 0-1.575 1.51-2.961 3.681-3.385-1.26-0.567-1.952-1.938-1.662-3.289s1.485-2.315 2.867-2.315c1.368-0.001 2.554 0.945 2.859 2.279s-0.354 2.701-1.587 3.293c0.342 0.065 0.672 0.159 0.983 0.279-0.317 0.285-0.498 0.692-0.497 1.119 0 1.465 1.407 2.327 2.201 2.88zM11.203 8.529c0.34 0 0.639 0.16 0.843 0.405 0.203-0.244 0.503-0.405 0.843-0.405 0.611 0 1.111 0.504 1.111 1.123 0 1.272-1.415 1.939-1.893 2.341l-0.061 0.053-0.061-0.053c-0.479-0.403-1.893-1.069-1.893-2.341 0-0.619 0.5-1.123 1.111-1.123h-0.001z"></path>
</svg>
<svg id="icon-d_1" width="16" height="16" viewBox="0 0 16 16" x="0" y="624">
<path fill="#3c9" d="M10.546 7.369c0.212 0.107 0.457 0.259 0.734 0.455s0.585 0.447 0.921 0.755c0.337 0.308 0.683 0.694 1.036 1.159s0.709 1.015 1.069 1.65c0.359 0.635 0.701 1.374 1.027 2.215-0.163 0.088-0.329 0.191-0.497 0.308s-0.335 0.223-0.497 0.315c-0.163 0.093-0.332 0.166-0.506 0.22s-0.348 0.066-0.522 0.037c-0.467-0.088-0.883-0.127-1.248-0.117s-0.699 0.047-1.003 0.11c-0.305 0.063-0.587 0.144-0.848 0.242s-0.514 0.193-0.759 0.286c-0.245 0.093-0.489 0.171-0.734 0.235s-0.509 0.095-0.791 0.095c-0.609-0.010-1.196-0.091-1.762-0.242s-1.104-0.305-1.615-0.462c-0.511-0.157-0.987-0.276-1.427-0.359s-0.84-0.061-1.199 0.066c-0.217 0.078-0.441 0.083-0.669 0.015s-0.435-0.157-0.62-0.264c-0.217-0.127-0.429-0.289-0.636-0.484 0.403-1.115 0.859-2.068 1.37-2.86s1.003-1.445 1.476-1.958c0.473-0.513 0.892-0.902 1.256-1.166s0.595-0.425 0.693-0.484c0.098-0.049 0.152-0.169 0.163-0.359s0.005-0.384-0.016-0.579c-0.033-0.235-0.081-0.494-0.147-0.777l-2.398-4.327 2.871-0.425c0.293 0.499 0.579 0.877 0.857 1.137s0.544 0.435 0.799 0.528c0.255 0.093 0.497 0.117 0.726 0.073s0.441-0.129 0.636-0.257c0.457-0.293 0.886-0.787 1.289-1.481l2.887 0.425c-0.217 0.459-0.457 0.934-0.718 1.423-0.217 0.421-0.47 0.885-0.759 1.393s-0.595 1.012-0.921 1.511c-0.131 0.333-0.204 0.606-0.22 0.821s-0.008 0.391 0.025 0.528c0.043 0.157 0.109 0.279 0.196 0.367 0.109 0.049 0.269 0.127 0.481 0.235z"></path>
</svg>
<svg id="icon-d_2" width="16" height="16" viewBox="0 0 16 16" x="0" y="650">
<path fill="#f5a623" d="M9.221 2.007h3.483c0.934 0.197 1.663 1.046 1.785 2.039 0.006 0.050-0.009 0.101-0.042 0.139s-0.080 0.060-0.129 0.060h-12.652c-0.049 0-0.097-0.022-0.129-0.060s-0.048-0.089-0.042-0.139c0.122-0.993 0.851-1.842 1.785-2.039h3.503v-0.647c0-0.383 0.303-0.693 0.678-0.693h1.085c0.375 0 0.678 0.31 0.678 0.693v0.647zM14.47 11.613c-0.054 2.253 0 2.279-1.903 2.253-0.192-0.003-0.323 0.191-0.323 0.383v0.029c0 0.103-0.040 0.201-0.111 0.274s-0.168 0.113-0.269 0.113h-0.103c-0.21 0-0.379-0.173-0.379-0.387 0-0.103-0.040-0.201-0.111-0.274s-0.168-0.113-0.268-0.113h-6.004c-0.101 0-0.197 0.041-0.269 0.113s-0.111 0.171-0.111 0.274c0 0.103-0.040 0.201-0.111 0.274s-0.168 0.113-0.269 0.113h-0.103c-0.21 0-0.379-0.173-0.379-0.387v-0.029c0-0.191-0.131-0.386-0.323-0.383-1.611 0.025-1.903 0.025-1.903-2.253v-4.965c0-0.005-0.284-0.011-0.852-0.021-0.375 0-0.678-0.31-0.678-0.693v-0.277c0-0.383 0.303-0.693 0.678-0.693h14.644c0.375 0 0.678 0.31 0.678 0.693v0.277c0 0.383-0.303 0.693-0.678 0.693h-0.851l-0.001 4.986zM6.576 11.063c-0.262 0-0.475 0.217-0.475 0.485s0.213 0.485 0.475 0.485h2.983c0.262 0 0.475-0.217 0.475-0.485s-0.213-0.485-0.475-0.485h-2.983zM8.068 8.152c0.262 0 0.475-0.217 0.475-0.485s-0.213-0.485-0.475-0.485c-0.262 0-0.475 0.217-0.475 0.485s0.213 0.485 0.475 0.485zM8.068 10.093c0.262 0 0.475-0.217 0.475-0.485s-0.213-0.485-0.475-0.485c-0.262 0-0.475 0.217-0.475 0.485s0.213 0.485 0.475 0.485z"></path>
</svg>
<svg id="icon-d_3" width="16" height="16" viewBox="0 0 16 16" x="0" y="676">
<path fill="#73c816" d="M5.693 0.323v0zM0.766 4.072c0 0.677 0.549 1.227 1.227 1.227s1.227-0.549 1.227-1.227c0-0.677-0.549-1.227-1.227-1.227s-1.227 0.549-1.227 1.227zM2.649 5.605l0.002 0.006c-0.268 0.004-0.529 0.178-0.688 0.493-0.263 0.522-0.186 1.148-0.036 1.696 0.066 0.238 0.146 0.473 0.225 0.707 0.219 0.646 0.374 1.395 0.975 1.807 0.36 0.246 0.795 0.324 1.217 0.374 0.322 0.038 0.738 0.035 1.027 0.199 0.311 0.176 0.302 0.576 0.344 0.885 0.051 0.37 0.104 0.74 0.154 1.11 0.031 0.23 0.068 0.466 0.096 0.766 0 0.004-0.002 0.007-0.002 0.010 0 0.187 0.151 0.338 0.338 0.338 0.185 0 0.334-0.149 0.337-0.333h0.006c0.001-0.098 0.097-1.41 0.121-1.881 0.026-0.508 0.087-1.090-0.155-1.56-0.036-0.071-0.080-0.137-0.131-0.198-0.359-0.43-0.986-0.494-1.496-0.687-0.153-0.058-0.303-0.134-0.428-0.238-0.466-0.386-0.558-1.066-0.739-1.696-0.085-0.296-0.136-0.531-0.211-0.758l0.234 0.036c0.171 0.004 0.377 0.028 0.548 0.037 0.226 0.011 0.423 0.035 0.617-0.12 0.152-0.122 1.308-1.381 1.308-1.503 0-0.149-0.121-0.27-0.27-0.27-0.088 0-1.165 1.030-1.286 1.108-0.119 0.076-0.277 0.019-0.393-0.017-0.15-0.047-0.301-0.092-0.453-0.132-0.34-0.089-0.918-0.228-1.261-0.179zM8.471 12.549c0.023 0.012 0.047 0.018 0.073 0.018 0.019 0 0.037-0.003 0.055-0.010l6.551-2.433c0.080-0.030 0.123-0.118 0.095-0.199-0.010-0.011-2.758-8.195-9.904-9.92-0.054-0.014-0.111 0.003-0.15 0.043-0.039 0.039-0.054 0.097-0.040 0.151l3.239 12.251c0.012 0.042 0.041 0.079 0.081 0.099zM7.966 7.965c-0.060-0.278 0.117-0.552 0.395-0.612 0.142-0.030 3.466-0.711 5.536 1.925 0.175 0.223 0.137 0.547-0.087 0.723-0.094 0.073-0.206 0.11-0.318 0.11-0.152 0-0.304-0.067-0.405-0.197-1.676-2.136-4.392-1.58-4.51-1.555-0.271 0.061-0.55-0.116-0.611-0.394zM15.855 14.669c0.215 0.252 0.189 0.636-0.061 0.852-0.251 0.214-0.625 0.191-0.842-0.062l-0.008-0.009c-0.043-0.050-0.082-0.102-0.13-0.141-0.226-0.181-0.633-0.198-0.903 0.009-0.032 0.025-0.083 0.085-0.128 0.138-0.12 0.143-0.285 0.337-0.548 0.456l-0.091 0.042-0.256 0.035-0.074-0.005c-0.070-0.007-0.18-0.017-0.303-0.075-0.255-0.116-0.42-0.31-0.54-0.452-0.045-0.054-0.097-0.115-0.127-0.137-0.273-0.21-0.678-0.192-0.906-0.009-0.043 0.035-0.080 0.083-0.119 0.129-0.143 0.166-0.339 0.395-0.671 0.5-0.568 0.178-0.956-0.213-1.124-0.381-0.17-0.169-0.281-0.273-0.394-0.317-0.175-0.065-0.379-0.063-0.56 0.011-0.084 0.035-0.162 0.11-0.282 0.23-0.113 0.114-0.243 0.243-0.417 0.358-0.162 0.106-0.326 0.159-0.491 0.159-0.291 0-0.585-0.166-0.88-0.497-0.141-0.151-0.227-0.216-0.319-0.264-0.451-0.23-0.875 0.137-1.037 0.307-0.142 0.149-0.574 0.603-1.182 0.354-0.28-0.114-0.465-0.3-0.613-0.448-0.092-0.092-0.173-0.173-0.238-0.196-0.23-0.083-0.464-0.076-0.642 0.019-0.061 0.032-0.146 0.103-0.228 0.171-0.26 0.218-0.656 0.55-1.232 0.457-0.327-0.050-0.552-0.357-0.501-0.685 0.050-0.327 0.363-0.551 0.684-0.501 0.042-0.003 0.192-0.118 0.281-0.192 0.125-0.104 0.265-0.221 0.438-0.312 0.476-0.252 1.063-0.283 1.609-0.086 0.318 0.116 0.527 0.326 0.68 0.478 0.032 0.033 0.065 0.066 0.095 0.094 0.712-0.732 1.644-0.935 2.437-0.525 0.208 0.108 0.403 0.255 0.578 0.438l0.073 0.079 0.056-0.056c0.161-0.162 0.362-0.363 0.673-0.492 0.462-0.19 0.99-0.198 1.449-0.021 0.357 0.138 0.603 0.382 0.782 0.56l0.023 0.023c0.015-0.017 0.028-0.033 0.041-0.048 0.088-0.102 0.176-0.201 0.276-0.281 0.65-0.523 1.685-0.545 2.384-0.014 0.129 0.098 0.228 0.212 0.308 0.306 0.081-0.094 0.179-0.208 0.31-0.308 0.693-0.526 1.732-0.506 2.381 0.015 0.105 0.085 0.198 0.189 0.289 0.294z"></path>
</svg>
<svg id="icon-d_4" width="16" height="16" viewBox="0 0 16 16" x="0" y="702">
<path fill="#00a2ff" d="M6.667 9.667c0 0.921 0.746 1.667 1.667 1.667s1.667-0.746 1.667-1.667c0-0.921-0.746-1.667-1.667-1.667s-1.667 0.746-1.667 1.667z"></path>
<path fill="#00a2ff" d="M14.905 4.236h-2.133c-0.428 0-0.816-0.254-0.995-0.651l-0.421-0.934c-0.179-0.397-0.567-0.651-0.995-0.651h-3.901c-0.428 0-0.817 0.254-0.995 0.651l-0.421 0.934c-0.179 0.397-0.567 0.651-0.995 0.651h-2.286c-0.603 0-1.095 0.503-1.095 1.118v8.945c0 0.615 0.493 1.118 1.095 1.118h13.143c0.603 0 1.095-0.503 1.095-1.118v-8.945c0-0.615-0.493-1.118-1.095-1.118zM4.5 7.031h-1.643c-0.303 0-0.547-0.25-0.547-0.559s0.245-0.559 0.547-0.559h1.643c0.303 0 0.547 0.25 0.547 0.559s-0.245 0.559-0.547 0.559zM8.333 12.621c-1.51 0-2.738-1.254-2.738-2.795s1.228-2.795 2.738-2.795c1.51 0 2.738 1.253 2.738 2.795s-1.228 2.795-2.738 2.795z"></path>
</svg>
<svg id="icon-d_5" width="16" height="16" viewBox="0 0 16 16" x="0" y="728">
<path fill="#c3549c" d="M8.692 1.135c0.342-0.047 0.359-0.016 0.359-0.016 0.187 0 0.22 0.199 0.22 0.445v2.793c0 0.207 0.065 0.603-0.244 0.603h-1.897c-0.253-0.024-0.301-0.278-0.301-0.603l-0.008-1.563c0-0.46 1.588-1.611 1.873-1.659zM6.477 5.897h3.249c0.253 0 0.464 0.183 0.464 0.405v1.047c0 0.222-0.212 0.405-0.464 0.405h-3.339c-0.261 0-0.473-0.183-0.473-0.405v-1.047c0-0.222 0.212-0.405 0.473-0.405h0.089zM11.209 7.801v-1.976c0-0.437-0.375-0.793-0.855-0.849v-3.945c0-0.516-0.448-1.032-0.831-1.032 0 0-0.529 0-0.855 0.071-1.067 0.207-2.948 1.508-2.948 2.754v2.143c-0.489 0.055-0.871 0.413-0.871 0.857v1.976h-0.057c-0.798 0-1.458 0.54-1.458 1.199v5.801c0 0.659 0.66 1.199 1.458 1.199h6.418c0.798 0 1.458-0.54 1.458-1.199v-5.801c0-0.659-0.66-1.199-1.458-1.199z"></path>
</svg>
<svg id="icon-d_6" width="16" height="16" viewBox="0 0 16 16" x="0" y="754">
<path fill="#00a2ff" d="M12.822 7.719c0.181 0.181 0.272 0.409 0.272 0.681s-0.091 0.505-0.272 0.697l-6.611 6.631c-0.203 0.181-0.44 0.272-0.713 0.272s-0.499-0.091-0.68-0.272l-4.53-4.533c-0.192-0.192-0.288-0.422-0.288-0.689s0.096-0.502 0.288-0.705l6.627-6.615c0.192-0.192 0.421-0.288 0.688-0.288s0.496 0.096 0.688 0.288l4.53 4.533zM7.94 5.621c0.096-0.096 0.144-0.213 0.144-0.353s-0.048-0.251-0.144-0.336c-0.096-0.096-0.211-0.144-0.344-0.144s-0.248 0.048-0.344 0.144l-4.867 4.869c-0.096 0.096-0.144 0.213-0.144 0.353s0.048 0.256 0.144 0.353c0.096 0.096 0.211 0.144 0.344 0.144s0.248-0.048 0.344-0.144l4.867-4.885zM14.375 6.486c0.149 0.149 0.224 0.325 0.224 0.529s-0.075 0.379-0.224 0.529c-0.139 0.149-0.309 0.224-0.512 0.224s-0.379-0.075-0.528-0.224l-4.867-4.869c-0.149-0.149-0.224-0.325-0.224-0.529s0.075-0.379 0.224-0.529c0.139-0.149 0.309-0.224 0.512-0.224s0.379 0.075 0.528 0.224l4.867 4.869zM15.783 1.281c-0.149 0.139-0.323 0.208-0.52 0.208s-0.371-0.069-0.52-0.208c0.203 0.213 0.352 0.454 0.448 0.721s0.133 0.55 0.112 0.849c-0.021 0.299-0.096 0.595-0.224 0.889s-0.304 0.569-0.528 0.825v0.016c0.107 0.096 0.16 0.211 0.16 0.345s-0.053 0.248-0.16 0.345c-0.096 0.096-0.213 0.144-0.352 0.144s-0.256-0.048-0.352-0.144l-3.121-3.123c-0.085-0.096-0.128-0.213-0.128-0.353s0.048-0.256 0.144-0.353c0.085-0.107 0.197-0.16 0.336-0.16s0.256 0.053 0.352 0.16v0.016c0.256-0.235 0.533-0.417 0.833-0.545s0.597-0.2 0.897-0.216c0.299-0.016 0.584 0.021 0.857 0.112s0.515 0.237 0.729 0.441c-0.149-0.149-0.224-0.323-0.224-0.521s0.075-0.366 0.224-0.505c0.149-0.149 0.323-0.224 0.52-0.224s0.371 0.075 0.52 0.224c0.139 0.149 0.211 0.325 0.216 0.529s-0.067 0.379-0.216 0.529z"></path>
</svg>
<svg id="icon-d_7" width="16" height="16" viewBox="0 0 16 16" x="0" y="780">
<path fill="#5ba20d" d="M15.333 0h-9.333v14h9.333c0 0-0.737-1.068-0.737-2.302s0.737-1.519 0.737-3.156c0-1.637-0.737-1.851-0.737-3.417 0-1.543 0.737-2.919 0.737-4.153v-0.973z"></path>
<path fill="#73c816" d="M1.333 2v12.175c0 0.998 2.376 1.825 5.333 1.825s5.333-0.827 5.333-1.825v-12.175h-10.667z"></path>
<path fill="#cae699" d="M1.333 1.667c0 0.921 2.388 1.667 5.333 1.667s5.333-0.746 5.333-1.667c0-0.921-2.388-1.667-5.333-1.667s-5.333 0.746-5.333 1.667z"></path>
<path fill="#5c8e25" d="M7 2.667c-1.167 0-2.333-0.35-2.333-1s1.167-1 2.333-1c1.167 0 2.333 0.35 2.333 1s-1.167 1-2.333 1z"></path>
<path fill="#f0fddc" opacity="0.412364" d="M9.333 3.466l0.667-0.133v1.458h-0.667v-1.326zM9.333 5.505h0.667v1.427h-0.667v-1.427zM9.333 7.645h0.667v1.427h-0.667v-1.427zM9.333 9.785h0.667v1.427h-0.667v-1.427zM9.333 11.925h0.667v1.427h-0.667v-1.427zM9.333 14.065h0.667v1.127l-0.667 0.142v-1.268z"></path>
</svg>
<svg id="icon-d_8" width="16" height="16" viewBox="0 0 16 16" x="0" y="806">
<path fill="#73c816" d="M16 7.77c0 0.241-0.039 0.472-0.097 0.696-0.003 0.023-0.006 0.045-0.009 0.067h-0.013c-0.35 1.227-1.505 2.133-2.891 2.133-1.001 0-1.881-0.475-2.429-1.199-0.519 0.713-1.473 1.199-2.577 1.199-1.1 0-2.051-0.481-2.571-1.19-0.543 0.719-1.417 1.19-2.41 1.19-1.404 0-2.574-0.937-2.893-2.193-0.006 0.021-0.017 0.039-0.022 0.059h-0.013c-0.024-0.185-0.076-0.365-0.076-0.555 0-0.057 0.017-0.109 0.019-0.166 0-0.007-0.002-0.013-0.002-0.019 0-0.219 0.031-0.431 0.079-0.636 0.46-2.415 2.891-4.36 6.068-4.907 0.311 0.559 1.007 0.949 1.82 0.949s1.509-0.391 1.82-0.949c2.886 0.497 5.145 2.153 5.885 4.261 0.193 0.382 0.311 0.806 0.311 1.259zM7.985 2.133c-0.564 0-1.019-0.5-0.997-1.108 0.019-0.549 0.444-1.003 0.957-1.025 0.569-0.024 1.037 0.463 1.037 1.066 0 0.589-0.447 1.067-0.997 1.067zM7.985 11.8c1.036 0 1.949-0.47 2.486-1.183 0.533 0.711 1.451 1.183 2.495 1.183 0.418 0 0.814-0.076 1.175-0.211l-0.984 3.716c-0.109 0.411-0.46 0.695-0.859 0.695h-8.626c-0.399 0-0.751-0.284-0.859-0.695l-1.004-3.789c0.365 0.139 0.767 0.218 1.19 0.218 1.031 0 1.941-0.457 2.478-1.151 0.533 0.732 1.455 1.218 2.508 1.218z"></path>
</svg>
<svg id="icon-d_9" width="16" height="16" viewBox="0 0 16 16" x="0" y="832">
<path fill="#eb5656" d="M6.667 8.087c0-0.417 0.208-0.833 0.521-1.146s0.729-0.521 1.146-0.521c0.417 0 0.833 0.208 1.146 0.521s0.521 0.729 0.521 1.146c0 0.417-0.208 0.833-0.521 1.146s-0.729 0.521-1.146 0.521c-0.417 0-0.833-0.208-1.146-0.521s-0.521-0.729-0.521-1.146zM14.225 5.684c-0.353-0.771-0.777-1.403-1.343-2.034-0.565-0.561-1.272-1.052-2.049-1.333s-1.625-0.421-2.473-0.421c-0.848 0-1.696 0.14-2.473 0.491s-1.413 0.771-2.049 1.333c-0.565 0.561-0.989 1.263-1.343 1.964-0.353 0.842-0.495 1.613-0.495 2.525 0 0.842 0.141 1.683 0.495 2.455s0.777 1.403 1.343 2.034c0.353 0.351 0.707 0.631 1.131 0.912 0.353 0.771 1.060 2.385 1.555 2.385h3.463c0 0 0.353 0.14 0.848-1.052 0.212-0.491 0.424-0.912 0.495-1.193 0.565-0.281 0.989-0.631 1.484-1.052 0.565-0.561 1.060-1.263 1.343-2.034 0.353-0.771 0.495-1.613 0.495-2.455 0.071-0.912-0.071-1.683-0.424-2.525zM3.029 8.139c0-2.933 2.377-5.292 5.331-5.292s5.331 2.359 5.331 5.292c0 2.933-2.377 5.292-5.331 5.292s-5.331-2.359-5.331-5.292zM11.257 1.896c-0.283-2.034-0.848-1.894-0.848-1.894h-4.099c-0.565 0-0.848 1.894-0.848 1.894s2.756-1.473 5.795 0z"></path>
</svg>
<svg id="icon-d_10" width="16" height="16" viewBox="0 0 16 16" x="0" y="858">
<path fill="#586cc0" d="M8.727 1.536v-0.814c0-0.399-0.325-0.722-0.727-0.722s-0.727 0.323-0.727 0.722v0.814c-4.071 0.368-7.273 3.105-7.273 7.242 0 0.399 0.325 0.722 0.727 0.722h2.975c0.348 2.047 2.139 3.611 4.298 3.611s3.95-1.564 4.298-3.611h2.975c0.402 0 0.727-0.323 0.727-0.722 0-4.137-3.202-6.874-7.273-7.242zM8 11.667c-1.352 0-2.493-0.921-2.816-2.167h5.634c-0.325 1.246-1.466 2.167-2.818 2.167zM8 13.833c0.402 0 0.727 0.323 0.727 0.722v0.722c0 0.399-0.325 0.722-0.727 0.722s-0.727-0.323-0.727-0.722v-0.722c0-0.399 0.325-0.722 0.727-0.722zM5.737 13.307c0.359 0.176 0.509 0.609 0.327 0.966l-0.323 0.648c-0.127 0.255-0.384 0.402-0.652 0.402-0.109 0-0.218-0.023-0.323-0.075-0.359-0.178-0.507-0.611-0.327-0.968l0.323-0.648c0.177-0.357 0.616-0.503 0.975-0.325zM2.927 11.698c0.321-0.241 0.777-0.181 1.018 0.14 0.243 0.316 0.182 0.769-0.139 1.011l-0.579 0.435c-0.132 0.099-0.284 0.147-0.439 0.147-0.221 0-0.437-0.099-0.579-0.287-0.243-0.316-0.182-0.769 0.139-1.011l0.579-0.435zM11.237 13.633l0.323 0.65c0.179 0.359 0.032 0.792-0.327 0.968-0.105 0.049-0.213 0.075-0.323 0.075-0.268 0-0.525-0.149-0.652-0.402l-0.323-0.648c-0.179-0.359-0.032-0.792 0.327-0.968 0.359-0.178 0.798-0.031 0.975 0.325zM13.073 11.698l0.579 0.433c0.321 0.241 0.382 0.693 0.139 1.011-0.143 0.189-0.359 0.287-0.579 0.287-0.152 0-0.307-0.047-0.439-0.147l-0.579-0.435c-0.321-0.241-0.382-0.693-0.139-1.011s0.698-0.379 1.018-0.138z"></path>
</svg>
<svg id="icon-d_11" width="16" height="16" viewBox="0 0 16 16" x="0" y="884">
<path fill="#009eff" d="M8 7c-0.551 0-1 0.449-1 1s0.449 1 1 1c0.551 0 1-0.449 1-1s-0.449-1-1-1z"></path>
<path fill="#00a2ff" d="M8 0c-4.411 0-8 3.589-8 8s3.589 8 8 8 8-3.589 8-8c0-4.411-3.589-8-8-8zM8 10.667c-1.471 0-2.667-1.196-2.667-2.667s1.196-2.667 2.667-2.667c1.471 0 2.667 1.196 2.667 2.667s-1.196 2.667-2.667 2.667z"></path>
</svg>
<svg id="icon-d_12" width="16" height="16" viewBox="0 0 16 16" x="0" y="910">
<path fill="#00a2ff" d="M16 9.897c0-2.461-1.609-3.409-1.609-3.409h-0.003c0.003-0.514-0.067-4.488-3.11-4.488h-6.505c-3.043 0-3.113 3.974-3.109 4.488h-0.007c0 0-1.657 0.269-1.657 3.391 0 0.905 0.205 1.494 0.735 1.878v0.923c0 0.701 0.621 1.321 1.352 1.321h0.022c0.731 0 1.225-0.621 1.225-1.321v-0.284c1.133 0.077 2.613 0.077 4.521 0.078v-0.037h0.24v0.037c1.937-0.001 3.437 0.001 4.583-0.077v0.283c0 0.701 0.577 1.321 1.309 1.321h0.023c0.731 0 1.269-0.621 1.269-1.321v-0.929c0.517-0.381 0.721-0.963 0.721-1.853zM14.978 8.751c0 0.577-0.473 1.045-1.058 1.045s-1.058-0.467-1.058-1.045c0-0.577 0.473-1.045 1.058-1.045s1.058 0.467 1.058 1.045zM5.308 2.839h5.435c2.718 0 2.597 3.503 2.597 3.503h-10.629c0 0-0.121-3.503 2.597-3.503zM2.019 7.706c0.585 0 1.058 0.467 1.058 1.045s-0.473 1.045-1.058 1.045c-0.584 0-1.058-0.467-1.058-1.045s0.473-1.045 1.058-1.045zM10.817 10.921h-5.199c-0.563 0-1.019-0.448-1.019-1.003s0.456-1.003 1.019-1.003h5.199c0.563 0 1.019 0.448 1.019 1.003s-0.456 1.003-1.019 1.003z"></path>
</svg>
<svg id="icon-d_13" width="16" height="16" viewBox="0 0 16 16" x="0" y="936">
<path fill="#73c816" d="M5.642 9.104c-0.775-0.894-1.779-2.619-1.254-4.702 2.796 1.233 2.518 4.84 2.821 10.344h-0.627v-1.254h-2.194c0 0-2.194 0.159-2.194 0.94s1.736 1.567 6.269 1.567c4.533 0 5.329-1.189 5.329-1.567s-0.451-0.94-2.194-0.94h-1.254c0 0-0.233-3.547 2.194-7.209 0.307 0.427 0.73 1.393-0.627 3.135 1.615-0.152 1.938-1.134 1.881-2.508 0.454 0.235 0.8 0.71 0.627 2.508 0.944-0.569 1.46-2.257 0-3.448 0.66 0.040 1.015 0.063 1.254 1.254 0.883-0.778-0.293-2.987-2.194-2.507-0.373-2.261-3.761-1.948-3.761-0.627 0.758-0.15 1.622-0.121 1.881 0.313-0.853 0.034-1.881 0.158-1.881 2.507 0.769-0.87 1.078-1.327 2.507-1.254-0.923 0.565-2.821 3.147-2.821 9.090-0.517 0.007-0.94 0-0.94 0s0.404-8.453-3.135-10.971c1.44-0.132 2.581-0.155 3.761 2.194 0.177-1.285 0.181-4.042-2.821-3.761 0.329-0.647 0.297-1.101 2.821-0.94-1.639-2.413-5.233-1.037-5.329 1.254 0 0-3.773-0.777-3.761 3.135 1.001-0.989 1.471-1.409 1.881-1.567-0.534 0.739-1.859 2.699 0 4.389 0.064-2.269 0.574-2.634 0.94-3.135 0.021 1.133 0.098 3.689 2.821 3.761z"></path>
</svg>
<svg id="icon-d_14" width="16" height="16" viewBox="0 0 16 16" x="0" y="962">
<path fill="#73c816" d="M11.411 4.787c-0.201-0.101-0.234-0.335-0.101-0.502 0.101-0.134 0.201-0.268 0.268-0.402 0.636-1.105 0.603-2.377-0.134-2.778-0.167-0.101-0.335-0.134-0.535-0.134s-0.368 0.033-0.569 0.134c-0.033 0.033-0.101 0.033-0.134 0.033-0.101 0-0.201-0.033-0.268-0.134-0.435-0.603-1.138-1.004-1.941-1.004s-1.506 0.402-1.941 1.004c-0.067 0.101-0.167 0.134-0.268 0.134-0.033 0-0.101 0-0.134-0.033-0.167-0.134-0.368-0.167-0.535-0.167-0.201 0-0.368 0.033-0.535 0.134-0.703 0.402-0.77 1.673-0.134 2.778 0.101 0.134 0.167 0.301 0.268 0.402 0.134 0.167 0.101 0.402-0.101 0.502-2.343 1.239-3.95 3.715-3.95 6.561 0 1.439 0.469 2.778 1.239 3.883 0.368 0.502 0.971 0.803 1.607 0.803h9.037c0.636 0 1.239-0.301 1.607-0.803 0.77-1.105 1.239-2.443 1.239-3.883 0-2.845-1.607-5.322-3.983-6.527zM8.031 13.657c0-1.841-1.506-3.347-3.347-3.347 1.841 0 3.347-1.506 3.347-3.347 0 1.841 1.506 3.347 3.347 3.347-1.841 0-3.347 1.506-3.347 3.347z"></path>
</svg>
<svg id="icon-d_15" width="16" height="16" viewBox="0 0 16 16" x="0" y="988">
<path fill="#c3549c" d="M0.775 11.361l5.389-6.681c-0.007-0.101-0.015-0.202-0.015-0.306 0-2.412 1.963-4.375 4.375-4.375s4.375 1.963 4.375 4.375c0 2.412-1.963 4.375-4.375 4.375-0.103 0-0.205-0.008-0.306-0.015l-6.68 5.389c-0.090 0.072-0.198 0.107-0.305 0.107-0.125 0-0.25-0.048-0.344-0.143l-0.381-0.381c-0.001 0.147 0.018 0.302 0.074 0.455 0.125 0.339 0.421 0.608 0.877 0.8 0.538 0.227 1.374-0.166 2.343-0.619 1.783-0.836 4.225-1.981 6.839 0.067 0.212 0.166 0.249 0.473 0.083 0.684s-0.472 0.249-0.683 0.083c-2.142-1.679-4.099-0.761-5.825 0.049-0.847 0.397-1.657 0.777-2.405 0.777-0.25 0-0.494-0.043-0.729-0.141-0.715-0.301-1.19-0.758-1.412-1.36-0.233-0.629-0.117-1.254-0.001-1.631l-0.857-0.857c-0.176-0.176-0.191-0.456-0.035-0.649zM13.277 4.375c0-1.519-1.235-2.754-2.755-2.754s-2.754 1.235-2.754 2.754 1.235 2.755 2.754 2.755c1.519 0 2.755-1.236 2.755-2.755zM3.265 13.090l5.729-4.621c-1.183-0.444-2.123-1.383-2.566-2.566l-4.621 5.729 0.69 0.69c0.063 0.040 0.115 0.091 0.152 0.152l0.617 0.617zM6.197 8.070c0.19-0.19 0.499-0.19 0.689 0s0.19 0.499 0 0.689l-1.055 1.055c-0.095 0.095-0.219 0.143-0.344 0.143s-0.249-0.048-0.344-0.143c-0.19-0.19-0.19-0.499 0-0.689l1.055-1.055z"></path>
</svg>
<svg id="icon-d_16" width="16" height="16" viewBox="0 0 16 16" x="0" y="1014">
<path fill="#eb5656" d="M2 4v11.173l1.741-1.676 1.615 1.555 1.615-1.555 1.639 1.578 1.639-1.577 1.591 1.531 1.592-1.532 1.901 1.83v-11.327c0-1.841-1.493-3.333-3.333-3.333h-6.667c-1.841 0-3.333 1.493-3.333 3.333zM10.619 7.259v0.703h-1.334v0.607h1.334v0.703h-1.334v1.019h-1.262v-1.019h-1.377v-0.703h1.377v-0.607h-1.377v-0.703h1.129l-1.49-2.468h1.329l1.089 2.212h0.016c0.035-0.083 0.089-0.202 0.164-0.359l0.901-1.853h1.261l-1.534 2.468c0 0 1.106 0 1.106 0zM2 15.355h0.069l-0.069-0.067v0.067z"></path>
</svg>
<svg id="icon-e_1" width="16" height="16" viewBox="0 0 16 16" x="0" y="1040">
<path fill="#8a96a3" d="M6.038 6.611h-4.136c-0.315 0-0.569-0.254-0.569-0.569v-4.14c0-0.315 0.254-0.569 0.569-0.569h4.136c0.315 0 0.569 0.254 0.569 0.569v4.136c0 0.319-0.254 0.573-0.569 0.573zM13.397 6.611h-4.136c-0.315 0-0.569-0.254-0.569-0.569v-4.14c0-0.315 0.254-0.569 0.569-0.569h4.136c0.315 0 0.569 0.254 0.569 0.569v4.136c0 0.319-0.254 0.573-0.569 0.573zM6.038 13.897h-4.136c-0.315 0-0.569-0.254-0.569-0.569v-4.136c0-0.315 0.254-0.569 0.569-0.569h4.136c0.315 0 0.569 0.254 0.569 0.569v4.136c0 0.315-0.254 0.569-0.569 0.569zM10.944 14.439l-2.794-2.794c-0.212-0.212-0.212-0.557 0-0.769l2.794-2.794c0.212-0.212 0.557-0.212 0.769 0l2.794 2.794c0.212 0.212 0.212 0.557 0 0.769l-2.794 2.794c-0.212 0.212-0.557 0.212-0.769 0z"></path>
</svg>
<svg id="icon-e_2" width="16" height="16" viewBox="0 0 16 16" x="0" y="1066">
<path fill="#99a5a0" d="M12.173 13.005v0.238c0 1.157-1.889 1.157-4.077 1.157h-2.419c-2.277 0-4.077 0-4.077-1.157v-0.238c0-2.213 1.829-4.014 4.077-4.014h2.419c2.248 0 4.077 1.801 4.077 4.014zM10.277 5.059c0 1.908-1.575 3.459-3.511 3.459s-3.511-1.552-3.511-3.459c0-1.907 1.575-3.459 3.511-3.459s3.511 1.552 3.511 3.459z"></path>
</svg>
<svg id="icon-e_3" width="16" height="16" viewBox="0 0 16 16" x="0" y="1092">
<path fill="#99a5a0" d="M12.83 1.684h-9.659c-0.825 0-1.486 0.669-1.486 1.493v10.487c0 0.825 0.666 1.493 1.486 1.493h9.659c0.825 0 1.486-0.669 1.486-1.493v-10.487c0-0.826-0.665-1.494-1.486-1.494zM4.737 3.637c0.616 0 1.115 0.499 1.115 1.123 0 0.621-0.495 1.123-1.115 1.123-0.616 0-1.115-0.499-1.115-1.123 0-0.621 0.495-1.123 1.115-1.123zM8.146 12.099h-4.523v-0.748h4.523v0.748zM10.73 10.146h-7.107v-0.748h7.107v0.748zM10.73 8.194h-7.107v-0.749h7.107v0.749z"></path>
</svg>
<svg id="icon-e_4" width="16" height="16" viewBox="0 0 16 16" x="0" y="1118">
<path fill="#99a5a0" d="M9.649 1.929v-1.12h-3.461v1.12h-4.578v1.172h12.727v-1.172z"></path>
<path fill="#99a5a0" d="M2.861 4.224v10.221h10.221v-10.221h-10.221zM6.266 12.174h-1.135v-5.679h1.135v5.679zM8.539 12.174h-1.135v-5.679h1.135v5.679zM10.81 12.174h-1.135v-5.679h1.135v5.679z"></path>
</svg>
<svg id="icon-e_5" width="16" height="16" viewBox="0 0 16 16" x="0" y="1144">
<path fill="#99a5a0" d="M14.001 7.451c0.378-0.378 0.494-0.959 0.32-1.454-0.175-0.523-0.581-0.901-1.105-0.989l-2.326-0.407c-0.262-0.058-0.465-0.203-0.581-0.436l-1.105-2.151c-0.203-0.523-0.669-0.814-1.192-0.814s-0.989 0.291-1.25 0.785l-1.076 2.151c-0.116 0.233-0.349 0.407-0.581 0.436l-2.326 0.407c-0.523 0.087-0.931 0.465-1.105 0.989s-0.029 1.076 0.32 1.454l1.628 1.745c0.175 0.175 0.262 0.465 0.233 0.727l-0.349 2.413c-0.087 0.523 0.145 1.076 0.553 1.395 0.233 0.175 0.523 0.291 0.814 0.291 0.203 0 0.436-0.058 0.611-0.145l2.123-1.076c0.233-0.116 0.494-0.116 0.727 0l2.123 1.076c0.465 0.233 1.017 0.203 1.454-0.116 0.407-0.32 0.639-0.843 0.553-1.395l-0.32-2.413c-0.029-0.262 0.058-0.523 0.233-0.727l1.628-1.745z"></path>
</svg>
<svg id="icon-e_6" width="16" height="16" viewBox="0 0 16 16" x="0" y="1170">
<path fill="#99a5a0" d="M12.214 13.42c-1.043 0.317-2.712 0.373-4.517 0.373-3.472 0-6.097-0.412-6.097-1.407 0-1.889 1.812-3.553 4.417-4.061-1.512-0.681-2.343-2.325-1.994-3.947s1.781-2.779 3.439-2.779c1.641-0.001 3.065 1.134 3.431 2.734s-0.425 3.241-1.903 3.952c0.411 0.078 0.806 0.191 1.181 0.335-0.381 0.342-0.597 0.83-0.597 1.342 0 1.757 1.689 2.792 2.642 3.456zM11.843 8.635c0.408 0 0.767 0.192 1.011 0.485 0.244-0.293 0.604-0.485 1.011-0.485 0.734 0 1.334 0.605 1.334 1.348 0 1.526-1.699 2.326-2.272 2.809l-0.073 0.063-0.073-0.063c-0.574-0.483-2.272-1.283-2.272-2.809 0-0.743 0.6-1.348 1.334-1.348h-0.001z"></path>
</svg>
<svg id="icon-e_7" width="16" height="16" viewBox="0 0 16 16" x="0" y="1196">
<path fill="#99a5a0" d="M7.961 5.76l-0.361-1.755-0.333 1.75c-0.363 0.065-0.711 0.238-0.993 0.518-0.732 0.733-0.732 1.919 0 2.651s1.919 0.732 2.651 0c0.733-0.733 0.733-1.919 0-2.651-0.273-0.273-0.611-0.446-0.964-0.514v0zM11.832 11.831l-2.665-2.665c-0.285 0.285-0.63 0.476-0.993 0.574l0.977 3.643c-0.499 0.133-1.020 0.201-1.551 0.201s-1.050-0.069-1.549-0.201l0.977-3.643c-0.365-0.097-0.707-0.288-0.993-0.574l-2.665 2.665c-0.77-0.77-1.287-1.7-1.548-2.683l3.641-0.975c-0.101-0.375-0.101-0.771 0-1.147l-3.641-0.975c0.261-0.983 0.777-1.913 1.546-2.683l2.665 2.665c0.285-0.285 0.628-0.476 0.993-0.574l-0.975-3.643c0.499-0.132 1.019-0.201 1.549-0.201s1.050 0.069 1.551 0.201l-0.977 3.643c0.363 0.097 0.707 0.288 0.993 0.574l2.665-2.665c0.755 0.755 1.284 1.677 1.552 2.682l-3.645 0.977c0.101 0.375 0.101 0.771 0 1.147l3.643 0.977c-0.268 1.005-0.795 1.927-1.551 2.682v0zM12.409 2.791c-1.285-1.284-2.992-1.991-4.809-1.991-1.815 0-3.524 0.707-4.807 1.991-1.285 1.284-1.993 2.992-1.993 4.807 0 1.817 0.707 3.524 1.993 4.809 1.284 1.285 2.992 1.991 4.807 1.991 1.817 0 3.524-0.707 4.809-1.991s1.991-2.992 1.991-4.809c0-1.815-0.707-3.524-1.991-4.807z"></path>
</svg>
<svg id="icon-e_8" width="16" height="16" viewBox="0 0 16 16" x="0" y="1222">
<path fill="#99a5a0" d="M11.285 1.6c1.707 0 3.115 1.408 3.115 3.115v6.571c0 1.707-1.408 3.115-3.115 3.115h-6.571c-1.707 0-3.115-1.408-3.115-3.115v-6.571c0-1.707 1.408-3.115 3.115-3.115h6.571zM4.416 7.275h6.485c0.363 0 0.683-0.213 0.832-0.555 0.128-0.341 0.064-0.725-0.192-0.96l-1.365-1.365c-0.171-0.171-0.448-0.171-0.64 0-0.171 0.171-0.171 0.448 0 0.64l1.365 1.365h-6.485c-0.256 0-0.448 0.192-0.448 0.448s0.213 0.427 0.448 0.427zM11.371 8.725h-6.507c-0.363 0-0.683 0.213-0.832 0.555s-0.064 0.725 0.192 0.96l1.365 1.365c0.085 0.085 0.192 0.128 0.32 0.128 0.107 0 0.235-0.043 0.32-0.128 0.171-0.171 0.171-0.448 0-0.64l-1.365-1.365h6.485c0.256 0 0.448-0.192 0.448-0.448 0.021-0.235-0.192-0.427-0.427-0.427z"></path>
</svg>
<svg id="icon-e_9" width="16" height="16" viewBox="0 0 16 16" x="0" y="1248">
<path fill="#99a5a0" d="M12.8 14.4h-2.080c-0.4 0-0.8-0.16-1.12-0.48-0.4-0.4-0.96-0.64-1.52-0.64s-1.12 0.24-1.52 0.64c-0.4 0.32-0.8 0.48-1.28 0.48h-2.080c-0.88 0-1.6-0.72-1.6-1.6v-8.8c0-1.232 0.605-2.4 2.4-2.4h1.36c0.4 0 0.8 0.16 1.12 0.48 0.4 0.4 0.96 0.64 1.52 0.64s1.12-0.24 1.52-0.64c0.32-0.32 0.72-0.48 1.12-0.48-0.005 0 0.449 0 1.36 0 1.367 0 2.4 0.677 2.4 2.4v8.8c0 0.88-0.72 1.6-1.6 1.6zM14 6.96c0.24 0 0.4-0.16 0.4-0.4s-0.16-0.4-0.4-0.4h-1.84c-0.24 0-0.4 0.16-0.4 0.4s0.16 0.4 0.4 0.4h1.84zM10.16 6.96c0.24 0 0.4-0.16 0.4-0.4s-0.16-0.4-0.4-0.4h-1.12c-0.24 0-0.4 0.16-0.4 0.4s0.16 0.4 0.4 0.4h1.12zM7.040 6.96c0.24 0 0.48-0.16 0.48-0.4s-0.16-0.4-0.4-0.4h-1.12c-0.24 0-0.4 0.16-0.4 0.4s0.16 0.4 0.4 0.4h1.040zM3.84 6.96c0.16 0 0.4-0.16 0.4-0.4s-0.16-0.4-0.4-0.4h-1.6c-0.24 0-0.4 0.16-0.4 0.4s0.16 0.4 0.4 0.4h1.6z"></path>
</svg>
<svg id="icon-e_10" width="17" height="16" viewBox="0 0 17 16" x="0" y="1274">
<path fill="#99a5a0" d="M10.718 7.809c1.692 0 3.062-1.37 3.062-3.062s-1.37-3.062-3.062-3.062c-1.692 0-3.062 1.37-3.062 3.062s1.37 3.062 3.062 3.062zM3.828 6.277v-2.297h-1.531v2.297h-2.297v1.531h2.297v2.297h1.531v-2.297h2.297v-1.531h-2.297zM10.718 9.34c-2.044 0-6.125 1.026-6.125 3.062v1.531h12.249v-1.531c0-2.037-4.081-3.062-6.125-3.062z"></path>
</svg>
<svg id="icon-e_11" width="16" height="16" viewBox="0 0 16 16" x="0" y="1300">
<path fill="#99a5a0" d="M7.972 7.635h0.054c1.252-0.015 2.264-1.014 2.264-2.243v-0.748c0-1.239-1.027-2.244-2.291-2.244s-2.291 1.005-2.291 2.244v0.748c0 1.229 1.012 2.228 2.264 2.243zM12.417 7.962c0.813 0 1.473-0.629 1.473-1.402v-0.47c0-0.775-0.659-1.402-1.473-1.402s-1.473 0.629-1.473 1.402v0.468c0 0.775 0.659 1.404 1.473 1.404zM3.581 7.962c0.813 0 1.473-0.629 1.473-1.402v-0.47c0-0.775-0.659-1.402-1.473-1.402s-1.473 0.629-1.473 1.402v0.468c-0.002 0.775 0.658 1.404 1.473 1.404zM1.456 9.389c-0.387 0.197-0.656 0.638-0.656 1.155v0.577c0 0.381 0.221 0.699 0.522 0.804 0.47 0.123 0.951 0.204 1.442 0.249v-1.017c0-0.909 0.329-1.706 0.829-2.21h-0.013c-0.748-0.003-1.465 0.155-2.125 0.443zM14.548 9.391c-0.661-0.289-1.379-0.448-2.131-0.448h-0.011c0.503 0.506 0.829 1.303 0.829 2.21v1.019c0.49-0.045 0.972-0.127 1.439-0.249 0.302-0.103 0.526-0.423 0.526-0.806v-0.571c0-0.517-0.269-0.956-0.652-1.155zM11.255 9.333c-1.012-0.465-2.109-0.719-3.256-0.719-1.145 0-2.239 0.255-3.249 0.715-0.591 0.313-1.005 1.019-1.005 1.845v0.921c0 0.611 0.338 1.122 0.799 1.289 1.113 0.302 2.268 0.468 3.457 0.468 1.187 0 2.34-0.163 3.451-0.466 0.465-0.165 0.802-0.677 0.802-1.289v-0.921c0-0.824-0.412-1.529-0.999-1.843z"></path>
</svg>
<svg id="icon-e_12" width="16" height="16" viewBox="0 0 16 16" x="0" y="1326">
<path fill="#99a5a0" d="M7.6 14.4c-3.755 0-6.8-3.045-6.8-6.8s3.045-6.8 6.8-6.8c3.755 0 6.8 3.045 6.8 6.8s-3.045 6.8-6.8 6.8zM8.167 7.934v-3.169c0-0.308-0.254-0.565-0.567-0.565-0.315 0-0.567 0.253-0.567 0.565v3.403c-0.001 0.149 0.057 0.291 0.162 0.397l1.611 1.611c0.106 0.105 0.25 0.165 0.399 0.163s0.293-0.061 0.398-0.167c0.22-0.22 0.221-0.575 0.004-0.797l-1.441-1.441z"></path>
</svg>
<svg id="icon-e_13" width="16" height="16" viewBox="0 0 16 16" x="0" y="1352">
<path fill="#99a5a0" d="M7.6 0.8c3.755 0 6.8 3.045 6.8 6.8s-3.045 6.8-6.8 6.8c-3.755 0-6.8-3.045-6.8-6.8s3.045-6.8 6.8-6.8zM7.6 9.929c-0.569 0-1.030 0.461-1.030 1.030s0.461 1.030 1.030 1.030 1.030-0.461 1.030-1.030c0-0.569-0.461-1.030-1.030-1.030zM7.571 9.124c0.49 0 0.887-0.397 0.887-0.887v-4.139c0-0.49-0.397-0.887-0.887-0.887s-0.887 0.397-0.887 0.887v4.139c0 0.49 0.397 0.887 0.887 0.887z"></path>
</svg>
<svg id="icon-e_14" width="16" height="16" viewBox="0 0 16 16" x="0" y="1378">
<path fill="#99a5a0" d="M7.253 4.989c0.307-0.395 0.631-0.751 0.975-1.069 0.297-0.26 0.634-0.496 1.010-0.707s0.769-0.303 1.177-0.274c0.576 0.048 1.056 0.19 1.441 0.426s0.692 0.534 0.919 0.895c0.227 0.361 0.383 0.77 0.467 1.227s0.111 0.927 0.083 1.408c-0.028 0.481-0.109 0.941-0.244 1.379s-0.302 0.847-0.501 1.227c-0.199 0.38-0.42 0.731-0.661 1.054s-0.483 0.613-0.724 0.873c-0.371 0.395-0.759 0.763-1.163 1.105s-0.789 0.635-1.156 0.881c-0.367 0.245-0.701 0.441-1.003 0.585s-0.536 0.217-0.703 0.217c-0.186 0.009-0.423-0.058-0.711-0.202s-0.603-0.339-0.947-0.585c-0.343-0.245-0.706-0.537-1.087-0.873s-0.757-0.693-1.128-1.069c-0.241-0.241-0.501-0.52-0.78-0.837s-0.541-0.667-0.787-1.047c-0.246-0.38-0.457-0.792-0.634-1.235s-0.274-0.915-0.293-1.415c-0.019-0.501 0.033-0.97 0.153-1.408s0.302-0.83 0.543-1.177c0.241-0.347 0.539-0.638 0.891-0.873s0.752-0.402 1.198-0.498c0.223-0.048 0.446-0.055 0.669-0.021s0.441 0.091 0.655 0.173c0.213 0.082 0.418 0.185 0.613 0.311s0.381 0.255 0.557 0.39c0.409 0.317 0.799 0.698 1.17 1.141z"></path>
</svg>
<svg id="icon-e_15" width="16" height="16" viewBox="0 0 16 16" x="0" y="1404">
<path fill="#99a5a0" d="M14.373 7.409l-0.007 0.001c-0.025-0.251-0.225-0.451-0.475-0.475h-0.293v-0.004c-0.313 0-0.585-0.181-0.716-0.445-0.031-0.065-0.055-0.133-0.068-0.207-0.059-0.164-0.125-0.324-0.201-0.48 0-0.001 0-0.001-0.001-0.001-0.037-0.055-0.068-0.115-0.091-0.179 0-0.001 0-0.001 0-0.001-0.029-0.083-0.045-0.173-0.045-0.267 0-0.221 0.089-0.421 0.235-0.565h-0.001l0.163-0.163c0.003-0.001 0.004-0.003 0.007-0.005 0.001-0.003 0.004-0.004 0.005-0.007 0.189-0.195 0.199-0.499 0.031-0.707l0.003-0.003c-0.125-0.149-0.255-0.293-0.392-0.429-0.14-0.141-0.287-0.275-0.439-0.401l-0.001 0.001c-0.187-0.153-0.456-0.159-0.649-0.017l-0.117 0.117-0.111 0.109-0.005-0.005c-0.233 0.233-0.575 0.293-0.863 0.177-0.039-0.015-0.077-0.035-0.113-0.056-0.184-0.089-0.373-0.167-0.569-0.235-0.035-0.009-0.068-0.021-0.101-0.035 0 0-0.001 0-0.001-0.001-0.095-0.037-0.185-0.097-0.263-0.175-0.131-0.131-0.205-0.295-0.228-0.465-0.009-0.067-0.009-0.133 0-0.2v-0.137c0-0.263-0.189-0.48-0.439-0.525-0.031-0.003-0.061-0.005-0.093-0.008h0.001c-0.176-0.013-0.353-0.021-0.533-0.021s-0.357 0.008-0.533 0.023c-0.031 0.003-0.063 0.005-0.093 0.008-0.249 0.044-0.439 0.263-0.439 0.524v0.237c0 0.343-0.216 0.636-0.519 0.749-0.019 0.008-0.039 0.015-0.059 0.020-0.213 0.072-0.42 0.157-0.619 0.257-0.001 0-0.001 0.001-0.003 0.001-0.016 0.009-0.031 0.016-0.048 0.024-0.101 0.047-0.213 0.072-0.333 0.072-0.221 0-0.421-0.089-0.565-0.235l-0.001 0.001-0.169-0.168c-0.185-0.185-0.472-0.205-0.679-0.061-0.024 0.019-0.048 0.039-0.071 0.059-0.001 0.001-0.003 0.003-0.003 0.003-0.136 0.115-0.267 0.235-0.393 0.361s-0.245 0.256-0.36 0.391c0 0-0.001 0-0.001 0.001-0.021 0.024-0.041 0.048-0.061 0.073-0.145 0.208-0.125 0.495 0.061 0.681l0.168 0.168c0.241 0.243 0.296 0.601 0.163 0.895-0.008 0.019-0.017 0.037-0.027 0.055-0.099 0.199-0.184 0.405-0.255 0.616-0.007 0.023-0.015 0.045-0.023 0.067 0 0 0 0 0 0.001-0.039 0.101-0.099 0.197-0.181 0.277-0.156 0.156-0.36 0.235-0.565 0.235v0.003h-0.237c-0.263 0-0.48 0.189-0.525 0.439-0.003 0.031-0.007 0.061-0.009 0.093-0.015 0.172-0.021 0.357-0.021 0.533 0 0.001 0 0.003 0 0.004s0 0.004 0 0.005c0 0.177 0.007 0.351 0.021 0.523v0.001c0.003 0.031 0.005 0.063 0.009 0.093 0.045 0.249 0.261 0.439 0.523 0.439 0 0 0 0 0.001 0h0.239c0.34 0 0.631 0.213 0.745 0.513 0 0.001 0 0.001 0 0.001 0.008 0.020 0.015 0.040 0.019 0.060 0.001 0.001 0.001 0.003 0.003 0.004 0.071 0.213 0.157 0.419 0.256 0.619 0.001 0.001 0.001 0.003 0.003 0.003 0.009 0.015 0.016 0.031 0.024 0.048 0.047 0.101 0.073 0.215 0.073 0.333 0 0.221-0.089 0.421-0.235 0.565l0.001 0.001-0.163 0.163c-0.003 0.001-0.004 0.004-0.007 0.005-0.003 0.003-0.004 0.004-0.005 0.007-0.177 0.183-0.197 0.463-0.060 0.667 0.023 0.028 0.047 0.056 0.069 0.083 0.113 0.135 0.233 0.263 0.357 0.388s0.255 0.245 0.389 0.359c0.027 0.023 0.055 0.045 0.081 0.068 0.185 0.125 0.431 0.12 0.611-0.012l0.227-0.227 0.005 0.004c0.243-0.241 0.601-0.296 0.897-0.161 0.015 0.007 0.031 0.015 0.045 0.021 0.001 0.001 0.003 0.001 0.004 0.003 0.201 0.1 0.409 0.187 0.624 0.259 0.019 0.005 0.037 0.012 0.055 0.019 0.105 0.039 0.203 0.1 0.288 0.184 0.156 0.156 0.235 0.36 0.235 0.565h0.003v0.235c0 0.275 0.209 0.503 0.477 0.529v0.003c0.193 0.019 0.388 0.027 0.587 0.027s0.393-0.009 0.587-0.027l-0.001-0.003c0.268-0.027 0.479-0.255 0.479-0.529v-0.237c0-0.321 0.189-0.597 0.461-0.724 0.055-0.027 0.113-0.045 0.175-0.059 0.175-0.061 0.345-0.132 0.511-0.213 0.048-0.031 0.1-0.057 0.153-0.077 0.087-0.033 0.181-0.051 0.28-0.051 0.203 0 0.388 0.076 0.529 0.201 0.024 0.021 0.047 0.043 0.069 0.068l0.136 0.137 0.001-0.001c0.187 0.187 0.481 0.205 0.689 0.055 0.001 0 0.001-0.001 0.003-0.003 0.017-0.015 0.035-0.028 0.051-0.043 0.14-0.119 0.275-0.241 0.403-0.371s0.253-0.263 0.371-0.403c0.015-0.019 0.031-0.037 0.045-0.055 0.147-0.201 0.133-0.48-0.036-0.668l-0.001-0.001-0.039-0.037-0.149-0.149v-0.001c-0.239-0.239-0.295-0.589-0.169-0.881 0.012-0.027 0.025-0.055 0.040-0.080 0.095-0.192 0.177-0.391 0.247-0.596 0.008-0.027 0.016-0.055 0.027-0.080 0.039-0.1 0.099-0.193 0.179-0.273 0.155-0.155 0.36-0.233 0.565-0.233v-0.001h0.229v-0.003c0.285 0 0.517-0.224 0.531-0.505l0.008 0.001c0.016-0.185 0.024-0.371 0.024-0.559 0-0.199-0.009-0.396-0.027-0.591zM10.831 8c0 0.323-0.053 0.633-0.153 0.922-0.037 0.11-0.083 0.217-0.132 0.321-0.138 0.283-0.323 0.54-0.542 0.762-0.22 0.221-0.477 0.406-0.759 0.545-0.105 0.052-0.213 0.097-0.323 0.135-0.289 0.101-0.599 0.155-0.922 0.157-0.003 0-0.005 0-0.008 0-0.32 0-0.627-0.053-0.913-0.15-0.115-0.039-0.227-0.085-0.335-0.138-0.282-0.138-0.537-0.321-0.756-0.54-0.221-0.22-0.407-0.476-0.545-0.759-0.053-0.107-0.1-0.217-0.139-0.331-0.099-0.287-0.153-0.595-0.153-0.915 0.001-0.32 0.054-0.642 0.153-0.929 0.039-0.114 0.085-0.225 0.138-0.332 0.139-0.283 0.323-0.539 0.545-0.759s0.479-0.405 0.762-0.543c0.106-0.051 0.216-0.097 0.329-0.135 0.287-0.097 0.593-0.15 0.913-0.15 0.003 0 0.005 0 0.008 0 0.323 0.001 0.634 0.056 0.923 0.156 0.111 0.038 0.219 0.084 0.323 0.135 0.283 0.139 0.539 0.325 0.76 0.545 0.219 0.22 0.402 0.476 0.54 0.756 0.051 0.105 0.097 0.214 0.135 0.326 0.099 0.288 0.153 0.597 0.153 0.919v0.003h-0.001z"></path>
</svg>
<svg id="icon-e_16" width="16" height="16" viewBox="0 0 16 16" x="0" y="1430">
<path fill="#99a5a0" d="M12.449 9.619v-1.631h-4.045v-1.615h4.045v-1.615l2.431 2.431-2.431 2.431zM11.649 8.804v3.246h-4.061v2.43l-4.861-2.431v-10.537h8.922v4.045h-0.815v-3.23h-6.481l3.235 1.62v7.286h3.246v-2.431h0.815z"></path>
</svg>
<svg id="icon-e_18" width="16" height="16" viewBox="0 0 16 16" x="0" y="1456">
<path fill="#99a5a0" d="M12.694 1.6c0.237 0 0.457 0.045 0.662 0.137s0.385 0.214 0.539 0.369c0.155 0.155 0.277 0.334 0.369 0.539s0.137 0.425 0.137 0.662v9.389c0 0.237-0.045 0.457-0.137 0.662s-0.214 0.385-0.369 0.539c-0.155 0.155-0.334 0.277-0.539 0.369s-0.425 0.137-0.662 0.137h-9.389c-0.237 0-0.457-0.045-0.662-0.137s-0.385-0.214-0.539-0.369c-0.155-0.155-0.277-0.334-0.369-0.539s-0.137-0.425-0.137-0.662v-9.389c0-0.237 0.045-0.457 0.137-0.662s0.214-0.385 0.369-0.539c0.155-0.155 0.334-0.277 0.539-0.369s0.425-0.137 0.662-0.137h9.389zM4.111 13.063c0.173 0 0.337-0.032 0.491-0.095s0.289-0.153 0.403-0.266c0.114-0.114 0.203-0.248 0.266-0.403s0.095-0.319 0.095-0.491c0-0.173-0.032-0.337-0.095-0.491s-0.153-0.289-0.266-0.403c-0.114-0.114-0.248-0.203-0.403-0.266s-0.319-0.095-0.491-0.095c-0.182 0-0.348 0.032-0.498 0.095s-0.284 0.153-0.403 0.266c-0.118 0.114-0.209 0.248-0.273 0.403s-0.095 0.319-0.095 0.491c0 0.173 0.032 0.337 0.095 0.491s0.155 0.289 0.273 0.403c0.118 0.114 0.253 0.203 0.403 0.266s0.316 0.095 0.498 0.095zM9.351 12.708c0-0.828-0.159-1.608-0.477-2.34s-0.751-1.371-1.297-1.917c-0.546-0.546-1.185-0.976-1.917-1.289s-1.513-0.471-2.34-0.471c-0.009 0.219 0 1.601 0 1.801 0.582 0 1.131 0.109 1.645 0.327s0.962 0.519 1.344 0.901c0.382 0.382 0.685 0.83 0.907 1.344s0.334 1.062 0.334 1.645c1.079 0.006 1.68 0.006 1.801 0zM12.694 12.694c0-1.292-0.245-2.504-0.737-3.637s-1.16-2.122-2.006-2.968c-0.846-0.846-1.838-1.515-2.975-2.006s-2.352-0.737-3.643-0.737c-0.009 0.227 0.013 1.419 0.013 1.665 1.065 0 2.063 0.2 2.995 0.601s1.747 0.949 2.443 1.645c0.696 0.696 1.244 1.51 1.645 2.443s0.601 1.927 0.601 2.981c0.327 0 1.383 0.032 1.665 0.013z"></path>
</svg>
<svg id="icon-e_19" width="16" height="16" viewBox="0 0 16 16" x="0" y="1482">
<path fill="#99a5a0" d="M8.441 15.2c0.797 0 1.414-0.617 1.414-1.414h-2.827c0 0.797 0.617 1.414 1.414 1.414zM13.081 10.599v-3.676c0-2.211-1.568-4.061-3.611-4.55v-0.463c0-0.514-0.283-0.977-0.771-1.079-0.707-0.167-1.285 0.373-1.285 1.067v0.489c-2.043 0.475-3.611 2.327-3.611 4.537v3.676l-1.401 1.439v0.72h12.081v-0.72l-1.401-1.439z"></path>
</svg>
<svg id="icon-e_20" width="16" height="16" viewBox="0 0 16 16" x="0" y="1508">
<path fill="#99a5a0" d="M11.709 6.545c0-0.482-0.391-0.873-0.873-0.873s-0.873 0.391-0.873 0.873c0 0.482 0.391 0.873 0.873 0.873s0.873-0.391 0.873-0.873zM11.4 9.163h-5.199c-0.213 0-0.363 0.202-0.291 0.392 0.423 1.128 1.557 1.935 2.891 1.935s2.469-0.807 2.891-1.935c0.071-0.19-0.079-0.392-0.291-0.392zM5.891 6.545c0 0.482 0.391 0.873 0.873 0.873s0.873-0.391 0.873-0.873c0-0.482-0.391-0.873-0.873-0.873s-0.873 0.391-0.873 0.873zM15.2 8c0 3.535-2.865 6.4-6.4 6.4-1.191 0-2.302-0.331-3.257-0.898l-2.64 0.754c-0.219 0.063-0.423-0.14-0.359-0.359l0.754-2.639c-0.567-0.955-0.898-2.066-0.898-3.257 0-3.535 2.866-6.4 6.4-6.4s6.4 2.865 6.4 6.4z"></path>
</svg>
</svg>
