<?xml version="1.0" encoding="utf-8"?>
<!-- Generated by IcoMoon.io -->
<svg version="1.1" xmlns="http://www.w3.org/2000/svg" xmlns:xlink="http://www.w3.org/1999/xlink" width="16" height="42" viewBox="0 0 16 42">
<svg id="icon5a_14" width="16" height="16" viewBox="0 0 16 16" x="0" y="0">
<path fill="#acb8b3" d="M10.416 5.403c0.083-0.079 0.146-0.17 0.188-0.272s0.063-0.205 0.063-0.31c0-0.105-0.021-0.207-0.063-0.306s-0.105-0.189-0.188-0.268c-0.167-0.165-0.367-0.247-0.6-0.247s-0.433 0.082-0.6 0.247l-3.323 3.179c-0.083 0.068-0.143 0.153-0.179 0.255s-0.051 0.21-0.045 0.323c0.006 0.113 0.033 0.225 0.081 0.336s0.113 0.205 0.197 0.285l3.27 3.129c0.167 0.165 0.367 0.247 0.6 0.247s0.433-0.082 0.6-0.247c0.083-0.079 0.146-0.169 0.188-0.268s0.063-0.201 0.063-0.306c0-0.105-0.021-0.208-0.063-0.31s-0.105-0.193-0.188-0.272l-2.705-2.593 2.705-2.601z"></path>
</svg>
<svg id="icon5a_15" width="16" height="16" viewBox="0 0 16 16" x="0" y="26">
<path fill="#acb8b3" d="M5.584 5.403c-0.083-0.079-0.146-0.17-0.188-0.272s-0.063-0.205-0.063-0.31c0-0.105 0.021-0.207 0.063-0.306s0.105-0.189 0.188-0.268c0.167-0.165 0.367-0.247 0.6-0.247s0.433 0.082 0.6 0.247l3.323 3.179c0.083 0.068 0.143 0.153 0.179 0.255s0.051 0.21 0.045 0.323c-0.006 0.113-0.033 0.225-0.081 0.336s-0.113 0.205-0.197 0.285l-3.27 3.129c-0.167 0.165-0.367 0.247-0.6 0.247s-0.433-0.082-0.6-0.247c-0.083-0.079-0.146-0.169-0.188-0.268s-0.063-0.201-0.063-0.306c0-0.105 0.021-0.208 0.063-0.31s0.105-0.193 0.188-0.272l2.705-2.593-2.705-2.601z"></path>
</svg>
</svg>
