<?xml version="1.0" encoding="utf-8"?>
<!-- Generated by IcoMoon.io -->
<svg version="1.1" xmlns="http://www.w3.org/2000/svg" xmlns:xlink="http://www.w3.org/1999/xlink" width="80" height="161" viewBox="0 0 80 161">
<svg id="prompt_1" width="80" height="80" viewBox="0 0 80 80" x="0" y="0">
<path fill="#3c9" opacity="0.3" d="M58.244 48.096v-8.154h-20.228v-8.074h20.227v-8.076l12.152 12.152-12.152 12.152zM54.246 44.019v16.23h-20.307v12.151l-24.304-12.152v-52.684h44.611v20.226h-4.078v-16.149h-32.407l16.178 8.101v36.429h16.23v-12.152h4.078z"></path>
</svg>
<svg id="prompt_2" width="80" height="80" viewBox="0 0 80 80" x="0" y="81">
<path fill="#8d4b53" opacity="0.3" d="M48.245 9.648h23.435v5.859h-63.632v-5.859h22.891v-5.6h17.304v5.6zM14.303 21.12h51.105v51.106h-51.104v-51.105zM31.33 60.87v-28.395h-5.678v28.395h5.678zM42.694 60.87v-28.395h-5.678v28.395h5.678zM54.049 60.87v-28.395h-5.678v28.395h5.678z"></path>
</svg>
</svg>
