<?xml version="1.0" encoding="utf-8"?>
<!-- Generated by IcoMoon.io -->
<svg version="1.1" xmlns="http://www.w3.org/2000/svg" xmlns:xlink="http://www.w3.org/1999/xlink" width="42" height="214" viewBox="0 0 42 214">
<svg id="tips_1" width="42" height="42" viewBox="0 0 42 42" x="0" y="0">
<path fill="#3c9" d="M19.256 27.045c0.364 0.335 0.929 0.318 1.273-0.037l10.952-11.304c0.351-0.362 0.342-0.939-0.020-1.29s-0.939-0.342-1.29 0.020l-10.952 11.304 1.273-0.037-6.628-6.092c-0.371-0.341-0.948-0.317-1.289 0.054s-0.317 0.948 0.054 1.289l6.628 6.092z"></path>
<path fill="#3c9" d="M39.703 21c0-10.33-8.374-18.703-18.703-18.703s-18.703 8.374-18.703 18.703c0 10.33 8.374 18.703 18.703 18.703 4.289 0 8.359-1.449 11.644-4.066 0.394-0.314 0.459-0.888 0.145-1.282s-0.888-0.459-1.282-0.145c-2.965 2.362-6.635 3.669-10.508 3.669-9.322 0-16.878-7.557-16.878-16.878s7.557-16.878 16.878-16.878c9.322 0 16.878 7.557 16.878 16.878 0 3.196-0.889 6.259-2.542 8.912-0.266 0.428-0.136 0.99 0.292 1.257s0.99 0.136 1.257-0.292c1.832-2.94 2.818-6.337 2.818-9.877z"></path>
</svg>
<svg id="tips_2" width="42" height="42" viewBox="0 0 42 42" x="0" y="43">
<path fill="#d81e06" d="M39.703 21c0-10.33-8.374-18.703-18.703-18.703s-18.703 8.374-18.703 18.703c0 10.33 8.374 18.703 18.703 18.703 4.289 0 8.359-1.449 11.644-4.066 0.394-0.314 0.459-0.888 0.145-1.282s-0.888-0.459-1.282-0.145c-2.965 2.362-6.635 3.669-10.508 3.669-9.322 0-16.878-7.557-16.878-16.878s7.557-16.878 16.878-16.878c9.322 0 16.878 7.557 16.878 16.878 0 3.196-0.889 6.259-2.542 8.912-0.266 0.428-0.136 0.99 0.292 1.257s0.99 0.136 1.257-0.292c1.832-2.94 2.818-6.337 2.818-9.877z"></path>
<path fill="#d81e06" d="M14.419 26.537c-0.353 0.359-0.348 0.937 0.012 1.29s0.937 0.348 1.29-0.012l12.785-13.019c0.353-0.359 0.348-0.937-0.012-1.29s-0.937-0.348-1.29 0.012l-12.785 13.019z"></path>
<path fill="#d81e06" d="M27.204 27.816c0.353 0.359 0.931 0.365 1.29 0.012s0.365-0.931 0.012-1.29l-12.785-13.019c-0.353-0.359-0.931-0.365-1.29-0.012s-0.365 0.931-0.012 1.29l12.785 13.019z"></path>
</svg>
<svg id="tips_3" width="42" height="42" viewBox="0 0 42 42" x="0" y="86">
<path fill="#efb336" d="M39.375 21c0-10.148-8.227-18.375-18.375-18.375s-18.375 8.227-18.375 18.375c0 10.148 8.227 18.375 18.375 18.375 4.214 0 8.212-1.424 11.44-3.995 0.387-0.309 0.451-0.872 0.143-1.26s-0.872-0.451-1.26-0.143c-2.913 2.321-6.519 3.604-10.323 3.604-9.158 0-16.582-7.424-16.582-16.582s7.424-16.582 16.582-16.582c9.158 0 16.582 7.424 16.582 16.582 0 3.14-0.873 6.149-2.497 8.755-0.262 0.42-0.133 0.973 0.287 1.235s0.973 0.133 1.235-0.287c1.8-2.889 2.768-6.226 2.768-9.703z"></path>
<path fill="#efb336" d="M20.552 29.291c0 0.495 0.401 0.896 0.896 0.896s0.896-0.401 0.896-0.896v-11.428c0-0.495-0.401-0.896-0.896-0.896s-0.896 0.401-0.896 0.896v11.428z"></path>
<path fill="#efb336" d="M20.552 14.053c0 0.495 0.401 0.896 0.896 0.896s0.896-0.401 0.896-0.896v-1.569c0-0.495-0.401-0.896-0.896-0.896s-0.896 0.401-0.896 0.896v1.569z"></path>
</svg>
<svg id="tips_4" width="42" height="42" viewBox="0 0 42 42" x="0" y="129">
<path fill="#3c9" opacity="0.34" d="M16.894 6.563h21.077c0.682 0 1.235 0.557 1.235 1.234v14.973c0 0.681-0.557 1.234-1.235 1.234h-2.251v4.362h-0.099l-4.362-4.362h-14.366c-0.681 0-1.234-0.557-1.234-1.235v-14.973c0-0.681 0.553-1.234 1.234-1.234z"></path>
<path fill="#fff" d="M34.481 14.885h-9.446c-0.401-0.001-0.726-0.326-0.727-0.727v-0.418c0-0.4 0.326-0.727 0.727-0.727h9.447c0.4 0 0.727 0.326 0.727 0.727v0.417c0 0.4-0.326 0.727-0.727 0.727z"></path>
<path fill="#3c9" d="M26.791 11.065h-23.229c-0.748 0-1.363 0.611-1.363 1.362v16.501c0 0.747 0.612 1.362 1.363 1.362h2.482v4.808h0.108l4.807-4.808h15.833c0.748 0 1.363-0.611 1.363-1.362v-16.501c0-0.752-0.612-1.363-1.363-1.363z"></path>
<path fill="#fff" d="M22.119 18.756h-13.886c-0.413-0.001-0.746-0.335-0.748-0.748v-0.43c0-0.408 0.334-0.747 0.748-0.747h13.886c0.409 0 0.748 0.334 0.748 0.747v0.43c-0.002 0.412-0.336 0.746-0.748 0.747h-0zM16.703 23.358h-8.554c-0.364 0-0.659-0.295-0.659-0.659v0-0.377c0-0.364 0.295-0.659 0.659-0.659v0h8.558c0.364 0 0.659 0.295 0.659 0.659v0 0.378c-0.004 0.364-0.299 0.657-0.663 0.658h-0z"></path>
</svg>
<svg id="tips_5" width="42" height="42" viewBox="0 0 42 42" x="0" y="172">
<path fill="#3c9" opacity="0.108" d="M39.151 20.884c0 9.655-7.868 17.482-17.574 17.482s-17.574-7.827-17.574-17.482c0-9.655 7.868-17.483 17.574-17.483s17.574 7.827 17.574 17.483z"></path>
<path fill="#3c9" d="M36.873 15.055c0.657 1.732 1.037 3.734 1.038 5.825v0c0 9.291-7.565 16.812-16.909 16.812s-16.91-7.521-16.91-16.812 7.565-16.812 16.91-16.812c4.895 0 9.271 2.065 12.385 5.383 0.297 0 0.52-0.074 0.742-0.295 0 0 0.297-0.295 0.297-0.885-3.339-3.613-8.159-5.825-13.425-5.825-10.235 0-18.541 8.258-18.541 18.435s8.307 18.435 18.541 18.435c10.234 0 18.541-8.258 18.541-18.435 0-2.286-0.445-4.424-1.187-6.415-0.37-0.221-1.038-0.295-1.483 0.59zM22.186 16.31l-0.371 0.443c2.299 2.36 5.191 3.981 8.752 4.867-0.371 0.516-0.742 1.032-1.039 1.549-1.483-0.516-2.817-1.107-4.154-1.918v1.107h-9.121v-1.107c-1.205 0.75-2.618 1.491-4.085 2.129l-0.216 0.084c-0.297-0.516-0.668-0.959-0.964-1.327 3.708-1.475 6.823-3.392 9.271-5.826h1.929zM14.844 11.738h1.706c-0.297 0.664-0.668 1.254-0.964 1.844h5.637v1.327h-6.452c-0.816 1.254-1.781 2.36-2.67 3.245-0.297-0.368-0.593-0.738-0.964-1.179 1.409-1.402 2.745-3.171 3.708-5.236zM11.877 28.625h11.496c1.112-1.844 2.076-3.614 2.817-5.383l1.484 0.811c-1.515 2.713-2.4 4.207-3.299 5.69l0.63-1.118h4.82v1.4h-17.947v-1.4zM13.806 24.274l1.26-0.664c0.816 1.254 1.484 2.581 2.152 3.909l-1.335 0.737c-0.593-1.4-1.26-2.728-2.076-3.981zM16.846 18.228c-0.519-0.738-1.112-1.402-1.632-2.065l1.039-0.738c0.593 0.59 1.186 1.179 1.78 1.917l-1.186 0.885zM20.851 17.785c-1.26 1.179-2.67 2.286-4.302 3.245h8.381c-1.483-0.885-2.818-1.992-4.079-3.244zM19.368 23.315l1.335-0.368c0.414 1.068 0.87 2.493 1.259 3.947l0.075 0.33-1.483 0.442c-0.297-1.549-0.668-3.023-1.186-4.35zM23.373 11.739h1.632c-0.297 0.663-0.593 1.253-0.891 1.843h6.23v1.327h-7.046c-0.371 0.516-0.668 1.032-0.964 1.401-0.519-0.295-0.964-0.516-1.409-0.663 1.038-1.106 1.78-2.433 2.447-3.909zM26.562 18.448c-0.69-0.768-1.417-1.467-2.191-2.111l-0.034-0.027 0.964-0.885c0.836 0.687 1.585 1.362 2.303 2.069l-0.004-0.004-1.038 0.958zM34.572 11.738c0 0.815 0.664 1.475 1.483 1.475 0.001 0 0.003 0 0.004 0 0.815 0 1.477-0.66 1.479-1.475v-0c-0.003-0.815-0.664-1.474-1.479-1.474-0.002 0-0.003 0-0.005 0h0c-0.001 0-0.003 0-0.004 0-0.815 0-1.476 0.66-1.479 1.474v0z"></path>
</svg>
</svg>
