<?xml version="1.0" encoding="utf-8"?>
<!-- Generated by IcoMoon.io -->
<svg version="1.1" xmlns="http://www.w3.org/2000/svg" xmlns:xlink="http://www.w3.org/1999/xlink" width="24" height="899" viewBox="0 0 24 899">
<svg id="icon4-a_33" width="24" height="24" viewBox="0 0 24 24" x="0" y="0">
<path fill="#3c9" d="M12 0c-6.629 0-12 5.371-12 12s5.371 12 12 12c6.629 0 12-5.371 12-12s-5.371-12-12-12zM6.4 8c0.885 0 1.6 0.715 1.6 1.6s-0.715 1.6-1.6 1.6c-0.885 0-1.6-0.715-1.6-1.6s0.715-1.6 1.6-1.6zM18.486 15.11c-1.162 2.418-3.626 4.090-6.486 4.090-2.859 0-5.32-1.674-6.482-4.088-0.157-0.155-0.254-0.366-0.254-0.603 0-0.469 0.379-0.848 0.848-0.848 0.408 0 0.733 0.296 0.813 0.678 0.888 1.922 2.821 3.261 5.075 3.261 2.261 0 4.2-1.344 5.085-3.274 0.083-0.382 0.408-0.677 0.816-0.677 0.469 0 0.85 0.381 0.85 0.85 0 0.242-0.104 0.458-0.264 0.611zM17.6 11.2c-0.885 0-1.6-0.715-1.6-1.6s0.715-1.6 1.6-1.6c0.885 0 1.6 0.715 1.6 1.6s-0.715 1.6-1.6 1.6z"></path>
</svg>
<svg id="icon4-a_36" width="24" height="24" viewBox="0 0 24 24" x="0" y="25">
<path fill="#23b16c" d="M3.429 18.421v0.436c0 0.947 0.768 1.714 1.714 1.714h0.436c0.909 0 1.781-0.361 2.424-1.004l9.528-9.528-3.571-3.571-9.528 9.528c-0.643 0.643-1.004 1.515-1.004 2.424zM20.293 7.278c0.371-0.371 0.371-0.971 0-1.343l-2.228-2.228c-0.371-0.371-0.971-0.371-1.343 0l-1.743 1.743 3.571 3.571 1.743-1.743z"></path>
</svg>
<svg id="icon4-a_37" width="24" height="24" viewBox="0 0 24 24" x="0" y="50">
<path fill="#3c9" d="M7.844 1.648c-1.299 0.521-2.431 1.236-3.396 2.144s-1.726 1.969-2.281 3.182c-0.556 1.213-0.833 2.512-0.833 3.897 0 0.789 0.094 1.552 0.281 2.289s0.455 1.44 0.802 2.11c0.347 0.67 0.767 1.291 1.26 1.865s1.045 1.083 1.656 1.53v3.548c0 0.84 0.544 1.167 1.214 0.731l3.453-2.247c0.333 0.060 0.663 0.104 0.99 0.134s0.663 0.045 1.010 0.045c1.472 0 2.858-0.261 4.156-0.782s2.431-1.236 3.396-2.144c0.965-0.908 1.726-1.969 2.281-3.182s0.833-2.512 0.833-3.897c0-1.384-0.278-2.683-0.833-3.897s-1.316-2.274-2.281-3.182c-0.965-0.908-2.097-1.623-3.396-2.144s-2.684-0.782-4.156-0.782c-1.472 0-2.858 0.261-4.156 0.782zM15.333 14.443h-6.667c-0.181 0-0.337-0.071-0.469-0.212s-0.198-0.309-0.198-0.502c0-0.194 0.066-0.361 0.198-0.502s0.288-0.212 0.469-0.212h6.667c0.181 0 0.337 0.071 0.469 0.212s0.198 0.309 0.198 0.502c0 0.194-0.066 0.361-0.198 0.502s-0.288 0.212-0.469 0.212zM16.667 10.156h-9.333c-0.181 0-0.337-0.071-0.469-0.212s-0.198-0.309-0.198-0.502c0-0.194 0.066-0.361 0.198-0.502s0.288-0.212 0.469-0.212h9.333c0.181 0 0.337 0.071 0.469 0.212s0.198 0.309 0.198 0.502c0 0.194-0.066 0.361-0.198 0.502s-0.288 0.212-0.469 0.212z"></path>
</svg>
<svg id="icon4-a_38" width="24" height="24" viewBox="0 0 24 24" x="0" y="75">
<path fill="#00a2ff" d="M22.089 11.734c0.673-0.673 0.88-1.709 0.57-2.589-0.311-0.932-1.036-1.605-1.968-1.761l-4.143-0.725c-0.466-0.104-0.829-0.363-1.036-0.777l-1.968-3.832c-0.363-0.932-1.191-1.45-2.123-1.45s-1.761 0.518-2.227 1.398l-1.916 3.832c-0.207 0.414-0.621 0.725-1.036 0.777l-4.143 0.725c-0.932 0.155-1.657 0.829-1.968 1.761s-0.052 1.916 0.57 2.589l2.9 3.107c0.311 0.311 0.466 0.829 0.414 1.295l-0.621 4.298c-0.155 0.932 0.259 1.916 0.984 2.486 0.414 0.311 0.932 0.518 1.45 0.518 0.363 0 0.777-0.104 1.088-0.259l3.78-1.916c0.414-0.207 0.88-0.207 1.295 0l3.78 1.916c0.829 0.414 1.813 0.363 2.589-0.207 0.725-0.57 1.139-1.502 0.984-2.486l-0.57-4.298c-0.052-0.466 0.104-0.932 0.414-1.295l2.9-3.107z"></path>
</svg>
<svg id="icon4-a_39" width="24" height="24" viewBox="0 0 24 24" x="0" y="100">
<path fill="#f5a623" d="M16.378 8.959c1.876 0 3.396-1.499 3.396-3.348 0-0.012-0.004-0.025-0.004-0.036 0-0.014 0.004-0.026 0.004-0.037 0-1.849-1.52-3.347-3.396-3.347-1.875 0-3.395 1.498-3.395 3.347 0 0.016 0.002 0.027 0.002 0.043 0 0.012-0.002 0.022-0.002 0.031 0 0.263 0.042 0.514 0.104 0.757l-6.208 4.040c-0.614-0.597-1.455-0.966-2.384-0.966-1.877 0-3.397 1.498-3.397 3.347 0 0.013 0.004 0.025 0.004 0.038s-0.004 0.025-0.004 0.036c0 1.849 1.52 3.349 3.397 3.349 1.001 0 1.892-0.436 2.513-1.115l5.981 4.334c-0.003 0.018-0.005 0.035-0.005 0.054 0 0.012 0.004 0.025 0.004 0.036-0.001 0.013-0.004 0.026-0.004 0.038 0 1.849 1.52 3.347 3.395 3.347 1.876 0 3.396-1.498 3.396-3.347 0-0.013-0.004-0.026-0.004-0.038s0.004-0.026 0.004-0.036c0-1.849-1.52-3.349-3.396-3.349-1.215 0-2.273 0.634-2.872 1.58l-5.708-4.134c0.053-0.233 0.091-0.47 0.091-0.719 0-0.011-0.002-0.022-0.002-0.032 0-0.014 0.002-0.027 0.002-0.041 0-0.303-0.057-0.592-0.136-0.87l6.165-4.013c0.618 0.644 1.488 1.051 2.459 1.051z"></path>
</svg>
<svg id="icon4-a_40" width="24" height="24" viewBox="0 0 24 24" x="0" y="125">
<path fill="#888" d="M2.822 1.091h8.296c0.843 0.082 0.64 1.549 0.64 2.501v4.536c0 0.986 0.188 2.194-0.473 2.474-0.431 0.182-1.586 0.055-2.144 0.055h-4.398c-1.017 0-2.405 0.24-2.561-0.632v-8.302c0.114-0.309 0.314-0.533 0.64-0.632zM3.963 2.96v5.91h5.985v-5.993h-5.957c-0.033 0.004-0.030 0.043-0.028 0.082zM13.957 1.091h8.296c0.338 0.124 0.571 0.353 0.64 0.742v8.082c-0.076 0.336-0.253 0.623-0.585 0.715-0.541 0.15-1.44 0.028-2.088 0.028h-4.259c-0.642 0-1.594 0.134-2.116-0.028-0.736-0.227-0.529-1.646-0.529-2.639v-4.233c0-1.146-0.255-2.506 0.64-2.666zM15.098 2.96v5.91h5.985v-5.993h-5.957c-0.032 0.004-0.030 0.043-0.028 0.082zM6.691 4.692c0.833-0.155 1.489 0.401 1.503 1.154 0.019 0.994-1.009 1.54-1.809 1.127-0.915-0.472-0.855-2.065 0.306-2.282zM17.826 4.692c1.963-0.362 1.926 2.708 0 2.391-1.225-0.201-1.265-2.158 0-2.391zM11.062 21.818h-8.212c-0.341-0.103-0.571-0.316-0.668-0.66v-8.274c0.081-0.242 0.268-0.525 0.557-0.605 0.545-0.151 1.435-0.027 2.088-0.027h4.259c0.629 0 1.546-0.139 2.116 0.028 0.771 0.225 0.557 1.621 0.557 2.612v4.371c0 1.069 0.233 2.461-0.696 2.557zM3.963 14.121v5.91h5.985v-5.993h-5.957c-0.033 0.005-0.030 0.044-0.028 0.082zM22.893 12.994v2.309c-0.065 0.779-0.009 1.677-0.028 2.502h-5.929v-1.347c-0.557-0.064-1.234-0.009-1.837-0.028-0.065 1.741-0.009 3.601-0.028 5.388h-1.086c-0.933-0.185-0.668-1.568-0.668-2.667v-4.261c0-0.641-0.131-1.601 0.028-2.117 0.19-0.615 1.013-0.522 1.837-0.522h4.036v3.656h1.865c0.018-1.21-0.037-2.492 0.028-3.656 0.898-0.052 1.729-0.039 1.782 0.742zM6.831 15.825c0.89-0.097 1.626 0.748 1.281 1.677-0.479 1.288-2.767 0.804-2.338-0.825 0.118-0.45 0.461-0.787 1.058-0.852zM18.94 21.818h-2.004c0.019-0.706-0.037-1.485 0.028-2.144h1.976v2.144h-0zM22.893 19.674v1.402c-0.077 0.391-0.309 0.629-0.668 0.742h-1.42c0.018-0.706-0.037-1.484 0.028-2.144l2.060-0z"></path>
</svg>
<svg id="icon4-a_44" width="24" height="24" viewBox="0 0 24 24" x="0" y="150">
<path d="M18.356 12.75c-0.030-3.041 2.485-4.497 2.596-4.57-1.412-2.063-3.612-2.347-4.398-2.38-1.874-0.187-3.654 1.101-4.603 1.101s-2.415-1.071-3.969-1.044c-2.040 0.030-3.923 1.185-4.975 3.010-2.122 3.674-0.544 9.116 1.523 12.093 1.010 1.457 2.216 3.095 3.796 3.038 1.523-0.060 2.098-0.983 3.938-0.983s2.358 0.983 3.972 0.953c1.638-0.030 2.678-1.487 3.681-2.95 1.161-1.692 1.638-3.33 1.665-3.412-0.036-0.018-3.198-1.225-3.228-4.856zM15.327 3.831c0.84-1.017 1.405-2.425 1.251-3.831-1.209 0.048-2.675 0.802-3.542 1.816-0.777 0.902-1.46 2.338-1.276 3.713 1.348 0.106 2.726-0.685 3.567-1.698z"></path>
</svg>
<svg id="icon4-a_45" width="24" height="24" viewBox="0 0 24 24" x="0" y="175">
<path fill="#99cd00" d="M3.473 7.762c-0.815 0-1.473 0.663-1.473 1.481v6.204c0 0.818 0.661 1.481 1.473 1.481 0.815 0 1.473-0.663 1.473-1.481v-6.204c0-0.818-0.659-1.481-1.473-1.481zM5.517 17.655c0 0.874 0.705 1.582 1.573 1.582h1.073v3.281c0 0.818 0.661 1.481 1.473 1.481 0.815 0 1.473-0.663 1.473-1.481v-3.281h1.99v3.281c0 0.818 0.661 1.481 1.473 1.481 0.815 0 1.473-0.663 1.473-1.481v-3.281h1.073c0.868 0 1.573-0.708 1.573-1.582v-9.614h-13.175v9.614zM15.359 2.189l1.029-1.884c0.056-0.098 0.019-0.225-0.081-0.279-0.098-0.054-0.223-0.019-0.277 0.082l-1.040 1.903c-0.873-0.389-1.85-0.607-2.884-0.607s-2.011 0.218-2.884 0.605l-1.040-1.901c-0.054-0.101-0.179-0.136-0.277-0.082-0.1 0.054-0.137 0.18-0.081 0.279l1.029 1.884c-2.020 1.050-3.386 3.047-3.386 5.337h13.277c0.002-2.292-1.364-4.287-3.384-5.337zM9.084 5.109c-0.307 0-0.556-0.251-0.556-0.56s0.249-0.56 0.556-0.56c0.307 0 0.556 0.251 0.556 0.56-0.002 0.309-0.251 0.56-0.556 0.56zM15.128 5.109c-0.307 0-0.556-0.251-0.556-0.56s0.249-0.56 0.556-0.56c0.307 0 0.556 0.251 0.556 0.56-0.002 0.309-0.251 0.56-0.556 0.56zM20.737 7.762c-0.815 0-1.473 0.663-1.473 1.481v6.204c0 0.818 0.661 1.481 1.473 1.481 0.815 0 1.473-0.663 1.473-1.481v-6.204c0-0.818-0.659-1.481-1.473-1.481z"></path>
</svg>
<svg id="icon4-c_6" width="24" height="24" viewBox="0 0 24 24" x="0" y="200">
<path fill="#99a5a0" d="M20.884 12.927c0.507-0.781 0.683-1.522 0.527-2.186-0.176-0.683-0.683-1.191-1.073-1.425-0.332-0.195-0.722-0.293-1.113-0.293h-3.064c-0.468 0-0.898-0.234-1.152-0.605-0.254-0.39-0.312-0.859-0.117-1.288 0.371-0.839 0.527-2.088 0.546-2.537 0-1.444-0.351-2.459-1.015-2.928-0.722-0.527-1.639-0.293-1.913-0.195-0.644 0.195-0.8 0.8-0.995 2.010-0.039 0.273-0.098 0.546-0.156 0.82-0.371 1.757-1.23 3.396-2.459 4.684-0.664 0.683-1.366 1.269-2.108 1.698-0.254 0.137-0.507 0.273-0.781 0.371v10.032c0.976 0.039 1.776 0.293 2.674 0.586 1.386 0.449 3.103 0.995 6.324 0.995h0.039c1.62 0 2.811-0.371 3.455-1.054 0.605-0.644 0.586-1.386 0.586-1.444-0.039-0.293 0.117-0.566 0.371-0.722 0.507-0.293 0.8-0.664 0.898-1.054 0.156-0.625-0.215-1.249-0.234-1.288-0.234-0.351-0.137-0.8 0.215-1.054 0.527-0.351 0.82-0.722 0.878-1.132 0.098-0.546-0.273-1.034-0.293-1.073-0.215-0.293-0.215-0.644-0.039-0.917zM1.385 11.502v9.369c0 0.117-0.117 0.527 0 0.527h2.498v-10.032l-2.303-0.059c-0.117 0-0.195 0.078-0.195 0.195z"></path>
</svg>
<svg id="icon4-c_7" width="24" height="24" viewBox="0 0 24 24" x="0" y="225">
<path fill="#99a5a0" d="M20.884 11.073c0.507 0.781 0.683 1.522 0.527 2.186-0.176 0.683-0.683 1.191-1.073 1.425-0.332 0.195-0.722 0.293-1.113 0.293h-3.064c-0.468 0-0.898 0.234-1.152 0.605-0.254 0.39-0.312 0.859-0.117 1.288 0.371 0.839 0.527 2.088 0.546 2.537 0 1.444-0.351 2.459-1.015 2.928-0.722 0.527-1.639 0.293-1.913 0.195-0.644-0.195-0.8-0.8-0.995-2.010-0.039-0.273-0.098-0.546-0.156-0.82-0.371-1.757-1.23-3.396-2.459-4.684-0.664-0.683-1.366-1.269-2.108-1.698-0.254-0.137-0.507-0.273-0.781-0.371v-10.032c0.976-0.039 1.776-0.293 2.674-0.586 1.386-0.449 3.103-0.995 6.324-0.995h0.039c1.62 0 2.811 0.371 3.455 1.054 0.605 0.644 0.586 1.386 0.586 1.444-0.039 0.293 0.117 0.566 0.371 0.722 0.507 0.293 0.8 0.664 0.898 1.054 0.156 0.625-0.215 1.249-0.234 1.288-0.234 0.351-0.137 0.8 0.215 1.054 0.527 0.351 0.82 0.722 0.878 1.132 0.098 0.546-0.273 1.034-0.293 1.073-0.215 0.293-0.215 0.644-0.039 0.917zM1.385 12.498v-9.369c0-0.117-0.117-0.527 0-0.527h2.498v10.032l-2.303 0.059c-0.117 0-0.195-0.078-0.195-0.195z"></path>
</svg>
<svg id="icon4-d_1" width="24" height="24" viewBox="0 0 24 24" x="0" y="250">
<path fill="#3c9" d="M15.819 11.054c0.318 0.161 0.685 0.389 1.101 0.682s0.877 0.671 1.382 1.133c0.506 0.462 1.024 1.041 1.554 1.738s1.064 1.522 1.603 2.475c0.538 0.953 1.052 2.061 1.541 3.322-0.245 0.132-0.493 0.286-0.746 0.462s-0.502 0.334-0.746 0.473c-0.245 0.139-0.498 0.249-0.759 0.33s-0.522 0.099-0.783 0.055c-0.701-0.132-1.325-0.191-1.872-0.176s-1.048 0.070-1.505 0.165c-0.457 0.095-0.881 0.216-1.272 0.363s-0.771 0.29-1.138 0.429c-0.367 0.139-0.734 0.257-1.101 0.352s-0.763 0.143-1.187 0.143c-0.913-0.015-1.794-0.136-2.643-0.363s-1.656-0.458-2.422-0.693c-0.767-0.235-1.48-0.414-2.141-0.539s-1.26-0.092-1.798 0.099c-0.326 0.117-0.661 0.125-1.003 0.022s-0.652-0.235-0.93-0.396c-0.326-0.191-0.644-0.433-0.954-0.726 0.604-1.672 1.289-3.102 2.055-4.29s1.505-2.167 2.214-2.937c0.71-0.77 1.338-1.353 1.884-1.749s0.893-0.638 1.040-0.726c0.147-0.073 0.228-0.253 0.245-0.539s0.008-0.576-0.024-0.869c-0.049-0.352-0.122-0.741-0.22-1.166l-3.597-6.49 4.306-0.638c0.44 0.748 0.869 1.316 1.285 1.705s0.816 0.653 1.199 0.792c0.383 0.139 0.746 0.176 1.089 0.11s0.661-0.194 0.954-0.385c0.685-0.44 1.329-1.181 1.933-2.222l4.331 0.638c-0.326 0.689-0.685 1.401-1.077 2.134-0.326 0.631-0.705 1.327-1.138 2.090s-0.893 1.518-1.382 2.266c-0.196 0.499-0.306 0.909-0.33 1.232s-0.012 0.587 0.037 0.792c0.065 0.235 0.163 0.418 0.294 0.55 0.163 0.073 0.404 0.191 0.722 0.352z"></path>
</svg>
<svg id="icon4-d_2" width="24" height="24" viewBox="0 0 24 24" x="0" y="275">
<path fill="#f5a623" d="M13.831 3.011h5.224c1.401 0.295 2.494 1.569 2.677 3.059 0.009 0.075-0.014 0.151-0.063 0.208s-0.12 0.090-0.194 0.090h-18.978c-0.074 0-0.145-0.033-0.194-0.090s-0.072-0.133-0.063-0.208c0.183-1.49 1.276-2.763 2.677-3.059h5.254v-0.971c0-0.574 0.455-1.040 1.017-1.040h1.627c0.562 0 1.017 0.465 1.017 1.040v0.971zM21.705 17.42c-0.081 3.38 0 3.418-2.854 3.38-0.288-0.004-0.484 0.287-0.484 0.574v0.044c-0 0.154-0.060 0.302-0.167 0.411s-0.252 0.17-0.403 0.17h-0.155c-0.315 0-0.569-0.26-0.569-0.581-0-0.154-0.060-0.302-0.167-0.411s-0.252-0.17-0.402-0.17h-9.006c-0.151-0-0.296 0.061-0.403 0.17s-0.167 0.257-0.167 0.411c-0 0.154-0.060 0.302-0.167 0.411s-0.252 0.17-0.403 0.17h-0.155c-0.315 0-0.569-0.26-0.569-0.581v-0.044c0-0.287-0.197-0.579-0.484-0.574-2.416 0.037-2.854 0.037-2.854-3.38v-7.448c0-0.007-0.426-0.017-1.278-0.031-0.562 0-1.017-0.465-1.017-1.040v-0.416c0-0.574 0.455-1.040 1.017-1.040h21.966c0.562 0 1.017 0.465 1.017 1.040v0.416c0 0.574-0.455 1.040-1.017 1.040h-1.277l-0.001 7.479zM9.864 16.594c-0.393 0-0.712 0.326-0.712 0.728s0.319 0.728 0.712 0.728h4.475c0.393 0 0.712-0.326 0.712-0.728s-0.319-0.728-0.712-0.728h-4.475zM12.102 12.228c0.393 0 0.712-0.326 0.712-0.728s-0.319-0.728-0.712-0.728c-0.393 0-0.712 0.326-0.712 0.728s0.319 0.728 0.712 0.728zM12.102 15.139c0.393 0 0.712-0.326 0.712-0.728s-0.319-0.728-0.712-0.728c-0.393 0-0.712 0.326-0.712 0.728s0.319 0.728 0.712 0.728z"></path>
</svg>
<svg id="icon4-d_3" width="24" height="24" viewBox="0 0 24 24" x="0" y="300">
<path fill="#73c816" d="M8.54 0.484v0zM1.149 6.108c0 1.016 0.824 1.841 1.841 1.841s1.841-0.824 1.841-1.841c0-1.016-0.824-1.841-1.841-1.841s-1.841 0.824-1.841 1.841zM3.974 8.407l0.003 0.009c-0.402 0.006-0.793 0.267-1.032 0.739-0.394 0.783-0.279 1.722-0.054 2.544 0.099 0.357 0.219 0.71 0.337 1.061 0.328 0.969 0.561 2.093 1.463 2.711 0.54 0.369 1.193 0.486 1.826 0.561 0.483 0.057 1.107 0.052 1.541 0.299 0.466 0.264 0.453 0.864 0.516 1.328 0.077 0.555 0.156 1.11 0.231 1.665 0.046 0.345 0.102 0.699 0.144 1.149 0 0.006-0.003 0.010-0.003 0.015 0 0.28 0.227 0.507 0.507 0.507 0.277 0 0.501-0.223 0.505-0.5h0.009c0.002-0.147 0.146-2.115 0.181-2.822 0.039-0.762 0.131-1.635-0.232-2.34-0.054-0.106-0.12-0.206-0.197-0.297-0.538-0.645-1.479-0.741-2.244-1.030-0.229-0.087-0.455-0.201-0.642-0.357-0.699-0.579-0.837-1.599-1.109-2.544-0.127-0.444-0.204-0.796-0.316-1.137l0.351 0.054c0.256 0.006 0.566 0.042 0.822 0.055 0.339 0.017 0.635 0.053 0.926-0.18 0.228-0.183 1.962-2.072 1.962-2.255 0-0.223-0.182-0.405-0.405-0.405-0.132 0-1.748 1.545-1.929 1.662-0.178 0.114-0.415 0.029-0.589-0.026-0.225-0.070-0.452-0.138-0.679-0.198-0.51-0.134-1.377-0.342-1.892-0.269zM12.707 18.823c0.034 0.018 0.071 0.027 0.11 0.027 0.028 0 0.056-0.005 0.082-0.015l9.827-3.65c0.12-0.045 0.184-0.177 0.143-0.298-0.015-0.017-4.137-12.293-14.856-14.88-0.081-0.021-0.166 0.004-0.225 0.065-0.058 0.058-0.081 0.146-0.060 0.227l4.859 18.377c0.018 0.063 0.062 0.119 0.121 0.149zM11.949 11.947c-0.090-0.417 0.175-0.828 0.593-0.918 0.213-0.045 5.199-1.067 8.304 2.888 0.262 0.335 0.206 0.821-0.131 1.085-0.141 0.11-0.309 0.165-0.477 0.165-0.228 0-0.456-0.101-0.608-0.296-2.514-3.204-6.588-2.37-6.765-2.333-0.407 0.091-0.825-0.174-0.916-0.591zM23.782 22.003c0.323 0.378 0.283 0.954-0.091 1.278-0.377 0.321-0.938 0.287-1.263-0.093l-0.012-0.014c-0.064-0.075-0.123-0.153-0.195-0.211-0.339-0.271-0.95-0.297-1.355 0.014-0.048 0.037-0.125 0.127-0.192 0.207-0.18 0.215-0.428 0.506-0.822 0.684l-0.136 0.063-0.384 0.052-0.111-0.008c-0.105-0.011-0.27-0.025-0.454-0.112-0.383-0.174-0.63-0.465-0.81-0.678-0.067-0.081-0.145-0.172-0.191-0.206-0.41-0.315-1.017-0.288-1.359-0.014-0.065 0.052-0.12 0.125-0.178 0.194-0.215 0.249-0.509 0.592-1.007 0.75-0.852 0.267-1.434-0.32-1.686-0.572-0.255-0.254-0.422-0.41-0.591-0.476-0.263-0.098-0.569-0.095-0.84 0.016-0.126 0.053-0.243 0.165-0.423 0.345-0.169 0.171-0.364 0.364-0.625 0.537-0.243 0.159-0.489 0.239-0.736 0.239-0.437 0-0.877-0.249-1.32-0.745-0.211-0.227-0.34-0.324-0.478-0.396-0.676-0.345-1.313 0.206-1.556 0.461-0.213 0.223-0.861 0.904-1.773 0.531-0.42-0.171-0.697-0.45-0.92-0.672-0.138-0.138-0.26-0.259-0.357-0.294-0.345-0.125-0.696-0.114-0.963 0.029-0.091 0.048-0.219 0.154-0.342 0.256-0.39 0.327-0.984 0.825-1.848 0.686-0.491-0.075-0.828-0.535-0.752-1.028 0.075-0.49 0.544-0.826 1.026-0.751 0.063-0.005 0.288-0.177 0.421-0.288 0.187-0.156 0.397-0.332 0.657-0.468 0.714-0.378 1.595-0.424 2.414-0.129 0.477 0.174 0.79 0.489 1.020 0.717 0.048 0.050 0.098 0.099 0.143 0.141 1.068-1.098 2.466-1.403 3.656-0.788 0.312 0.162 0.605 0.383 0.867 0.657l0.11 0.119 0.084-0.084c0.241-0.243 0.543-0.544 1.009-0.738 0.693-0.285 1.485-0.297 2.174-0.032 0.535 0.207 0.905 0.573 1.173 0.84l0.034 0.035c0.023-0.026 0.042-0.049 0.062-0.072 0.132-0.153 0.264-0.302 0.414-0.422 0.975-0.785 2.528-0.818 3.576-0.021 0.194 0.147 0.342 0.318 0.462 0.459 0.121-0.141 0.268-0.312 0.465-0.462 1.040-0.789 2.598-0.759 3.572 0.023 0.158 0.128 0.297 0.284 0.434 0.441z"></path>
</svg>
<svg id="icon4-d_4" width="24" height="24" viewBox="0 0 24 24" x="0" y="325">
<path fill="#00a2ff" d="M10 14.5c0 1.381 1.119 2.5 2.5 2.5s2.5-1.119 2.5-2.5c0-1.381-1.119-2.5-2.5-2.5s-2.5 1.119-2.5 2.5z"></path>
<path fill="#00a2ff" d="M22.357 6.354h-3.2c-0.642 0-1.224-0.381-1.493-0.976l-0.631-1.401c-0.268-0.595-0.851-0.976-1.493-0.976h-5.852c-0.642 0-1.225 0.381-1.493 0.976l-0.631 1.401c-0.268 0.595-0.851 0.976-1.493 0.976h-3.429c-0.904 0-1.643 0.755-1.643 1.677v13.417c0 0.922 0.739 1.677 1.643 1.677h19.714c0.904 0 1.643-0.755 1.643-1.677v-13.417c0-0.922-0.739-1.677-1.643-1.677zM6.75 10.547h-2.464c-0.454 0-0.821-0.375-0.821-0.839s0.368-0.839 0.821-0.839h2.464c0.454 0 0.821 0.375 0.821 0.839s-0.368 0.839-0.821 0.839zM12.5 18.932c-2.265 0-4.107-1.881-4.107-4.193s1.842-4.192 4.107-4.192c2.265 0 4.107 1.88 4.107 4.192s-1.842 4.193-4.107 4.193z"></path>
</svg>
<svg id="icon4-d_5" width="24" height="24" viewBox="0 0 24 24" x="0" y="350">
<path fill="#c3549c" d="M13.038 1.702c0.513-0.071 0.538-0.024 0.538-0.024 0.281 0 0.33 0.298 0.33 0.667v4.19c0 0.31 0.098 0.905-0.366 0.905h-2.846c-0.379-0.036-0.452-0.417-0.452-0.905l-0.012-2.345c0-0.69 2.382-2.417 2.81-2.488zM9.716 8.845h4.874c0.379 0 0.696 0.274 0.696 0.607v1.571c0 0.333-0.318 0.607-0.696 0.607h-5.009c-0.391 0-0.709-0.274-0.709-0.607v-1.571c0-0.333 0.318-0.607 0.709-0.607h0.134zM16.813 11.702v-2.964c0-0.655-0.562-1.19-1.283-1.274v-5.917c0-0.774-0.672-1.548-1.246-1.548 0 0-0.794 0-1.283 0.107-1.6 0.31-4.422 2.262-4.422 4.131v3.214c-0.733 0.083-1.307 0.619-1.307 1.286v2.964h-0.086c-1.197 0-2.187 0.81-2.187 1.798v8.702c0 0.988 0.99 1.798 2.187 1.798h9.627c1.197 0 2.187-0.81 2.187-1.798v-8.702c0-0.988-0.99-1.798-2.187-1.798z"></path>
</svg>
<svg id="icon4-d_6" width="24" height="24" viewBox="0 0 24 24" x="0" y="375">
<path fill="#00a2ff" d="M19.233 11.579c0.272 0.272 0.408 0.613 0.408 1.021s-0.136 0.757-0.408 1.045l-9.917 9.946c-0.304 0.272-0.66 0.408-1.069 0.408s-0.748-0.136-1.020-0.408l-6.795-6.799c-0.288-0.288-0.432-0.633-0.432-1.033s0.144-0.753 0.432-1.057l9.941-9.922c0.288-0.288 0.632-0.432 1.032-0.432s0.744 0.144 1.032 0.432l6.795 6.799zM11.91 8.432c0.144-0.144 0.216-0.32 0.216-0.529s-0.072-0.376-0.216-0.504c-0.144-0.144-0.316-0.216-0.516-0.216s-0.372 0.072-0.516 0.216l-7.3 7.303c-0.144 0.144-0.216 0.32-0.216 0.529s0.072 0.384 0.216 0.529c0.144 0.144 0.316 0.216 0.516 0.216s0.372-0.072 0.516-0.216l7.3-7.327zM21.562 9.729c0.224 0.224 0.336 0.488 0.336 0.793s-0.112 0.569-0.336 0.793c-0.208 0.224-0.464 0.336-0.768 0.336s-0.568-0.112-0.792-0.336l-7.3-7.303c-0.224-0.224-0.336-0.488-0.336-0.793s0.112-0.569 0.336-0.793c0.208-0.224 0.464-0.336 0.768-0.336s0.568 0.112 0.792 0.336l7.3 7.303zM23.675 1.922c-0.224 0.208-0.484 0.312-0.78 0.312s-0.556-0.104-0.78-0.312c0.304 0.32 0.528 0.681 0.672 1.081s0.2 0.825 0.168 1.273c-0.032 0.448-0.144 0.893-0.336 1.333s-0.456 0.853-0.792 1.237v0.024c0.16 0.144 0.24 0.316 0.24 0.517s-0.080 0.372-0.24 0.517c-0.144 0.144-0.32 0.216-0.528 0.216s-0.384-0.072-0.528-0.216l-4.682-4.685c-0.128-0.144-0.192-0.32-0.192-0.529s0.072-0.384 0.216-0.529c0.128-0.16 0.296-0.24 0.504-0.24s0.384 0.080 0.528 0.24v0.024c0.384-0.352 0.8-0.625 1.249-0.817s0.896-0.3 1.345-0.324c0.448-0.024 0.876 0.032 1.285 0.168s0.772 0.356 1.093 0.661c-0.224-0.224-0.336-0.484-0.336-0.781s0.112-0.549 0.336-0.757c0.224-0.224 0.484-0.336 0.78-0.336s0.556 0.112 0.78 0.336c0.208 0.224 0.316 0.488 0.324 0.793s-0.1 0.569-0.324 0.793z"></path>
</svg>
<svg id="icon4-d_7" width="24" height="24" viewBox="0 0 24 24" x="0" y="400">
<path fill="#5ba20d" d="M23 0h-14v21h14c0 0-1.105-1.602-1.105-3.453s1.105-2.278 1.105-4.734c0-2.456-1.105-2.776-1.105-5.125 0-2.314 1.105-4.378 1.105-6.229v-1.459z"></path>
<path fill="#73c816" d="M2 3v18.262c0 1.497 3.564 2.738 8 2.738s8-1.241 8-2.738v-18.262h-16z"></path>
<path fill="#cae699" d="M2 2.5c0 1.381 3.582 2.5 8 2.5s8-1.119 8-2.5c0-1.381-3.582-2.5-8-2.5s-8 1.119-8 2.5z"></path>
<path fill="#5c8e25" d="M10.5 4c-1.75 0-3.5-0.525-3.5-1.5s1.75-1.5 3.5-1.5c1.75 0 3.5 0.525 3.5 1.5s-1.75 1.5-3.5 1.5z"></path>
<path fill="#f0fddc" opacity="0.412364" d="M14 5.199l1-0.199v2.187h-1v-1.989zM14 8.257h1v2.14h-1v-2.14zM14 11.467h1v2.14h-1v-2.14zM14 14.677h1v2.14h-1v-2.14zM14 17.887h1v2.14h-1v-2.14zM14 21.098h1v1.69l-1 0.213v-1.902z"></path>
</svg>
<svg id="icon4-d_8" width="24" height="24" viewBox="0 0 24 24" x="0" y="425">
<path fill="#73c816" d="M24 11.655c0 0.362-0.059 0.708-0.146 1.044-0.005 0.034-0.009 0.067-0.014 0.101h-0.019c-0.525 1.84-2.258 3.2-4.336 3.2-1.502 0-2.822-0.713-3.643-1.798-0.778 1.070-2.209 1.798-3.865 1.798-1.65 0-3.077-0.722-3.857-1.785-0.814 1.078-2.125 1.785-3.615 1.785-2.106 0-3.861-1.405-4.339-3.29-0.009 0.031-0.025 0.059-0.033 0.089h-0.020c-0.036-0.278-0.114-0.547-0.114-0.832 0-0.085 0.026-0.164 0.029-0.249 0-0.010-0.003-0.019-0.003-0.029 0-0.329 0.046-0.646 0.118-0.954 0.69-3.622 4.337-6.54 9.102-7.36 0.467 0.838 1.511 1.424 2.73 1.424s2.263-0.586 2.73-1.424c4.329 0.745 7.718 3.229 8.827 6.391 0.29 0.573 0.467 1.209 0.467 1.889zM11.977 3.2c-0.846 0-1.528-0.75-1.496-1.662 0.029-0.824 0.666-1.505 1.436-1.537 0.854-0.036 1.556 0.694 1.556 1.599 0 0.884-0.67 1.6-1.496 1.6zM11.977 17.7c1.554 0 2.923-0.705 3.729-1.774 0.8 1.067 2.176 1.774 3.743 1.774 0.627 0 1.221-0.114 1.763-0.317l-1.476 5.574c-0.163 0.617-0.69 1.043-1.289 1.043h-12.939c-0.599 0-1.126-0.426-1.289-1.043l-1.506-5.684c0.548 0.208 1.15 0.327 1.785 0.327 1.547 0 2.911-0.685 3.717-1.727 0.8 1.098 2.183 1.827 3.762 1.827z"></path>
</svg>
<svg id="icon4-d_9" width="24" height="24" viewBox="0 0 24 24" x="0" y="450">
<path fill="#eb5656" d="M10 12.13c0-0.625 0.312-1.25 0.781-1.719s1.094-0.781 1.719-0.781c0.625 0 1.25 0.312 1.719 0.781s0.781 1.094 0.781 1.719c0 0.625-0.312 1.25-0.781 1.719s-1.094 0.781-1.719 0.781c-0.625 0-1.25-0.312-1.719-0.781s-0.781-1.094-0.781-1.719zM21.338 8.526c-0.53-1.157-1.166-2.104-2.014-3.051-0.848-0.842-1.908-1.578-3.074-1.999s-2.438-0.631-3.71-0.631c-1.272 0-2.544 0.21-3.71 0.737s-2.12 1.157-3.074 1.999c-0.848 0.842-1.484 1.894-2.014 2.946-0.53 1.263-0.742 2.42-0.742 3.788 0 1.263 0.212 2.525 0.742 3.683s1.166 2.104 2.014 3.051c0.53 0.526 1.060 0.947 1.696 1.368 0.53 1.157 1.59 3.577 2.332 3.577h5.194c0 0 0.53 0.21 1.272-1.578 0.318-0.737 0.636-1.368 0.742-1.789 0.848-0.421 1.484-0.947 2.226-1.578 0.848-0.842 1.59-1.894 2.014-3.051 0.53-1.157 0.742-2.42 0.742-3.683 0.106-1.368-0.106-2.525-0.636-3.788zM4.543 12.208c0-4.399 3.565-7.938 7.997-7.938s7.997 3.539 7.997 7.938c0 4.399-3.565 7.938-7.997 7.938s-7.997-3.539-7.997-7.938zM16.886 2.844c-0.424-3.051-1.272-2.841-1.272-2.841h-6.148c-0.848 0-1.272 2.841-1.272 2.841s4.134-2.21 8.692 0z"></path>
</svg>
<svg id="icon4-d_10" width="24" height="24" viewBox="0 0 24 24" x="0" y="475">
<path fill="#586cc0" d="M13.091 2.304v-1.221c0-0.599-0.487-1.083-1.091-1.083s-1.091 0.484-1.091 1.083v1.221c-6.106 0.552-10.909 4.657-10.909 10.863 0 0.599 0.488 1.083 1.091 1.083h4.463c0.522 3.071 3.208 5.417 6.447 5.417s5.925-2.346 6.447-5.417h4.462c0.603 0 1.091-0.484 1.091-1.083 0-6.205-4.803-10.311-10.909-10.863zM12 17.5c-2.028 0-3.74-1.381-4.224-3.25h8.451c-0.487 1.869-2.199 3.25-4.227 3.25zM12 20.75c0.603 0 1.091 0.484 1.091 1.083v1.083c0 0.599-0.487 1.083-1.091 1.083s-1.091-0.484-1.091-1.083v-1.083c0-0.599 0.488-1.083 1.091-1.083zM8.605 19.961c0.539 0.264 0.764 0.914 0.491 1.449l-0.484 0.972c-0.191 0.383-0.576 0.603-0.978 0.603-0.164 0-0.327-0.034-0.484-0.112-0.539-0.267-0.76-0.917-0.491-1.452l0.484-0.972c0.266-0.535 0.924-0.755 1.463-0.488zM4.391 17.547c0.481-0.362 1.166-0.271 1.527 0.21 0.365 0.474 0.273 1.154-0.208 1.517l-0.869 0.653c-0.198 0.149-0.426 0.22-0.658 0.22-0.331 0-0.655-0.149-0.869-0.43-0.365-0.474-0.273-1.154 0.208-1.517l0.869-0.653zM16.855 20.449l0.484 0.975c0.269 0.538 0.048 1.188-0.491 1.452-0.157 0.074-0.32 0.112-0.484 0.112-0.402 0-0.788-0.223-0.978-0.603l-0.484-0.972c-0.269-0.538-0.048-1.188 0.491-1.452 0.539-0.267 1.197-0.047 1.462 0.487zM19.609 17.547l0.869 0.65c0.481 0.362 0.573 1.039 0.208 1.517-0.215 0.284-0.539 0.43-0.869 0.43-0.228 0-0.46-0.071-0.658-0.22l-0.869-0.653c-0.481-0.362-0.573-1.039-0.208-1.517s1.047-0.569 1.527-0.207z"></path>
</svg>
<svg id="icon4-d_11" width="24" height="24" viewBox="0 0 24 24" x="0" y="500">
<path fill="#009eff" d="M12 10.5c-0.827 0-1.5 0.673-1.5 1.5s0.673 1.5 1.5 1.5c0.827 0 1.5-0.673 1.5-1.5s-0.673-1.5-1.5-1.5z"></path>
<path fill="#00a2ff" d="M12 0c-6.617 0-12 5.383-12 12s5.383 12 12 12 12-5.383 12-12c0-6.616-5.383-12-12-12zM12 16c-2.206 0-4-1.794-4-4s1.794-4 4-4c2.206 0 4 1.794 4 4s-1.794 4-4 4z"></path>
</svg>
<svg id="icon4-d_12" width="24" height="24" viewBox="0 0 24 24" x="0" y="525">
<path fill="#00a2ff" d="M24 14.846c0-3.691-2.414-5.114-2.414-5.114h-0.005c0.005-0.771-0.101-6.732-4.665-6.732h-9.758c-4.564 0-4.669 5.961-4.664 6.732h-0.010c0 0-2.485 0.404-2.485 5.086 0 1.358 0.308 2.241 1.102 2.817v1.384c0 1.051 0.931 1.982 2.028 1.982h0.033c1.097 0 1.838-0.931 1.838-1.982v-0.426c1.7 0.115 3.919 0.116 6.782 0.117v-0.056h0.36v0.056c2.906-0.001 5.156 0.001 6.875-0.116v0.424c0 1.051 0.866 1.982 1.963 1.982h0.034c1.097 0 1.903-0.931 1.903-1.982v-1.393c0.776-0.571 1.082-1.445 1.082-2.779zM22.467 13.126c0 0.866-0.71 1.567-1.587 1.567s-1.587-0.701-1.587-1.567c0-0.865 0.71-1.567 1.587-1.567s1.587 0.701 1.587 1.567zM7.962 4.259h8.152c4.077 0 3.896 5.254 3.896 5.254h-15.944c0 0-0.181-5.254 3.896-5.254zM3.028 11.559c0.877 0 1.587 0.701 1.587 1.567s-0.71 1.567-1.587 1.567c-0.876 0-1.587-0.701-1.587-1.567s0.71-1.567 1.587-1.567zM16.226 16.382h-7.799c-0.844 0-1.528-0.672-1.528-1.505s0.684-1.505 1.528-1.505h7.799c0.844 0 1.528 0.672 1.528 1.505s-0.684 1.505-1.528 1.505z"></path>
</svg>
<svg id="icon4-d_13" width="24" height="24" viewBox="0 0 24 24" x="0" y="550">
<path fill="#73c816" d="M8.463 13.656c-1.162-1.341-2.668-3.928-1.881-7.053 4.194 1.85 3.777 7.26 4.231 15.516h-0.94v-1.881h-3.291c0 0-3.291 0.239-3.291 1.41s2.604 2.351 9.403 2.351c6.8 0 7.993-1.784 7.993-2.351 0-0.568-0.676-1.41-3.291-1.41h-1.881c0 0-0.349-5.321 3.291-10.814 0.46 0.64 1.095 2.090-0.94 4.702 2.423-0.228 2.907-1.701 2.821-3.762 0.681 0.353 1.2 1.065 0.94 3.762 1.416-0.853 2.19-3.386 0-5.172 0.99 0.060 1.522 0.095 1.881 1.881 1.324-1.167-0.439-4.48-3.291-3.761-0.559-3.392-5.642-2.922-5.642-0.94 1.137-0.225 2.433-0.182 2.821 0.47-1.279 0.051-2.821 0.237-2.821 3.761 1.154-1.305 1.617-1.99 3.761-1.881-1.385 0.847-4.231 4.721-4.231 13.635-0.775 0.011-1.41 0-1.41 0s0.606-12.68-4.702-16.456c2.16-0.198 3.871-0.233 5.642 3.291 0.266-1.928 0.272-6.063-4.231-5.642 0.494-0.97 0.445-1.652 4.231-1.41-2.459-3.62-7.85-1.555-7.993 1.881 0 0-5.66-1.166-5.642 4.702 1.502-1.484 2.207-2.113 2.821-2.351-0.801 1.108-2.789 4.049 0 6.583 0.096-3.403 0.861-3.951 1.41-4.702 0.032 1.7 0.147 5.534 4.231 5.642z"></path>
</svg>
<svg id="icon4-d_14" width="24" height="24" viewBox="0 0 24 24" x="0" y="575">
<path fill="#73c816" d="M17.117 7.18c-0.301-0.151-0.351-0.502-0.151-0.753 0.151-0.201 0.301-0.402 0.402-0.603 0.954-1.657 0.904-3.565-0.201-4.167-0.251-0.151-0.502-0.201-0.803-0.201s-0.552 0.050-0.854 0.201c-0.050 0.050-0.151 0.050-0.201 0.050-0.151 0-0.301-0.050-0.402-0.201-0.653-0.904-1.707-1.506-2.912-1.506s-2.259 0.603-2.912 1.506c-0.1 0.151-0.251 0.201-0.402 0.201-0.050 0-0.151 0-0.201-0.050-0.251-0.201-0.552-0.251-0.803-0.251-0.301 0-0.552 0.050-0.803 0.201-1.054 0.603-1.155 2.51-0.201 4.167 0.151 0.201 0.251 0.452 0.402 0.603 0.201 0.251 0.151 0.603-0.151 0.753-3.515 1.858-5.925 5.573-5.925 9.841 0 2.159 0.703 4.167 1.858 5.824 0.552 0.753 1.456 1.205 2.41 1.205h13.556c0.954 0 1.858-0.452 2.41-1.205 1.155-1.657 1.858-3.665 1.858-5.824 0-4.268-2.41-7.983-5.975-9.791zM12.046 20.485c0-2.761-2.259-5.021-5.021-5.021 2.761 0 5.021-2.259 5.021-5.021 0 2.761 2.259 5.021 5.021 5.021-2.761 0-5.021 2.259-5.021 5.021z"></path>
</svg>
<svg id="icon4-d_15" width="24" height="24" viewBox="0 0 24 24" x="0" y="600">
<path fill="#c3549c" d="M1.162 17.042l8.083-10.021c-0.011-0.152-0.023-0.303-0.023-0.459 0-3.618 2.944-6.562 6.562-6.562s6.562 2.944 6.562 6.562c0 3.618-2.944 6.562-6.562 6.562-0.155 0-0.307-0.012-0.459-0.023l-10.020 8.083c-0.135 0.108-0.297 0.161-0.458 0.161-0.188 0-0.375-0.072-0.516-0.214l-0.571-0.571c-0.001 0.22 0.027 0.453 0.111 0.682 0.188 0.508 0.631 0.912 1.316 1.2 0.807 0.34 2.061-0.249 3.514-0.929 2.675-1.254 6.338-2.972 10.258 0.1 0.318 0.249 0.373 0.709 0.124 1.026s-0.708 0.373-1.025 0.124c-3.213-2.519-6.148-1.142-8.738 0.073-1.27 0.595-2.486 1.166-3.608 1.166-0.375 0-0.741-0.064-1.093-0.212-1.072-0.451-1.785-1.137-2.118-2.040-0.349-0.943-0.176-1.881-0.001-2.447l-1.285-1.285c-0.264-0.264-0.287-0.684-0.052-0.974zM19.915 6.562c0-2.278-1.853-4.131-4.132-4.131s-4.131 1.853-4.131 4.131 1.853 4.132 4.131 4.132c2.278 0 4.132-1.854 4.132-4.132zM4.898 19.635l8.593-6.932c-1.775-0.666-3.184-2.074-3.849-3.849l-6.932 8.593 1.035 1.035c0.095 0.060 0.172 0.137 0.228 0.228l0.925 0.925zM9.296 12.105c0.285-0.285 0.748-0.285 1.033 0s0.285 0.748 0 1.033l-1.582 1.583c-0.143 0.142-0.329 0.214-0.516 0.214s-0.373-0.072-0.516-0.214c-0.285-0.285-0.285-0.748 0-1.033l1.582-1.583z"></path>
</svg>
<svg id="icon4-d_16" width="24" height="24" viewBox="0 0 24 24" x="0" y="625">
<path fill="#eb5656" d="M3 6v16.759l2.611-2.514 2.423 2.332 2.423-2.332 2.459 2.367 2.458-2.366 2.386 2.297 2.388-2.298 2.851 2.745v-16.99c0-2.761-2.239-5-5-5h-10c-2.761 0-5 2.239-5 5zM15.929 10.889v1.055h-2.001v0.911h2.001v1.055h-2.001v1.528h-1.893v-1.528h-2.066v-1.055h2.066v-0.911h-2.066v-1.055h1.694l-2.235-3.702h1.994l1.634 3.318h0.024c0.053-0.124 0.134-0.303 0.246-0.538l1.352-2.78h1.892l-2.301 3.702c0 0 1.659 0 1.659 0zM3 23.033h0.104l-0.104-0.1v0.1z"></path>
</svg>
<svg id="icon4-G_2" width="24" height="24" viewBox="0 0 24 24" x="0" y="650">
<path fill="#f5a623" d="M22.322 6.4h-2.322c-0.419-3.594-3.621-6.4-7.501-6.4s-7.081 2.806-7.5 6.4h-2.322c-0.484 0-0.945 0.2-1.264 0.548s-0.464 0.81-0.398 1.268l2.059 14.4c0.113 0.793 0.824 1.384 1.663 1.384h15.526c0.839-0 1.549-0.591 1.662-1.384l2.059-14.4c0.065-0.458-0.080-0.92-0.398-1.268s-0.779-0.548-1.264-0.548zM5.789 9.6c-0.304 0.007-0.588-0.144-0.742-0.394s-0.154-0.56-0-0.81c0.154-0.25 0.438-0.401 0.742-0.395 0.456 0.010 0.82 0.365 0.82 0.8s-0.364 0.79-0.82 0.8zM6.695 6.4c0.409-2.709 2.853-4.8 5.805-4.8s5.396 2.091 5.805 4.8h-11.61zM19.211 9.6c-0.304 0.007-0.588-0.144-0.742-0.394s-0.154-0.56-0-0.81c0.154-0.25 0.438-0.401 0.742-0.395 0.456 0.010 0.82 0.365 0.82 0.8s-0.364 0.79-0.82 0.8z"></path>
<text id="9.9" font-family="SFProText-Bold, SF Pro Text" font-size="10" letter-spacing="-0.5" fill="#FFFFFF">
<tspan x="6" y="20">9.9</tspan>
</text>
</svg>
<svg id="icon4-G_3" width="24" height="24" viewBox="0 0 24 24" x="0" y="675">
<path fill="#e85959" d="M23.995 20.284c0.016 0.285-0.008 0.504-0.072 0.655-0.385 0.185-0.79 0.336-1.215 0.453s-0.862 0.21-1.311 0.277c-0.449 0.067-0.894 0.118-1.335 0.151s-0.87 0.059-1.287 0.076c-1.011 0.067-2.021 0.101-3.032 0.101s-2.021-0.017-3.032-0.050c-0.305-0.017-0.553-0.042-0.746-0.076s-0.377-0.176-0.553-0.428c-0.144-0.185-0.277-0.365-0.397-0.542s-0.237-0.357-0.349-0.542c-0.273-0.453-0.521-0.924-0.746-1.411l-0.674-1.461c-0.176-0.336-0.381-0.735-0.614-1.197s-0.481-0.936-0.746-1.423c-0.265-0.487-0.529-0.953-0.794-1.398s-0.509-0.81-0.734-1.096c-0.096-0.118-0.201-0.181-0.313-0.189s-0.233 0.013-0.361 0.063l-0.385 0.101c-0.128 0.050-0.257 0.059-0.385 0.025-0.209 0.437-0.361 0.877-0.457 1.323s-0.172 0.894-0.229 1.348c-0.056 0.453-0.108 0.915-0.156 1.385s-0.128 0.94-0.241 1.411c-0.112 0.521-0.188 1.037-0.229 1.549s-0.060 1.029-0.060 1.549c-0.016 0.034-0.020 0.080-0.012 0.139s0.012 0.105 0.012 0.139c-0.096 0.034-0.201 0.050-0.313 0.050h-0.289c-0.096 0-0.241 0.013-0.433 0.038s-0.329 0.013-0.409-0.038c-0.016-0.134-0.016-0.256 0-0.365s0.016-0.231 0-0.365c-0.080-0.974-0.156-1.965-0.229-2.973s-0.172-2.011-0.301-3.010c-0.128-0.999-0.297-1.982-0.505-2.947s-0.489-1.902-0.842-2.809c-0.192-0.605-0.261-1.218-0.205-1.839s0.197-1.226 0.421-1.814c0.225-0.588 0.505-1.146 0.842-1.675s0.69-1.012 1.059-1.448c1.556 1.528 3.084 3.086 4.584 4.673s2.996 3.187 4.487 4.799c0.337 0.353 0.666 0.714 0.986 1.083s0.658 0.722 1.011 1.058c0.353 0.336 0.73 0.638 1.131 0.907s0.834 0.487 1.299 0.655c0.433 0.151 0.882 0.227 1.347 0.227 0.128 0.017 0.257 0.025 0.385 0.025s0.257-0.017 0.385-0.050c0.064-0.101 0.132-0.197 0.205-0.29s0.156-0.181 0.253-0.264c0.176-0.168 0.377-0.302 0.602-0.403s0.453-0.151 0.686-0.151c0.233 0 0.461 0.046 0.686 0.139s0.417 0.239 0.577 0.441c0.241 0.336 0.361 0.689 0.361 1.058 0 0.118 0.008 0.202 0.024 0.252s0.036 0.097 0.060 0.139c0.024 0.042 0.060 0.084 0.108 0.126s0.104 0.113 0.168 0.214c0.096 0.151 0.144 0.319 0.144 0.504 0.16 0.067 0.321 0.168 0.481 0.302 0.337 0.285 0.61 0.655 0.818 1.108 0.032 0.101 0.064 0.206 0.096 0.315s0.056 0.214 0.072 0.315c0.176 0 0.321 0.034 0.433 0.101l0.144 0.151c0.032 0.050 0.072 0.101 0.12 0.151-0.016 0.168-0.016 0.395 0 0.68z"></path>
</svg>
<svg id="icon4-G_4" width="24" height="24" viewBox="0 0 24 24" x="0" y="700">
<path fill="#e85959" d="M2 17.388v1.625c5.25 0 7.252 4.988 7.252 4.988h4.533v-0.112c0.378-0.825 2.493-4.875 7.177-4.875l-0.038-0.038h0.076v-1.587c0-0.552-0.448-1-1-1h-17c-0.552 0-1 0.448-1 1zM7.213 14.175c3.324 0 3.891-2.7 3.891-2.7h0.982c0 0 1.171 2.737 3.626 2.737 2.417 0 3.853-1.95 3.853-3.938 0-1.162-0.793-2.437-1.473-3.337v-6.375c0-0.3-0.264-0.563-0.567-0.563s-0.567 0.262-0.567 0.563v5.512l-5.062 3.525h-1.058l-4.684-3.75v-5.287c0-0.3-0.264-0.563-0.567-0.563s-0.567 0.262-0.567 0.563v6.562c-0.718 1.087-1.586 2.55-1.586 3.262-0.038 1.238 0.416 3.787 3.777 3.787z"></path>
</svg>
<svg id="icon4-G_24" width="24" height="24" viewBox="0 0 24 24" x="0" y="725">
<path fill="#495c72" d="M20.091 9.959c-0.195-0.673-0.57-1.98-1.111-3.959-0.832-3.047-3.809-3-3.809-3s-0.78 2.25-3.171 2.25-3.173-2.25-3.173-2.25-2.974-0.047-3.809 3c-0.541 1.98-0.914 3.286-1.111 3.959-0.087 0.295 0.094 0.6 0.394 0.67l1.699 0.401v-1.655c0-0.206 0.169-0.375 0.375-0.375s0.375 0.169 0.375 0.375v10.125c0 0 0.698 0.75 5.25 0.75s5.25-0.75 5.25-0.75v-10.125c0-0.206 0.169-0.375 0.375-0.375s0.375 0.169 0.375 0.375v1.657l1.699-0.401c0.298-0.073 0.478-0.377 0.391-0.673z"></path>
</svg>
<svg id="icon4-G_18" width="24" height="24" viewBox="0 0 24 24" x="0" y="750">
<path fill="#7ed321" d="M12 22.080l-3.106 1.511-1.934-2.862-3.445-0.244-0.244-3.445-2.862-1.934 1.511-3.106-1.511-3.106 2.862-1.934 0.244-3.445 3.445-0.244 1.934-2.862 3.106 1.511 3.106-1.511 1.934 2.862 3.445 0.244 0.244 3.445 2.862 1.934-1.511 3.106 1.511 3.106-2.862 1.934-0.244 3.445-3.445 0.244-1.934 2.862z"></path>
<path fill="#e3ffc5" d="M21.026 12.157c0 3.64-2.192 6.922-5.555 8.315s-7.234 0.623-9.808-1.95c-2.574-2.574-3.344-6.445-1.951-9.808s4.675-5.556 8.315-5.556c4.97 0 8.999 4.029 9 8.999z"></path>
<path fill="#59b932" d="M12 6c-3.313 0-6 2.687-6 6s2.687 6 6 6c0.553 0 1-0.447 1-1 0-0.26-0.1-0.493-0.26-0.673-0.153-0.173-0.253-0.407-0.253-0.66 0-0.553 0.447-1 1-1h1.18c1.84 0 3.333-1.493 3.333-3.333 0-2.947-2.687-5.333-6-5.333zM8.333 12c-0.553 0-1-0.447-1-1s0.447-1 1-1c0.553 0 1 0.447 1 1s-0.447 1-1 1zM10.333 9.333c-0.553 0-1-0.447-1-1s0.447-1 1-1c0.553 0 1 0.447 1 1s-0.447 1-1 1zM13.667 9.333c-0.553 0-1-0.447-1-1s0.447-1 1-1c0.553 0 1 0.447 1 1s-0.447 1-1 1zM15.667 12c-0.553 0-1-0.447-1-1s0.447-1 1-1c0.553 0 1 0.447 1 1s-0.447 1-1 1z"></path>
</svg>
<svg id="icon4-G_19" width="24" height="24" viewBox="0 0 24 24" x="0" y="775">
<path fill="#f5a623" d="M12 22.080l-3.106 1.511-1.934-2.862-3.445-0.244-0.244-3.445-2.862-1.934 1.511-3.106-1.511-3.106 2.862-1.934 0.244-3.445 3.445-0.244 1.934-2.862 3.106 1.511 3.106-1.511 1.934 2.862 3.445 0.244 0.244 3.445 2.862 1.934-1.511 3.106 1.511 3.106-2.862 1.934-0.244 3.445-3.445 0.244-1.934 2.862z"></path>
<path fill="#f8ecd9" d="M21.026 12.157c0 3.64-2.192 6.922-5.555 8.315s-7.234 0.623-9.808-1.95c-2.574-2.574-3.344-6.445-1.951-9.808s4.675-5.556 8.315-5.556c4.97 0 8.999 4.029 9 8.999z"></path>
<path fill="#f08549" d="M12 9.25l-2.75 4.4-0.55 3.85h6.6l2.2-6.6-2.75 2.75-2.75-4.4zM6.5 10.9l2.2 6.6 0.55-3.85-2.75-2.75zM12 8.7c0.607 0 1.1-0.493 1.1-1.1s-0.493-1.1-1.1-1.1c-0.607 0-1.1 0.492-1.1 1.1s0.493 1.1 1.1 1.1zM16.4 10.35c0.607 0 1.1-0.492 1.1-1.1s-0.493-1.1-1.1-1.1-1.1 0.492-1.1 1.1c0 0.607 0.493 1.1 1.1 1.1zM7.6 10.35c0.607 0 1.1-0.492 1.1-1.1s-0.493-1.1-1.1-1.1-1.1 0.492-1.1 1.1c0 0.607 0.493 1.1 1.1 1.1z"></path>
</svg>
<svg id="icon4-G_20" width="24" height="24" viewBox="0 0 24 24" x="0" y="800">
<path fill="#3c9" d="M12 22.080l-3.106 1.511-1.934-2.862-3.445-0.244-0.244-3.445-2.862-1.934 1.511-3.106-1.511-3.106 2.862-1.934 0.244-3.445 3.445-0.244 1.934-2.862 3.106 1.511 3.106-1.511 1.934 2.862 3.445 0.244 0.244 3.445 2.862 1.934-1.511 3.106 1.511 3.106-2.862 1.934-0.244 3.445-3.445 0.244-1.934 2.862z"></path>
<path fill="#defff4" d="M21.026 12.157c0 3.64-2.192 6.922-5.555 8.315s-7.234 0.623-9.808-1.95c-2.574-2.574-3.344-6.445-1.951-9.808s4.675-5.556 8.315-5.556c4.97 0 8.999 4.029 9 8.999z"></path>
<path fill="#06af77" d="M16.89 8.36l0.030 0.030-0.75 0.75-2.52-2.52 0.696-0.696c0.017-0.019 0.035-0.036 0.054-0.054 0.27-0.27 0.69-0.3 0.96-0.030l1.56 1.56c0.27 0.27 0.24 0.69-0.030 0.96zM9.93 15.74h4.020v0.6h-4.020v-0.6zM14.45 15.74h3.41v0.6h-3.41v-0.6zM13.162 7.119l2.488 2.507-4.953 4.959-2.548-2.553 5.014-4.913zM7.62 12.65l2.52 2.52-3.54 0.99 1.020-3.51z"></path>
</svg>
<svg id="icon4-G_21" width="24" height="24" viewBox="0 0 24 24" x="0" y="825">
<path fill="#00a2ff" d="M12 22.080l-3.106 1.511-1.934-2.862-3.445-0.244-0.244-3.445-2.862-1.934 1.511-3.106-1.511-3.106 2.862-1.934 0.244-3.445 3.445-0.244 1.934-2.862 3.106 1.511 3.106-1.511 1.934 2.862 3.445 0.244 0.244 3.445 2.862 1.934-1.511 3.106 1.511 3.106-2.862 1.934-0.244 3.445-3.445 0.244-1.934 2.862z"></path>
<path fill="#e5f5ff" d="M21.026 12.157c0 3.64-2.192 6.922-5.555 8.315s-7.234 0.623-9.808-1.95c-2.574-2.574-3.344-6.445-1.951-9.808s4.675-5.556 8.315-5.556c4.97 0 8.999 4.029 9 8.999z"></path>
<path fill="#128ee9" d="M16.241 12.624c-8.487 0-8.487 0-8.487 0 0 5.23 8.284 5.23 8.487 0zM9.010 10.399c0.723 0 1.31-0.585 1.31-1.305 0-0.721-0.587-1.305-1.31-1.305s-1.31 0.584-1.31 1.305c0 0.72 0.585 1.305 1.31 1.305zM14.882 10.399c0.721 0 1.305-0.585 1.305-1.305 0-0.721-0.585-1.305-1.305-1.305-0.721 0-1.305 0.584-1.305 1.305-0.002 0.72 0.584 1.305 1.305 1.305z"></path>
</svg>
<svg id="icon4-G_22" width="24" height="24" viewBox="0 0 24 24" x="0" y="850">
<path fill="#9f3fc8" d="M12 22.080l-3.106 1.511-1.934-2.862-3.445-0.244-0.244-3.445-2.862-1.934 1.511-3.106-1.511-3.106 2.862-1.934 0.244-3.445 3.445-0.244 1.934-2.862 3.106 1.511 3.106-1.511 1.934 2.862 3.445 0.244 0.244 3.445 2.862 1.934-1.511 3.106 1.511 3.106-2.862 1.934-0.244 3.445-3.445 0.244-1.934 2.862z"></path>
<path fill="#f8e9ff" d="M21.026 12.157c0 3.64-2.192 6.922-5.555 8.315s-7.234 0.623-9.808-1.95c-2.574-2.574-3.344-6.445-1.951-9.808s4.675-5.556 8.315-5.556c4.97 0 8.999 4.029 9 8.999z"></path>
<path fill="#9f3fc8" d="M18.349 16.013c0-0.163-0.163-0.326-0.326-0.326h-5.148l5.089-5.089c0.244-0.244 0.244-0.692 0-0.936l-4.519-4.478c-0.244-0.244-0.692-0.244-0.936 0l-5.985 5.985c-0.244 0.244-0.244 0.692 0 0.936l3.583 3.542h-4.13c-0.163 0-0.326 0.163-0.326 0.326l-1.651 1.262c0 0.163 0.163 0.326 0.326 0.326h15.349c0.163 0 0.326-0.163 0.326-0.326l-1.651-1.221zM10.758 10.679l1.059 1.14 2.158-2.198 0.326 0.366-2.483 2.524-1.425-1.466 0.366-0.366z"></path>
</svg>
<svg id="icon4-G_23" width="24" height="24" viewBox="0 0 24 24" x="0" y="875">
<path fill="#f27272" d="M12 22.080l-3.106 1.511-1.934-2.862-3.445-0.244-0.244-3.445-2.862-1.934 1.511-3.106-1.511-3.106 2.862-1.934 0.244-3.445 3.445-0.244 1.934-2.862 3.106 1.511 3.106-1.511 1.934 2.862 3.445 0.244 0.244 3.445 2.862 1.934-1.511 3.106 1.511 3.106-2.862 1.934-0.244 3.445-3.445 0.244-1.934 2.862z"></path>
<path fill="#ffd5d5" d="M21.026 12.157c0 3.64-2.192 6.922-5.555 8.315s-7.234 0.623-9.808-1.95c-2.574-2.574-3.344-6.445-1.951-9.808s4.675-5.556 8.315-5.556c4.97 0 8.999 4.029 9 8.999z"></path>
<path fill="#ec5353" d="M17.169 9.12c-1.343-1.343-3.521-1.343-4.864 0l-0.365 0.365-0.243-0.243c-1.343-1.343-3.521-1.343-4.864 0s-1.343 3.521 0 4.864l5.108 5.108 5.229-5.229c1.343-1.343 1.343-3.521-0-4.864z"></path>
<path fill="#fff" d="M16.808 11.526h-0.674c0-0.764-0.632-1.382-1.395-1.382v-0.674c1.168 0 2.069 0.933 2.069 2.056z"></path>
<path fill="#ec5353" d="M11.544 4.35h0.855v2.623h-0.855v-2.623zM13.612 7.643l-0.605-0.605 1.31-1.31 0.605 0.605-1.31 1.31zM10.388 7.643l-1.31-1.31 0.605-0.605 1.31 1.31-0.605 0.605z"></path>
</svg>
</svg>
