<?xml version="1.0" encoding="utf-8"?>
<!-- Generated by IcoMoon.io -->
<svg version="1.1" xmlns="http://www.w3.org/2000/svg" xmlns:xlink="http://www.w3.org/1999/xlink" width="23" height="438" viewBox="0 0 23 438">
<svg id="icon-b_1" width="22" height="22" viewBox="0 0 22 22" x="0" y="0">
<path fill="#000" d="M17.097 22c-0.192 0-0.365-0.052-0.539-0.139l-4.87-2.676c-0.209-0.105-0.435-0.174-0.661-0.174s-0.452 0.052-0.661 0.174l-4.87 2.676c-0.174 0.087-0.348 0.139-0.539 0.139-0.331 0-0.661-0.157-0.887-0.417-0.244-0.278-0.331-0.643-0.279-1.025l0.94-5.665c0.087-0.469-0.070-0.956-0.4-1.286l-3.966-4.032c-0.336-0.337-0.45-0.836-0.296-1.286 0.139-0.434 0.504-0.747 0.94-0.817l5.444-0.834c0.452-0.070 0.853-0.365 1.061-0.799l2.436-5.161c0.209-0.434 0.591-0.677 1.062-0.677 0.452 0 0.852 0.26 1.044 0.677l2.436 5.161c0.209 0.434 0.609 0.73 1.062 0.799l5.444 0.834c0.434 0.070 0.8 0.365 0.94 0.817 0.157 0.452 0.035 0.956-0.296 1.286l-3.949 4.014c-0.331 0.33-0.487 0.817-0.4 1.286l0.94 5.665c0.070 0.382-0.035 0.747-0.279 1.025-0.192 0.278-0.504 0.434-0.852 0.434zM11.024 17.587c0.397 0 0.776 0.099 1.124 0.28l4.89 2.69-0.132-0.297v-0.017l-0.875-5.381c-0.132-0.776 0.116-1.568 0.661-2.113l3.75-3.812c0.049-0.049 0.066-0.132 0.033-0.198v-0.066l-5.287-0.809c-0.776-0.115-1.437-0.611-1.785-1.337l-2.379-5.051-2.395 5.051c-0.346 0.726-1.007 1.221-1.785 1.337l-5.37 0.825 0.116 0.115c0 0.033 0.016 0.082 0.050 0.132l3.75 3.812c0.545 0.545 0.793 1.337 0.661 2.113l-0.892 5.381v0.082l0.033 0.149 4.725-2.591c0.33-0.198 0.71-0.297 1.107-0.297z"></path>
<path fill="#23b16c" d="M13 12c0 1.105-0.896 2-2 2s-2-0.896-2-2c0-1.105 0.896-2 2-2s2 0.896 2 2z"></path>
</svg>
<svg id="icon-b_2" width="22" height="22" viewBox="0 0 22 22" x="0" y="32">
<path fill="#242424" d="M21.089 0.888c-0.003 0-0.003 0 0 0-0.574-0.575-1.331-0.888-2.141-0.888h-5.967c-1.046 0-2.27 0.15-3.399 1.282-0.116 0.116-0.442 0.443-0.825 0.827l-1.693 1.697c-0.003 0.003-0.006 0.006-0.006 0.006-0.301 0.302-0.301 0.787 0 1.085 0.301 0.302 0.782 0.302 1.083 0 0 0 0.003-0.003 0.006-0.006 0.129-0.129 2.19-2.192 2.522-2.524 0.693-0.691 1.399-0.833 2.315-0.833h5.967c0.399 0 0.773 0.157 1.055 0.436 0 0 0 0 0 0 0.282 0.282 0.435 0.658 0.435 1.054h0.012c-0.006 0.068-0.012 0.138-0.012 0.215v5.609c0 0.848-0.101 1.731-0.829 2.462-0.184 0.184-2.534 2.535-2.534 2.535l0.003 0.003c-0.301 0.302-0.301 0.786 0 1.085 0.301 0.302 0.786 0.302 1.083 0l1.702-1.706c0.417-0.418 0.764-0.765 0.831-0.83 1.132-1.134 1.276-2.492 1.279-3.547l0.003-5.824c-0.009-0.805-0.322-1.567-0.893-2.139z"></path>
<path fill="#eb3c3c" d="M17.169 4.805c-0.896-0.897-2.353-0.897-3.249 0s-0.896 2.358 0 3.255c0.896 0.897 2.353 0.897 3.249 0s0.896-2.358 0-3.255zM16.086 6.975c-0.298 0.298-0.786 0.298-1.083 0s-0.298-0.787 0-1.085c0.298-0.298 0.786-0.298 1.083 0s0.298 0.787 0 1.085z"></path>
<path fill="#242424" d="M15.104 15.828c0 0-4.153 4.155-4.196 4.198-0.282 0.282-0.656 0.436-1.055 0.439-0.399 0-0.773-0.157-1.055-0.439 0 0 0 0 0 0l-6.828-6.832c-0.282-0.27-0.439-0.658-0.439-1.057s0.157-0.772 0.439-1.054c0.039-0.040 4.199-4.205 4.199-4.205l-0.003-0.003c0.301-0.302 0.301-0.787 0-1.085-0.301-0.302-0.786-0.302-1.083 0l-1.702 1.706c-1.153 1.156-2.476 2.477-2.497 2.499-0.567 0.575-0.884 1.334-0.884 2.142s0.313 1.568 0.886 2.142c0 0 0 0 0 0l6.825 6.832c0 0 0 0 0 0 0.57 0.572 1.331 0.888 2.138 0.888s1.568-0.313 2.138-0.888c0.025-0.025 1.34-1.343 2.494-2.496l1.702-1.706c0.301-0.302 0.301-0.787 0-1.085-0.298-0.295-0.782-0.295-1.080 0.003z"></path>
</svg>
<svg id="icon-b_3" width="22" height="22" viewBox="0 0 22 22" x="0" y="64">
<path fill="#4159bb" d="M19 18c0 0.553-0.447 1-1 1s-1-0.447-1-1c0-0.553 0.447-1 1-1s1 0.447 1 1z"></path>
<path fill="#242424" d="M15.598 19.34c-1.396 0.772-2.966 1.182-4.598 1.182-5.259 0-9.521-4.263-9.521-9.521s4.263-9.521 9.521-9.521c5.259 0 9.521 4.263 9.521 9.521 0 1.754-0.475 3.438-1.36 4.908-0.211 0.349-0.098 0.804 0.251 1.015s0.804 0.098 1.015-0.251c1.024-1.699 1.573-3.645 1.573-5.671 0-6.075-4.925-11-11-11s-11 4.925-11 11 4.925 11 11 11c1.884 0 3.7-0.475 5.313-1.367 0.358-0.197 0.487-0.647 0.29-1.005s-0.647-0.487-1.004-0.29v0z"></path>
<path fill="#f5a623" d="M9.689 11.448l3.635 3.359c0.283 0.269 1.006 0.45 1.367 0.148s0.317-0.976 0.034-1.245l-3.316-2.777v-5.224c0-0.391-0.508-0.709-0.896-0.709s-0.823 0.317-0.823 0.709c-0.094 3.737-0.094 5.65 0 5.739z"></path>
</svg>
<svg id="icon-b_4" width="22" height="22" viewBox="0 0 22 22" x="0" y="96">
<path fill="#242424" d="M20.921 14.844c0-0.003 0.001-0.005 0.002-0.008h-0.001c0.187-1.139 0.166-3.146-1.537-5.208-2.049-2.482-2.206-3.645-2.346-4.672l-0.027-0.189c-0.038-0.27-0.241-0.497-0.534-0.594-0.281-0.095-0.619-0.044-0.851 0.133-1.555 1.192-2.020 2.664-2.188 3.917-1.803-3.368-1.495-6.187-1.36-7.422 0.026-0.251-0.094-0.492-0.322-0.646-0.224-0.152-0.539-0.194-0.793-0.112-6.142 1.919-6.153 7.868-5.527 11.484-1.074-0.804-1.905-2.171-2.213-2.834-0.128-0.273-0.431-0.447-0.799-0.455-0.35 0.008-0.653 0.2-0.77 0.488-0.029 0.075-2.907 7.605 3.649 11.599 2.067 1.113 4.154 1.678 6.208 1.678 4.663-0.181 7.838-2.083 9.166-6.22 0.022-0.051 0.154-0.394 0.245-0.937zM11.536 20.724c-1.782 0-3.604-0.496-5.409-1.469-2.34-1.426-3.569-3.533-3.652-6.264-0.019-0.629 0.026-1.285 0.134-1.957 0.828 1.093 2.089 2.313 3.715 2.578 0.284 0.039 0.568-0.039 0.765-0.215 0.199-0.177 0.284-0.427 0.227-0.675l-0.029-0.118c-0.615-2.508-1.529-8.519 3.013-10.872-0.127 3.461 0.929 6.566 3.226 9.484 0.209 0.265 0.599 0.384 0.958 0.291 0.359-0.101 0.601-0.39 0.601-0.717v-0.199c0-1.494 0-2.912 0.683-4.090 0.261 0.825 0.834 2.075 2.397 3.968 1.338 1.623 1.402 3.196 1.28 4.108-0.002 0.008-0.579 2.847-2.029 4.149-0.16 0.123-0.359 0.267-0.594 0.418-0.181 0.093-0.294 0.166-0.374 0.23-1.1 0.644-2.784 1.349-4.911 1.351h-0.001z"></path>
<path fill="#EC4141" d="M10.621 11c0.015 0.012 0.030 0.024 0.045 0.036 0.020 0.32 0.035 0.64 0.061 0.96 0.039 0.488 0.141 0.958 0.339 1.396 0.243 0.536 0.648 0.869 1.097 1.134 0.485 0.288 0.79 0.698 0.83 1.348 0.041 0.667-0.133 1.227-0.6 1.637-0.438 0.383-0.95 0.509-1.492 0.488-0.866-0.032-1.511-0.506-1.77-1.503-0.186-0.716-0.156-1.436-0.031-2.156 0.17-0.987 0.48-1.908 1.013-2.714 0.149-0.226 0.338-0.417 0.509-0.624z"></path>
</svg>
<svg id="icon-b_5" width="22" height="22" viewBox="0 0 22 22" x="0" y="128">
<path fill="#454545" d="M13.152 11.677l-2.466-2.377c-0.53-0.511-1.4-0.511-1.93 0l-3.724 3.591 4.395 4.238 3.724-3.593c0.53-0.511 0.53-1.347 0-1.858v0zM4.177 13.714l4.395 4.238-3.779 3.643c-0.53 0.511-1.4 0.511-1.93 0l-2.466-2.377c-0.53-0.511-0.53-1.349 0-1.861l3.779-3.643zM12.644 12.785l-3.107 2.998-3.11-2.998 3.11-2.998 3.107 2.998z"></path>
<path fill="#23B16C" d="M16.551 0.028l-1.313 4.801-4.182 1.454 4.164 1.501 1.252 4.813 1.313-4.798 4.185-1.454-4.167-1.501z"></path>
<path fill="#f5a623" d="M7.824 1.421l-1.632 3.182-3.15 0.438 2.695 1.628 0.162 3.547 1.632-3.182 3.15-0.438-2.695-1.628z"></path>
<path fill="#e91e63" d="M16.070 12.852l-0.734 2.015-1.849 0.485 1.734 0.781 0.368 2.11 0.732-2.018 1.849-0.485-1.734-0.784z"></path>
</svg>
<svg id="icon-b_6" width="22" height="22" viewBox="0 0 22 22" x="0" y="160">
<path fill="#3c9" d="M1 19h10c0.552 0 1-0.447 1-1v0c0-0.552-0.447-1-1-1h-10c-0.552 0-1 0.447-1 1v0c0 0.552 0.447 1 1 1z"></path>
<path fill="#333" d="M1 12h14c0.552 0 1-0.447 1-1v0c0-0.552-0.447-1-1-1h-14c-0.552 0-1 0.447-1 1v0c0 0.552 0.447 1 1 1z"></path>
<path fill="#333" d="M0 4v0c0 0.552 0.447 1 1 1h18c0.552 0 1-0.447 1-1v0c0-0.552-0.447-1-1-1h-18c-0.552 0-1 0.447-1 1z"></path>
</svg>
<svg id="icon-b_7" width="22" height="22" viewBox="0 0 22 22" x="0" y="192">
<path fill="#333" d="M18.662 19.595h-15.214v-4.226c0-0.467-0.379-0.845-0.845-0.845v0c-0.467 0-0.845 0.379-0.845 0.845v5.916h18.595v-5.916c0-0.467-0.379-0.845-0.845-0.845v0c-0.467 0-0.845 0.379-0.845 0.845v4.226zM21.873 7.424c-0.169-0.507-2.367-4.734-3.212-6.424h-15.214c-2.141 4.283-3.268 6.649-3.381 7.1-0.169 0.845 0 1.69 0.338 2.367 0.676 1.352 2.029 2.197 3.381 2.367s3.042-0.507 3.888-1.69c0.845 1.014 2.029 1.69 3.381 1.69s2.535-0.676 3.381-1.69c1.014 1.352 2.874 2.029 4.395 1.522 1.69-0.338 2.874-1.86 3.042-3.55 0.169-0.507 0.169-1.183 0-1.69zM16.295 10.635c-0.845-0.676-1.183-1.86-1.014-2.874h-1.69c0.338 1.183-0.338 2.536-1.352 3.042-1.183 0.676-2.705 0.169-3.381-0.845-0.338-0.677-0.338-1.522-0.338-2.197h-1.69c0 0.845 0 1.522-0.507 2.197-0.507 1.014-2.029 1.522-3.042 1.014s-1.69-1.86-1.522-3.042c0.113-0.338 1.071-2.085 2.874-5.241h12.847c0.677 1.352 1.522 2.536 2.197 3.889 0.338 0.507 0.507 1.014 0.677 1.522 0 1.239-0.394 2.141-1.183 2.705-0.845 0.507-2.197 0.338-2.874-0.169z"></path>
<path fill="#eb3c3c" d="M10 16.5c0 0.829-0.672 1.5-1.5 1.5s-1.5-0.672-1.5-1.5c0-0.829 0.672-1.5 1.5-1.5s1.5 0.672 1.5 1.5z"></path>
<path fill="#ff9f00" d="M15 16.5c0 0.829-0.672 1.5-1.5 1.5s-1.5-0.672-1.5-1.5c0-0.829 0.672-1.5 1.5-1.5s1.5 0.672 1.5 1.5z"></path>
</svg>
<svg id="icon-b_8" width="22" height="22" viewBox="0 0 22 22" x="0" y="224">
<path fill="#333" d="M17.671 18.435h-13.349c-0.396 0-0.732-0.283-0.802-0.673l-1.933-10.978c-0.060-0.336 0.101-0.676 0.396-0.846 0.299-0.17 0.67-0.135 0.93 0.085l4.075 3.468 3.327-5.146c0.299-0.465 1.066-0.465 1.364 0l3.326 5.143 4.071-3.468c0.261-0.223 0.635-0.255 0.93-0.085 0.299 0.17 0.456 0.51 0.396 0.846l-1.93 10.984c-0.069 0.387-0.405 0.67-0.802 0.67zM5.004 16.81h11.984l1.424-8.082-3.059 2.603c-0.18 0.151-0.412 0.217-0.644 0.185-0.233-0.035-0.437-0.167-0.566-0.361l-3.147-4.869-3.147 4.869c-0.129 0.198-0.334 0.33-0.566 0.361-0.236 0.035-0.468-0.035-0.644-0.185l-3.059-2.603 1.425 8.082z"></path>
<path fill="#000" d="M0 3.377c0-0.466 0.248-0.896 0.652-1.128s0.9-0.233 1.304 0c0.403 0.233 0.652 0.663 0.652 1.128s-0.248 0.896-0.652 1.128c-0.403 0.233-0.9 0.233-1.304 0s-0.652-0.663-0.652-1.128zM9.731 1.303c0-0.72 0.584-1.303 1.305-1.303s1.305 0.583 1.305 1.303c0 0.72-0.584 1.303-1.305 1.303s-1.305-0.583-1.305-1.303zM19.394 3.303c0-0.72 0.583-1.303 1.303-1.303s1.303 0.583 1.303 1.303c0 0.72-0.583 1.304-1.303 1.304s-1.303-0.583-1.303-1.304z"></path>
<path fill="#333" d="M17.693 21.063h-13.369c-0.45 0-0.816-0.365-0.816-0.814s0.365-0.814 0.816-0.814h13.369c0.45 0 0.816 0.365 0.816 0.814s-0.366 0.814-0.816 0.814v0z"></path>
</svg>
<svg id="icon-b_9" width="22" height="22" viewBox="0 0 22 22" x="0" y="256">
<path fill="#333" d="M21.169 21.983h-20.34c-0.447 0-0.814-0.366-0.814-0.814v-4.068c0-0.447 0.366-0.814 0.814-0.814 0.671 0 1.22-0.549 1.22-1.22s-0.549-1.22-1.22-1.22c-0.447 0-0.814-0.366-0.814-0.814v-4.068c0-0.447 0.366-0.814 0.814-0.814 0.671 0 1.22-0.549 1.22-1.22s-0.549-1.22-1.22-1.22c-0.447 0-0.814-0.366-0.814-0.814v-4.068c0-0.447 0.366-0.814 0.814-0.814h20.34c0.447 0 0.814 0.366 0.814 0.814v4.068c0 0.447-0.366 0.814-0.814 0.814-0.671 0-1.22 0.549-1.22 1.22s0.549 1.22 1.22 1.22c0.447 0 0.814 0.366 0.814 0.814v4.068c0 0.447-0.366 0.814-0.814 0.814-0.671 0-1.22 0.549-1.22 1.22s0.549 1.22 1.22 1.22c0.447 0 0.814 0.366 0.814 0.814v4.068c0 0.447-0.366 0.814-0.814 0.814zM1.644 20.356h18.712v-2.563c-1.18-0.346-2.034-1.444-2.034-2.725s0.854-2.38 2.034-2.725v-2.685c-1.18-0.346-2.034-1.444-2.034-2.725s0.854-2.38 2.034-2.725v-2.563h-18.712v2.563c1.18 0.346 2.034 1.444 2.034 2.725s-0.854 2.38-2.034 2.725v2.685c1.18 0.346 2.034 1.444 2.034 2.725s-0.854 2.38-2.034 2.725v2.563z"></path>
<path fill="#f3e0c0" d="M8.966 0.831h-8.135v4.068c1.118 0 2.034 0.915 2.034 2.034s-0.915 2.034-2.034 2.034v4.068c1.118 0 2.034 0.915 2.034 2.034s-0.915 2.034-2.034 2.034v4.068h8.135z"></path>
<path fill="#333" d="M8.966 21.983h-8.135c-0.447 0-0.814-0.366-0.814-0.814v-4.068c0-0.447 0.366-0.814 0.814-0.814 0.671 0 1.22-0.549 1.22-1.22s-0.549-1.22-1.22-1.22c-0.447 0-0.814-0.366-0.814-0.814v-4.068c0-0.447 0.366-0.814 0.814-0.814 0.671 0 1.22-0.549 1.22-1.22s-0.549-1.22-1.22-1.22c-0.447 0-0.814-0.366-0.814-0.814v-4.068c0-0.447 0.366-0.814 0.814-0.814h8.135c0.447 0 0.814 0.366 0.814 0.814s-0.366 0.814-0.814 0.814h-7.322v2.563c1.18 0.346 2.034 1.444 2.034 2.725s-0.854 2.38-2.034 2.725v2.685c1.18 0.346 2.034 1.444 2.034 2.725s-0.854 2.38-2.034 2.725v2.563h7.322c0.447 0 0.814 0.366 0.814 0.814s-0.366 0.814-0.814 0.814z"></path>
<path fill="#bfbfbf" d="M8.966 1.847v-1.017z"></path>
<path fill="#f69900" d="M8.966 6.932v-2.034z"></path>
<path fill="#ff891e" d="M8 4.847v-2.034c0-0.447 0.366-0.814 0.814-0.814s0.814 0.366 0.814 0.814v2.034c0 0.447-0.366 0.814-0.814 0.814s-0.814-0.366-0.814-0.814z"></path>
<path fill="#ff891e" d="M8.966 12.017v-2.034z"></path>
<path fill="#ff891e" d="M8.966 10.83c-0.447 0-0.814-0.366-0.814-0.814v-2.034c0-0.447 0.366-0.814 0.814-0.814s0.814 0.366 0.814 0.814v2.034c0 0.447-0.366 0.814-0.814 0.814z"></path>
<path fill="#ff891e" d="M8.966 17.102v-2.034z"></path>
<path fill="#ff891e" d="M8.966 15.915c-0.447 0-0.814-0.366-0.814-0.814v-2.034c0-0.447 0.366-0.814 0.814-0.814s0.814 0.366 0.814 0.814v2.034c0 0.447-0.366 0.814-0.814 0.814z"></path>
<path fill="#ff891e" d="M8.966 19.915c-0.447 0-0.814-0.266-0.814-0.591v-1.478c0-0.325 0.366-0.591 0.814-0.591s0.814 0.266 0.814 0.591v1.478c0 0.325-0.366 0.591-0.814 0.591z"></path>
<path fill="#f69900" d="M8.966 21.169v-1.017z"></path>
</svg>
<svg id="icon-b_10" width="23" height="22" viewBox="0 0 23 22" x="0" y="288">
<path fill="#eb3c3c" opacity="0.0974864" d="M2.579 10.5c0 5.247 4.253 9.5 9.5 9.5s9.5-4.253 9.5-9.5c0-5.247-4.253-9.5-9.5-9.5s-9.5 4.253-9.5 9.5z"></path>
<path fill="#333" d="M3.67 18.003c-1.023-1.178-1.78-2.561-2.221-4.057-0.291-0.994-0.438-2.028-0.438-3.074 0-5.985 4.835-10.853 10.779-10.853s10.779 4.868 10.779 10.853c0 5.984-4.835 10.853-10.779 10.853-1.061 0.001-2.116-0.156-3.13-0.465-0.352-0.1-0.621-0.382-0.707-0.738s0.029-0.73 0.298-0.977c0.269-0.248 0.651-0.331 0.998-0.218 0.82 0.25 1.676 0.378 2.541 0.378 4.829 0 8.758-3.963 8.758-8.833s-3.929-8.833-8.758-8.833-8.758 3.963-8.758 8.833c-0.004 2.388 0.957 4.676 2.665 6.344 0.019 0.019 0.026 0.044 0.043 0.063 0.027 0.023 0.061 0.034 0.086 0.061 0.185 0.193 0.286 0.453 0.28 0.721s-0.118 0.523-0.313 0.708l-3.075 2.939c-0.195 0.187-0.446 0.28-0.698 0.28-0.267 0-0.533-0.104-0.731-0.313-0.185-0.193-0.286-0.453-0.28-0.72s0.118-0.523 0.313-0.708l2.348-2.243z"></path>
<path fill="#eb3c3c" d="M5.351 12.863c-0.366 0.068-0.717-0.174-0.785-0.54-0.138-0.75-0.207-1.437-0.089-2.354 0.022-0.178 0.114-0.339 0.256-0.448s0.322-0.158 0.499-0.134c0.177 0.023 0.338 0.115 0.447 0.257s0.158 0.321 0.135 0.498c-0.096 0.744-0.042 1.293 0.077 1.937 0.033 0.176-0.005 0.357-0.107 0.504s-0.257 0.248-0.433 0.281zM5.549 8.353c-0.159-0.083-0.277-0.225-0.33-0.397s-0.036-0.356 0.048-0.513c1.271-2.425 3.785-3.942 6.523-3.938 1.635 0 3.184 0.525 4.478 1.516 0.295 0.226 0.351 0.649 0.126 0.944s-0.649 0.351-0.944 0.126c-1.049-0.808-2.336-1.244-3.658-1.239-2.238-0.003-4.292 1.238-5.33 3.219-0.173 0.329-0.581 0.456-0.91 0.281z"></path>
</svg>
<svg id="icon-b_11" width="22" height="22" viewBox="0 0 22 22" x="0" y="320">
<path fill="#333" d="M8.845 22c-0.675 0.001-1.323-0.268-1.8-0.744l-6.298-6.298c-0.478-0.478-0.746-1.125-0.746-1.8s0.269-1.323 0.746-1.8l10.598-10.598c0.544-0.552 1.31-0.826 2.080-0.744l5.662 0.636c1.181 0.132 2.114 1.064 2.246 2.246l0.636 5.669c0.086 0.767-0.181 1.533-0.725 2.080l-10.598 10.611c-0.478 0.477-1.126 0.745-1.8 0.744zM12.952 2.143c-0.307 0.001-0.601 0.125-0.818 0.342l-9.658 9.664c-0.45 0.453-0.45 1.183 0 1.636l5.743 5.743c0.453 0.45 1.183 0.45 1.636 0l9.682-9.664c0.249-0.247 0.373-0.596 0.336-0.945l-0.58-5.168c-0.061-0.544-0.493-0.973-1.039-1.027l-5.168-0.58h-0.134z"></path>
<path fill="#ffc824" d="M4.182 12.419l6.495-6.489c0.257-0.223 0.611-0.295 0.935-0.191l2.793 0.636c0.588 0.16 1.045 0.621 1.203 1.209l0.681 2.793c0.097 0.328 0.016 0.683-0.216 0.935l-6.489 6.515c-0.542 0.378-1.282 0.278-1.705-0.229l-3.467-3.473c-0.507-0.423-0.607-1.163-0.229-1.705z"></path>
<path fill="#333" d="M14.635 10.543c-1.018-0.003-1.972-0.492-2.569-1.316s-0.763-1.884-0.447-2.851c0.111-0.334 0.471-0.514 0.805-0.404s0.514 0.471 0.404 0.805c-0.236 0.717-0.027 1.504 0.533 2.011s1.364 0.635 2.053 0.33c0.689-0.305 1.135-0.988 1.136-1.743 0.010-0.956-0.689-1.772-1.635-1.909-0.351-0.051-0.595-0.377-0.544-0.729s0.377-0.595 0.729-0.544c1.189 0.175 2.178 1.006 2.557 2.147s0.081 2.398-0.769 3.249c-0.593 0.606-1.404 0.949-2.252 0.954z"></path>
</svg>
<svg id="icon-b_12" width="22" height="22" viewBox="0 0 22 22" x="0" y="352">
<path fill="#333" d="M20.741 3h-12.065c-0.688 0-1.249 0.45-1.249 1s0.563 1 1.249 1h12.065c0.688 0 1.249-0.45 1.249-1s-0.562-1-1.249-1zM20.741 10h-12.065c-0.688 0-1.249 0.45-1.249 1s0.563 1 1.249 1h12.065c0.688 0 1.249-0.45 1.249-1s-0.562-1-1.249-1zM20.741 17h-12.065c-0.688 0-1.249 0.45-1.249 1s0.563 1 1.249 1h12.065c0.688 0 1.249-0.45 1.249-1s-0.562-1-1.249-1z"></path>
<path fill="#23b16c" d="M4.794 2.623l-1.068-0.155c-0.085-0.018-0.159-0.073-0.189-0.144l-0.473-1.012c-0.181-0.394-0.711-0.394-0.893 0.001l-0.47 1.007c-0.046 0.085-0.114 0.14-0.186 0.148l-1.071 0.156c-0.412 0.069-0.576 0.584-0.281 0.891l0.77 0.776c0.062 0.065 0.092 0.152 0.076 0.231l-0.186 1.101c-0.066 0.431 0.363 0.756 0.727 0.549l0.951-0.516c0.077-0.045 0.156-0.045 0.23-0.002l0.957 0.519c0.361 0.205 0.79-0.12 0.725-0.548l-0.186-1.1c-0.008-0.086 0.020-0.175 0.077-0.236l0.766-0.774c0.295-0.308 0.133-0.824-0.277-0.893z"></path>
<path fill="#f5a623" d="M4.794 9.455l-1.068-0.155c-0.085-0.018-0.159-0.073-0.189-0.144l-0.473-1.012c-0.181-0.394-0.711-0.394-0.893 0.001l-0.47 1.007c-0.046 0.085-0.114 0.14-0.186 0.148l-1.071 0.156c-0.412 0.069-0.576 0.584-0.281 0.891l0.77 0.776c0.062 0.064 0.092 0.152 0.076 0.231l-0.186 1.101c-0.066 0.431 0.363 0.756 0.727 0.549l0.951-0.516c0.077-0.045 0.156-0.045 0.23-0.002l0.957 0.519c0.361 0.205 0.79-0.12 0.725-0.548l-0.186-1.1c-0.008-0.086 0.020-0.175 0.077-0.235l0.766-0.774c0.295-0.308 0.133-0.824-0.277-0.892z"></path>
<path fill="#f58023" d="M4.794 16.56l-1.068-0.155c-0.085-0.018-0.159-0.073-0.189-0.144l-0.473-1.012c-0.181-0.394-0.711-0.394-0.893 0.001l-0.47 1.007c-0.046 0.085-0.114 0.14-0.186 0.148l-1.071 0.156c-0.412 0.069-0.576 0.584-0.281 0.891l0.77 0.776c0.062 0.065 0.092 0.152 0.076 0.231l-0.186 1.101c-0.066 0.431 0.363 0.756 0.727 0.549l0.951-0.515c0.077-0.045 0.156-0.045 0.23-0.002l0.957 0.519c0.361 0.205 0.79-0.12 0.725-0.548l-0.186-1.1c-0.008-0.086 0.020-0.175 0.077-0.236l0.766-0.774c0.295-0.309 0.133-0.824-0.277-0.893z"></path>
</svg>
<svg id="icon-b_13" width="22" height="22" viewBox="0 0 22 22" x="0" y="384">
<path fill="#3b3b3b" d="M18.027 18.025l-4.124-4.124c-0.442 0.442-0.974 0.736-1.536 0.888l1.511 5.637c-0.772 0.206-1.579 0.312-2.399 0.312s-1.624-0.107-2.397-0.312l1.511-5.637c-0.564-0.149-1.095-0.446-1.536-0.888l-4.124 4.124c-1.191-1.191-1.991-2.631-2.394-4.152l5.633-1.509c-0.156-0.581-0.156-1.193 0-1.774l-5.633-1.509c0.404-1.522 1.202-2.961 2.393-4.152l4.124 4.124c0.442-0.442 0.973-0.736 1.536-0.888l-1.509-5.637c0.772-0.204 1.576-0.312 2.397-0.312s1.624 0.107 2.399 0.312l-1.511 5.637c0.562 0.149 1.095 0.446 1.536 0.888l4.124-4.124c1.168 1.168 1.986 2.595 2.401 4.15l-5.639 1.511c0.156 0.581 0.156 1.193 0 1.774l5.638 1.511c-0.414 1.555-1.231 2.982-2.399 4.15v0zM18.919 4.037c-1.988-1.986-4.629-3.081-7.441-3.081-2.81 0-5.452 1.094-7.439 3.081-1.988 1.986-3.083 4.629-3.083 7.439 0 2.811 1.095 5.452 3.083 7.441 1.986 1.988 4.629 3.081 7.439 3.081 2.811 0 5.452-1.095 7.441-3.081s3.081-4.629 3.081-7.441c0-2.81-1.095-5.452-3.081-7.439z"></path>
<path fill="#f5a623" d="M12.036 8.631l-0.557-2.714-0.515 2.709c-0.562 0.101-1.101 0.368-1.536 0.802-1.132 1.134-1.132 2.969 0 4.101s2.969 1.132 4.101 0c1.134-1.134 1.134-2.969 0-4.101-0.423-0.423-0.945-0.69-1.492-0.796v0z"></path>
</svg>
<svg id="icon-b_14" width="22" height="22" viewBox="0 0 22 22" x="0" y="416">
<path fill="#3b3b3b" d="M18.027 18.025l-4.124-4.124c-0.442 0.442-0.974 0.736-1.536 0.888l1.511 5.637c-0.772 0.206-1.579 0.312-2.399 0.312s-1.624-0.107-2.397-0.312l1.511-5.637c-0.564-0.149-1.095-0.446-1.536-0.888l-4.124 4.124c-1.191-1.191-1.991-2.631-2.394-4.152l5.633-1.509c-0.156-0.581-0.156-1.193 0-1.774l-5.633-1.509c0.404-1.522 1.202-2.961 2.393-4.152l4.124 4.124c0.442-0.442 0.973-0.736 1.536-0.888l-1.509-5.637c0.772-0.204 1.576-0.312 2.397-0.312s1.624 0.107 2.399 0.312l-1.511 5.637c0.562 0.149 1.095 0.446 1.536 0.888l4.124-4.124c1.168 1.168 1.986 2.595 2.401 4.15l-5.639 1.511c0.156 0.581 0.156 1.193 0 1.774l5.638 1.511c-0.414 1.555-1.231 2.982-2.399 4.15v0zM18.919 4.037c-1.988-1.986-4.629-3.081-7.441-3.081-2.81 0-5.452 1.094-7.439 3.081-1.988 1.986-3.083 4.629-3.083 7.439 0 2.811 1.095 5.452 3.083 7.441 1.986 1.988 4.629 3.081 7.439 3.081 2.811 0 5.452-1.095 7.441-3.081s3.081-4.629 3.081-7.441c0-2.81-1.095-5.452-3.081-7.439z"></path>
<path fill="#3c9" d="M12.036 8.631l-0.557-2.714-0.515 2.709c-0.562 0.101-1.101 0.368-1.536 0.802-1.132 1.134-1.132 2.969 0 4.101s2.969 1.132 4.101 0c1.134-1.134 1.134-2.969 0-4.101-0.423-0.423-0.945-0.69-1.492-0.796v0z"></path>
</svg>
</svg>
