<?xml version="1.0" encoding="UTF-8"?>
<svg width="20px" height="20px" viewBox="0 0 20 20" version="1.1" xmlns="http://www.w3.org/2000/svg" xmlns:xlink="http://www.w3.org/1999/xlink">
    <!-- Generator: Sketch 50 (54983) - http://www.bohemiancoding.com/sketch -->
    <title>12</title>
    <desc>Created with Sketch.</desc>
    <defs></defs>
    <g id="开发资源" stroke="none" stroke-width="1" fill="none" fill-rule="evenodd">
        <g id="开发文档" transform="translate(-247.000000, -1919.000000)">
            <g id="12" transform="translate(247.000000, 1919.000000)">
                <rect id="Rectangle" fill="#D8D8D8" opacity="0" x="0" y="0" width="20" height="20"></rect>
                <path d="M10.6425341,3.06579536 C10.3982401,2.95090364 10.1098751,2.98883049 9.90238044,3.16117624 L5.90154706,6.49102628 L2.71002137,6.4781988 C2.52651489,6.4781988 2.34970811,6.55070265 2.21975023,6.68066053 C2.08868118,6.81061841 2.01449423,6.98742519 2.01449423,7.17261476 L2,12.7374201 C2,12.9225933 2.07250385,13.099972 2.20303366,13.2304855 C2.33299154,13.3621101 2.5103539,13.4351859 2.69554347,13.4351859 L5.92220175,13.4351859 L9.9029687,16.752764 C10.0301323,16.8587337 10.189095,16.9133935 10.3480577,16.9133935 C10.4484552,16.9133935 10.5488527,16.891644 10.6431224,16.847573 C10.8874164,16.7332369 11.0436012,16.4878153 11.0436012,16.21785 L11.0436012,3.695502 C11.0436012,3.42610861 10.8874327,3.18068708 10.6425668,3.06577902 L10.6425341,3.06579536 Z M13.3398832,6.54400295 C12.9968585,6.3816904 12.5891408,6.52950871 12.4223672,6.87085037 C12.2561492,7.21331953 12.4000621,7.62773697 12.7402926,7.79897155 C12.7843635,7.82183224 13.8262653,8.36342963 13.8262653,9.90565205 C13.8262653,11.5532886 12.8518508,12.0993306 12.8194961,12.1171911 C12.4759158,12.2889812 12.3364803,12.7073041 12.5082705,13.0508844 C12.6309731,13.2951785 12.875839,13.4357415 13.1318493,13.4357415 C13.2361522,13.4357415 13.3426775,13.4123089 13.4419638,13.362682 C13.5144677,13.3258664 15.2173195,12.4446104 15.2173195,9.90566839 C15.2173195,7.45596314 13.4162925,6.58027938 13.3398832,6.54401929 L13.3398832,6.54400295 Z M15.5056845,4.50092059 C15.1849649,4.29510901 14.7594031,4.3888068 14.5496697,4.70897086 C14.3410639,5.02913492 14.4325393,5.45971334 14.7515759,5.67055787 C14.826874,5.72020103 16.6089294,6.93444852 16.6089294,9.95697831 C16.6089294,12.9861915 14.8993778,14.2015665 14.831335,14.2478598 C14.5111709,14.4614822 14.425284,14.8926326 14.6383509,15.2127966 C14.7722142,15.4135916 14.993092,15.5223556 15.2178751,15.5223556 C15.3500717,15.5223556 15.4844906,15.4838731 15.6032878,15.4052252 C15.700891,15.3405322 18,13.7642883 18,9.95642272 C18,6.14131816 15.6077488,4.5661855 15.5056845,4.50093693 L15.5056845,4.50092059 Z" id="Shape" fill="#99A5A0" fill-rule="nonzero"></path>
            </g>
        </g>
    </g>
</svg>