<?xml version="1.0" encoding="UTF-8"?>
<svg width="14px" height="14px" viewBox="0 0 14 14" version="1.1" xmlns="http://www.w3.org/2000/svg" xmlns:xlink="http://www.w3.org/1999/xlink">
    <!-- Generator: Sketch 50 (54983) - http://www.bohemiancoding.com/sketch -->
    <title>a_10</title>
    <desc>Created with Sketch.</desc>
    <defs></defs>
    <g id="开发资源" stroke="none" stroke-width="1" fill="none" fill-rule="evenodd">
        <g id="开发文档" transform="translate(-454.000000, -1557.000000)">
            <g id="积分" transform="translate(454.000000, 1557.000000)">
                <path d="M5.71619814,6.68835455 C8.97108122,6.68835455 11.4256687,5.46650175 11.4256687,3.84613569 C11.4256687,2.22576964 8.97108122,1.00391684 5.71619814,1.00391684 C2.46115503,1.00391684 0.00663617464,2.22576964 0.00663617464,3.84613569 C0.00663617464,5.46650175 2.46117789,6.68835455 5.71619814,6.68835455 Z M5.71619814,2.00692112 C8.3874623,2.00692112 10.3835263,2.97787425 10.3835263,3.84613569 C10.3835263,4.71439714 8.3874623,5.68544171 5.71619814,5.68544171 C3.04481967,5.68544171 1.04875565,4.71442 1.04875565,3.84613569 C1.04875565,2.97785139 3.04481967,2.00692112 5.71619814,2.00692112 Z M5.71619814,8.4942149 C3.04481967,8.4942149 1.04875565,7.52326176 1.04875565,6.6549546 L0.00663617464,6.6549546 C0.00663617464,8.27529779 2.46117789,9.49717345 5.71619814,9.49717345 C8.97108122,9.49717345 11.4256687,8.27529779 11.4256687,6.6549546 L10.3835263,6.6549546 C10.3835492,7.52328463 8.3874623,8.4942149 5.71619814,8.4942149 Z M5.71619814,10.9909581 C3.04481967,10.9909581 1.04875565,10.0199363 1.04875565,9.15181206 L0.00663617464,9.15181206 C0.00663617464,10.772041 2.46117789,11.9939166 5.71619814,11.9939166 C8.97108122,11.9939166 11.4256687,10.772041 11.4256687,9.15181206 L10.3835263,9.15181206 C10.3835492,10.0199363 8.3874623,10.9909581 5.71619814,10.9909581 Z" id="Shape" fill="#8FA39B" fill-rule="nonzero"></path>
                <rect id="Rectangle" fill="#D8D8D8" opacity="0" x="0" y="0" width="14" height="14"></rect>
            </g>
        </g>
    </g>
</svg>