<?xml version="1.0" encoding="UTF-8"?>
<svg width="18px" height="18px" viewBox="0 0 18 18" version="1.1" xmlns="http://www.w3.org/2000/svg" xmlns:xlink="http://www.w3.org/1999/xlink">
    <!-- Generator: Sketch 50 (54983) - http://www.bohemiancoding.com/sketch -->
    <title>a_13</title>
    <desc>Created with Sketch.</desc>
    <defs></defs>
    <g id="开发资源" stroke="none" stroke-width="1" fill="none" fill-rule="evenodd">
        <g id="开发文档" transform="translate(-545.000000, -1556.000000)">
            <g id="Group-3" transform="translate(545.000000, 1556.000000)">
                <path d="M11.2743697,8.84161542 C10.6826854,8.72726446 10.9707926,8.4147853 10.9707926,8.4147853 C10.9707926,8.4147853 11.5496029,7.47219123 10.8550132,6.78617257 C9.99588276,5.93761667 7.90453538,6.89294543 7.90453538,6.89294543 C7.10704021,7.13678614 7.31797279,6.78113792 7.43117397,6.17644015 C7.43117397,5.46249574 7.18418008,4.25573075 5.05684107,4.96711428 C2.93206294,5.68611075 1.10821389,8.19880065 1.10821389,8.19880065 C-0.159925032,9.86803898 0.00728102021,11.1587032 0.00728102021,11.1587032 C0.323645044,14.0093765 3.39251544,14.7918722 5.77970499,14.9773876 C8.29037406,15.1704638 11.6807999,14.1236577 12.7071364,11.9691769 C13.7361557,9.81213523 11.8685627,8.95847499 11.2743697,8.84161542 L11.2743697,8.84161542 L11.2743697,8.84161542 Z M5.96490686,14.1745094 C3.47225102,14.2888081 1.45551748,13.0566086 1.45551748,11.4153308 C1.45551748,9.77150963 3.47225102,8.4554109 5.96490686,8.34105994 C8.46012357,8.22676124 10.4794528,9.2430284 10.4794528,10.8817453 C10.4794528,12.5205318 8.46012357,14.0627019 5.96490686,14.1745094 L5.96490686,14.1745094 L5.96490686,14.1745094 Z M5.46842788,9.42089606 C2.9603371,9.71050154 3.2510401,12.0276415 3.2510401,12.0276415 C3.2510401,12.0276415 3.22536165,12.7618988 3.92247744,13.1354034 C5.38867487,13.9204426 6.90126423,13.4453043 7.66268066,12.472241 C8.42667539,11.5017212 7.97911437,9.13378177 5.46842788,9.42089606 L5.46842788,9.42089606 L5.46842788,9.42089606 Z M4.83561272,12.6755258 C4.36749501,12.7288687 3.98935638,12.4620672 3.98935638,12.0758627 C3.98935638,11.692219 4.32371622,11.2882452 4.7918862,11.240024 C5.32954825,11.1891724 5.67937787,11.4941083 5.67937787,11.882804 C5.68195617,12.2664476 5.30122182,12.6221829 4.83561272,12.6755258 L4.83561272,12.6755258 L4.83561272,12.6755258 Z M6.31478874,11.4331002 C6.15526532,11.5499597 5.95980253,11.5347513 5.87743639,11.3924746 C5.78998334,11.2552325 5.82343151,11.0367393 5.98293752,10.9224406 C6.16812196,10.7851985 6.36107615,10.8259112 6.4459509,10.9630662 C6.52831704,11.1003082 6.46910331,11.3111188 6.31478874,11.4331002 L6.31478874,11.4331002 L6.31478874,11.4331002 Z M12.4962038,7.83801327 C12.6994363,7.83801327 12.8692381,7.69068449 12.9000906,7.49762579 C12.9026863,7.48236505 12.9051949,7.46963036 12.9051949,7.45436962 C13.2113677,4.73837751 10.6492372,5.20590291 10.6492372,5.20590291 C10.4228522,5.20590291 10.2402461,5.38624435 10.2402461,5.61491143 C10.2402461,5.83852644 10.4228522,6.01893755 10.6492372,6.01893755 C12.4885038,5.6174723 12.0846693,7.4340394 12.0846693,7.4340394 C12.082091,7.65765442 12.2672754,7.83801327 12.4962038,7.83801327 L12.4962038,7.83801327 L12.4962038,7.83801327 Z M12.1978008,3.09708235 C11.3129222,2.89130637 10.3996824,3.06917403 10.1450233,3.11741257 C10.1244492,3.11997345 10.1064708,3.13779506 10.0884924,3.14028625 C10.0807227,3.14284712 10.07304,3.15044265 10.07304,3.15044265 C9.82095924,3.22162455 9.6382834,3.45025679 9.6382834,3.72211035 C9.6382834,4.04479817 9.90322085,4.31152997 10.2350547,4.31152997 C10.2350547,4.31152997 10.5566101,4.2683435 10.7753124,4.184514 C10.9913493,4.09815847 12.8280028,4.12101472 13.7386469,5.63017216 C14.2351781,6.73281227 13.9573666,7.46963036 13.9213227,7.58903339 C13.9213227,7.58903339 13.8030172,7.87614767 13.8030172,8.15814021 C13.8030172,8.48333664 14.067972,8.68918231 14.3997884,8.68918231 C14.6750391,8.68918231 14.9065283,8.65103048 14.9734073,8.19117029 L14.976003,8.19117029 C15.9586652,4.9721315 13.7823908,3.46043061 12.1978008,3.09708235 L12.1978008,3.09708235 L12.1978008,3.09708235 Z" id="Shape" fill="#B4B8C3"></path>
                <rect id="Rectangle-11" fill-opacity="0" fill="#FFFFFF" x="0" y="0" width="18" height="18"></rect>
            </g>
        </g>
    </g>
</svg>