<?xml version="1.0" encoding="UTF-8"?>
<svg width="16px" height="16px" viewBox="0 0 16 16" version="1.1" xmlns="http://www.w3.org/2000/svg" xmlns:xlink="http://www.w3.org/1999/xlink">
    <!-- Generator: Sketch 50 (54983) - http://www.bohemiancoding.com/sketch -->
    <title>a_18</title>
    <desc>Created with Sketch.</desc>
    <defs></defs>
    <g id="开发资源" stroke="none" stroke-width="1" fill="none" fill-rule="evenodd">
        <g id="开发文档" transform="translate(-708.000000, -1557.000000)">
            <g id="筛选" transform="translate(708.000000, 1557.000000)">
                <rect id="Rectangle" fill="#D8D8D8" opacity="0" x="0" y="0" width="16" height="16"></rect>
                <path d="M14.144837,2.3483243 C14.0364352,2.13620918 13.8050718,2.00123349 13.5503029,2.00123349 L0.660472501,2.00123349 C0.403469262,2.00123349 0.169871588,2.13912113 0.0627701119,2.35460607 C-0.0444046174,2.56965145 -0.00605467562,2.82275377 0.161575248,3.00234287 L4.74137183,7.91166695 L4.74137183,13.4479412 C4.74137183,13.677876 4.88268424,13.8882513 5.10628236,13.9907376 L8.49091225,15.5376286 C8.58316089,15.5800626 8.68368757,15.6005379 8.78333516,15.6005379 C8.90041788,15.6005379 9.01761047,15.5717663 9.12205638,15.5146809 C9.31387936,15.4082754 9.4339656,15.2193094 9.4407968,15.01289 L9.67269126,7.91190504 L14.0588884,2.99190379 C14.2200168,2.81103268 14.2536966,2.5604211 14.144837,2.3483243 Z M8.15702599,14.0317797 L6.05618523,13.0716392 L6.05618523,8.29313353 L8.34447187,8.29313353 L8.15702599,14.0317797 Z M8.69394353,7.10042092 C8.65879857,7.09505485 8.62662051,7.08089799 8.5899738,7.08089799 L5.70057833,7.08089799 L2.09286311,3.21348734 L12.1586798,3.21348734 L8.69394353,7.10042092 Z" id="Shape" fill="#333333" fill-rule="nonzero"></path>
                <path d="M15.9972639,9.01581204 L15.9972639,9.01581204 C15.9972639,9.56809679 15.5495486,10.015812 14.9972639,10.015812 L12.104331,10.015812 C11.5520462,10.015812 11.104331,9.56809679 11.104331,9.01581204 L11.104331,9.01581204 C11.104331,8.46352729 11.5520462,8.01581204 12.104331,8.01581204 L14.9972639,8.01581204 C15.5495486,8.01581204 15.9972639,8.46352729 15.9972639,9.01581204 Z" id="Path" fill="#EB3C3C"></path>
                <path d="M15.8929329,12 L15.8929329,12 C15.8929329,12.5522847 15.4452176,13 14.8929329,13 L12,13 C11.4477153,13 11,12.5522847 11,12 L11,12 C11,11.4477153 11.4477153,11 12,11 L14.8929329,11 C15.4452176,11 15.8929329,11.4477153 15.8929329,12 Z" id="Path" fill="#43528D"></path>
            </g>
        </g>
    </g>
</svg>