<?xml version="1.0" encoding="UTF-8"?>
<svg width="10px" height="10px" viewBox="0 0 10 10" version="1.1" xmlns="http://www.w3.org/2000/svg" xmlns:xlink="http://www.w3.org/1999/xlink">
    <!-- Generator: Sketch 50 (54983) - http://www.bohemiancoding.com/sketch -->
    <title>a_19</title>
    <desc>Created with Sketch.</desc>
    <defs></defs>
    <g id="开发资源" stroke="none" stroke-width="1" fill="none" fill-rule="evenodd">
        <g id="开发文档" transform="translate(-743.000000, -1560.000000)">
            <g id="Group-6" transform="translate(743.000000, 1560.000000)">
                <path d="M4,4 L4,1 C4,0.44771525 4.44771525,1.01453063e-16 5,1.23259516e-32 C5.55228475,-1.01453063e-16 6,0.44771525 6,1 L6,4 L9,4 C9.55228475,4 10,4.44771525 10,5 C10,5.55228475 9.55228475,6 9,6 L6,6 L6,9 C6,9.55228475 5.55228475,10 5,10 C4.44771525,10 4,9.55228475 4,9 L4,6 L1,6 C0.44771525,6 6.76353751e-17,5.55228475 0,5 C-6.76353751e-17,4.44771525 0.44771525,4 1,4 L4,4 Z" id="Combined-Shape" fill="#99A5A0"></path>
                <rect id="Rectangle-10" fill="#D8D8D8" opacity="0" x="0" y="0" width="10" height="10"></rect>
            </g>
        </g>
    </g>
</svg>