<?xml version="1.0" encoding="UTF-8"?>
<svg width="889px" height="232px" viewBox="0 0 889 232" version="1.1" xmlns="http://www.w3.org/2000/svg" xmlns:xlink="http://www.w3.org/1999/xlink">
    <!-- Generator: Sketch 50 (54983) - http://www.bohemiancoding.com/sketch -->
    <title>a_2</title>
    <desc>Created with Sketch.</desc>
    <defs>
        <linearGradient x1="100%" y1="0%" x2="0%" y2="0%" id="linearGradient-1">
            <stop stop-color="#FFFFFF" offset="0%"></stop>
            <stop stop-color="#94A89F" offset="49.9661308%"></stop>
            <stop stop-color="#FFFFFF" offset="100%"></stop>
        </linearGradient>
    </defs>
    <g id="开发资源" stroke="none" stroke-width="1" fill="none" fill-rule="evenodd">
        <g id="开发文档" transform="translate(-122.000000, -2188.000000)">
            <g id="a_2" transform="translate(122.000000, 2188.000000)">
                <g>
                    <path d="M248.900433,78.1846082 C248.900433,86.0399747 255.292333,92.4080075 263.177142,92.4080075 L332.484071,92.4080075 C338.985454,92.4080075 344.255866,97.65874 344.255866,104.135847 C344.255866,110.612953 338.985454,115.863686 332.484071,115.863686 L212.170356,115.863686 C202.135146,115.863686 194,123.968455 194,133.966194 C194,143.963933 202.135146,152.068702 212.170356,152.068702 L269.744427,152.068702 C277.641932,152.068587 284.056165,158.424202 284.099009,166.292102 C284.099009,174.190316 277.672244,180.593083 269.744427,180.593083 L265.746949,180.593083 C259.1701,180.593082 252.862812,183.196854 248.213495,187.831236 C243.564178,192.465618 240.953948,198.750717 240.957392,205.303007 C240.957392,218.942779 252.056055,230 265.746949,230 L569.15296,230 C578.186751,230.000003 585.512095,222.707799 585.519259,213.707743 C585.519259,204.702636 578.191817,197.402555 569.15296,197.402555 L560.405231,197.402555 C557.080067,197.402555 553.891094,196.086571 551.539848,193.744105 C549.188602,191.401638 547.867685,188.224572 547.867685,184.911824 C547.864237,181.598024 549.184046,178.418962 551.536039,176.07575 C553.888033,173.732538 557.079011,172.417658 560.405231,172.421094 L628.72577,172.421094 C638.3309,172.421094 646.117397,164.663672 646.117397,155.094407 C646.117397,145.525143 638.3309,137.767721 628.72577,137.767721 L577.576218,137.767721 C573.473117,137.767721 569.538069,136.143857 566.636738,133.25336 C563.735408,130.362863 562.105457,126.442508 562.105457,122.354728 C562.105457,113.842367 569.031953,106.941735 577.576218,106.941735 L687.493893,106.941735 C693.213393,106.941786 698.69732,104.672031 702.733083,100.634352 C706.768846,96.596673 709.02397,91.1237032 708.999808,85.4256115 C708.999808,73.592573 699.371282,64 687.493893,64 L263.08629,64 C255.252145,64.0496399 248.921641,70.3795869 248.900433,78.1846082 Z" id="Shape" fill-opacity="0.0600000024" fill="#99A5A0" fill-rule="nonzero"></path>
                    <path d="M341,6.5 C341,7.32842712 340.328427,8 339.5,8 C338.671573,8 338,7.32842712 338,6.5 C338,5.67157288 338.671573,5 339.5,5 C340.328427,5 341,5.67157288 341,6.5 Z" id="_路径_" fill="#C1C6C3" fill-rule="nonzero"></path>
                    <path d="M587,186.5 C587,187.328427 586.328427,188 585.5,188 C584.671573,188 584,187.328427 584,186.5 C584,185.671573 584.671573,185 585.5,185 C586.328427,185 587,185.671573 587,186.5 Z" id="_路径_2" fill="#C1C6C3" fill-rule="nonzero"></path>
                    <path d="M681,129.5 C681,130.328427 680.328427,131 679.5,131 C678.671573,131 678,130.328427 678,129.5 C678,128.671573 678.671573,128 679.5,128 C680.328427,128 681,128.671573 681,129.5 Z" id="_路径_3" fill="#C1C6C3" fill-rule="nonzero"></path>
                    <path d="M291,107.5 C291,108.328427 290.328427,109 289.5,109 C288.671573,109 288,108.328427 288,107.5 C288,106.671573 288.671573,106 289.5,106 C290.328427,106 291,106.671573 291,107.5 Z" id="_路径_4" fill="#C1C6C3" fill-rule="nonzero"></path>
                    <circle id="_路径_5" fill="#C1C6C3" fill-rule="nonzero" cx="593" cy="126" r="1"></circle>
                    <path d="M447.998809,36.5641271 C447.963567,37.9376018 446.826652,39.0252494 445.453065,38.9995539 C444.079479,38.9738585 442.984032,37.8444505 443.000176,36.4706186 C443.01632,35.0967867 444.138003,33.9934358 445.511814,34.0000294 C446.184952,33.9997074 446.829471,34.2722811 447.298148,34.7554887 C447.766825,35.2386964 448.019628,35.8912627 447.998809,36.5641271 Z" id="_路径_6" fill="#C1C6C3" fill-rule="nonzero"></path>
                    <path d="M281,37 C281,38.1045695 280.104569,39 279,39 C277.895431,39 277,38.1045695 277,37 C277,35.8954305 277.895431,35 279,35 C280.104569,35 281,35.8954305 281,37 Z" id="_路径_7" fill="#C1C6C3" fill-rule="nonzero"></path>
                    <path d="M192,185 C192,186.104569 191.104569,187 190,187 C188.895431,187 188,186.104569 188,185 C188,183.895431 188.895431,183 190,183 C191.104569,183 192,183.895431 192,185 Z" id="_路径_8" fill="#C1C6C3" fill-rule="nonzero"></path>
                    <path d="M346,46 C346,47.1045695 345.104569,48 344,48 C342.895431,48 342,47.1045695 342,46 C342,44.8954305 342.895431,44 344,44 C345.104569,44 346,44.8954305 346,46 Z" id="_路径_9" fill="#C1C6C3" fill-rule="nonzero"></path>
                    <path d="M474,3.5 C471.639376,4.12645914 471.134503,4.63035019 470.506823,7 C469.879142,4.63035019 469.42885,4.08560311 467,3.5 C469.360624,2.87354086 469.879142,2.35603113 470.506823,0 C471.134503,2.35603113 471.639376,2.87354086 474,3.5 Z" id="_路径_10" fill="#C1C6C3" fill-rule="nonzero"></path>
                    <path d="M667,174 C664.975,174.5375 664.5,174.975 664,177 C663.4625,174.975 663.025,174.5 661,174 C663.025,173.4625 663.5,173.025 664,171 C664.5375,173.025 664.975,173.4625 667,174 Z" id="_路径_11" fill="#C1C6C3" fill-rule="nonzero"></path>
                    <path d="M262,170.993641 C259.295238,171.718601 258.711111,172.265501 258,175 C257.27619,172.290938 256.730159,171.718601 254,170.993641 C256.704762,170.281399 257.27619,169.721781 258,167 C258.673016,169.721781 259.257143,170.243243 262,170.993641 Z" id="_路径_12" fill="#C1C6C3" fill-rule="nonzero"></path>
                    <path d="M629,120 C625.65,120.8875 624.9375,121.6125 624,125 C623.1125,121.6625 622.3875,120.9375 619,120 C622.3375,119.1125 623.0625,118.4 624,115 C624.9375,118.4 625.65,119.1125 629,120 Z" id="_路径_13" fill="#C1C6C3" fill-rule="nonzero"></path>
                    <path d="M563,28.0063593 C560.303657,28.718601 559.718601,29.2782194 558.993641,32 C558.281399,29.3036566 557.721781,28.718601 555,28.0063593 C557.696343,27.281399 558.281399,26.7344992 558.993641,24 C559.718601,26.709062 560.303657,27.281399 563,28.0063593 Z" id="_路径_14" fill="#C1C6C3" fill-rule="nonzero"></path>
                    <path d="M234,90 C231.296636,90.7094801 230.721713,91.2966361 230,94 C229.29052,91.2966361 228.703364,90.7094801 226,90 C228.703364,89.2782875 229.29052,88.7033639 230,86 C230.770642,88.7033639 231.296636,89.2782875 234,90 Z" id="_路径_15" fill="#C1C6C3" fill-rule="nonzero"></path>
                    <path d="M530.719825,231 L530.952476,142.479905 L540,148.672936 L540,124.186444 C540,108.12611 526.118513,95 507.506463,95 C488.881487,95 475,108.12611 475,124.186444 L475,231 L530.719825,231 Z" id="_路径_16" fill="#DAE0DD" fill-rule="nonzero"></path>
                    <path d="M508.006509,120 C518.489518,119.971309 526.978543,111.461399 527,100.959779 L527,99.8382321 C515.150011,93.2594446 500.721832,93.3980899 489,100.203387 L489,100.959779 C489.028609,111.463509 497.521377,119.97134 508.006509,120 Z" id="_路径_17" fill="#FFFFFF" fill-rule="nonzero"></path>
                    <path d="M486,103 C479.300853,108.338204 475,115.832471 475,124.145003 L475,231 L486,231 L486,103 Z" id="_路径_18" fill="#FFFFFF" fill-rule="nonzero"></path>
                    <path d="M578,156.265145 L577.870773,143.92623 L555.902117,143.92623 C540.162222,146.368037 540.007149,137.587925 540.459445,125.898427 L540.459445,124.132014 L540.459445,123.547539 L540.524058,119.88483 C539.639289,113.231129 536.226095,107.180011 531,103 L531,231 L531.271378,231 L531.503987,139.198478 C531,160.707154 552.736046,156.083308 552.736046,156.083308 L578,156.265145 Z" id="Shape" fill="#FFFFFF" fill-rule="nonzero"></path>
                    <path d="M532,231 L532,143 C532,150.188442 537.744742,156.015826 544.831241,156.015826 L578,156.015826" id="Shape" stroke="#94A89F" stroke-width="1.5"></path>
                    <path d="M516.727455,93.0802984 C510.875119,95.6399005 504.228268,95.6399005 498.375933,93.0802984 L498.311315,93.0802984 C490.229674,89.5658927 484.998284,81.5582924 485,72.7048925 L485,44 L530,44 L529.999998,72.7178871 C530.003261,81.5572771 524.789612,89.5559284 516.727455,93.0802984 Z" id="_路径_19" fill="#FFFFFF" fill-rule="nonzero"></path>
                    <path d="M597.049281,147.428763 L596.304928,147.428763 C597.346841,147.428763 598.191478,146.568254 598.191478,145.506761 C598.191478,144.445269 597.346841,143.584759 596.304928,143.584759 L584.562115,143.584759 C585.322914,141.694155 585.844722,139.712688 586.11499,137.688005 C586.265447,136.531822 586.15573,135.355917 585.794148,134.249321 C585.189392,133.916893 584.461019,133.916893 583.856263,134.249321 C583.244277,136.274378 582.445005,138.235683 581.469199,140.106851 C580.930185,140.865192 578.902464,143.597834 578.902464,143.597834 L575.681211,143.597834 L574,156.018936 L578.11961,156.018936 C578.526727,156.020454 578.915789,156.190328 579.197639,156.48963 L581.084189,158.450857 C581.423805,158.799697 581.885298,158.997166 582.367556,159 L593.109343,159 C594.172519,159 595.034394,158.121929 595.034394,157.038773 C595.034394,155.955618 594.172519,155.077547 593.109343,155.077547 L595.098563,155.077547 C596.140476,155.077547 596.985113,154.217037 596.985113,153.155545 C596.985113,152.094053 596.140476,151.233543 595.098563,151.233543 L597.074949,151.233543 C598.138125,151.233543 599,150.355472 599,149.272316 C599,148.189161 598.138125,147.31109 597.074949,147.31109 L597.049281,147.428763 Z" id="_路径_20" fill="#FFFFFF" fill-rule="nonzero"></path>
                    <path d="M585,142 L585.714157,142 C586.371671,140.700972 586.79214,139.34006 586.963931,137.954918 C586.963931,137.47541 587.045086,136.72541 586.963931,136 C586.963931,136.172131 586.963931,136.331967 586.963931,136.467213 C586.622678,138.367256 585.962703,140.226538 585,142 Z" id="_路径_21" fill="#F1F2F2" fill-rule="nonzero"></path>
                    <path d="M594,151 L597.145363,151 C598.164777,151.000025 598.993112,150.109795 599,149.00678 C598.993167,147.901543 598.166807,147.007393 597.145363,147 L594,147" id="_路径_22" stroke="#94A89F" stroke-width="1.5"></path>
                    <path d="M591,155 L595.970414,155 C596.508694,155 597.024927,154.789286 597.405548,154.414214 C597.786169,154.039141 598,153.530433 598,153 C598,152.469567 597.786169,151.960859 597.405548,151.585786 C597.024927,151.210714 596.508694,151 595.970414,151 L591,151" id="_路径_23" stroke="#94A89F" stroke-width="1.5"></path>
                    <path d="M591.333333,155 L593.115385,155 C594.158299,155.007453 595.000024,155.90374 595,157.00678 C595,158.107605 594.156229,159 593.115385,159 L582.358974,159 C581.877211,158.997061 581.416191,158.792275 581.076923,158.430508 L579.192308,156.39661 C578.911613,156.084897 578.522391,155.908475 578.115385,155.908475 L574,155.908475" id="_路径_24" stroke="#94A89F" stroke-width="1.5"></path>
                    <path d="M591.145382,147 L597.072406,147 C597.583636,147 598.073927,146.803969 598.435421,146.455033 C598.796915,146.106096 599,145.632836 599,145.139365 C599,144.645894 598.796915,144.172634 598.435421,143.823698 C598.073927,143.474761 597.583636,143.27873 597.072406,143.27873 L585.074116,143.27873 C585.851467,141.448491 586.384627,139.530289 586.660775,137.570252 C586.814506,136.450984 586.702402,135.312624 586.332953,134.241361 C585.71504,133.919546 584.970821,133.919546 584.352908,134.241361 C583.727607,136.20176 582.910946,138.100443 581.913911,139.911867 C581.36317,140.645995 579.291334,143.823698 579.291334,143.823698 L575.915649,143.915558" id="_路径_25" stroke="#94A89F" stroke-width="1.5"></path>
                    <path d="M530.815109,231 L475,231 L475,124.186444 C475,108.12611 488.889117,95 507.524328,95 C526.146607,95 540.035723,108.12611 540.035723,124.186444 L540.035723,135.520859 C540.02885,137.746337 540.90462,139.883031 542.46965,141.459123 C544.034679,143.035215 546.160233,143.921061 548.376953,143.92105 L576,143.92105" id="_路径_26" stroke="#94A89F" stroke-width="1.5"></path>
                    <path d="M534.999976,68.6306557 C535.003167,69.522991 534.689772,70.3800077 534.129072,71.0122524 C533.568372,71.644497 532.806544,71.9998986 532.012,71.9998914 C531.213305,72.0071038 530.445286,71.6548835 529.879379,71.0218524 C529.313472,70.3888214 528.996791,69.5276817 529.000025,68.6306557 L529.000025,65.3692356 C529.000025,63.5084582 530.343159,62 532,62 C533.652153,62.0074221 534.987989,63.5137086 534.987976,65.3692356 L534.999976,68.6306557 Z" id="_路径_27" fill="#FFFFFF" fill-rule="nonzero"></path>
                    <path d="M534.999976,68.6306557 C535.003167,69.522991 534.689772,70.3800077 534.129072,71.0122524 C533.568372,71.644497 532.806544,71.9998986 532.012,71.9998914 C531.213305,72.0071038 530.445286,71.6548835 529.879379,71.0218524 C529.313472,70.3888214 528.996791,69.5276817 529.000025,68.6306557 L529.000025,65.3692356 C529.000025,63.5084582 530.343159,62 532,62 C533.652153,62.0074221 534.987989,63.5137086 534.987976,65.3692356 L534.999976,68.6306557 Z" id="_路径_28" stroke="#94A89F" stroke-width="1.5"></path>
                    <path d="M483.999975,68.6305658 C484.003243,69.5299398 483.685555,70.3931486 483.118172,71.0265687 C482.550788,71.6599888 481.781202,72.0105992 480.982036,71.9997558 C480.190181,72.0033562 479.429834,71.6509651 478.869903,71.0208647 C478.309973,70.3907642 477.996825,69.5351319 478.000024,68.6440426 L478.000024,65.3691899 C477.99684,64.4768667 478.309609,63.6198617 478.86919,62.9876256 C479.428771,62.3553895 480.189078,61.9999928 480.982036,62 C482.635569,62 483.976023,63.5084377 483.976023,65.3691899 L483.999975,68.6305658 Z" id="_路径_29" fill="#FFFFFF" fill-rule="nonzero"></path>
                    <path d="M483.999975,68.6305658 C484.003243,69.5299398 483.685555,70.3931486 483.118172,71.0265687 C482.550788,71.6599888 481.781202,72.0105992 480.982036,71.9997558 C480.190181,72.0033562 479.429834,71.6509651 478.869903,71.0208647 C478.309973,70.3907642 477.996825,69.5351319 478.000024,68.6440426 L478.000024,65.3691899 C477.99684,64.4768667 478.309609,63.6198617 478.86919,62.9876256 C479.428771,62.3553895 480.189078,61.9999928 480.982036,62 C482.635569,62 483.976023,63.5084377 483.976023,65.3691899 L483.999975,68.6305658 Z" id="_路径_30" stroke="#94A89F" stroke-width="1.5"></path>
                    <path d="M516.727455,93.0839668 C510.875119,95.6386777 504.228268,95.6386777 498.375933,93.0839668 L498.311315,93.0839668 C490.229674,89.576277 484.998284,81.5839788 485,72.7474973 L485,49 L530,49 L529.999998,72.760467 C530.003261,81.5829654 524.789612,89.5663317 516.727455,93.0839668 Z" id="_路径_31" stroke="#94A89F" stroke-width="1.5"></path>
                    <path d="M516.727457,25.8843757 C510.87383,23.3718748 504.229566,23.3718748 498.375938,25.8843757 L498.31132,25.8843757 C490.225369,29.3444044 484.993133,37.2302128 485.000007,45.9466315 L485,50 L530,50 L530,45.9082716 C529.994747,37.2159199 524.783045,29.3531775 516.727457,25.8843757 Z" id="_路径_32" fill="#EDF2EF" fill-rule="nonzero"></path>
                    <path d="M516.727457,25.8843757 C510.87383,23.3718748 504.229566,23.3718748 498.375938,25.8843757 L498.31132,25.8843757 C490.225369,29.3444044 484.993133,37.2302128 485.000007,45.9466315 L485,50 L530,50 L530,45.9082716 C529.994747,37.2159199 524.783045,29.3531775 516.727457,25.8843757 Z" id="_路径_33" stroke="#94A89F" stroke-width="1.5"></path>
                    <path d="M502.907285,23 L502.907285,25.5190768 C499.317881,29.1855864 497,37.507772 497,46.7136128 L497,51 L517,51 L517,46.687235 C517,37.4550165 514.682119,29.1855864 511.10596,25.5058879 L511.10596,23.0131889" id="_路径_34" stroke="#94A89F" stroke-width="1.5"></path>
                    <path d="M493,51 L463,51" id="_路径_35" stroke="#94A89F" stroke-width="1.5"></path>
                    <path d="M505.384025,89.3938227 L503,92.1567215 L503,97.8853009 L505.285714,103.208317 C505.721708,103.71201 506.345314,104 507,104 C507.654686,104 508.278292,103.71201 508.714286,103.208317 L511,97.8853009 L510.913978,92.3468293 L508.456221,89.444518 C507.51237,88.8704542 506.345201,88.8511944 505.384025,89.3938227 Z" id="_路径_36" fill="#DAE0DD" fill-rule="nonzero"></path>
                    <path d="M505.384025,89.3938227 L503,92.1567215 L503,97.8853009 L505.285714,103.208317 C505.721708,103.71201 506.345314,104 507,104 C507.654686,104 508.278292,103.71201 508.714286,103.208317 L511,97.8853009 L510.913978,92.3468293 L508.456221,89.444518 C507.51237,88.8704542 506.345201,88.8511944 505.384025,89.3938227 Z" id="_路径_37" stroke="#94A89F" stroke-width="1.5"></path>
                    <path d="M490,58 L501,58" id="_路径_38" stroke="#94A89F" stroke-width="1.5"></path>
                    <path d="M511,58 L522,58" id="_路径_39" stroke="#94A89F" stroke-width="1.5"></path>
                    <polyline id="_路径_40" stroke="#94A89F" stroke-width="1.5" points="503 64 503 74 512 74 512 71.4020888"></polyline>
                    <polyline id="_路径_41" stroke="#94A89F" stroke-width="1.5" points="501 85 513.833333 85 518 81"></polyline>
                    <path d="M323.366331,54.1879866 C322.4741,54.1950889 321.752524,54.9273956 321.745526,55.8328955 L321.745526,58.9660553 L317.770694,61.7467346 C317.770694,61.7467346 317.770694,61.7467346 317.770694,61.7467346 L317.770694,41.9556088 C317.770694,40.8524811 316.889536,39.9582194 315.802573,39.9582194 C314.71561,39.9582194 313.834452,40.8524811 313.834452,41.9556088 L313.834452,41.1723188 C313.89451,40.4177757 313.531846,39.6929579 312.896123,39.2969819 C312.2604,38.901006 311.459399,38.901006 310.823676,39.2969819 C310.187953,39.6929579 309.825289,40.4177757 309.885347,41.1723188 L309.885347,43.2741468 C309.885347,42.1710192 309.004189,41.2767575 307.917226,41.2767575 C306.830263,41.2767575 305.949105,42.1710192 305.949105,43.2741468 L305.949105,45.36292 C305.865994,44.3187526 305.006771,43.5143505 303.974553,43.5143505 C302.942334,43.5143505 302.083111,44.3187526 302,45.36292 L302,64.1357689 C302.013734,64.629178 302.216832,65.0976268 302.565996,65.4412521 L304.482662,67.4908608 C304.788481,67.7922989 304.960302,68.2070321 304.958613,68.639686 L304.958613,73 L317.822148,73 L317.719239,67.7780671 C317.719239,67.7780671 320.52349,65.5848552 321.295302,65.0104426 L324.511186,62.5039148 C324.811356,62.2633848 324.990498,61.8997726 325,61.5117476 L325,55.8328955 C324.992935,54.9223298 324.263582,54.1879584 323.366331,54.1879866 Z" id="Shape" stroke="#94A89F" stroke-width="1.5"></path>
                    <path d="M310,52 L310,41.0366226 C310,39.911827 310.898347,39 312.006515,39 C313.10959,39.0072705 314.000023,39.9169714 314,41.0366226 L314,52" id="_路径_42" stroke="#94A89F" stroke-width="1.5"></path>
                    <path d="M306,55 L306,42.979798 C305.999977,41.8913866 306.893319,41.0070676 308,41 C309.106681,41.0070676 310.000023,41.8913866 310,42.979798 L310,55" id="_路径_43" stroke="#94A89F" stroke-width="1.5"></path>
                    <path d="M306,54.0156371 L306,44.9532541 C305.992962,43.8776055 305.113205,43.0073367 304.025828,43.0003744 C303.489903,42.9900331 302.972486,43.194314 302.591036,43.5668432 C302.209586,43.9393724 301.996462,44.448548 302.000044,44.9787819 L302.000044,63.3332985 C302.013821,63.8157126 302.217543,64.2737225 302.56778,64.6096905 L304.580661,66.6136259 C304.88742,66.9083468 305.059769,67.3138382 305.058075,67.7368508 L305.058075,72" id="_路径_44" stroke="#94A89F" stroke-width="1.5"></path>
                    <path d="M317.827189,73 L317.827189,67.7949527 C317.827189,67.7949527 320.589862,65.6088328 321.35023,65.0362776 L324.518433,62.5378549 C324.814153,62.2981027 324.990638,61.9356662 325,61.5488959 L325,55.8233438 C324.99304,54.9157225 324.2745,54.1837258 323.390553,54.1837539 C322.511551,54.1908333 321.800673,54.920772 321.793779,55.8233438 L321.793779,58.9463722 L317.87788,61.7180599 C317.87788,61.7180599 317.87788,61.7180599 317.87788,61.7180599 L317.87788,41.9909306 C317.870968,40.8943235 317.006911,40.007098 315.93894,40 C314.870969,40.007098 314.006913,40.8943235 314,41.9909306 L314,55.4720032" id="_路径_45" stroke="#94A89F" stroke-width="1.5"></path>
                    <path d="M383.936652,93.3961895 C371.6467,93.3961895 360.876753,99.2088422 355.173488,107.778945 L324.591515,107.778945 C321.999229,107.778955 319.895756,105.688674 319.888595,103.10552 L319.888595,71 L304,71 L304,103.10552 C304.014315,114.431966 313.22507,123.610307 324.591515,123.624573 L350.873304,123.624573 L350.873304,230 L417,230 L417,121.669761 C417,106.121886 402.124741,93.3961895 383.936652,93.3961895 Z" id="Shape" fill="#DAE0DD" fill-rule="nonzero"></path>
                    <path d="M383.936652,93.3961895 C371.6467,93.3961895 360.876753,99.2088422 355.173488,107.778945 L324.591515,107.778945 C321.999229,107.778955 319.895756,105.688674 319.888595,103.10552 L319.888595,71 L304,71 L304,103.10552 C304.014315,114.431966 313.22507,123.610307 324.591515,123.624573 L350.873304,123.624573 L350.873304,230 L417,230 L417,121.669761 C417,106.121886 402.124741,93.3961895 383.936652,93.3961895 Z" id="Shape" stroke="#94A89F" stroke-width="1.5"></path>
                    <path d="M400.038217,55.4356617 L412,46 L411.999999,57.7878946 C412.000568,58.9675515 411.529363,60.0933419 410.701115,60.8911552 C409.872867,61.6889686 408.763567,62.0856056 407.643312,61.984492 L400,61.316244 L400.038217,55.4356617 Z" id="_路径_46" fill="#D0D6D3" fill-rule="nonzero"></path>
                    <path d="M412,46 L412,57.2326405 C412.000005,58.4992843 411.5047,59.7138599 410.62341,60.6082863 C409.742119,61.5027127 408.547301,62.0034523 407.302674,61.9999821 L402.566845,61.9999821 L400,55.2212142 L412,46 Z" id="_路径_47" stroke="#94A89F" stroke-width="1.5"></path>
                    <path d="M362.999973,69.9702791 C363.003342,70.774842 362.688355,71.5474347 362.125016,72.1163516 C361.561678,72.6852686 360.79666,73.003375 359.999987,72.999973 C358.34314,72.999973 357,71.6435328 357,69.9702791 L357,67.0296939 C357.006906,65.3593376 358.346009,64.0069744 359.999987,64 C361.656833,64 362.999973,65.3564402 362.999973,67.0296939 L362.999973,69.9702791 Z" id="_路径_48" fill="#FFFFFF" fill-rule="nonzero"></path>
                    <path d="M362.999973,69.9702791 C363.003342,70.774842 362.688355,71.5474347 362.125016,72.1163516 C361.561678,72.6852686 360.79666,73.003375 359.999987,72.999973 C358.34314,72.999973 357,71.6435328 357,69.9702791 L357,67.0296939 C357.006906,65.3593376 358.346009,64.0069744 359.999987,64 C361.656833,64 362.999973,65.3564402 362.999973,67.0296939 L362.999973,69.9702791 Z" id="_路径_49" stroke="#94A89F" stroke-width="1.5"></path>
                    <path d="M412,69.9702793 C412.000007,70.7760145 411.682873,71.5485645 411.11872,72.1171097 C410.554567,72.6856548 409.789869,73.0033587 408.993711,72.9999732 C407.34033,72.9999732 406,71.643533 406,69.9702793 L406,67.029694 C406.006892,65.3593376 407.343193,64.0069744 408.993711,64 C410.649139,63.9999853 411.993074,65.3543831 412,67.029694 L412,69.9702793 Z" id="_路径_50" fill="#FFFFFF" fill-rule="nonzero"></path>
                    <path d="M412,69.9702793 C412.000007,70.7760145 411.682873,71.5485645 411.11872,72.1171097 C410.554567,72.6856548 409.789869,73.0033587 408.993711,72.9999732 C407.34033,72.9999732 406,71.643533 406,69.9702793 L406,67.029694 C406.006892,65.3593376 407.343193,64.0069744 408.993711,64 C410.649139,63.9999853 411.993074,65.3543831 412,67.029694 L412,69.9702793 Z" id="_路径_51" stroke="#94A89F" stroke-width="1.5"></path>
                    <path d="M402.33916,115.908298 L388.292235,120.483593 C386.155089,121.172136 383.857794,121.172136 381.720649,120.483593 L367.686635,115.908298 C364.887011,114.998289 362.992464,112.371091 363.000023,109.4093 L363.000023,56.2474953 C362.999997,47.2894575 370.20186,40.0214993 379.099761,40 L390.861479,40 C395.141668,40 399.246551,41.7117848 402.273102,44.7587812 C405.299652,47.8057776 406.99995,51.9383916 406.99995,56.2474953 L406.99995,109.4093 C407.011129,112.364124 405.128571,114.98916 402.33916,115.908298 Z" id="_路径_52" fill="#FFFFFF" fill-rule="nonzero"></path>
                    <path d="M402.304594,114.926786 L388.270011,119.485468 C386.134744,120.171511 383.839467,120.171511 381.7042,119.485468 L367.682517,114.926786 C364.885353,114.020081 362.992471,111.402422 363.000023,108.451385 L363.000023,84.4794509 C364.534502,85.1913261 366.30283,85.1913261 367.83731,84.4794509 L377.550582,80.0632275 C379.258012,79.8214293 380.979034,80.4021876 382.194378,81.6302745 L384.838762,84.2851889 C384.928725,84.3723593 385.071285,84.3723593 385.161248,84.2851889 L387.921726,81.5655205 C389.145202,80.3800003 390.841765,79.8217695 392.526824,80.0502767 L401.724119,84.3499429 C403.389414,85.1340667 405.308942,85.1670501 406.999987,84.4405985 L406.999987,108.451385 C407.005742,111.405904 405.10686,114.024646 402.304594,114.926786 Z" id="_路径_53" fill="#D0D6D3" fill-rule="nonzero"></path>
                    <path d="M363,84.4675161 C364.534481,85.1774946 366.302811,85.1774946 367.837291,84.4675161 L377.550572,80.0630591 C379.258002,79.8219051 380.979026,80.401116 382.194371,81.6259309 L384.838757,84.2737717 C384.92872,84.3607098 385.07128,84.3607098 385.161243,84.2737717 L387.921724,81.5613494 C389.1452,80.3789879 390.841765,79.8222444 392.526825,80.0501428 L401.724128,84.3383532 C403.389424,85.1203879 405.308953,85.1532834 407,84.4287672" id="_路径_54" stroke="#94A89F" stroke-width="1.5"></path>
                    <path d="M402.33916,115.908298 L388.292235,120.483593 C386.155089,121.172136 383.857794,121.172136 381.720649,120.483593 L367.686635,115.908298 C364.887011,114.998289 362.992464,112.371091 363.000023,109.4093 L363.000023,56.2474953 C362.999997,47.2894575 370.20186,40.0214993 379.099761,40 L390.861479,40 C395.141668,40 399.246551,41.7117848 402.273102,44.7587812 C405.299652,47.8057776 406.99995,51.9383916 406.99995,56.2474953 L406.99995,109.4093 C407.011129,112.364124 405.128571,114.98916 402.33916,115.908298 Z" id="_路径_55" stroke="#94A89F" stroke-width="1.5"></path>
                    <path d="M379,90 L391,90 C391,93.3137085 388.313708,96 385,96 C380.395973,96 379,90 379,90 Z" id="_路径_56" fill="#FFFFFF" fill-rule="nonzero"></path>
                    <path d="M391,90 C391,93.3137085 388.313708,96 385,96 C381.686292,96 379,93.3137085 379,90 L391,90 Z" id="_路径_57" stroke="#94A89F" stroke-width="1.5"></path>
                    <path d="M362.336416,62.9999957 C362.353287,57.3504711 364.959424,52.0306954 369.387187,48.6076147 L375.896584,43.5702813 L402.591553,51.3290831 C408.31985,53.1482055 414.552069,51.0395188 418.059425,46.09549 C421.307678,41.2151644 421.617035,33.4694466 409.874342,22.0471296 C409.862048,22.0185061 409.834211,22 409.803448,22 C409.772686,22 409.744848,22.0185061 409.732554,22.0471296 C409.797003,23.8003833 411.42113,34.9348527 403.571185,33.4432786 C393.919901,31.8273995 384.184697,30.7789335 374.414246,30.3031227 C372.207485,30.2715674 370.08056,31.1402712 368.510327,32.7144703 C366.940094,34.2886694 366.057922,36.4366638 366.061595,38.6768717 L366.061595,39.1609791 L361.408344,39.1609791 C358.973683,39.1609791 357,41.1643804 357,43.6357012 L357,58.3944338 C357.130506,60.9777626 359.233801,63.00339 361.78215,62.9999957 L362.336416,62.9999957 Z" id="_路径_58" stroke="#94A89F" stroke-width="1.5"></path>
                    <path d="M362.336416,62.9999957 C362.353287,57.3504711 364.959424,52.0306954 369.387187,48.6076147 L375.896584,43.5702813 L402.591553,51.3290831 C408.31985,53.1482055 414.552069,51.0395188 418.059425,46.09549 C421.307678,41.2151644 421.617035,33.4694466 409.874342,22.0471296 C409.862048,22.0185061 409.834211,22 409.803448,22 C409.772686,22 409.744848,22.0185061 409.732554,22.0471296 C409.797003,23.8003833 411.42113,34.9348527 403.571185,33.4432786 C393.919901,31.8273995 384.184697,30.7789335 374.414246,30.3031227 C372.207485,30.2715674 370.08056,31.1402712 368.510327,32.7144703 C366.940094,34.2886694 366.057922,36.4366638 366.061595,38.6768717 L366.061595,39.1609791 L361.408344,39.1609791 C358.973683,39.1609791 357,41.1643804 357,43.6357012 L357,58.3944338 C357.130506,60.9777626 359.233801,63.00339 361.78215,62.9999957 L362.336416,62.9999957 Z" id="_路径_59" stroke="#94A89F" stroke-width="1.5" fill="#DAE0DC" fill-rule="nonzero"></path>
                    <path d="M372,41 L381,45" id="_路径_60" stroke="#94A89F" stroke-width="1.5"></path>
                    <polyline id="_路径_61" stroke="#94A89F" stroke-width="1.5" points="386 58 386 75 379 75"></polyline>
                    <path d="M370,59 L380,59" id="_路径_62" stroke="#94A89F" stroke-width="1.5"></path>
                    <path d="M373,62 L377,62" id="_路径_63" stroke="#94A89F" stroke-width="1.5"></path>
                    <path d="M392,64 L396,64" id="_路径_64" stroke="#94A89F" stroke-width="1.5"></path>
                    <path d="M390,59 L400,59" id="_路径_65" stroke="#94A89F" stroke-width="1.5"></path>
                    <path d="M404,138 L404,230" id="Shape" stroke="#94A89F" stroke-width="1.5"></path>
                    <polyline id="Shape" stroke="#94A89F" stroke-width="1.5" points="385 231 385 128.629034 375 118"></polyline>
                    <circle id="Oval" stroke="#0686D8" stroke-width="1.5" cx="380.5" cy="135.5" r="1.5"></circle>
                    <circle id="Oval" stroke="#0686D8" stroke-width="1.5" cx="380.5" cy="144.5" r="1.5"></circle>
                    <circle id="Oval" stroke="#0686D8" stroke-width="1.5" cx="380.5" cy="152.5" r="1.5"></circle>
                    <circle id="Oval" stroke="#0686D8" stroke-width="1.5" cx="380.5" cy="161.5" r="1.5"></circle>
                    <circle id="Oval" stroke="#0686D8" stroke-width="1.5" cx="380.5" cy="170.5" r="1.5"></circle>
                    <path d="M477.84507,192 L478.901408,192 L478.901408,187.283796 C478.906188,182.444926 477.629987,177.67777 475.183099,173.394318 C477.583628,171.752154 478.998918,169.162663 479,166.410709 L479,109 C475.738074,113.568011 474.00003,118.914054 474,124.379488 L474,192 L477.84507,192 Z" id="Shape" fill="#D0D6D3" fill-rule="nonzero"></path>
                    <rect id="_矩形_" fill="#DAE0DD" fill-rule="nonzero" x="417" y="85" width="58" height="89" rx="6"></rect>
                    <rect id="_矩形_2" stroke="#94A89F" stroke-width="1.5" x="417" y="85" width="58" height="89" rx="6"></rect>
                    <path d="M475,192 L475,187.238169 C474.950136,171.111244 461.995558,158.050274 446,158 C430.004442,158.050274 417.049864,171.111244 417,187.238169 L417,192 L475,192 Z" id="_路径_66" fill="#5FB0E5" fill-rule="nonzero"></path>
                    <path d="M439.063384,186 L454.18108,186 C461.210743,186 465.261292,180.783419 464.9869,172.671635 L464.9869,164.142524 C460.774503,160.770749 455.7007,158.642989 450.339591,158 C446.733296,158 443.714983,158.09129 443.061669,158.156497 C442.917939,158.156497 442.578216,158.156497 442.094763,158.156497 C436.927767,159.035433 432.093594,161.287994 428.100768,164.677224 L428.100768,173.467163 C427.670841,176.626368 428.629491,179.816908 430.730282,182.218605 C432.831074,184.620302 435.869099,185.998897 439.063384,186 Z" id="_路径_67" fill="#FFFFFF" fill-rule="nonzero"></path>
                    <path d="M439.063384,186 L454.18108,186 C461.210743,186 465.261292,180.783419 464.9869,172.671635 L464.9869,164.142524 C460.774503,160.770749 455.7007,158.642989 450.339591,158 C446.733296,158 443.714983,158.09129 443.061669,158.156497 C442.917939,158.156497 442.578216,158.156497 442.094763,158.156497 C436.927767,159.035433 432.093594,161.287994 428.100768,164.677224 L428.100768,173.467163 C427.670841,176.626368 428.629491,179.816908 430.730282,182.218605 C432.831074,184.620302 435.869099,185.998897 439.063384,186 Z" id="_路径_68" stroke="#94A89F" stroke-width="1.5"></path>
                    <path d="M427,165.103501 C432.257159,160.522406 438.979369,158.000517 445.934706,158 C461.966278,158.050274 474.950024,171.111244 475,187.238169 L475,192" id="_路径_69" stroke="#94A89F" stroke-width="1.5"></path>
                    <path d="M421,174 C421.855922,172.232562 422.860368,170.558485 424,169" id="_路径_70" stroke="#0686D8" stroke-width="1.5"></path>
                    <path d="M417,191 L417,186.424 C416.999999,184.260576 417.201368,182.104582 417.6,180" id="_路径_71" stroke="#0686D8" stroke-width="1.5"></path>
                    <path d="M446.499973,170 C442.907979,169.992845 439.999992,167.160303 440,163.668663 L440,150.318363 C440,146.828828 442.910137,144 446.499973,144 C450.089808,144 452.999945,146.828828 452.999945,150.318363 L452.999945,163.642715 C453.007038,165.324135 452.32578,166.93924 451.106413,168.131839 C449.887047,169.324438 448.229733,169.996569 446.499973,170 Z" id="_路径_72" fill="#FFFFFF" fill-rule="nonzero"></path>
                    <path d="M440,166 L440,150.298648 C440,146.820001 442.910149,144 446.5,144 C450.089851,144 453,146.820001 453,150.298648 L453,166" id="_路径_73" stroke="#94A89F" stroke-width="1.5"></path>
                    <path d="M456.472286,155.198825 L452.30939,157 L439.638577,157 L435.475681,155.198825 C427.896549,151.896196 422.995116,144.394146 423.000004,136.103763 L423.000004,110.795954 L423.962673,110.795954 C431.926904,110.798133 439.40424,106.949948 444.048645,100.458777 L446.520364,97 L448.705884,100.14553 C453.324206,106.815603 460.905155,110.794113 469,110.795954 L469,136.103763 C468.995909,144.406601 464.07179,151.912069 456.472286,155.198825 Z" id="_路径_74" fill="#FFFFFF" fill-rule="nonzero"></path>
                    <path d="M469,111 L469,136.196045 C469.000394,144.456011 464.084842,151.92663 456.491229,155.20678 L452.325978,157 L439.647993,157 L435.482742,155.20678 C427.89932,151.918735 422.995114,144.449816 423.000004,136.196045 L423,111" id="_路径_75" stroke="#94A89F" stroke-width="1.5"></path>
                    <path d="M419,111 L423.43703,110.999999 C431.310598,111.00221 438.702813,107.09711 443.294346,100.509934 L445.737928,97 L447.898568,100.192053 C452.464316,106.960778 459.958965,110.998131 467.96166,110.999999 L472,111" id="_路径_76" stroke="#94A89F" stroke-width="1.5"></path>
                    <polyline id="_路径_77" stroke="#94A89F" stroke-width="1.5" points="444 116 444 136 448.623853 136 450 134.122977"></polyline>
                    <path d="M438,120 C437.206596,120.626563 436.126623,120.978992 435,120.978992 C433.873377,120.978992 432.793404,120.626563 432,120" id="_路径_78" stroke="#94A89F" stroke-width="1.5"></path>
                    <path d="M460,120 C459.206596,120.626563 458.126623,120.978992 457,120.978992 C455.873377,120.978992 454.793404,120.626563 454,120" id="_路径_79" stroke="#94A89F" stroke-width="1.5"></path>
                    <path d="M439,146 L448.053097,145.999974 C450.35521,146.00621 452.53828,144.904939 454,143" id="_路径_80" stroke="#94A89F" stroke-width="1.5"></path>
                    <path d="M446,175 L446,186" id="_路径_81" stroke="#0686D8" stroke-width="1.5"></path>
                    <path d="M491.518229,230.999994 L401.973958,230.999994 C399.82436,231.003485 397.988843,229.36255 397.638021,227.123708 L397,223 L438.510417,223 L440.098958,225.405497 L451.557292,225.405497 L453.276042,223 L497,223 L496.440104,226.573881 C496.050359,229.124225 493.96532,230.999245 491.518229,230.999994 Z" id="_路径_82" fill="#F4F9F6" fill-rule="nonzero"></path>
                    <path d="M491.518229,230.999994 L401.973958,230.999994 C399.82436,231.003485 397.988843,229.36255 397.638021,227.123708 L397,223 L438.510417,223 L440.098958,225.405497 L451.557292,225.405497 L453.276042,223 L497,223 L496.440104,226.573881 C496.050359,229.124225 493.96532,230.999245 491.518229,230.999994 Z" id="_路径_83" stroke="#94A89F" stroke-width="1.5"></path>
                    <rect id="_矩形_3" fill="#F4F9F6" fill-rule="nonzero" x="401" y="161" width="91" height="66" rx="1"></rect>
                    <path d="M457,161 L463,161" id="_路径_84" stroke="#94A89F" stroke-width="1.5"></path>
                    <path d="M469.566241,161 L489.741135,161 C490.985739,161.00712 491.992948,162.024113 492,163.280806 L492,224.719194 C491.992948,225.975887 490.985739,226.99288 489.741135,227 L403.258865,227 C402.011328,227 401,225.978849 401,224.719194 L401,163.280806 C401,162.021151 402.011328,161 403.258865,161 L449.817305,161" id="_路径_85" stroke="#94A89F" stroke-width="1.5"></path>
                    <path d="M453.554706,198.586144 C454.186431,198.586144 454.698545,199.098258 454.698545,199.729983 C454.698545,200.361708 454.186431,200.873822 453.554706,200.873822 C452.922982,200.873822 452.410867,200.361708 452.410867,199.729983 C452.410867,199.098258 452.922982,198.586144 453.554706,198.586144 Z M446.803196,180.625011 C443.40956,180.62041 440.169321,182.038274 437.869813,184.534081 L439.222403,184.534081 C441.072563,184.534081 441.169789,184.33105 441.16121,185.778006 C441.141193,188.906406 441.16121,192.046244 441.16121,195.180363 C441.161185,195.531891 441.4129,195.832984 441.758866,195.895263 L441.956178,195.895263 L441.956178,195.91242 L451.898999,195.91242 C452.30061,195.912423 452.626622,195.58769 452.628197,195.186082 L452.628197,188.568973 L444.381117,188.568973 L444.381117,191.339924 L451.218415,191.339924 L451.218415,193.224398 L443.36596,193.224398 C442.964815,193.224398 442.639622,192.899206 442.639622,192.498061 L442.639622,186.630166 L444.189524,186.630166 L453.220134,186.630166 C453.921163,186.631731 454.489513,187.198803 454.492654,187.899828 L454.492654,196.595864 C454.489513,197.296889 453.921163,197.863961 453.220134,197.865525 L440.434872,197.865525 C439.733843,197.863961 439.165493,197.296889 439.162351,196.595864 L439.162351,186.630166 L436.302754,186.630166 C433.508282,191.386338 434.262231,197.427275 438.139974,201.350711 C442.017717,205.274146 448.049408,206.098806 452.837988,203.360239 C457.626567,200.621673 459.974382,195.004812 458.559139,189.673083 C457.143897,184.341355 452.319556,180.628256 446.803196,180.625011 Z M440.160351,198.586144 C440.792076,198.586144 441.30419,199.098258 441.30419,199.729983 C441.30419,200.361708 440.792076,200.873822 440.160351,200.873822 C439.528626,200.873822 439.016512,200.361708 439.016512,199.729983 C439.016512,199.098258 439.528626,198.586144 440.160351,198.586144 Z" id="Shape" fill="#DAE0DD"></path>
                    <path d="M390.809702,152.83045 C392.230028,151.478363 393.023742,149.592581 392.999459,147.627818 C392.999459,145.73401 392.250006,143.917767 390.915971,142.578642 C389.581937,141.239518 387.772598,140.487205 385.885988,140.487205 L385.419531,140.487205 C385.470675,140.155828 385.496665,139.821029 385.497274,139.485698 C385.491781,137.538877 384.697508,135.678074 383.29711,134.331212 C381.896712,132.984351 380.010715,132.267346 378.072832,132.345086 C377.581957,128.806783 374.570056,126.171716 371.01119,126.16696 C370.123947,126.164977 369.244453,126.332718 368.419762,126.66121 C367.19607,124.319156 364.783065,122.847812 362.148505,122.837275 C361.212007,122.838719 360.285815,123.033519 359.427506,123.409565 C358.123064,121.272858 355.798251,119.978955 353.301856,120.000259 C350.80546,120.021563 348.502899,121.354957 347.234836,123.513617 C346.294893,123.068027 345.268268,122.837043 344.228779,122.837275 C341.853884,122.846891 339.639222,124.041326 338.320323,126.023887 C337.253128,125.390788 336.035605,125.058286 334.79598,125.061401 C331.199782,125.059958 328.166002,127.748348 327.721381,131.330572 C325.660505,130.986782 323.553263,131.569767 321.95882,132.924829 C320.364378,134.279891 319.443947,136.270022 319.441768,138.367133 L319.441768,138.471185 C315.818886,138.850818 313.067073,141.916312 313.066855,145.572778 C313.062675,146.847108 313.407837,148.09803 314.064554,149.188608 C311.494518,150.327801 309.826901,152.871843 309.801655,155.691898 C309.787434,157.662572 310.595622,159.549252 312.030283,160.89453 C311.781425,161.075324 311.54346,161.270765 311.317641,161.479826 C309.892339,162.781652 309.056543,164.609927 309.002764,166.543538 C308.948985,168.47715 309.68186,170.349387 311.032583,171.729012 C309.137463,173.674678 308.508703,176.532435 309.411196,179.098334 C310.313689,181.664233 312.590538,183.492199 315.282526,183.812125 C315.18892,184.287655 315.14119,184.771133 315.139997,185.255856 C315.140904,188.91681 317.899852,191.984018 321.527868,192.357449 C321.515363,192.569704 321.515363,192.782516 321.527868,192.994771 C321.532606,196.567216 324.157657,199.590609 327.68251,200.083358 C327.67614,200.135188 327.67614,200.187607 327.68251,200.239437 C327.688447,202.518685 328.776028,204.658671 330.610824,206.001352 C329.925581,206.699868 329.276854,207.433555 328.667253,208.199464 L327.928696,207.679201 C326.762136,209.126781 325.733983,210.681428 324.857853,212.32255 L325.725982,212.790787 C324.558603,214.975526 323.687091,217.306966 323.134553,219.723295 L322.175725,219.502183 C321.652729,221.736049 321.387523,224.022904 321.385339,226.317631 L321.385339,231 L380.742003,231 L380.742003,226.317631 C380.743621,217.83651 377.137116,209.758349 370.82979,204.115398 C373.023145,203.080503 374.534578,200.988829 374.833547,198.574594 C377.785042,198.166134 380.175139,195.963829 380.832703,193.046798 L380.910446,193.046798 C384.841209,193.046804 388.029727,189.851939 388.036874,185.906185 C388.035082,184.788589 387.768612,183.687436 387.259445,182.693559 C390.453841,180.575462 391.379978,176.285121 389.345545,173.02967 C391.596115,171.781764 392.995063,169.406431 392.999459,166.825531 C392.993019,165.217097 392.434775,163.659993 391.418687,162.4163 C392.426423,161.160401 392.971099,159.593652 392.960587,157.981056 C392.97598,156.041068 392.198602,154.179524 390.809702,152.83045 Z" id="Shape" fill="#D0D6D3" fill-rule="nonzero"></path>
                    <path d="M389.950245,157.673543 C389.966371,155.593659 388.921823,153.647876 387.176729,152.50704 C389.4432,151.02117 390.463356,148.229613 389.686553,145.639154 C388.909749,143.048694 386.51993,141.272743 383.807036,141.269896 C383.195265,141.281373 382.58842,141.381444 382.005547,141.56697 C382.765749,139.681838 382.533707,137.543172 381.386735,135.86356 C380.239763,134.183947 378.328599,133.184128 376.29003,133.197236 C375.880678,133.200487 375.472633,133.243748 375.071756,133.326398 C375.071756,133.326398 375.071756,133.248901 375.071756,133.197236 C375.086449,131.007188 373.918815,128.978301 372.014594,127.885095 C370.110374,126.791889 367.763507,126.803115 365.869904,127.914486 C365.276668,126.170655 363.918235,124.791382 362.179806,124.167778 C360.441377,123.544173 358.512532,123.744243 356.940218,124.711255 C355.964297,122.432371 353.703912,120.966601 351.217933,121.000578 C348.731954,121.034556 346.512753,122.561552 345.599907,124.86625 C344.094478,123.840134 342.208763,123.535345 340.455087,124.034691 C338.701411,124.534036 337.261902,125.785656 336.527658,127.449501 C335.433074,126.550909 334.057675,126.062019 332.639551,126.067462 C329.244648,126.067454 326.490529,128.806423 326.483382,132.189767 C326.483382,132.331846 326.483382,132.448093 326.483382,132.590171 C325.866328,132.324864 325.209399,132.163373 324.539329,132.11227 C321.146528,132.11227 318.39612,134.85332 318.39612,138.234576 C318.403717,138.589727 318.438378,138.943791 318.499803,139.293709 L318.162833,139.293709 C315.734929,139.289357 313.533222,140.713429 312.548456,142.925106 C311.563691,145.136783 311.981451,147.719268 313.613749,149.510468 C311.127811,150.036788 309.225514,152.037191 308.831511,154.539337 C308.437509,157.041482 309.633513,159.526448 311.83818,160.786361 C309.768776,161.61877 308.316739,163.506154 308.047241,165.713893 C307.777743,167.921631 308.733361,170.10092 310.542144,171.403524 C308.384117,172.959884 307.478454,175.724974 308.29953,178.250467 C309.120607,180.775959 311.481309,182.486317 314.145123,182.485672 C314.313608,182.485672 314.469132,182.485672 314.637617,182.485672 C314.314268,183.245715 314.146815,184.062563 314.145123,184.888096 C314.145123,186.511833 314.792352,188.069065 315.944427,189.21722 C317.096502,190.365375 318.659052,191.010402 320.288332,191.010402 C320.443856,191.010402 320.58642,191.010402 320.741944,191.010402 C320.587648,191.530738 320.504812,192.069512 320.495698,192.612018 C320.49569,195.99537 323.24401,198.740117 326.638906,198.74724 L326.755549,198.74724 C326.684,199.100305 326.644957,199.459146 326.638906,199.819289 C326.606696,203.200545 329.330993,205.967618 332.723793,205.999718 C336.116594,206.031819 338.893113,203.316792 338.925324,199.935536 C345.878356,201.950192 353.270542,201.89632 360.193268,199.780541 C361.438654,202.326343 364.273611,203.688525 367.047843,203.074126 C369.822074,202.459728 371.811318,200.02915 371.857588,197.197289 C375.056602,197.192557 377.711743,194.732241 377.948955,191.552885 C378.244782,191.602159 378.543491,191.63236 378.84322,191.643299 C381.144774,191.653777 383.25829,190.37859 384.315911,188.341358 C385.373531,186.304127 385.197028,183.848162 383.858878,181.981938 C385.623204,181.160778 386.888564,179.550013 387.265031,177.646007 C387.641498,175.742001 387.083895,173.773242 385.76405,172.346411 C387.829252,171.681135 389.386113,169.975101 389.855248,167.86321 C390.324382,165.751318 389.635539,163.549814 388.045072,162.077986 C389.256018,160.930039 389.944178,159.339128 389.950245,157.673543 Z" id="_路径_86" fill="#BBC4C0" fill-rule="nonzero"></path>
                    <path d="M389.950245,157.673543 C389.966371,155.593659 388.921823,153.647876 387.176729,152.50704 C389.4432,151.02117 390.463356,148.229613 389.686553,145.639154 C388.909749,143.048694 386.51993,141.272743 383.807036,141.269896 C383.195265,141.281373 382.58842,141.381444 382.005547,141.56697 C382.765749,139.681838 382.533707,137.543172 381.386735,135.86356 C380.239763,134.183947 378.328599,133.184128 376.29003,133.197236 C375.880678,133.200487 375.472633,133.243748 375.071756,133.326398 C375.071756,133.326398 375.071756,133.248901 375.071756,133.197236 C375.086449,131.007188 373.918815,128.978301 372.014594,127.885095 C370.110374,126.791889 367.763507,126.803115 365.869904,127.914486 C365.276668,126.170655 363.918235,124.791382 362.179806,124.167778 C360.441377,123.544173 358.512532,123.744243 356.940218,124.711255 C355.964297,122.432371 353.703912,120.966601 351.217933,121.000578 C348.731954,121.034556 346.512753,122.561552 345.599907,124.86625 C344.094478,123.840134 342.208763,123.535345 340.455087,124.034691 C338.701411,124.534036 337.261902,125.785656 336.527658,127.449501 C335.433074,126.550909 334.057675,126.062019 332.639551,126.067462 C329.244648,126.067454 326.490529,128.806423 326.483382,132.189767 C326.483382,132.331846 326.483382,132.448093 326.483382,132.590171 C325.866328,132.324864 325.209399,132.163373 324.539329,132.11227 C321.146528,132.11227 318.39612,134.85332 318.39612,138.234576 C318.403717,138.589727 318.438378,138.943791 318.499803,139.293709 L318.162833,139.293709 C315.734929,139.289357 313.533222,140.713429 312.548456,142.925106 C311.563691,145.136783 311.981451,147.719268 313.613749,149.510468 C311.127811,150.036788 309.225514,152.037191 308.831511,154.539337 C308.437509,157.041482 309.633513,159.526448 311.83818,160.786361 C309.768776,161.61877 308.316739,163.506154 308.047241,165.713893 C307.777743,167.921631 308.733361,170.10092 310.542144,171.403524 C308.384117,172.959884 307.478454,175.724974 308.29953,178.250467 C309.120607,180.775959 311.481309,182.486317 314.145123,182.485672 C314.313608,182.485672 314.469132,182.485672 314.637617,182.485672 C314.314268,183.245715 314.146815,184.062563 314.145123,184.888096 C314.145123,186.511833 314.792352,188.069065 315.944427,189.21722 C317.096502,190.365375 318.659052,191.010402 320.288332,191.010402 C320.443856,191.010402 320.58642,191.010402 320.741944,191.010402 C320.587648,191.530738 320.504812,192.069512 320.495698,192.612018 C320.49569,195.99537 323.24401,198.740117 326.638906,198.74724 L326.755549,198.74724 C326.684,199.100305 326.644957,199.459146 326.638906,199.819289 C326.606696,203.200545 329.330993,205.967618 332.723793,205.999718 C336.116594,206.031819 338.893113,203.316792 338.925324,199.935536 C345.878356,201.950192 353.270542,201.89632 360.193268,199.780541 C361.438654,202.326343 364.273611,203.688525 367.047843,203.074126 C369.822074,202.459728 371.811318,200.02915 371.857588,197.197289 C375.056602,197.192557 377.711743,194.732241 377.948955,191.552885 C378.244782,191.602159 378.543491,191.63236 378.84322,191.643299 C381.144774,191.653777 383.25829,190.37859 384.315911,188.341358 C385.373531,186.304127 385.197028,183.848162 383.858878,181.981938 C385.623204,181.160778 386.888564,179.550013 387.265031,177.646007 C387.641498,175.742001 387.083895,173.773242 385.76405,172.346411 C387.829252,171.681135 389.386113,169.975101 389.855248,167.86321 C390.324382,165.751318 389.635539,163.549814 388.045072,162.077986 C389.256018,160.930039 389.944178,159.339128 389.950245,157.673543 Z" id="_路径_87" stroke="#94A89F" stroke-width="1.5"></path>
                    <path d="M377,230 L377,225.388199 C376.957627,209.732338 364.227476,197.049264 348.506432,197 C332.780364,197.042232 320.042408,209.727356 320,225.388199 L320,230 L377,230 Z" id="_路径_88" fill="#D2E9F7" fill-rule="nonzero"></path>
                    <path d="M377,230 L377,225.388199 C376.957627,209.732338 364.227476,197.049264 348.506432,197 C332.780364,197.042232 320.042408,209.727356 320,225.388199 L320,230 L377,230 Z" id="_路径_89" fill="#DAE0DD" fill-rule="nonzero"></path>
                    <path d="M366,202.383205 C355.481273,194.886184 341.102717,195.252963 331,203.276011 C331,208.094137 335.003849,212 339.942846,212 L357.057154,212 C361.996151,212 366,208.094137 366,203.276011 L366,202.383205 Z" id="_路径_90" fill="#FFFFFF" fill-rule="nonzero"></path>
                    <path d="M366,202.383205 C355.481273,194.886184 341.102717,195.252963 331,203.276011 C331,208.094137 335.003849,212 339.942846,212 L357.057154,212 C361.996151,212 366,208.094137 366,203.276011 L366,202.383205 Z" id="_路径_91" stroke="#94A89F" stroke-width="1.5"></path>
                    <path d="M330,203.892081 C335.150209,199.446762 341.732797,197.000162 348.543169,197 C364.241874,197.042232 376.957666,209.727356 377,225.388199 L377,230" id="_路径_92" stroke="#94A89F" stroke-width="1.5"></path>
                    <path d="M323,212 C323.858512,210.588107 324.862766,209.249102 326,208" id="_路径_93" stroke="#94A89F" stroke-width="1.5"></path>
                    <path d="M320,230 L320,225.432526 C320.002234,223.266787 320.200194,221.108516 320.59,219" id="_路径_94" stroke="#94A89F" stroke-width="1.5"></path>
                    <path d="M348.5,183 C346.776093,183 345.122792,183.643287 343.903806,184.788344 C342.684819,185.933401 342,187.486433 342,189.105788 L342,202 L355,202 L355,189.105788 C355,185.733655 352.089851,183 348.5,183 Z" id="_路径_95" fill="#FFFFFF" fill-rule="nonzero"></path>
                    <path d="M355,202 L355,189.105788 C355,187.486433 354.315181,185.933401 353.096194,184.788344 C351.877208,183.643287 350.223907,183 348.5,183 C346.776093,183 345.122792,183.643287 343.903806,184.788344 C342.684819,185.933401 342,187.486433 342,189.105788 L342,202" id="_路径_96" stroke="#94A89F" stroke-width="1.5"></path>
                    <path d="M371.004992,182.549309 L372.997818,160.630413 C373.152101,143.799602 365.103654,142 355.383803,142 L338.824058,142 C330.634184,142 324,149.017154 324,157.665601 L326.031397,182.614042 C326.208936,185.0045 327.592488,187.135881 329.695627,188.258838 L345.561097,196.480042 C346.941419,197.173319 348.564993,197.173319 349.945315,196.480042 L367.199336,188.142317 C369.349228,187.073329 370.791187,184.954143 371.004992,182.549309 Z" id="_路径_97" fill="#FFFFFF" fill-rule="nonzero"></path>
                    <path d="M371.003422,183.186747 L372.997816,159.799951 C373.152221,143.741017 365.097441,142 355.369944,142 L338.79717,142 C334.862488,142.010324 331.093024,143.598537 328.318022,146.415246 C325.543021,149.231955 323.989799,153.046429 324.00005,157.01952 L326.033046,183.25171 C326.237944,185.572746 327.628398,187.617207 329.700158,188.643666 L345.578111,196.504228 C346.967413,197.165257 348.576476,197.165257 349.965778,196.504228 L367.233373,188.526732 C369.338859,187.547664 370.773339,185.515832 371.003422,183.186747 Z" id="_路径_98" stroke="#94A89F" stroke-width="1.5"></path>
                    <path d="M358,183 L356.344504,184.452488 C355.213904,185.453589 353.790155,186.001102 352.320375,185.999998 L344.679625,185.999998 C343.206587,185.997448 341.779946,185.450553 340.642761,184.452488 L339,183" id="_路径_99" stroke="#94A89F" stroke-width="1.5"></path>
                    <path d="M369.825048,143.225193 C368.288753,143.231986 366.811044,143.827156 365.684866,144.892713 C363.31491,142.63936 359.629176,142.674267 357.300674,144.972119 C355.933136,143.623075 354.02658,143.002006 352.145317,143.29274 C350.264054,143.583473 348.623586,144.752705 347.709469,146.454359 C345.527658,144.994027 342.671688,145.132959 340.636118,146.79845 C340.091883,144.452801 338.270165,142.637341 335.957947,142.136352 C333.64573,141.635362 331.25748,142.538645 329.824923,144.455982 C328.780277,143.657064 327.509694,143.225193 326.203886,143.225193 C323.308217,143.206794 320.790275,145.245917 320.152168,148.126099 C319.514061,151.006281 320.927799,153.951128 323.550001,155.203856 C326.172203,156.456583 329.296016,155.679502 331.057892,153.336187 C332.10274,154.123471 333.366799,154.550033 334.66595,154.553742 C336.033681,154.550131 337.361737,154.084765 338.44273,153.230313 C339.038823,155.727903 341.074491,157.598154 343.572505,157.943242 C346.070518,158.288331 348.520813,157.037794 349.747114,154.791959 C350.73002,155.450211 351.880731,155.799923 353.056663,155.797765 C354.639276,155.795058 356.159721,155.169211 357.300674,154.050839 C359.629176,156.34869 363.31491,156.383598 365.684866,154.130245 C367.713388,156.031202 370.734011,156.325132 373.07851,154.849705 C375.42301,153.374277 376.519644,150.489297 375.762766,147.788076 C375.005888,145.086855 372.580074,143.228127 369.825048,143.238427 L369.825048,143.225193 Z" id="_路径_100" fill="#BBC4C0" fill-rule="nonzero"></path>
                    <path d="M320.000007,150 C319.995988,152.528108 321.670797,154.777669 324.164175,155.593195 C326.657554,156.408721 329.415203,155.608913 331.020656,153.604594 C332.066906,154.346568 333.33266,154.748581 334.633554,154.752077 C336.00312,154.748674 337.332958,154.31009 338.415402,153.504812 C339.012294,155.858664 341.050694,157.62128 343.552059,157.946509 C346.053424,158.271737 348.507006,157.09317 349.734952,154.976584 C350.719177,155.596953 351.871432,155.92654 353.048942,155.924505 C354.633678,155.921954 356.156162,155.332125 357.298646,154.278116 C359.630272,156.443725 363.320951,156.476623 365.694088,154.352952 C367.485731,155.948057 370.093017,156.370324 372.33086,155.427821 C374.568702,154.485317 376.010119,152.357873 375.999947,150.012473" id="_路径_101" stroke="#94A89F" stroke-width="1.5"></path>
                    <path d="M378,142 C378,145.315126 366.585403,148 352.49347,148 C338.401536,148 327,145.315126 327,142 C327,138.684874 338.414597,136 352.49347,136 C366.572343,136 378,138.684874 378,142 Z" id="_路径_102" fill="#BBC4C0" fill-rule="nonzero"></path>
                    <path d="M329.752932,152 C328.039982,150.323249 327.529079,147.808565 328.457322,145.622956 C329.385565,143.437348 331.57123,142.008694 334,142" id="_路径_103" stroke="#94A89F" stroke-width="1.5"></path>
                    <path d="M348.749212,142 C347.038265,140.321654 346.529257,137.803996 347.458783,135.617279 C348.38831,133.430563 350.574038,132.003731 353,132" id="_路径_104" stroke="#94A89F" stroke-width="1.5"></path>
                    <path d="M335,164 C336.192139,162.719644 337.811338,162 339.5,162 C341.188662,162 342.807861,162.719644 344,164" id="_路径_105" stroke="#94A89F" stroke-width="1.5"></path>
                    <path d="M356,164 C357.192139,162.719644 358.811338,162 360.5,162 C362.188662,162 363.807861,162.719644 365,164" id="_路径_106" stroke="#94A89F" stroke-width="1.5"></path>
                    <path d="M310,161.715839 C311.627805,160.236017 314.000383,159.65808 316.224006,160.199733 C318.447629,160.741385 320.184476,162.320337 320.780294,164.341813 C321.376112,166.363289 320.740382,168.520177 319.112577,170" id="_路径_107" stroke="#94A89F" stroke-width="1.5"></path>
                    <path d="M374,134 C371.444618,134.128289 369.219071,135.784371 368.3637,138.194106 C367.508328,140.60384 368.1921,143.291212 370.095383,145" id="_路径_108" stroke="#94A89F" stroke-width="1.5"></path>
                    <path d="M378.553195,183 C376.318947,185.616693 376.518809,189.642505 379,192" id="_路径_109" stroke="#94A89F" stroke-width="1.5"></path>
                    <path d="M326,132 C327.280442,133.192655 328,134.81166 328,136.5 C328,138.18834 327.280442,139.807345 326,141" id="_路径_110" stroke="#94A89F" stroke-width="1.5"></path>
                    <path d="M326,190 C327.280442,191.192655 328,192.81166 328,194.5 C328,196.18834 327.280442,197.807345 326,199" id="_路径_111" stroke="#94A89F" stroke-width="1.5"></path>
                    <path d="M388,163.299669 C384.686664,162.28268 381.108523,163.937719 380,167" id="_路径_112" stroke="#94A89F" stroke-width="1.5"></path>
                    <path d="M351.999982,149 C352.004106,150.499184 351.284605,151.938211 350,153" id="_路径_113" stroke="#94A89F" stroke-width="1.5"></path>
                    <polyline id="_路径_114" stroke="#94A89F" stroke-width="1.5" points="346 170 346 177 351 177 351 174.758893"></polyline>
                    <path d="M527.06252,160.670427 C523.535218,160.662295 520.037854,161.328682 516.752654,162.634867 C515.473514,160.488293 510.817445,159.642673 502.937944,160.137036 C501.633563,160.222217 500.602084,161.293727 500.545952,162.621858 C500.085462,170.336515 500.840154,174.99393 502.771656,176.516046 C501.919191,178.824256 501.485785,181.270681 501.492516,183.736341 C501.494739,186.021276 501.870827,188.289906 502.605367,190.449264 C502.606019,190.691325 502.697528,190.923998 502.861195,191.099741 C503.886358,193.831977 505.434128,196.330302 507.414933,198.450131 C504.708221,202.38591 503.256904,207.072992 503.257729,211.875976 L503.257729,217.41804 L504.217084,217.41804 L504.217084,218.042498 L501.748344,218.042498 C500.754344,218.042498 499.801056,218.444097 499.098193,219.158947 C498.395329,219.873797 498.000464,220.843342 498.000464,221.854293 L498.000464,226.941024 C497.976619,228.330853 498.873861,229.563588 500.187793,229.946227 C501.619567,229.600595 503.126845,229.99479 504.217084,231 C504.824232,230.989382 505.413565,230.789588 505.905548,230.42758 L532,230.42758 L532,161.112751 C530.369792,160.820791 528.717808,160.672798 527.06252,160.670427 Z" id="Shape" fill="#BBC4C0" fill-rule="nonzero"></path>
                    <path d="M507,231 L507,212.498101 C507.035635,200.087532 517.088384,190.035632 529.5,190 C541.911616,190.035632 551.964365,200.087532 552,212.498101 L552,231" id="Shape" fill="#F4F9F6" fill-rule="nonzero"></path>
                    <path d="M518,230 L518,220.974684 C518.013953,214.919309 522.930656,210.01392 529,210 C535.069344,210.01392 539.986047,214.919309 540,220.974684 L540,230" id="Shape" fill="#DAE0DD" fill-rule="nonzero"></path>
                    <path d="M507,218 L507,212.477778 C507.035635,200.07842 517.088384,190.0356 529.5,190 C541.911616,190.0356 551.964365,200.07842 552,212.477778 L552,218" id="Shape" stroke="#94A89F" stroke-width="1.5"></path>
                    <path d="M506.497021,176 C503.666648,175.065346 503.900348,166.238062 504.121065,162.694167 C504.172065,161.848694 504.846445,161.174422 505.692052,161.12343 C509.236511,160.902748 518.078181,160.656103 519,163.486027 L506.497021,176 Z" id="Shape" fill="#DAE0DD" fill-rule="nonzero"></path>
                    <path d="M507.505422,164.95706 C507.556441,164.111905 508.231073,163.437885 509.076997,163.386913 C512.313382,163.130327 515.568503,163.243522 518.7792,163.7243 L519,163.490724 C518.077836,160.661863 509.232856,160.895439 505.687071,161.129014 C504.841147,161.179987 504.166515,161.854006 504.115496,162.699162 C503.907684,166.241727 503.660908,175.065697 506.492341,176 L507.791163,174.702357 C507.335865,171.474446 507.240033,168.206064 507.505422,164.95706 Z" id="Shape" fill="#F4F9F6" fill-rule="nonzero"></path>
                    <path d="M553.509276,176 C556.338137,175.065346 556.104561,166.238062 555.870986,162.694167 C555.820013,161.848694 555.145994,161.174422 554.300838,161.12343 C550.758273,160.902748 541.934303,160.656103 541,163.486027 L553.509276,176 Z" id="Shape" fill="#DAE0DD" fill-rule="nonzero"></path>
                    <path d="M555.854232,162.70153 C555.803317,161.852383 555.130057,161.17518 554.285853,161.123967 C550.74728,160.902325 541.93325,160.654609 541,163.496831 L541.220351,163.73151 C544.424539,163.248687 547.673013,163.134959 550.902821,163.392529 C551.747025,163.443742 552.420285,164.120945 552.4712,164.970093 C552.720957,168.21461 552.607914,171.477074 552.134193,174.696228 L553.495183,176 C556.320857,175.126473 556.12643,166.260826 555.854232,162.70153 Z" id="Shape" fill="#F4F9F6" fill-rule="nonzero"></path>
                    <path d="M506.497021,176 C503.666648,175.065346 503.900348,166.238062 504.121065,162.694167 C504.172065,161.848694 504.846445,161.174422 505.692052,161.12343 C509.236511,160.902748 518.078181,160.656103 519,163.486027 L506.497021,176 Z" id="Shape" stroke="#94A89F" stroke-width="1.5"></path>
                    <path d="M553.509276,176 C556.338137,175.065346 556.104561,166.238062 555.870986,162.694167 C555.820013,161.848694 555.145994,161.174422 554.300838,161.12343 C550.758273,160.902748 541.934303,160.656103 541,163.486027 L553.509276,176 Z" id="Shape" stroke="#94A89F" stroke-width="1.5"></path>
                    <ellipse id="Oval" fill="#FFFFFF" fill-rule="nonzero" cx="530" cy="184" rx="25" ry="22"></ellipse>
                    <path d="M529.999997,192 C530.002195,194.427949 528.574236,196.617462 526.383596,197.545083 C524.192957,198.472705 521.672351,197.955203 520,196.234476" id="Shape" stroke="#94A89F" stroke-width="1.5"></path>
                    <path d="M530.000003,192 C529.997805,194.427949 531.425764,196.617462 533.616404,197.545083 C535.807043,198.472705 538.327649,197.955203 540,196.234476" id="Shape" stroke="#94A89F" stroke-width="1.5"></path>
                    <path d="M528.881496,193.442033 L526.409703,190.674218 C526.002728,190.218597 525.887153,189.54378 526.116223,188.960651 C526.345294,188.377522 526.874569,187.99921 527.460215,188.000001 L532.477955,188.000001 C533.061356,188.004547 533.586113,188.384827 533.812031,188.966778 C534.037949,189.548728 533.921548,190.220347 533.516107,190.674218 L531.044315,193.442033 C530.768154,193.743342 530.392191,193.91283 529.999982,193.91283 C529.607773,193.91283 529.231811,193.743342 528.95565,193.442033 L526.483857,190.674218 C526.076882,190.218597 525.961307,189.54378 526.190377,188.960651 C526.419447,188.377522 526.948722,187.99921 527.534369,188.000001 L532.552108,188.000001 C533.13551,188.004547 533.660267,188.384827 533.886185,188.966778 C534.112103,189.548728 533.995702,190.220347 533.590261,190.674218 L531.118468,193.442033 C530.839044,193.796098 530.430307,194 529.999982,194 C529.569657,194 529.16092,193.796098 528.881496,193.442033 Z" id="Shape" fill="#D0D6D3" fill-rule="nonzero"></path>
                    <path d="M517,181 C518.938336,178.333333 522.061664,178.333333 524,181" id="Shape" stroke="#94A89F" stroke-width="1.5"></path>
                    <path d="M532.939818,162 L532.072603,162 C527.566514,168.647114 528.057056,177.406313 533.278369,183.530365 C538.499681,189.654416 547.208904,191.685575 554.685891,188.523011 C555.562913,186.409436 556.009291,184.148096 555.999853,181.866508 C556.026133,170.896797 545.685251,162 532.939818,162 Z" id="Shape" fill="#DAE0DD" fill-rule="nonzero"></path>
                    <ellipse id="Oval" stroke="#94A89F" stroke-width="1.5" cx="530" cy="184" rx="25" ry="22"></ellipse>
                    <path d="M536,181 C537.936356,178.333333 541.063644,178.333333 543,181" id="Shape" stroke="#94A89F" stroke-width="1.5"></path>
                    <path d="M506,185 L513,185" id="Shape" stroke="#94A89F" stroke-width="1.5"></path>
                    <path d="M506,191 L513,191" id="Shape" stroke="#94A89F" stroke-width="1.5"></path>
                    <path d="M506,188 L516,188" id="Shape" stroke="#94A89F" stroke-width="1.5"></path>
                    <path d="M555,185 L548,185" id="Shape" stroke="#94A89F" stroke-width="1.5"></path>
                    <path d="M555,191 L548,191" id="Shape" stroke="#94A89F" stroke-width="1.5"></path>
                    <path d="M555,188 L545,188" id="Shape" stroke="#94A89F" stroke-width="1.5"></path>
                    <path d="M504.006369,230 C502.898282,230 502,229.059998 502,227.900446 L502,223.099554 C502,221.940002 502.898282,221 504.006369,221 C504.537324,220.999989 505.046347,221.221617 505.420588,221.615749 C505.794828,222.009881 506.003363,222.543951 505.999959,223.099554 L505.999959,227.900446 C505.999981,229.054795 505.109462,229.992647 504.006369,230 Z" id="Shape" fill="#FFFFFF" fill-rule="nonzero"></path>
                    <path d="M510,230 C508.898322,229.992703 508.006951,229.056962 508,227.900446 L508,223.099554 C508,221.940002 508.895431,221 510,221 C511.104569,221 512,221.940002 512,223.099554 L512,227.900446 C511.993049,229.056962 511.101678,229.992703 510,230 Z" id="Shape" fill="#FFFFFF" fill-rule="nonzero"></path>
                    <path d="M507,231 C505.895431,231 505,230.057757 505,228.895442 L505,223.104558 C505,221.942243 505.895431,221 507,221 C508.104569,221 509,221.942243 509,223.104558 L509,228.895442 C508.993049,230.054714 508.101678,230.992686 507,231 Z" id="Shape" fill="#F4F9F6" fill-rule="nonzero"></path>
                    <rect id="Rectangle-path" fill="#F4F9F6" fill-rule="nonzero" x="502" y="219" width="11" height="7" rx="2.47"></rect>
                    <path d="M510.08252,219 L504.917568,219 C503.309601,219.00712 502.0079,220.272251 502.000574,221.835044 L502.000574,226.919916 C501.978261,227.863662 502.608485,228.705209 503.539355,228.974673 C504.055503,229.113525 504.606906,229.052943 505.078136,228.805611 C505.296322,228.688623 505.57074,228.763997 505.693648,228.974673 C506.06135,229.608163 506.751678,230 507.500044,230 C508.248409,230 508.938737,229.608163 509.306439,228.974673 C509.429347,228.763997 509.703765,228.688623 509.921951,228.805611 C510.388602,229.052147 510.935571,229.112768 511.447351,228.974673 C512.383534,228.710032 513.02014,227.86729 512.999513,226.919916 L512.999513,221.835044 C512.992187,220.272251 511.690486,219.00712 510.08252,219 Z" id="Shape" stroke="#94A89F" stroke-width="1.5"></path>
                    <path d="M549,230 C547.898322,229.992703 547.006951,229.056962 547,227.900446 L547,223.099554 C547,221.940002 547.895431,221 549,221 C550.104569,221 551,221.940002 551,223.099554 L551,227.900446 C550.993049,229.056962 550.101678,229.992703 549,230 Z" id="Shape" fill="#F4F9F6" fill-rule="nonzero"></path>
                    <path d="M555.006369,230 C553.898282,230 553,229.059998 553,227.900446 L553,223.099554 C553,221.940002 553.898282,221 555.006369,221 C555.537324,220.999989 556.046347,221.221617 556.420588,221.615749 C556.794828,222.009881 557.003363,222.543951 556.999959,223.099554 L556.999959,227.900446 C556.999981,229.054795 556.109462,229.992647 555.006369,230 Z" id="Shape" fill="#FFFFFF" fill-rule="nonzero"></path>
                    <rect id="Rectangle-path" fill="#F4F9F6" fill-rule="nonzero" x="550" y="221" width="4" height="10" rx="1.57"></rect>
                    <rect id="Rectangle-path" fill="#F4F9F6" fill-rule="nonzero" x="547" y="219" width="11" height="7" rx="2.47"></rect>
                    <path d="M555.095813,219 L549.91748,219 C548.309514,219.00712 547.007813,220.272251 547.000487,221.835044 L547.000487,226.919916 C546.97986,227.86729 547.616466,228.710032 548.552649,228.974673 C549.064315,229.114165 549.611833,229.053483 550.078049,228.805611 C550.296235,228.688623 550.570653,228.763997 550.693561,228.974673 C551.061263,229.608163 551.751591,230 552.499956,230 C553.248322,230 553.93865,229.608163 554.306352,228.974673 C554.42926,228.763997 554.703678,228.688623 554.921864,228.805611 C555.393094,229.052943 555.944497,229.113525 556.460645,228.974673 C557.391515,228.705209 558.021739,227.863662 557.999426,226.919916 L557.999426,221.835044 C557.999443,220.274357 556.701596,219.007159 555.095813,219 Z" id="Shape" stroke="#94A89F" stroke-width="1.5"></path>
                    <path d="M211.28349,191.000037 L256,191 L256,230 L212.679657,230 C210.64746,230 209.000038,228.376536 209.000038,226.373891 L209.000038,193.250282 C208.996541,192.652431 209.235995,192.078068 209.664986,191.655315 C210.093976,191.232563 210.676815,190.996591 211.28349,191.000037 Z" id="_矩形_4" stroke="#94A89F" stroke-width="1.5"></path>
                    <path d="M225.326965,230 L213.567175,230 C212.618843,230.000006 211.709543,229.628399 211.040198,228.96729 C210.370853,228.306181 209.996565,227.409994 210.000039,226.476756 L210.000039,193.185955 C209.99656,192.607389 210.227675,192.051344 210.642176,191.641025 C211.056676,191.230705 211.620337,190.99999 212.208266,191 L257,191" id="_路径_115" stroke="#94A89F" stroke-width="1.5"></path>
                    <path d="M256.974598,230.999233 L213,230.999627 C213.947757,231.013496 214.860849,230.640234 215.531089,229.964551 C216.20133,229.288868 216.571585,228.368363 216.557437,227.41291 L216.557437,188.225131 C216.550459,187.635144 216.778968,187.067082 217.191599,186.64864 C217.604229,186.230198 218.166357,185.996486 218.751623,186.00004 L256.805814,186.00004 C258.01763,186.00004 259,186.990387 259,188.212042 L259,228.905029 C258.993557,230.038687 258.098601,230.964044 256.974598,230.999233 Z" id="_路径_116" stroke="#94A89F" stroke-width="1.5"></path>
                    <path d="M235.344341,186.00004 L256.805814,186.00004 C258.01763,186.00004 259,186.990387 259,188.212042 L259,228.905029 C258.992861,230.06374 258.059081,230.999255 256.909681,230.999233 L213,230.999627 C213.947757,231.013496 214.860849,230.640234 215.531089,229.964551 C216.20133,229.288868 216.571585,228.368363 216.557437,227.41291 L216.557437,188.225131 C216.550459,187.635144 216.778968,187.067082 217.191599,186.64864 C217.604229,186.230198 218.166357,185.996486 218.751623,186.00004 L223.010161,186.00004" id="_路径_117" stroke="#94A89F" stroke-width="1.5" fill="#F4F9F6" fill-rule="nonzero"></path>
                    <path d="M227,186 L233,186" id="_路径_118" stroke="#94A89F" stroke-width="1.5"></path>
                    <path d="M222,201 L254,201" id="_路径_119" stroke="#94A89F" stroke-width="1.5"></path>
                    <path d="M234,207 L254,207" id="_路径_120" stroke="#94A89F" stroke-width="1.5"></path>
                    <path d="M234,211 L254,211" id="_路径_121" stroke="#94A89F" stroke-width="1.5"></path>
                    <path d="M234,216 L254,216" id="_路径_122" stroke="#94A89F" stroke-width="1.5"></path>
                    <path d="M222,220 L254,220" id="_路径_123" stroke="#94A89F" stroke-width="1.5"></path>
                    <path d="M222,224 L254,224" id="_路径_124" stroke="#94A89F" stroke-width="1.5"></path>
                    <rect id="_矩形_5" stroke="#94A89F" stroke-width="1.5" x="222" y="206" width="11" height="11"></rect>
                    <path d="M302,202 L274,202 L274,210.485906 C274.001061,216.519412 276.277827,222.331993 280.378429,226.770022 L280.378429,231 L295.634589,231 L295.634589,226.770022 C299.727161,222.327976 301.998673,216.516951 302,210.485906 L302,202 Z" id="_路径_125" fill="#D0D6D3" fill-rule="nonzero"></path>
                    <path d="M295.594886,202 L295.594886,210.485906 C295.593789,216.519412 293.239759,222.331993 289,226.770022 L289,231 L292.405114,231 L292.405114,226.770022 C296.644873,222.331993 298.998903,216.519412 299,210.485906 L299,202 L295.594886,202 Z" id="_路径_126" fill="#F4F9F6" fill-rule="nonzero"></path>
                    <path d="M300.453009,215.611186 C300.818536,213.927126 301.001908,212.208893 300.999985,210.485906 L301,202 L273,202 L273.000005,210.485906 C272.99624,216.517904 275.269503,222.330707 279.368372,226.770022 L279.368372,231 L294.631617,231 L294.631617,226.770022 C295.413525,225.916298 296.135834,225.010226 296.793476,224.058166" id="_路径_127" stroke="#94A89F" stroke-width="1.5"></path>
                    <path d="M298,222 C298.813077,220.729506 299.483049,219.389562 300,218" id="_路径_128" stroke="#94A89F" stroke-width="1.5"></path>
                    <path d="M275,218 L270.216216,218 C266.786178,217.992826 264.007432,215.310732 264,212 C264.007432,208.689268 266.786178,206.007174 270.216216,206 L273.283784,206" id="_路径_129" stroke="#94A89F" stroke-width="1.5"></path>
                    <path d="M283.828756,198 L283.828756,196.411017 C283.82531,195.24685 284.293969,194.129387 285.130905,193.306192 C285.967842,192.482998 287.103959,192.022035 288.287561,192.025424 L292.384491,192.025424 C293.271689,192.025452 293.992902,191.321755 294,190.449153 C294.000014,190.028888 293.829398,189.626018 293.526054,189.330042 C293.22271,189.034066 292.811758,188.869492 292.384491,188.872881 L279.46042,188.872881 C278.656778,188.865977 278.007019,188.226888 278,187.436441 C278,186.643116 278.653852,186 279.46042,186 L284.88853,186" id="_路径_130" stroke="#94A89F" stroke-width="1.5"></path>
                    <path d="M287.008731,187 L291.615178,187 C292.044975,187 292.457168,186.823279 292.76108,186.508713 C293.064993,186.194147 293.235729,185.767505 293.235729,185.322642 C293.235729,184.877778 293.064993,184.451136 292.76108,184.13657 C292.457168,183.822004 292.044975,183.645283 291.615178,183.645283 L279.760913,183.645283 C278.788388,183.645283 278,182.829259 278,181.822642 C278,180.816024 278.788388,180 279.760913,180 L297,180" id="_路径_131" stroke="#94A89F" stroke-width="1.5"></path>
                    <path d="M623.735665,192.295368 L623.735665,183.1306 C623.735665,180.849333 621.846225,179 619.515482,179 L617.484518,179 C615.153775,179 613.264335,180.849333 613.264335,183.1306 L613.264335,192.295368 C609.804638,192.295368 607,195.040471 607,198.426727 L607,230 L630,230 L630,198.426727 C630,195.040471 627.195362,192.295368 623.735665,192.295368 Z" id="Shape" fill="#DAE0DD" fill-rule="nonzero"></path>
                    <path d="M621.075,192.285823 L621.075,183.118734 C621.069547,180.89623 619.362924,179.076392 617.2125,179 C616.416584,179.034937 615.647761,179.308619 615,179.787595 C616.039478,180.558165 616.657833,181.797158 616.6625,183.118734 L616.6625,192.285823 C619.936808,192.292943 622.587507,195.036657 622.5875,198.418734 L622.5875,230 L627,230 L627,198.418734 C627.000007,195.036657 624.349308,192.292943 621.075,192.285823 Z" id="Shape" fill="#F4F9F6" fill-rule="nonzero"></path>
                    <rect id="Rectangle-path" fill="#DAE0DD" fill-rule="nonzero" x="614" y="190" width="10" height="3"></rect>
                    <path d="M623.735665,192.295368 L623.735665,183.1306 C623.735665,180.849333 621.846225,179 619.515482,179 L617.484518,179 C615.153775,179 613.264335,180.849333 613.264335,183.1306 L613.264335,192.295368 C609.804638,192.295368 607,195.040471 607,198.426727 L607,230 L630,230 L630,198.426727 C630,195.040471 627.195362,192.295368 623.735665,192.295368 Z" id="Shape" stroke="#94A89F" stroke-width="1.5"></path>
                    <rect id="Rectangle-path" fill="#DAE0DD" fill-rule="nonzero" x="613" y="183" width="12" height="6"></rect>
                    <rect id="Rectangle-path" stroke="#94A89F" stroke-width="1.5" x="613" y="183" width="12" height="6" rx="0.84"></rect>
                    <rect id="_矩形_6" fill="#DAE0DD" fill-rule="nonzero" x="669" y="214" width="4" height="14"></rect>
                    <rect id="_矩形_7" stroke="#94A89F" stroke-width="1.5" x="669" y="214" width="4" height="14"></rect>
                    <polygon id="_路径_132" fill="#FFFFFF" fill-rule="nonzero" points="673 200.013514 669 197 669 208 673 208"></polygon>
                    <polygon id="_路径_133" fill="#D2E9F7" fill-rule="nonzero" points="669 197 669 199.002688 673 202 673 199.997312"></polygon>
                    <polygon id="_路径_134" stroke="#94A89F" stroke-width="1.5" points="673 200.013514 669 197 669 208 673 208"></polygon>
                    <rect id="_矩形_8" fill="#DAE0DD" fill-rule="nonzero" x="668" y="205" width="6" height="11" rx="0.86"></rect>
                    <rect id="_矩形_9" stroke="#94A89F" stroke-width="1.5" x="668" y="205" width="6" height="11" rx="0.79"></rect>
                    <path d="M640.993232,215.973168 L642.590525,215.973168 L645,208.742002 L641.71066,203 L641.196277,203 L641.196277,208.500516 C641.416265,208.591729 641.628946,208.699365 641.832487,208.822497 C642.236462,209.238151 642.236462,209.896008 641.832487,210.311662 C641.416015,210.719137 640.746422,210.719137 640.329949,210.311662 C640.129063,210.115051 640.015993,209.846893 640.015993,209.567079 C640.015993,209.287266 640.129063,209.019108 640.329949,208.822497 C640.490726,208.695378 640.662905,208.583111 640.844332,208.4871 L640.966159,203 L640.465313,203 L637,208.755418 L639.35533,216 L640.993232,215.973168 Z" id="_路径_135" fill="#FFFFFF" fill-rule="nonzero"></path>
                    <polygon id="_路径_136" fill="#D0D6D3" fill-rule="nonzero" points="642.604096 215 643 214 639 214 639.382253 214.990654 640.979522 214.990654 641.006826 215"></polygon>
                    <path d="M641,203 L641,208" id="_路径_137" fill="#D0D6D3" fill-rule="nonzero"></path>
                    <path d="M642,209 C642,209.552285 641.552285,210 641,210 C640.447715,210 640,209.552285 640,209 C640,208.447715 640.447715,208 641,208 C641.552285,208 642,208.447715 642,209 Z" id="_路径_138" fill="#D0D6D3" fill-rule="nonzero"></path>
                    <polyline id="_路径_139" stroke="#94A89F" stroke-width="1.5" points="640.897785 203 640.393526 203 637 208.732919 639.37138 216 640.965928 216 640.979557 216 642.574106 216 645 208.759834 641.688245 203 641.170358 203"></polyline>
                    <rect id="_矩形_10" fill="#757474" fill-rule="nonzero" x="637" y="215" width="7" height="12"></rect>
                    <polyline id="_路径_140" stroke="#94A89F" stroke-width="1.5" fill="#DAE0DD" fill-rule="nonzero" points="637 227 637 215 644 215 644 227"></polyline>
                    <rect id="_矩形_11" fill="#DAE0DD" fill-rule="nonzero" transform="translate(661.500000, 215.000000) rotate(55.380000) translate(-661.500000, -215.000000) " x="648" y="212" width="27" height="6"></rect>
                    <path d="M658,206 L657,206.78" id="_路径_141" stroke="#94A89F" stroke-width="1.5" fill="#DAE0DD" fill-rule="nonzero"></path>
                    <path d="M656,203 L655,203.79" id="_路径_142" stroke="#94A89F" stroke-width="1.5" fill="#DAE0DD" fill-rule="nonzero"></path>
                    <path d="M660,209 L659,209.79" id="_路径_143" stroke="#94A89F" stroke-width="1.5" fill="#DAE0DD" fill-rule="nonzero"></path>
                    <path d="M662,212 L661,212.79" id="_路径_144" stroke="#94A89F" stroke-width="1.5" fill="#DAE0DD" fill-rule="nonzero"></path>
                    <path d="M664,215 L663,215.79" id="_路径_145" stroke="#94A89F" stroke-width="1.5" fill="#DAE0DD" fill-rule="nonzero"></path>
                    <path d="M668,221 L667,221.78" id="_路径_146" stroke="#0686D8" stroke-width="1.5"></path>
                    <path d="M666,218 L665,218.79" id="_路径_147" stroke="#94A89F" stroke-width="1.5"></path>
                    <path d="M671,224 L670,224.79" id="_路径_148" stroke="#0686D8" stroke-width="1.5"></path>
                    <path d="M648,212 L674.047125,212 C675.125668,212 676,212.866168 676,213.934641 L676,216.065359 C676,217.133832 675.125668,218 674.047125,218 L648,218 L648,212 Z" id="_矩形_12" stroke="#94A89F" stroke-width="1.5" transform="translate(662.000000, 215.000000) rotate(55.380000) translate(-662.000000, -215.000000) "></path>
                    <path d="M669.342438,230 L640.657562,230 C638.08822,229.993114 636.007127,227.982423 636,225.5 C636.014179,223.020415 638.091158,221.0137 640.657562,221 L669.342438,221 C671.91178,221.006886 673.992873,223.017577 674,225.5 C674,227.985281 671.914738,230 669.342438,230 Z" id="_路径_149" fill="#D2E9F7" fill-rule="nonzero"></path>
                    <path d="M670.103515,228.597315 L639.905759,228.597315 C637.917396,228.578794 636.250415,227.039803 636.009275,225 C635.996908,225.165301 635.996908,225.331343 636.009275,225.496644 L636.009275,226.973154 C636.009275,229.19712 637.75379,231 639.905759,231 L670.103515,231 C672.255484,231 674,229.19712 674,226.973154 L674,225.496644 C674,225.33557 674,225.174497 674,225 C673.753475,227.036889 672.089682,228.572937 670.103515,228.597315 Z" id="_路径_150" fill="#9ECFEF" fill-rule="nonzero"></path>
                    <path d="M648,231 L644,231" id="_路径_151" stroke="#0686D8" stroke-width="1.5"></path>
                    <path d="M641.959768,230 L639.692465,230 C637.661148,229.993176 636.014193,228.405354 636,226.440111 L636,224.572423 C636.014121,222.605115 637.659051,221.013662 639.692465,221 L670.307535,221 C672.343876,221.006877 673.992892,222.602284 674,224.572423 L674,226.440111 C673.992862,228.408209 672.341778,230.000012 670.307535,230 L649.487214,230" id="_路径_152" stroke="#94A89F" stroke-width="1.5" fill="#DAE0DD" fill-rule="nonzero"></path>
                    <rect id="_矩形_13" fill="#F4F9F6" fill-rule="nonzero" transform="translate(593.500000, 224.500000) rotate(90.000000) translate(-593.500000, -224.500000) " x="587" y="195" width="13" height="59"></rect>
                    <rect id="_矩形_14" stroke="#94A89F" stroke-width="1.5" transform="translate(593.500000, 224.500000) rotate(90.000000) translate(-593.500000, -224.500000) " x="587" y="195" width="13" height="59"></rect>
                    <path d="M615,218 L615,224" id="_路径_153" stroke="#94A89F" stroke-width="1.5"></path>
                    <path d="M604,218 L604,224" id="_路径_154" stroke="#94A89F" stroke-width="1.5"></path>
                    <path d="M593,218 L593,224" id="_路径_155" stroke="#94A89F" stroke-width="1.5"></path>
                    <path d="M583,218 L583,224" id="_路径_156" stroke="#94A89F" stroke-width="1.5"></path>
                    <path d="M572,218 L572,224" id="_路径_157" stroke="#94A89F" stroke-width="1.5"></path>
                    <path d="M0,231 L889,231" id="_路径_158" stroke="url(#linearGradient-1)" stroke-width="1.5"></path>
                </g>
            </g>
        </g>
    </g>
</svg>