<?xml version="1.0" encoding="UTF-8"?>
<svg width="22px" height="22px" viewBox="0 0 22 22" version="1.1" xmlns="http://www.w3.org/2000/svg" xmlns:xlink="http://www.w3.org/1999/xlink">
    <!-- Generator: Sketch 50 (54983) - http://www.bohemiancoding.com/sketch -->
    <title>a_24</title>
    <desc>Created with Sketch.</desc>
    <defs></defs>
    <g id="开发资源" stroke="none" stroke-width="1" fill="none" fill-rule="evenodd">
        <g id="开发文档" transform="translate(-120.000000, -1617.000000)">
            <g id="APP" transform="translate(120.000000, 1617.000000)">
                <rect id="Rectangle" fill="#D8D8D8" opacity="0" x="0" y="0" width="22" height="22"></rect>
                <path d="M1.01582793,14.0260336 L1.01582793,11.3151233 C1.01582793,11.0667144 1.21980164,10.8635667 1.46975358,10.8635667 L6.26003911,10.8635667 L4.17441355,14.4777922 L1.46973114,14.4777922 C1.21980164,14.4777922 1.01582793,14.2753177 1.01582793,14.0260336 Z M4.4281353,19.5770853 L2.89940957,20.6128403 C2.69370803,20.7528648 2.54823371,20.6639807 2.57675413,20.4172772 L2.78072784,18.6449799 C2.80913606,18.3982989 3.00931752,18.2972299 3.22574507,18.420806 L4.4088599,19.0966935 C4.62497329,19.2207185 4.63385928,19.4379135 4.42815774,19.5770853 L4.4281353,19.5770853 Z M4.7952431,18.5782214 L3.61215071,17.9023339 C3.39583535,17.7783314 3.31960887,17.5012893 3.44542632,17.2858221 L8.9238819,7.78910873 C9.04808371,7.57323761 9.32837365,7.49752565 9.54448705,7.62262767 L10.7276019,8.2971688 C10.9439172,8.42227083 11.0184832,8.6995373 10.8942814,8.9145557 L5.41593801,18.4121442 C5.29187083,18.6276114 5.01146869,18.7013487 4.79526554,18.578199 L4.7952431,18.5782214 Z M8.96481127,14.4777922 L11.0503246,10.8635891 L12.2512114,10.8635891 L13.9448215,14.4777922 L8.96481127,14.4777922 Z M15.7573826,15.5564297 C15.2837552,15.3201383 12.9248857,9.90152652 12.3205715,8.4877278 C11.7155617,7.07397395 9.88868427,3.31063581 10.4795573,3.01799805 C10.9000707,2.80793885 12.4092069,5.771387 13.5405093,7.55021435 C14.6703082,9.32946807 17.0328354,13.9167293 17.3235147,14.4391733 C17.6126682,14.9628739 17.045177,15.3994631 16.7295675,15.5299507 C16.4137337,15.660932 16.2307856,15.7909932 15.7573826,15.5564297 Z M17.3074706,18.0471381 L16.5947519,16.9259995 C16.4473254,16.6931639 16.523866,16.4052834 16.7629573,16.282201 L17.4422862,15.934451 C17.6818488,15.8126476 17.9816161,15.9110463 18.1090716,16.1551467 L18.6713569,17.2316299 C18.7992387,17.4752367 18.7120843,17.7878459 18.4814526,17.9252449 L17.9956855,18.2144494 C17.7650763,18.35407 17.4548972,18.2781785 17.3074706,18.0471381 Z M19.9305411,20.9874059 C19.7816336,20.5126689 18.6446989,20.4810063 18.1357295,19.7656696 C17.6250099,19.0529134 18.0470941,18.685753 18.224365,18.5162202 C20.2888751,17.3586394 19.9305411,20.9874059 19.9305411,20.9874059 Z M20.9929098,14.0260336 C20.9929098,14.2753401 20.7889361,14.4777922 20.5389841,14.4777922 L18.1411599,14.4777922 C18.1147263,14.3386653 18.0717774,14.1990447 17.999388,14.0685122 C17.9369393,13.9570985 17.7791458,13.6575493 17.5593523,13.2391812 C17.242015,12.635707 16.7861371,11.7725142 16.2982159,10.8635891 L20.5388046,10.8635891 C20.7887341,10.8635891 20.9927078,11.0667144 20.9927078,11.3151457 L20.9927078,14.0260336 L20.9929322,14.0260336 L20.9929098,14.0260336 Z" id="Shape" fill="#666666" fill-rule="nonzero"></path>
            </g>
        </g>
    </g>
</svg>