<?xml version="1.0" encoding="UTF-8"?>
<svg width="22px" height="22px" viewBox="0 0 22 22" version="1.1" xmlns="http://www.w3.org/2000/svg" xmlns:xlink="http://www.w3.org/1999/xlink">
    <!-- Generator: Sketch 50 (54983) - http://www.bohemiancoding.com/sketch -->
    <title>a_25</title>
    <desc>Created with Sketch.</desc>
    <defs></defs>
    <g id="开发资源" stroke="none" stroke-width="1" fill="none" fill-rule="evenodd">
        <g id="开发文档" transform="translate(-162.000000, -1617.000000)">
            <g id="Group-13" transform="translate(162.000000, 1617.000000)">
                <g id="微信">
                    <rect id="Rectangle" fill="#D8D8D8" opacity="0" x="0" y="0" width="22" height="22"></rect>
                    <g id="Group-10" transform="translate(1.000000, 3.000000)" fill="#777777" fill-rule="nonzero">
                        <path d="M13.5676504,4.9391291 C13.7977234,4.9391291 14.0246985,4.95679879 14.2524309,4.98178876 C13.6388569,2.12405067 10.5850772,0.00160078589 7.09735762,0.00160078589 C3.19958674,0.00160078589 0.00651482003,2.65785861 0.00651482003,6.03244633 C0.00651482003,7.97964512 1.06814136,9.57847584 2.8434853,10.8204708 L2.13522942,12.9531324 L4.61453801,11.7110915 C5.50086755,11.8848511 6.21183123,12.0656096 7.0973576,12.0656096 C7.32004146,12.0656096 7.54072889,12.0554897 7.75829544,12.0389903 C7.62097678,11.5647545 7.53916845,11.0685577 7.53916845,10.551295 C7.54075188,7.45363938 10.2000617,4.9391291 13.5676504,4.9391291 Z M9.75593318,3.01701207 C10.2915999,3.01701207 10.6437773,3.36918945 10.6437773,3.90214833 C10.6437773,4.43315664 10.2915769,4.78889092 9.75593318,4.78889092 C9.22609518,4.78889092 8.69274622,4.43315664 8.69274622,3.90214833 C8.69274619,3.36765197 9.2249019,3.01701207 9.75593318,3.01701207 Z M4.79336899,4.78889092 C4.26119034,4.78889092 3.7255007,4.43315664 3.7255007,3.90214833 C3.7255007,3.36916651 4.26119034,3.01701207 4.79336899,3.01701207 C5.32554764,3.01701207 5.67889536,3.36765197 5.67889536,3.90214833 C5.67889536,4.43315664 5.32554764,4.78889092 4.79336899,4.78889092 Z" id="Shape"></path>
                        <path d="M20.0414313,10.4659298 C20.0414313,7.63132294 17.2037035,5.32100072 14.0168963,5.32100072 C10.6422627,5.32100072 7.98646385,7.63290632 7.98646385,10.4659298 C7.98646385,13.3083848 10.6438002,15.6116161 14.0168963,15.6116161 C14.7236147,15.6116161 15.4357717,15.4347587 16.1448078,15.2570981 L18.0888398,16.3237961 L17.555858,14.551137 C18.9794376,13.4813411 20.0414313,12.0655866 20.0414313,10.4659298 Z M12.0611151,9.57845288 C11.7089377,9.57845288 11.352079,9.22788183 11.352079,8.86941679 C11.352079,8.51645918 11.7089607,8.16116091 12.0611151,8.16116091 C12.5995585,8.16116091 12.948615,8.51645918 12.948615,8.86941679 C12.948615,9.22788183 12.5995585,9.57845288 12.0611151,9.57845288 Z M15.9616856,9.57845288 C15.6126291,9.57845288 15.2565277,9.22788183 15.2565277,8.86941679 C15.2565277,8.51645918 15.6110457,8.16116091 15.9616856,8.16116091 C16.4954247,8.16116091 16.8491855,8.51645918 16.8491855,8.86941679 C16.8491625,9.22788183 16.4954017,9.57845288 15.9616856,9.57845288 Z" id="Shape"></path>
                    </g>
                </g>
            </g>
        </g>
    </g>
</svg>