<?xml version="1.0" encoding="UTF-8"?>
<svg width="22px" height="22px" viewBox="0 0 22 22" version="1.1" xmlns="http://www.w3.org/2000/svg" xmlns:xlink="http://www.w3.org/1999/xlink">
    <!-- Generator: Sketch 50 (54983) - http://www.bohemiancoding.com/sketch -->
    <title>a_26</title>
    <desc>Created with Sketch.</desc>
    <defs></defs>
    <g id="开发资源" stroke="none" stroke-width="1" fill="none" fill-rule="evenodd">
        <g id="开发文档" transform="translate(-204.000000, -1617.000000)">
            <g id="Group-14" transform="translate(204.000000, 1617.000000)">
                <g id="微博-(1)">
                    <path d="M15.4431177,12.6766718 C15.2203142,12.632017 15.0756561,12.5652569 15.0091434,12.4763916 C14.9426307,12.3875262 14.931469,12.3058005 14.9756583,12.2312144 L15.0426285,12.1200216 C15.0573493,12.1052982 15.0723123,12.0829708 15.0875175,12.0530395 C15.1027228,12.0231081 15.13242,11.9599145 15.1766093,11.8634587 C15.2207986,11.7670028 15.2542905,11.6705469 15.2770849,11.574091 C15.2998792,11.4776351 15.3184013,11.3588519 15.3326512,11.2177413 C15.346901,11.0766306 15.3431064,10.942875 15.3212674,10.8164743 C15.2994285,10.6900736 15.2547682,10.5527515 15.1872866,10.404508 C15.1198051,10.2562644 15.0269254,10.1225088 14.9086477,10.003241 C14.7005784,9.79513478 14.4295488,9.66137913 14.0955588,9.60197405 C13.7615689,9.54256896 13.4275856,9.53877371 13.0936091,9.59058829 C12.7596326,9.64240287 12.4441916,9.70916294 12.1472862,9.7908685 C11.8503808,9.87257406 11.6054827,9.95050455 11.4125917,10.02466 L11.1232755,10.1586646 C10.9745873,10.2033193 10.8520171,10.2330219 10.7555649,10.2477722 C10.6591127,10.2625226 10.5847686,10.2587273 10.5325327,10.2363865 C10.4802967,10.2140456 10.4394377,10.1917182 10.4099557,10.1694043 C10.3804738,10.1470904 10.3693121,10.0950605 10.3764706,10.0133146 C10.3836292,9.93156866 10.3909896,9.86101334 10.3985518,9.80164862 C10.406114,9.74228391 10.4246362,9.64938776 10.4541181,9.52296017 C10.4836001,9.39653259 10.5059235,9.29627473 10.5210884,9.22218659 C10.5210884,9.04401171 10.5099267,8.87700052 10.4876033,8.72115301 C10.4652799,8.5653055 10.4170605,8.39092586 10.3429451,8.1980141 C10.2688298,8.00510234 10.1612226,7.84924811 10.0201236,7.73045141 C9.87902459,7.6116547 9.7008679,7.51519882 9.48565353,7.44108377 C9.27043916,7.36696871 8.99204242,7.34464133 8.65046329,7.37410164 C8.30888417,7.40356194 7.92288698,7.49264938 7.49247172,7.64136395 C6.97274936,7.81953883 6.4456666,8.08301264 5.91122342,8.43178537 C5.37678024,8.78055809 4.91287987,9.14428303 4.5195223,9.52296017 C4.12616473,9.90163731 3.76606349,10.269171 3.43921861,10.6255611 C3.11237372,10.9819513 2.85987293,11.2715611 2.68171626,11.4943908 L2.4365826,11.8507405 C1.94678626,12.4893519 1.58312593,13.1279566 1.34560162,13.7665546 C1.1080773,14.4051525 0.996675547,14.8876809 1.01139635,15.2141397 L1.01139635,15.6817024 C1.10071691,16.3944289 1.31971912,17.0330335 1.66840299,17.5975164 C2.01708685,18.1619993 2.43277458,18.6186204 2.91546619,18.9673797 C3.39815779,19.316139 3.96609952,19.6131106 4.61929139,19.8582945 C5.27248325,20.1034784 5.89981279,20.2816668 6.50128001,20.3928595 C7.10274723,20.5040523 7.73744389,20.5819828 8.40537001,20.626651 C9.50420926,20.7159874 10.6436586,20.6306952 11.8237179,20.3707744 C13.0037772,20.1108536 14.102381,19.6615942 15.1195292,19.0229963 C16.1366774,18.3843983 16.8530786,17.6196352 17.2687327,16.728707 C17.5209913,16.2088923 17.6509286,15.7187667 17.6585447,15.2583301 C17.6661607,14.7978936 17.5882441,14.4229983 17.4247947,14.1336441 C17.2613454,13.8442899 17.0497036,13.5881778 16.7898693,13.3653078 C16.530035,13.1424378 16.2851369,12.9789863 16.0551748,12.8749534 C15.8252127,12.7709205 15.6211735,12.7041604 15.4430572,12.6746732 L15.4431177,12.6766718 Z M8.65127066,19.6037099 C7.04791426,19.6778384 5.68588347,19.3659012 4.56517832,18.6678981 C3.44447316,17.9698951 2.88413403,17.0863487 2.88416093,16.0172591 C2.88416093,14.9629063 3.44094096,14.0534593 4.55450102,13.2889183 C5.66806108,12.5243773 7.03388644,12.1048137 8.6519771,12.0302276 C10.2700677,11.9556415 11.6358931,12.2229106 12.7494532,12.8320348 C13.8630132,13.441159 14.4197933,14.2726754 14.4197932,15.3265841 C14.4197932,16.3956872 13.8518515,17.3571641 12.715968,18.2110146 C11.5800846,19.0648651 10.2254209,19.5288479 8.6519771,19.602963 L8.65127066,19.6037099 Z M8.00566794,13.4335819 C7.57526613,13.4782367 7.18926893,13.5784945 6.84767635,13.7343555 C6.50608377,13.8902165 6.23886219,14.0684048 6.04601161,14.2689205 C5.85316103,14.4694362 5.6897386,14.6846754 5.55574431,14.9146379 C5.42175003,15.1446005 5.32887038,15.3710101 5.27710537,15.5938666 C5.22534035,15.8167231 5.19184851,16.0207986 5.17662984,16.206093 C5.16141118,16.3913873 5.15405077,16.5360711 5.15454863,16.6401444 L5.17662984,16.8183395 L5.17662984,16.9074471 C5.17662984,16.9521019 5.19159285,17.0411893 5.22151886,17.1747094 C5.25144488,17.3082295 5.29230385,17.4308215 5.34409579,17.5424853 C5.39588772,17.6541491 5.48116476,17.7767411 5.5999269,17.9102612 C5.71868904,18.0437813 5.85978807,18.1552029 6.02322398,18.2445259 C7.00330108,18.7196858 7.91638103,18.8643696 8.76246385,18.6785773 C9.60854667,18.492785 10.291456,18.0658665 10.8111918,17.3978217 C11.0192611,17.1455183 11.1565588,16.833581 11.2230849,16.4620099 C11.2896111,16.0904388 11.2746481,15.7155434 11.1781959,15.3373238 C11.0817437,14.9591043 10.9147622,14.6139047 10.6772513,14.3017252 C10.4397405,13.9895457 10.0872351,13.7481638 9.61973528,13.5775794 C9.15223546,13.4069949 8.61397753,13.358767 8.00496151,13.4328956 L8.00566794,13.4335819 Z M7.20396283,17.6437054 C7.11464227,17.6584289 7.02936523,17.6622241 6.94813171,17.6550912 C6.86689819,17.6479583 6.79255411,17.6329926 6.72509945,17.6101942 C6.6576448,17.5873958 6.59089658,17.5615087 6.52485482,17.5325329 C6.45881305,17.5035571 6.40323327,17.4626908 6.3581155,17.4099342 C6.31299772,17.3571775 6.27213874,17.3051476 6.23553857,17.2538444 C6.19893841,17.2025413 6.16924114,17.1431429 6.14644678,17.0756494 C6.12365242,17.0081558 6.11249071,16.9376005 6.11296165,16.8639834 C6.11296165,16.7005319 6.15762193,16.5408825 6.24694249,16.3850349 C6.33626305,16.2291874 6.45883324,16.0954318 6.61465307,15.983768 C6.77047289,15.8721042 6.94482155,15.8089106 7.13769903,15.7941872 C7.27119544,15.7794637 7.40113276,15.783259 7.52751098,15.8055729 C7.65388921,15.8278868 7.76149639,15.8649511 7.85033254,15.9167657 C7.93916868,15.9685802 8.01708532,16.0279786 8.08408246,16.0949607 C8.1510796,16.1619429 8.19929897,16.2398734 8.22874057,16.3287522 C8.25818217,16.417631 8.27314518,16.5140869 8.2736296,16.6181198 C8.2736296,16.7815713 8.22541023,16.9374255 8.12897149,17.0856826 C8.03253275,17.2339396 7.90259543,17.3600913 7.73915953,17.4641376 C7.57572364,17.568184 7.39756694,17.6275824 7.20468945,17.6423327 L7.20396283,17.6437054 Z M9.09664893,16.0400507 C8.99260758,16.1141792 8.8850004,16.147677 8.77382739,16.1405441 C8.66265439,16.1334112 8.58473775,16.0851833 8.54007747,15.9958603 L8.49518845,15.9067527 C8.48046764,15.8768214 8.47310724,15.8471188 8.47310724,15.817645 L8.47310724,15.7285374 C8.47310724,15.6838827 8.48046764,15.6468184 8.49518845,15.6173447 L8.54007747,15.528237 C8.55479827,15.4983057 8.57712169,15.4759783 8.6070477,15.4612549 L8.67401793,15.3721473 C8.79279355,15.2828108 8.90776113,15.2457466 9.01892068,15.2609545 C9.13008022,15.2761624 9.20799686,15.3355608 9.25267058,15.4391496 C9.2973174,15.4985547 9.31583952,15.5653147 9.30823692,15.6394298 C9.30063432,15.7135449 9.27831091,15.7841002 9.24126669,15.8510957 C9.20422246,15.9180913 9.15600309,15.9812849 9.09660856,16.0406766 L9.09664893,16.0400507 Z M17.0022848,11.38449 C17.0916054,11.38449 17.1733166,11.3621626 17.2474185,11.3175079 C17.3215204,11.2728531 17.3809082,11.2172635 17.4255819,11.1507389 C17.4702557,11.0842144 17.4999529,11.0136591 17.5146737,10.939073 C17.5293945,10.9243496 17.5367549,10.9020222 17.5367549,10.8720909 C17.7148981,9.17911321 17.1210537,8.21384112 15.7552216,7.9762746 C15.3542614,7.9021461 14.9829985,7.89478439 14.6414328,7.95418947 C14.5373915,7.95418947 14.4483198,7.98007658 14.374218,8.03185079 C14.3001161,8.08362501 14.2369337,8.15038507 14.1846708,8.23213098 C14.1324079,8.31387689 14.1065254,8.39916909 14.1070233,8.48800757 C14.1070233,8.63672216 14.159044,8.76287385 14.2630853,8.86646264 C14.3671267,8.97005143 14.493256,9.02208135 14.6414732,9.02255239 C15.7996935,8.75504109 16.4232217,9.12636998 16.5120579,10.1365391 C16.5419839,10.3888425 16.5270209,10.6264224 16.4671689,10.849279 C16.4671689,10.9979936 16.5191895,11.1241453 16.6232309,11.2277341 C16.7272722,11.3313229 16.8534015,11.3833528 17.0016188,11.3838238 L17.0022848,11.38449 Z M16.623897,5.10389603 C15.9706782,4.95518144 15.0946492,4.98488398 13.9958099,5.19300365 C13.9810891,5.19300365 13.9661261,5.20036536 13.9509209,5.21508878 L13.9288397,5.25998578 L13.9067585,5.28207089 C13.7433361,5.32672565 13.6096042,5.4196218 13.5055628,5.56075934 C13.4015215,5.70189689 13.3495008,5.85417795 13.3495008,6.01760251 C13.3495008,6.2404456 13.4238449,6.42599565 13.572533,6.57425266 C13.7212212,6.72250967 13.8993779,6.79686696 14.1070031,6.79732454 L14.1739734,6.79732454 C14.1886942,6.79732454 14.222186,6.78996283 14.2744489,6.77523941 C14.3267118,6.76051599 14.3822915,6.7493523 14.4411882,6.74174835 C14.5000849,6.73414441 14.5632673,6.71917874 14.6307354,6.69685136 C14.6982035,6.67452397 14.7575913,6.6521966 14.8088988,6.62986923 C14.8602063,6.60754186 14.9604463,6.59637816 15.1096189,6.59637815 C15.2587915,6.59637814 15.4407428,6.60754183 15.6554727,6.62986923 C15.8702027,6.65219662 16.1077405,6.70778627 16.368086,6.79663817 C16.6284316,6.88549007 16.8882928,6.99691161 17.1476696,7.13090281 C17.4070464,7.264894 17.6669075,7.45044405 17.9272531,7.68755296 C18.1875987,7.92466186 18.413968,8.19929936 18.6063611,8.51146544 C18.9926005,9.38765682 19.0669446,10.2341457 18.8293934,11.0509319 C18.8293934,11.0656554 18.8255988,11.080621 18.8180097,11.0958289 C18.8104205,11.1110368 18.7992588,11.1481011 18.7845246,11.2070217 C18.7697903,11.2659423 18.7548273,11.3215319 18.7396355,11.3737906 C18.7244437,11.4260493 18.7094807,11.4928094 18.6947465,11.5740708 C18.6800123,11.6553323 18.6726518,11.7258876 18.6726653,11.7857368 C18.6726653,11.9192569 18.7097229,12.0306785 18.7838383,12.1200014 C18.8579536,12.2093244 18.9508333,12.272518 19.0624773,12.3095822 C19.1741212,12.3466465 19.3040585,12.3651719 19.4522892,12.3651584 C19.8679837,12.3651584 20.1128818,12.1126128 20.1869837,11.6075215 C20.3651269,11.0283017 20.465367,10.475218 20.4877039,9.94827045 C20.5100407,9.42132286 20.472983,8.95734006 20.3765309,8.55632206 C20.2800787,8.15530406 20.1354205,7.78040871 19.9425565,7.43163601 C19.7496925,7.08286331 19.526889,6.78589171 19.274146,6.5407212 C19.021403,6.2955507 18.7392117,6.07270761 18.427572,5.87219193 C18.1159324,5.67167625 17.8152122,5.51202676 17.5254115,5.39324348 C17.2356109,5.27446019 16.9348907,5.17800431 16.6232511,5.10387584 L16.623897,5.10389603 Z" id="Shape" fill="#777777" fill-rule="nonzero"></path>
                    <rect id="Rectangle" fill="#D8D8D8" opacity="0" x="0" y="0" width="22" height="22"></rect>
                </g>
            </g>
        </g>
    </g>
</svg>