<?xml version="1.0" encoding="UTF-8"?>
<svg width="22px" height="22px" viewBox="0 0 22 22" version="1.1" xmlns="http://www.w3.org/2000/svg" xmlns:xlink="http://www.w3.org/1999/xlink">
    <!-- Generator: Sketch 50 (54983) - http://www.bohemiancoding.com/sketch -->
    <title>a_29</title>
    <desc>Created with Sketch.</desc>
    <defs></defs>
    <g id="开发资源" stroke="none" stroke-width="1" fill="none" fill-rule="evenodd">
        <g id="开发文档" transform="translate(-331.000000, -1617.000000)">
            <g id="Group-17" transform="translate(331.000000, 1617.000000)">
                <g id="反馈填写">
                    <path d="M19.1797871,4.36768009 C18.3315664,3.68910724 16.2958478,3.85877378 13.4967512,5.97927894 C9.51013799,8.94804216 7.72889126,12.849794 5.18426641,16.666778 C4.76016538,17.2605269 5.43873823,17.5998227 5.9476632,17.3453508 L7.55926205,16.4123062 C7.81373387,16.3274822 7.89853914,16.3274822 7.81373387,15.9033999 C7.64408599,14.6310781 8.15302963,13.4435803 8.91640775,12.4257304 C11.7155044,13.6132282 15.1083687,12.9346367 16.2958852,9.54179107 C17.8226601,9.20249531 19.2646484,7.50607252 19.5191015,6.31859337 C19.7735734,5.47037264 19.6887494,4.70699451 19.1798244,4.36769875 L19.1797871,4.36768009 Z M2.13069792,16.666778 C4.42086962,20.6533912 9.42535139,22.0105182 13.4119272,19.7203652 C16.041376,18.1935902 17.4833457,15.4792988 17.5681696,12.6802022 C17.5681696,11.7471575 16.4654957,11.8319814 16.4654957,12.6802022 C16.4654957,15.1400218 15.1931739,17.4302121 12.9030022,18.7873392 C9.42533272,20.7382338 5.01461853,19.5507359 3.06372392,16.1578904 C1.02800537,12.6802208 2.21550319,8.26950664 5.69317271,6.31861203 C7.55924338,5.21593815 9.84941509,5.04629027 11.7154858,5.80970573 C12.4788825,6.06417755 12.8181596,5.04630894 12.0547628,4.79183712 C9.84939642,4.02844033 7.38961417,4.11326427 5.18424774,5.38558603 C1.19763458,7.67575773 -0.159492455,12.7650634 2.13066058,16.6668153 L2.13069792,16.666778 Z" id="Shape" fill="#666666" fill-rule="nonzero"></path>
                    <rect id="Rectangle" fill="#D8D8D8" opacity="0" x="0" y="0" width="22" height="22"></rect>
                </g>
            </g>
        </g>
    </g>
</svg>