<?xml version="1.0" encoding="UTF-8"?>
<svg width="16px" height="16px" viewBox="0 0 16 16" version="1.1" xmlns="http://www.w3.org/2000/svg" xmlns:xlink="http://www.w3.org/1999/xlink">
    <!-- Generator: Sketch 50 (54983) - http://www.bohemiancoding.com/sketch -->
    <title>a_32</title>
    <desc>Created with Sketch.</desc>
    <defs></defs>
    <g id="开发资源" stroke="none" stroke-width="1" fill="none" fill-rule="evenodd">
        <g id="开发文档" transform="translate(-450.000000, -1622.000000)">
            <g id="ic/add_circle/grey600LV" transform="translate(450.000000, 1622.000000)">
                <g id="ic_add_circle_24px">
                    <polygon id="Shape" points="0 0 16 0 16 16 0 16"></polygon>
                    <path d="M8,0 C3.584,0 0,3.584 0,8 C0,12.416 3.584,16 8,16 C12.416,16 16,12.416 16,8 C16,3.584 12.416,0 8,0 Z M11.2,8.8 L8.8,8.8 L8.8,11.2 C8.8,11.6418278 8.4418278,12 8,12 L8,12 C7.5581722,12 7.2,11.6418278 7.2,11.2 L7.2,8.8 L4.8,8.8 C4.3581722,8.8 4,8.4418278 4,8 L4,8 C4,7.5581722 4.3581722,7.2 4.8,7.2 L7.2,7.2 L7.2,4.8 C7.2,4.3581722 7.5581722,4 8,4 L8,4 C8.4418278,4 8.8,4.3581722 8.8,4.8 L8.8,7.2 L11.2,7.2 C11.6418278,7.2 12,7.5581722 12,8 L12,8 C12,8.4418278 11.6418278,8.8 11.2,8.8 Z" id="Shape" fill="#99A5A0" fill-rule="nonzero"></path>
                </g>
            </g>
        </g>
    </g>
</svg>