<?xml version="1.0" encoding="UTF-8"?>
<svg width="16px" height="16px" viewBox="0 0 16 16" version="1.1" xmlns="http://www.w3.org/2000/svg" xmlns:xlink="http://www.w3.org/1999/xlink">
    <!-- Generator: Sketch 50 (54983) - http://www.bohemiancoding.com/sketch -->
    <title>a_34</title>
    <desc>Created with Sketch.</desc>
    <defs></defs>
    <g id="开发资源" stroke="none" stroke-width="1" fill="none" fill-rule="evenodd">
        <g id="开发文档" transform="translate(-529.000000, -1621.000000)">
            <g id="ic/create/grey600-copy" transform="translate(523.000000, 1618.000000)">
                <g id="ic_create_24px">
                    <polygon id="Shape" points="0 0 24 0 24 24 0 24"></polygon>
                    <path d="M9.23906169,12.9683925 L9.23906169,13.0493984 C9.23906169,13.5516644 9.64622872,13.9588314 10.1484947,13.9588314 L10.2295006,13.9588314 C10.7599336,13.9588314 11.2686414,13.7481177 11.6437141,13.373045 L16.4223699,8.59438922 L14.6035039,6.7755232 L9.82484813,11.554179 C9.44977537,11.9292517 9.23906169,12.4379595 9.23906169,12.9683925 Z M17.8289596,7.19073759 L16.941353,8.07834421 L15.122487,6.25947819 L16.0100936,5.37187157 C16.1992557,5.1827095 16.5048252,5.1827095 16.6939872,5.37187157 L17.8289596,6.50684397 C18.0181217,6.69600603 18.0181217,7.00157552 17.8289596,7.19073759 Z M16.8152366,19.0000005 C15.7704286,18.9288356 14.8966593,18.179383 14.6672213,17.1575971 C14.4925859,16.3804696 14.2131693,16.3804696 14.0996563,16.3804696 C13.7678491,16.3804696 13.5932137,16.5813003 13.165357,17.2536466 C12.7503683,18.2507965 11.8067938,18.927194 10.7291933,19.0000005 C9.66050153,18.918919 8.7095157,18.2915325 8.21444367,17.3409643 C7.74292812,16.6511545 7.50717034,16.3804696 7.11424071,16.3804696 C6.87848294,16.3804696 6.24106377,16.3804696 5.63857167,17.6378444 C5.46271381,18.0418748 5.01337746,18.2515651 4.59075933,18.1268235 C4.36237812,18.0487607 4.1764939,17.8796504 4.07724443,17.6596474 C3.97799496,17.4396444 3.97423348,17.1883734 4.06685316,16.9654982 C4.90510304,15.0619724 6.15374607,14.6341157 7.11424071,14.6341157 C8.18852899,14.7123877 9.14460038,15.344255 9.63772209,16.3018837 C10.0743106,16.9567664 10.3449954,17.2536466 10.7291933,17.2536466 C11.1133911,17.2536466 11.2530994,17.0528159 11.6809562,16.3804696 C12.0898263,15.3860262 13.0270717,14.7093146 14.0996563,14.6341157 C15.1748291,14.6741775 16.0817465,15.4474059 16.2913304,16.5027144 C16.5707471,17.2274513 16.6406012,17.2274513 16.8152366,17.2274513 C17.1819709,17.2274513 17.4963146,16.8170581 17.9329031,16.1883707 C18.1846586,15.8161103 18.477566,15.4734086 18.8060801,15.1667537 C19.0820634,14.9307965 19.4752683,14.8902589 19.7935873,15.0649461 C20.1119062,15.2396333 20.2888981,15.5930838 20.2380902,15.9526129 C20.2099026,16.1459833 20.1176649,16.3243094 19.9761372,16.4590556 C19.7595068,16.6832339 19.5664008,16.9290052 19.3998404,17.1925242 C18.8060801,17.9434564 18.1162703,19.0000005 16.8152366,19.0000005 Z" id="Combined-Shape" fill-opacity="0.48" fill="#FFFFFF" fill-rule="nonzero"></path>
                </g>
            </g>
            <g id="tianmao-copy" transform="translate(529.000000, 1621.000000)">
                <g id="tianmao">
                    <rect id="Rectangle-5" fill="#000000" opacity="0" x="0" y="0" width="16" height="16"></rect>
                    <path d="M13.4413184,12.8654397 C13.4413184,13.3186336 13.5649167,13.7203281 13.8121134,14.0705234 C14.0593101,14.4207187 14.3786057,14.6782152 14.7700005,14.843013 C14.7082013,14.8533128 14.6464021,14.8610377 14.584603,14.8661877 C14.5228038,14.8713376 14.4610046,14.8739126 14.3992055,14.8739126 L2.36381806,14.8739126 C2.03422252,14.8739126 1.72780166,14.8121134 1.44455548,14.6885151 C1.16130931,14.5649167 0.911537685,14.394969 0.695240607,14.178672 C0.478943529,13.9623749 0.308995825,13.7100283 0.185397495,13.4216322 C0.0617991651,13.1332361 5.36022312e-17,12.8242403 0,12.4946447 L0.0154497913,1 L13.4413184,1 L13.4413184,12.8654397 Z M11.4482953,3.75006285 L4.68128676,3.75006285 L4.14054406,3.75006285 L3.58435158,3.75006285 C3.26505589,3.72946313 3.02300916,3.60071486 2.85821139,3.36381806 C2.74491292,3.4874164 2.64448927,3.62903948 2.55694046,3.78868732 C2.46939164,3.94833517 2.41016744,4.11570791 2.37926786,4.29080554 C2.31746869,4.65130067 2.368968,4.95514657 2.53376577,5.20234323 C2.69856354,5.44953989 2.93031041,5.58343808 3.22900638,5.6040378 L5.88637048,5.6040378 L4.63493738,12.5564439 L6.53526171,12.5564439 L7.7866948,5.6040378 L11.0466008,5.6040378 L11.4482953,3.75006285 Z" id="Shape" fill="#D01818" fill-rule="nonzero"></path>
                </g>
            </g>
        </g>
    </g>
</svg>