<?xml version="1.0" encoding="UTF-8"?>
<svg width="22px" height="22px" viewBox="0 0 22 22" version="1.1" xmlns="http://www.w3.org/2000/svg" xmlns:xlink="http://www.w3.org/1999/xlink">
    <!-- Generator: Sketch 50 (54983) - http://www.bohemiancoding.com/sketch -->
    <title>a_42</title>
    <desc>Created with Sketch.</desc>
    <defs></defs>
    <g id="开发资源" stroke="none" stroke-width="1" fill="none" fill-rule="evenodd">
        <g id="开发文档" transform="translate(-330.000000, -1697.000000)">
            <g id="Group-3-Copy-8" transform="translate(330.000000, 1697.000000)">
                <g>
                    <rect id="Rectangle-3" fill="#D8D8D8" opacity="0" x="0" y="0" width="22" height="22"></rect>
                    <path d="M20.4957086,11.7823375 C20.9238834,11.1236071 21.0720977,10.4978131 20.9403517,9.93789223 C20.7921373,9.36150308 20.3639625,8.93332828 20.0345973,8.73570914 C19.7546368,8.57102653 19.4252716,8.48868522 19.0959064,8.48868522 L16.5103893,8.48868522 C16.115151,8.48868522 15.7528493,8.29106608 15.5387619,7.97816911 C15.3246745,7.64880388 15.2752697,7.25356561 15.4399523,6.89126385 C15.7528493,6.18312861 15.8845954,5.12915987 15.9010636,4.75038986 C15.9010636,3.53173851 15.6046349,2.67538891 15.044714,2.28015064 C14.4353884,1.83550758 13.6613801,2.03312671 13.4308244,2.11546802 C12.8873718,2.28015064 12.7556257,2.79066674 12.5909431,3.81169895 C12.5580066,4.04225462 12.5086018,4.27281028 12.459197,4.50336594 C12.1463,5.98550947 11.4216965,7.36884344 10.384196,8.4557487 C9.82427515,9.03213785 9.23141773,9.52618569 8.6056238,9.88848744 C8.3915364,10.0037653 8.177449,10.1190431 7.94689334,10.2013844 L7.94689334,18.6660708 C8.77030641,18.6990073 9.44550513,18.9130947 10.2030452,19.1601187 C11.3722917,19.5388887 12.8214987,20 15.5387619,20 L15.5716984,20 C16.9385641,20 17.9431281,19.687103 18.4865807,19.1107139 C18.9970968,18.5672613 18.9806285,17.9414673 18.9806285,17.8920625 C18.947692,17.6450386 19.0794381,17.4144829 19.2935255,17.2827369 C19.7217003,17.0357129 19.9687242,16.722816 20.0510655,16.3934507 C20.1828116,15.8664664 19.8699147,15.339482 19.8534464,15.3065455 C19.6558273,15.0101168 19.7381686,14.6313468 20.0345973,14.4172594 C20.4792403,14.1208306 20.7262643,13.8079337 20.775669,13.4621002 C20.8580103,13.0009889 20.5451134,12.5892823 20.5286451,12.5563458 C20.3474942,12.3093219 20.3474942,12.0128932 20.4957086,11.7823375 Z M4.04391536,10.5801544 L4.04391536,18.4849199 C4.04391536,18.5837295 3.9451058,18.929563 4.04391536,18.929563 L6.15185283,18.929563 L6.15185283,10.4648766 L4.20859798,10.4154718 C4.10978841,10.4154718 4.04391536,10.4813449 4.04391536,10.5801544 Z" id="Shape" fill="#ACB8B3" fill-rule="nonzero"></path>
                </g>
            </g>
        </g>
    </g>
</svg>