<?xml version="1.0" encoding="UTF-8"?>
<svg width="24px" height="24px" viewBox="0 0 24 24" version="1.1" xmlns="http://www.w3.org/2000/svg" xmlns:xlink="http://www.w3.org/1999/xlink">
    <!-- Generator: Sketch 50 (54983) - http://www.bohemiancoding.com/sketch -->
    <title>a_44</title>
    <desc>Created with Sketch.</desc>
    <defs></defs>
    <g id="开发资源" stroke="none" stroke-width="1" fill="none" fill-rule="evenodd">
        <g id="开发文档" transform="translate(-414.000000, -1693.000000)">
            <g id="iOS" transform="translate(414.000000, 1693.000000)">
                <g>
                    <rect id="Rectangle-6" fill="#D8D8D8" opacity="0" x="0" y="0" width="24" height="24"></rect>
                    <path d="M18.3559414,12.7503543 C18.3257162,9.70981557 20.8404584,8.25289077 20.9522919,8.18049699 C19.5407719,6.1172743 17.3403724,5.833732 16.5545155,5.80055153 C14.6805489,5.61353427 12.9002807,6.90154025 11.9512073,6.90154025 C11.0021339,6.90154025 9.5362084,5.83071561 7.98262966,5.85786327 C5.94242412,5.88802736 4.05938995,7.04331139 3.00755064,8.8682379 C0.885736867,12.5422222 2.46349583,17.9838212 4.53090413,20.9610153 C5.54042806,22.4179401 6.74641622,24.0558494 8.32719771,23.9985376 C9.8505512,23.9382095 10.4248313,23.0151888 12.2655501,23.0151888 C14.1062689,23.0151888 14.6231209,23.9985376 16.2371502,23.9683735 C17.8753597,23.9382094 18.9151089,22.4812847 19.9185878,21.0183271 C21.079238,19.3261225 21.5567973,17.6882132 21.584,17.6067702 C21.5477297,17.5886718 18.3861667,16.3821088 18.3559414,12.7503543 Z M15.3273696,3.83083745 C16.1676321,2.81430815 16.7328446,1.40564587 16.5786957,0 C15.369685,0.0482625233 13.9037595,0.802364389 13.0362944,1.81587729 C12.259505,2.7177831 11.5764139,4.15359304 11.7607881,5.52907485 C13.108835,5.63464909 14.4871072,4.84435035 15.3273696,3.83083745 Z" id="Shape" fill="#1F1F1F" fill-rule="nonzero"></path>
                </g>
            </g>
        </g>
    </g>
</svg>