<?xml version="1.0" encoding="UTF-8"?>
<svg width="24px" height="24px" viewBox="0 0 24 24" version="1.1" xmlns="http://www.w3.org/2000/svg" xmlns:xlink="http://www.w3.org/1999/xlink">
    <!-- Generator: Sketch 50 (54983) - http://www.bohemiancoding.com/sketch -->
    <title>a_45</title>
    <desc>Created with Sketch.</desc>
    <defs></defs>
    <g id="开发资源" stroke="none" stroke-width="1" fill="none" fill-rule="evenodd">
        <g id="开发文档" transform="translate(-459.000000, -1696.000000)">
            <g id="安卓" transform="translate(459.000000, 1696.000000)">
                <g>
                    <rect id="Rectangle-7" fill="#D8D8D8" opacity="0" x="0" y="0" width="24" height="24"></rect>
                    <path d="M3.47319935,7.76208131 C2.65863415,7.76208131 2,8.42537967 2,9.24336951 L2,15.4474357 C2,16.2654256 2.66096148,16.9287239 3.47319935,16.9287239 C4.28776455,16.9287239 4.9463987,16.2654256 4.9463987,15.4474357 L4.9463987,9.24336951 C4.9463987,8.42537967 4.28776455,7.76208131 3.47319935,7.76208131 Z M5.51659434,17.6553052 C5.51659434,18.5295464 6.22177507,19.2373772 7.08986885,19.2373772 L8.16276758,19.2373772 L8.16276758,22.5187118 C8.16276758,23.3367016 8.82372906,24 9.63596693,24 C10.4505321,24 11.1091663,23.3367016 11.1091663,22.5187118 L11.1091663,19.2373772 L13.0990327,19.2373772 L13.0990327,22.5187118 C13.0990327,23.3367016 13.7599942,24 14.5722321,24 C15.3867973,24 16.0454314,23.3367016 16.0454314,22.5187118 L16.0454314,19.2373772 L17.1183301,19.2373772 C17.9864239,19.2373772 18.6916046,18.5295464 18.6916046,17.6553052 L18.6916046,8.04099476 L5.51659434,8.04099476 L5.51659434,17.6553052 Z M15.3588693,2.1885001 L16.3875488,0.304076514 C16.4434047,0.205636476 16.4061674,0.0790707126 16.3060923,0.0251630727 C16.2083444,-0.0287445673 16.0826687,0.00641258919 16.0291401,0.107196438 L14.988824,2.01037051 C14.1160755,1.62129798 13.1385973,1.40332361 12.1052632,1.40332361 C11.071929,1.40332361 10.0944508,1.62129798 9.22170234,2.0080267 L8.18138622,0.107196438 C8.12785765,0.00641258919 8.00218187,-0.0287445673 7.90443405,0.0251630727 C7.80435889,0.0790707126 7.76712163,0.205636476 7.82297753,0.304076514 L8.85165701,2.1885001 C6.83153531,3.23852718 5.4653931,5.23545367 5.4653931,7.52535646 L18.7428089,7.52535646 C18.7451332,5.23310986 17.378991,3.23852718 15.3588693,2.1885001 Z M9.08438992,5.1088879 C8.77718248,5.1088879 8.52815826,4.85810019 8.52815826,4.54871721 C8.52815826,4.23933423 8.77718248,3.98854652 9.08438992,3.98854652 C9.39159737,3.98854652 9.64062159,4.23933423 9.64062159,4.54871721 C9.63829426,4.85810019 9.38927004,5.1088879 9.08438992,5.1088879 Z M15.1284637,5.1088879 C14.8212563,5.1088879 14.5722321,4.85810019 14.5722321,4.54871721 C14.5722321,4.23933423 14.8212563,3.98854652 15.1284637,3.98854652 C15.4356712,3.98854652 15.6846954,4.23933423 15.6846954,4.54871721 C15.6823681,4.85810019 15.4333438,5.1088879 15.1284637,5.1088879 Z M20.737327,7.76208131 C19.9227618,7.76208131 19.2641276,8.42537967 19.2641276,9.24336951 L19.2641276,15.4474357 C19.2641276,16.2654256 19.9250891,16.9287239 20.737327,16.9287239 C21.5518922,16.9287239 22.2105263,16.2654256 22.2105263,15.4474357 L22.2105263,9.24336951 C22.2105263,8.42537967 21.5518922,7.76208131 20.737327,7.76208131 Z" id="Shape" fill="#99CD00" fill-rule="nonzero"></path>
                </g>
            </g>
        </g>
    </g>
</svg>