<?xml version="1.0" encoding="UTF-8"?>
<svg width="18px" height="18px" viewBox="0 0 18 18" version="1.1" xmlns="http://www.w3.org/2000/svg" xmlns:xlink="http://www.w3.org/1999/xlink">
    <!-- Generator: Sketch 50 (54983) - http://www.bohemiancoding.com/sketch -->
    <title>a_46</title>
    <desc>Created with Sketch.</desc>
    <defs></defs>
    <g id="开发资源" stroke="none" stroke-width="1" fill="none" fill-rule="evenodd">
        <g id="开发文档" transform="translate(-504.000000, -1701.000000)">
            <g id="xin" transform="translate(504.000000, 1701.000000)">
                <g id="Group">
                    <rect id="Rectangle" fill="#D8D8D8" opacity="0" x="0" y="0" width="18" height="18"></rect>
                    <path d="M8.75043055,4.28736279 C9.16597841,3.75218496 9.60671099,3.2692196 10.0726283,2.83846671 C10.4755838,2.48603252 10.9320568,2.16623114 11.4420474,1.87906254 C11.9520379,1.59189395 12.4840651,1.46788933 13.0381289,1.50704868 C13.8188552,1.57231427 14.4705098,1.76484776 14.9930927,2.08464915 C15.5156756,2.40445054 15.9312235,2.80909719 16.2397363,3.29858911 C16.5482491,3.78808103 16.7591711,4.34283854 16.8725024,4.96286164 C16.9858336,5.58288474 17.0236107,6.21922424 16.9858336,6.87188013 C16.9480565,7.52453602 16.8378734,8.1478224 16.6552842,8.74173926 C16.472695,9.33565613 16.2460325,9.89041364 15.9752968,10.4060118 C15.704561,10.9216099 15.4054925,11.3980488 15.0780911,11.8353282 C14.7506898,12.2726076 14.4232885,12.6674645 14.0958871,13.0198986 C13.5921927,13.5550765 13.0664617,14.0543582 12.5186941,14.5177439 C11.9709265,14.9811296 11.4483435,15.3792497 10.9509454,15.7121042 C10.4535472,16.0449587 10.0002222,16.3092844 9.59097054,16.5050811 C9.18171886,16.7008779 8.86376178,16.7987763 8.63709931,16.7987763 C8.38525212,16.8118294 8.06414696,16.7204576 7.67378382,16.5246608 C7.28342068,16.328864 6.85528046,16.0645384 6.38936316,15.7316839 C5.92344586,15.3988294 5.43234385,15.0039726 4.91605711,14.5471134 C4.39977037,14.0902543 3.88977982,13.607289 3.38608544,13.0982174 C3.0586841,12.7718894 2.70609804,12.393349 2.32832725,11.9625961 C1.95055647,11.5318432 1.59482232,11.0586677 1.26112479,10.5430695 C0.92742727,10.0274714 0.640951093,9.46945059 0.401696265,8.86900716 C0.162441436,8.26856374 0.0302216626,7.62896097 0.00503694376,6.95019884 C-0.020147775,6.27143671 0.0491102017,5.63509721 0.212810874,5.04118035 C0.376511546,4.44726348 0.622062554,3.91534893 0.949463899,3.44543669 C1.27686524,2.97552444 1.67982074,2.58066763 2.1583304,2.26086624 C2.63684006,1.94106485 3.17831151,1.71589857 3.78274476,1.58536739 C4.08496139,1.5201018 4.38717802,1.51031196 4.68939464,1.55599788 C4.99161127,1.60168379 5.28753171,1.6800025 5.57715598,1.790954 C5.86678024,1.9019055 6.14381215,2.04222652 6.4082517,2.21191705 C6.67269125,2.38160758 6.92453843,2.55782467 7.16379326,2.74056832 C7.71785708,3.17132121 8.24673617,3.68691937 8.75043055,4.28736279 Z" id="Shape" fill="#ACB8B3" fill-rule="nonzero"></path>
                </g>
            </g>
        </g>
    </g>
</svg>