<?xml version="1.0" encoding="UTF-8"?>
<svg width="24px" height="24px" viewBox="0 0 24 24" version="1.1" xmlns="http://www.w3.org/2000/svg" xmlns:xlink="http://www.w3.org/1999/xlink">
    <!-- Generator: Sketch 50 (54983) - http://www.bohemiancoding.com/sketch -->
    <title>a_48</title>
    <desc>Created with Sketch.</desc>
    <defs></defs>
    <g id="开发资源" stroke="none" stroke-width="1" fill="none" fill-rule="evenodd">
        <g id="开发文档" transform="translate(-622.000000, -1699.000000)">
            <g id="ic/lock/grey600" transform="translate(622.000000, 1699.000000)">
                <g id="ic_lock_24px">
                    <polygon id="Shape" points="0 0 24 0 24 24 0 24"></polygon>
                    <path d="M17,9 L16.1428571,9 L16.1428571,7.28571429 C16.1428571,4.92 14.2228571,3 11.8571429,3 C9.49142857,3 7.57142857,4.92 7.57142857,7.28571429 L7.57142857,9 L6.71428571,9 C5.77142857,9 5,9.77142857 5,10.7142857 L5,18.2857143 C5,19.2285714 5.77142857,20 6.71428571,20 L17,20 C17.9428571,20 18.7142857,19.2285714 18.7142857,18.2857143 L18.7142857,10.7142857 C18.7142857,9.77142857 17.9428571,9 17,9 Z M14.5142857,9 L9.2,9 L9.2,7.28571429 C9.2,5.82 10.3914286,4.62857143 11.8571429,4.62857143 C13.3228571,4.62857143 14.5142857,5.82 14.5142857,7.28571429 L14.5142857,9 Z" id="Shape" fill="#99A5A0" fill-rule="nonzero"></path>
                </g>
            </g>
        </g>
    </g>
</svg>