<?xml version="1.0" encoding="UTF-8"?>
<svg width="18px" height="18px" viewBox="0 0 18 18" version="1.1" xmlns="http://www.w3.org/2000/svg" xmlns:xlink="http://www.w3.org/1999/xlink">
    <!-- Generator: Sketch 50 (54983) - http://www.bohemiancoding.com/sketch -->
    <title>a_54</title>
    <desc>Created with Sketch.</desc>
    <defs></defs>
    <g id="开发资源" stroke="none" stroke-width="1" fill="none" fill-rule="evenodd">
        <g id="开发文档" transform="translate(-838.000000, -1705.000000)">
            <g id="ic/refresh/grey600" transform="translate(838.000000, 1705.000000)">
                <g id="ic_refresh_24px">
                    <path d="M13.2375,4.7625 C12.15,3.675 10.6575,3 9,3 C5.685,3 3.0075,5.685 3.0075,9 C3.0075,12.315 5.685,15 9,15 C11.7975,15 14.13,13.0875 14.7975,10.5 L13.2375,10.5 C12.6225,12.2475 10.9575,13.5 9,13.5 C6.5175,13.5 4.5,11.4825 4.5,9 C4.5,6.5175 6.5175,4.5 9,4.5 C10.245,4.5 11.355,5.0175 12.165,5.835 L9.75,8.25 L15,8.25 L15,3 L13.2375,4.7625 Z" id="Shape" fill="#999999" fill-rule="nonzero"></path>
                    <polygon id="Shape" points="0 0 18 0 18 18 0 18"></polygon>
                </g>
            </g>
        </g>
    </g>
</svg>