<?xml version="1.0" encoding="UTF-8"?>
<svg width="12px" height="12px" viewBox="0 0 12 12" version="1.1" xmlns="http://www.w3.org/2000/svg" xmlns:xlink="http://www.w3.org/1999/xlink">
    <!-- Generator: Sketch 49.2 (51160) - http://www.bohemiancoding.com/sketch -->
    <title>a_16</title>
    <desc>Created with Sketch.</desc>
    <defs></defs>
    <g id="开发资源" stroke="none" stroke-width="1" fill="none" fill-rule="evenodd">
        <g id="开发文档" transform="translate(-641.000000, -1558.000000)">
            <g id="图标" transform="translate(0.000000, 1459.000000)">
                <g id="Group-2" transform="translate(647.000000, 105.000000) rotate(90.000000) translate(-647.000000, -105.000000) translate(641.000000, 99.000000)">
                    <path d="M4.18813133,4.05207418 C4.12542557,3.99256464 4.07839391,3.92455247 4.04703635,3.84803766 C4.01567878,3.77152285 4,3.69394521 4,3.61530474 C4,3.53666427 4.01567878,3.46014946 4.04703635,3.38576031 C4.07839391,3.31137116 4.12542557,3.24442181 4.18813133,3.18491227 C4.31354753,3.06163742 4.46359948,3 4.63828717,3 C4.81297486,3 4.9630268,3.06163742 5.08844301,3.18491227 L7.58106718,5.56960753 C7.64377294,5.62061889 7.68856477,5.68437975 7.71544268,5.76089011 C7.7423206,5.83740047 7.75351973,5.9181666 7.74904007,6.00318849 C7.74456042,6.08821038 7.72440433,6.17216277 7.6885718,6.25504566 C7.65273927,6.33792855 7.60347012,6.40912921 7.54076437,6.46864765 L5.08845004,8.81508773 C4.96303383,8.93836258 4.81298189,9 4.6382942,9 C4.46360651,9 4.31355456,8.93836258 4.18813836,8.81508773 C4.1254326,8.75557819 4.07840094,8.68862884 4.04704338,8.61423969 C4.01568581,8.53985054 4.00000703,8.46333573 4.00000703,8.38469526 C4.00000703,8.30605479 4.01568581,8.22847715 4.04704338,8.15196234 C4.07840094,8.07544753 4.1254326,8.00743536 4.18813836,7.94792582 L6.21716774,6.00318182 L4.18813133,4.05207418 Z" id="Shape" fill="#FFFFFF" fill-rule="nonzero"></path>
                    <rect id="Rectangle-8" fill="#D8D8D8" opacity="0" x="0" y="0" width="12" height="12"></rect>
                </g>
            </g>
        </g>
    </g>
</svg>