<?xml version="1.0" encoding="UTF-8"?>
<svg width="14px" height="14px" viewBox="0 0 14 14" version="1.1" xmlns="http://www.w3.org/2000/svg" xmlns:xlink="http://www.w3.org/1999/xlink">
    <!-- Generator: Sketch 49.2 (51160) - http://www.bohemiancoding.com/sketch -->
    <title>a_22</title>
    <desc>Created with Sketch.</desc>
    <defs></defs>
    <g id="开发资源" stroke="none" stroke-width="1" fill="none" fill-rule="evenodd">
        <g id="开发文档" transform="translate(-836.000000, -1559.000000)">
            <g id="图标" transform="translate(0.000000, 1459.000000)">
                <g id="11" transform="translate(836.000000, 100.000000)">
                    <path d="M2.5,9 C1.67157288,9 1,8.32842712 1,7.5 C1,6.67157288 1.67157288,6 2.5,6 C3.32842712,6 4,6.67157288 4,7.5 C4,8.32842712 3.32842712,9 2.5,9 Z M7.5,9 C6.67157288,9 6,8.32842712 6,7.5 C6,6.67157288 6.67157288,6 7.5,6 C8.32842712,6 9,6.67157288 9,7.5 C9,8.32842712 8.32842712,9 7.5,9 Z M12.5,9 C11.6715729,9 11,8.32842712 11,7.5 C11,6.67157288 11.6715729,6 12.5,6 C13.3284271,6 14,6.67157288 14,7.5 C14,8.32842712 13.3284271,9 12.5,9 Z" id="Combined-Shape" fill="#33CC99"></path>
                    <rect id="Rectangle-14" fill="#D8D8D8" opacity="0" x="0" y="0" width="14" height="14"></rect>
                </g>
            </g>
        </g>
    </g>
</svg>