<?xml version="1.0" encoding="UTF-8"?>
<svg width="15px" height="15px" viewBox="0 0 15 15" version="1.1" xmlns="http://www.w3.org/2000/svg" xmlns:xlink="http://www.w3.org/1999/xlink">
    <!-- Generator: Sketch 50 (54983) - http://www.bohemiancoding.com/sketch -->
    <title>a_6</title>
    <desc>Created with Sketch.</desc>
    <defs></defs>
    <g id="开发资源" stroke="none" stroke-width="1" fill="none" fill-rule="evenodd">
        <g id="开发文档" transform="translate(-306.000000, -1557.000000)" fill="#33CC99" fill-rule="nonzero">
            <path d="M317.137935,1569.54835 C315.975017,1570.41954 314.530794,1570.93556 312.966079,1570.93556 C309.11882,1570.93556 306,1567.81597 306,1563.96778 C306,1560.11958 309.11882,1557 312.966079,1557 C316.813338,1557 319.932157,1560.11958 319.932157,1563.96778 C319.932157,1565.53287 319.416266,1566.97745 318.545295,1568.14065 L320.7098,1570.30568 C321.096643,1570.69262 321.097902,1571.31871 320.706561,1571.71015 C320.317929,1572.09887 319.682239,1572.09328 319.302439,1571.71339 L317.137935,1569.54835 Z M312.966079,1568.94476 C315.714121,1568.94476 317.941849,1566.71649 317.941849,1563.96778 C317.941849,1561.21907 315.714121,1558.99079 312.966079,1558.99079 C310.218037,1558.99079 307.990308,1561.21907 307.990308,1563.96778 C307.990308,1566.71649 310.218037,1568.94476 312.966079,1568.94476 Z" id="Shape"></path>
        </g>
    </g>
</svg>