<?xml version="1.0" encoding="UTF-8"?>
<svg width="28px" height="28px" viewBox="0 0 28 28" version="1.1" xmlns="http://www.w3.org/2000/svg" xmlns:xlink="http://www.w3.org/1999/xlink">
    <!-- Generator: Sketch 50 (54983) - http://www.bohemiancoding.com/sketch -->
    <title>a_8</title>
    <desc>Created with Sketch.</desc>
    <defs></defs>
    <g id="开发资源" stroke="none" stroke-width="1" fill="none" fill-rule="evenodd">
        <g id="开发文档" transform="translate(-377.000000, -1550.000000)">
            <g id="Group-19" transform="translate(377.000000, 1550.000000)">
                <rect id="Rectangle-20-Copy-6" stroke="#ECF1F3" fill="#FFFFFF" opacity="0" x="0.5" y="0.5" width="27" height="27" rx="5"></rect>
                <path d="M11,9 L21,9 L21,11 L11,11 L11,9 Z M11,13 L21,13 L21,15 L11,15 L11,13 Z M11,17 L21,17 L21,19 L11,19 L11,17 Z M7,9 L9,9 L9,11 L7,11 L7,9 Z M7,13 L9,13 L9,15 L7,15 L7,13 Z M7,17 L9,17 L9,19 L7,19 L7,17 Z" id="Combined-Shape" fill="#666666"></path>
            </g>
        </g>
    </g>
</svg>