<?xml version="1.0" encoding="UTF-8"?>
<svg width="22px" height="22px" viewBox="0 0 22 22" version="1.1" xmlns="http://www.w3.org/2000/svg" xmlns:xlink="http://www.w3.org/1999/xlink">
    <!-- Generator: Sketch 50 (54983) - http://www.bohemiancoding.com/sketch -->
    <title>b_1</title>
    <desc>Created with Sketch.</desc>
    <defs>
        <linearGradient x1="50%" y1="0%" x2="50%" y2="100%" id="linearGradient-1">
            <stop stop-color="#474747" offset="0%"></stop>
            <stop stop-color="#222222" offset="100%"></stop>
        </linearGradient>
    </defs>
    <g id="开发资源" stroke="none" stroke-width="1" fill="none" fill-rule="evenodd">
        <g id="开发文档" transform="translate(-120.000000, -1501.000000)">
            <g id="五角星空" transform="translate(120.000000, 1501.000000)">
                <path d="M17.0966499,22 C16.9053104,22 16.7313655,21.9478673 16.5574205,21.8609795 L11.686962,19.1848341 C11.478228,19.0805687 11.2520996,19.0110585 11.0259712,19.0110585 C10.7998427,19.0110585 10.5737143,19.0631912 10.3649804,19.1848341 L5.49452179,21.8609795 C5.32057684,21.9478673 5.14663189,22 4.95529245,22 C4.62479704,22 4.29430164,21.8436019 4.06817321,21.5829384 C3.82465028,21.3048973 3.73767781,20.9399684 3.78986129,20.5576619 L4.72916401,14.892575 C4.81613649,14.4233807 4.65958603,13.9368088 4.32909063,13.6066351 L0.363145795,9.57503949 C0.027968091,9.23736592 -0.0866200197,8.73905603 0.0674393819,8.28909953 C0.206595341,7.85466035 0.571879734,7.54186414 1.00674211,7.47235387 L6.45121901,6.63823065 C6.90347588,6.56872038 7.30354926,6.27330174 7.5122832,5.83886256 L9.94751248,0.677725118 C10.1562464,0.24328594 10.5389253,0 11.0085767,0 C11.4608335,0 11.8609069,0.260663507 12.0522464,0.677725118 L14.4874757,5.83886256 C14.6962096,6.27330174 15.096283,6.56872038 15.5485398,6.63823065 L20.9930167,7.47235387 C21.4278791,7.54186414 21.7931635,7.83728278 21.9323195,8.28909953 C22.0888699,8.74091627 21.9671085,9.24486572 21.6366131,9.57503949 L17.6880627,13.5892575 C17.3575673,13.9194313 17.2010169,14.4060032 17.2879893,14.8751975 L18.2272921,20.5402844 C18.29687,20.9225908 18.1925031,21.2875197 17.9489801,21.5655608 C17.7576407,21.8436019 17.4445398,22 17.0966499,22 Z M11.0238076,17.5867305 C11.4203354,17.5867305 11.8003411,17.685766 12.1473029,17.867331 L17.0378122,20.5577947 L16.9056362,20.2606883 L16.9056362,20.2441824 L16.0299707,14.8632551 C15.8977948,14.0874772 16.1456247,13.2951934 16.6908504,12.7504983 L20.4413422,8.93763266 C20.4909082,8.88811492 20.5074302,8.80558536 20.4743862,8.73956171 L20.4743862,8.67353807 L15.1873492,7.86474838 C14.4108157,7.749207 13.749936,7.25402964 13.4029742,6.52776951 L11.0238076,1.47696045 L8.62811894,6.52776951 C8.28115714,7.25402964 7.62027751,7.749207 6.84374395,7.86474838 L1.47409699,8.69004398 L1.58975093,8.80558536 C1.58975093,8.83859719 1.60627292,8.88811492 1.6393169,8.93763266 L5.38980878,12.7504983 C5.93503447,13.2951934 6.18286433,14.0874772 6.0506884,14.8632551 L5.15850091,20.2441824 L5.15850091,20.3267119 L5.19154489,20.4752651 L9.91683421,17.8838369 C10.247274,17.685766 10.6272798,17.5867305 11.0238076,17.5867305 Z" id="Shape" fill="url(#linearGradient-1)" fill-rule="nonzero"></path>
                <circle id="Oval-3" fill="#23B16C" cx="11" cy="12" r="2"></circle>
            </g>
        </g>
    </g>
</svg>