<?xml version="1.0" encoding="UTF-8"?>
<svg width="22px" height="22px" viewBox="0 0 22 22" version="1.1" xmlns="http://www.w3.org/2000/svg" xmlns:xlink="http://www.w3.org/1999/xlink">
    <!-- Generator: Sketch 50 (54983) - http://www.bohemiancoding.com/sketch -->
    <title>b_12</title>
    <desc>Created with Sketch.</desc>
    <defs></defs>
    <g id="开发资源" stroke="none" stroke-width="1" fill="none" fill-rule="evenodd">
        <g id="开发文档" transform="translate(-583.000000, -1500.000000)">
            <g id="Group-10" transform="translate(583.000000, 1500.000000)">
                <rect id="Rectangle-2" fill-opacity="0" fill="#000000" x="0" y="0" width="22" height="22"></rect>
                <g id="排名靠前-01" transform="translate(0.000000, 1.000000)">
                    <path d="M20.7414568,2 L8.67602089,2 C7.98858873,2 7.42624109,2.45003827 7.42624109,2.99991496 C7.42624109,3.54979166 7.98880182,4 8.67602089,4 L20.7414568,4 C21.4291021,4 21.9912366,3.54996173 21.9912366,2.99991496 C21.9912366,2.44986819 21.428889,2 20.7414568,2 Z M20.7414568,9 L8.67602089,9 C7.98858873,9 7.42624109,9.45007655 7.42624109,9.9998299 C7.42624109,10.5497534 7.98880182,11 8.67602089,11 L20.7414568,11 C21.4291021,11 21.9912366,10.5499235 21.9912366,9.9998299 C21.9912366,9.45007655 21.428889,9 20.7414568,9 Z M20.7414568,16 L8.67602089,16 C7.98858873,16 7.42624109,16.4500383 7.42624109,16.999915 C7.42624109,17.5497917 7.98880182,18 8.67602089,18 L20.7414568,18 C21.4291021,18 21.9912366,17.5499617 21.9912366,16.999915 C21.9912366,16.4498682 21.428889,16 20.7414568,16 Z" id="Shape" fill="#333333" fill-rule="nonzero"></path>
                    <path d="M4.79392568,1.62288913 L3.72591268,1.46754566 C3.6408893,1.449646 3.56737284,1.39445539 3.53711388,1.32328294 L3.06447764,0.31131291 C2.88356322,-0.0829057889 2.35339237,-0.0829057889 2.17205176,0.312165267 L1.70154642,1.3192342 C1.656158,1.40404449 1.58775573,1.45944819 1.51551782,1.46690639 L0.44516081,1.62246297 C0.032616286,1.69107832 -0.130185387,2.20675899 0.16409353,2.51382338 L0.933778888,3.29054075 C0.995788422,3.35532046 1.02519501,3.44226166 1.00985244,3.5213185 L0.823397646,4.62236064 C0.757339387,5.05280483 1.18629194,5.37862126 1.55003859,5.17170973 L2.50191691,4.65602906 C2.57905593,4.61149299 2.65747347,4.61149299 2.7316292,4.65432432 L3.68883482,5.17298828 C4.05023746,5.37862128 4.47919001,5.05280485 4.41355792,4.62449157 L4.22731623,3.52430179 C4.21943187,3.43821294 4.24713371,3.34892775 4.30445525,3.28904912 L5.07115732,2.51531501 C5.36671479,2.20697208 5.20412622,1.69150449 4.79392568,1.62288913 Z" id="Path" fill="#23B16C"></path>
                    <path d="M4.79392568,8.45416632 L3.72591268,8.29882284 C3.6408893,8.2807101 3.56737284,8.22551947 3.53711388,8.15456013 L3.06447764,7.1425901 C2.88356322,6.74815831 2.35339237,6.74815831 2.17205176,7.14344245 L1.70154642,8.15051138 C1.656158,8.23532168 1.58775573,8.29072537 1.51551782,8.29818357 L0.44516081,8.45374015 C0.032616286,8.52235551 -0.130185387,9.03803618 0.16409353,9.34467438 L0.933778888,10.1213917 C0.995788422,10.1859584 1.02519501,10.2731127 1.00985244,10.3519564 L0.823397646,11.4532117 C0.757339387,11.8836558 1.18629194,12.2094723 1.55003859,12.0025607 L2.50191691,11.4868801 C2.57905593,11.442344 2.65747347,11.442344 2.7316292,11.4851753 L3.68883482,12.0038393 C4.05023746,12.2094723 4.47919001,11.8836558 4.41355792,11.4553426 L4.22731623,10.3549397 C4.21943187,10.269064 4.24713371,10.1797787 4.30445525,10.1199001 L5.07115732,9.34637911 C5.36671479,9.03803618 5.20412622,8.52235551 4.79392568,8.45416632 Z" id="Path" fill="#F5A623"></path>
                    <path d="M4.79392568,15.559905 L3.72591268,15.4045615 C3.6408893,15.3866618 3.56737284,15.3314712 3.53711388,15.2602988 L3.06447764,14.2483287 C2.88356322,13.85411 2.35339237,13.85411 2.17205176,14.2493942 L1.70154642,15.2564631 C1.656158,15.3412734 1.58775573,15.396464 1.51551782,15.4039222 L0.44516081,15.5594788 C0.032616286,15.6283072 -0.130185387,16.1437748 0.16409353,16.4508392 L0.933778888,17.2275566 C0.995788422,17.2923363 1.02519501,17.3794906 1.00985244,17.4583343 L0.823397646,18.5593765 C0.757339387,18.9898207 1.18629194,19.3156371 1.55003859,19.1087255 L2.50191691,18.593258 C2.57905593,18.5485088 2.65747347,18.5485088 2.7316292,18.5913402 L3.68883482,19.1100041 C4.05023746,19.3156371 4.47919001,18.9898207 4.41355792,18.5615074 L4.22731623,17.4613176 C4.21943187,17.3752287 4.24713371,17.2859436 4.30445525,17.2260649 L5.07115732,16.4523308 C5.36671479,16.1437748 5.20412622,15.6283072 4.79392568,15.559905 Z" id="Path" fill="#F58023"></path>
                </g>
            </g>
        </g>
    </g>
</svg>