<?xml version="1.0" encoding="UTF-8"?>
<svg width="23px" height="23px" viewBox="0 0 23 23" version="1.1" xmlns="http://www.w3.org/2000/svg" xmlns:xlink="http://www.w3.org/1999/xlink">
    <!-- Generator: Sketch 50 (54983) - http://www.bohemiancoding.com/sketch -->
    <title>b_14</title>
    <desc>Created with Sketch.</desc>
    <defs></defs>
    <g id="开发资源" stroke="none" stroke-width="1" fill="none" fill-rule="evenodd">
        <g id="开发文档" transform="translate(-668.000000, -1500.000000)">
            <g id="Group" transform="translate(668.000000, 1500.000000)">
                <rect id="Rectangle" fill="#D8D8D8" opacity="0" x="0" y="0" width="22" height="22"></rect>
                <path d="M18.8464004,18.8442 L14.5343935,14.5321931 C14.0723989,14.9941877 13.5157854,15.302176 12.9283901,15.4605832 L14.5079883,21.3543887 C13.7005979,21.5699829 12.857976,21.6799804 12,21.6799804 C11.142024,21.6799804 10.3016025,21.5677824 9.49421218,21.3543887 L11.0738103,15.4605832 C10.4842146,15.3043764 9.92980152,14.9942122 9.46780689,14.5321931 L5.15580005,18.8442 C3.91059545,17.5989954 3.07459936,16.0942122 2.65221266,14.5036118 L8.54161721,12.9262141 C8.37883409,12.3187286 8.37883409,11.6790954 8.54161721,11.0716099 L2.65221266,9.49421218 C3.07459936,7.90361183 3.90841946,6.39880421 5.15362406,5.15362406 L9.4656309,9.4656309 C9.92762553,9.00363628 10.4820386,8.69564802 11.0716343,8.53724078 L9.49423663,2.64343535 C10.301627,2.43004156 11.142024,2.31784357 12.0000244,2.31784357 C12.8580249,2.31784357 13.6984219,2.43004156 14.5080127,2.64343535 L12.9284146,8.53724078 C13.5158098,8.69344758 14.0724234,9.00361183 14.534418,9.4656309 L18.8464248,5.15362406 C20.067449,6.37464826 20.9232246,7.8662288 21.3566135,9.49201174 L15.4606321,11.0716099 C15.6234152,11.6790954 15.6234152,12.3187286 15.4606321,12.9262141 L21.3544376,14.5058123 C20.9210487,16.1315952 20.0674246,17.6232246 18.8464493,18.8442 L18.8464004,18.8442 Z M19.7791914,4.22080861 C17.7001911,2.1440088 14.9391767,1 12,1 C9.06297482,1 6.29980885,2.1440088 4.22300905,4.22080861 C2.1440088,6.29760841 1,9.06082328 1,11.9977996 C1,14.9370007 2.1440088,17.6979907 4.22300905,19.776991 C6.29980885,21.8559912 9.06302372,22.9977996 12,22.9977996 C14.9392012,22.9977996 17.7001911,21.8537908 19.7791914,19.776991 C21.8581916,17.7001911 23,14.9369763 23,11.9977996 C23,9.06077438 21.8559912,6.29760841 19.7791914,4.22080861 Z" id="Shape" fill="#3B3B3B" fill-rule="nonzero"></path>
                <path d="M12.5829944,9.02339134 L12,6.18536152 L11.4610144,9.01676558 C10.8736192,9.12236225 10.3104288,9.40174479 9.855011,9.8549621 C8.67141873,11.0407793 8.67141873,12.9591718 9.855011,14.1427641 C11.0386277,15.3263564 12.9592207,15.3263564 14.142813,14.1427641 C15.3286302,12.9569469 15.3286302,11.0385544 14.142813,9.8549621 C13.7006223,9.41277144 13.155011,9.1333889 12.5830188,9.0233669 L12.5829944,9.02339134 Z" id="Path" fill="#33CC99"></path>
            </g>
        </g>
    </g>
</svg>