<?xml version="1.0" encoding="UTF-8"?>
<svg width="22px" height="22px" viewBox="0 0 22 22" version="1.1" xmlns="http://www.w3.org/2000/svg" xmlns:xlink="http://www.w3.org/1999/xlink">
    <!-- Generator: Sketch 50 (54983) - http://www.bohemiancoding.com/sketch -->
    <title>b_3</title>
    <desc>Created with Sketch.</desc>
    <defs></defs>
    <g id="开发资源" stroke="none" stroke-width="1" fill="none" fill-rule="evenodd">
        <g id="开发文档" transform="translate(-204.000000, -1501.000000)" fill-rule="nonzero">
            <g id="时间" transform="translate(204.000000, 1501.000000)">
                <path d="M19,18.00002 C19,18.5524141 18.5523986,19 18.00001,19 C17.4476014,19 17,18.5524141 17,18.00002 C17,17.4476658 17.4476014,17 18.00001,17 C18.5523986,17 19,17.4476658 19,18.00002" id="Shape" fill="#4159BB"></path>
                <path d="M15.5983931,19.3399881 C14.2023184,20.1114041 12.631838,20.5217817 10.9999935,20.5217817 C5.74123167,20.5217817 1.47821756,16.2587287 1.47821756,10.999972 C1.47821756,5.74119372 5.74123167,1.47814069 10.9999935,1.47814069 C16.2587985,1.47814069 20.5218342,5.74117217 20.5218342,10.999972 C20.5218342,12.7546422 20.0471526,14.4378693 19.1613883,15.9075688 C18.950639,16.257162 19.0632212,16.7112261 19.4128014,16.9219759 C19.7623949,17.1326992 20.2166405,17.020117 20.4273905,16.6705372 C21.4509574,14.9721129 22,13.0254782 22,10.9999784 C22,4.92483695 17.0751151,0 10.9999677,0 C4.92490643,0 0,4.9248585 0,10.9999784 C0,17.0750984 4.92488488,22 10.9999677,22 C12.8834257,22 14.6997246,21.5254482 16.31323,20.6336788 C16.6703876,20.4363194 16.8000701,19.9866524 16.6025541,19.62934 C16.4052076,19.2721697 15.9555529,19.1426425 15.5983694,19.3399902 L15.5983931,19.3399881 Z" id="Shape" fill="#242424"></path>
                <path d="M9.68920898,11.448236 L13.3242187,14.8067222 C13.6072584,15.0754643 14.3300781,15.2571411 14.6911926,14.9545593 C15.0523071,14.6519775 15.0080037,13.9782939 14.7249756,13.7095642 L11.4089038,10.9325644 L11.4089038,5.70888629 C11.4089038,5.31740495 10.9010012,5 10.5119629,5 C10.1229493,5.00001244 9.68920898,5.31741736 9.68920898,5.70888629 C9.59517745,9.44580562 9.59517745,11.3589222 9.68920898,11.448236 Z" id="Shape" fill="#F5A623"></path>
            </g>
        </g>
    </g>
</svg>