<?xml version="1.0" encoding="UTF-8"?>
<svg width="22px" height="22px" viewBox="0 0 22 22" version="1.1" xmlns="http://www.w3.org/2000/svg" xmlns:xlink="http://www.w3.org/1999/xlink">
    <!-- Generator: Sketch 50 (54983) - http://www.bohemiancoding.com/sketch -->
    <title>b_4</title>
    <desc>Created with Sketch.</desc>
    <defs>
        <linearGradient x1="50%" y1="0%" x2="50%" y2="100%" id="linearGradient-1">
            <stop stop-color="#F76F6F" offset="0%"></stop>
            <stop stop-color="#EB3C3C" offset="100%"></stop>
        </linearGradient>
    </defs>
    <g id="开发资源" stroke="none" stroke-width="1" fill="none" fill-rule="evenodd">
        <g id="开发文档" transform="translate(-246.000000, -1501.000000)">
            <g id="火热" transform="translate(246.000000, 1501.000000)">
                <path d="M20.920854,14.8437388 C20.920854,14.840547 20.9217199,14.8390052 20.9226167,14.8358675 L20.9217508,14.8358675 C21.1085042,13.6960743 21.0879703,11.690035 19.3843979,9.62697627 C17.3358928,7.14487352 17.1786105,5.98238614 17.0382439,4.95514404 L17.0105973,4.76674734 C16.9730549,4.49625675 16.7692002,4.26953153 16.476963,4.17258772 C16.1954258,4.07721273 15.8584717,4.12882235 15.6260736,4.30547973 C14.0718049,5.49690961 13.6062047,6.96975789 13.4381297,8.2221293 C11.6354131,4.85430516 11.9428651,2.03525229 12.0778199,0.800057025 C12.1037347,0.549095858 11.9830671,0.307520708 11.7560807,0.153530423 C11.5326198,0.00108192285 11.2170656,-0.041141658 10.9632367,0.041736652 C4.82124697,1.96019112 4.81054707,7.90941513 5.43618196,11.5258472 C4.36183162,10.7221926 3.53153797,9.35491681 3.22318913,8.691187 C3.09445016,8.41834314 2.79234809,8.24401197 2.42412929,8.23622184 C2.07378488,8.24403901 1.77168281,8.43633077 1.6537056,8.72405161 C1.62417265,8.79908568 -1.25286336,16.3290296 5.30298985,20.3223092 C7.37026611,21.4355673 9.45727224,22 11.5102614,22 C16.1730673,21.8186361 19.3477523,19.9173307 20.6759624,15.7802584 C20.6983208,15.7286758 20.8296884,15.3862618 20.920854,14.8437388 Z M11.5364676,20.723639 C9.7540102,20.723639 7.93237233,20.2276304 6.12707546,19.2547349 C3.78665962,17.8287927 2.55853281,15.7218872 2.47461979,12.991301 C2.45547121,12.3628743 2.50014071,11.7057236 2.60862824,11.0342797 C3.43652787,12.1268177 4.69743125,13.3470001 6.32398713,13.6117533 C6.60847115,13.6516249 6.89204035,13.573482 7.08806869,13.3964189 C7.28677849,13.2193833 7.37248964,12.9689508 7.31507545,12.7217466 L7.28586361,12.6037597 C6.6704595,10.0956269 5.75684872,4.08502609 10.2991608,1.73246164 C10.1715563,5.19354036 11.227346,8.29811974 13.5249851,11.2161164 C13.733695,11.4808972 14.1239221,11.6004845 14.4831707,11.506393 C14.8423878,11.4059275 15.0849153,11.1172237 15.0849153,10.7894485 L15.0849153,10.5908629 C15.0849153,9.09640781 15.0849153,7.67849518 15.7677968,6.50058497 C16.0294729,7.32599682 16.6020372,8.57562079 18.1647751,10.468875 C19.5032191,12.0917196 19.5670056,13.6643728 19.444827,14.5766744 C19.4429974,14.5846212 18.8658588,17.4236748 17.4161827,18.7252008 C17.2557385,18.8480165 17.0569656,18.9914992 16.8226401,19.1430666 C16.642101,19.2355854 16.528156,19.3090099 16.4488487,19.3727217 C15.3493044,20.0171246 13.6652713,20.7220662 11.5372878,20.7236665 L11.5364676,20.7236666 L11.5364676,20.723639 Z" id="Shape" fill="#242424" fill-rule="nonzero"></path>
                <path d="M11.3785689,11 C11.3642834,11.0116363 11.3486507,11.02374 11.3339589,11.0353764 C11.3141559,11.3551905 11.2993786,11.6753982 11.2724757,11.9951139 C11.2328699,12.4830027 11.1313746,12.9534 10.9329818,13.3909303 C10.6903854,13.9267666 10.284896,14.2600375 9.83545951,14.5250896 C9.35077984,14.8127993 9.04545988,15.2237112 9.00585404,15.8723927 C8.96460152,16.5395003 9.13893565,17.0999377 9.60640004,17.5099148 C10.0443953,17.8935441 10.5560634,18.0186652 11.0984624,17.9978035 C11.9644017,17.9653301 12.6095577,17.4919314 12.8681933,16.4949232 C13.0539045,15.779376 13.0235799,15.0589332 12.8993519,14.3385888 C12.7295942,13.351175 12.4187568,12.43075 11.8868795,11.6241049 C11.737438,11.3987098 11.5487329,11.2073626 11.3785689,11" id="Path" fill="url(#linearGradient-1)" transform="translate(11.000000, 14.500000) scale(-1, 1) translate(-11.000000, -14.500000) "></path>
                <rect id="Rectangle" fill="#000000" opacity="0" x="0" y="0" width="22" height="22"></rect>
            </g>
        </g>
    </g>
</svg>