<?xml version="1.0" encoding="UTF-8"?>
<svg width="22px" height="22px" viewBox="0 0 22 22" version="1.1" xmlns="http://www.w3.org/2000/svg" xmlns:xlink="http://www.w3.org/1999/xlink">
    <!-- Generator: Sketch 50 (54983) - http://www.bohemiancoding.com/sketch -->
    <title>b_7</title>
    <desc>Created with Sketch.</desc>
    <defs></defs>
    <g id="开发资源" stroke="none" stroke-width="1" fill="none" fill-rule="evenodd">
        <g id="开发文档" transform="translate(-372.000000, -1500.000000)">
            <g id="Group-22" transform="translate(372.000000, 1500.000000)"></g>
            <g id="Group-10" transform="translate(372.000000, 1500.000000)">
                <rect id="Rectangle-2" fill-opacity="0" fill="#000000" x="0" y="0" width="22" height="22"></rect>
                <path d="M18.661347,19.5950295 L3.44723191,19.5950295 L3.44723191,15.3688864 C3.44723191,14.9020796 3.06881017,14.5236578 2.6020033,14.5236578 L2.6020033,14.5236578 C2.13519643,14.5236578 1.75677468,14.9020796 1.75677468,15.3688864 L1.75677468,21.2854867 L20.3518042,21.2854867 L20.3518042,15.3688864 C20.3518042,14.9020796 19.9733825,14.5236578 19.5065756,14.5236578 L19.5065756,14.5236578 C19.0397687,14.5236578 18.661347,14.9020796 18.661347,15.3688864 L18.661347,19.5950295 Z M21.8732157,7.42373747 C21.70417,6.9166003 19.5065756,2.69045723 18.661347,1 L3.44723191,1 C1.30598609,5.28249165 0.179014605,7.64913177 0.0663174562,8.09992036 C-0.102728267,8.94514898 0.0663174562,9.79037759 0.404408902,10.4665605 C1.08059179,11.8189263 2.43295758,12.6641549 3.78532336,12.8332006 C5.13768914,13.0022463 6.82814637,12.3260634 7.67337499,11.1427434 C8.5186036,12.1570177 9.70192366,12.8332006 11.0542894,12.8332006 C12.4066552,12.8332006 13.5899753,12.1570177 14.4352039,11.1427434 C15.4494782,12.4951092 17.3089812,13.171292 18.8303927,12.6641549 C20.5208499,12.3260634 21.70417,10.8046519 21.8732157,9.1141947 C22.0422614,8.60705753 22.0422614,7.93087464 21.8732157,7.42373747 Z M16.2947069,10.6356062 C15.4494782,9.95942331 15.1113868,8.77610325 15.2804325,7.76182892 L13.5899753,7.76182892 C13.9280667,8.94514898 13.2518838,10.2975148 12.2376095,10.8046519 C11.0542894,11.4808348 9.53287794,10.9736976 8.85669505,9.95942331 C8.5186036,9.28324042 8.5186036,8.43801181 8.5186036,7.76182892 L6.82814637,7.76182892 C6.82814637,8.60705753 6.82814637,9.28324042 6.3210092,9.95942331 C5.81387203,10.9736976 4.29246053,11.4808348 3.27818619,10.9736976 C2.26391185,10.4665605 1.58772896,9.1141947 1.75677468,7.93087464 C1.86947183,7.59278319 2.8273976,5.84597739 4.63055197,2.69045723 L17.4780269,2.69045723 C18.1542098,4.04282301 18.9994384,5.22614307 19.6756213,6.57850886 C20.0137128,7.08564602 20.1827585,7.59278319 20.3518042,8.09992036 C20.3518042,9.339589 19.9573642,10.2411662 19.1684841,10.8046519 C18.3232555,11.3117891 16.9708897,11.1427434 16.2947069,10.6356062 Z" id="Shape" fill="#333333" fill-rule="nonzero"></path>
                <circle id="Oval" fill="#EB3C3C" cx="8.5" cy="16.5" r="1.5"></circle>
                <circle id="Oval" fill="#FF9F00" cx="13.5" cy="16.5" r="1.5"></circle>
            </g>
        </g>
    </g>
</svg>