<?xml version="1.0" encoding="UTF-8"?>
<svg width="22px" height="22px" viewBox="0 0 22 22" version="1.1" xmlns="http://www.w3.org/2000/svg" xmlns:xlink="http://www.w3.org/1999/xlink">
    <!-- Generator: Sketch 50 (54983) - http://www.bohemiancoding.com/sketch -->
    <title>b_8</title>
    <desc>Created with Sketch.</desc>
    <defs>
        <linearGradient x1="100%" y1="50%" x2="0%" y2="50%" id="linearGradient-1">
            <stop stop-color="#FF5A2A" offset="0%"></stop>
            <stop stop-color="#5128D1" offset="100%"></stop>
        </linearGradient>
    </defs>
    <g id="开发资源" stroke="none" stroke-width="1" fill="none" fill-rule="evenodd">
        <g id="开发文档" transform="translate(-414.000000, -1500.000000)">
            <g id="Group-10" transform="translate(414.000000, 1500.000000)">
                <rect id="Rectangle-2" fill-opacity="0.684584466" fill="#000000" opacity="0" x="0" y="0" width="22" height="22"></rect>
                <path d="M17.6705947,18.4348631 L4.32200375,18.4348631 C3.92584732,18.4348631 3.58950596,18.151925 3.52033135,17.7620728 L1.58699247,6.78396553 C1.52717742,6.44745204 1.68747317,6.10796931 1.98306283,5.93818491 C2.2817078,5.7685081 2.65269026,5.80306313 2.91357428,6.02308787 L6.98790496,9.49076906 L10.3141386,4.34426422 C10.6128481,3.8790838 11.3798579,3.8790838 11.6785029,4.34426422 L15.0046074,9.48760618 L19.0757967,6.01990347 C19.3367883,5.79673736 19.7109552,5.76536673 20.0064373,5.93502203 C20.3051037,6.10484946 20.4621936,6.44431067 20.4024646,6.78080265 L18.4722671,17.7651496 C18.403114,18.1519465 18.0666435,18.4348631 17.6705947,18.4348631 Z M5.00430422,16.8094427 L16.9883372,16.8094427 L18.4125811,8.72679306 L15.3536648,11.3298024 C15.1744133,11.4806956 14.9417155,11.5467288 14.7090393,11.5154012 C14.4765351,11.4806956 14.2720666,11.3486936 14.143163,11.1538428 L10.9962454,6.28407947 L7.84939241,11.1538428 C7.72035971,11.351878 7.5160418,11.483923 7.28340856,11.5154012 C7.04772002,11.5498917 6.81506526,11.4806956 6.63895509,11.3298024 L3.58003883,8.72677154 L5.0042827,16.8094427 L5.00430422,16.8094427 Z" id="Shape" fill="#333333" fill-rule="nonzero"></path>
                <path d="M0,3.37686127 C-6.93760414e-09,2.91128654 0.248381154,2.48107774 0.651580702,2.24829037 C1.05478025,2.015503 1.55154258,2.015503 1.95474213,2.24829037 C2.35794168,2.48107774 2.60632284,2.91128654 2.60632283,3.37686127 C2.60632284,3.84243601 2.35794168,4.27264482 1.95474213,4.50543219 C1.55154258,4.73821956 1.05478025,4.73821956 0.6515807,4.50543219 C0.248381151,4.27264482 -9.81125393e-09,3.84243601 2.00657433e-16,3.37686127 Z M9.73160878,1.30312914 C9.73160878,0.583430789 10.3158772,0 11.0366087,0 C11.7573403,0 12.3416087,0.583430789 12.3416087,1.30312914 C12.3416087,2.02282749 11.7573403,2.60625828 11.0366087,2.60625828 C10.3158772,2.60625828 9.73160878,2.02282749 9.73160878,1.30312914 Z M19.3936772,3.30263036 C19.3936772,2.58291418 19.9771224,1.99946894 20.6968386,1.99946894 C21.4165548,1.99946894 22,2.58291418 22,3.30263036 C22,4.02234653 21.4165548,4.60579177 20.6968386,4.60579177 C19.9771224,4.60579177 19.3936772,4.02234653 19.3936772,3.30263036 Z" id="Combined-Shape" fill="url(#linearGradient-1)"></path>
                <path d="M17.6921578,21.0630894 L4.32324471,21.0630894 C3.87295681,21.0630894 3.50774437,20.6984327 3.50774437,20.2488301 C3.50774437,19.7992274 3.87295681,19.4345922 4.32324471,19.4345922 L17.6922225,19.4345922 C18.1424673,19.4345922 18.5077444,19.7992274 18.5077444,20.2488301 C18.5077444,20.6984327 18.1424457,21.0630894 17.6921794,21.0630894 L17.6921578,21.0630894 Z" id="Path" fill="#333333"></path>
            </g>
        </g>
    </g>
</svg>