<?xml version="1.0" encoding="UTF-8"?>
<svg width="22px" height="22px" viewBox="0 0 22 22" version="1.1" xmlns="http://www.w3.org/2000/svg" xmlns:xlink="http://www.w3.org/1999/xlink">
    <!-- Generator: Sketch 50 (54983) - http://www.bohemiancoding.com/sketch -->
    <title>b_9</title>
    <desc>Created with Sketch.</desc>
    <defs></defs>
    <g id="开发资源" stroke="none" stroke-width="1" fill="none" fill-rule="evenodd">
        <g id="开发文档" transform="translate(-456.000000, -1500.000000)">
            <g id="Group-10" transform="translate(456.000000, 1500.000000)">
                <rect id="Rectangle-2" fill-opacity="0" fill="#000000" x="0" y="0" width="22" height="22"></rect>
                <g id="优惠券" fill-rule="nonzero">
                    <path d="M21.1697364,21.9833153 L0.830263629,21.9833153 C0.382795223,21.9833153 0.0166847277,21.6172048 0.0166847277,21.1697364 L0.0166847277,17.1018418 C0.0166847277,16.6543734 0.382795249,16.2882629 0.830263629,16.2882629 C1.50146623,16.2882629 2.05063198,15.7390972 2.05063201,15.0678946 C2.05063203,14.396692 1.50146625,13.8475262 0.830263629,13.8475262 C0.382795223,13.8475262 0.0166847277,13.4814157 0.0166847277,13.0339473 L0.0166847277,8.96605272 C0.0166847277,8.51858431 0.382795249,8.15247382 0.830263629,8.15247382 C1.50146623,8.15247382 2.05063198,7.60330806 2.05063201,6.93210544 C2.05063203,6.26090282 1.50146625,5.71173709 0.830263629,5.71173709 C0.382795223,5.71173709 0.0166847277,5.34562657 0.0166847277,4.89815819 L0.0166847277,0.830263629 C0.0166847277,0.382795223 0.382795249,0.0166847277 0.830263629,0.0166847277 L21.1697364,0.0166847277 C21.6172048,0.0166847277 21.9833153,0.382795249 21.9833153,0.830263629 L21.9833153,4.89815819 C21.9833153,5.34562659 21.6172048,5.71173709 21.1697364,5.71173709 C20.4985338,5.71173709 19.949368,6.26090285 19.949368,6.93210544 C19.949368,7.60330804 20.4985337,8.15247379 21.1697364,8.15247382 C21.6172048,8.15247382 21.9833153,8.51858434 21.9833153,8.96605272 L21.9833153,13.0339473 C21.9833153,13.4814157 21.6172048,13.8475262 21.1697364,13.8475262 C20.4985338,13.8475262 19.949368,14.3966919 19.949368,15.0678946 C19.949368,15.7390972 20.4985337,16.2882629 21.1697364,16.2882629 C21.6172048,16.2882629 21.9833153,16.6543734 21.9833153,17.1018418 L21.9833153,21.1697364 C21.9833153,21.6172048 21.6172048,21.9833153 21.1697364,21.9833153 Z M1.64384253,20.3561575 L20.3561575,20.3561575 L20.3561575,17.7933839 C19.176468,17.4476129 18.3222102,16.3492813 18.3222102,15.0678946 C18.3222102,13.7865078 19.176468,12.6881762 20.3561575,12.3424052 L20.3561575,9.65759481 C19.176468,9.31182378 18.3222102,8.21349224 18.3222102,6.93210544 C18.3222102,5.65071864 19.176468,4.55238713 20.3561575,4.2066161 L20.3561575,1.64384253 L1.64384253,1.64384253 L1.64384253,4.2066161 C2.82353195,4.55238713 3.67778981,5.65071867 3.67778981,6.93210544 C3.67778981,8.21349221 2.82353195,9.31182375 1.64384253,9.65759481 L1.64384253,12.3424052 C2.82353195,12.6881762 3.67778981,13.7865078 3.67778981,15.0678946 C3.67778981,16.3492814 2.82353195,17.4476129 1.64384253,17.7933839 L1.64384253,20.3561575 Z" id="Shape" fill="#333333"></path>
                    <path d="M8.96605272,0.830263629 L0.830263629,0.830263629 L0.830263629,4.89815819 C1.94893463,4.89815819 2.86421091,5.81343446 2.86421091,6.93210544 C2.86421091,8.05077642 1.94893463,8.96605272 0.830263629,8.96605272 L0.830263629,13.0339473 C1.94893463,13.0339473 2.86421091,13.9492236 2.86421091,15.0678946 C2.86421091,16.1865656 1.94893463,17.1018418 0.830263629,17.1018418 L0.830263629,21.1697364 L8.96605272,21.1697364" id="Shape" fill="#F3E0C0"></path>
                    <path d="M8.96605272,21.9833153 L0.830263629,21.9833153 C0.382795223,21.9833153 0.0166847277,21.6172048 0.0166847277,21.1697364 L0.0166847277,17.1018418 C0.0166847277,16.6543734 0.382795249,16.2882629 0.830263629,16.2882629 C1.50146623,16.2882629 2.05063198,15.7390972 2.05063201,15.0678946 C2.05063203,14.396692 1.50146625,13.8475262 0.830263629,13.8475262 C0.382795223,13.8475262 0.0166847277,13.4814157 0.0166847277,13.0339473 L0.0166847277,8.96605272 C0.0166847277,8.51858431 0.382795249,8.15247382 0.830263629,8.15247382 C1.50146623,8.15247382 2.05063198,7.60330806 2.05063201,6.93210544 C2.05063203,6.26090282 1.50146625,5.71173709 0.830263629,5.71173709 C0.382795223,5.71173709 0.0166847277,5.34562657 0.0166847277,4.89815819 L0.0166847277,0.830263629 C0.0166847277,0.382795223 0.382795249,0.0166847277 0.830263629,0.0166847277 L8.96605272,0.0166847277 C9.41352113,0.0166847277 9.77963162,0.382795249 9.77963165,0.830263629 C9.77963167,1.27773201 9.41352113,1.64384253 8.96605272,1.64384253 L1.64384253,1.64384253 L1.64384253,4.2066161 C2.82353195,4.55238713 3.67778981,5.65071867 3.67778981,6.93210544 C3.67778981,8.21349221 2.82353195,9.31182375 1.64384253,9.65759481 L1.64384253,12.3424052 C2.82353195,12.6881762 3.67778981,13.7865078 3.67778981,15.0678946 C3.67778981,16.3492814 2.82353195,17.4476129 1.64384253,17.7933839 L1.64384253,20.3561575 L8.96605272,20.3561575 C9.41352113,20.3561575 9.77963162,20.722268 9.77963165,21.1697364 C9.77963167,21.6172048 9.41352113,21.9833153 8.96605272,21.9833153 Z" id="Shape" fill="#333333"></path>
                    <path d="M8.96605272,1.84723728 L8.96605272,0.830263629" id="Shape" fill="#BFBFBF"></path>
                    <path d="M8.96605272,6.93210544 L8.96605272,4.89815819" id="Shape" fill="#F69900"></path>
                    <path d="M8,4.84752618 L8,2.81357893 C8,2.36611052 8.36611052,2.00000003 8.8135789,2 C9.26104728,1.99999997 9.6271578,2.36611052 9.62715783,2.81357893 L9.62715783,4.84752618 C9.62715783,5.29499459 9.26104731,5.66110508 8.8135789,5.66110511 C8.3661105,5.66110511 8,5.29499459 8,4.84752618 Z" id="Shape" fill="#FF891E"></path>
                    <path d="M8.96605272,12.0169736 L8.96605272,9.98302637" id="Shape" fill="#FF891E"></path>
                    <path d="M8.96605272,10.8305526 C8.51858431,10.8305526 8.15247382,10.464442 8.15247382,10.0169736 L8.15247382,7.98302637 C8.15247382,7.53555797 8.51858434,7.16944747 8.96605272,7.16944745 C9.4135211,7.16944742 9.77963162,7.53555797 9.77963165,7.98302637 L9.77963165,10.0169736 C9.77963165,10.464442 9.41352113,10.8305525 8.96605272,10.8305526 Z" id="Shape" fill="#FF891E"></path>
                    <path d="M8.96605272,17.1018418 L8.96605272,15.0678946" id="Shape" fill="#FF891E"></path>
                    <path d="M8.96605272,15.9154207 C8.51858431,15.9154207 8.15247382,15.5493102 8.15247382,15.1018418 L8.15247382,13.0678946 C8.15247382,12.6204262 8.51858434,12.2543157 8.96605272,12.2543156 C9.4135211,12.2543156 9.77963162,12.6204262 9.77963165,13.0678946 L9.77963165,15.1018418 C9.77963165,15.5493102 9.41352113,15.9154207 8.96605272,15.9154207 Z" id="Shape" fill="#FF891E"></path>
                    <path d="M8.96605272,19.9143157 C8.51858431,19.9143157 8.15247382,19.6483157 8.15247382,19.3232046 L8.15247382,17.8454268 C8.15247382,17.5203156 8.51858434,17.2543157 8.96605272,17.2543156 C9.4135211,17.2543156 9.77963162,17.5203156 9.77963165,17.8454268 L9.77963165,19.3232046 C9.77963165,19.6483157 9.41352113,19.9143157 8.96605272,19.9143157 Z" id="Shape" fill="#FF891E"></path>
                    <path d="M8.96605272,21.1697364 L8.96605272,20.1527627" id="Shape" fill="#F69900"></path>
                </g>
            </g>
        </g>
    </g>
</svg>