<?xml version="1.0" encoding="UTF-8"?>
<svg width="24px" height="24px" viewBox="0 0 24 24" version="1.1" xmlns="http://www.w3.org/2000/svg" xmlns:xlink="http://www.w3.org/1999/xlink">
    <!-- Generator: Sketch 50 (54983) - http://www.bohemiancoding.com/sketch -->
    <title>c_1</title>
    <desc>Created with Sketch.</desc>
    <defs></defs>
    <g id="开发资源" stroke="none" stroke-width="1" fill="none" fill-rule="evenodd">
        <g id="开发文档" transform="translate(-120.000000, -1747.000000)">
            <g id="ic/style/grey600" transform="translate(120.000000, 1747.000000)">
                <g id="ic_style_24px">
                    <path d="M4.27001408,18.0921053 L5.32790881,18.5342105 L5.32790881,11.4052632 L3.40948776,16.0315789 C3.08580355,16.8368421 3.47264566,17.7605263 4.27001408,18.0921053 Z M19.6647509,15.1710526 L15.7489614,5.72105263 C15.5042246,5.12894737 14.9279088,4.76578947 14.3200141,4.75 C14.1147509,4.75 13.901593,4.78157895 13.6963299,4.86842105 L7.87790881,7.27631579 C7.28580355,7.52105263 6.92264566,8.08947368 6.90685618,8.69736842 C6.89896145,8.91052632 6.93843513,9.12368421 7.02527724,9.32894737 L10.9410667,18.7789474 C11.1858036,19.3789474 11.7700141,19.7421053 12.3858036,19.75 C12.5910667,19.75 12.7963299,19.7105263 12.9936983,19.6315789 L18.8042246,17.2236842 C19.6094878,16.8921053 19.9963299,15.9684211 19.6647509,15.1710526 Z M8.49369829,9.48684211 C8.05948776,9.48684211 7.7042246,9.13157895 7.7042246,8.69736842 C7.7042246,8.26315789 8.05948776,7.90789474 8.49369829,7.90789474 C8.92790881,7.90789474 9.28317197,8.26315789 9.28317197,8.69736842 C9.28317197,9.13157895 8.92790881,9.48684211 8.49369829,9.48684211 Z M6.91475092,18.1710526 C6.91475092,19.0394737 7.62527724,19.75 8.49369829,19.75 L9.63843513,19.75 L6.91475092,13.1657895 L6.91475092,18.1710526 Z" id="Shape" fill="#99A5A0" fill-rule="nonzero"></path>
                    <polygon id="Shape" points="0 0 24 0 24 24 0 24"></polygon>
                </g>
            </g>
        </g>
    </g>
</svg>