<?xml version="1.0" encoding="UTF-8"?>
<svg width="24px" height="24px" viewBox="0 0 24 24" version="1.1" xmlns="http://www.w3.org/2000/svg" xmlns:xlink="http://www.w3.org/1999/xlink">
    <!-- Generator: Sketch 50 (54983) - http://www.bohemiancoding.com/sketch -->
    <title>c_10</title>
    <desc>Created with Sketch.</desc>
    <defs></defs>
    <g id="开发资源" stroke="none" stroke-width="1" fill="none" fill-rule="evenodd">
        <g id="开发文档" transform="translate(-483.000000, -1747.000000)">
            <g id="ic_palette_24px" transform="translate(483.000000, 1747.000000)">
                <g id="Shape">
                    <path d="M16.5808333,5 L6.54416667,5 C5.6875,5 5,5.69513073 5,6.55145119 L5,17.4485488 C5,18.3057088 5.69166667,19 6.54416667,19 L16.5808333,19 C17.4375,19 18.125,18.3048693 18.125,17.4485488 L18.125,6.55229072 C18.125,5.6942912 17.4341667,5 16.5808333,5 Z M8.1725,7.02914368 C8.8125,7.02914368 9.33083333,7.54713361 9.33083333,8.19609019 C9.33083333,8.84084912 8.81666667,9.3630367 8.1725,9.3630367 C7.5325,9.3630367 7.01416667,8.84504677 7.01416667,8.19609019 C7.01416667,7.55133125 7.52833333,7.02914368 8.1725,7.02914368 Z M11.7141667,15.8215399 L7.01416667,15.8215399 L7.01416667,15.0441353 L11.7141667,15.0441353 L11.7141667,15.8215399 Z M14.3991667,13.7923963 L7.01416667,13.7923963 L7.01416667,13.0149916 L14.3991667,13.0149916 L14.3991667,13.7923963 Z M14.3991667,11.7640921 L7.01416667,11.7640921 L7.01416667,10.9858479 L14.3991667,10.9858479 L14.3991667,11.7640921 Z" fill="#99A5A0" fill-rule="nonzero"></path>
                    <polygon points="0 0 24 0 24 24 0 24"></polygon>
                </g>
            </g>
        </g>
    </g>
</svg>