<?xml version="1.0" encoding="UTF-8"?>
<svg width="24px" height="24px" viewBox="0 0 24 24" version="1.1" xmlns="http://www.w3.org/2000/svg" xmlns:xlink="http://www.w3.org/1999/xlink">
    <!-- Generator: Sketch 50 (54983) - http://www.bohemiancoding.com/sketch -->
    <title>c_11</title>
    <desc>Created with Sketch.</desc>
    <defs></defs>
    <g id="开发资源" stroke="none" stroke-width="1" fill="none" fill-rule="evenodd">
        <g id="开发文档" transform="translate(-520.000000, -1746.000000)">
            <g id="ic_style_24px" transform="translate(520.000000, 1746.000000)">
                <g id="Shape">
                    <path d="M17.2676207,18.7747591 C15.9633103,19.1710349 13.8775862,19.2413798 11.6206897,19.2413798 C7.2804138,19.2413798 4,18.7261039 4,17.4827591 C4,15.1209315 6.26510345,13.0416556 9.52089656,12.4062074 C7.63120182,11.5548682 6.59257171,9.49953053 7.02807956,7.47318964 C7.46358741,5.44684874 9.25497325,3.99974738 11.3275862,4.00000046 C13.3793708,3.99907109 15.1589951,5.41744948 15.6157874,7.41773989 C16.0725798,9.41803031 15.085071,11.4683196 13.2362759,12.3581384 C13.7492069,12.4554487 14.2439655,12.5967246 14.7117586,12.7766901 C14.2360443,13.2045816 13.9647231,13.8145748 13.9655172,14.4544143 C13.9655172,16.6509315 16.0764483,17.9441039 17.2676207,18.7747591 Z M16.8045172,12.7931039 C17.3145172,12.7931039 17.7635517,13.0334487 18.0689655,13.399828 C18.3743793,13.0340349 18.824,12.7931039 19.3328276,12.7931039 C20.2502414,12.7931039 21,13.5487246 21,14.4784487 C21,16.385966 18.8767586,17.3860349 18.1604138,17.989828 L18.0689655,18.068966 L17.9775172,17.989828 C17.26,17.3854487 15.137931,16.385966 15.137931,14.4784487 C15.137931,13.5493108 15.8876897,12.7931039 16.8051034,12.7931039 L16.8045172,12.7931039 Z" fill="#99A5A0" fill-rule="nonzero"></path>
                    <polygon points="0 0 24 0 24 24 0 24"></polygon>
                </g>
            </g>
        </g>
    </g>
</svg>