<?xml version="1.0" encoding="UTF-8"?>
<svg width="24px" height="24px" viewBox="0 0 24 24" version="1.1" xmlns="http://www.w3.org/2000/svg" xmlns:xlink="http://www.w3.org/1999/xlink">
    <!-- Generator: Sketch 50 (54983) - http://www.bohemiancoding.com/sketch -->
    <title>c_3</title>
    <desc>Created with Sketch.</desc>
    <defs></defs>
    <g id="开发资源" stroke="none" stroke-width="1" fill="none" fill-rule="evenodd">
        <g id="开发文档" transform="translate(-208.000000, -1747.000000)">
            <g id="Group-4" transform="translate(208.000000, 1747.000000)">
                <g>
                    <g id="pl-s" transform="translate(4.000000, 4.000000)">
                        <g id="Group-23">
                            <path d="M5.22916504,1.09881327 C4.36342044,1.44617028 3.60879882,1.92254092 2.96527644,2.52793664 C2.32175407,3.13333042 1.81481718,3.8404416 1.44444682,4.64929113 C1.07407171,5.45813878 0.888888889,6.32404079 0.888888889,7.24702014 C0.888888889,7.7730195 0.951386069,8.28164255 1.07638993,8.77290662 C1.20138904,9.26417064 1.37962667,9.73309647 1.61111229,10.1796994 C1.84259318,10.6263043 2.12268563,11.0406453 2.45138963,11.4227395 C2.78009363,11.8048337 3.14814578,12.1447441 3.55555556,12.4424781 L3.55555556,14.8078643 C3.55555556,15.3678236 3.91853038,15.5855516 4.36484267,15.2951079 L6.66666667,13.7971689 C6.88888889,13.8368662 7.10879289,13.8666395 7.32638815,13.8864891 C7.5439834,13.9063387 7.76851911,13.9162625 8,13.9162625 C8.98148504,13.9162625 9.90508563,13.742586 10.770835,13.395227 C11.6365796,13.04787 12.3912012,12.5714994 13.0347236,11.9661036 C13.6782412,11.3607098 14.1851828,10.6535986 14.5555532,9.84474915 C14.9259283,9.0359015 15.1111111,8.16999949 15.1111111,7.24702014 C15.1111111,6.32404079 14.9259283,5.45813878 14.5555532,4.64929113 C14.1851828,3.8404416 13.6782412,3.13333042 13.0347236,2.52793664 C12.3912012,1.92254092 11.6365796,1.44617028 10.770835,1.09881327 C9.90508563,0.751454326 8.98148504,0.577777757 8,0.577777757 C7.01851496,0.577777757 6.09491438,0.751454326 5.22916504,1.09881327 Z M10.2222222,9.62889242 L5.77777778,9.62889242 C5.65740563,9.62889242 5.55324207,9.58175234 5.46527763,9.4874683 C5.37731318,9.39318615 5.33333333,9.28153734 5.33333333,9.15251796 C5.33333333,9.02349864 5.37731318,8.91184978 5.46527763,8.81756768 C5.55324207,8.72328359 5.65740563,8.67614351 5.77777778,8.67614351 L10.2222222,8.67614351 C10.3425944,8.67614351 10.4467579,8.72328359 10.5347224,8.81756768 C10.6226868,8.91184978 10.6666667,9.02349864 10.6666667,9.15251796 C10.6666667,9.28153734 10.6226868,9.39318615 10.5347224,9.4874683 C10.4467579,9.58175234 10.3425944,9.62889242 10.2222222,9.62889242 Z M11.1111111,6.77064568 L4.88888889,6.77064568 C4.76851674,6.77064568 4.66435318,6.7235056 4.57638874,6.62922157 C4.48842429,6.53493941 4.44444444,6.42329061 4.44444444,6.29427123 C4.44444444,6.16525185 4.48842429,6.05360304 4.57638874,5.95932088 C4.66435318,5.86503685 4.76851674,5.81789677 4.88888889,5.81789677 L11.1111111,5.81789677 C11.2314833,5.81789677 11.3356468,5.86503685 11.4236113,5.95932088 C11.5115757,6.05360304 11.5555556,6.16525185 11.5555556,6.29427123 C11.5555556,6.42329061 11.5115757,6.53493941 11.4236113,6.62922157 C11.3356468,6.7235056 11.2314833,6.77064568 11.1111111,6.77064568 Z" id="Shape" fill="#99A5A0" fill-rule="nonzero"></path>
                            <rect id="Rectangle-8-Copy" fill="#D8D8D8" opacity="0" x="0" y="0" width="16" height="16"></rect>
                        </g>
                    </g>
                    <rect id="Rectangle-20" fill="#D8D8D8" opacity="0" x="0" y="0" width="24" height="24"></rect>
                </g>
            </g>
        </g>
    </g>
</svg>