<?xml version="1.0" encoding="UTF-8"?>
<svg width="24px" height="24px" viewBox="0 0 24 24" version="1.1" xmlns="http://www.w3.org/2000/svg" xmlns:xlink="http://www.w3.org/1999/xlink">
    <!-- Generator: Sketch 50 (54983) - http://www.bohemiancoding.com/sketch -->
    <title>c_4</title>
    <desc>Created with Sketch.</desc>
    <defs></defs>
    <g id="开发资源" stroke="none" stroke-width="1" fill="none" fill-rule="evenodd">
        <g id="开发文档" transform="translate(-252.000000, -1747.000000)">
            <g id="ic/palette/grey600" transform="translate(252.000000, 1747.000000)">
                <g id="ic_palette_24px">
                    <path d="M11.5,5 C7.35833333,5 4,8.35833333 4,12.5 C4,16.6416667 7.35833333,20 11.5,20 C12.1916667,20 12.75,19.4416667 12.75,18.75 C12.75,18.425 12.625,18.1333333 12.425,17.9083333 C12.2333333,17.6916667 12.1083333,17.4 12.1083333,17.0833333 C12.1083333,16.3916667 12.6666667,15.8333333 13.3583333,15.8333333 L14.8333333,15.8333333 C17.1333333,15.8333333 19,13.9666667 19,11.6666667 C19,7.98333333 15.6416667,5 11.5,5 Z M6.91666667,12.5 C6.225,12.5 5.66666667,11.9416667 5.66666667,11.25 C5.66666667,10.5583333 6.225,10 6.91666667,10 C7.60833333,10 8.16666667,10.5583333 8.16666667,11.25 C8.16666667,11.9416667 7.60833333,12.5 6.91666667,12.5 Z M9.41666667,9.16666667 C8.725,9.16666667 8.16666667,8.60833333 8.16666667,7.91666667 C8.16666667,7.225 8.725,6.66666667 9.41666667,6.66666667 C10.1083333,6.66666667 10.6666667,7.225 10.6666667,7.91666667 C10.6666667,8.60833333 10.1083333,9.16666667 9.41666667,9.16666667 Z M13.5833333,9.16666667 C12.8916667,9.16666667 12.3333333,8.60833333 12.3333333,7.91666667 C12.3333333,7.225 12.8916667,6.66666667 13.5833333,6.66666667 C14.275,6.66666667 14.8333333,7.225 14.8333333,7.91666667 C14.8333333,8.60833333 14.275,9.16666667 13.5833333,9.16666667 Z M16.0833333,12.5 C15.3916667,12.5 14.8333333,11.9416667 14.8333333,11.25 C14.8333333,10.5583333 15.3916667,10 16.0833333,10 C16.775,10 17.3333333,10.5583333 17.3333333,11.25 C17.3333333,11.9416667 16.775,12.5 16.0833333,12.5 Z" id="Shape" fill="#99A5A0" fill-rule="nonzero"></path>
                    <polygon id="Shape" points="0 0 24 0 24 24 0 24"></polygon>
                </g>
            </g>
        </g>
    </g>
</svg>