<?xml version="1.0" encoding="UTF-8"?>
<svg width="24px" height="24px" viewBox="0 0 24 24" version="1.1" xmlns="http://www.w3.org/2000/svg" xmlns:xlink="http://www.w3.org/1999/xlink">
    <!-- Generator: Sketch 50 (54983) - http://www.bohemiancoding.com/sketch -->
    <title>c_8</title>
    <desc>Created with Sketch.</desc>
    <defs></defs>
    <g id="开发资源" stroke="none" stroke-width="1" fill="none" fill-rule="evenodd">
        <g id="开发文档" transform="translate(-408.000000, -1746.000000)">
            <g id="Group-19" transform="translate(408.000000, 1746.000000)">
                <g>
                    <rect id="Path" fill-opacity="0" fill="#000000" x="0" y="0" width="24" height="24" rx="5"></rect>
                    <path d="M18.5537914,11.8370455 C18.9668787,11.4236428 19.0939826,10.7876385 18.9033268,10.2470349 C18.7126711,9.67463113 18.2678078,9.26122838 17.6958406,9.16582773 L15.1537644,8.72062477 C14.8677808,8.65702435 14.6453491,8.49802329 14.5182453,8.24362159 L13.3107591,5.89040593 C13.0883274,5.31800212 12.5799122,5 12.007945,5 C11.4359778,5 10.9275626,5.31800212 10.641579,5.85860571 L9.46586874,8.21182139 C9.33876493,8.46622307 9.0845573,8.65702435 8.83034968,8.68882456 L6.28827343,9.13402752 C5.71630627,9.22942816 5.27144292,9.64283091 5.08078721,10.2152347 C4.8901315,10.7876385 5.04901125,11.3918426 5.43032269,11.8052453 L7.20977606,13.713258 C7.40043178,13.9040593 7.49575964,14.2220614 7.4639837,14.5082633 L7.08267225,17.1476809 C6.98734439,17.7200847 7.24155202,18.3242887 7.68641537,18.674091 C7.94062299,18.8648923 8.25838253,18.9920932 8.57614206,18.9920932 C8.79857374,18.9920932 9.05278135,18.9284927 9.24343707,18.8330921 L11.5630817,17.6564843 C11.8172893,17.5292834 12.1032729,17.5292834 12.3574805,17.6564843 L14.6771251,18.8330921 C15.1855403,19.0874938 15.7892834,19.0556936 16.2659227,18.7058912 C16.7107861,18.3560889 16.9649937,17.7836851 16.8696658,17.1794811 L16.5201304,14.5400635 C16.4883544,14.2538616 16.5836823,13.9676597 16.774338,13.7450582 L18.5537914,11.8370455 Z" id="Shape" fill="#99A5A0" fill-rule="nonzero"></path>
                </g>
            </g>
        </g>
    </g>
</svg>