<?xml version="1.0" encoding="UTF-8"?>
<svg width="24px" height="24px" viewBox="0 0 24 24" version="1.1" xmlns="http://www.w3.org/2000/svg" xmlns:xlink="http://www.w3.org/1999/xlink">
    <!-- Generator: Sketch 50 (54983) - http://www.bohemiancoding.com/sketch -->
    <title>c_9</title>
    <desc>Created with Sketch.</desc>
    <defs></defs>
    <g id="开发资源" stroke="none" stroke-width="1" fill="none" fill-rule="evenodd">
        <g id="开发文档" transform="translate(-448.000000, -1747.000000)">
            <g id="Group-9" transform="translate(448.000000, 1747.000000)">
                <g>
                    <rect id="Rectangle" fill-opacity="0" fill="#000000" x="0" y="0" width="24" height="24" rx="5"></rect>
                    <path d="M15.3184999,9.57146804 C16.5855124,9.57146804 17.6120857,8.55896374 17.6120857,7.31025064 C17.6120857,7.30233482 17.6093616,7.29358576 17.6093616,7.28566992 C17.6093616,7.27608761 17.6120857,7.26831599 17.6120857,7.26038416 C17.6120857,6.01167106 16.5855284,5 15.3184999,5 C14.0522727,5 13.0256994,6.01168708 13.0256994,7.26038416 C13.0256994,7.27091188 13.0273658,7.27869951 13.0273658,7.28921122 C13.0273658,7.29714307 13.0256994,7.30411348 13.0256994,7.31025064 C13.0256994,7.4877157 13.0543982,7.65740917 13.0956438,7.82176664 L8.90355844,10.5499375 C8.48905132,10.1469196 7.92069842,9.89757113 7.29387418,9.89757113 C6.0265733,9.89757113 5,10.9094024 5,12.1581155 C5,12.1668486 5.00245166,12.1747804 5.00245166,12.1835134 C5.00245166,12.1922625 5,12.2001944 5,12.2078538 C5,13.4565669 6.02657332,14.4691994 7.29387418,14.4691994 C7.96960346,14.4691994 8.57128615,14.1746474 8.99098502,13.716411 L13.0300739,16.6431184 C13.0281671,16.6554248 13.0265006,16.6666255 13.0265006,16.6797331 C13.0265006,16.687665 13.0289682,16.696398 13.0289682,16.7043299 C13.028151,16.7130629 13.0265006,16.721812 13.0265006,16.7297278 C13.0265006,17.9781845 14.0530899,18.9899998 15.3193011,18.9899998 C16.5863136,18.9899998 17.6128869,17.9781845 17.6128869,16.7297278 C17.6128869,16.7209947 17.6101628,16.7122457 17.6101628,16.7043299 C17.6101628,16.696398 17.6128869,16.6868317 17.6128869,16.6797331 C17.6128869,15.431004 16.5863296,14.4183715 15.3193011,14.4183715 C14.4990199,14.4183715 13.7844807,14.8468194 13.3798123,15.4853892 L9.52519091,12.6939398 C9.56126078,12.5368252 9.58638631,12.376714 9.58638631,12.208671 C9.58638631,12.2010116 9.58473583,12.193913 9.58473583,12.1868144 C9.58473583,12.1772481 9.58638631,12.168499 9.58638631,12.1589488 C9.58638631,11.9544193 9.54812116,11.7593439 9.49458519,11.5713351 L13.6576993,8.86146357 C14.0749465,9.29603265 14.6627044,9.57146804 15.3184999,9.57146804 Z" id="Shape" fill="#99A5A0" fill-rule="nonzero"></path>
                </g>
            </g>
        </g>
    </g>
</svg>