<?xml version="1.0" encoding="UTF-8"?>
<svg width="24px" height="24px" viewBox="0 0 24 24" version="1.1" xmlns="http://www.w3.org/2000/svg" xmlns:xlink="http://www.w3.org/1999/xlink">
    <!-- Generator: Sketch 50 (54983) - http://www.bohemiancoding.com/sketch -->
    <title>d_10</title>
    <desc>Created with Sketch.</desc>
    <defs>
        <linearGradient x1="100%" y1="0%" x2="50%" y2="100%" id="linearGradient-1">
            <stop stop-color="#7AA1FF" offset="0%"></stop>
            <stop stop-color="#485BAC" offset="100%"></stop>
        </linearGradient>
    </defs>
    <g id="开发资源" stroke="none" stroke-width="1" fill="none" fill-rule="evenodd">
        <g id="开发文档" transform="translate(-516.000000, -1811.000000)" fill="url(#linearGradient-1)">
            <g id="icon9" transform="translate(516.000000, 1811.000000)">
                <g id="icon">
                    <path d="M13.0909091,2.30416667 L13.0909091,1.08333333 C13.0909091,0.484114583 12.6034091,0 12,0 C11.3965909,0 10.9090909,0.484114583 10.9090909,1.08333333 L10.9090909,2.30416667 C4.80340909,2.85598958 0,6.96119792 0,13.1666667 C0,13.7658854 0.4875,14.25 1.09090909,14.25 L5.55340909,14.25 C6.075,17.3205729 8.76136364,19.6666667 12,19.6666667 C15.2386364,19.6666667 17.925,17.3205729 18.4465909,14.25 L22.9090909,14.25 C23.5125,14.25 24,13.7658854 24,13.1666667 C24,6.96119792 19.1965909,2.85598958 13.0909091,2.30416667 Z M12,17.5 C9.97159091,17.5 8.26022727,16.11875 7.77613636,14.25 L16.2272727,14.25 C15.7397727,16.11875 14.0284091,17.5 12,17.5 Z M12,20.75 C12.6034091,20.75 13.0909091,21.2341146 13.0909091,21.8333333 L13.0909091,22.9166667 C13.0909091,23.5158854 12.6034091,24 12,24 C11.3965909,24 10.9090909,23.5158854 10.9090909,22.9166667 L10.9090909,21.8333333 C10.9090909,21.2341146 11.3965909,20.75 12,20.75 Z M8.60454545,19.9611979 C9.14318182,20.2252604 9.36818182,20.8752604 9.09545455,21.4101563 L8.61136364,22.3817708 C8.42045455,22.7643229 8.03522727,22.984375 7.63295455,22.984375 C7.46931818,22.984375 7.30568182,22.9505208 7.14886364,22.8726563 C6.61022727,22.6052083 6.38863636,21.9552083 6.65795455,21.4203125 L7.14204545,20.4486979 C7.40795455,19.9138021 8.06590909,19.69375 8.60454545,19.9611979 Z M4.39090909,17.5473958 C4.87159091,17.1851562 5.55681818,17.2765625 5.91818182,17.7572917 C6.28295455,18.23125 6.19090909,18.9117187 5.71022727,19.2739583 L4.84090909,19.9273437 C4.64318182,20.0763021 4.41477273,20.1473958 4.18295455,20.1473958 C3.85227273,20.1473958 3.52840909,19.9984375 3.31363636,19.7174479 C2.94886364,19.2434896 3.04090909,18.5630208 3.52159091,18.2007812 L4.39090909,17.5473958 Z M16.8545455,20.4486979 L17.3386364,21.4236979 C17.6079545,21.9619792 17.3863636,22.6119792 16.8477273,22.8760417 C16.6909091,22.9505208 16.5272727,22.9877604 16.3636364,22.9877604 C15.9613636,22.9877604 15.5761364,22.7643229 15.3852273,22.3851563 L14.9011364,21.4135417 C14.6318182,20.8752604 14.8534091,20.2252604 15.3920455,19.9611979 C15.9306818,19.69375 16.5886364,19.9138021 16.8545455,20.4486979 Z M19.6090909,17.5473958 L20.4784091,18.1973958 C20.9590909,18.5596354 21.0511364,19.2367187 20.6863636,19.7140625 C20.4715909,19.9984375 20.1477273,20.1440104 19.8170455,20.1440104 C19.5886364,20.1440104 19.3568182,20.0729167 19.1590909,19.9239583 L18.2897727,19.2705729 C17.8090909,18.9083333 17.7170455,18.23125 18.0818182,17.7539062 C18.4465909,17.2765625 19.1284091,17.1851562 19.6090909,17.5473958 Z" id="Combined-Shape" fill-rule="nonzero"></path>
                </g>
            </g>
        </g>
    </g>
</svg>