<?xml version="1.0" encoding="UTF-8"?>
<svg width="24px" height="24px" viewBox="0 0 24 24" version="1.1" xmlns="http://www.w3.org/2000/svg" xmlns:xlink="http://www.w3.org/1999/xlink">
    <!-- Generator: Sketch 50 (54983) - http://www.bohemiancoding.com/sketch -->
    <title>d_14</title>
    <desc>Created with Sketch.</desc>
    <defs>
        <linearGradient x1="100%" y1="0%" x2="50%" y2="99.304552%" id="linearGradient-1">
            <stop stop-color="#ABE630" offset="0%"></stop>
            <stop stop-color="#69BC0E" offset="100%"></stop>
        </linearGradient>
    </defs>
    <g id="开发资源" stroke="none" stroke-width="1" fill="none" fill-rule="evenodd">
        <g id="开发文档" transform="translate(-692.000000, -1811.000000)" fill="url(#linearGradient-1)">
            <g id="icon13" transform="translate(692.000000, 1811.000000)">
                <g id="icon">
                    <path d="M17.1171548,7.1799163 C16.8158996,7.02928869 16.7656904,6.67782426 16.9665272,6.42677823 C17.1171548,6.22594142 17.2677824,6.02510458 17.3682008,5.82426777 C18.3221757,4.167364 18.2719665,2.2594142 17.167364,1.65690377 C16.916318,1.50627615 16.665272,1.45606695 16.3640167,1.45606693 C16.0627615,1.45606693 15.8117155,1.50627613 15.5104602,1.65690377 C15.4602511,1.70711296 15.3598326,1.70711296 15.3096234,1.70711296 C15.1589958,1.70711296 15.0083682,1.65690377 14.9079498,1.50627615 C14.2552301,0.60251046 13.2008368,0 11.9958159,0 C10.790795,0 9.73640168,0.60251046 9.083682,1.50627615 C8.98326358,1.65690377 8.83263596,1.70711296 8.68200837,1.70711296 C8.63179917,1.70711296 8.53138076,1.70711296 8.48117153,1.65690377 C8.2301255,1.45606695 7.92887027,1.40585773 7.67782426,1.40585773 C7.37656903,1.40585773 7.125523,1.45606693 6.87447699,1.60669455 C5.82008368,2.20920501 5.71966527,4.11715481 6.67364015,5.77405857 C6.82426777,5.97489538 6.92468619,6.22594142 7.0753138,6.37656903 C7.27615061,6.62761506 7.22594142,6.97907949 6.92468619,7.12970711 C3.41004184,8.98744769 1,12.7029289 1,16.9707113 C1,19.1297071 1.70292888,21.1380753 2.85774058,22.7949791 C3.41004184,23.5481172 4.31380753,24 5.26778242,24 L18.8242678,24 C19.7782427,24 20.6820084,23.5481172 21.2343096,22.7949791 C22.3891213,21.1380753 23.0920502,19.1297071 23.0920502,16.9707113 C23.0920502,12.7029289 20.6820084,8.98744769 17.1171548,7.1799163 Z M12.0460251,20.4853557 C12.0460251,17.7238494 9.78661087,15.4644352 7.0251046,15.4644351 C9.78661087,15.4644351 12.0460251,13.2050209 12.0460251,10.4435146 C12.0460251,13.2050209 14.3054393,15.4644351 17.0669456,15.4644351 C14.3054393,15.4644351 12.0460251,17.7238494 12.0460251,20.4853557 Z" id="Shape" fill-rule="nonzero"></path>
                </g>
            </g>
        </g>
    </g>
</svg>