<?xml version="1.0" encoding="UTF-8"?>
<svg width="24px" height="24px" viewBox="0 0 24 24" version="1.1" xmlns="http://www.w3.org/2000/svg" xmlns:xlink="http://www.w3.org/1999/xlink">
    <!-- Generator: Sketch 50 (54983) - http://www.bohemiancoding.com/sketch -->
    <title>d_15</title>
    <desc>Created with Sketch.</desc>
    <defs>
        <linearGradient x1="73.5839844%" y1="0%" x2="24.8535156%" y2="100%" id="linearGradient-1">
            <stop stop-color="#BE7CE4" offset="0%"></stop>
            <stop stop-color="#C54683" offset="100%"></stop>
        </linearGradient>
    </defs>
    <g id="开发资源" stroke="none" stroke-width="1" fill="none" fill-rule="evenodd">
        <g id="开发文档" transform="translate(-736.000000, -1811.000000)" fill="url(#linearGradient-1)">
            <g id="icon14" transform="translate(736.000000, 1811.000000)">
                <g id="icon">
                    <path d="M22.1835106,17.0417144 L14.1007554,7.02053696 C14.1115508,6.86827872 14.1240175,6.71717129 14.1240175,6.56157035 C14.1240175,2.94351281 11.1805047,0 7.56214575,0 C3.94354022,0 1,2.9435402 1,6.56157035 C1,10.1799019 3.9435402,13.1234147 7.56214575,13.1234147 C7.71695211,13.1234147 7.86888154,13.1109206 8.02086576,13.100728 L18.041139,21.1837572 C18.1757794,21.2916559 18.3379562,21.3450572 18.4995302,21.3450572 C18.6872706,21.3450572 18.874463,21.2735175 19.0158985,21.1314792 L19.5873121,20.5600931 C19.588408,20.7804113 19.5600497,21.0133332 19.4759611,21.2416521 C19.2879467,21.7494991 18.8452005,22.1539136 18.1601344,22.4413055 C17.3535522,22.7810027 16.0988261,22.1925741 14.64603,21.5120563 C11.9709487,20.2578782 8.30798364,18.540103 4.387766,21.6120365 C4.07020746,21.8608227 4.01483336,22.3209401 4.26331812,22.637841 C4.51210426,22.9547968 4.97112568,23.0104723 5.28862941,22.7617135 C8.50139568,20.2430825 11.4363599,21.6199549 14.026284,22.834404 C15.295888,23.4297372 16.5125838,24 17.6338202,24 C18.009301,24 18.3745618,23.9363787 18.7270271,23.7875728 C19.7988625,23.336552 20.511739,22.6503625 20.8454631,21.7471976 C21.1945035,20.8042487 21.0215588,19.8659304 20.8466413,19.3001337 L22.1314793,18.0152409 C22.3953076,17.7517139 22.4180491,17.331353 22.1835106,17.0417144 Z M3.43043111,6.5616511 C3.43043111,4.28363063 5.28385513,2.43045071 7.56211967,2.43045071 C9.84016233,2.43045071 11.6935863,4.28363063 11.6935863,6.5616511 C11.6935863,8.83967157 9.84016233,10.6935394 7.56211967,10.6935394 C5.28385513,10.6935394 3.43043111,8.83967157 3.43043111,6.5616511 Z M18.447307,19.6352826 L9.85388265,12.7031086 C11.6289773,12.0373316 13.037907,10.6286485 13.7028346,8.85410186 L20.635036,17.4472523 L19.6003815,18.4821533 C19.5058263,18.5423771 19.4285602,18.6196159 19.3720353,18.7105269 L18.447307,19.6352826 Z M14.0493268,12.1055012 C13.7638803,11.8203561 13.3017902,11.8203561 13.0166451,12.1055012 C12.7315274,12.3906189 12.7315274,12.8530378 13.0166451,13.1381829 L14.5989031,14.7207149 C14.7414893,14.8627258 14.928353,14.9343203 15.1152439,14.9343203 C15.3018884,14.9343203 15.4887246,14.8627258 15.6313108,14.7207149 C15.9167573,14.4355698 15.9167573,13.9732057 15.6313108,13.6880606 L14.0493268,12.1055012 Z" id="Combined-Shape" fill-rule="nonzero" transform="translate(11.672717, 12.000000) scale(-1, 1) translate(-11.672717, -12.000000) "></path>
                </g>
            </g>
        </g>
    </g>
</svg>