<?xml version="1.0" encoding="UTF-8"?>
<svg width="24px" height="24px" viewBox="0 0 24 24" version="1.1" xmlns="http://www.w3.org/2000/svg" xmlns:xlink="http://www.w3.org/1999/xlink">
    <!-- Generator: Sketch 50 (54983) - http://www.bohemiancoding.com/sketch -->
    <title>d_16</title>
    <desc>Created with Sketch.</desc>
    <defs>
        <linearGradient x1="72.725754%" y1="0%" x2="50%" y2="100%" id="linearGradient-1">
            <stop stop-color="#F68F8F" offset="0%"></stop>
            <stop stop-color="#DB6047" offset="100%"></stop>
        </linearGradient>
    </defs>
    <g id="开发资源" stroke="none" stroke-width="1" fill="none" fill-rule="evenodd">
        <g id="开发文档" transform="translate(-780.000000, -1811.000000)" fill="url(#linearGradient-1)">
            <g id="icon16" transform="translate(780.000000, 1811.000000)">
                <g id="icon">
                    <path d="M3,6 L3,22.759375 L5.61142857,20.245875 L8.03428571,22.577875 L10.4571429,20.245875 L12.9164286,22.6129375 L15.3742857,20.24725 L17.7607143,22.5441875 L20.1485714,20.245875 L23,22.990375 L23,6 C23,3.23857625 20.7614237,1 18,1 L8,1 C5.23857625,1 3,3.23857625 3,6 Z M15.9292857,10.889 L15.9292857,11.943625 L13.9285714,11.943625 L13.9285714,12.8545625 L15.9292857,12.8545625 L15.9292857,13.9091875 L13.9285714,13.9091875 L13.9285714,15.4375 L12.0357143,15.4375 L12.0357143,13.9091875 L9.96928571,13.9091875 L9.96928571,12.8545625 L12.0357143,12.8545625 L12.0357143,11.943625 L9.96928571,11.943625 L9.96928571,10.889 L11.6635714,10.889 L9.42857143,7.1875 L11.4228571,7.1875 L13.0564286,10.505375 L13.0807143,10.505375 C13.1335714,10.381625 13.215,10.2021875 13.3271429,9.96775 L14.6792857,7.1875 L16.5714286,7.1875 L14.2707143,10.889 C14.2707143,10.889 15.9292857,10.889 15.9292857,10.889 Z M3,23.032625 L3.1038961,23.032625 L3,22.932625 L3,23.032625 Z" id="Shape" fill-rule="nonzero"></path>
                </g>
            </g>
        </g>
    </g>
</svg>