<!-- Generated by IcoMoon.io -->
<svg version="1.1" xmlns="http://www.w3.org/2000/svg" width="24" height="24" viewBox="0 0 24 24">
<title>爆料</title>
<path fill="#ff6636" d="M2.83 22.6c-0.28-0.21-0.55-0.39-0.83-0.59 0-3.34 0.090-6.67 0.15-10 3.012-1.321 5.48-3.413 7.222-6.029l0.038-0.061 2.060 1.46h0.060l0.050 0.060h1.030l1 0.72h0.67l0.72 1.84h0.050l2.2 1.57c-1.862 2.482-3.052 5.565-3.248 8.915l-0.002 0.045-9.35 3.47-0.83-0.59 4-5.63c0.249 0.094 0.537 0.148 0.837 0.148 0.814 0 1.535-0.398 1.978-1.011l0.005-0.007c0.28-0.39 0.447-0.876 0.447-1.402 0-1.337-1.083-2.42-2.42-2.42s-2.42 1.083-2.42 2.42c0 0.592 0.213 1.135 0.566 1.555l-0.003-0.004zM8.64 23.91h11.58v-2.52h-4.79zM19.18 11.41l2-2.88-10.62-7.53-2 2.88z"></path>
</svg>
