<!-- Generated by IcoMoon.io -->
<svg version="1.1" xmlns="http://www.w3.org/2000/svg" width="24" height="24" viewBox="0 0 24 24">
<title>电影资讯</title>
<path fill="#9f3fc8" d="M12 23c-6.072-0.004-10.993-4.927-10.993-11 0-6.075 4.925-11 11-11s11 4.925 11 11c0 3.58-1.711 6.761-4.359 8.77l-0.027 0.020h4.38v2.21zM19 8c0-1.353-1.097-2.45-2.45-2.45s-2.45 1.097-2.45 2.45c0 1.353 1.097 2.45 2.45 2.45v0c1.353 0 2.45-1.097 2.45-2.45v0zM19 16.55c-0-1.353-1.097-2.45-2.45-2.45s-2.45 1.097-2.45 2.45c0 1.35 1.091 2.444 2.439 2.45h0.001c0.003 0 0.007 0 0.010 0 1.339 0 2.427-1.074 2.45-2.408l0-0.002zM13.35 12.27c-0-0.596-0.484-1.080-1.080-1.080s-1.080 0.484-1.080 1.080c0 0.596 0.484 1.080 1.080 1.080 0.004 0 0.007-0 0.011-0h-0.001c0.576-0.005 1.043-0.465 1.060-1.038l0-0.002zM10.44 8c-0.023-1.336-1.111-2.41-2.45-2.41-1.353 0-2.45 1.097-2.45 2.45s1.097 2.45 2.45 2.45c0.003 0 0.007 0 0.010-0h-0.001c1.349-0.006 2.44-1.1 2.44-2.45 0-0.014-0-0.028-0-0.042l0 0.002zM10.44 16.55c-0-1.353-1.097-2.45-2.45-2.45s-2.45 1.097-2.45 2.45c0 1.353 1.097 2.45 2.45 2.45 0.004 0 0.007 0 0.011-0h-0.001c1.335-0.005 2.418-1.078 2.44-2.408l0-0.002z"></path>
</svg>
