<?xml version="1.0" encoding="UTF-8"?>
<svg width="24px" height="24px" viewBox="0 0 24 24" version="1.1" xmlns="http://www.w3.org/2000/svg" xmlns:xlink="http://www.w3.org/1999/xlink">
    <!-- Generator: Sketch 50 (54983) - http://www.bohemiancoding.com/sketch -->
    <title>d_2</title>
    <desc>Created with Sketch.</desc>
    <defs></defs>
    <g id="开发资源" stroke="none" stroke-width="1" fill="none" fill-rule="evenodd">
        <g id="开发文档" transform="translate(-164.000000, -1811.000000)">
            <g id="icon1" transform="translate(164.000000, 1811.000000)">
                <g id="icon">
                    <rect id="Rectangle" stroke="#979797" fill="#D8D8D8" opacity="0" x="0.5" y="0.5" width="23" height="23"></rect>
                    <path d="M13.8305085,3.01080322 L19.0541695,3.01080322 C20.4551186,3.30605074 21.5477288,4.57977222 21.7307797,6.06952467 C21.7400603,6.14488837 21.7172211,6.2206959 21.668072,6.27766292 C21.618923,6.33462994 21.5482016,6.36726537 21.4738983,6.36726724 L2.49620339,6.36726724 C2.42190014,6.36726537 2.35117873,6.33462994 2.30202968,6.27766292 C2.25288063,6.2206959 2.23004142,6.14488837 2.23932203,6.06952467 C2.4219661,4.57977222 3.51498305,3.30605074 4.9159322,3.01080322 L10.1694915,3.01080322 L10.1694915,2.03960394 C10.1694915,1.46544654 10.6247952,1 11.1864407,1 L12.8135593,1 C13.3752048,1 13.8305085,1.46544654 13.8305085,2.03960394 L13.8305085,3.01080322 Z M21.7051525,17.4201285 C21.6237966,20.8000888 21.7051525,20.8377225 18.8511864,20.8000888 C18.5633898,20.7963462 18.3667119,21.0870195 18.3667119,21.3745739 L18.3667119,21.4188611 C18.366604,21.573135 18.3065371,21.7210434 18.1997309,21.830034 C18.0929246,21.9390246 17.9481323,22.0001652 17.7972203,21.9999997 L17.6420339,21.9999997 C17.3273898,21.9999997 17.0725424,21.7400987 17.0725424,21.4188611 C17.0724345,21.2646232 17.0123955,21.1167464 16.9056333,21.0077617 C16.798871,20.8987771 16.654131,20.8376121 16.5032542,20.8377225 L7.49694915,20.8377225 C7.3460372,20.8375569 7.20124486,20.8986975 7.09443862,21.0076881 C6.98763237,21.1166788 6.92756545,21.2645872 6.92745763,21.4188611 C6.9273498,21.573135 6.86728288,21.7210434 6.76047664,21.830034 C6.65367039,21.9390246 6.50887805,22.0001652 6.3579661,21.9999997 L6.20277966,21.9999997 C5.88813559,21.9999997 5.63328814,21.7400987 5.63328814,21.4188611 L5.63328814,21.3745739 C5.63328814,21.0872274 5.43661017,20.7957225 5.14881356,20.8000888 C2.73254237,20.8375145 2.29484746,20.8375145 2.29484746,17.4201285 L2.29484746,9.97178204 C2.29484746,9.96485134 1.86888136,9.95452461 1.01694915,9.94080184 C0.455303644,9.94080184 0,9.4753553 0,8.90119789 L0,8.48535632 C0,7.91119891 0.455303644,7.44575237 1.01694915,7.44575237 L22.9830508,7.44575237 C23.5446964,7.44575237 24,7.91119891 24,8.48535632 L24,8.90119789 C24,9.4753553 23.5446964,9.94080184 22.9830508,9.94080184 L21.7059661,9.94080184 L21.7051525,17.4201285 Z M9.86440678,16.5940592 C9.47125492,16.5940592 9.15254237,16.9198717 9.15254237,17.3217819 C9.15254237,17.7236921 9.47125492,18.0495047 9.86440678,18.0495047 L14.3389831,18.0495047 C14.7321349,18.0495047 15.0508475,17.7236921 15.0508475,17.3217819 C15.0508475,16.9198717 14.7321349,16.5940592 14.3389831,16.5940592 L9.86440678,16.5940592 Z M12.1016949,12.2277226 C12.4948468,12.2277226 12.8135593,11.90191 12.8135593,11.4999998 C12.8135593,11.0980896 12.4948468,10.7722771 12.1016949,10.7722771 C11.7085431,10.7722771 11.3898306,11.0980897 11.3898306,11.4999998 C11.3898306,11.90191 11.7085431,12.2277226 12.1016949,12.2277226 Z M12.1016949,15.1386136 C12.4948468,15.1386136 12.8135593,14.8128011 12.8135593,14.4108909 C12.8135593,14.0089807 12.4948468,13.6831681 12.1016949,13.6831681 C11.7085431,13.6831681 11.3898305,14.0089807 11.3898305,14.4108909 C11.3898305,14.8128011 11.7085431,15.1386136 12.1016949,15.1386136 Z" id="Shape" fill="#F5A623" fill-rule="nonzero"></path>
                </g>
            </g>
        </g>
    </g>
</svg>