<!-- Generated by IcoMoon.io -->
<svg version="1.1" xmlns="http://www.w3.org/2000/svg" width="24" height="24" viewBox="0 0 24 24">
<title>活动公告</title>
<path fill="#ff6636" d="M23.050 11.63h-4.63c-0 0-0.001 0-0.001 0-0.535 0-0.971 0.42-0.999 0.948l-0 0.002v0.3c0 0.552 0.448 1 1 1v0h4.63c0.53-0.027 0.95-0.464 0.95-0.999 0-0 0-0.001 0-0.001v0-0.3c-0.026-0.514-0.436-0.924-0.948-0.95l-0.002-0zM12.31 3.44c-1.44 1.14-4.45 2.75-6.62 4.29s0 0.1-0.070 0.12c-0.377 0.35-0.883 0.564-1.44 0.564-0.113 0-0.224-0.009-0.332-0.026l0.012 0.002h-2.73c-0.7 0-1.13 0.33-1.13 1.060v6.55c-0.004 0.033-0.006 0.071-0.006 0.109 0 0.552 0.448 1 1 1 0.048 0 0.095-0.003 0.141-0.010l-0.005 0.001h2.73c1.38 0 1.5 0.4 1.75 0.55 0 0 0 0.1 0.080 0.11 2.1 1.54 5.13 3.27 6.62 4.37 0.45 0.33 1.94 0.91 1.94-1.13v-16.52c0-2-1.5-1.39-1.94-1zM16.58 8c0.114 0.242 0.355 0.407 0.636 0.407 0.174 0 0.333-0.063 0.455-0.168l-0.001 0.001 3.81-3.24c0.208-0.202 0.337-0.484 0.337-0.796 0-0.196-0.051-0.38-0.14-0.539l0.003 0.006-0.14-0.25c-0.114-0.242-0.355-0.407-0.636-0.407-0.174 0-0.333 0.063-0.455 0.168l0.001-0.001-3.81 3.2c-0.207 0.2-0.336 0.481-0.336 0.791 0 0.194 0.050 0.376 0.138 0.535l-0.003-0.006 0.14 0.25zM17.67 17.34c-0.121-0.104-0.28-0.167-0.454-0.167-0.28 0-0.522 0.165-0.634 0.403l-0.002 0.004-0.14 0.25c-0.086 0.154-0.137 0.338-0.137 0.534 0 0.312 0.129 0.594 0.336 0.796l0 0 3.81 3.2c0.121 0.104 0.28 0.167 0.454 0.167 0.28 0 0.522-0.165 0.634-0.403l0.002-0.004 0.14-0.25c0.085-0.153 0.136-0.335 0.136-0.529 0-0.31-0.129-0.591-0.335-0.791l-0-0-3.81-3.21z"></path>
</svg>
