<!-- Generated by IcoMoon.io -->
<svg version="1.1" xmlns="http://www.w3.org/2000/svg" width="24" height="24" viewBox="0 0 24 24">
<title>箱包手袋</title>
<path fill="#8a46c5" d="M24 21.19c-0.030 0.288-0.123 0.55-0.264 0.778l0.004-0.008c-0.215 0.362-0.486 0.667-0.803 0.915l-0.007 0.005c-0.382 0.312-0.821 0.574-1.296 0.768l-0.034 0.012c-0.51 0.216-1.104 0.341-1.726 0.341-0.033 0-0.066-0-0.099-0.001l0.005 0h-15.53c-0.034 0.001-0.073 0.001-0.113 0.001-0.626 0-1.223-0.125-1.767-0.353l0.030 0.011c-0.509-0.206-0.948-0.468-1.339-0.787l0.009 0.007c-0.322-0.242-0.591-0.534-0.802-0.867l-0.008-0.013c-0.143-0.232-0.237-0.508-0.26-0.804l-0-0.006 2.11-11.3c-0-0.006-0-0.014-0-0.021 0-0.385 0.161-0.732 0.42-0.978l0.001-0.001c0.252-0.253 0.601-0.41 0.986-0.41 0.005 0 0.010 0 0.015 0h-0.001l0.38 0.12 0.46 0.12 0.57 0.17v-1.89c0.003-1.934 0.79-3.684 2.060-4.95l0-0c0.633-0.618 1.378-1.123 2.203-1.482l0.047-0.018c0.812-0.348 1.758-0.55 2.75-0.55s1.938 0.202 2.797 0.568l-0.047-0.018c0.872 0.377 1.617 0.882 2.251 1.501l-0.001-0.001c1.279 1.269 2.070 3.027 2.070 4.969 0 0.011-0 0.021-0 0.032v-0.002 1.83l0.57-0.17 0.46-0.12 0.38-0.12c0.006-0 0.013-0 0.020-0 0.773 0 1.4 0.627 1.4 1.4 0 0.007-0 0.014-0 0.021l0-0.001zM5.64 13.42c0.006 0 0.013 0 0.020 0 0.773 0 1.4-0.627 1.4-1.4 0-0.007-0-0.014-0-0.021l0 0.001c-0.004-0.517-0.281-0.968-0.694-1.216l-0.006-0.004v1.22h-1.42v-1.22c-0.415 0.22-0.692 0.649-0.692 1.143 0 0.027 0.001 0.054 0.002 0.080l-0-0.004c-0 0.006-0 0.013-0 0.020 0 0.77 0.621 1.394 1.39 1.4h0.001zM6.36 9.22c0.78 0.17 1.66 0.33 2.64 0.46 0.894 0.134 1.926 0.21 2.976 0.21 0.008 0 0.017 0 0.025-0h-0.001c0.007 0 0.016 0 0.024 0 1.050 0 2.082-0.076 3.091-0.224l-0.115 0.014c1-0.13 1.86-0.29 2.66-0.46v-2c0-0.011 0-0.023 0-0.036 0-0.789-0.162-1.539-0.454-2.221l0.014 0.037c-0.302-0.728-0.714-1.352-1.222-1.882l0.002 0.002c-0.502-0.517-1.099-0.938-1.764-1.236l-0.036-0.014c-0.642-0.284-1.39-0.45-2.177-0.45-0.008 0-0.016 0-0.024 0h0.001c-0.012-0-0.026-0-0.039-0-0.781 0-1.524 0.166-2.195 0.464l0.034-0.014c-0.7 0.313-1.298 0.734-1.799 1.249l-0.001 0.001c-1.027 1.049-1.66 2.485-1.66 4.070 0 0.010 0 0.021 0 0.031v-0.002zM18.36 13.42c0.006 0 0.013 0 0.020 0 0.773 0 1.4-0.627 1.4-1.4 0-0.007-0-0.014-0-0.021l0 0.001c0-0.005 0-0.010 0-0.016 0-0.261-0.075-0.504-0.203-0.71l0.003 0.006c-0.125-0.212-0.302-0.382-0.513-0.497l-0.007-0.003v1.22h-1.4v-1.22c-0.218 0.118-0.395 0.288-0.517 0.494l-0.003 0.006c-0.124 0.206-0.197 0.454-0.197 0.719 0 0.391 0.159 0.746 0.417 1.001l0 0c0.255 0.258 0.609 0.419 1 0.42h0z"></path>
</svg>
