<!-- Generated by IcoMoon.io -->
<svg version="1.1" xmlns="http://www.w3.org/2000/svg" width="24" height="24" viewBox="0 0 24 24">
<title>眼镜配饰</title>
<path fill="#00a2ff" d="M23.080 10.89h-1.66c-0.243-2.105-1.944-3.744-4.056-3.889l-0.014-0.001c-2.118 0.159-3.81 1.792-4.058 3.869l-0.002 0.021h-2.69c-0.239-2.103-1.937-3.743-4.046-3.889l-0.014-0.001c-2.12 0.155-3.813 1.79-4.058 3.869l-0.002 0.021h-1.56c-0.471 0.050-0.834 0.445-0.834 0.925s0.363 0.875 0.83 0.925l0.004 0h1.53c0.32 2.35 2 4.15 4.090 4.15s3.77-1.8 4.090-4.15h2.62c0.32 2.35 2 4.15 4.090 4.15s3.77-1.8 4.090-4.15h1.65c0.471-0.050 0.834-0.445 0.834-0.925s-0.363-0.875-0.83-0.925l-0.004-0z"></path>
</svg>
