<?xml version="1.0" encoding="UTF-8"?>
<svg width="24px" height="24px" viewBox="0 0 24 24" version="1.1" xmlns="http://www.w3.org/2000/svg" xmlns:xlink="http://www.w3.org/1999/xlink">
    <!-- Generator: Sketch 50 (54983) - http://www.bohemiancoding.com/sketch -->
    <title>d_3</title>
    <desc>Created with Sketch.</desc>
    <defs>
        <linearGradient x1="100%" y1="0%" x2="50%" y2="99.304552%" id="linearGradient-1">
            <stop stop-color="#9CD622" offset="0.219020954%"></stop>
            <stop stop-color="#69BC0E" offset="100%"></stop>
        </linearGradient>
    </defs>
    <g id="开发资源" stroke="none" stroke-width="1" fill="none" fill-rule="evenodd">
        <g id="开发文档" transform="translate(-208.000000, -1811.000000)" fill="url(#linearGradient-1)">
            <g id="icon2" transform="translate(208.000000, 1811.000000)">
                <g id="icon">
                    <path d="M8.53990359,0.484262375 L8.63990359,0.245759965 L8.53990359,0.484262375 Z M1.14932891,6.1078192 C1.14932891,7.12430955 1.97335716,7.9483378 2.98984751,7.9483378 C4.00633786,7.9483378 4.83036611,7.12430955 4.83036611,6.1078192 C4.83036611,5.09132885 4.00633786,4.2673006 2.98984751,4.2673006 C1.97335716,4.2673006 1.14932891,5.09132885 1.14932891,6.1078192 Z M3.97385745,8.40734244 L3.97685748,8.41634253 C3.57485342,8.42234259 3.18334947,8.68334523 2.94484706,9.15585 C2.55034307,9.93885791 2.66584424,10.8778674 2.89084651,11.6998757 C2.98984751,12.0568793 3.10984872,12.4093829 3.22834992,12.7603864 C3.55685324,13.7293962 3.78935559,14.8529076 4.6908647,15.4709138 C5.23087016,15.8399175 5.88337675,15.9569187 6.51638315,16.0319195 C6.99938803,16.0889201 7.62339433,16.08442 8.05689871,16.3304225 C8.52340343,16.5944252 8.50990329,17.1944312 8.57290393,17.6579359 C8.6494047,18.2129415 8.7289055,18.7679471 8.80390626,19.3229527 C8.85040673,19.6679562 8.90590729,20.0219598 8.94790772,20.4719643 C8.94790772,20.4779644 8.94490769,20.4824645 8.94490769,20.4869645 C8.94490769,20.7674673 9.17140997,20.9939696 9.45191281,20.9939696 C9.72941561,20.9939696 9.95291787,20.7704674 9.95741792,20.4944646 L9.96641801,20.4944646 C9.96791802,20.3474631 10.1119195,18.3794432 10.1479198,17.6729361 C10.1869202,16.9109284 10.2784212,16.0379195 9.91541749,15.3329124 C9.86103591,15.2269878 9.7951368,15.1273845 9.71891551,15.0359094 C9.18041007,14.3909029 8.23990056,14.2949019 7.47489283,14.005399 C7.24539051,13.9183981 7.02038824,13.804397 6.83288634,13.6483954 C6.13387928,13.0693895 5.99587789,12.0493792 5.72437514,11.1043697 C5.59687385,10.6603652 5.52037308,10.3078616 5.40787194,9.9673582 L5.75887549,10.0213587 C6.01537808,10.0273588 6.32438121,10.0633592 6.5808838,10.0768593 C6.91988722,10.0933595 7.21539021,10.1293598 7.50639315,9.89685749 C7.73439545,9.71385564 9.46841298,7.82533656 9.46841298,7.64233471 C9.46841298,7.41883245 9.28691114,7.23733061 9.06340888,7.23733061 C8.93140755,7.23733061 7.31589123,8.78234623 7.13438939,8.89934741 C6.95588759,9.01334856 6.71888519,8.9278477 6.54488343,8.87384715 C6.31988116,8.80334644 6.09337887,8.73584576 5.86537657,8.67584515 C5.35537141,8.5423438 4.48836265,8.33384169 3.97385745,8.40734244 Z M12.7069457,18.8234477 C12.7407335,18.8411496 12.7783028,18.8504133 12.8164468,18.850448 C12.8446364,18.8505741 12.8726065,18.8454886 12.8989476,18.8354478 L22.7255469,15.1859109 C22.8455482,15.1409105 22.9100488,15.0089091 22.8680484,14.8874079 C22.8530482,14.8709078 18.7310066,2.5947837 8.01189826,0.00725755516 C7.93089744,-0.013742657 7.84539658,0.0117576006 7.78689598,0.0717582069 C7.72839539,0.130258798 7.70589517,0.217259677 7.72689538,0.298260496 L12.5854445,18.6749462 C12.6034447,18.7379468 12.6469451,18.7934474 12.7069457,18.8234477 Z M11.949438,11.9473782 C11.8594371,11.530374 12.1249398,11.1193698 12.541944,11.0293689 C12.7549462,10.9843685 17.7409966,9.96285816 20.8460279,13.9168981 C21.1085306,14.2514015 21.05153,14.7374064 20.7155266,15.0014091 C20.5745252,15.1109102 20.4065235,15.1664107 20.2385218,15.1664107 C20.0105195,15.1664107 19.7825172,15.0659097 19.6310157,14.8709078 C17.1169903,11.6668754 13.0429491,12.5008838 12.8659473,12.5383842 C12.4594432,12.6298851 12.040939,12.3643824 11.949438,11.9473782 Z M23.7815576,22.0034798 C24.1040609,22.3814836 24.0650605,22.9574895 23.6900567,23.2814927 C23.3135529,23.602496 22.7525472,23.5679956 22.4270439,23.1884918 L22.4150438,23.1749917 C22.3505431,23.0999909 22.2920426,23.0219901 22.2200418,22.9634895 C21.8810384,22.6919868 21.2705322,22.6664865 20.8655281,22.9769897 C20.8175277,23.01449 20.7410269,23.104491 20.6735262,23.1839918 C20.4935244,23.3984939 20.2460219,23.6894969 19.8515179,23.8679987 L19.7150165,23.9309993 L19.3310126,23.9834998 L19.2200115,23.9759998 C19.1150105,23.9654997 18.9500088,23.9504995 18.7655069,23.8634986 C18.3830031,23.6894969 18.1355006,23.3984939 17.9554987,23.1854918 C17.8879981,23.104491 17.8099973,23.01299 17.7649968,22.9799897 C17.3554927,22.6649865 16.7479865,22.6919868 16.4059831,22.9664896 C16.3414824,23.0189901 16.2859819,23.0909908 16.2274813,23.1599915 C16.0129791,23.408994 15.7189761,23.7524975 15.2209711,23.9099991 C14.3689625,24.1770018 13.7869566,23.5904959 13.5349541,23.3384933 C13.2799515,23.0849908 13.1134498,22.9289892 12.9439481,22.8629885 C12.6814454,22.7654875 12.3754424,22.7684876 12.1039396,22.8794887 C11.9779383,22.9319892 11.8609372,23.0444903 11.6809353,23.2244922 C11.5114336,23.3954939 11.3164317,23.5889958 11.055429,23.7614976 C10.8124266,23.9204992 10.5664241,24 10.3189216,24 C9.88241716,24 9.4414127,23.7509975 8.99890823,23.2544925 C8.78740609,23.0279902 8.65840479,22.9304892 8.5204034,22.8584885 C7.84389656,22.513485 7.20789013,23.0639905 6.96488768,23.3189931 C6.75188553,23.5424954 6.10387898,24.2235023 5.19186976,23.8499985 C4.77186552,23.6789968 4.49436271,23.3999939 4.27236047,23.1779917 C4.13435908,23.0399903 4.01285785,22.9184891 3.91535686,22.8839887 C3.57035338,22.7594875 3.21934983,22.7699876 2.95234713,22.912489 C2.86084621,22.9604895 2.73334492,23.0669906 2.61034368,23.1689916 C2.22033973,23.4959949 1.62633373,23.9939999 0.762325002,23.8544985 C0.271820045,23.7794978 -0.0656833652,23.3189931 0.0108174079,22.8269881 C0.0858181657,22.3364832 0.55532291,22.0004798 1.03682778,22.0754806 C1.09982841,22.0709805 1.32483069,21.8984788 1.45833203,21.7874776 C1.64583393,21.6314761 1.85583605,21.4559743 2.11533867,21.3194729 C2.82934589,20.9414691 3.70985479,20.8949686 4.52886306,21.1904716 C5.00586788,21.3644734 5.31937105,21.6794766 5.54887337,21.9074789 C5.59687385,21.9569794 5.64637435,22.0064799 5.69137481,22.0484803 C6.7593856,20.9504692 8.15739973,20.6459661 9.34691175,21.2609723 C9.6589149,21.422974 9.95141786,21.6434762 10.2139205,21.917979 L10.3234216,22.0364802 L10.4074225,21.9524793 C10.6489249,21.7094769 10.950428,21.4079738 11.4169327,21.2144719 C12.1099397,20.929469 12.9019477,20.9174689 13.5904546,21.1829715 C14.12596,21.3899736 14.4949638,21.7559773 14.7634665,22.02298 L14.7979668,22.0574804 C14.8204671,22.0319801 14.8399673,22.0079799 14.8594675,21.9854796 C14.9914688,21.8324781 15.1234701,21.6839766 15.2734716,21.5639754 C16.2484815,20.7794675 17.8009972,20.7464671 18.8495078,21.5429752 C19.0430097,21.6899767 19.1915112,21.8609784 19.3115124,22.0019798 C19.4330137,21.8609784 19.5800152,21.6899767 19.7765171,21.5399751 C20.8160276,20.7509672 22.3745434,20.7809675 23.3480532,21.5624754 C23.5055548,21.6899767 23.6450562,21.8459782 23.7815576,22.0034798 Z" id="Combined-Shape" fill-rule="nonzero"></path>
                </g>
            </g>
        </g>
    </g>
</svg>