<?xml version="1.0" encoding="UTF-8"?>
<svg width="24px" height="24px" viewBox="0 0 24 24" version="1.1" xmlns="http://www.w3.org/2000/svg" xmlns:xlink="http://www.w3.org/1999/xlink">
    <!-- Generator: Sketch 50 (54983) - http://www.bohemiancoding.com/sketch -->
    <title>d_4</title>
    <desc>Created with Sketch.</desc>
    <defs>
        <linearGradient x1="100%" y1="0%" x2="23.1119792%" y2="100%" id="linearGradient-1">
            <stop stop-color="#33DEF8" offset="2.41600434%"></stop>
            <stop stop-color="#1A97D7" offset="100%"></stop>
        </linearGradient>
    </defs>
    <g id="开发资源" stroke="none" stroke-width="1" fill="none" fill-rule="evenodd">
        <g id="开发文档" transform="translate(-252.000000, -1811.000000)">
            <g id="icon3" transform="translate(252.000000, 1811.000000)">
                <g id="icon">
                    <path d="M10,14.5 C10,15.8807119 11.1192881,17 12.5,17 C13.8807119,17 15,15.8807119 15,14.5 C15,13.1192881 13.8807119,12 12.5,12 C11.1192881,12 10,13.1192881 10,14.5 Z" id="Shape" fill="#18ADD3" fill-rule="nonzero"></path>
                    <path d="M22.3571429,6.35416671 L19.1568571,6.35416671 C18.5152397,6.35412608 17.9323571,5.97277896 17.6643214,5.37768495 L17.0330536,3.97648183 C16.7650179,3.38138781 16.1821353,3.00004068 15.5405178,3.00000006 L9.68825,3.00000006 C9.0465723,2.99983067 8.46358822,3.38124421 8.19571428,3.97648183 L7.56444644,5.37768495 C7.29641075,5.97277896 6.71352816,6.35412609 6.07191072,6.35416671 L2.64285715,6.35416671 C1.73928571,6.35416671 1,7.1088542 1,8.03125004 L1,21.4479167 C1,22.3703125 1.73928571,23.125 2.64285715,23.125 L22.3571429,23.125 C23.2607143,23.125 24,22.3703125 24,21.4479167 L24,8.03125004 C24,7.1088542 23.2607143,6.35416671 22.3571429,6.35416671 Z M6.75000001,10.546875 L4.2857143,10.546875 C3.83205182,10.546875 3.46428572,10.1714471 3.46428572,9.70833337 C3.46428572,9.24521959 3.83205182,8.8697917 4.2857143,8.8697917 L6.75000001,8.8697917 C7.20366249,8.8697917 7.57142859,9.24521959 7.57142859,9.70833337 C7.57142859,10.1714471 7.20366249,10.546875 6.75000001,10.546875 Z M12.5,18.9322917 C10.2353214,18.9322917 8.39285714,17.0514427 8.39285714,14.7395834 C8.39285714,12.427724 10.2353214,10.5472943 12.5,10.5472943 C14.7646786,10.5472943 16.6071429,12.427724 16.6071429,14.7395834 C16.6071429,17.0514427 14.7646786,18.9322917 12.5,18.9322917 Z" id="Shape" fill="url(#linearGradient-1)" fill-rule="nonzero"></path>
                </g>
            </g>
        </g>
    </g>
</svg>