<?xml version="1.0" encoding="UTF-8"?>
<svg width="24px" height="24px" viewBox="0 0 24 24" version="1.1" xmlns="http://www.w3.org/2000/svg" xmlns:xlink="http://www.w3.org/1999/xlink">
    <!-- Generator: Sketch 50 (54983) - http://www.bohemiancoding.com/sketch -->
    <title>d_5</title>
    <desc>Created with Sketch.</desc>
    <defs>
        <linearGradient x1="73.5839844%" y1="0%" x2="24.8535156%" y2="100%" id="linearGradient-1">
            <stop stop-color="#BE7CE4" offset="0%"></stop>
            <stop stop-color="#C54683" offset="100%"></stop>
        </linearGradient>
    </defs>
    <g id="开发资源" stroke="none" stroke-width="1" fill="none" fill-rule="evenodd">
        <g id="开发文档" transform="translate(-296.000000, -1811.000000)" fill="url(#linearGradient-1)">
            <g id="icon4" transform="translate(296.000000, 1811.000000)">
                <g id="icon">
                    <path d="M13.0383651,1.70238328 C13.5514679,1.63095691 13.5759,1.6785745 13.5759,1.6785745 C13.8568694,1.6785745 13.9057336,1.97618435 13.9057336,2.34524804 L13.9057336,6.53573209 C13.9057336,6.84524632 14.0034621,7.44049351 13.5392518,7.44049351 L10.6928252,7.44049351 C10.3141273,7.40478032 10.2408309,7.02383974 10.2408309,6.53573209 L10.2286149,4.19048405 C10.2285866,3.50000172 12.610803,1.77383714 13.0383651,1.70238328 Z M9.71551213,8.84523945 L14.3577561,8.84523945 L14.5898612,8.84523945 C14.9685591,8.84523945 15.2862049,9.1190405 15.2862049,9.45239102 L15.2862049,11.023826 C15.2862049,11.357149 14.9685873,11.6309776 14.5898612,11.6309776 L9.58110725,11.6309776 C9.19019331,11.6309776 8.87254755,11.3571765 8.87254755,11.023826 L8.87254755,9.45239102 C8.87254755,9.11906801 9.19016511,8.84523945 9.58110725,8.84523945 L9.71551213,8.84523945 Z M16.8132406,11.7023764 L16.8132406,8.73809992 C16.8132406,8.08333078 16.2512736,7.54763304 15.530526,7.46430229 L15.530526,7.41668472 L15.530526,1.54762618 C15.530526,0.773813103 14.8586145,0 14.2844597,0 C14.2844597,0 13.4903876,0 13.0017451,0.107139536 C11.4013848,0.416653768 8.57939028,2.36902934 8.57939028,4.23810161 L8.57939028,7.4166847 L8.57939028,7.45239789 C7.84639846,7.53572864 7.27224362,8.07145386 7.27224362,8.73809989 L7.27224362,11.7023764 L7.1867312,11.7023764 C5.98952907,11.7023764 5,12.5119027 5,13.4999948 L5,22.2023816 C5,23.1904737 5.9895291,24 7.1867312,24 L16.8132688,24 C18.0104709,24 19,23.1904737 19,22.2023816 L19,13.4999949 C18.9999718,12.5119027 18.0104427,11.7023764 16.8132406,11.7023764 Z" id="Shape" fill-rule="nonzero"></path>
                </g>
            </g>
        </g>
    </g>
</svg>