<?xml version="1.0" encoding="UTF-8"?>
<svg width="24px" height="24px" viewBox="0 0 24 24" version="1.1" xmlns="http://www.w3.org/2000/svg" xmlns:xlink="http://www.w3.org/1999/xlink">
    <!-- Generator: Sketch 50 (54983) - http://www.bohemiancoding.com/sketch -->
    <title>d_8</title>
    <desc>Created with Sketch.</desc>
    <defs>
        <linearGradient x1="100%" y1="0%" x2="50%" y2="99.304552%" id="linearGradient-1">
            <stop stop-color="#ABE630" offset="0%"></stop>
            <stop stop-color="#69BC0E" offset="100%"></stop>
        </linearGradient>
    </defs>
    <g id="开发资源" stroke="none" stroke-width="1" fill="none" fill-rule="evenodd">
        <g id="开发文档" transform="translate(-428.000000, -1811.000000)" fill="url(#linearGradient-1)">
            <g id="icon7" transform="translate(428.000000, 1811.000000)">
                <g id="icon">
                    <path d="M24,11.6553571 C24,12.0173455 23.9406562,12.3635419 23.8539609,12.6993305 C23.8486172,12.7332218 23.8446562,12.7667286 23.8401562,12.8004997 L23.8213828,12.8004997 C23.2963125,14.6405349 21.5637422,16.0004188 19.4849766,16.0004188 C17.9833125,16.0004188 16.6629375,15.2873787 15.8420156,14.2025915 C15.0640547,15.2728367 13.6331719,16.0004188 11.9771016,16.0004188 C10.3271016,16.0004188 8.90046094,15.2786294 8.12017969,14.2149703 C7.30586719,15.2925946 5.99521875,16.0004188 4.50494531,16.0004188 C2.39880469,16.0004188 0.644390625,14.5958512 0.166078125,12.710916 C0.1573125,12.7414423 0.141421875,12.7694207 0.133570312,12.8003315 L0.113765625,12.8003315 C0.078140625,12.5221581 0,12.253383 0,11.968167 C0,11.8833905 0.0260390625,11.8039502 0.0292265625,11.7196305 C0.0292265625,11.7096794 0.0261796875,11.7002572 0.0261796875,11.6904022 C0.0261796875,11.3613919 0.0721171875,11.0442555 0.14465625,10.7363491 C0.834960938,7.11406228 4.48214062,4.19654702 9.24710156,3.37601613 C9.71432812,4.2140936 10.7582109,4.80038968 11.9771016,4.80038968 C13.1960156,4.80038968 14.2401328,4.21428589 14.70675,3.3759921 C19.0355859,4.12136113 22.4244609,6.60473078 23.5333125,9.76669632 C23.8232344,10.3397003 24,10.9753912 24,11.6553331 M11.9769375,3.20002155 C11.1311016,3.20002155 10.4493281,2.45027789 10.4812969,1.53838461 C10.5102891,0.714608808 11.1470625,0.0333689098 11.9169375,0.00125626764 C12.7707422,-0.0344377994 13.4733281,0.69511528 13.4733281,1.59996589 C13.4733281,2.48383271 12.8034844,3.20002155 11.9769375,3.20002155 M11.9770781,17.7001534 C13.5313828,17.7001534 14.9003438,16.9955261 15.7059141,15.9260982 C16.5063047,16.9927619 17.8816406,17.7001534 19.4490938,17.7001534 C20.0756016,17.7001534 20.6703281,17.5858843 21.2118281,17.3828728 L19.7354063,22.9572525 C19.5719766,23.5741229 19.0455234,24 18.4461094,24 L5.5074375,24 C4.90814063,24 4.38159375,23.5741229 4.21828125,22.9572525 L2.71275,17.2730505 C3.26032031,17.4814461 3.86282813,17.5998014 4.498125,17.5998014 C6.04478906,17.6002821 7.40871094,16.9151243 8.21535938,15.8726652 C9.01535156,16.97036 10.398,17.7001534 11.9770781,17.7001534 Z" id="Shape" fill-rule="nonzero"></path>
                </g>
            </g>
        </g>
    </g>
</svg>