<?xml version="1.0" encoding="UTF-8"?>
<svg width="24px" height="24px" viewBox="0 0 24 24" version="1.1" xmlns="http://www.w3.org/2000/svg" xmlns:xlink="http://www.w3.org/1999/xlink">
    <!-- Generator: Sketch 50 (54983) - http://www.bohemiancoding.com/sketch -->
    <title>d_9</title>
    <desc>Created with Sketch.</desc>
    <defs>
        <linearGradient x1="72.725754%" y1="0%" x2="35.3952508%" y2="100%" id="linearGradient-1">
            <stop stop-color="#F68F8F" offset="0%"></stop>
            <stop stop-color="#DB4747" offset="100%"></stop>
        </linearGradient>
    </defs>
    <g id="开发资源" stroke="none" stroke-width="1" fill="none" fill-rule="evenodd">
        <g id="开发文档" transform="translate(-472.000000, -1811.000000)" fill="url(#linearGradient-1)">
            <g id="icon8" transform="translate(472.000000, 1811.000000)">
                <g id="icon">
                    <path d="M10,12.1299191 C10,11.5049191 10.3125,10.8799191 10.78125,10.4111691 C11.25,9.94241907 11.875,9.62991905 12.5,9.62991905 C13.125,9.62991905 13.75,9.94241903 14.21875,10.4111691 C14.6875,10.8799191 15,11.5049191 15,12.1299191 C15,12.7549191 14.6875,13.3799191 14.21875,13.848669 C13.75,14.317419 13.125,14.6299191 12.5,14.6299191 C11.875,14.6299191 11.25,14.3174191 10.78125,13.848669 C10.3125,13.379919 10,12.7549191 10,12.1299191 Z M21.3375174,8.52559682 C20.8075314,7.36821958 20.1715481,6.42127459 19.3235704,5.47432957 C18.4755927,4.63260066 17.4156206,3.89608788 16.2496513,3.47522343 C15.083682,3.05435898 13.8117155,2.84392677 12.5397489,2.84392677 C11.2677824,2.84392677 9.9958159,3.05435898 8.82984659,3.58043955 C7.66387727,4.10652012 6.70990239,4.73781678 5.75592748,5.57954569 C4.90794979,6.42127456 4.27196653,7.4734357 3.74198047,8.52559682 C3.21199443,9.78819015 3,10.9455674 3,12.3133769 C3,13.5759702 3.21199441,14.8385635 3.74198047,15.9959408 C4.27196653,17.153318 4.90794979,18.100263 5.75592748,19.047208 C6.28591354,19.5732886 6.81589958,19.994153 7.45188286,20.4150175 C7.98186892,21.5723947 9.04184102,23.9923653 9.78382149,23.9923653 L14.9776848,23.9923653 C14.9776848,23.9923653 15.5076709,24.2027975 16.2496513,22.4141236 C16.567643,21.6776108 16.8856346,21.0463141 16.9916318,20.6254497 C17.8396095,20.2045852 18.4755928,19.6785047 19.2175732,19.047208 C20.0655509,18.2054791 20.8075314,17.153318 21.2315202,15.9959407 C21.7615063,14.8385635 21.9735007,13.5759702 21.9735007,12.3133768 C22.0794979,10.9455674 21.8675035,9.78819015 21.3375174,8.52559682 Z M4.54290728,12.2081607 C4.54290728,7.80883571 8.10776442,4.27024817 12.5397489,4.27024817 C16.9717335,4.27024817 20.5365906,7.80883571 20.5365906,12.2081607 C20.5365906,16.6074858 16.9717335,20.1460733 12.5397489,20.1460733 C8.10776442,20.1460733 4.54290728,16.6074858 4.54290728,12.2081607 Z M16.8856346,2.84392677 C16.4616457,-0.207340487 15.6136681,0.00309175038 15.6136681,0.00309175038 L9.46582984,0.00309175038 C8.61785215,0.00309175038 8.19386333,2.84392677 8.19386333,2.84392677 C8.19386333,2.84392677 12.3277545,0.634388415 16.8856346,2.84392677 Z" id="Shape" fill-rule="nonzero"></path>
                </g>
            </g>
        </g>
    </g>
</svg>