<?xml version="1.0" encoding="UTF-8"?>
<svg width="24px" height="24px" viewBox="0 0 24 24" version="1.1" xmlns="http://www.w3.org/2000/svg" xmlns:xlink="http://www.w3.org/1999/xlink">
    <!-- Generator: Sketch 49.2 (51160) - http://www.bohemiancoding.com/sketch -->
    <title>delete</title>
    <desc>Created with Sketch.</desc>
    <defs></defs>
    <g id="Symbols" stroke="none" stroke-width="1" fill="none" fill-rule="evenodd">
        <g id="delete">
            <g id="ic_cancel_24px">
                <path d="M12,2 C6.47,2 2,6.47 2,12 C2,17.53 6.47,22 12,22 C17.53,22 22,17.53 22,12 C22,6.47 17.53,2 12,2 Z M16.295,16.295 L16.295,16.295 C15.9056393,16.6843607 15.2743607,16.6843607 14.885,16.295 L12,13.41 L9.115,16.295 C8.72563925,16.6843607 8.09436075,16.6843607 7.705,16.295 L7.705,16.295 C7.31563925,15.9056393 7.31563925,15.2743607 7.705,14.885 L10.59,12 L7.705,9.115 C7.31563925,8.72563925 7.31563925,8.09436075 7.705,7.705 L7.705,7.705 C8.09436075,7.31563925 8.72563925,7.31563925 9.115,7.705 L12,10.59 L14.885,7.705 C15.2743607,7.31563925 15.9056393,7.31563925 16.295,7.705 L16.295,7.705 C16.6843607,8.09436075 16.6843607,8.72563925 16.295,9.115 L13.41,12 L16.295,14.885 C16.6843607,15.2743607 16.6843607,15.9056393 16.295,16.295 Z" id="Shape" fill="#CCCCCC" fill-rule="nonzero"></path>
                <polygon id="Shape" opacity="0" points="0 0 24 0 24 24 0 24"></polygon>
            </g>
        </g>
    </g>
</svg>