<?xml version="1.0" encoding="UTF-8"?>
<svg width="20px" height="20px" viewBox="0 0 20 20" version="1.1" xmlns="http://www.w3.org/2000/svg" xmlns:xlink="http://www.w3.org/1999/xlink">
    <!-- Generator: Sketch 50 (54983) - http://www.bohemiancoding.com/sketch -->
    <title>e_11</title>
    <desc>Created with Sketch.</desc>
    <defs></defs>
    <g id="开发资源" stroke="none" stroke-width="1" fill="none" fill-rule="evenodd">
        <g id="开发文档" transform="translate(-439.000000, -1919.000000)">
            <g id="18" transform="translate(439.000000, 1919.000000)">
                <g>
                    <rect id="Rectangle" fill="#D8D8D8" opacity="0" x="0" y="0" width="20" height="20"></rect>
                    <path d="M9.96498933,9.54360648 L10.0327519,9.54360648 C11.5980675,9.52553645 12.862969,8.27644623 12.862969,6.74049442 L12.862969,5.80537081 C12.862969,4.25586648 11.5799975,3 9.99887062,3 C8.41774376,3 7.13477224,4.25586648 7.13477224,5.80537081 L7.13477224,6.74049442 C7.13477224,8.27644623 8.39967374,9.52553645 9.96498933,9.54360648 Z M15.5215209,9.95244071 C16.5379596,9.95244071 17.3624043,9.16639478 17.3624043,8.19964864 L17.3624043,7.61237295 C17.3624043,6.64336805 16.5379596,5.85958088 15.5215209,5.85958088 C14.5050822,5.85958088 13.6806375,6.6456268 13.6806375,7.61237295 L13.6806375,8.19738989 C13.6806375,9.16639478 14.5050822,9.95244071 15.5215209,9.95244071 Z M4.47622035,9.95244071 C5.49265905,9.95244071 6.31710378,9.16639478 6.31710378,8.19964864 L6.31710378,7.61237295 C6.31710378,6.64336805 5.49265905,5.85958088 4.47622035,5.85958088 C3.45978165,5.85958088 2.63533693,6.6456268 2.63533693,7.61237295 L2.63533693,8.19738989 C2.63307818,9.16639478 3.4575229,9.95244071 4.47622035,9.95244071 Z M1.81992722,11.7368553 C1.33655415,11.9830594 1,12.534195 1,13.1801983 L1,13.9007404 C1,14.3773372 1.27556783,14.7748777 1.65277952,14.9058853 C2.24005521,15.0594805 2.84088342,15.1611244 3.45526415,15.2175932 L3.45526415,13.9459154 C3.45526415,12.8097628 3.86635713,11.8136529 4.49203162,11.1834609 L4.47622035,11.1834609 C3.54109675,11.1789434 2.64437194,11.3777136 1.81992722,11.7368553 Z M18.1845903,11.7391141 C17.3578868,11.3777136 16.461162,11.1789434 15.5215209,11.1789434 L15.5079684,11.1789434 C16.1359016,11.8113942 16.5447359,12.8075041 16.5447359,13.9413979 L16.5447359,15.2153344 C17.1568578,15.1588656 17.7599448,15.0572217 18.342703,14.9036266 C18.7199147,14.7748777 19,14.3750784 19,13.8962229 L19,13.182457 C19,12.5364538 18.6634459,11.9875769 18.1845903,11.7391141 Z M14.0691429,11.666834 C12.8042414,11.0863345 11.4331786,10.7678504 9.99887062,10.7678504 C8.56682143,10.7678504 7.20027607,11.0863345 5.93763333,11.6623165 C5.19902121,12.0530807 4.68176685,12.936253 4.68176685,13.9685029 L4.68176685,15.1204668 C4.68176685,15.8839252 5.1041536,16.5231522 5.68013553,16.7309575 C7.07152717,17.1081692 8.51487012,17.3159744 10.0011294,17.3159744 C11.4851299,17.3159744 12.9262141,17.1126867 14.315347,16.7332162 C14.8958464,16.5276697 15.3182332,15.886184 15.3182332,15.1227256 L15.3182332,13.9707617 C15.3182332,12.9407705 14.8032375,12.0598569 14.0691429,11.666834 Z" id="Shape" fill="#99A5A0" fill-rule="nonzero"></path>
                </g>
            </g>
        </g>
    </g>
</svg>