<?xml version="1.0" encoding="UTF-8"?>
<svg width="20px" height="20px" viewBox="0 0 20 20" version="1.1" xmlns="http://www.w3.org/2000/svg" xmlns:xlink="http://www.w3.org/1999/xlink">
    <!-- Generator: Sketch 50 (54983) - http://www.bohemiancoding.com/sketch -->
    <title>e_13</title>
    <desc>Created with Sketch.</desc>
    <defs></defs>
    <g id="开发资源" stroke="none" stroke-width="1" fill="none" fill-rule="evenodd">
        <g id="开发文档" transform="translate(-503.000000, -1920.000000)">
            <g id="16" transform="translate(503.000000, 1920.000000)">
                <g>
                    <rect id="Rectangle" fill="#D8D8D8" opacity="0" x="0" y="0" width="20" height="20"></rect>
                    <path d="M9.5,1 C14.1944775,1 18,4.80552251 18,9.5 C18,14.1944775 14.1944775,18 9.5,18 C4.80552251,18 1,14.1944775 1,9.5 C1,4.80552251 4.80552251,1 9.5,1 Z M9.5,12.4115975 C8.78911023,12.4115975 8.2127548,12.9877815 8.2127548,13.6988427 C8.2127548,14.4097324 8.78911023,14.9860879 9.5,14.9860879 C10.2108898,14.9860879 10.7872452,14.4097324 10.7872452,13.6988427 C10.7872452,12.9877815 10.2108898,12.4115975 9.5,12.4115975 Z M9.46298163,11.4052463 C10.0753271,11.4052463 10.5716475,10.9087546 10.5716475,10.2965804 L10.5716475,5.12257798 C10.5716475,4.51023247 10.0753271,4.01391213 9.46298163,4.01391213 C8.85063613,4.01391213 8.35431579,4.51040386 8.35431579,5.12257798 L8.35431579,10.2965804 C8.35431579,10.9089259 8.85063613,11.4052463 9.46298163,11.4052463 Z" id="Shape" fill="#99A5A0" fill-rule="nonzero"></path>
                </g>
            </g>
        </g>
    </g>
</svg>