<?xml version="1.0" encoding="UTF-8"?>
<svg width="20px" height="20px" viewBox="0 0 20 20" version="1.1" xmlns="http://www.w3.org/2000/svg" xmlns:xlink="http://www.w3.org/1999/xlink">
    <!-- Generator: Sketch 50 (54983) - http://www.bohemiancoding.com/sketch -->
    <title>e_19</title>
    <desc>Created with Sketch.</desc>
    <defs></defs>
    <g id="开发资源" stroke="none" stroke-width="1" fill="none" fill-rule="evenodd">
        <g id="开发文档" transform="translate(-695.000000, -1921.000000)">
            <g id="8" transform="translate(695.000000, 1921.000000)">
                <g>
                    <rect id="Rectangle" fill="#D8D8D8" opacity="0" x="0" y="0" width="20" height="20"></rect>
                    <path d="M10.5510031,19 C11.5470928,19 12.3182591,18.2288337 12.3182591,17.232744 L8.78374703,17.232744 C8.78374703,18.2288337 9.5549133,19 10.5510031,19 Z M16.3508161,13.2483849 L16.3508161,8.6535192 C16.3508161,5.8901734 14.3907685,3.57667459 11.8362802,2.96616796 L11.8362802,2.38779326 C11.8362802,1.7451547 11.482829,1.16677999 10.8723223,1.03825228 C9.98869433,0.829394751 9.26572595,1.50416524 9.26572595,2.37172729 L9.26572595,2.98223392 C6.71123768,3.57667459 4.75119007,5.8901734 4.75119007,8.6535192 L4.75119007,13.2483849 L3,15.0477729 L3,15.9474668 L18.1020061,15.9474668 L18.1020061,15.0477729 L16.3508161,13.2483849 Z" id="Shape" fill="#99A5A0" fill-rule="nonzero"></path>
                </g>
            </g>
        </g>
    </g>
</svg>