<?xml version="1.0" encoding="UTF-8"?>
<svg width="20px" height="20px" viewBox="0 0 20 20" version="1.1" xmlns="http://www.w3.org/2000/svg" xmlns:xlink="http://www.w3.org/1999/xlink">
    <!-- Generator: Sketch 50 (54983) - http://www.bohemiancoding.com/sketch -->
    <title>e_2</title>
    <desc>Created with Sketch.</desc>
    <defs></defs>
    <g id="开发资源" stroke="none" stroke-width="1" fill="none" fill-rule="evenodd">
        <g id="开发文档" transform="translate(-120.000000, -1920.000000)">
            <g id="筛选1" transform="translate(120.000000, 1920.000000)">
                <g id="筛选">
                    <rect id="Rectangle" fill="#D8D8D8" opacity="0" x="0" y="0" width="20" height="20"></rect>
                    <path d="M15.2156558,16.255767 L15.2156558,16.5536358 C15.2156558,18 12.854287,18 10.1195234,18 L7.09571063,18 C4.24893222,18 2,18 2,16.5536358 L2,16.255767 C2,13.4886953 4.28543924,11.2380945 7.09571063,11.2380945 L10.1195234,11.2380945 C12.9295931,11.2380945 15.2156558,13.489337 15.2156558,16.255767 Z M12.8455591,6.32453395 C12.8455591,8.70933613 10.8766363,10.6490679 8.45646396,10.6490679 C6.03652995,10.6490679 4.06736885,8.70865772 4.06736885,6.32453395 C4.06736885,3.94019017 6.03652995,2 8.45646396,2 C10.8766363,2.00001835 12.8455591,3.93975011 12.8455591,6.32453395 Z" id="Combined-Shape" fill="#99A5A0" fill-rule="nonzero"></path>
                </g>
            </g>
        </g>
    </g>
</svg>