<?xml version="1.0" encoding="UTF-8"?>
<svg width="20px" height="20px" viewBox="0 0 20 20" version="1.1" xmlns="http://www.w3.org/2000/svg" xmlns:xlink="http://www.w3.org/1999/xlink">
    <!-- Generator: Sketch 50 (54983) - http://www.bohemiancoding.com/sketch -->
    <title>e_20</title>
    <desc>Created with Sketch.</desc>
    <defs></defs>
    <g id="开发资源" stroke="none" stroke-width="1" fill="none" fill-rule="evenodd">
        <g id="开发文档" transform="translate(-727.000000, -1921.000000)">
            <g id="7" transform="translate(727.000000, 1921.000000)">
                <g>
                    <rect id="Rectangle" fill="#D8D8D8" opacity="0" x="0" y="0" width="20" height="20"></rect>
                    <path d="M14.6365714,8.18171429 C14.6365714,7.57942857 14.148,7.09085714 13.5457143,7.09085714 C12.9434286,7.09085714 12.4548571,7.57942857 12.4548571,8.18171429 C12.4548571,8.784 12.9434286,9.27257143 13.5457143,9.27257143 C14.148,9.27257143 14.6365714,8.784 14.6365714,8.18171429 M14.2497143,11.4542857 L7.75085714,11.4542857 C7.48457143,11.4542857 7.29714286,11.7068571 7.38628571,11.9445714 C7.91428571,13.3542857 9.33257143,14.3634286 11,14.3634286 C12.668,14.3634286 14.0862857,13.3542857 14.6142857,11.9445714 C14.7034286,11.7068571 14.516,11.4542857 14.2497143,11.4542857 M7.364,8.18171429 C7.364,8.784 7.85257143,9.27257143 8.45485714,9.27257143 C9.05714286,9.27257143 9.54571429,8.784 9.54571429,8.18171429 C9.54571429,7.57942857 9.05714286,7.09085714 8.45485714,7.09085714 C7.85257143,7.09085714 7.364,7.57942857 7.364,8.18171429 M19,10 C19,14.4182857 15.4182857,18 11,18 C9.51142857,18 8.12228571,17.5862857 6.92914286,16.8777143 L3.62914286,17.82 C3.35485714,17.8982857 3.10114286,17.6451429 3.18,17.3708571 L4.12228571,14.0714286 C3.41428571,12.8777143 3,11.4885714 3,10 C3,5.58171429 6.58228571,2 11,2 C15.4182857,2 19,5.58171429 19,10" id="Shape" fill="#99A5A0" fill-rule="nonzero"></path>
                </g>
            </g>
        </g>
    </g>
</svg>