<?xml version="1.0" encoding="UTF-8"?>
<svg width="20px" height="20px" viewBox="0 0 20 20" version="1.1" xmlns="http://www.w3.org/2000/svg" xmlns:xlink="http://www.w3.org/1999/xlink">
    <!-- Generator: Sketch 50 (54983) - http://www.bohemiancoding.com/sketch -->
    <title>e_5</title>
    <desc>Created with Sketch.</desc>
    <defs></defs>
    <g id="开发资源" stroke="none" stroke-width="1" fill="none" fill-rule="evenodd">
        <g id="开发文档" transform="translate(-215.000000, -1919.000000)">
            <g id="24" transform="translate(215.000000, 1919.000000)">
                <g>
                    <rect id="Rectangle" fill="#D8D8D8" opacity="0" x="0" y="0" width="20" height="20"></rect>
                    <path d="M17.5018727,9.31376631 C17.974333,8.84130603 18.1197054,8.11444403 17.9016468,7.49661136 C17.6835882,6.84243557 17.1747849,6.36997529 16.5206091,6.26094597 L13.6131611,5.7521426 C13.2860732,5.6794564 13.0316716,5.4977409 12.8862991,5.2069961 L11.5052614,2.51760678 C11.2508597,1.863431 10.6693701,1.5 10.0151943,1.5 C9.36101854,1.5 8.77952895,1.863431 8.45244106,2.48126367 L7.10774639,5.17065301 C6.962374,5.4613978 6.6716292,5.6794564 6.38088441,5.71579949 L3.47343649,6.22460288 C2.8192607,6.33363219 2.31045731,6.80609247 2.09239872,7.46026825 C1.87434014,8.11444403 2.05605562,8.80496292 2.49217281,9.2774232 L4.52738635,11.4580092 C4.74544494,11.6760677 4.85447425,12.0394987 4.81813116,12.3665866 L4.38201396,15.3830638 C4.27298466,16.0372396 4.56372946,16.7277585 5.07253285,17.1275326 C5.36327764,17.3455912 5.72670863,17.4909636 6.09013963,17.4909636 C6.34454132,17.4909636 6.63528611,17.4182774 6.8533447,17.3092481 L9.50639093,15.9645534 C9.79713572,15.819181 10.1242236,15.819181 10.4149684,15.9645534 L13.0680146,17.3092481 C13.6495042,17.5999929 14.3400231,17.5636498 14.8851696,17.1638757 C15.393973,16.7641016 15.6847178,16.1099258 15.5756885,15.419407 L15.1759144,12.4029297 C15.1395713,12.0758418 15.2486006,11.7487539 15.4666592,11.4943522 L17.5018727,9.31376631 Z" id="Shape" fill="#99A5A0" fill-rule="nonzero"></path>
                </g>
            </g>
        </g>
    </g>
</svg>