<?xml version="1.0" encoding="UTF-8"?>
<svg width="20px" height="20px" viewBox="0 0 20 20" version="1.1" xmlns="http://www.w3.org/2000/svg" xmlns:xlink="http://www.w3.org/1999/xlink">
    <!-- Generator: Sketch 50 (54983) - http://www.bohemiancoding.com/sketch -->
    <title>e_6</title>
    <desc>Created with Sketch.</desc>
    <defs></defs>
    <g id="开发资源" stroke="none" stroke-width="1" fill="none" fill-rule="evenodd">
        <g id="开发文档" transform="translate(-279.000000, -1920.000000)">
            <g id="23" transform="translate(279.000000, 1920.000000)">
                <g>
                    <rect id="Rectangle" fill="#D8D8D8" opacity="0" x="0" y="0" width="20" height="20"></rect>
                    <path d="M15.2676207,16.7747591 C13.9633103,17.1710349 11.8775862,17.2413798 9.62068966,17.2413798 C5.2804138,17.2413798 2,16.7261039 2,15.4827591 C2,13.1209315 4.26510345,11.0416556 7.52089656,10.4062074 C5.63120182,9.55486823 4.59257171,7.49953053 5.02807956,5.47318964 C5.46358741,3.44684874 7.25497325,1.99974738 9.3275862,2.00000046 C11.3793708,1.99907109 13.1589951,3.41744948 13.6157874,5.41773989 C14.0725798,7.41803031 13.085071,9.46831955 11.2362759,10.3581384 C11.7492069,10.4554487 12.2439655,10.5967246 12.7117586,10.7766901 C12.2360443,11.2045816 11.9647231,11.8145748 11.9655172,12.4544143 C11.9655172,14.6509315 14.0764483,15.9441039 15.2676207,16.7747591 Z M14.8045172,10.7931039 C15.3145172,10.7931039 15.7635517,11.0334487 16.0689655,11.399828 C16.3743793,11.0340349 16.824,10.7931039 17.3328276,10.7931039 C18.2502414,10.7931039 19,11.5487246 19,12.4784487 C19,14.385966 16.8767586,15.3860349 16.1604138,15.989828 L16.0689655,16.068966 L15.9775172,15.989828 C15.26,15.3854487 13.137931,14.385966 13.137931,12.4784487 C13.137931,11.5493108 13.8876897,10.7931039 14.8051034,10.7931039 L14.8045172,10.7931039 Z" id="Shape" fill="#99A5A0" fill-rule="nonzero"></path>
                </g>
            </g>
        </g>
    </g>
</svg>