<?xml version="1.0" encoding="UTF-8"?>
<svg width="20px" height="20px" viewBox="0 0 20 20" version="1.1" xmlns="http://www.w3.org/2000/svg" xmlns:xlink="http://www.w3.org/1999/xlink">
    <!-- Generator: Sketch 50 (54983) - http://www.bohemiancoding.com/sketch -->
    <title>e_7</title>
    <desc>Created with Sketch.</desc>
    <defs></defs>
    <g id="开发资源" stroke="none" stroke-width="1" fill="none" fill-rule="evenodd">
        <g id="开发文档" transform="translate(-311.000000, -1920.000000)">
            <g id="22" transform="translate(311.000000, 1920.000000)">
                <g>
                    <rect id="Rectangle" fill="#D8D8D8" opacity="0" x="0" y="0" width="20" height="20"></rect>
                    <path d="M9.95049565,7.19989331 L9.5,5.00687026 L9.08351115,7.1947734 C8.62961481,7.27637083 8.19442222,7.49225734 7.8425085,7.84247072 C6.92791447,8.75878398 6.92791447,10.2411782 7.8425085,11.1557723 C8.75712142,12.0703663 10.241216,12.0703663 11.1558101,11.1557723 C12.0721233,10.239459 12.0721233,8.75706475 11.1558101,7.84247072 C10.8141173,7.50077793 10.3925085,7.28489142 9.95051455,7.19987442 L9.95049565,7.19989331 Z M14.7904003,14.7887 L11.458395,11.4566947 C11.1013992,11.8136905 10.6712887,12.0516814 10.2173924,12.174087 L11.4379909,16.7283912 C10.8140984,16.8949868 10.1629815,16.9799849 9.5,16.9799849 C8.83701851,16.9799849 8.18760196,16.8932864 7.56370941,16.7283912 L8.78430797,12.174087 C8.3287113,12.0533818 7.90030117,11.8137094 7.54330533,11.4566947 L4.21130004,14.7887 C3.24909649,13.8264964 2.60309951,12.6637094 2.27670979,11.4346091 L6.8276133,10.2157109 C6.70182634,9.74629029 6.70182634,9.25202826 6.8276133,8.78260763 L2.27670979,7.56370941 C2.60309951,6.33460914 3.24741504,5.17180325 4.20961859,4.20961859 L7.54162388,7.54162388 C7.89861972,7.18462804 8.32702985,6.94663711 8.78262653,6.82423151 L7.5637283,2.26992732 C8.18762086,2.10503212 8.83701851,2.01833367 9.50001889,2.01833367 C10.1630193,2.01833367 10.8124169,2.10503212 11.4380098,2.26992732 L10.2174113,6.82423151 C10.6713076,6.94493677 11.1014181,7.18460914 11.4584139,7.54162388 L14.7904192,4.20961859 C15.7339379,5.15313729 16.395219,6.30572226 16.7301105,7.56200907 L12.1741248,8.78260763 C12.2999118,9.25202826 12.2999118,9.74629029 12.1741248,10.2157109 L16.728429,11.4363095 C16.3935376,12.6925963 15.733919,13.845219 14.7904381,14.7887 L14.7904003,14.7887 Z M15.5111933,3.48880665 C13.9046932,1.8840068 11.771182,1 9.5,1 C7.23048054,1 5.09530684,1.8840068 3.49050699,3.48880665 C1.8840068,5.0936065 1,7.22881799 1,9.49829966 C1,11.7695006 1.8840068,13.9029928 3.49050699,15.509493 C5.09530684,17.1159932 7.23051833,17.9982997 9.5,17.9982997 C11.7712009,17.9982997 13.9046932,17.1142929 15.5111933,15.509493 C17.1176935,13.9046932 18,11.7694817 18,9.49829966 C18,7.2287802 17.1159932,5.0936065 15.5111933,3.48880665 Z" id="Shape" fill="#99A5A0" fill-rule="nonzero"></path>
                </g>
            </g>
        </g>
    </g>
</svg>