<?xml version="1.0" encoding="UTF-8"?>
<svg width="20px" height="20px" viewBox="0 0 20 20" version="1.1" xmlns="http://www.w3.org/2000/svg" xmlns:xlink="http://www.w3.org/1999/xlink">
    <!-- Generator: Sketch 50 (54983) - http://www.bohemiancoding.com/sketch -->
    <title>e_9</title>
    <desc>Created with Sketch.</desc>
    <defs></defs>
    <g id="开发资源" stroke="none" stroke-width="1" fill="none" fill-rule="evenodd">
        <g id="开发文档" transform="translate(-375.000000, -1920.000000)">
            <g id="20" transform="translate(375.000000, 1920.000000)">
                <g>
                    <rect id="Rectangle" fill="#D8D8D8" opacity="0" x="0" y="0" width="20" height="20"></rect>
                    <path d="M16,18 L13.4,18 C12.9,18 12.4,17.8 12,17.4 C11.5,16.9 10.8,16.6 10.1,16.6 C9.4,16.6 8.7,16.9 8.2,17.4 C7.7,17.8 7.2,18 6.6,18 L4,18 C2.9,18 2,17.1 2,16 L2,5 C2,3.45996094 2.75634766,2 5,2 L6.7,2 C7.2,2 7.7,2.2 8.1,2.6 C8.6,3.1 9.3,3.4 10,3.4 C10.7,3.4 11.4,3.1 11.9,2.6 C12.3,2.2 12.8,2 13.3,2 C13.2938477,2 13.8605143,2 15,2 C16.7092285,2 18,2.84570312 18,5 L18,16 C18,17.1 17.1,18 16,18 Z M17.5,8.7 C17.8,8.7 18,8.5 18,8.2 C18,7.9 17.8,7.7 17.5,7.7 L15.2,7.7 C14.9,7.7 14.7,7.9 14.7,8.2 C14.7,8.5 14.9,8.7 15.2,8.7 L17.5,8.7 Z M12.7,8.7 C13,8.7 13.2,8.5 13.2,8.2 C13.2,7.9 13,7.7 12.7,7.7 L11.3,7.7 C11,7.7 10.8,7.9 10.8,8.2 C10.8,8.5 11,8.7 11.3,8.7 L12.7,8.7 Z M8.8,8.7 C9.1,8.7 9.4,8.5 9.4,8.2 C9.4,7.9 9.2,7.7 8.9,7.7 L7.5,7.7 C7.2,7.7 7,7.9 7,8.2 C7,8.5 7.2,8.7 7.5,8.7 L8.8,8.7 Z M4.8,8.7 C5,8.7 5.3,8.5 5.3,8.2 C5.3,7.9 5.1,7.7 4.8,7.7 L2.8,7.7 C2.5,7.7 2.3,7.9 2.3,8.2 C2.3,8.5 2.5,8.7 2.8,8.7 L4.8,8.7 Z" id="Combined-Shape" fill="#99A5A0" fill-rule="nonzero"></path>
                </g>
            </g>
        </g>
    </g>
</svg>