<?xml version="1.0" encoding="UTF-8"?>
<svg width="137px" height="45px" viewBox="0 0 137 45" version="1.1" xmlns="http://www.w3.org/2000/svg" xmlns:xlink="http://www.w3.org/1999/xlink">
    <!-- Generator: Sketch 50 (54983) - http://www.bohemiancoding.com/sketch -->
    <title>G_11</title>
    <desc>Created with Sketch.</desc>
    <defs></defs>
    <g id="开发资源" stroke="none" stroke-width="1" fill="none" fill-rule="evenodd">
        <g id="开发文档" transform="translate(-701.000000, -2622.000000)">
            <g id="D_11" transform="translate(701.000000, 2622.000000)">
                <rect id="Rectangle-14-Copy" fill="#383E49" x="0" y="0" width="137" height="45" rx="5"></rect>
                <text id="Android" font-family="LucidaGrande, Lucida Grande" font-size="16" font-weight="normal" fill="#FFFFFF">
                    <tspan x="47" y="33">Android</tspan>
                </text>
                <text id="To-download" opacity="0.400000006" font-family="LucidaGrande-Bold, Lucida Grande" font-size="8" font-weight="bold" fill="#FFFFFF">
                    <tspan x="47" y="15">To download</tspan>
                </text>
                <g id="安卓" transform="translate(14.000000, 10.000000)" fill="#FFFFFF" fill-rule="nonzero">
                    <path d="M1.47319935,7.76208131 C0.658634149,7.76208131 0,8.42537967 0,9.24336951 L0,15.4474357 C0,16.2654256 0.660961478,16.9287239 1.47319935,16.9287239 C2.28776455,16.9287239 2.9463987,16.2654256 2.9463987,15.4474357 L2.9463987,9.24336951 C2.9463987,8.42537967 2.28776455,7.76208131 1.47319935,7.76208131 Z M3.51659434,17.6553052 C3.51659434,18.5295464 4.22177507,19.2373772 5.08986885,19.2373772 L6.16276758,19.2373772 L6.16276758,22.5187118 C6.16276758,23.3367016 6.82372906,24 7.63596693,24 C8.45053213,24 9.10916628,23.3367016 9.10916628,22.5187118 L9.10916628,19.2373772 L11.0990327,19.2373772 L11.0990327,22.5187118 C11.0990327,23.3367016 11.7599942,24 12.5722321,24 C13.3867973,24 14.0454314,23.3367016 14.0454314,22.5187118 L14.0454314,19.2373772 L15.1183301,19.2373772 C15.9864239,19.2373772 16.6916046,18.5295464 16.6916046,17.6553052 L16.6916046,8.04099476 L3.51659434,8.04099476 L3.51659434,17.6553052 Z M13.3588693,2.1885001 L14.3875488,0.304076514 C14.4434047,0.205636476 14.4061674,0.0790707126 14.3060923,0.0251630727 C14.2083444,-0.0287445673 14.0826687,0.00641258919 14.0291401,0.107196438 L12.988824,2.01037051 C12.1160755,1.62129798 11.1385973,1.40332361 10.1052632,1.40332361 C9.07192902,1.40332361 8.09445077,1.62129798 7.22170234,2.0080267 L6.18138622,0.107196438 C6.12785765,0.00641258919 6.00218187,-0.0287445673 5.90443405,0.0251630727 C5.80435889,0.0790707126 5.76712163,0.205636476 5.82297753,0.304076514 L6.85165701,2.1885001 C4.83153531,3.23852718 3.4653931,5.23545367 3.4653931,7.52535646 L16.7428089,7.52535646 C16.7451332,5.23310986 15.378991,3.23852718 13.3588693,2.1885001 Z M7.08438992,5.1088879 C6.77718248,5.1088879 6.52815826,4.85810019 6.52815826,4.54871721 C6.52815826,4.23933423 6.77718248,3.98854652 7.08438992,3.98854652 C7.39159737,3.98854652 7.64062159,4.23933423 7.64062159,4.54871721 C7.63829426,4.85810019 7.38927004,5.1088879 7.08438992,5.1088879 Z M13.1284637,5.1088879 C12.8212563,5.1088879 12.5722321,4.85810019 12.5722321,4.54871721 C12.5722321,4.23933423 12.8212563,3.98854652 13.1284637,3.98854652 C13.4356712,3.98854652 13.6846954,4.23933423 13.6846954,4.54871721 C13.6823681,4.85810019 13.4333438,5.1088879 13.1284637,5.1088879 Z M18.737327,7.76208131 C17.9227618,7.76208131 17.2641276,8.42537967 17.2641276,9.24336951 L17.2641276,15.4474357 C17.2641276,16.2654256 17.9250891,16.9287239 18.737327,16.9287239 C19.5518922,16.9287239 20.2105263,16.2654256 20.2105263,15.4474357 L20.2105263,9.24336951 C20.2105263,8.42537967 19.5518922,7.76208131 18.737327,7.76208131 Z" id="Shape"></path>
                </g>
            </g>
        </g>
    </g>
</svg>