<?xml version="1.0" encoding="UTF-8"?>
<svg width="48px" height="48px" viewBox="0 0 48 48" version="1.1" xmlns="http://www.w3.org/2000/svg" xmlns:xlink="http://www.w3.org/1999/xlink">
    <!-- Generator: Sketch 50 (54983) - http://www.bohemiancoding.com/sketch -->
    <title>G_20</title>
    <desc>Created with Sketch.</desc>
    <defs></defs>
    <g id="开发资源" stroke="none" stroke-width="1" fill="none" fill-rule="evenodd">
        <g id="开发文档" transform="translate(-523.000000, -2504.000000)">
            <g id="G_20" transform="translate(523.000000, 2504.000000)">
                <rect id="Rectangle" fill="#CA6969" opacity="0" x="0" y="0" width="48" height="48"></rect>
                <g id="xz">
                    <polygon id="Star" fill="#33CC99" points="24 44.1599994 17.7883429 47.1822198 13.9200003 41.4590716 7.02943725 40.9705627 6.5409284 34.0799997 0.817780169 30.2116571 3.84000063 24 0.817780169 17.7883429 6.5409284 13.9200003 7.02943725 7.02943725 13.9200003 6.5409284 17.7883429 0.817780169 24 3.84000063 30.2116571 0.817780169 34.0799997 6.5409284 40.9705627 7.02943725 41.4590716 13.9200003 47.1822198 17.7883429 44.1599994 24 47.1822198 30.2116571 41.4590716 34.0799997 40.9705627 40.9705627 34.0799997 41.4590716 30.2116571 47.1822198"></polygon>
                    <path d="M42.0523425,24.3133225 C42.0529123,31.5936647 37.6677784,38.1574543 30.9417828,40.9439154 C24.2157873,43.7303766 16.4735485,42.1907432 11.3253677,37.0429653 C6.17718697,31.8951874 4.63694769,24.1530691 7.4228824,17.4268554 C10.2088171,10.7006417 16.7722635,6.31499416 24.0526056,6.31499413 C33.9930357,6.3149941 42.0515646,14.3728924 42.0523425,24.3133225 Z" id="Shape" fill="#DEFFF4" fill-rule="nonzero"></path>
                    <path d="M33.78,16.72 L33.84,16.78 L32.34,18.28 L27.3,13.24 L28.6926553,11.8473447 C28.7260139,11.8102375 28.7617903,11.7743887 28.8,11.74 C29.34,11.2 30.18,11.14 30.72,11.68 L33.84,14.8 C34.38,15.34 34.32,16.18 33.78,16.72 Z M19.86,31.48 L27.9,31.48 L27.9,32.68 L19.86,32.68 L19.86,31.48 Z M28.9,31.48 L35.7200002,31.48 L35.7200002,32.68 L28.9,32.68 L28.9,31.48 Z M26.3237305,14.237793 L31.2998047,19.2512207 L21.3935547,29.1699219 L16.2966309,24.0634766 L26.3237305,14.237793 Z M15.24,25.3 L20.28,30.34 L13.2,32.32 L15.24,25.3 Z" id="Combined-Shape" fill="#06AF77" fill-rule="nonzero"></path>
                </g>
            </g>
        </g>
    </g>
</svg>