<?xml version="1.0" encoding="UTF-8"?>
<svg width="48px" height="48px" viewBox="0 0 48 48" version="1.1" xmlns="http://www.w3.org/2000/svg" xmlns:xlink="http://www.w3.org/1999/xlink">
    <!-- Generator: Sketch 50 (54983) - http://www.bohemiancoding.com/sketch -->
    <title>G_21</title>
    <desc>Created with Sketch.</desc>
    <defs></defs>
    <g id="开发资源" stroke="none" stroke-width="1" fill="none" fill-rule="evenodd">
        <g id="开发文档" transform="translate(-587.000000, -2504.000000)">
            <g id="G_21" transform="translate(587.000000, 2504.000000)">
                <rect id="Rectangle" fill="#F5A623" opacity="0" x="0" y="0" width="48" height="48"></rect>
                <g id="xz">
                    <polygon id="Star" fill="#00A2FF" points="24 44.1599994 17.7883429 47.1822198 13.9200003 41.4590716 7.02943725 40.9705627 6.5409284 34.0799997 0.817780169 30.2116571 3.84000063 24 0.817780169 17.7883429 6.5409284 13.9200003 7.02943725 7.02943725 13.9200003 6.5409284 17.7883429 0.817780169 24 3.84000063 30.2116571 0.817780169 34.0799997 6.5409284 40.9705627 7.02943725 41.4590716 13.9200003 47.1822198 17.7883429 44.1599994 24 47.1822198 30.2116571 41.4590716 34.0799997 40.9705627 40.9705627 34.0799997 41.4590716 30.2116571 47.1822198"></polygon>
                    <path d="M42.0523425,24.3133225 C42.0529123,31.5936647 37.6677784,38.1574543 30.9417828,40.9439154 C24.2157873,43.7303766 16.4735485,42.1907432 11.3253677,37.0429653 C6.17718697,31.8951874 4.63694769,24.1530691 7.4228824,17.4268554 C10.2088171,10.7006417 16.7722635,6.31499416 24.0526056,6.31499413 C33.9930357,6.3149941 42.0515646,14.3728924 42.0523425,24.3133225 Z" id="Shape" fill="#E5F5FF" fill-rule="nonzero"></path>
                    <path d="M32.4822553,25.2486254 C15.5081476,25.2486254 15.5081476,25.2486254 15.5081476,25.2486254 C15.5081476,35.7094872 32.0759772,35.7094872 32.4822553,25.2486254 Z M18.0193942,20.7987604 C19.4653604,20.7987604 20.6394082,19.6279116 20.6394082,18.1883435 C20.6394082,16.7455763 19.4653604,15.5779266 18.0193942,15.5779266 C16.573428,15.5779266 15.3993802,16.7455763 15.3993802,18.1883435 C15.3993802,19.6279116 16.5702289,20.7987604 18.0193942,20.7987604 Z M29.7630711,20.7987604 C31.2058383,20.7987604 32.373488,19.6279116 32.373488,18.1883435 C32.373488,16.7455763 31.2026392,15.5779266 29.7630711,15.5779266 C28.3203039,15.5779266 27.1526542,16.7455763 27.1526542,18.1883435 C27.1494552,19.6279116 28.3203039,20.7987604 29.7630711,20.7987604 Z" id="Shape" fill="#128EE9" fill-rule="nonzero"></path>
                </g>
            </g>
        </g>
    </g>
</svg>