<?xml version="1.0" encoding="UTF-8"?>
<svg width="48px" height="48px" viewBox="0 0 48 48" version="1.1" xmlns="http://www.w3.org/2000/svg" xmlns:xlink="http://www.w3.org/1999/xlink">
    <!-- Generator: Sketch 50 (54983) - http://www.bohemiancoding.com/sketch -->
    <title>G_22</title>
    <desc>Created with Sketch.</desc>
    <defs></defs>
    <g id="开发资源" stroke="none" stroke-width="1" fill="none" fill-rule="evenodd">
        <g id="开发文档" transform="translate(-651.000000, -2504.000000)">
            <g id="G_22" transform="translate(651.000000, 2504.000000)">
                <rect id="Rectangle" fill="#F5A623" opacity="0" x="0" y="0" width="48" height="48"></rect>
                <g id="xz">
                    <polygon id="Star" fill="#9F3FC8" points="24 44.1599994 17.7883429 47.1822198 13.9200003 41.4590716 7.02943725 40.9705627 6.5409284 34.0799997 0.817780169 30.2116571 3.84000063 24 0.817780169 17.7883429 6.5409284 13.9200003 7.02943725 7.02943725 13.9200003 6.5409284 17.7883429 0.817780169 24 3.84000063 30.2116571 0.817780169 34.0799997 6.5409284 40.9705627 7.02943725 41.4590716 13.9200003 47.1822198 17.7883429 44.1599994 24 47.1822198 30.2116571 41.4590716 34.0799997 40.9705627 40.9705627 34.0799997 41.4590716 30.2116571 47.1822198"></polygon>
                    <path d="M42.0523425,24.3133225 C42.0529123,31.5936647 37.6677784,38.1574543 30.9417828,40.9439154 C24.2157873,43.7303766 16.4735485,42.1907432 11.3253677,37.0429653 C6.17718697,31.8951874 4.63694769,24.1530691 7.4228824,17.4268554 C10.2088171,10.7006417 16.7722635,6.31499416 24.0526056,6.31499413 C33.9930357,6.3149941 42.0515646,14.3728924 42.0523425,24.3133225 Z" id="Shape" fill="#F8E9FF" fill-rule="nonzero"></path>
                    <path d="M36.697201,32.0254453 C36.697201,31.6997455 36.3715013,31.3740458 36.0458015,31.3740458 L25.7506361,31.3740458 L35.9287532,21.1959288 C36.4173028,20.7073791 36.4173028,19.8117048 35.9287532,19.3231552 L26.8905852,10.3664122 C26.4020356,9.8778626 25.5063613,9.8778626 25.0178117,10.3664122 L13.0483461,22.3358779 C12.5597964,22.8244275 12.5597964,23.7201018 13.0483461,24.2086514 L20.2137405,31.2926209 L11.9541985,31.2926209 C11.6284987,31.2926209 11.302799,31.6183206 11.302799,31.9440204 L8,34.4681934 C8,34.7938931 8.32569975,35.1195929 8.65139949,35.1195929 L39.3486005,35.1195929 C39.6743003,35.1195929 40,34.7938931 40,34.4681934 L36.697201,32.0254453 Z M21.5165394,21.3587786 L23.6335878,23.6386768 L27.9491094,19.2417303 L28.6005089,19.9745547 L23.6335878,25.0229008 L20.783715,22.0916031 L21.5165394,21.3587786 Z" id="Shape" fill="#9F3FC8" fill-rule="nonzero"></path>
                </g>
            </g>
        </g>
    </g>
</svg>