<?xml version="1.0" encoding="UTF-8"?>
<svg width="24px" height="24px" viewBox="0 0 24 24" version="1.1" xmlns="http://www.w3.org/2000/svg" xmlns:xlink="http://www.w3.org/1999/xlink">
    <!-- Generator: Sketch 50 (54983) - http://www.bohemiancoding.com/sketch -->
    <title>G_3</title>
    <desc>Created with Sketch.</desc>
    <defs></defs>
    <g id="开发资源" stroke="none" stroke-width="1" fill="none" fill-rule="evenodd">
        <g id="开发文档" transform="translate(-484.000000, -2598.000000)">
            <g id="D_3" transform="translate(484.000000, 2598.000000)">
                <path d="M23.9951879,20.28369 C24.0112282,20.5691841 23.9871678,20.7875031 23.9230068,20.938647 C23.5380406,21.1233784 23.1330242,21.2745223 22.7079574,21.3920787 C22.2828906,21.5096351 21.8457936,21.6020008 21.3966665,21.6691759 C20.9475393,21.736351 20.5024222,21.7867323 20.0613152,21.8203198 C19.6202081,21.8539073 19.1911313,21.879098 18.7740846,21.8958918 C17.7635485,21.9630668 16.7530124,21.9966544 15.7424763,21.9966544 C14.7319402,21.9966544 13.721404,21.9798606 12.7108679,21.9462731 C12.4061031,21.9294793 12.1574791,21.9042886 11.964996,21.8707011 C11.772513,21.8371136 11.58805,21.6943665 11.4116072,21.44246 C11.2672449,21.2577286 11.1349128,21.0771956 11.0146109,20.900861 C10.8943089,20.7245264 10.7780171,20.5439934 10.6657353,20.359262 C10.3930509,19.9058303 10.144427,19.4356048 9.9198634,18.9485855 L9.24617265,17.4875277 C9.06972984,17.1516523 8.86521658,16.7528003 8.63263287,16.2909717 C8.40004916,15.8291431 8.15142519,15.3547191 7.88676097,14.8676999 C7.62209675,14.3806806 7.35743252,13.9146535 7.0927683,13.4696187 C6.82810408,13.0245838 6.58349018,12.6593194 6.3589266,12.3738253 C6.26268506,12.256269 6.1584234,12.1932923 6.04614161,12.1848954 C5.93385982,12.1764986 5.8135579,12.1974908 5.68523585,12.2478721 L5.30026971,12.3486347 C5.17194766,12.399016 5.04362562,12.4074129 4.91530357,12.3738253 C4.70678024,12.8104633 4.55439781,13.2512997 4.45815628,13.6963346 C4.36191474,14.1413694 4.28572353,14.5906027 4.22958263,15.0440344 C4.17344173,15.4974662 4.1213109,15.9592948 4.07319014,16.4295203 C4.02506937,16.8997458 3.94486809,17.3699713 3.8325863,17.8401968 C3.72030451,18.3608036 3.64411329,18.877212 3.60401265,19.3894219 C3.56391201,19.9016318 3.54386169,20.4180402 3.54386169,20.938647 C3.52782144,20.9722345 3.52381137,21.0184174 3.5318315,21.0771956 C3.53985163,21.1359738 3.54386169,21.1821566 3.54386169,21.2157442 C3.44762016,21.2493317 3.34335849,21.2661255 3.2310767,21.2661255 L2.9423521,21.2661255 C2.84611056,21.2661255 2.70174826,21.2787208 2.50926519,21.3039114 C2.31678212,21.3291021 2.18043994,21.3165068 2.10023866,21.2661255 C2.08419841,21.1317753 2.08419841,21.0100205 2.10023866,20.900861 C2.11627892,20.7917015 2.11627892,20.6699467 2.10023866,20.5355966 C2.02003738,19.561558 1.94384617,18.5707257 1.87166502,17.5630996 C1.79948387,16.5554736 1.69923227,15.5520459 1.57091022,14.5528167 C1.44258817,13.5535875 1.27416549,12.5711521 1.06564216,11.6055105 C0.857118834,10.6398688 0.576414356,9.70361624 0.223528727,8.79675277 C0.0310456565,8.19217712 -0.0371254309,7.57920459 0.0190154646,6.95783518 C0.0751563602,6.33646576 0.215508599,5.73189012 0.440072181,5.14410824 C0.664635763,4.55632636 0.945340241,3.99793358 1.28218561,3.46892989 C1.61903099,2.9399262 1.97191662,2.45710537 2.3408425,2.0204674 C3.89674732,3.54870029 5.42458169,5.10632226 6.92434562,6.69333333 C8.42410954,8.2803444 9.9198634,9.8799508 11.4116072,11.4921525 C11.7484526,11.8448216 12.0772778,12.2058877 12.3980829,12.5753506 C12.718888,12.9448134 13.0557334,13.2974826 13.4086191,13.6333579 C13.7615047,13.9692333 14.1384507,14.2715211 14.5394571,14.5402214 C14.9404635,14.8089217 15.3735504,15.0272407 15.8387178,15.1951784 C16.2718047,15.3463223 16.7209319,15.4218942 17.1860993,15.4218942 C17.3144214,15.438688 17.4427434,15.4470849 17.5710654,15.4470849 C17.6993875,15.4470849 17.8277095,15.4302911 17.9560316,15.3967036 C18.0201926,15.295941 18.0883637,15.1993768 18.1605449,15.1070111 C18.232726,15.0146453 18.3169373,14.9264781 18.4131789,14.8425092 C18.5896217,14.6745715 18.7901249,14.5402214 19.0146885,14.4394588 C19.2392521,14.3386962 19.4678257,14.2883149 19.7004094,14.2883149 C19.9329931,14.2883149 20.1615668,14.3344977 20.3861304,14.4268635 C20.6106939,14.5192292 20.803177,14.6661747 20.9635796,14.8676999 C21.2041834,15.2035752 21.3244853,15.5562444 21.3244853,15.9257073 C21.3244853,16.0432636 21.3325054,16.1272325 21.3485457,16.1776138 C21.364586,16.2279951 21.3846363,16.2741779 21.4086967,16.3161624 C21.432757,16.3581468 21.4688476,16.4001312 21.5169684,16.4421156 C21.5650892,16.4841 21.6212301,16.5554736 21.6853911,16.6562362 C21.7816326,16.8073801 21.8297534,16.9753178 21.8297534,17.1600492 C21.9901559,17.2272243 22.1505585,17.3279869 22.3109611,17.462337 C22.6478064,17.7478311 22.9204908,18.117294 23.1290141,18.5707257 C23.1610946,18.6714883 23.1931751,18.7764494 23.2252556,18.8856089 C23.2573362,18.9947683 23.2813965,19.0997294 23.2974368,19.200492 C23.4738796,19.200492 23.6182419,19.2340795 23.7305237,19.3012546 L23.874886,19.4523985 C23.9069665,19.5027798 23.9470672,19.5531611 23.9951879,19.6035424 C23.9791477,19.7714801 23.9791477,19.998196 23.9951879,20.28369 Z" id="Shape" fill="#E85959" fill-rule="nonzero"></path>
                <rect id="Rectangle-23" fill="#D8D8D8" opacity="0" x="0" y="0" width="24" height="24"></rect>
            </g>
        </g>
    </g>
</svg>