<?xml version="1.0" encoding="UTF-8"?>
<svg width="24px" height="24px" viewBox="0 0 24 24" version="1.1" xmlns="http://www.w3.org/2000/svg" xmlns:xlink="http://www.w3.org/1999/xlink">
    <!-- Generator: Sketch 50 (54983) - http://www.bohemiancoding.com/sketch -->
    <title>G_5</title>
    <desc>Created with Sketch.</desc>
    <defs></defs>
    <g id="开发资源" stroke="none" stroke-width="1" fill="none" fill-rule="evenodd">
        <g id="开发文档" transform="translate(-573.000000, -2596.000000)" fill-rule="nonzero">
            <g id="D_5" transform="translate(573.000000, 2596.000000)">
                <rect id="Rectangle-path" fill="#000000" opacity="0" x="0" y="0" width="24" height="24"></rect>
                <path d="M13.4470939,7.20518895 C12.5354416,7.20518895 11.8201445,7.96384453 11.8201445,7.96384453 C11.8201445,7.96384453 11.1457215,7.20518895 10.1931482,7.20518895 C9.26658996,7.20518895 8.51004373,8.05881124 8.4605448,9.0925234 C8.43260791,9.67647961 8.60111991,10.1207513 8.83858355,10.5233052 C9.31290148,11.3274754 11.8232382,12.9585497 11.8232382,12.9585497 C11.8232382,12.9585497 14.3242469,11.3343659 14.8017054,10.5233052 C15.0397316,10.1189232 15.2076811,9.67643273 15.1797442,9.0925234 C15.1302921,8.05876437 14.3737459,7.20518895 13.4470939,7.20518895" id="Shape" fill="#DE5E88"></path>
                <path d="M11.9999531,0.727296867 C6.99685748,0.727296867 2.94108525,4.7830691 2.94108525,9.78616474 C2.94108525,16.7725459 12.0000469,22.9901467 12.0000469,22.9901467 C12.0000469,22.9901467 21.0590085,16.7725459 21.0590085,9.78616474 C21.0589148,4.78306913 17.0030488,0.727296867 11.9999531,0.727296867 Z M14.8017523,10.5232114 C14.3242938,11.3343659 11.823285,12.958456 11.823285,12.958456 C11.823285,12.9584559 9.31299523,11.3272879 8.83863042,10.5232114 C8.60116678,10.1206576 8.43265477,9.67633898 8.46059166,9.09242965 C8.51013748,8.05881122 9.26663684,7.2050952 10.1931951,7.2050952 C11.1458152,7.2050952 11.8201914,7.96375078 11.8201914,7.96375078 C11.8201914,7.96375078 12.5353947,7.2050952 13.4471408,7.2050952 C14.373699,7.2050952 15.1302452,8.05871749 15.1797442,9.09242965 C15.2077279,9.67633898 15.0397316,10.1189232 14.8017523,10.5232114 Z" id="Shape" fill="#FFDB9F"></path>
                <path d="M10.1932419,6.47789208 C8.88362944,6.47789208 7.80346516,7.61107085 7.73413852,9.0577429 C7.69354563,9.90728714 7.98753933,10.5118679 8.21220638,10.892766 C8.74633552,11.7982309 10.9838187,13.2803865 11.4269654,13.5683335 C11.5449119,13.645036 11.6825916,13.6858432 11.823285,13.6857997 C11.9610946,13.6857997 12.0989041,13.6466599 12.2193703,13.5684741 C12.6610639,13.281699 14.8912816,11.8047464 15.4285513,10.8922035 L15.4285513,10.8921097 C15.6530778,10.510743 15.9468371,9.90559969 15.9062911,9.05760227 C15.8369644,7.61102398 14.7568001,6.4778452 13.4471876,6.4778452 C12.7798895,6.4778452 12.213511,6.75590173 11.8275975,7.0182086 C11.4461369,6.75430802 10.8822428,6.47789208 10.1932419,6.47789208 Z M13.4471876,7.93243896 C13.9703951,7.93243896 14.4217448,8.4683962 14.4533379,9.12721015 C14.470775,9.49123357 14.3901518,9.78883657 14.1750001,10.1542193 C13.9616766,10.5165553 12.8602315,11.380443 11.8233319,12.0850997 C10.782073,11.3776774 9.67683117,10.5126179 9.46510134,10.1536568 C9.25018409,9.78935217 9.16965457,9.49198357 9.18713855,9.12725702 C9.21868474,8.46839618 9.67008129,7.93248581 10.1932888,7.93248584 C10.7965571,7.93248584 11.2757968,8.44617792 11.2766405,8.44697477 C11.4121619,8.59946996 11.6055141,8.68801604 11.8095041,8.69100077 C12.0128435,8.69578193 12.2093861,8.61112748 12.349305,8.46272445 C12.3543674,8.45742769 12.8750437,7.93243896 13.4471876,7.93243896 Z" id="Shape" fill="#000000"></path>
                <path d="M13.7881491,22.5448906 C14.6654896,21.8352184 15.8588077,20.7930689 17.0612194,19.504081 C20.1964802,16.1432625 21.7862116,12.8737078 21.7862116,9.78611787 C21.7862116,4.39007756 17.3960872,0 11.9999531,0 C6.60381905,0 2.21378838,4.39007756 2.21378838,9.78625849 C2.21378838,12.8738015 3.80347298,16.1434032 6.9387806,19.5042216 C8.14119227,20.7932095 9.33455726,21.8353121 10.2118509,22.5450313 C11.1361123,23.5147604 11.7321464,23.999625 11.9999531,23.999625 L13.7881491,22.5448906 Z M3.66838212,9.78625849 C3.66838212,5.19218531 7.40592682,1.45459373 11.9999531,1.45459376 C16.5939794,1.45459378 20.3316179,5.19218534 20.3316179,9.78625849 C20.3316179,15.4777456 13.7320409,20.7940533 11.9999531,22.0910098 C10.2676778,20.7939595 3.66838212,15.4776518 3.66838212,9.78625849 Z" id="Shape" fill="#000000"></path>
                <path d="M17.9618094,12.6554156 C18.0261776,12.5208102 18.0861147,12.3841303 18.1415243,12.2455963 C18.2905367,11.8725731 18.1089469,11.4494415 17.7359236,11.3004291 C17.3629473,11.1513229 16.9397689,11.3329596 16.7906627,11.7059829 C16.7472163,11.8147443 16.7001758,11.9220353 16.6496189,12.0276791 C15.7647316,13.8769519 13.8689599,15.0718168 11.8201445,15.0718168 C8.86984849,15.0718168 6.46957195,12.6715402 6.46957195,9.72124427 C6.46957195,6.77099515 8.86984852,4.37071861 11.8201445,4.37071861 C12.2218077,4.37071861 12.5474414,4.04503812 12.5474414,3.64342172 C12.5474414,3.24180532 12.2218546,2.91612485 11.8201445,2.91612485 C8.06778762,2.91612485 5.0149782,5.96893427 5.0149782,9.7211974 C5.0149782,13.473648 8.06778762,16.5263637 11.8201445,16.5263637 C14.4258229,16.5263168 16.8365524,15.0069432 17.9618094,12.6554156 Z M17.8982483,10.4920871 C17.8502493,10.4920871 17.8029534,10.4870716 17.7557045,10.4775562 C17.7091463,10.4681864 17.6636061,10.454325 17.619723,10.4361664 C17.57583,10.4177626 17.533717,10.3953724 17.4939132,10.3692772 C17.4542086,10.3429036 17.4171882,10.312697 17.3833843,10.2790916 C17.3496016,10.2454139 17.3193801,10.2083438 17.2931988,10.168469 C17.2405247,10.0890358 17.2037383,10.00015 17.184873,9.90672466 C17.1755723,9.86001984 17.1709402,9.81250572 17.1710452,9.76488396 C17.1710452,9.57288809 17.2481529,9.38595459 17.3834312,9.25077 C17.4168992,9.2165051 17.4547266,9.18669326 17.4939601,9.15988132 C17.5337322,9.13373253 17.5758502,9.11133969 17.6197699,9.09299215 C17.663644,9.07479723 17.7091862,9.06091949 17.7557513,9.05155554 C17.8496051,9.03266554 17.9462821,9.03266554 18.0401359,9.05155554 C18.0866817,9.06102408 18.1325245,9.07485192 18.1761173,9.09299215 C18.2200193,9.11137709 18.262134,9.13376813 18.3019271,9.15988132 C18.341525,9.18666276 18.3785294,9.2170917 18.412456,9.25077 C18.5477343,9.38529837 18.624842,9.57293496 18.624842,9.76488396 C18.6249722,9.81250692 18.6203399,9.86002355 18.6110142,9.90672466 C18.5921341,10.0001455 18.5553489,10.0890285 18.5026884,10.168469 C18.4762875,10.2081824 18.4460832,10.2452313 18.4125029,10.2790916 C18.2757402,10.414918 18.0909978,10.4914351 17.8982483,10.4920871 Z" id="Shape" fill="#000000"></path>
            </g>
        </g>
    </g>
</svg>