<?xml version="1.0" encoding="UTF-8"?>
<svg width="16px" height="16px" viewBox="0 0 16 16" version="1.1" xmlns="http://www.w3.org/2000/svg" xmlns:xlink="http://www.w3.org/1999/xlink">
    <!-- Generator: Sketch 50 (54983) - http://www.bohemiancoding.com/sketch -->
    <title>G_6</title>
    <desc>Created with Sketch.</desc>
    <defs></defs>
    <g id="开发资源" stroke="none" stroke-width="1" fill="none" fill-rule="evenodd">
        <g id="开发文档" transform="translate(-616.000000, -2598.000000)" fill-rule="nonzero">
            <g id="D_6" transform="translate(616.000000, 2598.000000)">
                <rect id="Rectangle-path" fill="#000000" opacity="0" x="0" y="0" width="16" height="16"></rect>
                <path d="M8,1 C4.13,1 1,4.13 1,8 C1,11.87 4.13,15 8,15 C11.87,15 15,11.87 15,8 C15,4.13 11.87,1 8,1 Z M8,12 C7.45,12 7,11.55 7,11 C7,10.45 7.45,10 8,10 C8.55,10 9,10.45 9,11 C9,11.55 8.55,12 8,12 Z M9,8 C9,8.55 8.55,9 8,9 C7.45,9 7,8.55 7,8 L7,5 C7,4.45 7.45,4 8,4 C8.55,4 9,4.45 9,5 L9,8 Z" id="Shape" fill="#CCCCCC"></path>
            </g>
        </g>
    </g>
</svg>