<?xml version="1.0" encoding="UTF-8"?>
<svg width="12px" height="12px" viewBox="0 0 12 12" version="1.1" xmlns="http://www.w3.org/2000/svg" xmlns:xlink="http://www.w3.org/1999/xlink">
    <!-- Generator: Sketch 50 (54983) - http://www.bohemiancoding.com/sketch -->
    <title>G_7</title>
    <desc>Created with Sketch.</desc>
    <defs></defs>
    <g id="开发资源" stroke="none" stroke-width="1" fill="none" fill-rule="evenodd">
        <g id="开发文档" transform="translate(-654.000000, -2600.000000)">
            <g id="D_7" transform="translate(654.000000, 2600.000000)">
                <rect id="Rectangle-3" fill="#D8D8D8" opacity="0" x="0" y="0" width="12" height="12"></rect>
                <path d="M5.03553391,8.03553391 L7.03553391,8.03553391 C7.58781866,8.03553391 8.03553391,8.48324916 8.03553391,9.03553391 C8.03553391,9.58781866 7.58781866,10.0355339 7.03553391,10.0355339 L4.03553391,10.0355339 C3.48324916,10.0355339 3.03553391,9.58781866 3.03553391,9.03553391 L3.03553391,6.03553391 C3.03553391,5.48324916 3.48324916,5.03553391 4.03553391,5.03553391 C4.58781866,5.03553391 5.03553391,5.48324916 5.03553391,6.03553391 L5.03553391,8.03553391 Z" id="Combined-Shape" fill-opacity="0.3" fill="#000000" transform="translate(5.535534, 7.535534) scale(-1, 1) rotate(-45.000000) translate(-5.535534, -7.535534) "></path>
                <path d="M5.03553391,4.03553391 L7.03553391,4.03553391 C7.58781866,4.03553391 8.03553391,4.48324916 8.03553391,5.03553391 C8.03553391,5.58781866 7.58781866,6.03553391 7.03553391,6.03553391 L4.03553391,6.03553391 C3.48324916,6.03553391 3.03553391,5.58781866 3.03553391,5.03553391 L3.03553391,2.03553391 C3.03553391,1.48324916 3.48324916,1.03553391 4.03553391,1.03553391 C4.58781866,1.03553391 5.03553391,1.48324916 5.03553391,2.03553391 L5.03553391,4.03553391 Z" id="Combined-Shape" fill-opacity="0.3" fill="#000000" transform="translate(5.535534, 3.535534) scale(-1, -1) rotate(-45.000000) translate(-5.535534, -3.535534) "></path>
            </g>
        </g>
    </g>
</svg>