<?xml version="1.0" encoding="UTF-8"?>
<svg width="16px" height="16px" viewBox="0 0 16 16" version="1.1" xmlns="http://www.w3.org/2000/svg" xmlns:xlink="http://www.w3.org/1999/xlink">
    <!-- Generator: Sketch 50 (54983) - http://www.bohemiancoding.com/sketch -->
    <title>Shape</title>
    <desc>Created with Sketch.</desc>
    <defs></defs>
    <g id="开发资源" stroke="none" stroke-width="1" fill="none" fill-rule="evenodd">
        <g id="开发文档" transform="translate(-981.000000, -3448.000000)" fill="#23B16C" fill-rule="nonzero">
            <g id="控件与链接" transform="translate(0.000000, 3156.000000)">
                <g id="sou" transform="translate(651.000000, 281.000000)">
                    <path d="M341.883361,24.3849119 C340.642613,25.3141737 339.101733,25.8645921 337.432296,25.8645921 C333.327552,25.8645921 330,22.5370397 330,18.432296 C330,14.3275523 333.327552,11 337.432296,11 C341.53704,11 344.864592,14.3275523 344.864592,18.432296 C344.864592,20.1017332 344.314174,21.6426132 343.384912,22.8833613 L345.694279,25.1927289 C346.107013,25.6054623 346.108357,26.2732915 345.690824,26.690824 C345.276182,27.1054658 344.597947,27.0994978 344.192729,26.6942794 L341.883361,24.3849119 Z M337.432296,23.7410789 C340.364256,23.7410789 342.741079,21.3642559 342.741079,18.432296 C342.741079,15.5003362 340.364256,13.1235132 337.432296,13.1235132 C334.500336,13.1235132 332.123513,15.5003362 332.123513,18.432296 C332.123513,21.3642559 334.500336,23.7410789 337.432296,23.7410789 Z" id="Shape"></path>
                </g>
            </g>
        </g>
    </g>
</svg>