<?xml version="1.0" encoding="UTF-8"?>
<svg width="16px" height="16px" viewBox="0 0 16 16" version="1.1" xmlns="http://www.w3.org/2000/svg" xmlns:xlink="http://www.w3.org/1999/xlink">
    <!-- Generator: Sketch 50 (54983) - http://www.bohemiancoding.com/sketch -->
    <title>Shape</title>
    <desc>Created with Sketch.</desc>
    <defs></defs>
    <g id="开发资源" stroke="none" stroke-width="1" fill="none" fill-rule="evenodd">
        <g id="开发文档" transform="translate(-981.000000, -3542.000000)" fill="#23B16C" fill-rule="nonzero">
            <g id="控件与链接" transform="translate(0.000000, 3156.000000)">
                <g id="sou-copy-2" transform="translate(648.000000, 372.000000)">
                    <path d="M344.883361,27.3849119 C343.642613,28.3141737 342.101733,28.8645921 340.432296,28.8645921 C336.327552,28.8645921 333,25.5370397 333,21.432296 C333,17.3275523 336.327552,14 340.432296,14 C344.53704,14 347.864592,17.3275523 347.864592,21.432296 C347.864592,23.1017332 347.314174,24.6426132 346.384912,25.8833613 L348.694279,28.1927289 C349.107013,28.6054623 349.108357,29.2732915 348.690824,29.690824 C348.276182,30.1054658 347.597947,30.0994978 347.192729,29.6942794 L344.883361,27.3849119 Z M340.432296,26.7410789 C343.364256,26.7410789 345.741079,24.3642559 345.741079,21.432296 C345.741079,18.5003362 343.364256,16.1235132 340.432296,16.1235132 C337.500336,16.1235132 335.123513,18.5003362 335.123513,21.432296 C335.123513,24.3642559 337.500336,26.7410789 340.432296,26.7410789 Z" id="Shape"></path>
                </g>
            </g>
        </g>
    </g>
</svg>