<svg width="35" height="30" xmlns="http://www.w3.org/2000/svg"><g fill-rule="nonzero" fill="none"><path d="M7.93 12.54a12.135 12.135 0 1 0 24.27 0C32.2 5.839 26.768.406 20.066.406S7.93 5.838 7.93 12.541z" fill="#FFEC43"/><path d="M20.065 24.952c-6.844 0-12.412-5.568-12.412-12.412C7.653 5.697 13.221.13 20.065.13c6.844 0 12.412 5.567 12.412 12.41 0 6.844-5.568 12.412-12.412 12.412zm0-24.27c-6.54 0-11.86 5.32-11.86 11.859s5.32 11.86 11.86 11.86c6.54 0 11.86-5.321 11.86-11.86C31.925 6 26.605.68 20.065.68z" fill="#6B0204"/><path d="M6.166 23.09c.15.196.076.504-.164.689L3.705 25.54c-.24.185-.557.176-.707-.02-.15-.195-.077-.503.164-.687l2.297-1.762c.24-.185.557-.176.707.02zm.528 2.883c.15.196.077.504-.164.688l-2.297 1.762c-.24.184-.557.175-.707-.02-.15-.196-.076-.504.164-.688l2.297-1.762c.24-.184.557-.175.707.02zm-3.175-4.14c.15.196.077.504-.164.688l-2.297 1.762c-.24.184-.557.176-.707-.02-.15-.195-.076-.503.164-.688l2.297-1.762c.615-.471.765.095.707.02z" fill="#6C0000"/><path d="M10.814 11.876s-3.317-2.019-9.3 3.05l5.767 2.54 3.533-5.59z" fill="#BED5E9"/><path d="M7.387 17.815L1 15l.337-.286c3.426-2.902 6.012-3.511 7.578-3.511 1.31 0 2.014.419 2.043.437l.24.146-3.81 6.03zm-5.353-2.963l5.14 2.266 3.237-5.121c-.28-.104-.786-.242-1.497-.242-1.422 0-3.754.547-6.88 3.097z" fill="#6C0000"/><path d="M17.944 21.173s1.09 3.727-5.356 8.19l-.96-6.227 6.316-1.963z" fill="#BED5E9"/><path d="M12.382 29.842l-1.063-6.9 6.812-2.115.078.27c.047.16 1.07 3.97-5.464 8.494l-.363.25zm-.444-6.513l.854 5.552c4.855-3.495 5.016-6.451 4.932-7.35l-5.787 1.798z" fill="#6C0000"/><path d="M19.43 20.016c5.323-4.083 8.047-9.469 6.083-12.03-1.964-2.561-7.872-1.327-13.196 2.756-3.468 2.659-5.83 5.87-6.515 8.495h.002a.143.143 0 0 0-.015.053c-.006.089 3.3 1.15 3.533 4.629.002.04.018.08.043.111a.2.2 0 0 0 .127.078c.016.002.032.001.048-.003 2.711.018 6.424-1.431 9.89-4.089z" fill="#BED5E9"/><path d="M9.505 24.385l-.057-.004a.474.474 0 0 1-.303-.184.472.472 0 0 1-.099-.262c-.125-1.872-1.201-3.318-3.199-4.296-.202-.099-.348-.17-.334-.368a.405.405 0 0 1 .022-.106c.73-2.796 3.203-6.027 6.614-8.642 3.386-2.598 7.128-4.149 10.01-4.149 1.613 0 2.849.5 3.573 1.444 2.053 2.678-.699 8.248-6.135 12.417-3.385 2.596-7.126 4.147-10.008 4.147l-.084.003zm-3.394-5.232c2.15 1.06 3.32 2.632 3.48 4.676 2.764 0 6.379-1.508 9.67-4.032 5.195-3.984 7.9-9.207 6.033-11.643-.616-.803-1.7-1.227-3.136-1.227-2.764 0-6.38 1.508-9.673 4.034-3.255 2.496-5.625 5.545-6.374 8.192z" fill="#6C0000"/><path d="M16.695 21.618L9.99 12.783a21.05 21.05 0 0 0-1.051 1.194l6.33 8.342c.484-.216.96-.45 1.426-.7z" fill="#FFF"/><path d="M15.181 22.66l-6.593-8.689.137-.168c.34-.417.695-.82 1.065-1.21l.224-.236 7.096 9.352-.284.152c-.473.255-.955.492-1.445.71l-.2.089zm-5.89-8.676l6.065 7.993c.31-.143.618-.293.922-.45l-6.31-8.316c-.232.252-.458.51-.677.773z" fill="#6C0000"/><path d="M13.744 23.24l-6.016-7.843a5.27 5.27 0 0 0-.708 1.184l5.356 7.066c.383-.052 1.012-.251 1.368-.407z" fill="#FFF"/><path d="M12.253 23.941l-5.55-7.32.063-.147c.178-.423.45-.878.747-1.25l.22-.275 6.444 8.403-.323.141c-.372.163-1.029.372-1.441.427l-.16.021zm-4.915-7.397l5.157 6.802a6.36 6.36 0 0 0 .806-.23l-5.568-7.26c-.15.219-.281.449-.394.688z" fill="#6C0000"/><path d="M16.061 13.306a2.504 2.504 0 1 0 5.008 0 2.504 2.504 0 0 0-5.008 0z" fill="#ECF3FE"/><path d="M18.565 16.086a2.783 2.783 0 0 1-2.78-2.78 2.783 2.783 0 0 1 2.78-2.78 2.783 2.783 0 0 1 2.78 2.78 2.782 2.782 0 0 1-2.78 2.78zm0-5.007a2.23 2.23 0 0 0-2.228 2.228c0 1.228 1 2.227 2.228 2.227 1.228 0 2.228-1 2.228-2.227 0-1.229-1-2.228-2.228-2.228z" fill="#6C0000"/><path d="M19.317 11.338c.687.352.978 1.175.886 1.995-.2 1.789-2.316 1.982-2.529 1.91a2.124 2.124 0 0 0 1.643-3.905z" fill="#BED5E9"/><path d="M31.162 2.006a1.35 1.35 0 1 0 2.701 0 1.35 1.35 0 0 0-2.701 0z" fill="#FFC700"/><path d="M32.513 3.632c-.898 0-1.628-.73-1.628-1.626a1.628 1.628 0 0 1 3.254 0c0 .897-.73 1.626-1.626 1.626zm0-2.701a1.076 1.076 0 0 0 0 2.15 1.076 1.076 0 0 0 0-2.15zM5.704 3.23a1.013 1.013 0 1 0 2.026 0 1.013 1.013 0 0 0-2.026 0z" fill="#6C0000"/></g></svg>