<svg width="36" height="26" xmlns="http://www.w3.org/2000/svg"><g fill-rule="nonzero" fill="none"><path d="M18.875 12.171c-8.41-1.507-17.698-1.156-18.347 2.464-.649 3.62 7.94 7.174 16.35 8.681 8.41 1.508 17.698 1.157 18.347-2.463.648-3.62-7.94-7.175-16.35-8.682zm15.635 8.554c-.417 2.324-7.996 3.647-17.516 1.941-9.52-1.706-16.168-5.58-15.751-7.903.416-2.323 7.995-3.648 17.516-1.941 9.52 1.706 16.167 5.58 15.75 7.903z" fill="#6B0306"/><path d="M11.064 6.16c.437-.697.948-1.361 1.549-1.972C17.07-.347 24.362-.409 28.897 4.049a11.485 11.485 0 0 1 3.403 9.1l.688.225a12.19 12.19 0 0 0-3.6-9.824c-4.811-4.73-12.545-4.663-17.274.147a12.241 12.241 0 0 0-1.737 2.236l.687.227z" fill="#6B0204"/><path d="M7.698 6.674a2.692 2.692 0 1 0 5.384 0 2.692 2.692 0 0 0-5.384 0z" fill="#FFEC43"/><path d="M10.39 9.62a2.95 2.95 0 0 1-2.946-2.947 2.95 2.95 0 0 1 2.946-2.946 2.95 2.95 0 0 1 2.946 2.947A2.95 2.95 0 0 1 10.39 9.62zm0-5.384a2.44 2.44 0 0 0-2.438 2.437 2.44 2.44 0 0 0 2.438 2.438 2.44 2.44 0 0 0 2.437-2.438 2.44 2.44 0 0 0-2.437-2.437z" fill="#6B0204"/><path d="M11.178 4.358c.79.401 1.124 1.34 1.018 2.273C11.966 8.67 9.534 8.89 9.29 8.81c.344.175.725.266 1.112.265a2.431 2.431 0 0 0 2.442-2.42 2.424 2.424 0 0 0-1.666-2.296z" fill="#FFC700"/><path d="M31.115 12.552a1.333 1.333 0 1 0 2.666 0 1.333 1.333 0 0 0-2.666 0z" fill="#FFEC43"/><path d="M32.448 14.14a1.589 1.589 0 0 1-1.587-1.588c0-.875.712-1.587 1.587-1.587s1.587.712 1.587 1.587-.712 1.587-1.587 1.587zm0-2.666a1.08 1.08 0 0 0-1.078 1.078 1.08 1.08 0 0 0 1.078 1.078 1.08 1.08 0 0 0 1.078-1.078 1.08 1.08 0 0 0-1.078-1.078zM18.167 23.467a1.75 1.75 0 1 0 3.498 0 1.75 1.75 0 0 0-3.498 0z" fill="#6C0000"/><path d="M17.439 10a.434.434 0 0 1-.368-.206.469.469 0 0 1 .127-.63l.184-.123a.429.429 0 0 1 .559.186.47.47 0 0 1-.121.6l-.127.1a.425.425 0 0 1-.254.073z" fill="#6B400D"/><path d="M24.528 10.576a.632.632 0 0 0-1.086.195 4.69 4.69 0 0 1-.808 1.424c.025-.234.038-.47.038-.705a7.956 7.956 0 0 0-.057-.876 6.451 6.451 0 0 0-.486-1.695.717.717 0 0 0-.083-.176 6.305 6.305 0 0 0-2.317-2.659.633.633 0 0 0-.632 0 .63.63 0 0 0-.335.548 4.332 4.332 0 0 1-.46 1.89 4.219 4.219 0 0 1-1.611 1.733c-.713.42-1.325.99-1.794 1.67A5.515 5.515 0 0 0 14 14.941a5.42 5.42 0 0 0 .632 2.608 5.588 5.588 0 0 0 1.977 2.085.633.633 0 0 0 .707 0 .63.63 0 0 0 .24-.661 5.575 5.575 0 0 1-.145-1.26 5.243 5.243 0 0 1 .366-1.94c.102-.28.229-.55.38-.807l.037.088a9.862 9.862 0 0 0 4.18 4.624c.136.081.275.155.418.221l.07.038a.633.633 0 0 0 .675-.082 6.626 6.626 0 0 0 2.255-3.497c.133-.538.203-1.09.208-1.644a6.586 6.586 0 0 0-1.472-4.139z" fill="#FFEC43"/><path d="M22.762 20a.443.443 0 0 1-.15-.026 5.754 5.754 0 0 1-.998-.481 6.824 6.824 0 0 1-2.824-3.238l-.026-.062c-.101.18-.187.369-.256.565a3.874 3.874 0 0 0-.055 2.567.452.452 0 0 1-.098.441.417.417 0 0 1-.427.12 5.592 5.592 0 0 1-3.28-2.784 5.902 5.902 0 0 1 .243-5.805c.08-.133.17-.26.26-.38a.417.417 0 0 1 .581-.058.451.451 0 0 1 .093.597 4.994 4.994 0 0 0-.427 5.236 4.769 4.769 0 0 0 2.048 2.055 5.106 5.106 0 0 1-.038-.63 4.712 4.712 0 0 1 .303-1.672 4.56 4.56 0 0 1 .853-1.478.418.418 0 0 1 .426-.132c.152.037.271.157.312.313a5.981 5.981 0 0 0 2.73 3.582c.213.13.435.243.666.335a6.046 6.046 0 0 0 2.27-3.419c.113-.48.17-.974.17-1.469a6.039 6.039 0 0 0-.853-3.136c-.085.176-.18.347-.286.512a5.42 5.42 0 0 1-1.783 1.79c-.141.084-.278.16-.427.23a.416.416 0 0 1-.478-.084.453.453 0 0 1-.064-.494c.295-.727.44-1.51.427-2.298 0-.268-.017-.536-.047-.803a6.043 6.043 0 0 0-.427-1.548v-.049l-.025-.048a5.69 5.69 0 0 0-1.442-1.98 5.953 5.953 0 0 1-.533 1.68.42.42 0 0 1-.559.166.448.448 0 0 1-.2-.563 5.1 5.1 0 0 0 .498-2.109c0-.162.085-.312.224-.39a.415.415 0 0 1 .438.02 6.558 6.558 0 0 1 2.329 2.779c.03.05.054.103.072.159.24.562.404 1.156.487 1.764.03.306.042.614.038.922 0 .483-.05.965-.15 1.438.348-.305.649-.661.893-1.059.225-.332.406-.694.537-1.076a.431.431 0 0 1 .32-.286c.149-.03.3.024.401.14A7.033 7.033 0 0 1 26 14.168a6.91 6.91 0 0 1-3.003 5.752.417.417 0 0 1-.235.08z" fill="#6B0306"/></g></svg>