<!-- Generated by IcoMoon.io -->
<svg version="1.1" xmlns="http://www.w3.org/2000/svg" width="42" height="42" viewBox="0 0 42 42">
<title>JF2</title>
<path fill="#3c9" opacity="0.108" d="M39.151 20.884c0 9.655-7.868 17.482-17.574 17.482s-17.574-7.827-17.574-17.482c0-9.655 7.868-17.483 17.574-17.483s17.574 7.827 17.574 17.483z"></path>
<path fill="#3c9" d="M36.873 15.055c0.657 1.732 1.037 3.734 1.038 5.825v0c0 9.291-7.565 16.812-16.909 16.812s-16.91-7.521-16.91-16.812 7.565-16.812 16.91-16.812c4.895 0 9.271 2.065 12.385 5.383 0.297 0 0.52-0.074 0.742-0.295 0 0 0.297-0.295 0.297-0.885-3.339-3.613-8.159-5.825-13.425-5.825-10.235 0-18.541 8.258-18.541 18.435s8.307 18.435 18.541 18.435c10.234 0 18.541-8.258 18.541-18.435 0-2.286-0.445-4.424-1.187-6.415-0.37-0.221-1.038-0.295-1.483 0.59zM22.186 16.31l-0.371 0.443c2.299 2.36 5.191 3.981 8.752 4.867-0.371 0.516-0.742 1.032-1.039 1.549-1.483-0.516-2.817-1.107-4.154-1.918v1.107h-9.121v-1.107c-1.205 0.75-2.618 1.491-4.085 2.129l-0.216 0.084c-0.297-0.516-0.668-0.959-0.964-1.327 3.708-1.475 6.823-3.392 9.271-5.826h1.929zM14.844 11.738h1.706c-0.297 0.664-0.668 1.254-0.964 1.844h5.637v1.327h-6.452c-0.816 1.254-1.781 2.36-2.67 3.245-0.297-0.368-0.593-0.738-0.964-1.179 1.409-1.402 2.745-3.171 3.708-5.236zM11.877 28.625h11.496c1.112-1.844 2.076-3.614 2.817-5.383l1.484 0.811c-1.515 2.713-2.4 4.207-3.299 5.69l0.63-1.118h4.82v1.4h-17.947v-1.4zM13.806 24.274l1.26-0.664c0.816 1.254 1.484 2.581 2.152 3.909l-1.335 0.737c-0.593-1.4-1.26-2.728-2.076-3.981zM16.846 18.228c-0.519-0.738-1.112-1.402-1.632-2.065l1.039-0.738c0.593 0.59 1.186 1.179 1.78 1.917l-1.186 0.885zM20.851 17.785c-1.26 1.179-2.67 2.286-4.302 3.245h8.381c-1.483-0.885-2.818-1.992-4.079-3.244zM19.368 23.315l1.335-0.368c0.414 1.068 0.87 2.493 1.259 3.947l0.075 0.33-1.483 0.442c-0.297-1.549-0.668-3.023-1.186-4.35zM23.373 11.739h1.632c-0.297 0.663-0.593 1.253-0.891 1.843h6.23v1.327h-7.046c-0.371 0.516-0.668 1.032-0.964 1.401-0.519-0.295-0.964-0.516-1.409-0.663 1.038-1.106 1.78-2.433 2.447-3.909zM26.562 18.448c-0.69-0.768-1.417-1.467-2.191-2.111l-0.034-0.027 0.964-0.885c0.836 0.687 1.585 1.362 2.303 2.069l-0.004-0.004-1.038 0.958zM34.572 11.738c0 0.815 0.664 1.475 1.483 1.475 0.001 0 0.003 0 0.004 0 0.815 0 1.477-0.66 1.479-1.475v-0c-0.003-0.815-0.664-1.474-1.479-1.474-0.002 0-0.003 0-0.005 0h0c-0.001 0-0.003 0-0.004 0-0.815 0-1.476 0.66-1.479 1.474v0z"></path>
</svg>
